G04 ================== begin FILE IDENTIFICATION RECORD ==================*
G04 Layout Name:  D:/gerber/SENSORSHLD1-EVK-101_BRD_REV01_2016-03-24.brd*
G04 Film Name:    ASSY_BOTTOM*
G04 File Format:  Gerber RS274X*
G04 File Origin:  Cadence Allegro 16.5-S058*
G04 Origin Date:  Thu Mar 24 10:19:38 2016*
G04 *
G04 Layer:  BOARD GEOMETRY/LOGO_OUTLINE_M*
G04 Layer:  DRAWING FORMAT/ASSEMBLY_BOTTOM*
G04 Layer:  REF DES/ASSEMBLY_BOTTOM*
G04 Layer:  PACKAGE GEOMETRY/ASSEMBLY_BOTTOM*
G04 Layer:  BOARD GEOMETRY/ASSEMBLY_BOTTOM*
G04 Layer:  DRAWING FORMAT/OUTLINE*
G04 Layer:  BOARD GEOMETRY/OUTLINE*
G04 *
G04 Offset:    (0.000 0.000)*
G04 Mirror:    No*
G04 Mode:      Positive*
G04 Rotation:  0*
G04 FullContactRelief:  No*
G04 UndefLineWidth:     6.000*
G04 ================== end FILE IDENTIFICATION RECORD ====================*
%FSLAX55Y55*MOIN*%
%IR0*IPPOS*OFA0.00000B0.00000*MIA0B0*SFA1.00000B1.00000*%
%ADD10C,.006*%
%ADD11C,.007098*%
G75*
%LPD*%
G75*
G54D10*
G01X-339923Y-855954D02*
X-340323Y-855354D01*
X-340790Y-855054D01*
X-341324Y-854954D01*
X-341990Y-855154D01*
X-342457Y-855654D01*
X-342590Y-856254D01*
X-342524Y-856854D01*
X-342257Y-857354D01*
X-340923Y-858354D01*
X-340323Y-859054D01*
X-339923Y-860055D01*
X-339790Y-860954D01*
X-342590D01*
G01X-350790D02*
X-350257Y-860854D01*
X-349790Y-860454D01*
X-349390Y-859854D01*
X-349123Y-859154D01*
X-348990Y-858354D01*
Y-857554D01*
X-349123Y-856754D01*
X-349390Y-856054D01*
X-349790Y-855455D01*
X-350257Y-855054D01*
X-350790Y-854954D01*
X-351323Y-855054D01*
X-351790Y-855455D01*
X-352190Y-856054D01*
X-352457Y-856754D01*
X-352590Y-857554D01*
Y-858354D01*
X-352457Y-859154D01*
X-352190Y-859854D01*
X-351790Y-860454D01*
X-351323Y-860854D01*
X-350790Y-860954D01*
G01X-354323D02*
Y-854954D01*
X-356857D01*
G01X-355923Y-857854D02*
X-354323D01*
G01X-363923Y-855954D02*
X-364323Y-855354D01*
X-364790Y-855054D01*
X-365324Y-854954D01*
X-365990Y-855154D01*
X-366457Y-855654D01*
X-366590Y-856254D01*
X-366524Y-856854D01*
X-366257Y-857354D01*
X-364923Y-858354D01*
X-364323Y-859054D01*
X-363923Y-860055D01*
X-363790Y-860954D01*
X-366590D01*
G01X-319002Y-855023D02*
X-318468Y-855223D01*
X-318068Y-855723D01*
X-317802Y-856323D01*
X-317602Y-857123D01*
X-317535Y-858023D01*
X-317602Y-858923D01*
X-317802Y-859723D01*
X-318068Y-860323D01*
X-318468Y-860823D01*
X-319002Y-861023D01*
X-319535Y-860823D01*
X-319935Y-860323D01*
X-320202Y-859723D01*
X-320402Y-858923D01*
X-320468Y-858023D01*
X-320402Y-857123D01*
X-320202Y-856323D01*
X-319935Y-855723D01*
X-319535Y-855223D01*
X-319002Y-855023D01*
G01X-323802Y-861023D02*
Y-855023D01*
X-323002Y-856223D01*
G01Y-861023D02*
X-324602D01*
G01X-237168Y-813523D02*
Y-807523D01*
X-238835D01*
X-239368Y-807823D01*
X-239702Y-808223D01*
X-239835Y-809023D01*
X-239702Y-809823D01*
X-239302Y-810323D01*
X-238835Y-810623D01*
X-237168D01*
G01X-238835D02*
X-239835Y-813523D01*
G01X-243301D02*
X-242768Y-813423D01*
X-242302Y-813023D01*
X-241902Y-812423D01*
X-241635Y-811723D01*
X-241502Y-810923D01*
Y-810123D01*
X-241635Y-809323D01*
X-241902Y-808623D01*
X-242302Y-808023D01*
X-242768Y-807623D01*
X-243301Y-807523D01*
X-243835Y-807623D01*
X-244302Y-808023D01*
X-244702Y-808623D01*
X-244968Y-809323D01*
X-245102Y-810123D01*
Y-810923D01*
X-244968Y-811723D01*
X-244702Y-812423D01*
X-244302Y-813023D01*
X-243835Y-813423D01*
X-243301Y-813523D01*
G01X-246702D02*
Y-807523D01*
G01X-249502D02*
Y-813523D01*
G01Y-810523D02*
X-246702D01*
G01X-251168Y-813523D02*
Y-807523D01*
X-252901Y-812523D01*
X-254635Y-807523D01*
Y-813523D01*
G01X-261102Y-812723D02*
X-261635Y-813223D01*
X-262235Y-813523D01*
X-262768D01*
X-263302Y-813223D01*
X-263702Y-812723D01*
X-263902Y-812023D01*
X-263768Y-811323D01*
X-263435Y-810723D01*
X-262835Y-810323D01*
X-262035Y-810123D01*
X-261568Y-809723D01*
X-261368Y-809023D01*
X-261502Y-808323D01*
X-261835Y-807823D01*
X-262302Y-807523D01*
X-262768D01*
X-263235Y-807723D01*
X-263635Y-808223D01*
G01X-268635Y-813523D02*
X-265968D01*
Y-807523D01*
X-268635D01*
G01X-267568Y-810423D02*
X-265968D01*
G01X-270368Y-813523D02*
Y-807523D01*
X-272102Y-812523D01*
X-273835Y-807523D01*
Y-813523D01*
G01X-276102Y-807523D02*
X-277702D01*
G01X-276902D02*
Y-813523D01*
G01X-276102D02*
X-277702D01*
G01X-283168Y-808023D02*
X-282768Y-807723D01*
X-282302Y-807523D01*
X-281768D01*
X-281168Y-807823D01*
X-280702Y-808323D01*
X-280368Y-808923D01*
X-280102Y-809923D01*
X-280035Y-810823D01*
X-280168Y-811723D01*
X-280368Y-812323D01*
X-280768Y-812923D01*
X-281235Y-813323D01*
X-281702Y-813523D01*
X-282168D01*
X-282635Y-813323D01*
X-283035Y-813023D01*
X-283368Y-812623D01*
G01X-286502Y-813523D02*
X-285968Y-813423D01*
X-285502Y-813023D01*
X-285102Y-812423D01*
X-284835Y-811723D01*
X-284702Y-810923D01*
Y-810123D01*
X-284835Y-809323D01*
X-285102Y-808623D01*
X-285502Y-808023D01*
X-285968Y-807623D01*
X-286502Y-807523D01*
X-287035Y-807623D01*
X-287502Y-808023D01*
X-287902Y-808623D01*
X-288168Y-809323D01*
X-288302Y-810123D01*
Y-810923D01*
X-288168Y-811723D01*
X-287902Y-812423D01*
X-287502Y-813023D01*
X-287035Y-813423D01*
X-286502Y-813523D01*
G01X-289768D02*
Y-807523D01*
X-292835Y-813523D01*
Y-807523D01*
G01X-294635Y-813523D02*
Y-807523D01*
X-295968D01*
X-296502Y-807823D01*
X-296902Y-808223D01*
X-297235Y-808823D01*
X-297502Y-809523D01*
X-297568Y-810523D01*
X-297502Y-811523D01*
X-297235Y-812223D01*
X-296902Y-812823D01*
X-296502Y-813223D01*
X-295968Y-813523D01*
X-294635D01*
G01X-299435Y-807523D02*
Y-811823D01*
X-299702Y-812723D01*
X-300235Y-813323D01*
X-300902Y-813523D01*
X-301568Y-813323D01*
X-302102Y-812723D01*
X-302368Y-811823D01*
Y-807523D01*
G01X-307168Y-808023D02*
X-306768Y-807723D01*
X-306302Y-807523D01*
X-305768D01*
X-305168Y-807823D01*
X-304702Y-808323D01*
X-304368Y-808923D01*
X-304102Y-809923D01*
X-304035Y-810823D01*
X-304168Y-811723D01*
X-304368Y-812323D01*
X-304768Y-812923D01*
X-305235Y-813323D01*
X-305702Y-813523D01*
X-306168D01*
X-306635Y-813323D01*
X-307035Y-813023D01*
X-307368Y-812623D01*
G01X-310502Y-807523D02*
Y-813523D01*
G01X-308968Y-807523D02*
X-312035D01*
G01X-315302Y-813523D02*
X-314768Y-813423D01*
X-314302Y-813023D01*
X-313902Y-812423D01*
X-313635Y-811723D01*
X-313502Y-810923D01*
Y-810123D01*
X-313635Y-809323D01*
X-313902Y-808623D01*
X-314302Y-808023D01*
X-314768Y-807623D01*
X-315302Y-807523D01*
X-315835Y-807623D01*
X-316302Y-808023D01*
X-316702Y-808623D01*
X-316968Y-809323D01*
X-317102Y-810123D01*
Y-810923D01*
X-316968Y-811723D01*
X-316702Y-812423D01*
X-316302Y-813023D01*
X-315835Y-813423D01*
X-315302Y-813523D01*
G01X-318768D02*
Y-807523D01*
X-320435D01*
X-320968Y-807823D01*
X-321302Y-808223D01*
X-321435Y-809023D01*
X-321302Y-809823D01*
X-320902Y-810323D01*
X-320435Y-810623D01*
X-318768D01*
G01X-320435D02*
X-321435Y-813523D01*
G01X-328235Y-807523D02*
Y-811823D01*
X-328502Y-812723D01*
X-329035Y-813323D01*
X-329702Y-813523D01*
X-330368Y-813323D01*
X-330902Y-812723D01*
X-331168Y-811823D01*
Y-807523D01*
G01X-333102Y-812723D02*
X-333635Y-813223D01*
X-334235Y-813523D01*
X-334768D01*
X-335302Y-813223D01*
X-335702Y-812723D01*
X-335902Y-812023D01*
X-335768Y-811323D01*
X-335435Y-810723D01*
X-334835Y-810323D01*
X-334035Y-810123D01*
X-333568Y-809723D01*
X-333368Y-809023D01*
X-333502Y-808323D01*
X-333835Y-807823D01*
X-334302Y-807523D01*
X-334768D01*
X-335235Y-807723D01*
X-335635Y-808223D01*
G01X-337635Y-813523D02*
X-339302Y-807523D01*
X-340968Y-813523D01*
G01X-340368Y-811423D02*
X-338235D01*
G01X108000Y207010D02*
X28339D01*
G01X9600Y192990D02*
X68764D01*
G01X28339Y207010D02*
X9600D01*
G01D02*
Y192990D01*
G01Y217010D02*
Y202990D01*
G01D02*
X68764D01*
G01X28339Y217010D02*
X9600D01*
G01X108000D02*
X28339D01*
G01X52500Y10000D02*
G03I-2500J0D01*
G01X46000Y17008D02*
Y2992D01*
G01D02*
X94098D01*
G01Y17008D02*
X46000D01*
G01X60855Y195892D02*
Y198992D01*
G01X59245D02*
Y195892D01*
G01Y197442D02*
X60855D01*
G01X57027Y195892D02*
X56950Y196563D01*
X56835Y197132D01*
X56682Y197648D01*
X56490Y198217D01*
X56183Y198992D01*
X57717D01*
G01X68764Y192990D02*
X108000D01*
G01X68764Y202990D02*
X108000D01*
G01X61155Y210500D02*
Y213600D01*
G01X59545D02*
Y210500D01*
G01Y212050D02*
X61155D01*
G01X57250Y210500D02*
X56982Y210552D01*
X56675Y210707D01*
X56483Y210965D01*
X56407Y211327D01*
X56483Y211688D01*
X56713Y211998D01*
X57058Y212153D01*
X57442D01*
X57672Y212257D01*
X57863Y212515D01*
X57940Y212877D01*
X57825Y213238D01*
X57557Y213497D01*
X57250Y213600D01*
X56943Y213497D01*
X56675Y213238D01*
X56560Y212877D01*
X56637Y212515D01*
X56828Y212257D01*
X57058Y212153D01*
X57442D01*
X57787Y211998D01*
X58017Y211688D01*
X58093Y211327D01*
X58017Y210965D01*
X57825Y210707D01*
X57518Y210552D01*
X57250Y210500D01*
G01X87655Y8000D02*
Y11100D01*
G01X86045D02*
Y8000D01*
G01Y9550D02*
X87655D01*
G01X83290Y8000D02*
Y11100D01*
X84708Y8878D01*
X82792D01*
G01X94098Y2992D02*
X124402D01*
G01Y17008D02*
X94098D01*
G01X106500Y200000D02*
G03I-2500J0D01*
G01X108000Y192990D02*
Y207010D01*
G01Y202990D02*
Y217010D01*
G01X194400Y2990D02*
Y17010D01*
X136000D01*
Y2990D01*
X194400D01*
G01X142500Y10000D02*
G03I-2500J0D01*
G01X124402Y2992D02*
Y17008D01*
G01X158155Y198500D02*
Y201600D01*
G01X156545D02*
Y198500D01*
G01Y200050D02*
X158155D01*
G01X154978Y199792D02*
X154710Y200153D01*
X154480Y200360D01*
X154173Y200463D01*
X153905Y200360D01*
X153713Y200153D01*
X153560Y199843D01*
X153522Y199482D01*
X153560Y199172D01*
X153713Y198862D01*
X153943Y198603D01*
X154212Y198500D01*
X154518Y198603D01*
X154787Y198913D01*
X154940Y199378D01*
X154978Y199895D01*
X154902Y200567D01*
X154787Y200928D01*
X154595Y201290D01*
X154327Y201548D01*
X154058Y201600D01*
X153790Y201497D01*
X153598Y201238D01*
G01X145902Y192992D02*
X194000D01*
G01Y207008D02*
X145902D01*
G01X115598Y192992D02*
X145902D01*
G01Y207008D02*
X115598D01*
G01D02*
Y192992D01*
G01X169655Y8500D02*
Y11600D01*
G01X168045D02*
Y8500D01*
G01Y10050D02*
X169655D01*
G01X166593Y8965D02*
X166363Y8707D01*
X166095Y8552D01*
X165750Y8500D01*
X165405Y8603D01*
X165137Y8810D01*
X164945Y9172D01*
X164907Y9585D01*
X164983Y9998D01*
X165175Y10257D01*
X165443Y10463D01*
X165712Y10515D01*
X165980Y10463D01*
X166325Y10257D01*
X166210Y11600D01*
X165175D01*
G01X192500Y200000D02*
G03I-2500J0D01*
G01X194000Y192992D02*
Y207008D01*
G01X1683598Y766477D02*
X-516402D01*
Y-923523D01*
G01Y-933523D02*
X1683598D01*
Y766477D01*
G01X-516402Y-923523D02*
Y-933523D01*
G01X-494827Y-703523D02*
X-486952Y-678523D01*
X-479076Y-703523D01*
G01X-481912Y-694773D02*
X-491992D01*
G01X-466402Y-503523D02*
X-496402D01*
G01X-484432Y-330189D02*
X-483172Y-328940D01*
X-482227Y-326857D01*
X-481596Y-323939D01*
X-482227Y-321440D01*
X-483486Y-319773D01*
X-485692Y-318523D01*
X-494197D01*
Y-343523D01*
X-483801D01*
X-481596Y-341857D01*
X-480337Y-339356D01*
X-479707Y-336440D01*
X-480337Y-333524D01*
X-482227Y-331023D01*
X-484432Y-330189D01*
X-494197D01*
G01X-466402Y-73523D02*
X-496402D01*
G01X-480022Y79393D02*
X-481912Y80644D01*
X-484116Y81477D01*
X-486636D01*
X-489472Y80227D01*
X-491677Y78144D01*
X-493252Y75644D01*
X-494512Y71477D01*
X-494827Y67727D01*
X-494197Y63977D01*
X-493252Y61477D01*
X-491362Y58977D01*
X-489156Y57310D01*
X-486952Y56477D01*
X-484747D01*
X-482542Y57310D01*
X-480652Y58560D01*
X-479076Y60226D01*
G01X-466402Y356477D02*
X-496402D01*
G01X-493882Y536477D02*
Y561477D01*
X-487582D01*
X-485062Y560227D01*
X-483172Y558560D01*
X-481596Y556061D01*
X-480337Y553143D01*
X-480022Y548977D01*
X-480337Y544810D01*
X-481596Y541893D01*
X-483172Y539393D01*
X-485062Y537727D01*
X-487582Y536477D01*
X-493882D01*
G01X-445248Y-844723D02*
X-445508Y-845190D01*
X-445855Y-845456D01*
X-446245Y-845523D01*
X-446592Y-845456D01*
X-446938Y-845123D01*
X-447155Y-844723D01*
X-447198Y-844323D01*
X-447112Y-843856D01*
X-446808Y-843523D01*
X-446505Y-843390D01*
X-446115D01*
G01X-446505D02*
X-446765Y-843190D01*
X-446982Y-842856D01*
X-447068Y-842456D01*
X-446982Y-842056D01*
X-446765Y-841723D01*
X-446375Y-841523D01*
X-445985Y-841590D01*
X-445595Y-841856D01*
G01X-449602Y-841523D02*
X-449255Y-841656D01*
X-448995Y-841990D01*
X-448822Y-842390D01*
X-448692Y-842923D01*
X-448648Y-843523D01*
X-448692Y-844123D01*
X-448822Y-844656D01*
X-448995Y-845056D01*
X-449255Y-845390D01*
X-449602Y-845523D01*
X-449948Y-845390D01*
X-450208Y-845056D01*
X-450382Y-844656D01*
X-450512Y-844123D01*
X-450555Y-843523D01*
X-450512Y-842923D01*
X-450382Y-842390D01*
X-450208Y-841990D01*
X-449948Y-841656D01*
X-449602Y-841523D01*
G01X-433518Y-839523D02*
X-434602Y-835523D01*
X-435685Y-839523D01*
G01X-435295Y-838123D02*
X-433908D01*
G01X-437005Y-839523D02*
Y-835523D01*
X-438998Y-839523D01*
Y-835523D01*
G01X-441662Y-837523D02*
X-442528D01*
Y-838723D01*
X-442268Y-839123D01*
X-441965Y-839390D01*
X-441532Y-839523D01*
X-441098Y-839390D01*
X-440795Y-839123D01*
X-440535Y-838723D01*
X-440362Y-838256D01*
X-440275Y-837723D01*
Y-837256D01*
X-440362Y-836856D01*
X-440535Y-836390D01*
X-440795Y-835990D01*
X-441055Y-835723D01*
X-441402Y-835523D01*
X-441705D01*
X-442052Y-835656D01*
X-442312Y-835923D01*
G01X-443935Y-835523D02*
Y-839523D01*
X-445668D01*
G01X-449068D02*
X-447335D01*
Y-835523D01*
X-449068D01*
G01X-448375Y-837456D02*
X-447335D01*
G01X-426275Y-851523D02*
Y-847523D01*
X-427402Y-850856D01*
X-428528Y-847523D01*
Y-851523D01*
G01X-429718D02*
X-430802Y-847523D01*
X-431885Y-851523D01*
G01X-431495Y-850123D02*
X-430108D01*
G01X-435155Y-847856D02*
X-434895Y-847656D01*
X-434592Y-847523D01*
X-434245D01*
X-433855Y-847723D01*
X-433552Y-848056D01*
X-433335Y-848456D01*
X-433162Y-849123D01*
X-433118Y-849723D01*
X-433205Y-850323D01*
X-433335Y-850723D01*
X-433595Y-851123D01*
X-433898Y-851390D01*
X-434202Y-851523D01*
X-434505D01*
X-434808Y-851390D01*
X-435068Y-851190D01*
X-435285Y-850923D01*
G01X-436692Y-851523D02*
Y-847523D01*
G01X-438512D02*
Y-851523D01*
G01Y-849523D02*
X-436692D01*
G01X-443578Y-851523D02*
Y-847523D01*
X-445225D01*
G01X-444618Y-849456D02*
X-443578D01*
G01X-447282Y-847523D02*
X-448322D01*
G01X-447802D02*
Y-851523D01*
G01X-447282D02*
X-448322D01*
G01X-450205D02*
Y-847523D01*
X-452198Y-851523D01*
Y-847523D01*
G01X-454082D02*
X-455122D01*
G01X-454602D02*
Y-851523D01*
G01X-454082D02*
X-455122D01*
G01X-457092Y-850990D02*
X-457438Y-851323D01*
X-457828Y-851523D01*
X-458175D01*
X-458522Y-851323D01*
X-458782Y-850990D01*
X-458912Y-850523D01*
X-458825Y-850056D01*
X-458608Y-849656D01*
X-458218Y-849390D01*
X-457698Y-849256D01*
X-457395Y-848990D01*
X-457265Y-848523D01*
X-457352Y-848056D01*
X-457568Y-847723D01*
X-457872Y-847523D01*
X-458175D01*
X-458478Y-847656D01*
X-458738Y-847990D01*
G01X-460492Y-851523D02*
Y-847523D01*
G01X-462312D02*
Y-851523D01*
G01Y-849523D02*
X-460492D01*
G01X-408602Y-827023D02*
Y-831023D01*
G01X-407605Y-827023D02*
X-409598D01*
G01X-412002Y-831023D02*
X-411655Y-830956D01*
X-411352Y-830690D01*
X-411092Y-830290D01*
X-410918Y-829823D01*
X-410832Y-829290D01*
Y-828756D01*
X-410918Y-828223D01*
X-411092Y-827756D01*
X-411352Y-827356D01*
X-411655Y-827090D01*
X-412002Y-827023D01*
X-412348Y-827090D01*
X-412652Y-827356D01*
X-412912Y-827756D01*
X-413085Y-828223D01*
X-413172Y-828756D01*
Y-829290D01*
X-413085Y-829823D01*
X-412912Y-830290D01*
X-412652Y-830690D01*
X-412348Y-830956D01*
X-412002Y-831023D01*
G01X-414535Y-827023D02*
Y-831023D01*
X-416268D01*
G01X-419668D02*
X-417935D01*
Y-827023D01*
X-419668D01*
G01X-418975Y-828956D02*
X-417935D01*
G01X-421335Y-831023D02*
Y-827023D01*
X-422418D01*
X-422765Y-827223D01*
X-422982Y-827490D01*
X-423068Y-828023D01*
X-422982Y-828556D01*
X-422722Y-828890D01*
X-422418Y-829090D01*
X-421335D01*
G01X-422418D02*
X-423068Y-831023D01*
G01X-424518D02*
X-425602Y-827023D01*
X-426685Y-831023D01*
G01X-426295Y-829623D02*
X-424908D01*
G01X-428005Y-831023D02*
Y-827023D01*
X-429998Y-831023D01*
Y-827023D01*
G01X-433355Y-827356D02*
X-433095Y-827156D01*
X-432792Y-827023D01*
X-432445D01*
X-432055Y-827223D01*
X-431752Y-827556D01*
X-431535Y-827956D01*
X-431361Y-828623D01*
X-431318Y-829223D01*
X-431405Y-829823D01*
X-431535Y-830223D01*
X-431795Y-830623D01*
X-432098Y-830890D01*
X-432402Y-831023D01*
X-432705D01*
X-433008Y-830890D01*
X-433268Y-830690D01*
X-433485Y-830423D01*
G01X-436668Y-831023D02*
X-434935D01*
Y-827023D01*
X-436668D01*
G01X-435975Y-828956D02*
X-434935D01*
G01X-438292Y-830490D02*
X-438638Y-830823D01*
X-439028Y-831023D01*
X-439375D01*
X-439722Y-830823D01*
X-439982Y-830490D01*
X-440112Y-830023D01*
X-440025Y-829556D01*
X-439808Y-829156D01*
X-439418Y-828890D01*
X-438898Y-828756D01*
X-438595Y-828490D01*
X-438465Y-828023D01*
X-438552Y-827556D01*
X-438768Y-827223D01*
X-439072Y-827023D01*
X-439375D01*
X-439678Y-827156D01*
X-439938Y-827490D01*
G01X-466402Y696477D02*
Y-863523D01*
X-406402D01*
G01X-445402Y-852523D02*
X-448402D01*
G01X-440102Y-842823D02*
X-443102D01*
G01X-440102Y-845023D02*
X-443102D01*
G01X-441602Y-841323D02*
Y-844323D01*
G01X-446902Y-852523D02*
X-444602Y-857023D01*
X-443102Y-854823D01*
G01X78598Y-863523D02*
Y-788523D01*
X-466402D01*
Y-863523D01*
X43598D01*
G01X-402418Y-816023D02*
X-403502Y-812023D01*
X-404585Y-816023D01*
G01X-404195Y-814623D02*
X-402808D01*
G01X-406035Y-816023D02*
Y-812023D01*
X-407118D01*
X-407465Y-812223D01*
X-407682Y-812490D01*
X-407768Y-813023D01*
X-407682Y-813556D01*
X-407422Y-813890D01*
X-407118Y-814090D01*
X-406035D01*
G01X-407118D02*
X-407768Y-816023D01*
G01X-411168D02*
X-409435D01*
Y-812023D01*
X-411168D01*
G01X-410475Y-813956D02*
X-409435D01*
G01X-416582Y-812023D02*
X-417622D01*
G01X-417102D02*
Y-816023D01*
G01X-416582D02*
X-417622D01*
G01X-419505D02*
Y-812023D01*
X-421498Y-816023D01*
Y-812023D01*
G01X-426782D02*
X-427822D01*
G01X-427302D02*
Y-816023D01*
G01X-426782D02*
X-427822D01*
G01X-429705D02*
Y-812023D01*
X-431698Y-816023D01*
Y-812023D01*
G01X-435055Y-812356D02*
X-434795Y-812156D01*
X-434492Y-812023D01*
X-434145D01*
X-433755Y-812223D01*
X-433452Y-812556D01*
X-433235Y-812956D01*
X-433062Y-813623D01*
X-433018Y-814223D01*
X-433105Y-814823D01*
X-433235Y-815223D01*
X-433495Y-815623D01*
X-433798Y-815890D01*
X-434102Y-816023D01*
X-434405D01*
X-434708Y-815890D01*
X-434968Y-815690D01*
X-435185Y-815423D01*
G01X-436592Y-816023D02*
Y-812023D01*
G01X-438412D02*
Y-816023D01*
G01Y-814023D02*
X-436592D01*
G01X-441768Y-816023D02*
X-440035D01*
Y-812023D01*
X-441768D01*
G01X-441075Y-813956D02*
X-440035D01*
G01X-443392Y-815490D02*
X-443738Y-815823D01*
X-444128Y-816023D01*
X-444475D01*
X-444822Y-815823D01*
X-445082Y-815490D01*
X-445212Y-815023D01*
X-445125Y-814556D01*
X-444908Y-814156D01*
X-444518Y-813890D01*
X-443998Y-813756D01*
X-443695Y-813490D01*
X-443565Y-813023D01*
X-443652Y-812556D01*
X-443868Y-812223D01*
X-444172Y-812023D01*
X-444475D01*
X-444778Y-812156D01*
X-445038Y-812490D01*
G01X-397448Y-797023D02*
Y-799890D01*
X-397622Y-800490D01*
X-397968Y-800890D01*
X-398402Y-801023D01*
X-398835Y-800890D01*
X-399182Y-800490D01*
X-399355Y-799890D01*
Y-797023D01*
G01X-400805Y-801023D02*
Y-797023D01*
X-402798Y-801023D01*
Y-797023D01*
G01X-404335D02*
Y-801023D01*
X-406068D01*
G01X-409468D02*
X-407735D01*
Y-797023D01*
X-409468D01*
G01X-408775Y-798956D02*
X-407735D01*
G01X-411092Y-800490D02*
X-411438Y-800823D01*
X-411828Y-801023D01*
X-412175D01*
X-412522Y-800823D01*
X-412782Y-800490D01*
X-412912Y-800023D01*
X-412825Y-799556D01*
X-412608Y-799156D01*
X-412218Y-798890D01*
X-411698Y-798756D01*
X-411395Y-798490D01*
X-411265Y-798023D01*
X-411352Y-797556D01*
X-411568Y-797223D01*
X-411872Y-797023D01*
X-412175D01*
X-412478Y-797156D01*
X-412738Y-797490D01*
G01X-414492Y-800490D02*
X-414838Y-800823D01*
X-415228Y-801023D01*
X-415575D01*
X-415922Y-800823D01*
X-416182Y-800490D01*
X-416312Y-800023D01*
X-416225Y-799556D01*
X-416008Y-799156D01*
X-415618Y-798890D01*
X-415098Y-798756D01*
X-414795Y-798490D01*
X-414665Y-798023D01*
X-414752Y-797556D01*
X-414968Y-797223D01*
X-415272Y-797023D01*
X-415575D01*
X-415878Y-797156D01*
X-416138Y-797490D01*
G01X-422202Y-801023D02*
X-421855Y-800956D01*
X-421552Y-800690D01*
X-421292Y-800290D01*
X-421118Y-799823D01*
X-421032Y-799290D01*
Y-798756D01*
X-421118Y-798223D01*
X-421292Y-797756D01*
X-421552Y-797356D01*
X-421855Y-797090D01*
X-422202Y-797023D01*
X-422548Y-797090D01*
X-422852Y-797356D01*
X-423112Y-797756D01*
X-423285Y-798223D01*
X-423372Y-798756D01*
Y-799290D01*
X-423285Y-799823D01*
X-423112Y-800290D01*
X-422852Y-800690D01*
X-422548Y-800956D01*
X-422202Y-801023D01*
G01X-425602Y-797023D02*
Y-801023D01*
G01X-424605Y-797023D02*
X-426598D01*
G01X-428092Y-801023D02*
Y-797023D01*
G01X-429912D02*
Y-801023D01*
G01Y-799023D02*
X-428092D01*
G01X-433268Y-801023D02*
X-431535D01*
Y-797023D01*
X-433268D01*
G01X-432575Y-798956D02*
X-431535D01*
G01X-434935Y-801023D02*
Y-797023D01*
X-436018D01*
X-436365Y-797223D01*
X-436582Y-797490D01*
X-436668Y-798023D01*
X-436582Y-798556D01*
X-436322Y-798890D01*
X-436018Y-799090D01*
X-434935D01*
G01X-436018D02*
X-436668Y-801023D01*
G01X-437902Y-797023D02*
X-438508Y-801023D01*
X-439202Y-797023D01*
X-439895Y-801023D01*
X-440502Y-797023D01*
G01X-442082D02*
X-443122D01*
G01X-442602D02*
Y-801023D01*
G01X-442082D02*
X-443122D01*
G01X-445092Y-800490D02*
X-445438Y-800823D01*
X-445828Y-801023D01*
X-446175D01*
X-446522Y-800823D01*
X-446782Y-800490D01*
X-446912Y-800023D01*
X-446825Y-799556D01*
X-446608Y-799156D01*
X-446218Y-798890D01*
X-445698Y-798756D01*
X-445395Y-798490D01*
X-445265Y-798023D01*
X-445352Y-797556D01*
X-445568Y-797223D01*
X-445872Y-797023D01*
X-446175D01*
X-446478Y-797156D01*
X-446738Y-797490D01*
G01X-450268Y-801023D02*
X-448535D01*
Y-797023D01*
X-450268D01*
G01X-449575Y-798956D02*
X-448535D01*
G01X-390692Y-807990D02*
X-391038Y-808323D01*
X-391428Y-808523D01*
X-391775D01*
X-392122Y-808323D01*
X-392382Y-807990D01*
X-392512Y-807523D01*
X-392425Y-807056D01*
X-392208Y-806656D01*
X-391818Y-806390D01*
X-391298Y-806256D01*
X-390995Y-805990D01*
X-390865Y-805523D01*
X-390952Y-805056D01*
X-391168Y-804723D01*
X-391472Y-804523D01*
X-391775D01*
X-392078Y-804656D01*
X-392338Y-804990D01*
G01X-394135Y-808523D02*
Y-804523D01*
X-395175D01*
X-395522Y-804723D01*
X-395782Y-805190D01*
X-395868Y-805723D01*
X-395782Y-806256D01*
X-395565Y-806656D01*
X-395175Y-806856D01*
X-394135D01*
G01X-399268Y-808523D02*
X-397535D01*
Y-804523D01*
X-399268D01*
G01X-398575Y-806456D02*
X-397535D01*
G01X-402755Y-804856D02*
X-402495Y-804656D01*
X-402192Y-804523D01*
X-401845D01*
X-401455Y-804723D01*
X-401152Y-805056D01*
X-400935Y-805456D01*
X-400761Y-806123D01*
X-400718Y-806723D01*
X-400805Y-807323D01*
X-400935Y-807723D01*
X-401195Y-808123D01*
X-401498Y-808390D01*
X-401802Y-808523D01*
X-402105D01*
X-402408Y-808390D01*
X-402668Y-808190D01*
X-402885Y-807923D01*
G01X-404682Y-804523D02*
X-405722D01*
G01X-405202D02*
Y-808523D01*
G01X-404682D02*
X-405722D01*
G01X-407778D02*
Y-804523D01*
X-409425D01*
G01X-408818Y-806456D02*
X-407778D01*
G01X-411482Y-804523D02*
X-412522D01*
G01X-412002D02*
Y-808523D01*
G01X-411482D02*
X-412522D01*
G01X-416268D02*
X-414535D01*
Y-804523D01*
X-416268D01*
G01X-415575Y-806456D02*
X-414535D01*
G01X-417848Y-808523D02*
Y-804523D01*
X-418715D01*
X-419062Y-804723D01*
X-419322Y-804990D01*
X-419538Y-805390D01*
X-419712Y-805856D01*
X-419755Y-806523D01*
X-419712Y-807190D01*
X-419538Y-807656D01*
X-419322Y-808056D01*
X-419062Y-808323D01*
X-418715Y-808523D01*
X-417848D01*
G01X-424648D02*
Y-804523D01*
X-425515D01*
X-425862Y-804723D01*
X-426122Y-804990D01*
X-426338Y-805390D01*
X-426512Y-805856D01*
X-426555Y-806523D01*
X-426512Y-807190D01*
X-426338Y-807656D01*
X-426122Y-808056D01*
X-425862Y-808323D01*
X-425515Y-808523D01*
X-424648D01*
G01X-428482Y-804523D02*
X-429522D01*
G01X-429002D02*
Y-808523D01*
G01X-428482D02*
X-429522D01*
G01X-431275D02*
Y-804523D01*
X-432402Y-807856D01*
X-433528Y-804523D01*
Y-808523D01*
G01X-436668D02*
X-434935D01*
Y-804523D01*
X-436668D01*
G01X-435975Y-806456D02*
X-434935D01*
G01X-438205Y-808523D02*
Y-804523D01*
X-440198Y-808523D01*
Y-804523D01*
G01X-441692Y-807990D02*
X-442038Y-808323D01*
X-442428Y-808523D01*
X-442775D01*
X-443122Y-808323D01*
X-443382Y-807990D01*
X-443512Y-807523D01*
X-443425Y-807056D01*
X-443208Y-806656D01*
X-442818Y-806390D01*
X-442298Y-806256D01*
X-441995Y-805990D01*
X-441865Y-805523D01*
X-441952Y-805056D01*
X-442168Y-804723D01*
X-442472Y-804523D01*
X-442775D01*
X-443078Y-804656D01*
X-443338Y-804990D01*
G01X-445482Y-804523D02*
X-446522D01*
G01X-446002D02*
Y-808523D01*
G01X-445482D02*
X-446522D01*
G01X-449402D02*
X-449055Y-808456D01*
X-448752Y-808190D01*
X-448492Y-807790D01*
X-448318Y-807323D01*
X-448232Y-806790D01*
Y-806256D01*
X-448318Y-805723D01*
X-448492Y-805256D01*
X-448752Y-804856D01*
X-449055Y-804590D01*
X-449402Y-804523D01*
X-449748Y-804590D01*
X-450052Y-804856D01*
X-450312Y-805256D01*
X-450485Y-805723D01*
X-450572Y-806256D01*
Y-806790D01*
X-450485Y-807323D01*
X-450312Y-807790D01*
X-450052Y-808190D01*
X-449748Y-808456D01*
X-449402Y-808523D01*
G01X-451805D02*
Y-804523D01*
X-453798Y-808523D01*
Y-804523D01*
G01X-455292Y-807990D02*
X-455638Y-808323D01*
X-456028Y-808523D01*
X-456375D01*
X-456722Y-808323D01*
X-456982Y-807990D01*
X-457112Y-807523D01*
X-457025Y-807056D01*
X-456808Y-806656D01*
X-456418Y-806390D01*
X-455898Y-806256D01*
X-455595Y-805990D01*
X-455465Y-805523D01*
X-455552Y-805056D01*
X-455768Y-804723D01*
X-456072Y-804523D01*
X-456375D01*
X-456678Y-804656D01*
X-456938Y-804990D01*
G01X-436402Y696477D02*
X-246402D01*
G01X-466402D02*
X-416402D01*
G01X-408702Y-845156D02*
X-408615Y-845090D01*
Y-844956D01*
X-408702Y-844890D01*
X-408788Y-844956D01*
Y-845090D01*
X-408702Y-845156D01*
G01X-412102Y-845023D02*
Y-841023D01*
X-411582Y-841823D01*
G01Y-845023D02*
X-412622D01*
G01X-408702Y-851156D02*
X-408615Y-851090D01*
Y-850956D01*
X-408702Y-850890D01*
X-408788Y-850956D01*
Y-851090D01*
X-408702Y-851156D01*
G01X-412102Y-847023D02*
X-411755Y-847156D01*
X-411495Y-847490D01*
X-411322Y-847890D01*
X-411192Y-848423D01*
X-411148Y-849023D01*
X-411192Y-849623D01*
X-411322Y-850156D01*
X-411495Y-850556D01*
X-411755Y-850890D01*
X-412102Y-851023D01*
X-412448Y-850890D01*
X-412708Y-850556D01*
X-412882Y-850156D01*
X-413012Y-849623D01*
X-413055Y-849023D01*
X-413012Y-848423D01*
X-412882Y-847890D01*
X-412708Y-847490D01*
X-412448Y-847156D01*
X-412102Y-847023D01*
G01X-414548Y-850223D02*
X-414808Y-850690D01*
X-415155Y-850956D01*
X-415545Y-851023D01*
X-415892Y-850956D01*
X-416238Y-850623D01*
X-416455Y-850223D01*
X-416498Y-849823D01*
X-416412Y-849356D01*
X-416108Y-849023D01*
X-415805Y-848890D01*
X-415415D01*
G01X-415805D02*
X-416065Y-848690D01*
X-416282Y-848356D01*
X-416368Y-847956D01*
X-416282Y-847556D01*
X-416065Y-847223D01*
X-415675Y-847023D01*
X-415285Y-847090D01*
X-414895Y-847356D01*
G01X-399192Y-845023D02*
X-401012Y-841023D01*
G01X-399192D02*
X-401012Y-845023D01*
G01X-408702Y-857156D02*
X-408615Y-857090D01*
Y-856956D01*
X-408702Y-856890D01*
X-408788Y-856956D01*
Y-857090D01*
X-408702Y-857156D01*
G01X-412102Y-853023D02*
X-411755Y-853156D01*
X-411495Y-853490D01*
X-411322Y-853890D01*
X-411192Y-854423D01*
X-411148Y-855023D01*
X-411192Y-855623D01*
X-411322Y-856156D01*
X-411495Y-856556D01*
X-411755Y-856890D01*
X-412102Y-857023D01*
X-412448Y-856890D01*
X-412708Y-856556D01*
X-412882Y-856156D01*
X-413012Y-855623D01*
X-413055Y-855023D01*
X-413012Y-854423D01*
X-412882Y-853890D01*
X-412708Y-853490D01*
X-412448Y-853156D01*
X-412102Y-853023D01*
G01X-415502Y-857023D02*
Y-853023D01*
X-414982Y-853823D01*
G01Y-857023D02*
X-416022D01*
G01X-418902Y-853023D02*
X-418555Y-853156D01*
X-418295Y-853490D01*
X-418122Y-853890D01*
X-417992Y-854423D01*
X-417948Y-855023D01*
X-417992Y-855623D01*
X-418122Y-856156D01*
X-418295Y-856556D01*
X-418555Y-856890D01*
X-418902Y-857023D01*
X-419248Y-856890D01*
X-419508Y-856556D01*
X-419682Y-856156D01*
X-419812Y-855623D01*
X-419855Y-855023D01*
X-419812Y-854423D01*
X-419682Y-853890D01*
X-419508Y-853490D01*
X-419248Y-853156D01*
X-418902Y-853023D01*
G01X-393748Y-839523D02*
Y-835523D01*
X-394615D01*
X-394962Y-835723D01*
X-395222Y-835990D01*
X-395438Y-836390D01*
X-395612Y-836856D01*
X-395655Y-837523D01*
X-395612Y-838190D01*
X-395438Y-838656D01*
X-395222Y-839056D01*
X-394962Y-839323D01*
X-394615Y-839523D01*
X-393748D01*
G01X-398968D02*
X-397235D01*
Y-835523D01*
X-398968D01*
G01X-398275Y-837456D02*
X-397235D01*
G01X-402455Y-835856D02*
X-402195Y-835656D01*
X-401892Y-835523D01*
X-401545D01*
X-401155Y-835723D01*
X-400852Y-836056D01*
X-400635Y-836456D01*
X-400462Y-837123D01*
X-400418Y-837723D01*
X-400505Y-838323D01*
X-400635Y-838723D01*
X-400895Y-839123D01*
X-401198Y-839390D01*
X-401502Y-839523D01*
X-401805D01*
X-402108Y-839390D01*
X-402368Y-839190D01*
X-402585Y-838923D01*
G01X-404382Y-835523D02*
X-405422D01*
G01X-404902D02*
Y-839523D01*
G01X-404382D02*
X-405422D01*
G01X-407175D02*
Y-835523D01*
X-408302Y-838856D01*
X-409428Y-835523D01*
Y-839523D01*
G01X-410618D02*
X-411702Y-835523D01*
X-412785Y-839523D01*
G01X-412395Y-838123D02*
X-411008D01*
G01X-414235Y-835523D02*
Y-839523D01*
X-415968D01*
G01X-395792Y-851023D02*
X-397612Y-847023D01*
G01X-395792D02*
X-397612Y-851023D01*
G01X-399192D02*
X-401012Y-847023D01*
G01X-399192D02*
X-401012Y-851023D01*
G01X-392392Y-857023D02*
X-394212Y-853023D01*
G01X-392392D02*
X-394212Y-857023D01*
G01X-395792D02*
X-397612Y-853023D01*
G01X-395792D02*
X-397612Y-857023D01*
G01X-399192D02*
X-401012Y-853023D01*
G01X-399192D02*
X-401012Y-857023D01*
G01X-406402Y-863523D02*
X1113598D01*
G01X-403402Y-842823D02*
X-406402D01*
G01X-403402Y-845023D02*
X-406402D01*
G01X-404902Y-841323D02*
Y-844323D01*
G01X-403402Y-851023D02*
X-406402D01*
G01X-404902Y-847323D02*
Y-850323D01*
G01X-403402Y-848823D02*
X-406402D01*
G01X-403402Y-854823D02*
X-406402D01*
G01X-403402Y-857023D02*
X-406402D01*
G01X-404902Y-853323D02*
Y-856323D01*
G01X-343090Y-847655D02*
X-343623Y-848154D01*
X-344223Y-848454D01*
X-344757D01*
X-345290Y-848154D01*
X-345690Y-847655D01*
X-345890Y-846954D01*
X-345757Y-846254D01*
X-345423Y-845654D01*
X-344823Y-845254D01*
X-344024Y-845054D01*
X-343557Y-844654D01*
X-343357Y-843954D01*
X-343490Y-843254D01*
X-343823Y-842754D01*
X-344290Y-842454D01*
X-344757D01*
X-345224Y-842654D01*
X-345624Y-843154D01*
G01X-348290Y-848454D02*
Y-842454D01*
G01X-351090D02*
Y-848454D01*
G01Y-845454D02*
X-348290D01*
G01X-356224Y-848454D02*
X-353557D01*
Y-842454D01*
X-356224D01*
G01X-355157Y-845354D02*
X-353557D01*
G01X-361424Y-848454D02*
X-358757D01*
Y-842454D01*
X-361424D01*
G01X-360357Y-845354D02*
X-358757D01*
G01X-365290Y-842454D02*
Y-848454D01*
G01X-363757Y-842454D02*
X-366823D01*
G01X-370490Y-848654D02*
X-370357Y-848554D01*
Y-848354D01*
X-370490Y-848254D01*
X-370624Y-848354D01*
Y-848554D01*
X-370490Y-848654D01*
G01Y-845955D02*
X-370357Y-845854D01*
Y-845654D01*
X-370490Y-845555D01*
X-370624Y-845654D01*
Y-845854D01*
X-370490Y-845955D01*
G01X-386402Y-788523D02*
Y-863523D01*
G01Y-841023D02*
X-188902D01*
G01X-386402Y-818523D02*
X-188902D01*
G01X-312468Y-848523D02*
Y-842523D01*
X-314135D01*
X-314668Y-842823D01*
X-315002Y-843223D01*
X-315135Y-844023D01*
X-315002Y-844823D01*
X-314602Y-845323D01*
X-314135Y-845623D01*
X-312468D01*
G01X-314135D02*
X-315135Y-848523D01*
G01X-320335D02*
X-317668D01*
Y-842523D01*
X-320335D01*
G01X-319268Y-845423D02*
X-317668D01*
G01X-322535Y-842523D02*
X-324202Y-848523D01*
X-325868Y-842523D01*
G01X-329402Y-848723D02*
X-329268Y-848623D01*
Y-848423D01*
X-329402Y-848323D01*
X-329535Y-848423D01*
Y-848623D01*
X-329402Y-848723D01*
G01X-249982Y-837856D02*
X-250408Y-838273D01*
X-250888Y-838523D01*
X-251315D01*
X-251742Y-838273D01*
X-252062Y-837856D01*
X-252222Y-837273D01*
X-252115Y-836690D01*
X-251848Y-836190D01*
X-251368Y-835856D01*
X-250728Y-835690D01*
X-250355Y-835356D01*
X-250195Y-834773D01*
X-250302Y-834190D01*
X-250568Y-833773D01*
X-250942Y-833523D01*
X-251315D01*
X-251688Y-833690D01*
X-252008Y-834106D01*
G01X-256368Y-838523D02*
X-254235D01*
Y-833523D01*
X-256368D01*
G01X-255515Y-835940D02*
X-254235D01*
G01X-258275Y-838523D02*
Y-833523D01*
X-260728Y-838523D01*
Y-833523D01*
G01X-262582Y-837856D02*
X-263008Y-838273D01*
X-263488Y-838523D01*
X-263915D01*
X-264342Y-838273D01*
X-264662Y-837856D01*
X-264822Y-837273D01*
X-264715Y-836690D01*
X-264448Y-836190D01*
X-263968Y-835856D01*
X-263328Y-835690D01*
X-262955Y-835356D01*
X-262795Y-834773D01*
X-262902Y-834190D01*
X-263168Y-833773D01*
X-263542Y-833523D01*
X-263915D01*
X-264288Y-833690D01*
X-264608Y-834106D01*
G01X-267902Y-838523D02*
X-267475Y-838440D01*
X-267102Y-838106D01*
X-266782Y-837606D01*
X-266568Y-837023D01*
X-266462Y-836356D01*
Y-835690D01*
X-266568Y-835023D01*
X-266782Y-834440D01*
X-267102Y-833940D01*
X-267475Y-833606D01*
X-267902Y-833523D01*
X-268328Y-833606D01*
X-268702Y-833940D01*
X-269022Y-834440D01*
X-269235Y-835023D01*
X-269342Y-835690D01*
Y-836356D01*
X-269235Y-837023D01*
X-269022Y-837606D01*
X-268702Y-838106D01*
X-268328Y-838440D01*
X-267902Y-838523D01*
G01X-271035D02*
Y-833523D01*
X-272368D01*
X-272795Y-833773D01*
X-273062Y-834106D01*
X-273168Y-834773D01*
X-273062Y-835440D01*
X-272742Y-835856D01*
X-272368Y-836106D01*
X-271035D01*
G01X-272368D02*
X-273168Y-838523D01*
G01X-275182Y-837856D02*
X-275608Y-838273D01*
X-276088Y-838523D01*
X-276515D01*
X-276942Y-838273D01*
X-277262Y-837856D01*
X-277422Y-837273D01*
X-277315Y-836690D01*
X-277048Y-836190D01*
X-276568Y-835856D01*
X-275928Y-835690D01*
X-275555Y-835356D01*
X-275395Y-834773D01*
X-275502Y-834190D01*
X-275768Y-833773D01*
X-276142Y-833523D01*
X-276515D01*
X-276888Y-833690D01*
X-277208Y-834106D01*
G01X-279382Y-838523D02*
Y-833523D01*
G01X-281622D02*
Y-838523D01*
G01Y-836023D02*
X-279382D01*
G01X-283635Y-833523D02*
Y-838523D01*
X-285768D01*
G01X-287728D02*
Y-833523D01*
X-288795D01*
X-289222Y-833773D01*
X-289542Y-834106D01*
X-289808Y-834606D01*
X-290022Y-835190D01*
X-290075Y-836023D01*
X-290022Y-836856D01*
X-289808Y-837440D01*
X-289542Y-837940D01*
X-289222Y-838273D01*
X-288795Y-838523D01*
X-287728D01*
G01X-293102D02*
Y-833523D01*
X-292462Y-834523D01*
G01Y-838523D02*
X-293742D01*
G01X-296608Y-836856D02*
X-297995D01*
G01X-302568Y-838523D02*
X-300435D01*
Y-833523D01*
X-302568D01*
G01X-301715Y-835940D02*
X-300435D01*
G01X-304368Y-833523D02*
X-305702Y-838523D01*
X-307035Y-833523D01*
G01X-308728Y-838523D02*
Y-833523D01*
G01X-310755D02*
X-308728Y-836606D01*
G01X-311075Y-838523D02*
X-309635Y-835190D01*
G01X-313408Y-836856D02*
X-314795D01*
G01X-318302Y-838523D02*
Y-833523D01*
X-317662Y-834523D01*
G01Y-838523D02*
X-318942D01*
G01X-322502Y-833523D02*
X-322075Y-833690D01*
X-321755Y-834106D01*
X-321542Y-834606D01*
X-321382Y-835273D01*
X-321328Y-836023D01*
X-321382Y-836773D01*
X-321542Y-837440D01*
X-321755Y-837940D01*
X-322075Y-838356D01*
X-322502Y-838523D01*
X-322928Y-838356D01*
X-323248Y-837940D01*
X-323462Y-837440D01*
X-323622Y-836773D01*
X-323675Y-836023D01*
X-323622Y-835273D01*
X-323462Y-834606D01*
X-323248Y-834106D01*
X-322928Y-833690D01*
X-322502Y-833523D01*
G01X-326702Y-838523D02*
Y-833523D01*
X-326062Y-834523D01*
G01Y-838523D02*
X-327342D01*
G01X-306602Y-841023D02*
Y-863523D01*
G01X-336602Y-841023D02*
Y-863523D01*
G01X-243172Y-913523D02*
Y-888523D01*
X-254827Y-906440D01*
X-239076D01*
G01X-194868Y-790523D02*
X-194468Y-790223D01*
X-194002Y-790023D01*
X-193468D01*
X-192868Y-790323D01*
X-192402Y-790823D01*
X-192068Y-791423D01*
X-191802Y-792423D01*
X-191735Y-793323D01*
X-191868Y-794223D01*
X-192068Y-794823D01*
X-192468Y-795423D01*
X-192935Y-795823D01*
X-193402Y-796023D01*
X-193868D01*
X-194335Y-795823D01*
X-194735Y-795523D01*
X-195068Y-795123D01*
G01X-198602Y-796023D02*
X-198068Y-795923D01*
X-197602Y-795523D01*
X-197202Y-794923D01*
X-196935Y-794223D01*
X-196802Y-793423D01*
Y-792623D01*
X-196935Y-791823D01*
X-197202Y-791123D01*
X-197602Y-790523D01*
X-198068Y-790123D01*
X-198602Y-790023D01*
X-199135Y-790123D01*
X-199602Y-790523D01*
X-200002Y-791123D01*
X-200268Y-791823D01*
X-200402Y-792623D01*
Y-793423D01*
X-200268Y-794223D01*
X-200002Y-794923D01*
X-199602Y-795523D01*
X-199135Y-795923D01*
X-198602Y-796023D01*
G01X-202068D02*
Y-790023D01*
X-203802Y-795023D01*
X-205535Y-790023D01*
Y-796023D01*
G01X-207668D02*
Y-790023D01*
X-209268D01*
X-209802Y-790323D01*
X-210202Y-791023D01*
X-210335Y-791823D01*
X-210202Y-792623D01*
X-209868Y-793223D01*
X-209268Y-793523D01*
X-207668D01*
G01X-212535Y-796023D02*
X-214201Y-790023D01*
X-215868Y-796023D01*
G01X-215268Y-793923D02*
X-213135D01*
G01X-217868Y-796023D02*
Y-790023D01*
X-220935Y-796023D01*
Y-790023D01*
G01X-224602Y-796023D02*
Y-793323D01*
X-223268Y-790023D01*
G01X-225935D02*
X-224602Y-793323D01*
G01X-233468Y-796023D02*
Y-790023D01*
X-236535Y-796023D01*
Y-790023D01*
G01X-238535Y-796023D02*
X-240202Y-790023D01*
X-241868Y-796023D01*
G01X-241268Y-793923D02*
X-239135D01*
G01X-243668Y-796023D02*
Y-790023D01*
X-245402Y-795023D01*
X-247135Y-790023D01*
Y-796023D01*
G01X-251935D02*
X-249268D01*
Y-790023D01*
X-251935D01*
G01X-250868Y-792923D02*
X-249268D01*
G01X-255801Y-796223D02*
X-255668Y-796123D01*
Y-795923D01*
X-255801Y-795823D01*
X-255935Y-795923D01*
Y-796123D01*
X-255801Y-796223D01*
G01Y-793523D02*
X-255668Y-793423D01*
Y-793223D01*
X-255801Y-793123D01*
X-255935Y-793223D01*
Y-793423D01*
X-255801Y-793523D01*
G01X-192068Y-826023D02*
Y-820023D01*
X-193668D01*
X-194202Y-820323D01*
X-194602Y-821023D01*
X-194735Y-821823D01*
X-194602Y-822623D01*
X-194268Y-823223D01*
X-193668Y-823523D01*
X-192068D01*
G01X-197268Y-826023D02*
Y-820023D01*
X-198935D01*
X-199468Y-820323D01*
X-199802Y-820723D01*
X-199935Y-821523D01*
X-199802Y-822323D01*
X-199402Y-822823D01*
X-198935Y-823123D01*
X-197268D01*
G01X-198935D02*
X-199935Y-826023D01*
G01X-203802D02*
X-203268Y-825923D01*
X-202802Y-825523D01*
X-202402Y-824923D01*
X-202135Y-824223D01*
X-202002Y-823423D01*
Y-822623D01*
X-202135Y-821823D01*
X-202402Y-821123D01*
X-202802Y-820523D01*
X-203268Y-820123D01*
X-203802Y-820023D01*
X-204335Y-820123D01*
X-204802Y-820523D01*
X-205202Y-821123D01*
X-205468Y-821823D01*
X-205602Y-822623D01*
Y-823423D01*
X-205468Y-824223D01*
X-205202Y-824923D01*
X-204802Y-825523D01*
X-204335Y-825923D01*
X-203802Y-826023D01*
G01X-207668Y-824823D02*
X-208002Y-825423D01*
X-208402Y-825823D01*
X-208868Y-826023D01*
X-209402Y-825823D01*
X-209802Y-825423D01*
X-210202Y-824823D01*
X-210335Y-824023D01*
Y-820023D01*
G01X-215535Y-826023D02*
X-212868D01*
Y-820023D01*
X-215535D01*
G01X-214468Y-822923D02*
X-212868D01*
G01X-220868Y-820523D02*
X-220468Y-820223D01*
X-220002Y-820023D01*
X-219468D01*
X-218868Y-820323D01*
X-218402Y-820823D01*
X-218068Y-821423D01*
X-217801Y-822423D01*
X-217735Y-823323D01*
X-217868Y-824223D01*
X-218068Y-824823D01*
X-218468Y-825423D01*
X-218935Y-825823D01*
X-219401Y-826023D01*
X-219868D01*
X-220335Y-825823D01*
X-220735Y-825523D01*
X-221068Y-825123D01*
G01X-224602Y-820023D02*
Y-826023D01*
G01X-223068Y-820023D02*
X-226135D01*
G01X-233468Y-826023D02*
Y-820023D01*
X-236535Y-826023D01*
Y-820023D01*
G01X-238535Y-826023D02*
X-240202Y-820023D01*
X-241868Y-826023D01*
G01X-241268Y-823923D02*
X-239135D01*
G01X-243668Y-826023D02*
Y-820023D01*
X-245402Y-825023D01*
X-247135Y-820023D01*
Y-826023D01*
G01X-251935D02*
X-249268D01*
Y-820023D01*
X-251935D01*
G01X-250868Y-822923D02*
X-249268D01*
G01X-255801Y-826223D02*
X-255668Y-826123D01*
Y-825923D01*
X-255801Y-825823D01*
X-255935Y-825923D01*
Y-826123D01*
X-255801Y-826223D01*
G01Y-823523D02*
X-255668Y-823423D01*
Y-823223D01*
X-255801Y-823123D01*
X-255935Y-823223D01*
Y-823423D01*
X-255801Y-823523D01*
G01X-246402Y696477D02*
X1623598D01*
G01X-243172Y716477D02*
Y741477D01*
X-254827Y723560D01*
X-239076D01*
G01X-188902Y-788523D02*
Y-863523D01*
G01Y-841023D02*
X-71402D01*
G01X-188902Y-851523D02*
X-71402D01*
G01X-188902Y-818523D02*
X-71402D01*
G01X-188902Y-829523D02*
X-71402D01*
G01X-117362Y-833523D02*
X-118642D01*
G01X-118002D02*
Y-838523D01*
G01X-117362D02*
X-118642D01*
G01X-120975D02*
Y-833523D01*
X-123428Y-838523D01*
Y-833523D01*
G01X-125762D02*
X-127042D01*
G01X-126402D02*
Y-838523D01*
G01X-125762D02*
X-127042D01*
G01X-130602Y-833523D02*
Y-838523D01*
G01X-129375Y-833523D02*
X-131828D01*
G01X-134162D02*
X-135442D01*
G01X-134802D02*
Y-838523D01*
G01X-134162D02*
X-135442D01*
G01X-137668D02*
X-139002Y-833523D01*
X-140335Y-838523D01*
G01X-139855Y-836773D02*
X-138148D01*
G01X-142135Y-833523D02*
Y-838523D01*
X-144268D01*
G01X-103988Y-845356D02*
X-104308Y-844856D01*
X-104682Y-844606D01*
X-105108Y-844523D01*
X-105642Y-844690D01*
X-106015Y-845106D01*
X-106122Y-845606D01*
X-106068Y-846106D01*
X-105855Y-846523D01*
X-104788Y-847356D01*
X-104308Y-847940D01*
X-103988Y-848773D01*
X-103882Y-849523D01*
X-106122D01*
G01X-109202Y-844523D02*
X-108775Y-844690D01*
X-108455Y-845106D01*
X-108242Y-845606D01*
X-108082Y-846273D01*
X-108028Y-847023D01*
X-108082Y-847773D01*
X-108242Y-848440D01*
X-108455Y-848940D01*
X-108775Y-849356D01*
X-109202Y-849523D01*
X-109628Y-849356D01*
X-109948Y-848940D01*
X-110162Y-848440D01*
X-110322Y-847773D01*
X-110375Y-847023D01*
X-110322Y-846273D01*
X-110162Y-845606D01*
X-109948Y-845106D01*
X-109628Y-844690D01*
X-109202Y-844523D01*
G01X-113402Y-849523D02*
Y-844523D01*
X-112762Y-845523D01*
G01Y-849523D02*
X-114042D01*
G01X-116588Y-847440D02*
X-116962Y-846856D01*
X-117282Y-846523D01*
X-117708Y-846356D01*
X-118082Y-846523D01*
X-118348Y-846856D01*
X-118562Y-847356D01*
X-118615Y-847940D01*
X-118562Y-848440D01*
X-118348Y-848940D01*
X-118028Y-849356D01*
X-117655Y-849523D01*
X-117228Y-849356D01*
X-116855Y-848856D01*
X-116642Y-848106D01*
X-116588Y-847273D01*
X-116695Y-846190D01*
X-116855Y-845606D01*
X-117122Y-845023D01*
X-117495Y-844606D01*
X-117868Y-844523D01*
X-118242Y-844690D01*
X-118508Y-845106D01*
G01X-121108Y-847856D02*
X-122495D01*
G01X-126002Y-844523D02*
X-125575Y-844690D01*
X-125255Y-845106D01*
X-125042Y-845606D01*
X-124882Y-846273D01*
X-124828Y-847023D01*
X-124882Y-847773D01*
X-125042Y-848440D01*
X-125255Y-848940D01*
X-125575Y-849356D01*
X-126002Y-849523D01*
X-126428Y-849356D01*
X-126748Y-848940D01*
X-126962Y-848440D01*
X-127122Y-847773D01*
X-127175Y-847023D01*
X-127122Y-846273D01*
X-126962Y-845606D01*
X-126748Y-845106D01*
X-126428Y-844690D01*
X-126002Y-844523D01*
G01X-129028Y-848523D02*
X-129348Y-849106D01*
X-129775Y-849440D01*
X-130255Y-849523D01*
X-130682Y-849440D01*
X-131108Y-849023D01*
X-131375Y-848523D01*
X-131428Y-848023D01*
X-131322Y-847440D01*
X-130948Y-847023D01*
X-130575Y-846856D01*
X-130095D01*
G01X-130575D02*
X-130895Y-846606D01*
X-131162Y-846190D01*
X-131268Y-845690D01*
X-131162Y-845190D01*
X-130895Y-844773D01*
X-130415Y-844523D01*
X-129935Y-844606D01*
X-129455Y-844940D01*
G01X-133708Y-847856D02*
X-135095D01*
G01X-137588Y-845356D02*
X-137908Y-844856D01*
X-138282Y-844606D01*
X-138708Y-844523D01*
X-139242Y-844690D01*
X-139615Y-845106D01*
X-139722Y-845606D01*
X-139668Y-846106D01*
X-139455Y-846523D01*
X-138388Y-847356D01*
X-137908Y-847940D01*
X-137588Y-848773D01*
X-137482Y-849523D01*
X-139722D01*
G01X-143442D02*
Y-844523D01*
X-141468Y-848106D01*
X-144135D01*
G01X-127818Y-801773D02*
X-129902Y-794273D01*
X-131985Y-801773D01*
G01X-131235Y-799148D02*
X-128568D01*
G01X-134652Y-800773D02*
X-135318Y-801398D01*
X-136068Y-801773D01*
X-136735D01*
X-137402Y-801398D01*
X-137902Y-800773D01*
X-138152Y-799898D01*
X-137985Y-799023D01*
X-137568Y-798273D01*
X-136818Y-797773D01*
X-135818Y-797523D01*
X-135235Y-797023D01*
X-134985Y-796148D01*
X-135152Y-795273D01*
X-135568Y-794648D01*
X-136152Y-794273D01*
X-136735D01*
X-137318Y-794523D01*
X-137818Y-795148D01*
G01X-141152Y-800773D02*
X-141818Y-801398D01*
X-142568Y-801773D01*
X-143235D01*
X-143902Y-801398D01*
X-144402Y-800773D01*
X-144652Y-799898D01*
X-144485Y-799023D01*
X-144068Y-798273D01*
X-143318Y-797773D01*
X-142318Y-797523D01*
X-141735Y-797023D01*
X-141485Y-796148D01*
X-141652Y-795273D01*
X-142068Y-794648D01*
X-142652Y-794273D01*
X-143235D01*
X-143818Y-794523D01*
X-144318Y-795148D01*
G01X-151068Y-801773D02*
X-147735D01*
Y-794273D01*
X-151068D01*
G01X-149735Y-797898D02*
X-147735D01*
G01X-153735Y-801773D02*
Y-794273D01*
X-155902Y-800523D01*
X-158068Y-794273D01*
Y-801773D01*
G01X-163068Y-797773D02*
X-163402Y-797398D01*
X-163652Y-796773D01*
X-163818Y-795898D01*
X-163652Y-795148D01*
X-163318Y-794648D01*
X-162735Y-794273D01*
X-160485D01*
Y-801773D01*
X-163235D01*
X-163818Y-801273D01*
X-164152Y-800523D01*
X-164318Y-799648D01*
X-164152Y-798773D01*
X-163652Y-798023D01*
X-163068Y-797773D01*
X-160485D01*
G01X-167235Y-794273D02*
Y-801773D01*
X-170568D01*
G01X-175402D02*
Y-798398D01*
X-173735Y-794273D01*
G01X-177068D02*
X-175402Y-798398D01*
G01X-89152Y-813273D02*
X-89818Y-813898D01*
X-90568Y-814273D01*
X-91235D01*
X-91902Y-813898D01*
X-92402Y-813273D01*
X-92652Y-812398D01*
X-92485Y-811523D01*
X-92068Y-810773D01*
X-91318Y-810273D01*
X-90318Y-810023D01*
X-89735Y-809523D01*
X-89485Y-808648D01*
X-89652Y-807773D01*
X-90068Y-807148D01*
X-90652Y-806773D01*
X-91235D01*
X-91818Y-807023D01*
X-92318Y-807648D01*
G01X-99068Y-814273D02*
X-95735D01*
Y-806773D01*
X-99068D01*
G01X-97735Y-810398D02*
X-95735D01*
G01X-105735Y-807398D02*
X-105235Y-807023D01*
X-104652Y-806773D01*
X-103985D01*
X-103235Y-807148D01*
X-102652Y-807773D01*
X-102235Y-808523D01*
X-101902Y-809773D01*
X-101818Y-810898D01*
X-101985Y-812023D01*
X-102235Y-812773D01*
X-102735Y-813523D01*
X-103318Y-814023D01*
X-103902Y-814273D01*
X-104485D01*
X-105068Y-814023D01*
X-105568Y-813648D01*
X-105985Y-813148D01*
G01X-110402Y-814273D02*
X-109735Y-814148D01*
X-109152Y-813648D01*
X-108652Y-812898D01*
X-108318Y-812023D01*
X-108152Y-811023D01*
Y-810023D01*
X-108318Y-809023D01*
X-108652Y-808148D01*
X-109152Y-807398D01*
X-109735Y-806898D01*
X-110402Y-806773D01*
X-111068Y-806898D01*
X-111652Y-807398D01*
X-112152Y-808148D01*
X-112485Y-809023D01*
X-112652Y-810023D01*
Y-811023D01*
X-112485Y-812023D01*
X-112152Y-812898D01*
X-111652Y-813648D01*
X-111068Y-814148D01*
X-110402Y-814273D01*
G01X-114985D02*
Y-806773D01*
X-118818Y-814273D01*
Y-806773D01*
G01X-121568Y-814273D02*
Y-806773D01*
X-123235D01*
X-123902Y-807148D01*
X-124402Y-807648D01*
X-124818Y-808398D01*
X-125152Y-809273D01*
X-125235Y-810523D01*
X-125152Y-811773D01*
X-124818Y-812648D01*
X-124402Y-813398D01*
X-123902Y-813898D01*
X-123235Y-814273D01*
X-121568D01*
G01X-127818D02*
X-129902Y-806773D01*
X-131985Y-814273D01*
G01X-131235Y-811648D02*
X-128568D01*
G01X-134735Y-814273D02*
Y-806773D01*
X-136818D01*
X-137485Y-807148D01*
X-137902Y-807648D01*
X-138068Y-808648D01*
X-137902Y-809648D01*
X-137402Y-810273D01*
X-136818Y-810648D01*
X-134735D01*
G01X-136818D02*
X-138068Y-814273D01*
G01X-142902D02*
Y-810898D01*
X-141235Y-806773D01*
G01X-144568D02*
X-142902Y-810898D01*
G01X-148318Y-811773D02*
X-150485D01*
G01X-154152Y-813273D02*
X-154818Y-813898D01*
X-155568Y-814273D01*
X-156235D01*
X-156902Y-813898D01*
X-157402Y-813273D01*
X-157652Y-812398D01*
X-157485Y-811523D01*
X-157068Y-810773D01*
X-156318Y-810273D01*
X-155318Y-810023D01*
X-154735Y-809523D01*
X-154485Y-808648D01*
X-154652Y-807773D01*
X-155068Y-807148D01*
X-155652Y-806773D01*
X-156235D01*
X-156818Y-807023D01*
X-157318Y-807648D01*
G01X-161402Y-806773D02*
X-163402D01*
G01X-162402D02*
Y-814273D01*
G01X-161402D02*
X-163402D01*
G01X-167068D02*
Y-806773D01*
X-168735D01*
X-169402Y-807148D01*
X-169902Y-807648D01*
X-170318Y-808398D01*
X-170652Y-809273D01*
X-170735Y-810523D01*
X-170652Y-811773D01*
X-170318Y-812648D01*
X-169902Y-813398D01*
X-169402Y-813898D01*
X-168735Y-814273D01*
X-167068D01*
G01X-177068D02*
X-173735D01*
Y-806773D01*
X-177068D01*
G01X-175735Y-810398D02*
X-173735D01*
G01X-79175Y-833940D02*
X-78855Y-833690D01*
X-78482Y-833523D01*
X-78055D01*
X-77575Y-833773D01*
X-77202Y-834190D01*
X-76935Y-834690D01*
X-76722Y-835523D01*
X-76668Y-836273D01*
X-76775Y-837023D01*
X-76935Y-837523D01*
X-77255Y-838023D01*
X-77628Y-838356D01*
X-78002Y-838523D01*
X-78375D01*
X-78748Y-838356D01*
X-79068Y-838106D01*
X-79335Y-837773D01*
G01X-81082Y-838523D02*
Y-833523D01*
G01X-83322D02*
Y-838523D01*
G01Y-836023D02*
X-81082D01*
G01X-87468Y-838523D02*
X-85335D01*
Y-833523D01*
X-87468D01*
G01X-86615Y-835940D02*
X-85335D01*
G01X-91775Y-833940D02*
X-91455Y-833690D01*
X-91082Y-833523D01*
X-90655D01*
X-90175Y-833773D01*
X-89802Y-834190D01*
X-89535Y-834690D01*
X-89322Y-835523D01*
X-89268Y-836273D01*
X-89375Y-837023D01*
X-89535Y-837523D01*
X-89855Y-838023D01*
X-90228Y-838356D01*
X-90602Y-838523D01*
X-90975D01*
X-91348Y-838356D01*
X-91668Y-838106D01*
X-91935Y-837773D01*
G01X-93628Y-838523D02*
Y-833523D01*
G01X-95655D02*
X-93628Y-836606D01*
G01X-95975Y-838523D02*
X-94535Y-835190D01*
G01X-100068Y-838523D02*
X-97935D01*
Y-833523D01*
X-100068D01*
G01X-99215Y-835940D02*
X-97935D01*
G01X-102135Y-838523D02*
Y-833523D01*
X-103468D01*
X-103895Y-833773D01*
X-104162Y-834106D01*
X-104268Y-834773D01*
X-104162Y-835440D01*
X-103842Y-835856D01*
X-103468Y-836106D01*
X-102135D01*
G01X-103468D02*
X-104268Y-838523D01*
G01X-107402Y-838690D02*
X-107295Y-838606D01*
Y-838440D01*
X-107402Y-838356D01*
X-107508Y-838440D01*
Y-838606D01*
X-107402Y-838690D01*
G01Y-836440D02*
X-107295Y-836356D01*
Y-836190D01*
X-107402Y-836106D01*
X-107508Y-836190D01*
Y-836356D01*
X-107402Y-836440D01*
G01X-77828Y-849523D02*
Y-844523D01*
X-78895D01*
X-79322Y-844773D01*
X-79642Y-845106D01*
X-79908Y-845606D01*
X-80122Y-846190D01*
X-80175Y-847023D01*
X-80122Y-847856D01*
X-79908Y-848440D01*
X-79642Y-848940D01*
X-79322Y-849273D01*
X-78895Y-849523D01*
X-77828D01*
G01X-81868D02*
X-83202Y-844523D01*
X-84535Y-849523D01*
G01X-84055Y-847773D02*
X-82348D01*
G01X-87402Y-844523D02*
Y-849523D01*
G01X-86175Y-844523D02*
X-88628D01*
G01X-92668Y-849523D02*
X-90535D01*
Y-844523D01*
X-92668D01*
G01X-91815Y-846940D02*
X-90535D01*
G01X-95802Y-849690D02*
X-95695Y-849606D01*
Y-849440D01*
X-95802Y-849356D01*
X-95908Y-849440D01*
Y-849606D01*
X-95802Y-849690D01*
G01Y-847440D02*
X-95695Y-847356D01*
Y-847190D01*
X-95802Y-847106D01*
X-95908Y-847190D01*
Y-847356D01*
X-95802Y-847440D01*
G01X-76935Y-859523D02*
X-77202Y-860023D01*
X-77522Y-860356D01*
X-77895Y-860523D01*
X-78322Y-860356D01*
X-78642Y-860023D01*
X-78962Y-859523D01*
X-79068Y-858856D01*
Y-855523D01*
G01X-82202Y-860523D02*
X-81775Y-860440D01*
X-81402Y-860106D01*
X-81082Y-859606D01*
X-80868Y-859023D01*
X-80762Y-858356D01*
Y-857690D01*
X-80868Y-857023D01*
X-81082Y-856440D01*
X-81402Y-855940D01*
X-81775Y-855606D01*
X-82202Y-855523D01*
X-82628Y-855606D01*
X-83002Y-855940D01*
X-83322Y-856440D01*
X-83535Y-857023D01*
X-83642Y-857690D01*
Y-858356D01*
X-83535Y-859023D01*
X-83322Y-859606D01*
X-83002Y-860106D01*
X-82628Y-860440D01*
X-82202Y-860523D01*
G01X-86828Y-857856D02*
X-87042Y-857606D01*
X-87202Y-857190D01*
X-87308Y-856606D01*
X-87202Y-856106D01*
X-86988Y-855773D01*
X-86615Y-855523D01*
X-85175D01*
Y-860523D01*
X-86935D01*
X-87308Y-860190D01*
X-87522Y-859690D01*
X-87628Y-859106D01*
X-87522Y-858523D01*
X-87202Y-858023D01*
X-86828Y-857856D01*
X-85175D01*
G01X-89535Y-862190D02*
X-90602Y-855523D01*
G01X-91668D02*
X-90602Y-862190D01*
G01X-89002Y-859690D02*
X-92202D01*
G01Y-858023D02*
X-89002D01*
G01X-94802Y-860690D02*
X-94695Y-860606D01*
Y-860440D01*
X-94802Y-860356D01*
X-94908Y-860440D01*
Y-860606D01*
X-94802Y-860690D01*
G01Y-858440D02*
X-94695Y-858356D01*
Y-858190D01*
X-94802Y-858106D01*
X-94908Y-858190D01*
Y-858356D01*
X-94802Y-858440D01*
G01X-116935Y-827523D02*
Y-822523D01*
X-118215D01*
X-118642Y-822773D01*
X-118962Y-823356D01*
X-119068Y-824023D01*
X-118962Y-824690D01*
X-118695Y-825190D01*
X-118215Y-825440D01*
X-116935D01*
G01X-122202Y-822523D02*
Y-827523D01*
G01X-120975Y-822523D02*
X-123428D01*
G01X-127468Y-827523D02*
X-125335D01*
Y-822523D01*
X-127468D01*
G01X-126615Y-824940D02*
X-125335D01*
G01X-131775Y-822940D02*
X-131455Y-822690D01*
X-131082Y-822523D01*
X-130655D01*
X-130175Y-822773D01*
X-129802Y-823190D01*
X-129535Y-823690D01*
X-129322Y-824523D01*
X-129268Y-825273D01*
X-129375Y-826023D01*
X-129535Y-826523D01*
X-129855Y-827023D01*
X-130228Y-827356D01*
X-130602Y-827523D01*
X-130975D01*
X-131348Y-827356D01*
X-131668Y-827106D01*
X-131935Y-826773D01*
G01X-76828Y-827523D02*
Y-822523D01*
X-77895D01*
X-78322Y-822773D01*
X-78642Y-823106D01*
X-78908Y-823606D01*
X-79122Y-824190D01*
X-79175Y-825023D01*
X-79122Y-825856D01*
X-78908Y-826440D01*
X-78642Y-826940D01*
X-78322Y-827273D01*
X-77895Y-827523D01*
X-76828D01*
G01X-83268D02*
X-81135D01*
Y-822523D01*
X-83268D01*
G01X-82415Y-824940D02*
X-81135D01*
G01X-85282Y-826856D02*
X-85708Y-827273D01*
X-86188Y-827523D01*
X-86615D01*
X-87042Y-827273D01*
X-87362Y-826856D01*
X-87522Y-826273D01*
X-87415Y-825690D01*
X-87148Y-825190D01*
X-86668Y-824856D01*
X-86028Y-824690D01*
X-85655Y-824356D01*
X-85495Y-823773D01*
X-85602Y-823190D01*
X-85868Y-822773D01*
X-86242Y-822523D01*
X-86615D01*
X-86988Y-822690D01*
X-87308Y-823106D01*
G01X-89962Y-822523D02*
X-91242D01*
G01X-90602D02*
Y-827523D01*
G01X-89962D02*
X-91242D01*
G01X-95122Y-825023D02*
X-96188D01*
Y-826523D01*
X-95868Y-827023D01*
X-95495Y-827356D01*
X-94962Y-827523D01*
X-94428Y-827356D01*
X-94055Y-827023D01*
X-93735Y-826523D01*
X-93522Y-825940D01*
X-93415Y-825273D01*
Y-824690D01*
X-93522Y-824190D01*
X-93735Y-823606D01*
X-94055Y-823106D01*
X-94375Y-822773D01*
X-94802Y-822523D01*
X-95175D01*
X-95602Y-822690D01*
X-95922Y-823023D01*
G01X-97775Y-827523D02*
Y-822523D01*
X-100228Y-827523D01*
Y-822523D01*
G01X-104268Y-827523D02*
X-102135D01*
Y-822523D01*
X-104268D01*
G01X-103415Y-824940D02*
X-102135D01*
G01X-106335Y-827523D02*
Y-822523D01*
X-107668D01*
X-108095Y-822773D01*
X-108362Y-823106D01*
X-108468Y-823773D01*
X-108362Y-824440D01*
X-108042Y-824856D01*
X-107668Y-825106D01*
X-106335D01*
G01X-107668D02*
X-108468Y-827523D01*
G01X-111602Y-827690D02*
X-111495Y-827606D01*
Y-827440D01*
X-111602Y-827356D01*
X-111708Y-827440D01*
Y-827606D01*
X-111602Y-827690D01*
G01Y-825440D02*
X-111495Y-825356D01*
Y-825190D01*
X-111602Y-825106D01*
X-111708Y-825190D01*
Y-825356D01*
X-111602Y-825440D01*
G01X-71402Y-788523D02*
Y-863523D01*
G01X-25380Y-833534D02*
G03I-355J0D01*
G01X-25450Y-833664D02*
G03I-355J0D01*
G01X-25490Y-833814D02*
G03I-355J0D01*
G01X-25510Y-833975D02*
G03I-355J0D01*
G01X-25490Y-834144D02*
G03I-355J0D01*
G01X-25440Y-834304D02*
G03I-355J0D01*
G01X-25370Y-834454D02*
G03I-355J0D01*
G01X-24710Y-833175D02*
G03I-355J0D01*
G01X-24870Y-833194D02*
G03I-355J0D01*
G01X-25020Y-833234D02*
G03I-355J0D01*
G01X-25150Y-833304D02*
G03I-355J0D01*
G01X-25280Y-833404D02*
G03I-355J0D01*
G01X-25260Y-834584D02*
G03I-355J0D01*
G01X-25130Y-834694D02*
G03I-355J0D01*
G01X-24980Y-834764D02*
G03I-355J0D01*
G01X-24820Y-834814D02*
G03I-355J0D01*
G01X-24650Y-834834D02*
G03I-355J0D01*
G01X-25270Y-836484D02*
G03I-355J0D01*
G01X-24370Y-834834D02*
G03I-355J0D01*
G01D02*
G03I-355J0D01*
G01X-22440Y-833175D02*
G03I-355J0D01*
G01D02*
G03I-355J0D01*
G01Y-834834D02*
G03I-355J0D01*
G01D02*
G03I-355J0D01*
G01Y-836484D02*
G03I-355J0D01*
G01X-20310Y-834454D02*
G03I-355J0D01*
G01X-20290Y-834234D02*
G03I-355J0D01*
G01X-20310Y-835184D02*
G03I-355J0D01*
G01X-20290Y-835414D02*
G03I-355J0D01*
G01X-20310Y-835184D02*
G03I-355J0D01*
G01X-20230Y-834014D02*
G03I-355J0D01*
G01X-20140Y-833814D02*
G03I-355J0D01*
G01X-20010Y-833634D02*
G03I-355J0D01*
G01X-19850Y-833475D02*
G03I-355J0D01*
G01X-19670Y-833344D02*
G03I-355J0D01*
G01X-19470Y-833254D02*
G03I-355J0D01*
G01X-20230Y-835625D02*
G03I-355J0D01*
G01X-19450Y-836404D02*
G03I-355J0D01*
G01X-19660Y-836314D02*
G03I-355J0D01*
G01X-19850Y-836184D02*
G03I-355J0D01*
G01X-20010Y-836025D02*
G03I-355J0D01*
G01X-20140Y-835834D02*
G03I-355J0D01*
G01X-19250Y-833194D02*
G03I-355J0D01*
G01X-19030Y-833175D02*
G03I-355J0D01*
G01X-19010Y-836484D02*
G03I-355J0D01*
G01X-19240Y-836464D02*
G03I-355J0D01*
G01X-18290Y-833175D02*
G03I-355J0D01*
G01X-18070Y-833194D02*
G03I-355J0D01*
G01X-17850Y-833254D02*
G03I-355J0D01*
G01X-17730Y-836344D02*
G03I-355J0D01*
G01X-17920Y-836424D02*
G03I-355J0D01*
G01X-18120Y-836464D02*
G03I-355J0D01*
G01X-18320Y-836484D02*
G03I-355J0D01*
G01X-17650Y-833344D02*
G03I-355J0D01*
G01X-17080Y-834025D02*
G03I-355J0D01*
G01X-17020Y-834244D02*
G03I-355J0D01*
G01X-17000Y-834464D02*
G03I-355J0D01*
G01X-17010D02*
G03I-355J0D01*
G01Y-835175D02*
G03I-355J0D01*
G01X-17030Y-835375D02*
G03I-355J0D01*
G01X-17070Y-835575D02*
G03I-355J0D01*
G01X-17460Y-833475D02*
G03I-355J0D01*
G01X-17300Y-833634D02*
G03I-355J0D01*
G01X-17170Y-833814D02*
G03I-355J0D01*
G01X-17150Y-835764D02*
G03I-355J0D01*
G01X-17260Y-835944D02*
G03I-355J0D01*
G01X-17390Y-836104D02*
G03I-355J0D01*
G01X-17550Y-836234D02*
G03I-355J0D01*
G01X-14880Y-833175D02*
G03I-355J0D01*
G01X-13460D02*
G03I-355J0D01*
G01D02*
G03I-355J0D01*
G01Y-836484D02*
G03I-355J0D01*
G01X-25460Y-818174D02*
G03I-355J0D01*
G01X-25510Y-818725D02*
G03I-355J0D01*
G01X-25490Y-818514D02*
G03I-355J0D01*
G01X-25510Y-819204D02*
G03I-355J0D01*
G01X-25300Y-817644D02*
G03I-355J0D01*
G01X-25020Y-817164D02*
G03I-355J0D01*
G01X-24640Y-816754D02*
G03I-355J0D01*
G01X-24980Y-817125D02*
G03I-355J0D01*
G01X-25350Y-817814D02*
G03I-355J0D01*
G01X-24200Y-816434D02*
G03I-355J0D01*
G01X-23990Y-816274D02*
G03I-355J0D01*
G01D02*
G03I-355J0D01*
G01X-23260Y-815914D02*
G03I-355J0D01*
G01X-25510Y-821284D02*
G03I-355J0D01*
G01Y-821984D02*
G03I-355J0D01*
G01Y-822675D02*
G03I-355J0D01*
G01Y-823375D02*
G03I-355J0D01*
G01Y-824064D02*
G03I-355J0D01*
G01Y-824754D02*
G03I-355J0D01*
G01Y-825454D02*
G03I-355J0D01*
G01Y-826144D02*
G03I-355J0D01*
G01Y-826844D02*
G03I-355J0D01*
G01Y-827534D02*
G03I-355J0D01*
G01Y-828234D02*
G03I-355J0D01*
G01Y-828684D02*
G03I-355J0D01*
G01Y-819904D02*
G03I-355J0D01*
G01Y-820594D02*
G03I-355J0D01*
G01X-22620Y-815734D02*
G03I-355J0D01*
G01X-22480Y-815694D02*
G03I-355J0D01*
G01X-22150Y-817554D02*
G03I-355J0D01*
G01X-22310Y-817794D02*
G03I-355J0D01*
G01X-22410Y-818074D02*
G03I-355J0D01*
G01X-22440Y-818374D02*
G03I-355J0D01*
G01X-22320Y-817814D02*
G03I-355J0D01*
G01X-22440Y-818514D02*
G03I-355J0D01*
G01Y-819204D02*
G03I-355J0D01*
G01X-21450Y-817184D02*
G03I-355J0D01*
G01X-21930Y-817354D02*
G03I-355J0D01*
G01X-20940Y-817114D02*
G03I-355J0D01*
G01X-21020Y-817125D02*
G03I-355J0D01*
G01X-19480Y-817514D02*
G03I-355J0D01*
G01X-19610Y-817354D02*
G03I-355J0D01*
G01X-19780Y-817224D02*
G03I-355J0D01*
G01X-19970Y-817144D02*
G03I-355J0D01*
G01X-20180Y-817114D02*
G03I-355J0D01*
G01X-20100Y-817125D02*
G03I-355J0D01*
G01X-19400Y-817714D02*
G03I-355J0D01*
G01X-19380Y-817814D02*
G03I-355J0D01*
G01X-19370Y-817924D02*
G03I-355J0D01*
G01Y-818514D02*
G03I-355J0D01*
G01Y-819204D02*
G03I-355J0D01*
G01X-16040Y-817704D02*
G03I-355J0D01*
G01X-16060Y-817914D02*
G03I-355J0D01*
G01X-16050Y-817814D02*
G03I-355J0D01*
G01X-16060Y-818514D02*
G03I-355J0D01*
G01Y-819204D02*
G03I-355J0D01*
G01X-15830Y-817344D02*
G03I-355J0D01*
G01X-15950Y-817514D02*
G03I-355J0D01*
G01X-22440Y-821284D02*
G03I-355J0D01*
G01Y-821984D02*
G03I-355J0D01*
G01Y-822675D02*
G03I-355J0D01*
G01Y-823375D02*
G03I-355J0D01*
G01Y-824064D02*
G03I-355J0D01*
G01Y-824754D02*
G03I-355J0D01*
G01Y-825454D02*
G03I-355J0D01*
G01Y-826144D02*
G03I-355J0D01*
G01Y-826844D02*
G03I-355J0D01*
G01Y-827534D02*
G03I-355J0D01*
G01Y-828234D02*
G03I-355J0D01*
G01X-19370Y-821284D02*
G03I-355J0D01*
G01Y-821984D02*
G03I-355J0D01*
G01Y-822675D02*
G03I-355J0D01*
G01Y-823375D02*
G03I-355J0D01*
G01Y-824064D02*
G03I-355J0D01*
G01Y-824754D02*
G03I-355J0D01*
G01Y-825454D02*
G03I-355J0D01*
G01Y-826144D02*
G03I-355J0D01*
G01Y-826844D02*
G03I-355J0D01*
G01Y-827534D02*
G03I-355J0D01*
G01Y-828234D02*
G03I-355J0D01*
G01X-22440Y-828684D02*
G03I-355J0D01*
G01X-19370D02*
G03I-355J0D01*
G01X-16060Y-821284D02*
G03I-355J0D01*
G01Y-821984D02*
G03I-355J0D01*
G01Y-822675D02*
G03I-355J0D01*
G01Y-823375D02*
G03I-355J0D01*
G01Y-824064D02*
G03I-355J0D01*
G01Y-824754D02*
G03I-355J0D01*
G01Y-825454D02*
G03I-355J0D01*
G01Y-826144D02*
G03I-355J0D01*
G01Y-826844D02*
G03I-355J0D01*
G01Y-827534D02*
G03I-355J0D01*
G01Y-828234D02*
G03I-355J0D01*
G01Y-828684D02*
G03I-355J0D01*
G01X-22440Y-819904D02*
G03I-355J0D01*
G01Y-820594D02*
G03I-355J0D01*
G01X-19370Y-819904D02*
G03I-355J0D01*
G01Y-820594D02*
G03I-355J0D01*
G01X-16060Y-819904D02*
G03I-355J0D01*
G01Y-820594D02*
G03I-355J0D01*
G01X-15260Y-817114D02*
G03I-355J0D01*
G01X-15470Y-817144D02*
G03I-355J0D01*
G01X-15660Y-817224D02*
G03I-355J0D01*
G01X-15341Y-817125D02*
G03I-355J0D01*
G01X-13600Y-817144D02*
G03I-355J0D01*
G01X-13820Y-817114D02*
G03I-355J0D01*
G01X-13740Y-817125D02*
G03I-355J0D01*
G01X-13100Y-817524D02*
G03I-355J0D01*
G01X-13230Y-817354D02*
G03I-355J0D01*
G01X-13410Y-817224D02*
G03I-355J0D01*
G01X-12990Y-817944D02*
G03I-355J0D01*
G01X-13020Y-817724D02*
G03I-355J0D01*
G01X-13010Y-817814D02*
G03I-355J0D01*
G01X-12990Y-819204D02*
G03I-355J0D01*
G01Y-818514D02*
G03I-355J0D01*
G01Y-821284D02*
G03I-355J0D01*
G01Y-821984D02*
G03I-355J0D01*
G01Y-823375D02*
G03I-355J0D01*
G01Y-822675D02*
G03I-355J0D01*
G01Y-824064D02*
G03I-355J0D01*
G01Y-824754D02*
G03I-355J0D01*
G01Y-825454D02*
G03I-355J0D01*
G01Y-826844D02*
G03I-355J0D01*
G01Y-826144D02*
G03I-355J0D01*
G01Y-827534D02*
G03I-355J0D01*
G01Y-828234D02*
G03I-355J0D01*
G01Y-828684D02*
G03I-355J0D01*
G01Y-819904D02*
G03I-355J0D01*
G01Y-820594D02*
G03I-355J0D01*
G01X-21320Y-815525D02*
G03I-355J0D01*
G01X-20160Y-815464D02*
G03I-355J0D01*
G01X-15830D02*
G03I-355J0D01*
G01X-12860Y-815554D02*
G03I-355J0D01*
G01X23598Y-863523D02*
Y-913523D01*
G01X-5200Y-833175D02*
G03I-355J0D01*
G01Y-835175D02*
G03I-355J0D01*
G01X-5190D02*
G03I-355J0D01*
G01X-5170Y-835404D02*
G03I-355J0D01*
G01X-5110Y-835625D02*
G03I-355J0D01*
G01X-5010Y-835824D02*
G03I-355J0D01*
G01X-4880Y-836014D02*
G03I-355J0D01*
G01X-4720Y-836175D02*
G03I-355J0D01*
G01X-4540Y-836304D02*
G03I-355J0D01*
G01X-4330Y-836404D02*
G03I-355J0D01*
G01X-4110Y-836464D02*
G03I-355J0D01*
G01X-3880Y-836484D02*
G03I-355J0D01*
G01X-3360D02*
G03I-355J0D01*
G01X-3140Y-836464D02*
G03I-355J0D01*
G01X-2940Y-836414D02*
G03I-355J0D01*
G01X-2740Y-836314D02*
G03I-355J0D01*
G01X-2560Y-836194D02*
G03I-355J0D01*
G01X-2410Y-836044D02*
G03I-355J0D01*
G01X-2130Y-833175D02*
G03I-355J0D01*
G01X-2140Y-835464D02*
G03I-355J0D01*
G01X-2120Y-835244D02*
G03I-355J0D01*
G01X-2130D02*
G03I-355J0D01*
G01X-2290Y-835864D02*
G03I-355J0D01*
G01X-2190Y-835664D02*
G03I-355J0D01*
G01X880Y-833344D02*
G03I-355J0D01*
G01X700Y-833475D02*
G03I-355J0D01*
G01X540Y-833634D02*
G03I-355J0D01*
G01X240Y-834464D02*
G03I-355J0D01*
G01X409Y-833814D02*
G03I-355J0D01*
G01X320Y-834025D02*
G03I-355J0D01*
G01X260Y-834244D02*
G03I-355J0D01*
G01X240Y-834464D02*
G03I-355J0D01*
G01Y-835175D02*
G03I-355J0D01*
G01X260Y-835375D02*
G03I-355J0D01*
G01X300Y-835575D02*
G03I-355J0D01*
G01X380Y-835764D02*
G03I-355J0D01*
G01X490Y-835944D02*
G03I-355J0D01*
G01X620Y-836104D02*
G03I-355J0D01*
G01X780Y-836234D02*
G03I-355J0D01*
G01X960Y-836344D02*
G03I-355J0D01*
G01X1310Y-833194D02*
G03I-355J0D01*
G01X1090Y-833254D02*
G03I-355J0D01*
G01X1150Y-836424D02*
G03I-355J0D01*
G01X1350Y-836464D02*
G03I-355J0D01*
G01X-12050Y-833175D02*
G03I-355J0D01*
G01X-10160D02*
G03I-355J0D01*
G01Y-836484D02*
G03I-355J0D01*
G01X-8360Y-833175D02*
G03I-355J0D01*
G01X-8390Y-836484D02*
G03I-355J0D01*
G01X-7460Y-833694D02*
G03I-355J0D01*
G01X-7560Y-833544D02*
G03I-355J0D01*
G01X-7690Y-833414D02*
G03I-355J0D01*
G01X-7840Y-833314D02*
G03I-355J0D01*
G01X-8000Y-833234D02*
G03I-355J0D01*
G01X-8180Y-833194D02*
G03I-355J0D01*
G01X-8200Y-836464D02*
G03I-355J0D01*
G01X-8020Y-836424D02*
G03I-355J0D01*
G01X-7850Y-836344D02*
G03I-355J0D01*
G01X-7700Y-836234D02*
G03I-355J0D01*
G01X-7570Y-836104D02*
G03I-355J0D01*
G01X-7460Y-835944D02*
G03I-355J0D01*
G01X-7380Y-833854D02*
G03I-355J0D01*
G01X-7320Y-834214D02*
G03I-355J0D01*
G01X-7340Y-834034D02*
G03I-355J0D01*
G01X-7320Y-835414D02*
G03I-355J0D01*
G01X-7380Y-835784D02*
G03I-355J0D01*
G01X-7340Y-835604D02*
G03I-355J0D01*
G01X18940Y-833254D02*
G03I-355J0D01*
G01X18730Y-833194D02*
G03I-355J0D01*
G01X18520Y-833175D02*
G03I-355J0D01*
G01Y-836484D02*
G03I-355J0D01*
G01X18710Y-836464D02*
G03I-355J0D01*
G01X18890Y-836414D02*
G03I-355J0D01*
G01X19430Y-833654D02*
G03I-355J0D01*
G01X19290Y-833494D02*
G03I-355J0D01*
G01X19130Y-833354D02*
G03I-355J0D01*
G01X19610Y-834264D02*
G03I-355J0D01*
G01X19590Y-834054D02*
G03I-355J0D01*
G01X19530Y-833844D02*
G03I-355J0D01*
G01X19610Y-835394D02*
G03I-355J0D01*
G01X19070Y-836334D02*
G03I-355J0D01*
G01X19220Y-836225D02*
G03I-355J0D01*
G01X19350Y-836094D02*
G03I-355J0D01*
G01X19460Y-835934D02*
G03I-355J0D01*
G01X19540Y-835764D02*
G03I-355J0D01*
G01X19590Y-835584D02*
G03I-355J0D01*
G01X22210Y-833175D02*
G03I-355J0D01*
G01Y-836484D02*
G03I-355J0D01*
G01X24800Y-833175D02*
G03I-355J0D01*
G01Y-836484D02*
G03I-355J0D01*
G01X1530Y-833175D02*
G03I-355J0D01*
G01X1550Y-836484D02*
G03I-355J0D01*
G01X3310Y-833175D02*
G03I-355J0D01*
G01Y-836484D02*
G03I-355J0D01*
G01X5670Y-833175D02*
G03I-355J0D01*
G01Y-836484D02*
G03I-355J0D01*
G01X6220D02*
G03I-355J0D01*
G01X8500Y-833175D02*
G03I-355J0D01*
G01X8980D02*
G03I-355J0D01*
G01Y-836484D02*
G03I-355J0D01*
G01X11640Y-833634D02*
G03I-355J0D01*
G01X11800Y-833475D02*
G03I-355J0D01*
G01X11990Y-833344D02*
G03I-355J0D01*
G01X11340Y-834475D02*
G03I-355J0D01*
G01X11360Y-834244D02*
G03I-355J0D01*
G01X11420Y-834034D02*
G03I-355J0D01*
G01X11510Y-833824D02*
G03I-355J0D01*
G01X11340Y-835164D02*
G03I-355J0D01*
G01X11400Y-835575D02*
G03I-355J0D01*
G01X11360Y-835375D02*
G03I-355J0D01*
G01X11340Y-835164D02*
G03I-355J0D01*
G01X12060Y-836344D02*
G03I-355J0D01*
G01X11880Y-836234D02*
G03I-355J0D01*
G01X11730Y-836094D02*
G03I-355J0D01*
G01X11590Y-835944D02*
G03I-355J0D01*
G01X11480Y-835764D02*
G03I-355J0D01*
G01X12200Y-833254D02*
G03I-355J0D01*
G01X12410Y-833194D02*
G03I-355J0D01*
G01X12640Y-833175D02*
G03I-355J0D01*
G01X12660Y-836484D02*
G03I-355J0D01*
G01X12450Y-836464D02*
G03I-355J0D01*
G01X12250Y-836424D02*
G03I-355J0D01*
G01X13380Y-833175D02*
G03I-355J0D01*
G01X13600Y-833194D02*
G03I-355J0D01*
G01X13810Y-833254D02*
G03I-355J0D01*
G01X13800Y-836404D02*
G03I-355J0D01*
G01X13580Y-836464D02*
G03I-355J0D01*
G01X13360Y-836484D02*
G03I-355J0D01*
G01X14010Y-833344D02*
G03I-355J0D01*
G01X14200Y-833475D02*
G03I-355J0D01*
G01X14350Y-833625D02*
G03I-355J0D01*
G01X14480Y-833804D02*
G03I-355J0D01*
G01X14570Y-834014D02*
G03I-355J0D01*
G01X14630Y-834224D02*
G03I-355J0D01*
G01X14650Y-834444D02*
G03I-355J0D01*
G01Y-835195D02*
G03I-355J0D01*
G01X14630Y-835414D02*
G03I-355J0D01*
G01X14570Y-835634D02*
G03I-355J0D01*
G01X14480Y-835834D02*
G03I-355J0D01*
G01X14350Y-836025D02*
G03I-355J0D01*
G01X14190Y-836184D02*
G03I-355J0D01*
G01X14010Y-836314D02*
G03I-355J0D01*
G01X16770Y-833175D02*
G03I-355J0D01*
G01Y-836484D02*
G03I-355J0D01*
G01X25320Y-833175D02*
G03I-355J0D01*
G01X26730Y-836484D02*
G03I-355J0D01*
G01X28270Y-833175D02*
G03I-355J0D01*
G01X28820D02*
G03I-355J0D01*
G01Y-836484D02*
G03I-355J0D01*
G01X-3070Y-815934D02*
G03I-355J0D01*
G01Y-816434D02*
G03I-355J0D01*
G01Y-817125D02*
G03I-355J0D01*
G01Y-817814D02*
G03I-355J0D01*
G01Y-819204D02*
G03I-355J0D01*
G01Y-818514D02*
G03I-355J0D01*
G01X-2841Y-820904D02*
G03I-355J0D01*
G01X-2680Y-821024D02*
G03I-355J0D01*
G01X-2490Y-821104D02*
G03I-355J0D01*
G01X-2450Y-822814D02*
G03I-355J0D01*
G01X-2660Y-822894D02*
G03I-355J0D01*
G01X-2830Y-823025D02*
G03I-355J0D01*
G01X-2960Y-823194D02*
G03I-355J0D01*
G01X-3040Y-823394D02*
G03I-355J0D01*
G01X-3070Y-823614D02*
G03I-355J0D01*
G01X-3030Y-823375D02*
G03I-355J0D01*
G01X-3070Y-824064D02*
G03I-355J0D01*
G01Y-824754D02*
G03I-355J0D01*
G01Y-826144D02*
G03I-355J0D01*
G01Y-825454D02*
G03I-355J0D01*
G01Y-826844D02*
G03I-355J0D01*
G01Y-827534D02*
G03I-355J0D01*
G01Y-828234D02*
G03I-355J0D01*
G01X-2290Y-821125D02*
G03I-355J0D01*
G01X-2240Y-822784D02*
G03I-355J0D01*
G01X-3070Y-828684D02*
G03I-355J0D01*
G01Y-819904D02*
G03I-355J0D01*
G01Y-820344D02*
G03I-355J0D01*
G01X-3040Y-820544D02*
G03I-355J0D01*
G01X-2960Y-820734D02*
G03I-355J0D01*
G01X-3020Y-820594D02*
G03I-355J0D01*
G01X-11470Y-815734D02*
G03I-355J0D01*
G01X-9920Y-815934D02*
G03I-355J0D01*
G01Y-816434D02*
G03I-355J0D01*
G01Y-817125D02*
G03I-355J0D01*
G01Y-818514D02*
G03I-355J0D01*
G01Y-817814D02*
G03I-355J0D01*
G01Y-819204D02*
G03I-355J0D01*
G01X-6380Y-815934D02*
G03I-355J0D01*
G01Y-816434D02*
G03I-355J0D01*
G01Y-817125D02*
G03I-355J0D01*
G01Y-817814D02*
G03I-355J0D01*
G01Y-819204D02*
G03I-355J0D01*
G01Y-818514D02*
G03I-355J0D01*
G01X-9920Y-821284D02*
G03I-355J0D01*
G01Y-822675D02*
G03I-355J0D01*
G01Y-821984D02*
G03I-355J0D01*
G01Y-823375D02*
G03I-355J0D01*
G01Y-824064D02*
G03I-355J0D01*
G01Y-824754D02*
G03I-355J0D01*
G01Y-826144D02*
G03I-355J0D01*
G01Y-825454D02*
G03I-355J0D01*
G01Y-826844D02*
G03I-355J0D01*
G01Y-827534D02*
G03I-355J0D01*
G01Y-828234D02*
G03I-355J0D01*
G01X-6380Y-821284D02*
G03I-355J0D01*
G01Y-822675D02*
G03I-355J0D01*
G01Y-821984D02*
G03I-355J0D01*
G01Y-823375D02*
G03I-355J0D01*
G01Y-824064D02*
G03I-355J0D01*
G01Y-824754D02*
G03I-355J0D01*
G01Y-825454D02*
G03I-355J0D01*
G01Y-826844D02*
G03I-355J0D01*
G01Y-826144D02*
G03I-355J0D01*
G01Y-827534D02*
G03I-355J0D01*
G01Y-828234D02*
G03I-355J0D01*
G01X-9920Y-828684D02*
G03I-355J0D01*
G01X-6380D02*
G03I-355J0D01*
G01X-9920Y-819904D02*
G03I-355J0D01*
G01Y-820594D02*
G03I-355J0D01*
G01X-6380Y-819904D02*
G03I-355J0D01*
G01Y-820594D02*
G03I-355J0D01*
G01X18990Y-817064D02*
G03I-355J0D01*
G01X18440Y-816914D02*
G03I-355J0D01*
G01X19490Y-817334D02*
G03I-355J0D01*
G01X19090Y-817125D02*
G03I-355J0D01*
G01X19920Y-817704D02*
G03I-355J0D01*
G01D02*
G03I-355J0D01*
G01X20020Y-817814D02*
G03I-355J0D01*
G01X20390Y-818364D02*
G03I-355J0D01*
G01X20190Y-818014D02*
G03I-355J0D01*
G01X20550Y-819164D02*
G03I-355J0D01*
G01X20510Y-818754D02*
G03I-355J0D01*
G01X20440Y-818514D02*
G03I-355J0D01*
G01X20550Y-819204D02*
G03I-355J0D01*
G01X20750Y-815734D02*
G03I-355J0D01*
G01X21220Y-815894D02*
G03I-355J0D01*
G01X21930Y-816284D02*
G03I-355J0D01*
G01X22110Y-816434D02*
G03I-355J0D01*
G01X22560Y-816794D02*
G03I-355J0D01*
G01X22930Y-817104D02*
G03I-355J0D01*
G01X23220Y-817484D02*
G03I-355J0D01*
G01X22940Y-817125D02*
G03I-355J0D01*
G01X23450Y-817904D02*
G03I-355J0D01*
G01X23580Y-818364D02*
G03I-355J0D01*
G01X23450Y-817904D02*
G03I-355J0D01*
G01X23400Y-817814D02*
G03I-355J0D01*
G01X23620Y-818844D02*
G03I-355J0D01*
G01X23590Y-818514D02*
G03I-355J0D01*
G01X23620Y-819204D02*
G03I-355J0D01*
G01X18030Y-827274D02*
G03I-355J0D01*
G01X18510Y-827225D02*
G03I-355J0D01*
G01X18980Y-827075D02*
G03I-355J0D01*
G01X19400Y-826844D02*
G03I-355J0D01*
G01X19760Y-826524D02*
G03I-355J0D01*
G01X19390Y-826844D02*
G03I-355J0D01*
G01X20550Y-821604D02*
G03I-355J0D01*
G01D02*
G03I-355J0D01*
G01D02*
G03I-355J0D01*
G01Y-821284D02*
G03I-355J0D01*
G01Y-821984D02*
G03I-355J0D01*
G01Y-822675D02*
G03I-355J0D01*
G01Y-823375D02*
G03I-355J0D01*
G01Y-824064D02*
G03I-355J0D01*
G01Y-824794D02*
G03I-355J0D01*
G01Y-824754D02*
G03I-355J0D01*
G01X20370Y-825754D02*
G03I-355J0D01*
G01X20520Y-825284D02*
G03I-355J0D01*
G01X20460Y-825454D02*
G03I-355J0D01*
G01X20110Y-826175D02*
G03I-355J0D01*
G01X20130Y-826144D02*
G03I-355J0D01*
G01X21270Y-828254D02*
G03I-355J0D01*
G01X21330Y-828234D02*
G03I-355J0D01*
G01X21920Y-827964D02*
G03I-355J0D01*
G01X23220Y-826925D02*
G03I-355J0D01*
G01X23270Y-826844D02*
G03I-355J0D01*
G01X22910Y-827294D02*
G03I-355J0D01*
G01X22520Y-827584D02*
G03I-355J0D01*
G01X22590Y-827534D02*
G03I-355J0D01*
G01X23620Y-821604D02*
G03I-355J0D01*
G01D02*
G03I-355J0D01*
G01D02*
G03I-355J0D01*
G01Y-821284D02*
G03I-355J0D01*
G01Y-821984D02*
G03I-355J0D01*
G01Y-822675D02*
G03I-355J0D01*
G01Y-823375D02*
G03I-355J0D01*
G01Y-824064D02*
G03I-355J0D01*
G01Y-824754D02*
G03I-355J0D01*
G01Y-825534D02*
G03I-355J0D01*
G01X23590Y-826025D02*
G03I-355J0D01*
G01X23620Y-825454D02*
G03I-355J0D01*
G01X23450Y-826494D02*
G03I-355J0D01*
G01X23550Y-826144D02*
G03I-355J0D01*
G01X18540Y-828684D02*
G03I-355J0D01*
G01X19570Y-828625D02*
G03I-355J0D01*
G01X20590Y-828454D02*
G03I-355J0D01*
G01X20550Y-819904D02*
G03I-355J0D01*
G01Y-820594D02*
G03I-355J0D01*
G01X23620Y-819904D02*
G03I-355J0D01*
G01Y-820594D02*
G03I-355J0D01*
G01X4020Y-816434D02*
G03I-355J0D01*
G01Y-815934D02*
G03I-355J0D01*
G01D02*
G03I-355J0D01*
G01Y-817125D02*
G03I-355J0D01*
G01Y-817814D02*
G03I-355J0D01*
G01Y-818514D02*
G03I-355J0D01*
G01Y-819204D02*
G03I-355J0D01*
G01X7320Y-816434D02*
G03I-355J0D01*
G01Y-815934D02*
G03I-355J0D01*
G01Y-817125D02*
G03I-355J0D01*
G01Y-817814D02*
G03I-355J0D01*
G01Y-818514D02*
G03I-355J0D01*
G01Y-819204D02*
G03I-355J0D01*
G01X3210Y-821125D02*
G03I-355J0D01*
G01X3420Y-821104D02*
G03I-355J0D01*
G01X3610Y-821024D02*
G03I-355J0D01*
G01X3630Y-822884D02*
G03I-355J0D01*
G01X3440Y-822804D02*
G03I-355J0D01*
G01X3240Y-822784D02*
G03I-355J0D01*
G01X3780Y-820894D02*
G03I-355J0D01*
G01X3990Y-823364D02*
G03I-355J0D01*
G01X3910Y-823174D02*
G03I-355J0D01*
G01X3790Y-823014D02*
G03I-355J0D01*
G01X3990Y-823375D02*
G03I-355J0D01*
G01X4020Y-823564D02*
G03I-355J0D01*
G01Y-824064D02*
G03I-355J0D01*
G01Y-824754D02*
G03I-355J0D01*
G01Y-825454D02*
G03I-355J0D01*
G01Y-826144D02*
G03I-355J0D01*
G01Y-826844D02*
G03I-355J0D01*
G01Y-827534D02*
G03I-355J0D01*
G01Y-828234D02*
G03I-355J0D01*
G01X7320Y-821284D02*
G03I-355J0D01*
G01Y-822675D02*
G03I-355J0D01*
G01Y-821984D02*
G03I-355J0D01*
G01Y-823375D02*
G03I-355J0D01*
G01Y-824064D02*
G03I-355J0D01*
G01Y-824754D02*
G03I-355J0D01*
G01Y-825454D02*
G03I-355J0D01*
G01Y-826144D02*
G03I-355J0D01*
G01Y-826844D02*
G03I-355J0D01*
G01Y-827534D02*
G03I-355J0D01*
G01Y-828234D02*
G03I-355J0D01*
G01X4020Y-828684D02*
G03I-355J0D01*
G01X7320D02*
G03I-355J0D01*
G01X4020Y-819904D02*
G03I-355J0D01*
G01X3910Y-820724D02*
G03I-355J0D01*
G01X3990Y-820534D02*
G03I-355J0D01*
G01X4020Y-820325D02*
G03I-355J0D01*
G01X3960Y-820594D02*
G03I-355J0D01*
G01X7320Y-819904D02*
G03I-355J0D01*
G01Y-820594D02*
G03I-355J0D01*
G01X11120Y-817444D02*
G03I-355J0D01*
G01X10840Y-817964D02*
G03I-355J0D01*
G01X10920Y-817814D02*
G03I-355J0D01*
G01X10630Y-819124D02*
G03I-355J0D01*
G01X10680Y-818534D02*
G03I-355J0D01*
G01X10630Y-819204D02*
G03I-355J0D01*
G01X10680Y-818514D02*
G03I-355J0D01*
G01X12020Y-816554D02*
G03I-355J0D01*
G01X11500Y-816994D02*
G03I-355J0D01*
G01X11390Y-817125D02*
G03I-355J0D01*
G01X12600Y-816204D02*
G03I-355J0D01*
G01X12230Y-816434D02*
G03I-355J0D01*
G01X13800Y-815734D02*
G03I-355J0D01*
G01X13230Y-815934D02*
G03I-355J0D01*
G01X13880Y-818254D02*
G03I-355J0D01*
G01X13740Y-818674D02*
G03I-355J0D01*
G01X13700Y-819124D02*
G03I-355J0D01*
G01Y-819204D02*
G03I-355J0D01*
G01X13790Y-818514D02*
G03I-355J0D01*
G01X14450Y-817584D02*
G03I-355J0D01*
G01X14120Y-817884D02*
G03I-355J0D01*
G01X14200Y-817814D02*
G03I-355J0D01*
G01X15360Y-817034D02*
G03I-355J0D01*
G01X14880Y-817264D02*
G03I-355J0D01*
G01X15170Y-817125D02*
G03I-355J0D01*
G01X16420Y-816874D02*
G03I-355J0D01*
G01X15880Y-816904D02*
G03I-355J0D01*
G01X17870Y-816874D02*
G03I-355J0D01*
G01X10630Y-821284D02*
G03I-355J0D01*
G01Y-822675D02*
G03I-355J0D01*
G01Y-821984D02*
G03I-355J0D01*
G01Y-823375D02*
G03I-355J0D01*
G01Y-824064D02*
G03I-355J0D01*
G01Y-825264D02*
G03I-355J0D01*
G01Y-824754D02*
G03I-355J0D01*
G01X10680Y-825814D02*
G03I-355J0D01*
G01X10650Y-825454D02*
G03I-355J0D01*
G01X11150Y-826804D02*
G03I-355J0D01*
G01X10860Y-826334D02*
G03I-355J0D01*
G01X11190Y-826844D02*
G03I-355J0D01*
G01X10800Y-826144D02*
G03I-355J0D01*
G01X12000Y-827634D02*
G03I-355J0D01*
G01X11540Y-827194D02*
G03I-355J0D01*
G01X11900Y-827534D02*
G03I-355J0D01*
G01X12530Y-827984D02*
G03I-355J0D01*
G01X13700Y-821284D02*
G03I-355J0D01*
G01Y-821984D02*
G03I-355J0D01*
G01Y-823375D02*
G03I-355J0D01*
G01Y-822675D02*
G03I-355J0D01*
G01Y-824064D02*
G03I-355J0D01*
G01Y-824794D02*
G03I-355J0D01*
G01Y-824754D02*
G03I-355J0D01*
G01X13760Y-825374D02*
G03I-355J0D01*
G01X13790Y-825454D02*
G03I-355J0D01*
G01X13109Y-828254D02*
G03I-355J0D01*
G01X13059Y-828234D02*
G03I-355J0D01*
G01X13950Y-825934D02*
G03I-355J0D01*
G01X14250Y-826444D02*
G03I-355J0D01*
G01X14720Y-826814D02*
G03I-355J0D01*
G01X14080Y-826144D02*
G03I-355J0D01*
G01X14780Y-826844D02*
G03I-355J0D01*
G01X13980Y-828514D02*
G03I-355J0D01*
G01X10630Y-819904D02*
G03I-355J0D01*
G01Y-820594D02*
G03I-355J0D01*
G01X13700Y-819904D02*
G03I-355J0D01*
G01Y-820594D02*
G03I-355J0D01*
G01X15250Y-827075D02*
G03I-355J0D01*
G01X15820Y-827234D02*
G03I-355J0D01*
G01X16420Y-827274D02*
G03I-355J0D01*
G01X14880Y-828654D02*
G03I-355J0D01*
G01X15790Y-828684D02*
G03I-355J0D01*
G01X18860Y-815464D02*
G03I-355J0D01*
G01X19660Y-815494D02*
G03I-355J0D01*
G01X20460Y-815634D02*
G03I-355J0D01*
G01X14040Y-815654D02*
G03I-355J0D01*
G01X14890Y-815494D02*
G03I-355J0D01*
G01X15750Y-815464D02*
G03I-355J0D01*
G01X27170Y-817114D02*
G03I-355J0D01*
G01X26950Y-817425D02*
G03I-355J0D01*
G01X27160Y-817125D02*
G03I-355J0D01*
G01X26800Y-817774D02*
G03I-355J0D01*
G01X26710Y-818154D02*
G03I-355J0D01*
G01X26690Y-818534D02*
G03I-355J0D01*
G01X26790Y-817814D02*
G03I-355J0D01*
G01X26690Y-818514D02*
G03I-355J0D01*
G01Y-819204D02*
G03I-355J0D01*
G01X28070Y-816234D02*
G03I-355J0D01*
G01X27580Y-816634D02*
G03I-355J0D01*
G01X27830Y-816434D02*
G03I-355J0D01*
G01X28620Y-815934D02*
G03I-355J0D01*
G01X26320Y-828234D02*
G03I-355J0D01*
G01X26730Y-821014D02*
G03I-355J0D01*
G01X26850Y-821475D02*
G03I-355J0D01*
G01X26800Y-821284D02*
G03I-355J0D01*
G01X27070Y-821894D02*
G03I-355J0D01*
G01X27360Y-822275D02*
G03I-355J0D01*
G01X27130Y-821984D02*
G03I-355J0D01*
G01X26960Y-827534D02*
G03I-355J0D01*
G01X27720Y-822584D02*
G03I-355J0D01*
G01X28320Y-822925D02*
G03I-355J0D01*
G01X27880Y-822675D02*
G03I-355J0D01*
G01X28220Y-826144D02*
G03I-355J0D01*
G01X27590Y-826844D02*
G03I-355J0D01*
G01X28980Y-823164D02*
G03I-355J0D01*
G01X28850Y-825454D02*
G03I-355J0D01*
G01X29490Y-824754D02*
G03I-355J0D01*
G01X25910Y-828684D02*
G03I-355J0D01*
G01X26690Y-819904D02*
G03I-355J0D01*
G01Y-820534D02*
G03I-355J0D01*
G01X26700Y-820594D02*
G03I-355J0D01*
G01X0Y0D02*
Y220000D01*
G01Y0D02*
X280000D01*
G01Y220000D02*
X0D01*
G01X23598Y696477D02*
Y746477D01*
G01X31180Y-833175D02*
G03I-355J0D01*
G01Y-834834D02*
G03I-355J0D01*
G01Y-836484D02*
G03I-355J0D01*
G01X33380Y-833254D02*
G03I-355J0D01*
G01X33480Y-836344D02*
G03I-355J0D01*
G01X33560Y-833344D02*
G03I-355J0D01*
G01X33710Y-833475D02*
G03I-355J0D01*
G01X33840Y-833625D02*
G03I-355J0D01*
G01X33930Y-833804D02*
G03I-355J0D01*
G01X33990Y-833994D02*
G03I-355J0D01*
G01X34010Y-834194D02*
G03I-355J0D01*
G01X34020D02*
G03I-355J0D01*
G01X34010Y-835425D02*
G03I-355J0D01*
G01X34020D02*
G03I-355J0D01*
G01Y-834834D02*
G03I-355J0D01*
G01D02*
G03I-355J0D01*
G01X33630Y-836234D02*
G03I-355J0D01*
G01X33760Y-836104D02*
G03I-355J0D01*
G01X33870Y-835954D02*
G03I-355J0D01*
G01X33950Y-835784D02*
G03I-355J0D01*
G01X33990Y-835604D02*
G03I-355J0D01*
G01X36140Y-833175D02*
G03I-355J0D01*
G01X36780Y-834844D02*
G03I-355J0D01*
G01X36630Y-834884D02*
G03I-355J0D01*
G01X36500Y-834954D02*
G03I-355J0D01*
G01X36370Y-835054D02*
G03I-355J0D01*
G01X36270Y-835184D02*
G03I-355J0D01*
G01X36200Y-835314D02*
G03I-355J0D01*
G01X36160Y-835464D02*
G03I-355J0D01*
G01X36140Y-835625D02*
G03I-355J0D01*
G01X36160Y-835794D02*
G03I-355J0D01*
G01X36210Y-835954D02*
G03I-355J0D01*
G01X36280Y-836104D02*
G03I-355J0D01*
G01X36390Y-836234D02*
G03I-355J0D01*
G01X36520Y-836344D02*
G03I-355J0D01*
G01X36670Y-836414D02*
G03I-355J0D01*
G01X36830Y-836464D02*
G03I-355J0D01*
G01X36940Y-834834D02*
G03I-355J0D01*
G01Y-834824D02*
G03I-355J0D01*
G01X37000Y-836484D02*
G03I-355J0D01*
G01X38560Y-834824D02*
G03I-355J0D01*
G01Y-834834D02*
G03I-355J0D01*
G01X38690Y-833175D02*
G03I-355J0D01*
G01X38860Y-833194D02*
G03I-355J0D01*
G01X39020Y-833254D02*
G03I-355J0D01*
G01X39160Y-833344D02*
G03I-355J0D01*
G01X39280Y-833464D02*
G03I-355J0D01*
G01X39370Y-833604D02*
G03I-355J0D01*
G01X39430Y-833764D02*
G03I-355J0D01*
G01X39450Y-833934D02*
G03I-355J0D01*
G01X39430Y-834104D02*
G03I-355J0D01*
G01X39380Y-834275D02*
G03I-355J0D01*
G01X39300Y-834425D02*
G03I-355J0D01*
G01X39190Y-834564D02*
G03I-355J0D01*
G01X39050Y-834674D02*
G03I-355J0D01*
G01X38900Y-834754D02*
G03I-355J0D01*
G01X38730Y-834804D02*
G03I-355J0D01*
G01X39450Y-836484D02*
G03I-355J0D01*
G01X32990Y-833175D02*
G03I-355J0D01*
G01X33190Y-833194D02*
G03I-355J0D01*
G01X32950Y-836484D02*
G03I-355J0D01*
G01X33130Y-836464D02*
G03I-355J0D01*
G01X33310Y-836424D02*
G03I-355J0D01*
G01X29540Y-815734D02*
G03I-355J0D01*
G01X29970Y-818034D02*
G03I-355J0D01*
G01X29760Y-818884D02*
G03I-355J0D01*
G01X29820Y-818444D02*
G03I-355J0D01*
G01X29810Y-818514D02*
G03I-355J0D01*
G01X29760Y-819204D02*
G03I-355J0D01*
G01X30510Y-817354D02*
G03I-355J0D01*
G01X30100Y-817814D02*
G03I-355J0D01*
G01X30200Y-817664D02*
G03I-355J0D01*
G01X31150Y-817064D02*
G03I-355J0D01*
G01X31020Y-817125D02*
G03I-355J0D01*
G01X31830Y-816904D02*
G03I-355J0D01*
G01X29930Y-820844D02*
G03I-355J0D01*
G01X29660Y-823284D02*
G03I-355J0D01*
G01X29960Y-828234D02*
G03I-355J0D01*
G01X30580Y-821614D02*
G03I-355J0D01*
G01X30120Y-821245D02*
G03I-355J0D01*
G01X30170Y-821284D02*
G03I-355J0D01*
G01X30360Y-823294D02*
G03I-355J0D01*
G01Y-823375D02*
G03I-355J0D01*
G01Y-823804D02*
G03I-355J0D01*
G01X30120Y-824064D02*
G03I-355J0D01*
G01X30550Y-827534D02*
G03I-355J0D01*
G01X31660Y-822034D02*
G03I-355J0D01*
G01X31100Y-821884D02*
G03I-355J0D01*
G01X31470Y-821984D02*
G03I-355J0D01*
G01X31740Y-826144D02*
G03I-355J0D01*
G01X31150Y-826844D02*
G03I-355J0D01*
G01X29570Y-828684D02*
G03I-355J0D01*
G01X29760Y-819984D02*
G03I-355J0D01*
G01Y-819904D02*
G03I-355J0D01*
G01X29810Y-820424D02*
G03I-355J0D01*
G01X29860Y-820594D02*
G03I-355J0D01*
G01X32520Y-816874D02*
G03I-355J0D01*
G01X35370D02*
G03I-355J0D01*
G01X35570Y-816904D02*
G03I-355J0D01*
G01X35750Y-816984D02*
G03I-355J0D01*
G01X35920Y-817104D02*
G03I-355J0D01*
G01X36040Y-817264D02*
G03I-355J0D01*
G01X35930Y-817125D02*
G03I-355J0D01*
G01X36120Y-817454D02*
G03I-355J0D01*
G01X36140Y-817654D02*
G03I-355J0D01*
G01Y-818514D02*
G03I-355J0D01*
G01Y-817814D02*
G03I-355J0D01*
G01Y-819204D02*
G03I-355J0D01*
G01X38110Y-815734D02*
G03I-355J0D01*
G01X39450Y-815934D02*
G03I-355J0D01*
G01D02*
G03I-355J0D01*
G01Y-816434D02*
G03I-355J0D01*
G01Y-817125D02*
G03I-355J0D01*
G01Y-817814D02*
G03I-355J0D01*
G01Y-819204D02*
G03I-355J0D01*
G01Y-818514D02*
G03I-355J0D01*
G01X32240Y-822075D02*
G03I-355J0D01*
G01X32340Y-825454D02*
G03I-355J0D01*
G01X34020Y-822075D02*
G03I-355J0D01*
G01Y-823494D02*
G03I-355J0D01*
G01Y-822675D02*
G03I-355J0D01*
G01Y-823375D02*
G03I-355J0D01*
G01X33530Y-824064D02*
G03I-355J0D01*
G01X36140Y-821284D02*
G03I-355J0D01*
G01Y-822675D02*
G03I-355J0D01*
G01Y-821984D02*
G03I-355J0D01*
G01Y-823375D02*
G03I-355J0D01*
G01Y-824064D02*
G03I-355J0D01*
G01Y-824754D02*
G03I-355J0D01*
G01Y-826144D02*
G03I-355J0D01*
G01Y-825454D02*
G03I-355J0D01*
G01Y-826844D02*
G03I-355J0D01*
G01Y-827534D02*
G03I-355J0D01*
G01Y-828234D02*
G03I-355J0D01*
G01X39450Y-821284D02*
G03I-355J0D01*
G01Y-821984D02*
G03I-355J0D01*
G01Y-823375D02*
G03I-355J0D01*
G01Y-822675D02*
G03I-355J0D01*
G01Y-824064D02*
G03I-355J0D01*
G01Y-824754D02*
G03I-355J0D01*
G01Y-825454D02*
G03I-355J0D01*
G01Y-826844D02*
G03I-355J0D01*
G01Y-826144D02*
G03I-355J0D01*
G01Y-827534D02*
G03I-355J0D01*
G01Y-828234D02*
G03I-355J0D01*
G01X32930Y-824754D02*
G03I-355J0D01*
G01X36140Y-828684D02*
G03I-355J0D01*
G01X39450D02*
G03I-355J0D01*
G01X36140Y-819904D02*
G03I-355J0D01*
G01Y-820594D02*
G03I-355J0D01*
G01X39450Y-819904D02*
G03I-355J0D01*
G01Y-820594D02*
G03I-355J0D01*
G01X30260Y-815584D02*
G03I-355J0D01*
G01X31930Y-815464D02*
G03I-355J0D01*
G01X34960D02*
G03I-355J0D01*
G01X37210Y-815604D02*
G03I-355J0D01*
G01X124848Y-73773D02*
X124182Y-74398D01*
X123432Y-74773D01*
X122765D01*
X122098Y-74398D01*
X121598Y-73773D01*
X121348Y-72898D01*
X121515Y-72023D01*
X121932Y-71273D01*
X122682Y-70773D01*
X123682Y-70523D01*
X124265Y-70023D01*
X124515Y-69148D01*
X124348Y-68273D01*
X123932Y-67648D01*
X123348Y-67273D01*
X122765D01*
X122182Y-67523D01*
X121682Y-68148D01*
G01X114932Y-74773D02*
X118265D01*
Y-67273D01*
X114932D01*
G01X116265Y-70898D02*
X118265D01*
G01X108265Y-67898D02*
X108765Y-67523D01*
X109348Y-67273D01*
X110015D01*
X110765Y-67648D01*
X111348Y-68273D01*
X111765Y-69023D01*
X112098Y-70273D01*
X112182Y-71398D01*
X112015Y-72523D01*
X111765Y-73273D01*
X111265Y-74023D01*
X110682Y-74523D01*
X110098Y-74773D01*
X109515D01*
X108932Y-74523D01*
X108432Y-74148D01*
X108015Y-73648D01*
G01X103598Y-74773D02*
X104265Y-74648D01*
X104848Y-74148D01*
X105348Y-73398D01*
X105682Y-72523D01*
X105848Y-71523D01*
Y-70523D01*
X105682Y-69523D01*
X105348Y-68648D01*
X104848Y-67898D01*
X104265Y-67398D01*
X103598Y-67273D01*
X102932Y-67398D01*
X102348Y-67898D01*
X101848Y-68648D01*
X101515Y-69523D01*
X101348Y-70523D01*
Y-71523D01*
X101515Y-72523D01*
X101848Y-73398D01*
X102348Y-74148D01*
X102932Y-74648D01*
X103598Y-74773D01*
G01X99015D02*
Y-67273D01*
X95182Y-74773D01*
Y-67273D01*
G01X92432Y-74773D02*
Y-67273D01*
X90765D01*
X90098Y-67648D01*
X89598Y-68148D01*
X89182Y-68898D01*
X88848Y-69773D01*
X88765Y-71023D01*
X88848Y-72273D01*
X89182Y-73148D01*
X89598Y-73898D01*
X90098Y-74398D01*
X90765Y-74773D01*
X92432D01*
G01X86182D02*
X84098Y-67273D01*
X82015Y-74773D01*
G01X82765Y-72148D02*
X85432D01*
G01X79265Y-74773D02*
Y-67273D01*
X77182D01*
X76515Y-67648D01*
X76098Y-68148D01*
X75932Y-69148D01*
X76098Y-70148D01*
X76598Y-70773D01*
X77182Y-71148D01*
X79265D01*
G01X77182D02*
X75932Y-74773D01*
G01X71098D02*
Y-71398D01*
X72765Y-67273D01*
G01X69432D02*
X71098Y-71398D01*
G01X65682Y-72273D02*
X63515D01*
G01X59848Y-73773D02*
X59182Y-74398D01*
X58432Y-74773D01*
X57765D01*
X57098Y-74398D01*
X56598Y-73773D01*
X56348Y-72898D01*
X56515Y-72023D01*
X56932Y-71273D01*
X57682Y-70773D01*
X58682Y-70523D01*
X59265Y-70023D01*
X59515Y-69148D01*
X59348Y-68273D01*
X58932Y-67648D01*
X58348Y-67273D01*
X57765D01*
X57182Y-67523D01*
X56682Y-68148D01*
G01X52598Y-67273D02*
X50598D01*
G01X51598D02*
Y-74773D01*
G01X52598D02*
X50598D01*
G01X46932D02*
Y-67273D01*
X45265D01*
X44598Y-67648D01*
X44098Y-68148D01*
X43682Y-68898D01*
X43348Y-69773D01*
X43265Y-71023D01*
X43348Y-72273D01*
X43682Y-73148D01*
X44098Y-73898D01*
X44598Y-74398D01*
X45265Y-74773D01*
X46932D01*
G01X36932D02*
X40265D01*
Y-67273D01*
X36932D01*
G01X38265Y-70898D02*
X40265D01*
G01X86182Y-62273D02*
X84098Y-54773D01*
X82015Y-62273D01*
G01X82765Y-59648D02*
X85432D01*
G01X79348Y-61273D02*
X78682Y-61898D01*
X77932Y-62273D01*
X77265D01*
X76598Y-61898D01*
X76098Y-61273D01*
X75848Y-60398D01*
X76015Y-59523D01*
X76432Y-58773D01*
X77182Y-58273D01*
X78182Y-58023D01*
X78765Y-57523D01*
X79015Y-56648D01*
X78848Y-55773D01*
X78432Y-55148D01*
X77848Y-54773D01*
X77265D01*
X76682Y-55023D01*
X76182Y-55648D01*
G01X72848Y-61273D02*
X72182Y-61898D01*
X71432Y-62273D01*
X70765D01*
X70098Y-61898D01*
X69598Y-61273D01*
X69348Y-60398D01*
X69515Y-59523D01*
X69932Y-58773D01*
X70682Y-58273D01*
X71682Y-58023D01*
X72265Y-57523D01*
X72515Y-56648D01*
X72348Y-55773D01*
X71932Y-55148D01*
X71348Y-54773D01*
X70765D01*
X70182Y-55023D01*
X69682Y-55648D01*
G01X62932Y-62273D02*
X66265D01*
Y-54773D01*
X62932D01*
G01X64265Y-58398D02*
X66265D01*
G01X60265Y-62273D02*
Y-54773D01*
X58098Y-61023D01*
X55932Y-54773D01*
Y-62273D01*
G01X50932Y-58273D02*
X50598Y-57898D01*
X50348Y-57273D01*
X50182Y-56398D01*
X50348Y-55648D01*
X50682Y-55148D01*
X51265Y-54773D01*
X53515D01*
Y-62273D01*
X50765D01*
X50182Y-61773D01*
X49848Y-61023D01*
X49682Y-60148D01*
X49848Y-59273D01*
X50348Y-58523D01*
X50932Y-58273D01*
X53515D01*
G01X46765Y-54773D02*
Y-62273D01*
X43432D01*
G01X38598D02*
Y-58898D01*
X40265Y-54773D01*
G01X36932D02*
X38598Y-58898D01*
G01X286118Y-908523D02*
X288008Y-911440D01*
X290528Y-913106D01*
X293364Y-913523D01*
X295884Y-913106D01*
X298404Y-911023D01*
X299978Y-908523D01*
X300293Y-906023D01*
X299663Y-903107D01*
X297458Y-901023D01*
X295253Y-900189D01*
X292418D01*
G01X295253D02*
X297143Y-898940D01*
X298719Y-896857D01*
X299348Y-894357D01*
X298719Y-891856D01*
X297143Y-889773D01*
X294308Y-888523D01*
X291473Y-888940D01*
X288638Y-890607D01*
G01X280000Y0D02*
Y220000D01*
G01X286118Y721477D02*
X288008Y718560D01*
X290528Y716894D01*
X293364Y716477D01*
X295884Y716894D01*
X298404Y718977D01*
X299978Y721477D01*
X300293Y723977D01*
X299663Y726893D01*
X297458Y728977D01*
X295253Y729811D01*
X292418D01*
G01X295253D02*
X297143Y731060D01*
X298719Y733143D01*
X299348Y735644D01*
X298719Y738144D01*
X297143Y740227D01*
X294308Y741477D01*
X291473Y741060D01*
X288638Y739393D01*
G01X563598Y-913523D02*
Y-863523D01*
G01Y696477D02*
Y746477D01*
G01X847063Y737311D02*
X848953Y739810D01*
X851158Y741060D01*
X853679Y741477D01*
X856828Y740644D01*
X859034Y738560D01*
X859663Y736061D01*
X859349Y733560D01*
X858088Y731477D01*
X851788Y727310D01*
X848953Y724394D01*
X847063Y720226D01*
X846433Y716477D01*
X859663D01*
G01X877063Y-892689D02*
X878953Y-890190D01*
X881158Y-888940D01*
X883679Y-888523D01*
X886828Y-889356D01*
X889034Y-891440D01*
X889663Y-893939D01*
X889348Y-896440D01*
X888088Y-898523D01*
X881788Y-902690D01*
X878953Y-905606D01*
X877063Y-909774D01*
X876433Y-913523D01*
X889663D01*
G01X983598Y696477D02*
Y604546D01*
G01Y636477D02*
X1633598D01*
G01X983598Y666477D02*
X1633598D01*
G01X994848Y646477D02*
Y656477D01*
X997973D01*
X998973Y655977D01*
X999599Y655310D01*
X999848Y653977D01*
X999599Y652644D01*
X998848Y651810D01*
X997973Y651310D01*
X994848D01*
G01X997973D02*
X999848Y646477D01*
G01X1009848D02*
X1004848D01*
Y656477D01*
X1009848D01*
G01X1007848Y651644D02*
X1004848D01*
G01X1014223Y656477D02*
X1017348Y646477D01*
X1020474Y656477D01*
G01X1033598Y666477D02*
Y604546D01*
G01X1123598Y-863523D02*
Y-913523D01*
G01X1633598Y696477D02*
Y-863523D01*
X1113598D01*
G01X1123598Y706477D02*
Y746477D01*
G01Y706477D02*
Y696477D01*
G01X1184598Y646477D02*
Y656477D01*
X1187098D01*
X1188098Y655977D01*
X1188848Y655310D01*
X1189474Y654311D01*
X1189973Y653144D01*
X1190098Y651477D01*
X1189973Y649810D01*
X1189474Y648644D01*
X1188848Y647644D01*
X1188098Y646977D01*
X1187098Y646477D01*
X1184598D01*
G01X1199848D02*
X1194848D01*
Y656477D01*
X1199848D01*
G01X1197848Y651644D02*
X1194848D01*
G01X1204723Y647810D02*
X1205723Y646977D01*
X1206848Y646477D01*
X1207848D01*
X1208848Y646977D01*
X1209598Y647810D01*
X1209973Y648977D01*
X1209724Y650144D01*
X1209098Y651144D01*
X1207973Y651810D01*
X1206474Y652144D01*
X1205598Y652810D01*
X1205223Y653977D01*
X1205474Y655144D01*
X1206098Y655977D01*
X1206973Y656477D01*
X1207848D01*
X1208723Y656144D01*
X1209474Y655310D01*
G01X1220098Y655644D02*
X1219348Y656144D01*
X1218474Y656477D01*
X1217474D01*
X1216348Y655977D01*
X1215474Y655144D01*
X1214848Y654144D01*
X1214348Y652477D01*
X1214223Y650977D01*
X1214473Y649477D01*
X1214848Y648477D01*
X1215598Y647477D01*
X1216474Y646810D01*
X1217348Y646477D01*
X1218223D01*
X1219098Y646810D01*
X1219848Y647310D01*
X1220474Y647977D01*
G01X1224848Y646477D02*
Y656477D01*
X1227973D01*
X1228973Y655977D01*
X1229599Y655310D01*
X1229848Y653977D01*
X1229599Y652644D01*
X1228848Y651810D01*
X1227973Y651310D01*
X1224848D01*
G01X1227973D02*
X1229848Y646477D01*
G01X1235848Y656477D02*
X1238848D01*
G01X1237348D02*
Y646477D01*
G01X1235848D02*
X1238848D01*
G01X1244848D02*
Y656477D01*
X1247848D01*
X1248848Y655977D01*
X1249598Y654810D01*
X1249848Y653477D01*
X1249598Y652144D01*
X1248973Y651144D01*
X1247848Y650644D01*
X1244848D01*
G01X1257348Y656477D02*
Y646477D01*
G01X1254473Y656477D02*
X1260223D01*
G01X1265848D02*
X1268848D01*
G01X1267348D02*
Y646477D01*
G01X1265848D02*
X1268848D01*
G01X1277348D02*
X1276348Y646644D01*
X1275474Y647310D01*
X1274723Y648310D01*
X1274223Y649477D01*
X1273973Y650810D01*
Y652144D01*
X1274223Y653477D01*
X1274723Y654644D01*
X1275474Y655644D01*
X1276348Y656310D01*
X1277348Y656477D01*
X1278348Y656310D01*
X1279223Y655644D01*
X1279973Y654644D01*
X1280474Y653477D01*
X1280724Y652144D01*
Y650810D01*
X1280474Y649477D01*
X1279973Y648310D01*
X1279223Y647310D01*
X1278348Y646644D01*
X1277348Y646477D01*
G01X1284473D02*
Y656477D01*
X1290223Y646477D01*
Y656477D01*
G01X1274848Y676477D02*
Y686477D01*
X1277973D01*
X1278973Y685977D01*
X1279599Y685310D01*
X1279848Y683977D01*
X1279599Y682644D01*
X1278848Y681810D01*
X1277973Y681310D01*
X1274848D01*
G01X1277973D02*
X1279848Y676477D01*
G01X1289848D02*
X1284848D01*
Y686477D01*
X1289848D01*
G01X1287848Y681644D02*
X1284848D01*
G01X1294223Y686477D02*
X1297348Y676477D01*
X1300474Y686477D01*
G01X1305848D02*
X1308848D01*
G01X1307348D02*
Y676477D01*
G01X1305848D02*
X1308848D01*
G01X1314723Y677810D02*
X1315723Y676977D01*
X1316848Y676477D01*
X1317848D01*
X1318848Y676977D01*
X1319598Y677810D01*
X1319973Y678977D01*
X1319724Y680144D01*
X1319098Y681144D01*
X1317973Y681810D01*
X1316474Y682144D01*
X1315598Y682810D01*
X1315223Y683977D01*
X1315474Y685144D01*
X1316098Y685977D01*
X1316973Y686477D01*
X1317848D01*
X1318723Y686144D01*
X1319474Y685310D01*
G01X1325848Y686477D02*
X1328848D01*
G01X1327348D02*
Y676477D01*
G01X1325848D02*
X1328848D01*
G01X1337348D02*
X1336348Y676644D01*
X1335474Y677310D01*
X1334723Y678310D01*
X1334223Y679477D01*
X1333973Y680810D01*
Y682144D01*
X1334223Y683477D01*
X1334723Y684644D01*
X1335474Y685644D01*
X1336348Y686310D01*
X1337348Y686477D01*
X1338348Y686310D01*
X1339223Y685644D01*
X1339973Y684644D01*
X1340474Y683477D01*
X1340724Y682144D01*
Y680810D01*
X1340474Y679477D01*
X1339973Y678310D01*
X1339223Y677310D01*
X1338348Y676644D01*
X1337348Y676477D01*
G01X1344473D02*
Y686477D01*
X1350223Y676477D01*
Y686477D01*
G01X1354723Y677810D02*
X1355723Y676977D01*
X1356848Y676477D01*
X1357848D01*
X1358848Y676977D01*
X1359598Y677810D01*
X1359973Y678977D01*
X1359724Y680144D01*
X1359098Y681144D01*
X1357973Y681810D01*
X1356474Y682144D01*
X1355598Y682810D01*
X1355223Y683977D01*
X1355474Y685144D01*
X1356098Y685977D01*
X1356973Y686477D01*
X1357848D01*
X1358723Y686144D01*
X1359474Y685310D01*
G01X1413598Y-913523D02*
Y-883523D01*
G01X1423598Y716477D02*
Y746477D01*
G01X1443598Y604546D02*
Y666477D01*
G01X1474598Y646477D02*
Y656477D01*
X1477098D01*
X1478098Y655977D01*
X1478848Y655310D01*
X1479474Y654311D01*
X1479973Y653144D01*
X1480098Y651477D01*
X1479973Y649810D01*
X1479474Y648644D01*
X1478848Y647644D01*
X1478098Y646977D01*
X1477098Y646477D01*
X1474598D01*
G01X1484223D02*
X1487348Y656477D01*
X1490474Y646477D01*
G01X1489348Y649977D02*
X1485348D01*
G01X1497348Y656477D02*
Y646477D01*
G01X1494473Y656477D02*
X1500223D01*
G01X1509848Y646477D02*
X1504848D01*
Y656477D01*
X1509848D01*
G01X1507848Y651644D02*
X1504848D01*
G01X1533598Y604546D02*
Y666477D01*
G01X1544223Y646477D02*
X1547348Y656477D01*
X1550474Y646477D01*
G01X1549348Y649977D02*
X1545348D01*
G01X1554848Y646477D02*
Y656477D01*
X1557848D01*
X1558848Y655977D01*
X1559598Y654810D01*
X1559848Y653477D01*
X1559598Y652144D01*
X1558973Y651144D01*
X1557848Y650644D01*
X1554848D01*
G01X1564848Y646477D02*
Y656477D01*
X1567848D01*
X1568848Y655977D01*
X1569598Y654810D01*
X1569848Y653477D01*
X1569598Y652144D01*
X1568973Y651144D01*
X1567848Y650644D01*
X1564848D01*
G01X1574848Y646477D02*
Y656477D01*
X1577973D01*
X1578973Y655977D01*
X1579599Y655310D01*
X1579848Y653977D01*
X1579599Y652644D01*
X1578848Y651810D01*
X1577973Y651310D01*
X1574848D01*
G01X1577973D02*
X1579848Y646477D01*
G01X1587348D02*
X1586348Y646644D01*
X1585474Y647310D01*
X1584723Y648310D01*
X1584223Y649477D01*
X1583973Y650810D01*
Y652144D01*
X1584223Y653477D01*
X1584723Y654644D01*
X1585474Y655644D01*
X1586348Y656310D01*
X1587348Y656477D01*
X1588348Y656310D01*
X1589223Y655644D01*
X1589973Y654644D01*
X1590474Y653477D01*
X1590724Y652144D01*
Y650810D01*
X1590474Y649477D01*
X1589973Y648310D01*
X1589223Y647310D01*
X1588348Y646644D01*
X1587348Y646477D01*
G01X1594223Y656477D02*
X1597348Y646477D01*
X1600474Y656477D01*
G01X1609848Y646477D02*
X1604848D01*
Y656477D01*
X1609848D01*
G01X1607848Y651644D02*
X1604848D01*
G01X1614598Y646477D02*
Y656477D01*
X1617098D01*
X1618098Y655977D01*
X1618848Y655310D01*
X1619474Y654311D01*
X1619973Y653144D01*
X1620098Y651477D01*
X1619973Y649810D01*
X1619474Y648644D01*
X1618848Y647644D01*
X1618098Y646977D01*
X1617098Y646477D01*
X1614598D01*
G01X1633598Y-503523D02*
X1663598D01*
G01X1633598Y-73523D02*
X1663598D01*
G01X1659978Y109393D02*
X1658088Y110644D01*
X1655884Y111477D01*
X1653364D01*
X1650528Y110227D01*
X1648324Y108144D01*
X1646748Y105644D01*
X1645488Y101477D01*
X1645173Y97727D01*
X1645804Y93977D01*
X1646748Y91477D01*
X1648638Y88977D01*
X1650844Y87310D01*
X1653048Y86477D01*
X1655253D01*
X1657458Y87310D01*
X1659348Y88560D01*
X1660924Y90226D01*
G01X1633598Y356477D02*
X1663598D01*
G01X1623598Y696477D02*
X1633598D01*
G01X1655173Y-693523D02*
X1663048Y-668523D01*
X1670924Y-693523D01*
G01X1668088Y-684773D02*
X1658008D01*
G01X1665568Y-310189D02*
X1666828Y-308940D01*
X1667773Y-306857D01*
X1668404Y-303939D01*
X1667773Y-301440D01*
X1666514Y-299773D01*
X1664308Y-298523D01*
X1655804D01*
Y-323523D01*
X1666199D01*
X1668404Y-321857D01*
X1669663Y-319356D01*
X1670293Y-316440D01*
X1669663Y-313524D01*
X1667773Y-311023D01*
X1665568Y-310189D01*
X1655804D01*
G01X1656118Y536477D02*
Y561477D01*
X1662418D01*
X1664938Y560227D01*
X1666828Y558560D01*
X1668404Y556061D01*
X1669663Y553143D01*
X1669978Y548977D01*
X1669663Y544810D01*
X1668404Y541893D01*
X1666828Y539393D01*
X1664938Y537727D01*
X1662418Y536477D01*
X1656118D01*
G54D11*
G01X-25805Y-833665D02*
X-25845Y-833815D01*
G01D02*
X-25865Y-833975D01*
G01D02*
X-25845Y-834144D01*
G01X-25065Y-833175D02*
X-25225Y-833194D01*
G01D02*
X-25375Y-833235D01*
G01D02*
X-25505Y-833304D01*
G01D02*
X-25635Y-833404D01*
G01D02*
X-25735Y-833535D01*
G01D02*
X-25805Y-833665D01*
G01X-25845Y-834144D02*
X-25795Y-834304D01*
G01D02*
X-25725Y-834454D01*
G01D02*
X-25615Y-834585D01*
G01D02*
X-25485Y-834694D01*
G01D02*
X-25335Y-834765D01*
G01D02*
X-25175Y-834815D01*
G01D02*
X-25005Y-834835D01*
G01D02*
X-24725D01*
G01X-25625Y-836485D02*
X-24725Y-834835D01*
G01X-22795Y-833175D02*
X-25065D01*
G01X-24725Y-834835D02*
X-22795D01*
G01Y-833175D02*
Y-834835D01*
G01D02*
Y-836485D01*
G01X-20665Y-834454D02*
X-20645Y-834235D01*
G01X-20665Y-835185D02*
Y-834454D01*
G01X-20645Y-835415D02*
X-20665Y-835185D01*
G01X-20645Y-834235D02*
X-20585Y-834015D01*
G01D02*
X-20495Y-833815D01*
G01D02*
X-20365Y-833635D01*
G01D02*
X-20205Y-833475D01*
G01D02*
X-20025Y-833344D01*
G01X-20015Y-836315D02*
X-20205Y-836185D01*
G01D02*
X-20365Y-836025D01*
G01D02*
X-20495Y-835835D01*
G01D02*
X-20585Y-835625D01*
G01D02*
X-20645Y-835415D01*
G01X-20025Y-833344D02*
X-19825Y-833254D01*
G01D02*
X-19605Y-833194D01*
G01D02*
X-19385Y-833175D01*
G01X-19365Y-836485D02*
X-19595Y-836465D01*
G01D02*
X-19805Y-836404D01*
G01D02*
X-20015Y-836315D01*
G01X-19385Y-833175D02*
X-18645D01*
G01D02*
X-18425Y-833194D01*
G01D02*
X-18205Y-833254D01*
G01X-18275Y-836424D02*
X-18475Y-836465D01*
G01D02*
X-18675Y-836485D01*
G01D02*
X-19365D01*
G01X-17655Y-833635D02*
X-17525Y-833815D01*
G01D02*
X-17435Y-834025D01*
G01D02*
X-17375Y-834244D01*
G01D02*
X-17355Y-834465D01*
G01X-17365D02*
Y-835175D01*
G01D02*
X-17385Y-835375D01*
G01D02*
X-17425Y-835575D01*
G01D02*
X-17505Y-835765D01*
G01D02*
X-17615Y-835944D01*
G01X-18205Y-833254D02*
X-18005Y-833344D01*
G01D02*
X-17815Y-833475D01*
G01D02*
X-17655Y-833635D01*
G01X-17615Y-835944D02*
X-17745Y-836104D01*
G01D02*
X-17905Y-836235D01*
G01D02*
X-18085Y-836344D01*
G01D02*
X-18275Y-836424D01*
G01X-15235Y-833175D02*
X-13815D01*
G01D02*
Y-836485D01*
G01X-12405Y-833175D02*
X-13815D01*
G01X-25865Y-818725D02*
X-25815Y-818174D01*
G01D02*
X-25655Y-817644D01*
G01D02*
X-25375Y-817165D01*
G01D02*
X-24995Y-816754D01*
G01D02*
X-24345Y-816274D01*
G01D02*
X-23615Y-815915D01*
G01D02*
X-22835Y-815694D01*
G01X-22675Y-817815D02*
X-25705D01*
G01X-25845Y-818515D02*
X-22795D01*
G01Y-819204D02*
X-25865D01*
G01X-25335Y-817125D02*
X-21375D01*
G01X-25865Y-821285D02*
X-22795D01*
G01Y-821985D02*
X-25865D01*
G01Y-822675D02*
X-22795D01*
G01Y-823375D02*
X-25865D01*
G01Y-824065D02*
X-22795D01*
G01Y-824754D02*
X-25865D01*
G01Y-825454D02*
X-22795D01*
G01Y-826144D02*
X-25865D01*
G01Y-826844D02*
X-22795D01*
G01Y-827535D02*
X-25865D01*
G01Y-828235D02*
X-22795D01*
G01Y-828685D02*
X-25865D01*
G01D02*
Y-818725D01*
G01Y-819904D02*
X-22795D01*
G01Y-820594D02*
X-25865D01*
G01X-11825Y-815735D02*
X-22975D01*
G01X-10275Y-816435D02*
X-24555D01*
G01X-22835Y-815694D02*
X-21675Y-815525D01*
G01X-22505Y-817554D02*
X-22665Y-817794D01*
G01D02*
X-22765Y-818074D01*
G01D02*
X-22795Y-818374D01*
G01X-21805Y-817185D02*
X-22285Y-817354D01*
G01D02*
X-22505Y-817554D01*
G01X-21295Y-817115D02*
X-21805Y-817185D01*
G01X-19965Y-817354D02*
X-20135Y-817224D01*
G01D02*
X-20325Y-817144D01*
G01D02*
X-20535Y-817115D01*
G01D02*
X-21295D01*
G01X-19835Y-817515D02*
X-19965Y-817354D01*
G01X-19725Y-817924D02*
X-19755Y-817715D01*
G01D02*
X-19835Y-817515D01*
G01X-16395Y-817704D02*
X-16415Y-817915D01*
G01X-16405Y-817815D02*
X-19735D01*
G01X-19725Y-818515D02*
X-16415D01*
G01Y-819204D02*
X-19725D01*
G01X-16185Y-817344D02*
X-16305Y-817515D01*
G01D02*
X-16395Y-817704D01*
G01X-19725Y-821285D02*
X-16415D01*
G01Y-821985D02*
X-19725D01*
G01Y-822675D02*
X-16415D01*
G01Y-823375D02*
X-19725D01*
G01Y-824065D02*
X-16415D01*
G01Y-824754D02*
X-19725D01*
G01Y-825454D02*
X-16415D01*
G01Y-826144D02*
X-19725D01*
G01Y-826844D02*
X-16415D01*
G01Y-827535D02*
X-19725D01*
G01Y-828235D02*
X-16415D01*
G01Y-828685D02*
X-19725D01*
G01X-22795Y-818374D02*
Y-828685D01*
G01X-19725D02*
Y-817924D01*
G01Y-819904D02*
X-16415D01*
G01Y-820594D02*
X-19725D01*
G01X-16415Y-817915D02*
Y-828685D01*
G01X-15615Y-817115D02*
X-15825Y-817144D01*
G01D02*
X-16015Y-817224D01*
G01D02*
X-16185Y-817344D01*
G01X-20455Y-817125D02*
X-15695D01*
G01X-13955Y-817144D02*
X-14175Y-817115D01*
G01D02*
X-15615D01*
G01X-13585Y-817354D02*
X-13765Y-817224D01*
G01D02*
X-13955Y-817144D01*
G01X-13345Y-817944D02*
X-13375Y-817724D01*
G01D02*
X-13455Y-817524D01*
G01D02*
X-13585Y-817354D01*
G01X-13215Y-815554D02*
X-10275Y-815935D01*
G01X-14095Y-817125D02*
X-10275D01*
G01Y-817815D02*
X-13365D01*
G01X-10275Y-819204D02*
X-13345D01*
G01Y-818515D02*
X-10275D01*
G01X-13345Y-828685D02*
Y-817944D01*
G01Y-821285D02*
X-10275D01*
G01Y-821985D02*
X-13345D01*
G01X-10275Y-823375D02*
X-13345D01*
G01Y-822675D02*
X-10275D01*
G01X-13345Y-824065D02*
X-10275D01*
G01Y-824754D02*
X-13345D01*
G01Y-825454D02*
X-10275D01*
G01X-13345Y-826844D02*
X-10275D01*
G01Y-826144D02*
X-13345D01*
G01X-10275Y-827535D02*
X-13345D01*
G01Y-828235D02*
X-10275D01*
G01Y-828685D02*
X-13345D01*
G01Y-819904D02*
X-10275D01*
G01Y-820594D02*
X-13345D01*
G01X-21675Y-815525D02*
X-20515Y-815465D01*
G01D02*
X-16185D01*
G01D02*
X-13215Y-815554D01*
G01X-5555Y-833175D02*
Y-835175D01*
G01X-5545D02*
X-5525Y-835404D01*
G01D02*
X-5465Y-835625D01*
G01D02*
X-5365Y-835824D01*
G01D02*
X-5235Y-836015D01*
G01D02*
X-5075Y-836175D01*
G01D02*
X-4895Y-836304D01*
G01D02*
X-4685Y-836404D01*
G01D02*
X-4465Y-836465D01*
G01D02*
X-4235Y-836485D01*
G01D02*
X-3715D01*
G01D02*
X-3495Y-836465D01*
G01D02*
X-3295Y-836415D01*
G01D02*
X-3095Y-836315D01*
G01D02*
X-2915Y-836194D01*
G01X-2485Y-835244D02*
Y-833175D01*
G01X-2915Y-836194D02*
X-2765Y-836044D01*
G01D02*
X-2645Y-835865D01*
G01D02*
X-2545Y-835665D01*
G01D02*
X-2495Y-835465D01*
G01D02*
X-2475Y-835244D01*
G01X525Y-833344D02*
X345Y-833475D01*
G01D02*
X185Y-833635D01*
G01D02*
X55Y-833815D01*
G01D02*
X-35Y-834025D01*
G01D02*
X-95Y-834244D01*
G01D02*
X-115Y-834465D01*
G01D02*
Y-835175D01*
G01D02*
X-95Y-835375D01*
G01D02*
X-55Y-835575D01*
G01D02*
X25Y-835765D01*
G01D02*
X135Y-835944D01*
G01D02*
X265Y-836104D01*
G01D02*
X425Y-836235D01*
G01X1175Y-833175D02*
X955Y-833194D01*
G01D02*
X735Y-833254D01*
G01D02*
X525Y-833344D01*
G01X425Y-836235D02*
X605Y-836344D01*
G01D02*
X795Y-836424D01*
G01D02*
X995Y-836465D01*
G01D02*
X1195Y-836485D01*
G01X-8715Y-833175D02*
X-10515D01*
G01Y-836485D02*
X-8745D01*
G01X-8045Y-833415D02*
X-8195Y-833315D01*
G01D02*
X-8355Y-833235D01*
G01D02*
X-8535Y-833194D01*
G01D02*
X-8715Y-833175D01*
G01X-8745Y-836485D02*
X-8555Y-836465D01*
G01D02*
X-8375Y-836424D01*
G01D02*
X-8205Y-836344D01*
G01D02*
X-8055Y-836235D01*
G01X-7735Y-833854D02*
X-7815Y-833694D01*
G01D02*
X-7915Y-833544D01*
G01D02*
X-8045Y-833415D01*
G01X-7675Y-834215D02*
X-7695Y-834035D01*
G01D02*
X-7735Y-833854D01*
G01X-7675Y-835415D02*
Y-834215D01*
G01X-8055Y-836235D02*
X-7925Y-836104D01*
G01D02*
X-7815Y-835944D01*
G01D02*
X-7735Y-835785D01*
G01D02*
X-7695Y-835604D01*
G01D02*
X-7675Y-835415D01*
G01X18375Y-833194D02*
X18165Y-833175D01*
G01D02*
X16415D01*
G01Y-836485D02*
X18165D01*
G01D02*
X18355Y-836465D01*
G01D02*
X18535Y-836415D01*
G01X18585Y-833254D02*
X18375Y-833194D01*
G01X18935Y-833494D02*
X18775Y-833354D01*
G01D02*
X18585Y-833254D01*
G01X19255Y-834265D02*
X19235Y-834054D01*
G01D02*
X19175Y-833844D01*
G01D02*
X19075Y-833654D01*
G01D02*
X18935Y-833494D01*
G01X19255Y-835394D02*
Y-834265D01*
G01X18535Y-836415D02*
X18715Y-836335D01*
G01D02*
X18865Y-836225D01*
G01D02*
X18995Y-836094D01*
G01D02*
X19105Y-835935D01*
G01D02*
X19185Y-835765D01*
G01D02*
X19235Y-835585D01*
G01D02*
X19255Y-835394D01*
G01X21855Y-833175D02*
Y-836485D01*
G01X24445D02*
Y-833175D01*
G01D02*
X24965D01*
G01D02*
X26375Y-836485D01*
G01X2955Y-833175D02*
X1175D01*
G01X1195Y-836485D02*
X2955D01*
G01D02*
Y-833175D01*
G01X5315D02*
Y-836485D01*
G01D02*
X5865D01*
G01D02*
X8145Y-833175D01*
G01D02*
X8625D01*
G01D02*
Y-836485D01*
G01X11285Y-833635D02*
X11445Y-833475D01*
G01D02*
X11635Y-833344D01*
G01X10985Y-834475D02*
X11005Y-834244D01*
G01D02*
X11065Y-834035D01*
G01D02*
X11155Y-833824D01*
G01D02*
X11285Y-833635D01*
G01X10985Y-835165D02*
Y-834475D01*
G01X11005Y-835375D02*
X10985Y-835165D01*
G01X11525Y-836235D02*
X11375Y-836094D01*
G01D02*
X11235Y-835944D01*
G01D02*
X11125Y-835765D01*
G01D02*
X11045Y-835575D01*
G01D02*
X11005Y-835375D01*
G01X11635Y-833344D02*
X11845Y-833254D01*
G01D02*
X12055Y-833194D01*
G01D02*
X12285Y-833175D01*
G01X12305Y-836485D02*
X12095Y-836465D01*
G01D02*
X11895Y-836424D01*
G01D02*
X11705Y-836344D01*
G01D02*
X11525Y-836235D01*
G01X12285Y-833175D02*
X13025D01*
G01D02*
X13245Y-833194D01*
G01X13445Y-836404D02*
X13225Y-836465D01*
G01D02*
X13005Y-836485D01*
G01D02*
X12305D01*
G01X13245Y-833194D02*
X13455Y-833254D01*
G01D02*
X13655Y-833344D01*
G01D02*
X13845Y-833475D01*
G01D02*
X13995Y-833625D01*
G01D02*
X14125Y-833804D01*
G01D02*
X14215Y-834015D01*
G01D02*
X14275Y-834224D01*
G01D02*
X14295Y-834444D01*
G01D02*
Y-835195D01*
G01D02*
X14275Y-835415D01*
G01D02*
X14215Y-835635D01*
G01D02*
X14125Y-835835D01*
G01D02*
X13995Y-836025D01*
G01D02*
X13835Y-836185D01*
G01D02*
X13655Y-836315D01*
G01D02*
X13445Y-836404D01*
G01X26375Y-836485D02*
X27915Y-833175D01*
G01D02*
X28465D01*
G01D02*
Y-836485D01*
G01X-6735Y-815935D02*
X-3425D01*
G01Y-816435D02*
X-6735D01*
G01Y-817125D02*
X-3425D01*
G01Y-817815D02*
X-6735D01*
G01X-3425Y-819204D02*
X-6735D01*
G01Y-818515D02*
X-3425D01*
G01X-3035Y-821024D02*
X-2845Y-821104D01*
G01X-2805Y-822815D02*
X-3015Y-822894D01*
G01D02*
X-3185Y-823025D01*
G01D02*
X-3315Y-823194D01*
G01D02*
X-3395Y-823394D01*
G01X-6735Y-823375D02*
X-3385D01*
G01X-3395Y-823394D02*
X-3425Y-823615D01*
G01Y-824065D02*
X-6735D01*
G01Y-824754D02*
X-3425D01*
G01Y-825454D02*
X-6735D01*
G01X-3425Y-826844D02*
X-6735D01*
G01Y-826144D02*
X-3425D01*
G01X-6735Y-827535D02*
X-3425D01*
G01Y-828235D02*
X-6735D01*
G01X-3425Y-823615D02*
Y-828685D01*
G01X-2845Y-821104D02*
X-2645Y-821125D01*
G01X-2595Y-822785D02*
X-2805Y-822815D01*
G01X-2645Y-821125D02*
X2855D01*
G01X2885Y-822785D02*
X-2595D01*
G01X6965Y-821285D02*
X-6735D01*
G01Y-821985D02*
X6965D01*
G01Y-822675D02*
X-6735D01*
G01X-3425Y-828685D02*
X-6735D01*
G01Y-819904D02*
X-3425D01*
G01Y-815935D02*
Y-820344D01*
G01D02*
X-3395Y-820544D01*
G01D02*
X-3315Y-820735D01*
G01X-3375Y-820594D02*
X-6735D01*
G01X-3315Y-820735D02*
X-3195Y-820904D01*
G01D02*
X-3035Y-821024D01*
G01X-10275Y-815935D02*
Y-828685D01*
G01X-6735D02*
Y-815935D01*
G01X18085Y-816915D02*
X17515Y-816874D01*
G01X19135Y-817335D02*
X18635Y-817065D01*
G01D02*
X18085Y-816915D01*
G01X19305Y-815494D02*
X20105Y-815635D01*
G01X19565Y-817704D02*
X19135Y-817335D01*
G01X19835Y-818015D02*
X19565Y-817704D01*
G01X20195Y-819165D02*
X20155Y-818754D01*
G01D02*
X20035Y-818365D01*
G01D02*
X19835Y-818015D01*
G01X13445Y-815735D02*
X20395D01*
G01X20105Y-815635D02*
X20865Y-815894D01*
G01D02*
X21575Y-816285D01*
G01X21755Y-816435D02*
X11875D01*
G01X21575Y-816285D02*
X22205Y-816794D01*
G01D02*
X22575Y-817104D01*
G01X18735Y-817125D02*
X22585D01*
G01X22575Y-817104D02*
X22865Y-817485D01*
G01X23095Y-817904D02*
X23225Y-818365D01*
G01X22865Y-817485D02*
X23095Y-817904D01*
G01X23045Y-817815D02*
X19665D01*
G01X23225Y-818365D02*
X23265Y-818844D01*
G01X20085Y-818515D02*
X23235D01*
G01X23265Y-819204D02*
X20195D01*
G01X16065Y-827274D02*
X17675D01*
G01D02*
X18155Y-827225D01*
G01X18625Y-827075D02*
X19045Y-826844D01*
G01X18155Y-827225D02*
X18625Y-827075D01*
G01X20195Y-824794D02*
Y-821604D01*
G01X20015Y-825754D02*
X20165Y-825285D01*
G01D02*
X20195Y-824794D01*
G01X19045Y-826844D02*
X19405Y-826524D01*
G01D02*
X19755Y-826175D01*
G01D02*
X20015Y-825754D01*
G01X20915Y-828254D02*
X20235Y-828454D01*
G01X20975Y-828235D02*
X12705D01*
G01X21565Y-827965D02*
X20915Y-828254D01*
G01X19035Y-826844D02*
X22915D01*
G01X22555Y-827294D02*
X22165Y-827585D01*
G01D02*
X21565Y-827965D01*
G01X22235Y-827535D02*
X11545D01*
G01X23265Y-821604D02*
X20195D01*
G01D02*
X23265D01*
G01X20195Y-821285D02*
X23265D01*
G01Y-821985D02*
X20195D01*
G01Y-822675D02*
X23265D01*
G01Y-823375D02*
X20195D01*
G01Y-824065D02*
X23265D01*
G01Y-824754D02*
X20195D01*
G01X23265Y-821604D02*
Y-825535D01*
G01D02*
X23235Y-826025D01*
G01X20105Y-825454D02*
X23265D01*
G01X23235Y-826025D02*
X23095Y-826494D01*
G01D02*
X22865Y-826925D01*
G01D02*
X22555Y-827294D01*
G01X23195Y-826144D02*
X19775D01*
G01X18185Y-828685D02*
X15435D01*
G01X19215Y-828625D02*
X18185Y-828685D01*
G01X20235Y-828454D02*
X19215Y-828625D01*
G01X20195Y-821604D02*
Y-819165D01*
G01Y-819904D02*
X23265D01*
G01Y-820594D02*
X20195D01*
G01X23265Y-818844D02*
Y-821604D01*
G01X6965Y-816435D02*
X3665D01*
G01Y-815935D02*
X6965D01*
G01X3665Y-817125D02*
X6965D01*
G01Y-817815D02*
X3665D01*
G01Y-818515D02*
X6965D01*
G01Y-819204D02*
X3665D01*
G01X2855Y-821125D02*
X3065Y-821104D01*
G01X3085Y-822804D02*
X2885Y-822785D01*
G01X3065Y-821104D02*
X3255Y-821024D01*
G01X3275Y-822885D02*
X3085Y-822804D01*
G01X3635Y-823365D02*
X3555Y-823174D01*
G01D02*
X3435Y-823015D01*
G01D02*
X3275Y-822885D01*
G01X3665Y-823565D02*
X3635Y-823365D01*
G01X3665Y-828685D02*
Y-823565D01*
G01X3635Y-823375D02*
X6965D01*
G01Y-824065D02*
X3665D01*
G01Y-824754D02*
X6965D01*
G01Y-825454D02*
X3665D01*
G01Y-826144D02*
X6965D01*
G01Y-826844D02*
X3665D01*
G01Y-827535D02*
X6965D01*
G01Y-828235D02*
X3665D01*
G01X6965Y-828685D02*
X3665D01*
G01X3255Y-821024D02*
X3425Y-820894D01*
G01D02*
X3555Y-820724D01*
G01D02*
X3635Y-820535D01*
G01D02*
X3665Y-820325D01*
G01D02*
Y-815935D01*
G01Y-819904D02*
X6965D01*
G01Y-820594D02*
X3605D01*
G01X6965Y-815935D02*
Y-828685D01*
G01X10485Y-817965D02*
X10765Y-817444D01*
G01X10275Y-819124D02*
X10325Y-818535D01*
G01D02*
X10485Y-817965D01*
G01X10765Y-817444D02*
X11145Y-816994D01*
G01D02*
X11665Y-816554D01*
G01D02*
X12245Y-816204D01*
G01D02*
X12875Y-815935D01*
G01X13385Y-818674D02*
X13345Y-819124D01*
G01Y-819204D02*
X10275D01*
G01X10325Y-818515D02*
X13435D01*
G01X12875Y-815935D02*
X13685Y-815654D01*
G01X14095Y-817585D02*
X13765Y-817885D01*
G01D02*
X13525Y-818254D01*
G01D02*
X13385Y-818674D01*
G01X13845Y-817815D02*
X10565D01*
G01X13685Y-815654D02*
X14535Y-815494D01*
G01X15005Y-817035D02*
X14525Y-817265D01*
G01D02*
X14095Y-817585D01*
G01X11035Y-817125D02*
X14815D01*
G01X16065Y-816874D02*
X15525Y-816904D01*
G01D02*
X15005Y-817035D01*
G01X17515Y-816874D02*
X16065D01*
G01X10325Y-825815D02*
X10275Y-825265D01*
G01X10505Y-826335D02*
X10325Y-825815D01*
G01X10795Y-826804D02*
X10505Y-826335D01*
G01X11645Y-827635D02*
X11185Y-827194D01*
G01D02*
X10795Y-826804D01*
G01X12175Y-827985D02*
X11645Y-827635D01*
G01X10275Y-821285D02*
X13345D01*
G01Y-821985D02*
X10275D01*
G01X13345Y-823375D02*
X10275D01*
G01Y-822675D02*
X13345D01*
G01X10275Y-824065D02*
X13345D01*
G01Y-824754D02*
X10275D01*
G01X13345Y-824794D02*
X13405Y-825374D01*
G01X10295Y-825454D02*
X13435D01*
G01X12755Y-828254D02*
X12175Y-827985D01*
G01X13405Y-825374D02*
X13595Y-825935D01*
G01D02*
X13895Y-826444D01*
G01X13725Y-826144D02*
X10445D01*
G01X13625Y-828515D02*
X12755Y-828254D01*
G01X10835Y-826844D02*
X14425D01*
G01X10275Y-825265D02*
Y-819124D01*
G01Y-819904D02*
X13345D01*
G01Y-820594D02*
X10275D01*
G01X13345Y-819124D02*
Y-824794D01*
G01X13895Y-826444D02*
X14365Y-826815D01*
G01D02*
X14895Y-827075D01*
G01D02*
X15465Y-827235D01*
G01D02*
X16065Y-827274D01*
G01X14525Y-828654D02*
X13625Y-828515D01*
G01X15435Y-828685D02*
X14525Y-828654D01*
G01X15395Y-815465D02*
X18505D01*
G01D02*
X19305Y-815494D01*
G01X14535D02*
X15395Y-815465D01*
G01X26815Y-817115D02*
X26595Y-817425D01*
G01D02*
X26445Y-817774D01*
G01D02*
X26355Y-818154D01*
G01D02*
X26335Y-818535D01*
G01X27715Y-816235D02*
X27225Y-816635D01*
G01D02*
X26815Y-817115D01*
G01X28265Y-815935D02*
X27715Y-816235D01*
G01X26335Y-818515D02*
X29455D01*
G01X29405Y-819204D02*
X26335D01*
G01X29905Y-815585D02*
X28265Y-815935D01*
G01X29745Y-817815D02*
X26435D01*
G01X26805Y-817125D02*
X30665D01*
G01X26375Y-821015D02*
X26495Y-821475D01*
G01D02*
X26715Y-821894D01*
G01D02*
X27005Y-822275D01*
G01D02*
X27365Y-822585D01*
G01D02*
X27965Y-822925D01*
G01D02*
X28625Y-823165D01*
G01D02*
X29305Y-823285D01*
G01X25965Y-828235D02*
X29605D01*
G01X26445Y-821285D02*
X29815D01*
G01X30195Y-827535D02*
X26605D01*
G01X31115Y-821985D02*
X26775D01*
G01X31385Y-826144D02*
X27865D01*
G01X27235Y-826844D02*
X30795D01*
G01X25555Y-828685D02*
X29215D01*
G01X26335Y-818535D02*
Y-820535D01*
G01D02*
X26375Y-821015D01*
G01X26335Y-819904D02*
X29405D01*
G01X29505Y-820594D02*
X26345D01*
G01X30005Y-823804D02*
X25555Y-828685D01*
G01X39095Y-816435D02*
X27475D01*
G01X28495Y-825454D02*
X31985D01*
G01X27525Y-822675D02*
X33665D01*
G01X32575Y-824754D02*
X29135D01*
G01X29215Y-828685D02*
X33665Y-823494D01*
G01X32835Y-833194D02*
X33025Y-833254D01*
G01X32775Y-836465D02*
X32955Y-836424D01*
G01X33025Y-833254D02*
X33205Y-833344D01*
G01D02*
X33355Y-833475D01*
G01D02*
X33485Y-833625D01*
G01D02*
X33575Y-833804D01*
G01D02*
X33635Y-833994D01*
G01D02*
X33655Y-834194D01*
G01X33665Y-835425D02*
Y-834835D01*
G01D02*
X30825D01*
G01X33665Y-834194D02*
Y-834835D01*
G01X32955Y-836424D02*
X33125Y-836344D01*
G01D02*
X33275Y-836235D01*
G01D02*
X33405Y-836104D01*
G01D02*
X33515Y-835954D01*
G01D02*
X33595Y-835785D01*
G01D02*
X33635Y-835604D01*
G01D02*
X33655Y-835425D01*
G01X36425Y-834844D02*
X36275Y-834885D01*
G01D02*
X36145Y-834954D01*
G01D02*
X36015Y-835054D01*
G01D02*
X35915Y-835185D01*
G01D02*
X35845Y-835315D01*
G01D02*
X35805Y-835465D01*
G01D02*
X35785Y-835625D01*
G01D02*
X35805Y-835794D01*
G01D02*
X35855Y-835954D01*
G01D02*
X35925Y-836104D01*
G01D02*
X36035Y-836235D01*
G01D02*
X36165Y-836344D01*
G01D02*
X36315Y-836415D01*
G01D02*
X36475Y-836465D01*
G01X36585Y-834824D02*
X36425Y-834844D01*
G01X36475Y-836465D02*
X36645Y-836485D01*
G01X38205Y-834835D02*
X36585D01*
G01X35785Y-833175D02*
X38335D01*
G01D02*
X38505Y-833194D01*
G01D02*
X38665Y-833254D01*
G01D02*
X38805Y-833344D01*
G01D02*
X38925Y-833465D01*
G01X38945Y-834425D02*
X38835Y-834565D01*
G01D02*
X38695Y-834674D01*
G01D02*
X38545Y-834754D01*
G01D02*
X38375Y-834804D01*
G01D02*
X38205Y-834824D01*
G01X36645Y-836485D02*
X39095D01*
G01X38925Y-833465D02*
X39015Y-833604D01*
G01D02*
X39075Y-833765D01*
G01X39095Y-833935D02*
X39075Y-834104D01*
G01D02*
X39025Y-834275D01*
G01X39075Y-833765D02*
X39095Y-833935D01*
G01X39025Y-834275D02*
X38945Y-834425D01*
G01X30825Y-833175D02*
X32635D01*
G01D02*
X32835Y-833194D01*
G01X30825Y-836485D02*
X32595D01*
G01D02*
X32775Y-836465D01*
G01X29405Y-818885D02*
X29465Y-818444D01*
G01D02*
X29615Y-818035D01*
G01D02*
X29845Y-817665D01*
G01D02*
X30155Y-817354D01*
G01D02*
X30795Y-817065D01*
G01D02*
X31475Y-816904D01*
G01X30225Y-821615D02*
X29765Y-821245D01*
G01X29305Y-823285D02*
X30005Y-823294D01*
G01D02*
Y-823804D01*
G01X31305Y-822035D02*
X30745Y-821885D01*
G01D02*
X30225Y-821615D01*
G01X29405Y-819985D02*
Y-818885D01*
G01X29575Y-820844D02*
X29455Y-820424D01*
G01D02*
X29405Y-819985D01*
G01X29765Y-821245D02*
X29575Y-820844D01*
G01X31475Y-816904D02*
X32165Y-816874D01*
G01D02*
X35015D01*
G01D02*
X35215Y-816904D01*
G01D02*
X35395Y-816985D01*
G01D02*
X35565Y-817104D01*
G01D02*
X35685Y-817265D01*
G01D02*
X35765Y-817454D01*
G01D02*
X35785Y-817654D01*
G01X37755Y-815735D02*
X29185D01*
G01X35575Y-817125D02*
X39095D01*
G01Y-817815D02*
X35785D01*
G01X39095Y-819204D02*
X35785D01*
G01Y-818515D02*
X39095D01*
G01Y-815935D02*
X36855Y-815604D01*
G01X31885Y-822075D02*
X31305Y-822035D01*
G01X33665Y-822075D02*
X31885D01*
G01X33665Y-823494D02*
Y-822075D01*
G01Y-823375D02*
X30005D01*
G01X29765Y-824065D02*
X33175D01*
G01X35785Y-821285D02*
X39095D01*
G01Y-821985D02*
X35785D01*
G01X39095Y-823375D02*
X35785D01*
G01Y-822675D02*
X39095D01*
G01X35785Y-824065D02*
X39095D01*
G01Y-824754D02*
X35785D01*
G01Y-825454D02*
X39095D01*
G01X35785Y-826844D02*
X39095D01*
G01Y-826144D02*
X35785D01*
G01X39095Y-827535D02*
X35785D01*
G01Y-828235D02*
X39095D01*
G01X35785Y-828685D02*
X39095D01*
G01X35785Y-817654D02*
Y-828685D01*
G01Y-819904D02*
X39095D01*
G01Y-820594D02*
X35785D01*
G01X39095Y-828685D02*
Y-815935D01*
G01X31575Y-815465D02*
X29905Y-815585D01*
G01X34605Y-815465D02*
X31575D01*
G01X36855Y-815604D02*
X34605Y-815465D01*
M02*
