G04 ================== begin FILE IDENTIFICATION RECORD ==================*
G04 Layout Name:  D:/gerber/SENSORSHLD1-EVK-101_BRD_REV01_2016-03-24.brd*
G04 Film Name:    L01_TOP*
G04 File Format:  Gerber RS274X*
G04 File Origin:  Cadence Allegro 16.5-S058*
G04 Origin Date:  Thu Mar 24 10:19:38 2016*
G04 *
G04 Layer:  VIA CLASS/TOP*
G04 Layer:  PIN/TOP*
G04 Layer:  ETCH/TOP*
G04 Layer:  DRAWING FORMAT/TOP*
G04 Layer:  BOARD GEOMETRY/OUTLINE*
G04 Layer:  BOARD GEOMETRY/LOGO*
G04 *
G04 Offset:    (0.000 0.000)*
G04 Mirror:    No*
G04 Mode:      Positive*
G04 Rotation:  0*
G04 FullContactRelief:  No*
G04 UndefLineWidth:     5.000*
G04 ================== end FILE IDENTIFICATION RECORD ====================*
%FSLAX55Y55*MOIN*%
%IR0*IPPOS*OFA0.00000B0.00000*MIA0B0*SFA1.00000B1.00000*%
%ADD25R,.009X.013*%
%ADD26R,.013X.009*%
%ADD11C,.155*%
%AMMACRO37*
4,1,5,.0125,.007,
-.004264,.007,
-.0125,-.001236,
-.0125,-.007,
.0125,-.007,
.0125,.007,
0.0*
%
%ADD37MACRO37*%
%AMMACRO41*
4,1,5,.007,-.0125,
.007,.004264,
-.001236,.0125,
-.007,.0125,
-.007,-.0125,
.007,-.0125,
0.0*
%
%ADD41MACRO41*%
%AMMACRO40*
4,1,5,.0125,-.007,
-.004264,-.007,
-.0125,.001236,
-.0125,.007,
.0125,.007,
.0125,-.007,
0.0*
%
%ADD40MACRO40*%
%AMMACRO42*
4,1,5,-.007,-.0125,
-.007,.004264,
.001236,.0125,
.007,.0125,
.007,-.0125,
-.007,-.0125,
0.0*
%
%ADD42MACRO42*%
%ADD18R,.011X.01*%
%ADD19R,.01X.011*%
%ADD32R,.03X.011*%
%ADD20R,.02X.021*%
%ADD22R,.021X.02*%
%ADD47R,.01X.014*%
%ADD23R,.03X.032*%
%ADD15R,.024X.02*%
%ADD10R,.032X.03*%
%ADD33R,.03X.06*%
%ADD14R,.03X.032*%
%ADD35R,.012X.016*%
%ADD36R,.042X.014*%
%ADD34R,.016X.012*%
%ADD30R,.024X.04*%
%ADD44R,.025X.014*%
%ADD39R,.014X.025*%
%ADD16R,.047X.011*%
%AMMACRO27*
21,1,.011,.036,0.0,0.0,45.*
1,1,.036,.003889,.003889*
1,1,.036,-.003889,-.003889*%
%ADD27MACRO27*%
%ADD17C,.06*%
%ADD13C,.024*%
%AMMACRO45*
4,1,5,-.007,.0125,
-.007,-.004264,
.001236,-.0125,
.007,-.0125,
.007,.0125,
-.007,.0125,
0.0*
%
%ADD45MACRO45*%
%AMMACRO43*
4,1,5,-.0125,-.007,
.004264,-.007,
.0125,.001236,
.0125,.007,
-.0125,.007,
-.0125,-.007,
0.0*
%
%ADD43MACRO43*%
%ADD28C,.036*%
%ADD29R,.021X.021*%
%ADD24R,.014X.014*%
%ADD21R,.06X.06*%
%ADD31R,.028X.028*%
%ADD12C,.03937*%
%AMMACRO46*
4,1,5,-.0125,.007,
.004264,.007,
.0125,-.001236,
.0125,-.007,
-.0125,-.007,
-.0125,.007,
0.0*
%
%ADD46MACRO46*%
%AMMACRO38*
4,1,5,.007,.0125,
.007,-.004264,
-.001236,-.0125,
-.007,-.0125,
-.007,.0125,
.007,.0125,
0.0*
%
%ADD38MACRO38*%
%AMMACRO48*
4,1,12,-.005,-.0305,
-.005,-.0155,
-.014,-.0105,
-.014,.0055,
-.005,.0105,
-.005,.0305,
.005,.0305,
.005,.0105,
.014,.0055,
.014,-.0105,
.005,-.0155,
.005,-.0305,
-.005,-.0305,
0.0*
%
%ADD48MACRO48*%
%ADD49C,.005*%
%ADD50C,.006*%
%ADD51C,.009*%
%ADD52C,.007098*%
%ADD53C,.01*%
%ADD54C,.02*%
%ADD55C,.012*%
%ADD56C,.015*%
%ADD63C,.171004*%
%ADD61R,.024004X.028004*%
%ADD59C,.070004*%
%ADD62R,.038004X.054004*%
%ADD60C,.076004*%
%ADD58R,.076004X.076004*%
%ADD57C,.053374*%
G75*
%LPD*%
G75*
G36*
G01X15065Y2000D02*
G02X14785Y2914I0J500D01*
G03X2914Y14785I-4785J7086D01*
G02X2000Y15065I-414J280D01*
G01Y218000D01*
X262535D01*
G02X262815Y217086I0J-500D01*
G03X272385I4785J-7086D01*
G02X272665Y218000I280J414D01*
G01X278000D01*
Y2000D01*
X272665D01*
G02X272385Y2914I0J500D01*
G03X262815I-4785J7086D01*
G02X262535Y2000I-280J-414D01*
G01X15065D01*
G37*
%LPC*%
G75*
G36*
G01X81932Y174020D02*
G02X78068I-1932J-520D01*
G03X77700Y174637I-483J130D01*
G01Y179050D01*
X78400D01*
Y179950D01*
X77700D01*
Y184350D01*
X79050D01*
Y196394D01*
X80726Y198070D01*
G02X87137Y202145I3274J1930D01*
G03X88050Y202427I413J282D01*
G01Y204606D01*
X85933Y206723D01*
X85770Y206637D01*
G02X87363Y208230I-1770J3363D01*
G01X87277Y208067D01*
X89950Y205394D01*
Y202427D01*
G03X90863Y202145I500J0D01*
G02X97137I3137J-2145D01*
G03X98050Y202427I413J282D01*
G01Y205394D01*
X100200Y207544D01*
Y213800D01*
X107800D01*
Y206200D01*
X101544D01*
X99950Y204606D01*
Y203800D01*
X107800D01*
Y196200D01*
X104950D01*
Y194894D01*
X110950Y188894D01*
Y184350D01*
X112300D01*
Y183100D01*
X115200D01*
Y184350D01*
X119800D01*
Y179950D01*
X119100D01*
Y179050D01*
X119800D01*
Y174637D01*
G03X119432Y174020I114J-487D01*
G02X116177Y172000I-1931J-520D01*
G01X111323D01*
G02X108068Y174020I-1323J1500D01*
G03X107700Y174637I-483J130D01*
G01Y179050D01*
X108400D01*
Y179950D01*
X107700D01*
Y184350D01*
X109050D01*
Y188106D01*
X103050Y194106D01*
Y196200D01*
X99950D01*
Y189894D01*
X103450Y186394D01*
Y184350D01*
X104800D01*
Y179950D01*
X104100D01*
Y179050D01*
X104800D01*
Y174637D01*
G03X104432Y174020I114J-487D01*
G02X100568I-1932J-520D01*
G03X100200Y174637I-483J130D01*
G01Y179050D01*
X100900D01*
Y179950D01*
X100200D01*
Y184350D01*
X101550D01*
Y185606D01*
X98050Y189106D01*
Y197573D01*
G03X97137Y197855I-500J0D01*
G02X95126Y196370I-3137J2145D01*
G01X94950Y196316D01*
Y189894D01*
X95950Y188894D01*
Y184350D01*
X97300D01*
Y179950D01*
X96600D01*
Y179050D01*
X97300D01*
Y174637D01*
G03X96932Y174020I114J-487D01*
G02X93068I-1931J-520D01*
G03X92700Y174637I-483J130D01*
G01Y179050D01*
X93400D01*
Y179950D01*
X92700D01*
Y184350D01*
X94050D01*
Y188106D01*
X93050Y189106D01*
Y196316D01*
X92874Y196370D01*
G02X90863Y197855I1126J3630D01*
G03X89950Y197573I-413J-282D01*
G01Y189106D01*
X88450Y187606D01*
Y184350D01*
X89800D01*
Y179950D01*
X89100D01*
Y179050D01*
X89800D01*
Y174637D01*
G03X89432Y174020I114J-487D01*
G02X85568I-1932J-520D01*
G03X85200Y174637I-483J130D01*
G01Y179050D01*
X85900D01*
Y179950D01*
X85200D01*
Y184350D01*
X86550D01*
Y188394D01*
X88050Y189894D01*
Y197573D01*
G03X87137Y197855I-500J0D01*
G02X82230Y196637I-3137J2145D01*
G01X82067Y196723D01*
X80950Y195606D01*
Y184350D01*
X82300D01*
Y179950D01*
X81600D01*
Y179050D01*
X82300D01*
Y174637D01*
G03X81932Y174020I114J-487D01*
G37*
G36*
G01X25550Y53700D02*
X21150D01*
Y58300D01*
X21450D01*
Y59400D01*
X19850D01*
Y62600D01*
X21450D01*
Y63300D01*
X25850D01*
Y61950D01*
X31464D01*
Y63078D01*
X29040D01*
Y63278D01*
X28078D01*
X19150Y72206D01*
Y84194D01*
X20469Y85513D01*
X21137D01*
Y91719D01*
X26662D01*
X26718Y91748D01*
G02X27400Y91919I682J-1279D01*
G01X30132D01*
X34550Y87501D01*
Y86501D01*
X35158Y85892D01*
G03X36010Y86197I354J354D01*
G02X36800Y87600I1990J-197D01*
G03Y88400I-300J400D01*
G02X39010Y91726I1200J1600D01*
G03X39763Y92158I253J432D01*
G01Y93687D01*
X45863D01*
Y93587D01*
X46461D01*
X47024Y94150D01*
X49100D01*
Y94700D01*
X49400D01*
Y96549D01*
X47399Y98550D01*
X45850D01*
Y97700D01*
X41450D01*
Y98400D01*
X40550D01*
Y97700D01*
X36150D01*
Y98550D01*
X35381D01*
X35310Y98489D01*
G02Y101511I-1310J1511D01*
G01X35381Y101450D01*
X36150D01*
Y102300D01*
X40550D01*
Y101600D01*
X41450D01*
Y102300D01*
X45850D01*
Y101450D01*
X48601D01*
X52300Y97751D01*
Y94700D01*
X52600D01*
Y94000D01*
X53100D01*
Y92000D01*
X52600D01*
Y91300D01*
X52300D01*
Y90700D01*
X52600D01*
Y90000D01*
X53100D01*
Y88000D01*
X52600D01*
Y87300D01*
X49100D01*
Y87850D01*
X47524D01*
X46717Y88657D01*
G03X45863Y88303I-354J-354D01*
G01Y85950D01*
X55106D01*
X65150Y95994D01*
Y136840D01*
G02X67050I950J1760D01*
G01Y95206D01*
X55894Y84050D01*
X46768D01*
X46331Y83613D01*
X45863D01*
Y83313D01*
X39763D01*
Y83842D01*
G03X39010Y84274I-500J0D01*
G02X38197Y84010I-1010J1726D01*
G03X37892Y83158I49J-498D01*
G01X41100Y79951D01*
Y78800D01*
X41850D01*
Y77950D01*
X46101D01*
X49967Y74084D01*
G03X50820Y74438I354J354D01*
G01Y75597D01*
X50920D01*
Y76259D01*
X51503Y76842D01*
X51500Y76949D01*
G02X52600Y78786I2000J51D01*
G01Y81700D01*
X56100D01*
Y81000D01*
X56600D01*
Y79000D01*
X56100D01*
Y78300D01*
X55800D01*
Y77249D01*
X55500Y76949D01*
G02X55494Y76845I-2000J50D01*
G01X56080Y76259D01*
Y75597D01*
X56180D01*
Y72797D01*
X55700D01*
Y68700D01*
X53621D01*
Y66403D01*
X53521D01*
Y65030D01*
X54351Y64200D01*
X55600D01*
Y63500D01*
X56100D01*
Y61500D01*
X55600D01*
Y60800D01*
X52100D01*
Y62349D01*
X51451Y62998D01*
X51358Y63005D01*
G02X49505Y64858I142J1995D01*
G01X49498Y64951D01*
X48350Y66099D01*
Y71599D01*
X44899Y75050D01*
X41850D01*
Y74200D01*
X37450D01*
Y74900D01*
X36550D01*
Y74200D01*
X35300D01*
Y73456D01*
X33564Y71721D01*
Y70460D01*
X35536D01*
Y68922D01*
X37960D01*
Y68722D01*
X41600D01*
Y69700D01*
X45100D01*
Y69000D01*
X45600D01*
Y67000D01*
X45100D01*
Y66300D01*
X41600D01*
Y66822D01*
X37960D01*
Y66622D01*
X36000D01*
Y65925D01*
G03X36532Y65426I500J0D01*
G02X36610Y65428I77J-1198D01*
G01X38537D01*
G02X41592Y65200I1431J-1397D01*
G01X45100D01*
Y64500D01*
X45600D01*
Y62500D01*
X45100D01*
Y61800D01*
X41600D01*
Y62300D01*
X40972D01*
X40916Y62270D01*
G02X38238Y63028I-948J1762D01*
G01X36610D01*
G02X36298Y63070I0J1200D01*
G01X36266Y63078D01*
X35586D01*
Y61685D01*
G02X36321Y59223I-1102J-1669D01*
G01X36300Y59176D01*
Y57700D01*
X36600D01*
Y57000D01*
X37100D01*
Y55000D01*
X36600D01*
Y54300D01*
X33100D01*
Y54550D01*
X30850D01*
Y53700D01*
X26450D01*
Y54400D01*
X25550D01*
Y53700D01*
G37*
G36*
G01X144106Y44950D02*
X186394D01*
X218067Y13277D01*
X218230Y13363D01*
G02X216637Y11770I1770J-3363D01*
G01X216723Y11933D01*
X211804Y16852D01*
G03X210950Y16499I-354J-354D01*
G01Y13684D01*
X211126Y13630D01*
G02X208874I-1126J-3629D01*
G01X209050Y13684D01*
Y17106D01*
X185106Y41050D01*
X179269D01*
G03X178815Y40340I0J-500D01*
G02X178932Y38980I-1815J-840D01*
G03X179300Y38363I483J-130D01*
G01Y33950D01*
X178600D01*
Y33050D01*
X179300D01*
Y28650D01*
X177950D01*
Y19573D01*
X180950Y16573D01*
Y13684D01*
X181126Y13630D01*
G02X178874I-1126J-3629D01*
G01X179050Y13684D01*
Y15785D01*
X176050Y18785D01*
Y28650D01*
X174700D01*
Y33050D01*
X175400D01*
Y33950D01*
X174700D01*
Y38363D01*
G03X175068Y38980I-114J487D01*
G02X175185Y40340I1931J520D01*
G03X174731Y41050I-454J210D01*
G01X172269D01*
G03X171815Y40340I0J-500D01*
G02X171932Y38980I-1815J-840D01*
G03X172300Y38363I483J-130D01*
G01Y33950D01*
X171600D01*
Y33050D01*
X172300D01*
Y28650D01*
X170950D01*
Y13684D01*
X171126Y13630D01*
G02X168874I-1126J-3629D01*
G01X169050Y13684D01*
Y28650D01*
X167700D01*
Y33050D01*
X168400D01*
Y33950D01*
X167700D01*
Y38363D01*
G03X168068Y38980I-114J487D01*
G02X168185Y40340I1931J520D01*
G03X167731Y41050I-454J210D01*
G01X162269D01*
G03X161815Y40340I0J-500D01*
G02X161932Y38980I-1815J-840D01*
G03X162300Y38363I483J-130D01*
G01Y33950D01*
X161600D01*
Y33050D01*
X162300D01*
Y28650D01*
X160950D01*
Y13684D01*
X161126Y13630D01*
G02X158874I-1126J-3629D01*
G01X159050Y13684D01*
Y28650D01*
X157700D01*
Y33050D01*
X158400D01*
Y33950D01*
X157700D01*
Y38363D01*
G03X158068Y38980I-114J487D01*
G02X158185Y40340I1931J520D01*
G03X157731Y41050I-454J210D01*
G01X152894D01*
X150950Y39106D01*
Y38350D01*
X152300D01*
Y33950D01*
X151600D01*
Y33050D01*
X152300D01*
Y28650D01*
X150950D01*
Y13684D01*
X151126Y13630D01*
G02X148874I-1126J-3629D01*
G01X149050Y13684D01*
Y28650D01*
X147700D01*
Y33050D01*
X148400D01*
Y33950D01*
X147700D01*
Y38350D01*
X149050D01*
Y39894D01*
X151353Y42196D01*
G03X150999Y43050I-354J354D01*
G01X144894D01*
X140950Y39106D01*
Y38350D01*
X142300D01*
Y33950D01*
X141600D01*
Y33050D01*
X142300D01*
Y28650D01*
X140950D01*
Y13800D01*
X143800D01*
Y6200D01*
X136200D01*
Y13800D01*
X139050D01*
Y28650D01*
X137700D01*
Y33050D01*
X138400D01*
Y33950D01*
X137700D01*
Y38350D01*
X139050D01*
Y39894D01*
X144106Y44950D01*
G37*
G36*
G01X94738Y24550D02*
X81606D01*
X73550Y32606D01*
Y138894D01*
X82050Y147394D01*
Y149740D01*
G02X83950I950J1760D01*
G01Y146606D01*
X75450Y138106D01*
Y33394D01*
X82394Y26450D01*
X93951D01*
X95740Y28240D01*
X95689Y28388D01*
G02X100364Y30157I2362J819D01*
G01X106394D01*
X106579Y29972D01*
X109658D01*
Y31322D01*
X114058D01*
Y30622D01*
X114958D01*
Y31322D01*
X119358D01*
Y30472D01*
X120097D01*
X120168Y30533D01*
G02Y27511I1310J-1511D01*
G01X120097Y27572D01*
X119358D01*
Y26722D01*
X114958D01*
Y27422D01*
X114058D01*
Y26722D01*
X109658D01*
Y28072D01*
X105791D01*
X105606Y28257D01*
X100364D01*
G02X97232Y26845I-2313J950D01*
G01X97084Y26896D01*
X94738Y24550D01*
G37*
G36*
G01X47700Y30128D02*
G03X46800I-450J-218D01*
G02X45170Y32993I-1800J872D01*
G01X45286Y32983D01*
X45746Y33443D01*
Y35747D01*
X46500D01*
Y39253D01*
X45050D01*
X44286Y40017D01*
X44170Y40007D01*
G02X43258Y40143I-170J1993D01*
G01X43105Y40204D01*
X42700Y39799D01*
Y38400D01*
X42000D01*
Y37900D01*
X40000D01*
Y38400D01*
X39300D01*
Y41900D01*
X40699D01*
X42249Y43450D01*
X42619D01*
X42690Y43511D01*
G02X45996Y42122I1310J-1511D01*
G03X46496Y41653I499J31D01*
G01X47816D01*
Y41703D01*
X50034D01*
Y46378D01*
X51580Y47924D01*
X51549Y48058D01*
G02X53058Y46549I1951J442D01*
G01X52924Y46580D01*
X51935Y45591D01*
Y41703D01*
X52184D01*
Y41000D01*
X53500D01*
Y39685D01*
X54007D01*
G03X54505Y40148I0J500D01*
G02X57878Y41450I1995J-148D01*
G01X57950Y41381D01*
X58300D01*
Y41600D01*
X59000D01*
Y42100D01*
X61000D01*
Y41600D01*
X61700D01*
Y38100D01*
X58300D01*
Y38400D01*
X57703D01*
X57638Y38355D01*
G02X56330Y38007I-1138J1645D01*
G01X56214Y38017D01*
X55521Y37323D01*
X55924Y36920D01*
X56058Y36951D01*
G02X56500Y33000I442J-1951D01*
G03X56100Y32200I0J-500D01*
G02X52507Y31170I-1600J-1200D01*
G01X52517Y31286D01*
X51823Y31979D01*
X51420Y31576D01*
X51451Y31442D01*
G02X47700Y30128I-1951J-442D01*
G37*
G36*
G01X116208Y37822D02*
Y51551D01*
X120580Y55924D01*
X120549Y56058D01*
G02X121000Y57823I1951J442D01*
G01Y77500D01*
X125500D01*
Y76703D01*
X125545D01*
Y74703D01*
X125500D01*
Y66500D01*
X128500D01*
Y70000D01*
X129000Y70500D01*
X129500D01*
X130000Y71000D01*
X130656D01*
X131606Y71950D01*
X145394D01*
X146424Y70920D01*
X146558Y70951D01*
G02X148982Y68730I442J-1951D01*
G03X149477Y68162I495J-68D01*
G01X153182D01*
Y59756D01*
X148782D01*
Y60231D01*
G03X147928Y60584I-500J0D01*
G01X144328Y56984D01*
X134328D01*
X132894Y55550D01*
X131260D01*
G02X127540Y56900I-1760J950D01*
G03X127050Y57500I-490J100D01*
G01X124950D01*
G03X124460Y56900I0J-500D01*
G02X122058Y54549I-1960J-400D01*
G01X121923Y54580D01*
X118108Y50764D01*
Y37822D01*
X119358D01*
Y33222D01*
X114958D01*
Y33922D01*
X114058D01*
Y33222D01*
X109658D01*
Y34572D01*
X105288D01*
X105106Y34753D01*
X100364D01*
G02Y36653I-2313J950D01*
G01X105894D01*
X106075Y36472D01*
X109658D01*
Y37822D01*
X114058D01*
Y37122D01*
X114958D01*
Y37822D01*
X116208D01*
G37*
G36*
G01X11897Y37395D02*
Y35795D01*
X8697D01*
Y37395D01*
X7997D01*
Y41795D01*
X9347D01*
Y43973D01*
X8397D01*
Y50917D01*
X12197D01*
Y50667D01*
X13122D01*
G02Y47766I1378J-1450D01*
G01X12197D01*
Y43973D01*
X11247D01*
Y41795D01*
X12597D01*
Y37395D01*
X11897D01*
G37*
G36*
G01X105555Y43505D02*
X105615Y43467D01*
X107100Y43460D01*
Y43700D01*
X110600D01*
Y43000D01*
X111100D01*
Y41000D01*
X110600D01*
Y40300D01*
X107100D01*
Y40559D01*
X106073Y40565D01*
X105998Y40480D01*
G02X103122Y40355I-1498J1326D01*
G01X99743D01*
X99036Y39649D01*
G02X95501Y43184I-1768J1768D01*
G01X96278Y43962D01*
G02X100310Y43256I1768J-1768D01*
G01X103122D01*
G02X105555Y43505I1378J-1450D01*
G37*
G36*
G01X87000Y51900D02*
Y51400D01*
X85000D01*
Y51900D01*
X84300D01*
Y55400D01*
X87700D01*
Y55100D01*
X89549D01*
X90510Y56061D01*
X90517Y56154D01*
G02X91001Y57322I1995J-142D01*
G01X91062Y57393D01*
Y57843D01*
X90762D01*
Y62580D01*
X89276D01*
G02X89244Y64480I-1776J920D01*
G01X90762D01*
Y70454D01*
X86052D01*
X85406Y71100D01*
X83300D01*
Y74600D01*
X84000D01*
Y75100D01*
X86000D01*
Y74600D01*
X86700D01*
Y72494D01*
X86840Y72354D01*
X90762D01*
Y73154D01*
X106073D01*
Y57843D01*
X105822D01*
Y57504D01*
X105878Y57435D01*
G02X102328Y56035I-1555J-1258D01*
G03X102000Y56470I-499J-35D01*
G01Y60500D01*
X99000D01*
Y57500D01*
X94809D01*
G03X94349Y56802I0J-500D01*
G02X92654Y54017I-1837J-790D01*
G01X92561Y54010D01*
X90751Y52200D01*
X87700D01*
Y51900D01*
X87000D01*
G37*
G36*
G01X168550Y52700D02*
X164150D01*
Y53000D01*
X164000D01*
Y59572D01*
X163128D01*
X162644Y60056D01*
X160872D01*
Y59756D01*
X156472D01*
Y64225D01*
X161000D01*
Y64478D01*
G02X163170Y66493I2000J22D01*
G01X163286Y66483D01*
X164108Y67305D01*
Y68222D01*
X167608D01*
Y67522D01*
X168108D01*
Y65522D01*
X168000D01*
Y62822D01*
X168558D01*
Y62122D01*
X170158D01*
Y58922D01*
X170000D01*
Y57300D01*
X173850D01*
Y57220D01*
G03X174580Y56776I500J0D01*
G02Y53224I920J-1776D01*
G03X173850Y52780I-230J-444D01*
G01Y52700D01*
X169450D01*
Y53000D01*
X168550D01*
Y52700D01*
G37*
G36*
G01X157445Y92603D02*
Y92103D01*
X155445D01*
Y92603D01*
X154745D01*
Y92664D01*
X154427D01*
X154368Y92629D01*
G02Y96077I-1015J1724D01*
G01X154427Y96042D01*
X154745D01*
Y96103D01*
X158145D01*
Y92603D01*
X157445D01*
G37*
G36*
G01X162445Y92103D02*
X160445D01*
Y92603D01*
X159745D01*
Y96103D01*
X160495D01*
Y96338D01*
X160907Y96750D01*
X160654Y97003D01*
X160547Y97000D01*
G02X158518Y98734I-47J2000D01*
G01X158488Y98950D01*
X153743D01*
G02X153448Y99081I0J400D01*
G03X152862Y99195I-370J-337D01*
G02X152170Y102993I-862J1805D01*
G01X152286Y102983D01*
X152394Y103092D01*
X152633D01*
Y105753D01*
X152097D01*
X150416Y104072D01*
X148408D01*
Y103322D01*
X144908D01*
Y104022D01*
X144408D01*
Y106022D01*
X144908D01*
Y106722D01*
X148408D01*
Y105972D01*
X149628D01*
X151310Y107653D01*
X152046D01*
G03X152223Y108080I0J250D01*
G01X151786Y108517D01*
X151670Y108507D01*
G02X150122Y109050I-170J1993D01*
G01X148408D01*
Y108322D01*
X144908D01*
Y109022D01*
X144408D01*
Y111022D01*
X144908D01*
Y111722D01*
X146307D01*
X146535Y111950D01*
X150122D01*
G02X152866Y111961I1378J-1450D01*
G03X153708Y112326I341J365D01*
G01Y113015D01*
X156308D01*
Y110500D01*
X157645D01*
Y113015D01*
X157995D01*
Y114838D01*
X162106Y118950D01*
X163740D01*
G02Y117050I1760J-950D01*
G01X162894D01*
X159895Y114051D01*
Y113015D01*
X164182D01*
Y109972D01*
X165326D01*
X165378Y110153D01*
G02X167470Y111593I1922J-553D01*
G01X167586Y111583D01*
X169353Y113350D01*
X170200D01*
Y114350D01*
X174800D01*
Y109950D01*
X174100D01*
Y109050D01*
X174800D01*
Y104650D01*
X173450D01*
Y103850D01*
X174800D01*
Y99450D01*
X174100D01*
Y97850D01*
X170900D01*
Y99450D01*
X170200D01*
Y103850D01*
X171550D01*
Y104650D01*
X170200D01*
Y105900D01*
X168040D01*
X167653Y105513D01*
X167859Y105307D01*
X167895Y105289D01*
G02X165020Y103220I-895J-1789D01*
G01X164989Y103434D01*
X164182D01*
Y100391D01*
X163832D01*
Y96988D01*
X163145Y96301D01*
Y92603D01*
X162445D01*
Y92103D01*
G37*
G36*
G01X125500Y93400D02*
Y92900D01*
X123500D01*
Y93400D01*
X122800D01*
Y96887D01*
X122682Y96960D01*
G02X122657Y96977I210J340D01*
G03X122294Y96903I-147J-202D01*
G02X120405Y95932I-1719J1022D01*
G01X120289Y95942D01*
X119400Y95053D01*
Y93300D01*
X115900D01*
Y94000D01*
X115400D01*
Y96000D01*
X115900D01*
Y96700D01*
X117653D01*
X118592Y97639D01*
X118582Y97755D01*
G02X119375Y99525I1993J170D01*
G01Y99956D01*
X122208Y102788D01*
Y103934D01*
X121133D01*
Y107143D01*
G03X120341Y107549I-500J0D01*
G02X120693Y110470I-1169J1623D01*
G01X120768Y110383D01*
X121133D01*
Y110472D01*
X122208D01*
Y113515D01*
X124808D01*
Y111500D01*
X126145D01*
Y113515D01*
X126495D01*
Y114240D01*
G02X128395I950J1760D01*
G01Y113515D01*
X132682D01*
Y110472D01*
X133757D01*
Y107871D01*
X131500D01*
Y106535D01*
X133757D01*
Y106185D01*
X134384D01*
X134459Y106275D01*
G02X134677Y103500I1541J-1275D01*
G01X130714D01*
Y101375D01*
X130856Y101308D01*
G02X128463Y100780I-857J-1808D01*
G01Y100891D01*
X128113D01*
Y103500D01*
X126777D01*
Y100891D01*
X126427D01*
Y95733D01*
X126200Y95506D01*
Y93400D01*
X125500D01*
G37*
G36*
G01X115445Y104103D02*
Y103603D01*
X113445D01*
Y104103D01*
X112745D01*
Y107641D01*
X112606Y107710D01*
G02X115495Y109642I894J1789D01*
G01X115502Y109549D01*
X115895Y109156D01*
Y107603D01*
X116145D01*
Y104103D01*
X115445D01*
G37*
G36*
G01X101635Y126779D02*
Y125945D01*
G02X99735I-950J-1760D01*
G01Y126779D01*
X98785D01*
Y132179D01*
X102585D01*
Y126779D01*
X101635D01*
G37*
G36*
G01X126950Y138242D02*
X127898D01*
X129080Y139424D01*
X129049Y139558D01*
G02X130558Y138049I1951J442D01*
G01X130424Y138080D01*
X129566Y137222D01*
Y135575D01*
X128500Y134510D01*
Y133900D01*
X131742D01*
Y133450D01*
X134106D01*
X135606Y134950D01*
X136100D01*
Y135700D01*
X142900D01*
Y135550D01*
X143234D01*
X143300Y135600D01*
G02Y132400I1200J-1600D01*
G01X143234Y132450D01*
X142900D01*
Y132300D01*
X140000D01*
Y130000D01*
X140100D01*
Y128000D01*
X139600D01*
Y127300D01*
X136100D01*
Y127550D01*
X134878D01*
G02X131520Y128719I-1378J1450D01*
G01X131489Y128934D01*
X129075D01*
X128010Y130000D01*
X127400D01*
Y126758D01*
X126950D01*
Y126377D01*
X125893Y125321D01*
X123941D01*
X122884Y126377D01*
Y126758D01*
X122434D01*
Y129425D01*
X123500Y130490D01*
Y131100D01*
X120258D01*
Y136066D01*
X122434D01*
Y137222D01*
X121576Y138080D01*
X121442Y138049D01*
G02X122600Y141200I-442J1951D01*
G03X123400I400J300D01*
G02X126951Y139558I1600J-1200D01*
G01X126920Y139424D01*
X126950Y139394D01*
Y138242D01*
G37*
G36*
G01X160177Y129456D02*
X159483Y128762D01*
X159493Y128646D01*
G02X156190Y126965I-1993J-170D01*
G01X156119Y127026D01*
X155923D01*
X155346Y127603D01*
X154145D01*
Y127303D01*
X150745D01*
Y130803D01*
X151445D01*
Y131303D01*
X153445D01*
Y130803D01*
X154145D01*
Y130503D01*
X156548D01*
X156724Y130327D01*
X156871Y130375D01*
G02X157523Y130477I629J-1899D01*
G03X157776Y130726I3J250D01*
G01Y132446D01*
X160177D01*
Y129456D01*
G37*
G36*
G01X95106Y146450D02*
X137606D01*
X141080Y149924D01*
X141049Y150058D01*
G02X142558Y148549I1951J442D01*
G01X142424Y148580D01*
X138394Y144550D01*
X95894D01*
X94155Y142811D01*
Y141628D01*
X95105D01*
Y136227D01*
X91304D01*
Y137977D01*
X88236D01*
X88014Y138200D01*
X86300D01*
Y136950D01*
X85600D01*
Y136050D01*
X86300D01*
Y131650D01*
X85450D01*
Y130881D01*
X85511Y130810D01*
G02X82489I-1511J-1310D01*
G01X82550Y130881D01*
Y131650D01*
X81700D01*
Y136050D01*
X82400D01*
Y136950D01*
X81700D01*
Y141350D01*
X86300D01*
Y140100D01*
X88801D01*
X89023Y139878D01*
X91304D01*
Y141628D01*
X92254D01*
Y143598D01*
X95106Y146450D01*
G37*
G36*
G01X164114Y131996D02*
X168054D01*
X168113Y132163D01*
G02X168576Y130095I1887J-663D01*
G01X164114D01*
Y129645D01*
X161713D01*
Y132446D01*
X164114D01*
Y131996D01*
G37*
G36*
G01Y137311D02*
X164740D01*
G02Y135410I1760J-950D01*
G01X164114D01*
Y134960D01*
X161713D01*
Y137761D01*
X164114D01*
Y137311D01*
G37*
G36*
G01X106878Y142450D02*
X107751D01*
X109301Y140900D01*
X110700D01*
Y137400D01*
X110000D01*
Y136900D01*
X108000D01*
Y137400D01*
X107300D01*
Y138799D01*
X106707Y139393D01*
X106539Y139291D01*
G02X104122Y139550I-1039J1709D01*
G01X103358D01*
X102585Y138777D01*
Y136227D01*
X98785D01*
Y141628D01*
X101334D01*
X102157Y142450D01*
X104122D01*
G02X106878I1378J-1450D01*
G37*
G36*
G01X71550Y189394D02*
X73050Y190894D01*
Y196316D01*
X72874Y196370D01*
G02X75126I1126J3629D01*
G01X74950Y196316D01*
Y190106D01*
X73450Y188606D01*
Y184350D01*
X74800D01*
Y179950D01*
X74100D01*
Y179050D01*
X74800D01*
Y174650D01*
X73450D01*
Y173760D01*
G02X71550I-950J-1760D01*
G01Y174650D01*
X70200D01*
Y179050D01*
X70900D01*
Y179950D01*
X70200D01*
Y184350D01*
X71550D01*
Y189394D01*
G37*
G36*
G01X169050Y184350D02*
Y196316D01*
X168874Y196370D01*
G02X171126I1126J3629D01*
G01X170950Y196316D01*
Y184350D01*
X172300D01*
Y179950D01*
X171600D01*
Y179050D01*
X172300D01*
Y174650D01*
X172220D01*
G03X171776Y173920I0J-500D01*
G02X168224I-1776J-920D01*
G03X167780Y174650I-444J230D01*
G01X167700D01*
Y179050D01*
X168400D01*
Y179950D01*
X167700D01*
Y184350D01*
X169050D01*
G37*
G36*
G01X179050D02*
Y196316D01*
X178874Y196370D01*
G02X181126I1126J3629D01*
G01X180950Y196316D01*
Y184350D01*
X182300D01*
Y179950D01*
X181600D01*
Y179050D01*
X182300D01*
Y174650D01*
X182220D01*
G03X181776Y173920I0J-500D01*
G02X178224I-1776J-920D01*
G03X177780Y174650I-444J230D01*
G01X177700D01*
Y179050D01*
X178400D01*
Y179950D01*
X177700D01*
Y184350D01*
X179050D01*
G37*
G36*
G01X119050Y191606D02*
Y196316D01*
X118874Y196370D01*
G02X121126I1126J3629D01*
G01X120950Y196316D01*
Y192394D01*
X125950Y187394D01*
Y184350D01*
X127300D01*
Y179950D01*
X126600D01*
Y179050D01*
X127300D01*
Y174637D01*
G03X126932Y174020I114J-487D01*
G02X123068I-1931J-520D01*
G03X122700Y174637I-483J130D01*
G01Y179050D01*
X123400D01*
Y179950D01*
X122700D01*
Y184350D01*
X124050D01*
Y186606D01*
X119050Y191606D01*
G37*
G36*
G01X134800Y179050D02*
Y175894D01*
X135202Y175492D01*
X135284Y175480D01*
G02X133068Y174020I-285J-1980D01*
G03X132586Y174650I-483J130D01*
G01X130200D01*
Y179050D01*
X130900D01*
Y179950D01*
X130200D01*
Y184350D01*
X131550D01*
Y195830D01*
G03X130928Y196315I-500J0D01*
G02X133363Y198230I-928J3685D01*
G01X133277Y198067D01*
X133450Y197894D01*
Y184350D01*
X134800D01*
Y179950D01*
X134100D01*
Y179050D01*
X134800D01*
G37*
G36*
G01X137700Y184350D02*
X139050D01*
Y196316D01*
X138874Y196370D01*
G02X141126I1126J3629D01*
G01X140950Y196316D01*
Y184350D01*
X142300D01*
Y179950D01*
X141600D01*
Y179050D01*
X142300D01*
Y174637D01*
G03X141932Y174020I114J-487D01*
G02X138068I-1931J-520D01*
G03X137700Y174637I-483J130D01*
G01Y179050D01*
X138400D01*
Y179950D01*
X137700D01*
Y184350D01*
G37*
G36*
G01X159050D02*
Y196316D01*
X158874Y196370D01*
G02X161126I1126J3629D01*
G01X160950Y196316D01*
Y184350D01*
X162300D01*
Y179950D01*
X161600D01*
Y179050D01*
X162300D01*
Y174637D01*
G03X161932Y174020I114J-487D01*
G02X158068I-1931J-520D01*
G03X157700Y174637I-483J130D01*
G01Y179050D01*
X158400D01*
Y179950D01*
X157700D01*
Y184350D01*
X159050D01*
G37*
G36*
G01X149050D02*
Y196316D01*
X148874Y196370D01*
G02X151126I1126J3629D01*
G01X150950Y196316D01*
Y184350D01*
X152300D01*
Y179950D01*
X151600D01*
Y179050D01*
X152300D01*
Y174650D01*
X147700D01*
Y179050D01*
X148400D01*
Y179950D01*
X147700D01*
Y184350D01*
X149050D01*
G37*
G36*
G01X262307Y25463D02*
X228693D01*
X225076Y29080D01*
X224942Y29049D01*
G02X226451Y30558I-442J1951D01*
G01X226420Y30424D01*
X229481Y27363D01*
X245586D01*
G03X245940Y28217I0J500D01*
G01X245076Y29080D01*
X244942Y29049D01*
G02X242700Y30128I-442J1951D01*
G03X241800I-450J-218D01*
G02X240170Y32993I-1800J872D01*
G01X240286Y32983D01*
X240746Y33443D01*
Y35747D01*
X241500D01*
Y39253D01*
X240050D01*
X239187Y40116D01*
X239046Y40076D01*
G02X238100Y40040I-546J1924D01*
G01X237968Y40067D01*
X237700Y39799D01*
Y38400D01*
X237000D01*
Y37900D01*
X235000D01*
Y38400D01*
X234300D01*
Y41900D01*
X235699D01*
X236728Y42929D01*
X236746Y42961D01*
G02X240479Y42288I1754J-961D01*
G01X240491Y42206D01*
X241044Y41653D01*
X242816D01*
Y41703D01*
X243116D01*
Y42053D01*
X243048Y42125D01*
G02X246451Y43058I1453J1375D01*
G01X246420Y42924D01*
X246934Y42409D01*
Y41703D01*
X247184D01*
Y41000D01*
X248500D01*
Y39685D01*
X249007D01*
G03X249505Y40148I0J500D01*
G02X252878Y41450I1995J-148D01*
G01X252950Y41381D01*
X253300D01*
Y41600D01*
X254000D01*
Y42100D01*
X256000D01*
Y41600D01*
X256700D01*
Y39751D01*
G03X257554Y39398I500J0D01*
G01X258326Y40170D01*
Y52670D01*
X260300Y54644D01*
Y102856D01*
X245076Y118080D01*
X244942Y118049D01*
G02X243800Y121874I-442J1951D01*
G03X243979Y122696I-175J468D01*
G01X243550Y123124D01*
Y124240D01*
G02X245567Y124308I950J1760D01*
G01X245450Y124234D01*
Y123912D01*
X262196Y107166D01*
G03X263050Y107519I354J354D01*
G01Y165514D01*
X260014Y168550D01*
X244001D01*
G03X243648Y167696I0J-500D01*
G01X246934Y164409D01*
Y164203D01*
X247184D01*
Y164000D01*
X248500D01*
Y162184D01*
X249007D01*
G03X249505Y162648I0J500D01*
G02X252810Y164011I1995J-148D01*
G01X252881Y163950D01*
X253300D01*
Y164100D01*
X254000D01*
Y164600D01*
X256000D01*
Y164100D01*
X256700D01*
Y160600D01*
X253300D01*
Y161050D01*
X252881D01*
X252810Y160989D01*
G02X251330Y160507I-1310J1511D01*
G01X251214Y160517D01*
X250521Y159823D01*
X250924Y159420D01*
X251058Y159451D01*
G02X249505Y157352I442J-1951D01*
G03X249007Y157816I-499J-37D01*
G01X248500D01*
Y156000D01*
X247184D01*
Y155797D01*
X246934D01*
Y154591D01*
X246420Y154077D01*
X246451Y153942D01*
G02X243109Y154938I-1951J-442D01*
G03X242816Y155794I-348J359D01*
G01Y155847D01*
X242044D01*
X240991Y154794D01*
X240979Y154712D01*
G02X239546Y156924I-1979J288D01*
G01X239687Y156884D01*
X240746Y157943D01*
Y158247D01*
X241500D01*
Y161753D01*
X240050D01*
X239286Y162517D01*
X239170Y162507D01*
G02X238258Y162643I-170J1993D01*
G01X238105Y162704D01*
X237700Y162299D01*
Y160900D01*
X237000D01*
Y160400D01*
X235000D01*
Y160900D01*
X234300D01*
Y164400D01*
X235699D01*
X237249Y165950D01*
X237619D01*
X237690Y166011D01*
G02X237800Y166100I1309J-1512D01*
G01X237649Y166550D01*
X223894D01*
X220494Y163150D01*
X100994D01*
X97894Y160050D01*
X91606D01*
X88606Y163050D01*
X69874D01*
X64304Y168620D01*
G03X63450Y168267I-354J-354D01*
G01Y159606D01*
X61920Y158077D01*
X61951Y157942D01*
G02X58000Y157552I-1951J-442D01*
G03X57501Y158066I-500J13D01*
G01X54254D01*
Y155750D01*
G03X54504Y155500I250J0D01*
G02X52507Y153670I-4J-2000D01*
G01X52517Y153786D01*
X51823Y154479D01*
X50450Y153106D01*
Y150760D01*
G02X47740Y148050I-950J-1760D01*
G01X41606D01*
X33550Y156106D01*
Y170240D01*
G02Y173760I950J1760D01*
G01Y174500D01*
X28950D01*
Y173378D01*
G02X26050I-1450J-1378D01*
G01Y174650D01*
X25200D01*
Y179050D01*
X25900D01*
Y179950D01*
X25200D01*
Y183106D01*
X13050Y195256D01*
Y196316D01*
X12874Y196370D01*
G02X15472Y196496I1126J3630D01*
G03X15312Y195682I194J-461D01*
G01X26644Y184350D01*
X29800D01*
Y184000D01*
X32200D01*
Y184350D01*
X36800D01*
Y179950D01*
X36100D01*
Y179050D01*
X36800D01*
Y174650D01*
X35450D01*
Y173760D01*
G02Y170240I-950J-1760D01*
G01Y156894D01*
X42394Y149950D01*
X47740D01*
G02X48550Y150760I1760J-950D01*
G01Y153894D01*
X50034Y155378D01*
Y155797D01*
X48196D01*
Y154999D01*
X46983Y153786D01*
X46993Y153670D01*
G02X45170Y155493I-1993J-170D01*
G01X45286Y155483D01*
X45746Y155943D01*
Y158247D01*
X46500D01*
Y161753D01*
X45050D01*
X44286Y162517D01*
X44170Y162507D01*
G02X43258Y162643I-170J1993D01*
G01X43105Y162704D01*
X42700Y162299D01*
Y160900D01*
X42000D01*
Y160400D01*
X40000D01*
Y160900D01*
X39300D01*
Y164400D01*
X40699D01*
X42249Y165950D01*
X42619D01*
X42690Y166011D01*
G02X45996Y164622I1310J-1511D01*
G03X46496Y164153I499J31D01*
G01X47816D01*
Y164203D01*
X47816Y164614D01*
X47669Y164680D01*
G02X50451Y166058I831J1820D01*
G01X50420Y165924D01*
X51935Y164409D01*
Y164203D01*
X52184D01*
Y163500D01*
X53500D01*
Y162184D01*
X54007D01*
G03X54505Y162648I0J500D01*
G02X57878Y163950I1995J-148D01*
G01X57950Y163881D01*
X58300D01*
Y164100D01*
X59000D01*
Y164600D01*
X61000D01*
Y164100D01*
X61550D01*
Y168106D01*
X57106Y172550D01*
X51760D01*
G02X48040Y173900I-1760J950D01*
G03X47550Y174500I-490J100D01*
G01X43950D01*
Y173378D01*
G02X41050I-1450J-1378D01*
G01Y174650D01*
X40200D01*
Y179050D01*
X40900D01*
Y179950D01*
X40200D01*
Y184350D01*
X41550D01*
Y185606D01*
X33531Y193625D01*
X29031D01*
X25933Y196723D01*
X25770Y196637D01*
G02X27363Y198230I-1770J3363D01*
G01X27277Y198067D01*
X29819Y195525D01*
X34319D01*
X43450Y186394D01*
Y184350D01*
X44800D01*
Y183100D01*
X47700D01*
Y184350D01*
X52300D01*
Y179950D01*
X51600D01*
Y179050D01*
X52300D01*
Y174450D01*
X55200D01*
Y179050D01*
X55900D01*
Y179950D01*
X55200D01*
Y184350D01*
X56550D01*
Y196106D01*
X55930Y196726D01*
G02X57363Y198230I-1930J3274D01*
G01X57277Y198067D01*
X58450Y196894D01*
Y185000D01*
X64050D01*
Y196200D01*
G02X65950Y196738I-50J3800D01*
G01Y184350D01*
X67300D01*
Y179950D01*
X66600D01*
Y179050D01*
X67300D01*
Y174650D01*
X65950D01*
Y172394D01*
X71393Y166950D01*
X89893D01*
X92147Y164697D01*
G03X93000Y165040I354J354D01*
G02X95442Y166951I2000J-40D01*
G01X95576Y166920D01*
X96206Y167550D01*
X182606D01*
X189050Y173994D01*
Y174650D01*
X187700D01*
Y179050D01*
X188400D01*
Y179950D01*
X187700D01*
Y184350D01*
X189050D01*
Y196200D01*
X186200D01*
Y203800D01*
X193800D01*
Y196200D01*
X190950D01*
Y184350D01*
X192300D01*
Y179950D01*
X191600D01*
Y179050D01*
X192300D01*
Y174650D01*
X190950D01*
Y173206D01*
X184898Y167154D01*
G03X185251Y166300I354J-354D01*
G01X218956D01*
X223106Y170450D01*
X258675D01*
G03X259028Y171304I0J500D01*
G01X222854Y207478D01*
X222677Y207303D01*
G02X223754Y209411I-2677J2697D01*
G01X223734Y209285D01*
X266450Y166569D01*
Y29606D01*
X262307Y25463D01*
G37*
G54D63*
X14000Y175500D03*
G54D61*
X158976Y136361D03*
G54D59*
X210000Y210000D03*
X200000Y119500D03*
X230000Y10000D03*
X100000D03*
X110000D03*
X44000Y200000D03*
G54D62*
X93205Y129479D03*
G54D60*
X200000Y89500D03*
Y99500D03*
Y109500D03*
X190000Y10000D03*
X120000D03*
X94000Y210000D03*
X80000Y10000D03*
X90000D03*
X74000Y210000D03*
X64000D03*
X54000D03*
X44000D03*
X34000D03*
Y200000D03*
X60000Y10000D03*
X70000D03*
X24000Y210000D03*
X14000D03*
G54D58*
X200000D03*
Y129500D03*
X240000Y10000D03*
X50000D03*
G54D57*
X267600Y190000D03*
X252000Y18000D03*
X30000Y10000D03*
%LPD*%
G75*
G36*
G01X247894Y28950D02*
X246420Y30424D01*
X246451Y30558D01*
G03Y31442I-1951J442D01*
G01X246420Y31576D01*
X246934Y32091D01*
Y33297D01*
X247184D01*
Y34000D01*
X248500D01*
Y35316D01*
X249007D01*
G02X249505Y34852I0J-500D01*
G03X253260Y34050I1995J148D01*
G01X254894D01*
X260226Y39382D01*
Y39723D01*
G02X261080Y40076I500J0D01*
G01X262550Y38606D01*
Y30394D01*
X261106Y28950D01*
X247894D01*
G37*
G54D10*
X10297Y34295D03*
Y39595D03*
X27500Y176850D03*
Y182150D03*
X42500Y176850D03*
Y182150D03*
X34500Y176850D03*
Y182150D03*
X50000Y176850D03*
Y182150D03*
X57500Y176850D03*
Y182150D03*
X65000Y176850D03*
Y182150D03*
X72500Y176850D03*
Y182150D03*
X84000Y139150D03*
Y133850D03*
X102500Y182150D03*
Y176850D03*
X87500Y182150D03*
Y176850D03*
X80000D03*
Y182150D03*
X95000Y176850D03*
Y182150D03*
X110000Y176850D03*
Y182150D03*
X140000Y36150D03*
Y30850D03*
X150000Y36150D03*
Y30850D03*
X117500Y176850D03*
Y182150D03*
X125000Y176850D03*
Y182150D03*
X132500Y176850D03*
Y182150D03*
X140000Y176850D03*
Y182150D03*
X150000Y176850D03*
Y182150D03*
X160000Y36150D03*
Y30850D03*
X170000Y36150D03*
Y30850D03*
X177000Y36150D03*
Y30850D03*
X172500Y101650D03*
Y96350D03*
Y106850D03*
Y112150D03*
X180000Y176850D03*
Y182150D03*
X190000Y176850D03*
Y182150D03*
X160000Y176850D03*
Y182150D03*
X170000Y176850D03*
Y182150D03*
G54D20*
X60000Y43150D03*
Y39850D03*
X41000Y40150D03*
Y36850D03*
X60000Y165650D03*
Y162350D03*
X41000Y162650D03*
Y159350D03*
X85000Y76150D03*
Y72850D03*
X86000Y50350D03*
Y53650D03*
X109000Y135850D03*
Y139150D03*
X114445Y102553D03*
Y105853D03*
X124500Y91850D03*
Y95150D03*
X152445Y132353D03*
Y129053D03*
X161445Y94353D03*
Y91053D03*
X156445Y94353D03*
Y91053D03*
X236000Y40150D03*
Y36850D03*
Y162650D03*
Y159350D03*
X255000Y43150D03*
Y39850D03*
Y165650D03*
Y162350D03*
G54D11*
X10000Y10000D03*
X14000Y175500D03*
X267600Y10000D03*
Y210000D03*
G54D12*
X30000Y10000D03*
X252000Y18000D03*
X267600Y190000D03*
G54D21*
X50000Y10000D03*
X104000Y200000D03*
Y210000D03*
X140000Y10000D03*
X190000Y200000D03*
X240000Y10000D03*
X200000Y129500D03*
Y210000D03*
G54D30*
X100685Y129479D03*
X96945D03*
X93205D03*
X100685Y138928D03*
X93205D03*
G54D31*
X123343Y61790D03*
X127162D03*
X130980D03*
X134799D03*
X123343Y67892D03*
X127162D03*
X130980D03*
X134799D03*
G54D13*
X10297Y30500D03*
X3500Y22000D03*
Y32000D03*
Y42000D03*
X21500Y3500D03*
X3500Y62000D03*
Y72000D03*
Y82000D03*
Y52000D03*
X14500Y49217D03*
X26000Y70000D03*
X3500Y112000D03*
Y122000D03*
Y92000D03*
Y102000D03*
Y162000D03*
Y152000D03*
Y132000D03*
Y142000D03*
Y192000D03*
Y182000D03*
Y172000D03*
X27500D03*
X12500Y216500D03*
X22500D03*
X56500Y35000D03*
X53500Y43500D03*
X44000Y37500D03*
X71500Y3500D03*
X61500D03*
X51500D03*
X41500D03*
X34000D03*
X49500Y31000D03*
X44000Y42000D03*
X45000Y31000D03*
X56500Y40000D03*
X54500Y31000D03*
X53500Y77000D03*
X51500Y65000D03*
X39968Y64032D03*
X34484Y60016D03*
X53500Y48500D03*
X38000Y90000D03*
Y86000D03*
X34000Y100000D03*
X60000Y157500D03*
X53500Y166000D03*
X44000Y160000D03*
X49500Y149000D03*
X56500Y162500D03*
X54500Y153500D03*
X45000D03*
X44000Y164500D03*
X66100Y138600D03*
X48500Y166500D03*
X50000Y173500D03*
X34500Y172000D03*
X42500D03*
Y216500D03*
X52500D03*
X62500D03*
X32500D03*
X111500Y3500D03*
X101500D03*
X91500D03*
X81500D03*
X104500Y41806D03*
X87500Y63500D03*
X92512Y56012D03*
X104323Y56177D03*
X100685Y124185D03*
X113500Y109500D03*
X86500Y142500D03*
X84000Y129500D03*
X105500Y141000D03*
X83000Y151500D03*
X95000Y165000D03*
X110000Y173500D03*
X95000D03*
X102500D03*
X87500D03*
X80000D03*
X72500Y172000D03*
X82500Y216500D03*
X92500D03*
X102500D03*
X112500D03*
X72500D03*
X151500Y3500D03*
X141500D03*
X131500D03*
X121500D03*
X121478Y29022D03*
X147000Y64500D03*
Y69000D03*
X123295Y72295D03*
X138500Y67892D03*
X129500Y56500D03*
X122500D03*
X136000Y105000D03*
X130000Y99500D03*
X151500Y110500D03*
X152000Y101000D03*
X120575Y97925D03*
X119172Y109172D03*
X153353Y94353D03*
X127445Y116000D03*
X143000Y150500D03*
X125000Y140000D03*
X150000Y160000D03*
Y150000D03*
X121000Y140000D03*
X144500Y134000D03*
X133500Y129000D03*
X131000Y140000D03*
X140000Y173500D03*
X144000Y170500D03*
X117500Y173500D03*
X125000D03*
X135000D03*
X122500Y216500D03*
X132500D03*
X142500D03*
X152500D03*
X160000Y39500D03*
X177000D03*
X191500Y3500D03*
X181500D03*
X171500D03*
X161500D03*
X170000Y39500D03*
X190000Y80000D03*
X180000D03*
X170000D03*
X175500Y55000D03*
X163000Y64500D03*
X167000Y103500D03*
X190000Y90000D03*
X170000D03*
X190000Y110000D03*
Y120000D03*
X180000D03*
X173000Y117000D03*
X180000Y110000D03*
Y90000D03*
Y100000D03*
X160500Y99000D03*
X167300Y109600D03*
X165500Y118000D03*
X166500Y136361D03*
X160000Y140000D03*
Y150000D03*
Y160000D03*
X190000Y130000D03*
Y150000D03*
X180000Y160000D03*
X190000D03*
X180000Y130000D03*
X190000Y140000D03*
X180000D03*
Y149500D03*
X157500Y128476D03*
X170000Y131500D03*
X160000Y173500D03*
X192500Y170500D03*
X183500Y179000D03*
X165500Y176500D03*
X170000Y173000D03*
X180000D03*
X172500Y216500D03*
X182500D03*
X192500D03*
X162500D03*
X221500Y3500D03*
X211500D03*
X231500D03*
X201500D03*
X238500Y42000D03*
X224500Y31000D03*
X220000Y70000D03*
X230000Y60000D03*
Y70000D03*
Y80000D03*
X220000D03*
X210000D03*
X200000D03*
X230000Y120000D03*
X220000Y110000D03*
X210000D03*
Y100000D03*
X220000D03*
X210000Y90000D03*
X220000D03*
X230000Y110000D03*
X220000Y120000D03*
X230000Y100000D03*
Y90000D03*
Y130000D03*
X200000Y160000D03*
Y150000D03*
X202000Y170500D03*
X212500Y216500D03*
X202500D03*
X222500D03*
X232500D03*
X251500Y35000D03*
Y3500D03*
X241500D03*
X276500Y43000D03*
X249500Y31000D03*
X260500D03*
X239000Y37500D03*
X276500Y33000D03*
Y23000D03*
X244500Y31000D03*
X240000D03*
X251500Y40000D03*
X244500Y43500D03*
X250000Y60000D03*
Y70000D03*
Y80000D03*
X276500Y73000D03*
Y53000D03*
X249500Y44500D03*
X276500Y83000D03*
Y63000D03*
X259000D03*
X240000Y60000D03*
X250000Y50000D03*
X240000Y50500D03*
X263000Y44000D03*
X244500Y120000D03*
X276500Y123000D03*
Y113000D03*
Y103000D03*
Y93000D03*
X244500Y126000D03*
X251500Y157500D03*
X260000Y160000D03*
Y150000D03*
Y130000D03*
Y140000D03*
X250000D03*
X240000D03*
X249500Y153500D03*
X276500Y168000D03*
Y158000D03*
X248500Y166000D03*
X239000Y160000D03*
X276500Y143000D03*
Y133000D03*
X244500Y153500D03*
X239000Y155000D03*
Y164500D03*
X251500Y162500D03*
X276500Y198000D03*
Y188000D03*
Y178000D03*
X242500Y216500D03*
X252500D03*
G54D22*
X43350Y63500D03*
X46650D03*
X34850Y56000D03*
X38150D03*
X43350Y68000D03*
X46650D03*
X54350Y80000D03*
X57650D03*
X53850Y62500D03*
X57150D03*
X54150Y93000D03*
X50850D03*
Y89000D03*
X54150D03*
X108850Y42000D03*
X112150D03*
X126595Y75703D03*
X123295D03*
X143358Y105022D03*
X146658D03*
X114350Y95000D03*
X117650D03*
X143358Y110022D03*
X146658D03*
X137850Y134000D03*
X141150D03*
Y129000D03*
X137850D03*
X169158Y66522D03*
X165858D03*
G54D40*
X129792Y130335D03*
G54D50*
G01X184565Y-141773D02*
Y-135773D01*
X187632Y-141773D01*
Y-135773D01*
G01X189432D02*
Y-140073D01*
X189698Y-140973D01*
X190232Y-141573D01*
X190898Y-141773D01*
X191565Y-141573D01*
X192098Y-140973D01*
X192365Y-140073D01*
Y-135773D01*
G01X193965Y-141773D02*
Y-135773D01*
X195698Y-140773D01*
X197432Y-135773D01*
Y-141773D01*
G01X201032Y-138573D02*
X201298Y-138273D01*
X201498Y-137773D01*
X201632Y-137073D01*
X201498Y-136473D01*
X201232Y-136073D01*
X200765Y-135773D01*
X198965D01*
Y-141773D01*
X201165D01*
X201632Y-141373D01*
X201898Y-140773D01*
X202032Y-140073D01*
X201898Y-139373D01*
X201498Y-138773D01*
X201032Y-138573D01*
X198965D01*
G01X206632Y-141773D02*
X203965D01*
Y-135773D01*
X206632D01*
G01X205565Y-138673D02*
X203965D01*
G01X208765Y-141773D02*
Y-135773D01*
X210432D01*
X210965Y-136073D01*
X211298Y-136473D01*
X211432Y-137273D01*
X211298Y-138073D01*
X210898Y-138573D01*
X210432Y-138873D01*
X208765D01*
G01X210432D02*
X211432Y-141773D01*
G01X163865Y-94273D02*
Y-88273D01*
X165532D01*
X166065Y-88573D01*
X166398Y-88973D01*
X166532Y-89773D01*
X166398Y-90573D01*
X165998Y-91073D01*
X165532Y-91373D01*
X163865D01*
G01X165532D02*
X166532Y-94273D01*
G01X169998D02*
X169465Y-94173D01*
X168998Y-93773D01*
X168598Y-93173D01*
X168332Y-92473D01*
X168198Y-91673D01*
Y-90873D01*
X168332Y-90073D01*
X168598Y-89373D01*
X168998Y-88773D01*
X169465Y-88373D01*
X169998Y-88273D01*
X170532Y-88373D01*
X170998Y-88773D01*
X171398Y-89373D01*
X171665Y-90073D01*
X171798Y-90873D01*
Y-91673D01*
X171665Y-92473D01*
X171398Y-93173D01*
X170998Y-93773D01*
X170532Y-94173D01*
X169998Y-94273D01*
G01X173398D02*
Y-88273D01*
G01X176198D02*
Y-94273D01*
G01Y-91273D02*
X173398D01*
G01X177865Y-94273D02*
Y-88273D01*
X179598Y-93273D01*
X181332Y-88273D01*
Y-94273D01*
G01X187798Y-93473D02*
X188332Y-93973D01*
X188932Y-94273D01*
X189465D01*
X189998Y-93973D01*
X190398Y-93473D01*
X190598Y-92773D01*
X190465Y-92073D01*
X190132Y-91473D01*
X189532Y-91073D01*
X188732Y-90873D01*
X188265Y-90473D01*
X188065Y-89773D01*
X188198Y-89073D01*
X188532Y-88573D01*
X188998Y-88273D01*
X189465D01*
X189932Y-88473D01*
X190332Y-88973D01*
G01X195332Y-94273D02*
X192665D01*
Y-88273D01*
X195332D01*
G01X194265Y-91173D02*
X192665D01*
G01X197065Y-94273D02*
Y-88273D01*
X198798Y-93273D01*
X200532Y-88273D01*
Y-94273D01*
G01X202798Y-88273D02*
X204398D01*
G01X203598D02*
Y-94273D01*
G01X202798D02*
X204398D01*
G01X209865Y-88773D02*
X209465Y-88473D01*
X208998Y-88273D01*
X208465D01*
X207865Y-88573D01*
X207398Y-89073D01*
X207065Y-89673D01*
X206798Y-90673D01*
X206732Y-91573D01*
X206865Y-92473D01*
X207065Y-93073D01*
X207465Y-93673D01*
X207932Y-94073D01*
X208398Y-94273D01*
X208865D01*
X209332Y-94073D01*
X209732Y-93773D01*
X210065Y-93373D01*
G01X213198Y-94273D02*
X212665Y-94173D01*
X212198Y-93773D01*
X211798Y-93173D01*
X211532Y-92473D01*
X211398Y-91673D01*
Y-90873D01*
X211532Y-90073D01*
X211798Y-89373D01*
X212198Y-88773D01*
X212665Y-88373D01*
X213198Y-88273D01*
X213732Y-88373D01*
X214198Y-88773D01*
X214598Y-89373D01*
X214865Y-90073D01*
X214998Y-90873D01*
Y-91673D01*
X214865Y-92473D01*
X214598Y-93173D01*
X214198Y-93773D01*
X213732Y-94173D01*
X213198Y-94273D01*
G01X216465D02*
Y-88273D01*
X219532Y-94273D01*
Y-88273D01*
G01X221332Y-94273D02*
Y-88273D01*
X222665D01*
X223198Y-88573D01*
X223598Y-88973D01*
X223932Y-89573D01*
X224198Y-90273D01*
X224265Y-91273D01*
X224198Y-92273D01*
X223932Y-92973D01*
X223598Y-93573D01*
X223198Y-93973D01*
X222665Y-94273D01*
X221332D01*
G01X226132Y-88273D02*
Y-92573D01*
X226398Y-93473D01*
X226932Y-94073D01*
X227598Y-94273D01*
X228265Y-94073D01*
X228798Y-93473D01*
X229065Y-92573D01*
Y-88273D01*
G01X233865Y-88773D02*
X233465Y-88473D01*
X232999Y-88273D01*
X232465D01*
X231865Y-88573D01*
X231398Y-89073D01*
X231065Y-89673D01*
X230798Y-90673D01*
X230732Y-91573D01*
X230865Y-92473D01*
X231065Y-93073D01*
X231465Y-93673D01*
X231932Y-94073D01*
X232398Y-94273D01*
X232865D01*
X233332Y-94073D01*
X233732Y-93773D01*
X234065Y-93373D01*
G01X237198Y-88273D02*
Y-94273D01*
G01X235665Y-88273D02*
X238732D01*
G01X241998Y-94273D02*
X241465Y-94173D01*
X240998Y-93773D01*
X240598Y-93173D01*
X240332Y-92473D01*
X240198Y-91673D01*
Y-90873D01*
X240332Y-90073D01*
X240598Y-89373D01*
X240998Y-88773D01*
X241465Y-88373D01*
X241998Y-88273D01*
X242532Y-88373D01*
X242998Y-88773D01*
X243398Y-89373D01*
X243665Y-90073D01*
X243798Y-90873D01*
Y-91673D01*
X243665Y-92473D01*
X243398Y-93173D01*
X242998Y-93773D01*
X242532Y-94173D01*
X241998Y-94273D01*
G01X245465D02*
Y-88273D01*
X247132D01*
X247665Y-88573D01*
X247998Y-88973D01*
X248132Y-89773D01*
X247998Y-90573D01*
X247598Y-91073D01*
X247132Y-91373D01*
X245465D01*
G01X247132D02*
X248132Y-94273D01*
G01X254932Y-88273D02*
Y-92573D01*
X255198Y-93473D01*
X255732Y-94073D01*
X256398Y-94273D01*
X257065Y-94073D01*
X257598Y-93473D01*
X257865Y-92573D01*
Y-88273D01*
G01X259798Y-93473D02*
X260332Y-93973D01*
X260932Y-94273D01*
X261465D01*
X261998Y-93973D01*
X262398Y-93473D01*
X262598Y-92773D01*
X262465Y-92073D01*
X262132Y-91473D01*
X261532Y-91073D01*
X260732Y-90873D01*
X260265Y-90473D01*
X260065Y-89773D01*
X260198Y-89073D01*
X260532Y-88573D01*
X260998Y-88273D01*
X261465D01*
X261932Y-88473D01*
X262332Y-88973D01*
G01X264332Y-94273D02*
X265998Y-88273D01*
X267665Y-94273D01*
G01X267065Y-92173D02*
X264932D01*
G01X295698Y-135773D02*
X295165Y-135973D01*
X294765Y-136473D01*
X294498Y-137073D01*
X294298Y-137873D01*
X294232Y-138773D01*
X294298Y-139673D01*
X294498Y-140473D01*
X294765Y-141073D01*
X295165Y-141573D01*
X295698Y-141773D01*
X296232Y-141573D01*
X296632Y-141073D01*
X296898Y-140473D01*
X297098Y-139673D01*
X297165Y-138773D01*
X297098Y-137873D01*
X296898Y-137073D01*
X296632Y-136473D01*
X296232Y-135973D01*
X295698Y-135773D01*
G01X300498Y-141773D02*
Y-135773D01*
X299698Y-136973D01*
G01Y-141773D02*
X301298D01*
G54D14*
X23650Y61000D03*
X18350D03*
X29150Y76500D03*
X23850D03*
X28650Y56000D03*
X23350D03*
X34350Y76500D03*
X39650D03*
X38350Y100000D03*
X43650D03*
X111858Y35522D03*
Y29022D03*
X117158Y35522D03*
Y29022D03*
X171658Y60522D03*
X166358D03*
X166350Y55000D03*
X171650D03*
G54D23*
X53500Y71000D03*
G54D32*
X150982Y66912D03*
Y64943D03*
Y62975D03*
Y61006D03*
X158672Y66912D03*
Y64943D03*
Y62975D03*
Y61006D03*
G54D41*
X128165Y128708D03*
G54D51*
G01X42813Y90468D02*
X46532D01*
X48000Y89000D01*
X50850D01*
G01Y93000D02*
X47500D01*
X46937Y92437D01*
X42813D01*
G54D24*
X52220Y74197D03*
X54779D03*
Y67803D03*
X52220D03*
G54D33*
X154827Y63959D03*
G54D15*
X10297Y45673D03*
Y49217D03*
G54D42*
X123835Y128708D03*
G54D52*
G01X-104402Y-103513D02*
X-102622D01*
G01X-104402Y-104933D02*
Y-103513D01*
G01X-98261Y-104113D02*
X-104402D01*
G01Y-104813D02*
X-100742D01*
G01X-99952Y-110123D02*
X-104402Y-104933D01*
G01X-100502Y-105503D02*
X-103911D01*
G01X-105342Y-96903D02*
X-102311D01*
G01X-102902Y-98313D02*
X-105752D01*
G01D02*
X-105952Y-98343D01*
G01D02*
X-106132Y-98423D01*
G01D02*
X-106302Y-98543D01*
G01D02*
X-106422Y-98703D01*
G01D02*
X-106502Y-98893D01*
G01D02*
X-106522Y-99093D01*
G01D02*
Y-110123D01*
G01X-107592Y-97043D02*
X-105342Y-96903D01*
G01X-108492Y-97173D02*
X-99922D01*
G01X-109832Y-97873D02*
X-98211D01*
G01X-106311Y-98563D02*
X-109832D01*
G01Y-99253D02*
X-106522D01*
G01X-109832Y-100643D02*
X-106522D01*
G01Y-99953D02*
X-109832D01*
G01X-106522Y-101343D02*
X-109832D01*
G01Y-102033D02*
X-106522D01*
G01Y-102723D02*
X-109832D01*
G01Y-103423D02*
X-106522D01*
G01X-109832Y-104813D02*
X-106522D01*
G01Y-104113D02*
X-109832D01*
G01X-106522Y-105503D02*
X-109832D01*
G01Y-106193D02*
X-106522D01*
G01Y-106893D02*
X-109832D01*
G01X-106522Y-108283D02*
X-109832D01*
G01Y-107583D02*
X-106522D01*
G01X-109832Y-108973D02*
X-106522D01*
G01Y-109673D02*
X-109832D01*
G01Y-110123D02*
Y-97373D01*
G01D02*
X-107592Y-97043D01*
G01X-97552Y-98553D02*
X-97332Y-98863D01*
G01D02*
X-97182Y-99213D01*
G01D02*
X-97092Y-99593D01*
G01D02*
X-97072Y-99973D01*
G01D02*
Y-101973D01*
G01D02*
X-97111Y-102453D01*
G01D02*
X-97232Y-102913D01*
G01D02*
X-97452Y-103333D01*
G01D02*
X-97742Y-103713D01*
G01X-98452Y-97673D02*
X-97961Y-98073D01*
G01D02*
X-97552Y-98553D01*
G01X-97742Y-103713D02*
X-98102Y-104023D01*
G01X-99002Y-97373D02*
X-98452Y-97673D01*
G01X-98102Y-104023D02*
X-98702Y-104363D01*
G01D02*
X-99361Y-104603D01*
G01X-100142Y-100323D02*
X-100202Y-99883D01*
G01D02*
X-100352Y-99473D01*
G01X-97072Y-99953D02*
X-100192D01*
G01X-100142Y-100643D02*
X-97072D01*
G01X-100142Y-101423D02*
Y-100323D01*
G01X-97072Y-101343D02*
X-100142D01*
G01X-100311Y-102283D02*
X-100192Y-101863D01*
G01D02*
X-100142Y-101423D01*
G01X-100242Y-102033D02*
X-97082D01*
G01X-99361Y-104603D02*
X-100042Y-104723D01*
G01X-96702Y-109673D02*
X-100342D01*
G01X-100642Y-97023D02*
X-99002Y-97373D01*
G01X-100352Y-99473D02*
X-100582Y-99103D01*
G01D02*
X-100892Y-98793D01*
G01X-100482Y-99253D02*
X-97172D01*
G01X-100961Y-103053D02*
X-100502Y-102683D01*
G01D02*
X-100311Y-102283D01*
G01X-97182Y-102723D02*
X-100552D01*
G01X-100042Y-104723D02*
X-100742Y-104733D01*
G01D02*
Y-105243D01*
G01D02*
X-96292Y-110123D01*
G01X-100932Y-108973D02*
X-97342D01*
G01X-100892Y-98793D02*
X-101532Y-98503D01*
G01X-97542Y-98563D02*
X-101402D01*
G01X-102042Y-103473D02*
X-101482Y-103323D01*
G01D02*
X-100961Y-103053D01*
G01X-101852Y-103423D02*
X-97511D01*
G01X-102122Y-107583D02*
X-98602D01*
G01X-97972Y-108283D02*
X-101532D01*
G01X-102311Y-96903D02*
X-100642Y-97023D01*
G01X-101532Y-98503D02*
X-102211Y-98343D01*
G01D02*
X-102902Y-98313D01*
G01X-102622Y-103513D02*
X-102042Y-103473D01*
G01X-99232Y-106893D02*
X-102722D01*
G01X-103311Y-106193D02*
X-99872D01*
G01X-103572Y-114633D02*
X-103761Y-114693D01*
G01X-103511Y-117903D02*
X-103692Y-117863D01*
G01X-103761Y-114693D02*
X-103942Y-114783D01*
G01D02*
X-104092Y-114913D01*
G01D02*
X-104222Y-115063D01*
G01D02*
X-104311Y-115243D01*
G01D02*
X-104372Y-115433D01*
G01D02*
X-104392Y-115633D01*
G01X-104402Y-116863D02*
Y-116273D01*
G01D02*
X-101561D01*
G01X-104402Y-115633D02*
Y-116273D01*
G01X-103692Y-117863D02*
X-103861Y-117783D01*
G01D02*
X-104011Y-117673D01*
G01D02*
X-104142Y-117543D01*
G01D02*
X-104252Y-117393D01*
G01D02*
X-104332Y-117223D01*
G01D02*
X-104372Y-117043D01*
G01D02*
X-104392Y-116863D01*
G01X-107161Y-116283D02*
X-107011Y-116323D01*
G01D02*
X-106882Y-116393D01*
G01D02*
X-106752Y-116493D01*
G01D02*
X-106652Y-116623D01*
G01D02*
X-106582Y-116753D01*
G01D02*
X-106542Y-116903D01*
G01D02*
X-106522Y-117063D01*
G01D02*
X-106542Y-117233D01*
G01D02*
X-106592Y-117393D01*
G01D02*
X-106661Y-117543D01*
G01D02*
X-106772Y-117673D01*
G01D02*
X-106902Y-117783D01*
G01D02*
X-107052Y-117853D01*
G01D02*
X-107211Y-117903D01*
G01X-107322Y-116263D02*
X-107161Y-116283D01*
G01X-107211Y-117903D02*
X-107382Y-117923D01*
G01X-108942Y-116273D02*
X-107322D01*
G01X-106522Y-110123D02*
X-109832D01*
G01X-106522Y-114613D02*
X-109072D01*
G01D02*
X-109242Y-114633D01*
G01D02*
X-109402Y-114693D01*
G01D02*
X-109542Y-114783D01*
G01D02*
X-109661Y-114903D01*
G01X-109682Y-115863D02*
X-109572Y-116003D01*
G01D02*
X-109432Y-116113D01*
G01D02*
X-109282Y-116193D01*
G01D02*
X-109111Y-116243D01*
G01D02*
X-108942Y-116263D01*
G01X-107382Y-117923D02*
X-109832D01*
G01X-109661Y-114903D02*
X-109752Y-115043D01*
G01D02*
X-109811Y-115203D01*
G01X-109832Y-115373D02*
X-109811Y-115543D01*
G01D02*
X-109761Y-115713D01*
G01X-109811Y-115203D02*
X-109832Y-115373D01*
G01X-109761Y-115713D02*
X-109682Y-115863D01*
G01X-95182Y-114613D02*
X-95702D01*
G01D02*
X-97111Y-117923D01*
G01D02*
X-98652Y-114613D01*
G01D02*
X-99202D01*
G01D02*
Y-117923D01*
G01X-96292Y-110123D02*
X-99952D01*
G01X-101561Y-114613D02*
X-103372D01*
G01D02*
X-103572Y-114633D01*
G01X-101561Y-117923D02*
X-103332D01*
G01D02*
X-103511Y-117903D01*
G01X-81222Y-99403D02*
X-81502Y-98883D01*
G01X-81011Y-100563D02*
X-81061Y-99973D01*
G01D02*
X-81222Y-99403D01*
G01X-81061Y-107253D02*
X-81011Y-106703D01*
G01D02*
Y-100563D01*
G01X-81242Y-107773D02*
X-81061Y-107253D01*
G01X-81532Y-108243D02*
X-81242Y-107773D01*
G01X-81502Y-98883D02*
X-81882Y-98433D01*
G01D02*
X-82402Y-97993D01*
G01X-82382Y-109073D02*
X-81922Y-108633D01*
G01D02*
X-81532Y-108243D01*
G01X-82402Y-97993D02*
X-82982Y-97643D01*
G01X-82911Y-109423D02*
X-82382Y-109073D01*
G01X-82982Y-97643D02*
X-83611Y-97373D01*
G01X-84122Y-100113D02*
X-84082Y-100563D01*
G01Y-100643D02*
X-81011D01*
G01X-81061Y-99953D02*
X-84172D01*
G01X-81011Y-101343D02*
X-84082D01*
G01Y-102033D02*
X-81011D01*
G01Y-102723D02*
X-84082D01*
G01Y-103423D02*
X-81011D01*
G01X-84082Y-104813D02*
X-81011D01*
G01Y-104113D02*
X-84082D01*
G01X-81011Y-105503D02*
X-84082D01*
G01Y-100563D02*
Y-106233D01*
G01Y-106193D02*
X-81011D01*
G01X-84082Y-106233D02*
X-84142Y-106813D01*
G01X-81032Y-106893D02*
X-84172D01*
G01X-83492Y-109693D02*
X-82911Y-109423D01*
G01X-83611Y-97373D02*
X-84422Y-97093D01*
G01X-84832Y-99023D02*
X-84502Y-99323D01*
G01D02*
X-84261Y-99693D01*
G01D02*
X-84122Y-100113D01*
G01X-84582Y-99253D02*
X-81302D01*
G01X-84142Y-106813D02*
X-84332Y-107373D01*
G01D02*
X-84632Y-107883D01*
G01X-84461Y-107583D02*
X-81182D01*
G01X-84361Y-109953D02*
X-83492Y-109693D01*
G01X-84422Y-97093D02*
X-85272Y-96933D01*
G01X-85742Y-98473D02*
X-85261Y-98703D01*
G01D02*
X-84832Y-99023D01*
G01X-81772Y-98563D02*
X-85552D01*
G01X-84632Y-107883D02*
X-85102Y-108253D01*
G01X-81572Y-108283D02*
X-85161D01*
G01X-85102Y-108253D02*
X-85632Y-108513D01*
G01X-85272Y-96933D02*
X-86132Y-96903D01*
G01X-86802Y-98313D02*
X-86261Y-98343D01*
G01D02*
X-85742Y-98473D01*
G01X-85632Y-108513D02*
X-86202Y-108673D01*
G01D02*
X-86802Y-108713D01*
G01X-88252Y-98313D02*
X-86802D01*
G01Y-108713D02*
X-88411D01*
G01X-86132Y-96903D02*
X-89242D01*
G01X-88822Y-98353D02*
X-88252Y-98313D01*
G01X-88411Y-108713D02*
X-88892Y-108663D01*
G01X-89242Y-96903D02*
X-90042Y-96933D01*
G01X-89872Y-98773D02*
X-89372Y-98503D01*
G01D02*
X-88822Y-98353D01*
G01X-89361Y-108513D02*
X-89782Y-108283D01*
G01X-88892Y-108663D02*
X-89361Y-108513D01*
G01X-90042Y-96933D02*
X-90842Y-97073D01*
G01X-90302Y-99143D02*
X-89872Y-98773D01*
G01X-90572Y-99453D02*
X-90302Y-99143D01*
G01X-90932Y-100603D02*
X-90892Y-100193D01*
G01D02*
X-90772Y-99803D01*
G01D02*
X-90572Y-99453D01*
G01X-90932Y-103043D02*
Y-100603D01*
G01Y-106233D02*
Y-103043D01*
G01X-90752Y-107193D02*
X-90902Y-106723D01*
G01D02*
X-90932Y-106233D01*
G01X-89782Y-108283D02*
X-90142Y-107963D01*
G01D02*
X-90492Y-107613D01*
G01D02*
X-90752Y-107193D01*
G01X-84182Y-97173D02*
X-91132D01*
G01X-90842Y-97073D02*
X-91602Y-97333D01*
G01X-91652Y-109693D02*
X-90972Y-109893D01*
G01X-91711Y-109673D02*
X-83442D01*
G01X-91602Y-97333D02*
X-92311Y-97723D01*
G01X-92492Y-97873D02*
X-82611D01*
G01X-92302Y-109403D02*
X-91652Y-109693D01*
G01X-92311Y-97723D02*
X-92942Y-98233D01*
G01D02*
X-93311Y-98543D01*
G01X-89472Y-98563D02*
X-93322D01*
G01X-89772Y-108283D02*
X-93652D01*
G01X-93292Y-108733D02*
X-92902Y-109023D01*
G01D02*
X-92302Y-109403D01*
G01X-92972Y-108973D02*
X-82282D01*
G01X-93311Y-98543D02*
X-93602Y-98923D01*
G01X-93832Y-99343D02*
X-93961Y-99803D01*
G01X-93602Y-98923D02*
X-93832Y-99343D01*
G01X-93782Y-99253D02*
X-90402D01*
G01X-93961Y-99803D02*
X-94002Y-100283D01*
G01X-90822Y-99953D02*
X-93972D01*
G01X-94002Y-100643D02*
X-90932D01*
G01Y-101343D02*
X-94002D01*
G01Y-102033D02*
X-90932D01*
G01X-94002Y-100283D02*
Y-103043D01*
G01D02*
X-90932D01*
G01D02*
X-94002D01*
G01X-90932Y-102723D02*
X-94002D01*
G01Y-103423D02*
X-90932D01*
G01Y-104113D02*
X-94002D01*
G01Y-104813D02*
X-90932D01*
G01Y-105503D02*
X-94002D01*
G01Y-106193D02*
X-90932D01*
G01X-94002Y-103043D02*
Y-106973D01*
G01D02*
X-93972Y-107463D01*
G01X-90842Y-106893D02*
X-94002D01*
G01X-93972Y-107463D02*
X-93832Y-107933D01*
G01D02*
X-93602Y-108363D01*
G01D02*
X-93292Y-108733D01*
G01X-93932Y-107583D02*
X-90511D01*
G01X-54342Y-99143D02*
X-54322Y-99353D01*
G01X-54332Y-99253D02*
X-51002D01*
G01X-51011Y-99953D02*
X-54322D01*
G01Y-100643D02*
X-51011D01*
G01Y-101343D02*
X-54322D01*
G01Y-102033D02*
X-51011D01*
G01Y-102723D02*
X-54322D01*
G01Y-103423D02*
X-51011D01*
G01Y-104113D02*
X-54322D01*
G01Y-104813D02*
X-51011D01*
G01Y-105503D02*
X-54322D01*
G01Y-106193D02*
X-51011D01*
G01Y-106893D02*
X-54322D01*
G01Y-107583D02*
X-51011D01*
G01Y-108283D02*
X-54322D01*
G01Y-108973D02*
X-51011D01*
G01Y-109673D02*
X-54322D01*
G01Y-99353D02*
Y-110123D01*
G01X-50222Y-96903D02*
X-54552D01*
G01X-55122Y-98553D02*
X-54911Y-98583D01*
G01D02*
X-54722Y-98663D01*
G01D02*
X-54552Y-98783D01*
G01D02*
X-54432Y-98953D01*
G01D02*
X-54342Y-99143D01*
G01X-50282Y-98563D02*
X-55042D01*
G01X-56782Y-98583D02*
X-56561Y-98553D01*
G01D02*
X-55122D01*
G01X-54552Y-96903D02*
X-57522Y-96993D01*
G01X-57152Y-98793D02*
X-56972Y-98663D01*
G01D02*
X-56782Y-98583D01*
G01X-57392Y-99383D02*
X-57361Y-99163D01*
G01D02*
X-57282Y-98963D01*
G01D02*
X-57152Y-98793D01*
G01X-57392Y-110123D02*
Y-99383D01*
G01X-58911Y-97173D02*
X-47761D01*
G01X-60461Y-97873D02*
X-46182D01*
G01X-57522Y-96993D02*
X-60461Y-97373D01*
G01X-56642Y-98563D02*
X-60461D01*
G01Y-99253D02*
X-57372D01*
G01X-60461Y-100643D02*
X-57392D01*
G01Y-99953D02*
X-60461D01*
G01X-57392Y-101343D02*
X-60461D01*
G01Y-102033D02*
X-57392D01*
G01Y-102723D02*
X-60461D01*
G01Y-103423D02*
X-57392D01*
G01X-60461Y-104813D02*
X-57392D01*
G01Y-104113D02*
X-60461D01*
G01X-57392Y-105503D02*
X-60461D01*
G01Y-106193D02*
X-57392D01*
G01Y-106893D02*
X-60461D01*
G01X-57392Y-108283D02*
X-60461D01*
G01Y-107583D02*
X-57392D01*
G01X-60461Y-108973D02*
X-57392D01*
G01Y-109673D02*
X-60461D01*
G01Y-97373D02*
Y-110123D01*
G01X-64002D02*
Y-97373D01*
G01D02*
X-67311D01*
G01Y-97873D02*
X-64002D01*
G01Y-98563D02*
X-67311D01*
G01Y-99253D02*
X-64002D01*
G01X-67311Y-100643D02*
X-64002D01*
G01Y-99953D02*
X-67311D01*
G01X-64002Y-101343D02*
X-67311D01*
G01Y-97373D02*
Y-101783D01*
G01D02*
X-67342Y-101983D01*
G01D02*
X-67422Y-102173D01*
G01X-67361Y-102033D02*
X-64002D01*
G01X-67422Y-102173D02*
X-67542Y-102343D01*
G01D02*
X-67702Y-102463D01*
G01D02*
X-67892Y-102543D01*
G01X-67932Y-104253D02*
X-67722Y-104333D01*
G01D02*
X-67552Y-104463D01*
G01D02*
X-67422Y-104633D01*
G01D02*
X-67342Y-104833D01*
G01X-64002Y-104813D02*
X-67352D01*
G01X-67342Y-104833D02*
X-67311Y-105053D01*
G01Y-105503D02*
X-64002D01*
G01Y-106193D02*
X-67311D01*
G01Y-106893D02*
X-64002D01*
G01X-67311Y-108283D02*
X-64002D01*
G01Y-107583D02*
X-67311D01*
G01X-64002Y-108973D02*
X-67311D01*
G01Y-109673D02*
X-64002D01*
G01X-67311Y-105053D02*
Y-110123D01*
G01X-67892Y-102543D02*
X-68092Y-102563D01*
G01X-68142Y-104223D02*
X-67932Y-104253D01*
G01X-68092Y-102563D02*
X-73592D01*
G01D02*
X-73802Y-102543D01*
G01X-73822Y-104243D02*
X-73622Y-104223D01*
G01D02*
X-68142D01*
G01X-73802Y-102543D02*
X-73992Y-102463D01*
G01D02*
X-74161Y-102333D01*
G01D02*
X-74292Y-102163D01*
G01D02*
X-74372Y-101973D01*
G01D02*
X-74402Y-101763D01*
G01D02*
Y-97373D01*
G01X-74011Y-104323D02*
X-73822Y-104243D01*
G01X-74372Y-104803D02*
X-74292Y-104613D01*
G01D02*
X-74172Y-104453D01*
G01D02*
X-74011Y-104323D01*
G01X-74402Y-105003D02*
X-74372Y-104803D01*
G01X-74402Y-110123D02*
Y-105003D01*
G01X-77702Y-97873D02*
X-74402D01*
G01Y-97373D02*
X-77702D01*
G01X-74402Y-98563D02*
X-77702D01*
G01Y-99253D02*
X-74402D01*
G01Y-99953D02*
X-77702D01*
G01Y-100643D02*
X-74402D01*
G01Y-101343D02*
X-77702D01*
G01Y-102033D02*
X-74342D01*
G01X-77702Y-102723D02*
X-64002D01*
G01Y-103423D02*
X-77702D01*
G01X-74372Y-104813D02*
X-77702D01*
G01Y-104113D02*
X-64002D01*
G01X-77702Y-105503D02*
X-74402D01*
G01Y-106193D02*
X-77702D01*
G01Y-106893D02*
X-74402D01*
G01Y-107583D02*
X-77702D01*
G01Y-108283D02*
X-74402D01*
G01Y-108973D02*
X-77702D01*
G01Y-109673D02*
X-74402D01*
G01X-77702Y-97373D02*
Y-110123D01*
G01X-76602Y-117923D02*
X-78882Y-114613D01*
G01D02*
X-79361D01*
G01D02*
Y-117923D01*
G01X-82022Y-115073D02*
X-82182Y-114913D01*
G01D02*
X-82372Y-114783D01*
G01X-81722Y-115913D02*
X-81742Y-115683D01*
G01D02*
X-81802Y-115473D01*
G01D02*
X-81892Y-115263D01*
G01D02*
X-82022Y-115073D01*
G01X-81722Y-116603D02*
Y-115913D01*
G01X-81742Y-116813D02*
X-81722Y-116603D01*
G01X-82261Y-117673D02*
X-82111Y-117533D01*
G01D02*
X-81972Y-117383D01*
G01D02*
X-81861Y-117203D01*
G01D02*
X-81782Y-117013D01*
G01D02*
X-81742Y-116813D01*
G01X-82372Y-114783D02*
X-82582Y-114693D01*
G01D02*
X-82792Y-114633D01*
G01D02*
X-83022Y-114613D01*
G01X-83042Y-117923D02*
X-82832Y-117903D01*
G01D02*
X-82632Y-117863D01*
G01D02*
X-82442Y-117783D01*
G01D02*
X-82261Y-117673D01*
G01X-83022Y-114613D02*
X-83761D01*
G01D02*
X-83982Y-114633D01*
G01X-84182Y-117843D02*
X-83961Y-117903D01*
G01D02*
X-83742Y-117923D01*
G01D02*
X-83042D01*
G01X-83982Y-114633D02*
X-84192Y-114693D01*
G01D02*
X-84392Y-114783D01*
G01D02*
X-84582Y-114913D01*
G01D02*
X-84732Y-115063D01*
G01D02*
X-84861Y-115243D01*
G01D02*
X-84952Y-115453D01*
G01D02*
X-85011Y-115663D01*
G01D02*
X-85032Y-115883D01*
G01D02*
Y-116633D01*
G01D02*
X-85011Y-116853D01*
G01D02*
X-84952Y-117073D01*
G01D02*
X-84861Y-117273D01*
G01D02*
X-84732Y-117463D01*
G01D02*
X-84572Y-117623D01*
G01D02*
X-84392Y-117753D01*
G01D02*
X-84182Y-117843D01*
G01X-85261Y-110093D02*
X-84361Y-109953D01*
G01X-86172Y-110123D02*
X-85261Y-110093D01*
G01X-88922Y-110123D02*
X-86172D01*
G01X-89111Y-114633D02*
X-88902Y-114613D01*
G01D02*
X-87152D01*
G01Y-117923D02*
X-88902D01*
G01D02*
X-89092Y-117903D01*
G01D02*
X-89272Y-117853D01*
G01X-89952Y-110063D02*
X-88922Y-110123D01*
G01X-89322Y-114693D02*
X-89111Y-114633D01*
G01X-89672Y-114933D02*
X-89511Y-114793D01*
G01D02*
X-89322Y-114693D01*
G01X-89992Y-115703D02*
X-89972Y-115493D01*
G01D02*
X-89911Y-115283D01*
G01D02*
X-89811Y-115093D01*
G01D02*
X-89672Y-114933D01*
G01X-89992Y-116833D02*
Y-115703D01*
G01X-89272Y-117853D02*
X-89452Y-117773D01*
G01D02*
X-89602Y-117663D01*
G01D02*
X-89732Y-117533D01*
G01D02*
X-89842Y-117373D01*
G01D02*
X-89922Y-117203D01*
G01D02*
X-89972Y-117023D01*
G01D02*
X-89992Y-116833D01*
G01X-90972Y-109893D02*
X-89952Y-110063D01*
G01X-92592Y-114613D02*
Y-117923D01*
G01X-95182D02*
Y-114613D01*
G01X-54322Y-110123D02*
X-51011D01*
G01X-55502Y-114613D02*
X-56922D01*
G01D02*
Y-117923D01*
G01X-58332Y-114613D02*
X-56922D01*
G01X-60461Y-110123D02*
X-57392D01*
G01X-62022Y-114613D02*
X-60222D01*
G01Y-117923D02*
X-61992D01*
G01X-62692Y-114853D02*
X-62542Y-114753D01*
G01D02*
X-62382Y-114673D01*
G01D02*
X-62202Y-114633D01*
G01D02*
X-62022Y-114613D01*
G01X-61992Y-117923D02*
X-62182Y-117903D01*
G01D02*
X-62361Y-117863D01*
G01D02*
X-62532Y-117783D01*
G01D02*
X-62682Y-117673D01*
G01X-63002Y-115293D02*
X-62922Y-115133D01*
G01D02*
X-62822Y-114983D01*
G01D02*
X-62692Y-114853D01*
G01X-63061Y-115653D02*
X-63042Y-115473D01*
G01D02*
X-63002Y-115293D01*
G01X-63061Y-116853D02*
Y-115653D01*
G01X-62682Y-117673D02*
X-62811Y-117543D01*
G01D02*
X-62922Y-117383D01*
G01D02*
X-63002Y-117223D01*
G01D02*
X-63042Y-117043D01*
G01D02*
X-63061Y-116853D01*
G01X-65182Y-114613D02*
Y-116613D01*
G01X-65192D02*
X-65211Y-116843D01*
G01D02*
X-65272Y-117063D01*
G01D02*
X-65372Y-117263D01*
G01D02*
X-65502Y-117453D01*
G01D02*
X-65661Y-117613D01*
G01D02*
X-65842Y-117743D01*
G01D02*
X-66052Y-117843D01*
G01D02*
X-66272Y-117903D01*
G01D02*
X-66502Y-117923D01*
G01D02*
X-67022D01*
G01X-67311Y-110123D02*
X-64002D01*
G01X-67022Y-117923D02*
X-67242Y-117903D01*
G01D02*
X-67442Y-117853D01*
G01D02*
X-67642Y-117753D01*
G01D02*
X-67822Y-117633D01*
G01X-68252Y-116683D02*
Y-114613D01*
G01X-67822Y-117633D02*
X-67972Y-117483D01*
G01D02*
X-68092Y-117303D01*
G01D02*
X-68192Y-117103D01*
G01D02*
X-68242Y-116903D01*
G01D02*
X-68261Y-116683D01*
G01X-71261Y-114783D02*
X-71082Y-114913D01*
G01D02*
X-70922Y-115073D01*
G01D02*
X-70792Y-115253D01*
G01D02*
X-70702Y-115463D01*
G01D02*
X-70642Y-115683D01*
G01D02*
X-70622Y-115903D01*
G01D02*
Y-116613D01*
G01D02*
X-70642Y-116813D01*
G01D02*
X-70682Y-117013D01*
G01D02*
X-70761Y-117203D01*
G01D02*
X-70872Y-117383D01*
G01D02*
X-71002Y-117543D01*
G01D02*
X-71161Y-117673D01*
G01X-71911Y-114613D02*
X-71692Y-114633D01*
G01D02*
X-71472Y-114693D01*
G01D02*
X-71261Y-114783D01*
G01X-71161Y-117673D02*
X-71342Y-117783D01*
G01D02*
X-71532Y-117863D01*
G01D02*
X-71732Y-117903D01*
G01D02*
X-71932Y-117923D01*
G01X-73692Y-114613D02*
X-71911D01*
G01X-71932Y-117923D02*
X-73692D01*
G01D02*
Y-114613D01*
G01X-76052D02*
Y-117923D01*
G01D02*
X-76602D01*
G01X-77702Y-110123D02*
X-74402D01*
G01X-44872Y-100163D02*
X-44922Y-99613D01*
G01X-44872Y-110123D02*
Y-100163D01*
G01X-44922Y-99613D02*
X-45082Y-99083D01*
G01D02*
X-45361Y-98603D01*
G01D02*
X-45742Y-98193D01*
G01D02*
X-46392Y-97713D01*
G01D02*
X-47122Y-97353D01*
G01D02*
X-47902Y-97133D01*
G01X-48232Y-98993D02*
X-48072Y-99233D01*
G01D02*
X-47972Y-99513D01*
G01X-48061Y-99253D02*
X-45032D01*
G01X-47972Y-99513D02*
X-47942Y-99813D01*
G01X-44892Y-99953D02*
X-47942D01*
G01Y-100643D02*
X-44872D01*
G01Y-101343D02*
X-47942D01*
G01Y-102033D02*
X-44872D01*
G01Y-102723D02*
X-47942D01*
G01Y-103423D02*
X-44872D01*
G01Y-104113D02*
X-47942D01*
G01Y-104813D02*
X-44872D01*
G01Y-105503D02*
X-47942D01*
G01Y-106193D02*
X-44872D01*
G01Y-106893D02*
X-47942D01*
G01Y-107583D02*
X-44872D01*
G01Y-108283D02*
X-47942D01*
G01Y-108973D02*
X-44872D01*
G01Y-109673D02*
X-47942D01*
G01Y-99813D02*
Y-110123D01*
G01X-47902Y-97133D02*
X-49061Y-96963D01*
G01X-48932Y-98623D02*
X-48452Y-98793D01*
G01D02*
X-48232Y-98993D01*
G01X-49442Y-98553D02*
X-48932Y-98623D01*
G01X-45402Y-98563D02*
X-49361D01*
G01X-49061Y-96963D02*
X-50222Y-96903D01*
G01X-50772Y-98793D02*
X-50602Y-98663D01*
G01D02*
X-50411Y-98583D01*
G01D02*
X-50202Y-98553D01*
G01D02*
X-49442D01*
G01X-50902Y-98953D02*
X-50772Y-98793D01*
G01X-51011Y-99363D02*
X-50982Y-99153D01*
G01D02*
X-50902Y-98953D01*
G01X-51011Y-110123D02*
Y-99363D01*
G01X-53082Y-115073D02*
X-53211Y-115253D01*
G01D02*
X-53302Y-115463D01*
G01D02*
X-53361Y-115683D01*
G01D02*
X-53382Y-115903D01*
G01X-53372D02*
Y-116613D01*
G01D02*
X-53352Y-116813D01*
G01D02*
X-53311Y-117013D01*
G01D02*
X-53232Y-117203D01*
G01D02*
X-53122Y-117383D01*
G01X-44932Y-115103D02*
X-44892Y-115253D01*
G01D02*
X-44872Y-115413D01*
G01D02*
X-44892Y-115583D01*
G01X-45672Y-114613D02*
X-45511Y-114633D01*
G01D02*
X-45361Y-114673D01*
G01D02*
X-45232Y-114743D01*
G01D02*
X-45102Y-114843D01*
G01D02*
X-45002Y-114973D01*
G01D02*
X-44932Y-115103D01*
G01X-44892Y-115583D02*
X-44942Y-115743D01*
G01D02*
X-45011Y-115893D01*
G01D02*
X-45122Y-116023D01*
G01D02*
X-45252Y-116133D01*
G01D02*
X-45402Y-116203D01*
G01D02*
X-45561Y-116253D01*
G01D02*
X-45732Y-116273D01*
G01D02*
X-46011D01*
G01X-45111Y-117923D02*
X-46011Y-116273D01*
G01X-47942Y-110123D02*
X-44872D01*
G01X-47942Y-114613D02*
X-45672D01*
G01X-46011Y-116273D02*
X-47942D01*
G01Y-114613D02*
Y-116273D01*
G01D02*
Y-117923D01*
G01X-50072Y-115893D02*
X-50092Y-115673D01*
G01X-50072Y-116623D02*
Y-115893D01*
G01X-50092Y-116853D02*
X-50072Y-116623D01*
G01X-50092Y-115673D02*
X-50152Y-115453D01*
G01D02*
X-50242Y-115253D01*
G01D02*
X-50372Y-115073D01*
G01D02*
X-50531Y-114913D01*
G01D02*
X-50711Y-114783D01*
G01X-50722Y-117753D02*
X-50531Y-117623D01*
G01D02*
X-50372Y-117463D01*
G01D02*
X-50242Y-117273D01*
G01D02*
X-50152Y-117063D01*
G01D02*
X-50092Y-116853D01*
G01X-50711Y-114783D02*
X-50911Y-114693D01*
G01D02*
X-51132Y-114633D01*
G01D02*
X-51352Y-114613D01*
G01X-51372Y-117923D02*
X-51142Y-117903D01*
G01D02*
X-50931Y-117843D01*
G01D02*
X-50722Y-117753D01*
G01X-51352Y-114613D02*
X-52092D01*
G01D02*
X-52311Y-114633D01*
G01D02*
X-52532Y-114693D01*
G01X-52461Y-117863D02*
X-52261Y-117903D01*
G01D02*
X-52061Y-117923D01*
G01D02*
X-51372D01*
G01X-52532Y-114693D02*
X-52732Y-114783D01*
G01D02*
X-52922Y-114913D01*
G01D02*
X-53082Y-115073D01*
G01X-53122Y-117383D02*
X-52992Y-117543D01*
G01D02*
X-52832Y-117673D01*
G01D02*
X-52652Y-117783D01*
G01D02*
X-52461Y-117863D01*
G54D43*
X122208Y130335D03*
G54D16*
X24187Y84563D03*
Y86532D03*
Y88500D03*
Y90468D03*
Y92437D03*
X42813Y84563D03*
Y92437D03*
Y90468D03*
Y88500D03*
Y86532D03*
G54D34*
X132257Y109172D03*
Y107203D03*
Y105235D03*
X122633Y109172D03*
Y107203D03*
Y105235D03*
X154133Y108672D03*
Y106703D03*
Y104735D03*
X163757Y108672D03*
Y106703D03*
Y104735D03*
G54D25*
X34386Y62890D03*
X32614D03*
Y69110D03*
X34386D03*
G54D53*
G01X27400Y90468D02*
X24187D01*
G01X53004Y40453D02*
Y43004D01*
G01X44000Y37500D02*
X44984Y36516D01*
G01X44000Y37500D02*
X44984Y38484D01*
G01Y36516D02*
X46996D01*
G01X44984Y38484D02*
X46996D01*
G01Y40453D02*
X45547D01*
X44000Y42000D01*
G01X46996Y34547D02*
Y32996D01*
X45000Y31000D01*
G01X53004Y38484D02*
X54984D01*
X56500Y40000D01*
G01X54500Y31000D02*
X53004Y32496D01*
Y34547D01*
G01Y43004D02*
X53500Y43500D01*
G01X43350Y63500D02*
X40500D01*
X39968Y64032D01*
G01D02*
X39772Y64228D01*
X36610D01*
G01X34484Y60016D02*
X34386Y60114D01*
Y62890D01*
G01X46996Y160984D02*
X44984D01*
G01X46996Y159016D02*
X44984D01*
G01X53500Y166000D02*
X53004Y165504D01*
G01X44984Y160984D02*
X44000Y160000D01*
G01X44984Y159016D02*
X44000Y160000D01*
G01X53004Y165504D02*
Y162953D01*
G01Y160984D02*
X54984D01*
X56500Y162500D01*
G01X54500Y153500D02*
X53004Y154996D01*
Y157047D01*
G01X46996D02*
Y155496D01*
X45000Y153500D01*
G01X46996Y162953D02*
X45547D01*
X44000Y164500D01*
G01X154133Y108672D02*
X153328D01*
X151500Y110500D01*
G01X155008Y101891D02*
X152891D01*
X152000Y101000D01*
G01X123508Y102391D02*
X120575Y99458D01*
Y97925D01*
G01D02*
X117650Y95000D01*
G01X122633Y109172D02*
X119172D01*
G01X133500Y129000D02*
X132165Y130335D01*
X129792D01*
G01X163000Y64500D02*
X161475Y62975D01*
X158672D01*
G01X165858Y66522D02*
X165022D01*
X163000Y64500D01*
G01X172500Y112150D02*
X169850D01*
X167300Y109600D01*
G01D02*
X166372Y108672D01*
X163757D01*
G01X158976Y131046D02*
Y129953D01*
X157500Y128476D01*
G01X248004Y40453D02*
Y43004D01*
G01X241996Y38484D02*
X239984D01*
G01X241996Y36516D02*
X239984D01*
G01Y38484D02*
X239000Y37500D01*
G01X239984Y36516D02*
X239000Y37500D01*
G01X248004Y34547D02*
Y32496D01*
G01D02*
X249500Y31000D01*
G01X238500Y42000D02*
X239000D01*
X240547Y40453D01*
X241996D01*
G01Y34547D02*
Y32996D01*
X240000Y31000D01*
G01X248004Y38484D02*
X249984D01*
X251500Y40000D01*
G01X248004Y43004D02*
X249500Y44500D01*
G01Y153500D02*
X248004Y154996D01*
G01X248500Y166000D02*
X248004Y165504D01*
G01X239000Y160000D02*
X239984Y159016D01*
G01X239000Y160000D02*
X239984Y160984D01*
G01X248004Y154996D02*
Y157047D01*
G01Y165504D02*
Y162953D01*
G01X239984Y159016D02*
X241996D01*
G01X239984Y160984D02*
X241996D01*
G01Y162953D02*
X240547D01*
X239000Y164500D01*
G01X248004Y160984D02*
X249984D01*
X251500Y162500D01*
G01X239000Y155000D02*
X239500D01*
X241547Y157047D01*
X241996D01*
G54D17*
X14000Y200000D03*
X24000D03*
X14000Y210000D03*
X24000D03*
X70000Y10000D03*
X60000D03*
X34000Y200000D03*
X44000D03*
X54000D03*
X64000D03*
X74000D03*
X34000Y210000D03*
X44000D03*
X54000D03*
X64000D03*
X74000D03*
X110000Y10000D03*
X100000D03*
X90000D03*
X80000D03*
X84000Y200000D03*
X94000D03*
X84000Y210000D03*
X94000D03*
X150000Y10000D03*
X120000D03*
Y200000D03*
X130000D03*
X140000D03*
X150000D03*
X160000Y10000D03*
X170000D03*
X180000D03*
X190000D03*
X160000Y200000D03*
X170000D03*
X180000D03*
X210000Y10000D03*
X220000D03*
X230000D03*
X200000Y119500D03*
Y109500D03*
Y99500D03*
Y89500D03*
X220000Y210000D03*
X210000D03*
G54D44*
X122208Y132500D03*
G54D35*
X123508Y102391D03*
X125476D03*
X127445D03*
X129413D03*
X131382D03*
X123508Y112015D03*
X125476D03*
X127445D03*
X129413D03*
X131382D03*
X155008Y101891D03*
X156976D03*
X158945D03*
X160913D03*
X162882D03*
X155008Y111515D03*
X156976D03*
X158945D03*
X160913D03*
X162882D03*
G54D26*
X30390Y64228D03*
Y66000D03*
Y67772D03*
X36610D03*
Y66000D03*
Y64228D03*
G54D54*
G01X117500Y173500D02*
Y176850D01*
G54D45*
X123835Y136292D03*
G54D27*
X97658Y41806D03*
G54D36*
X128942Y132500D03*
G54D18*
X46996Y40453D03*
Y38484D03*
Y36516D03*
Y34547D03*
X53004Y40453D03*
Y38484D03*
Y36516D03*
Y34547D03*
X46996Y162953D03*
Y160984D03*
Y159016D03*
Y157047D03*
X53004Y162953D03*
Y160984D03*
Y159016D03*
Y157047D03*
X241996Y40453D03*
Y38484D03*
Y36516D03*
Y34547D03*
X248004Y40453D03*
Y38484D03*
Y36516D03*
Y34547D03*
X241996Y162953D03*
Y160984D03*
Y159016D03*
Y157047D03*
X248004Y162953D03*
Y160984D03*
Y159016D03*
Y157047D03*
G54D55*
G01X54779Y74197D02*
Y75720D01*
X53500Y77000D01*
G01X52220Y74197D02*
Y75720D01*
X53500Y77000D01*
G01X52220Y67803D02*
Y65720D01*
X51500Y65000D01*
G54D46*
X122208Y134665D03*
G54D28*
X98051Y35703D03*
Y29207D03*
X88839D03*
Y35703D03*
Y42199D03*
G54D19*
X49016Y40453D03*
Y34547D03*
X50984Y40453D03*
Y34547D03*
X49016Y162953D03*
Y157047D03*
X50984Y162953D03*
Y157047D03*
X244016Y40453D03*
Y34547D03*
X245984Y40453D03*
Y34547D03*
X244016Y162953D03*
Y157047D03*
X245984Y162953D03*
Y157047D03*
G54D37*
X129792Y134665D03*
G54D56*
G01X10297Y49217D02*
X14500D01*
G01X26000Y70000D02*
X23850Y72150D01*
Y76500D01*
G01X28650Y56000D02*
X34850D01*
G01X39650Y76500D02*
Y79350D01*
X33100Y85900D01*
Y86900D01*
X29532Y90468D01*
X27400D01*
G01X27500Y176850D02*
Y172000D01*
G01X41000Y40150D02*
X42850Y42000D01*
X44000D01*
G01X60000Y39850D02*
X56650D01*
X56500Y40000D01*
G01X54350Y80000D02*
Y77850D01*
X53500Y77000D01*
G01X39650Y76500D02*
X45500D01*
X49800Y72200D01*
Y66700D01*
X51500Y65000D01*
G01X53850Y62500D02*
Y62650D01*
X51500Y65000D01*
G01X34850Y56000D02*
Y59650D01*
X34484Y60016D01*
G01X38350Y100000D02*
X34000D01*
G01X50850Y93000D02*
Y97150D01*
X48000Y100000D01*
X43650D01*
G01X50850Y89000D02*
Y93000D01*
G01X60000Y162350D02*
X56650D01*
X56500Y162500D01*
G01X41000Y162650D02*
X42850Y164500D01*
X44000D01*
G01Y196250D02*
Y200000D01*
G01D02*
Y203750D01*
G01X40250Y200000D02*
X44000D01*
G01D02*
X47750D01*
G01X42500Y176850D02*
Y172000D01*
G01X100000Y6250D02*
Y10000D01*
G01D02*
Y13750D01*
G01X96250Y10000D02*
X100000D01*
G01D02*
X103750D01*
G01X110000Y6250D02*
Y10000D01*
G01D02*
Y13750D01*
G01X106250Y10000D02*
X110000D01*
G01D02*
X113750D01*
G01X108850Y42000D02*
X104716Y42022D01*
X104500Y41806D01*
G01D02*
X97658D01*
G01X92512Y59593D02*
Y56012D01*
G01X86000Y53650D02*
X90150D01*
X92512Y56012D01*
G01X104323Y59593D02*
Y56177D01*
G01X84000Y133850D02*
Y129500D01*
G01X109000Y139150D02*
X107150Y141000D01*
X105500D01*
G01X100685Y138928D02*
X102758Y141000D01*
X105500D01*
G01X117158Y29022D02*
X121478D01*
G01X123295Y75703D02*
Y72295D01*
G01X123343Y67892D02*
Y72247D01*
X123295Y72295D01*
G01X134799Y67892D02*
X138500D01*
G01X146658Y110022D02*
X147136Y110500D01*
X151500D01*
G01X114445Y105853D02*
Y108555D01*
X113500Y109500D01*
G01X156445Y94353D02*
X153353D01*
G01X141150Y134000D02*
X144500D01*
G01X137850Y129000D02*
X133500D01*
G01X157500Y128476D02*
X156524D01*
X155947Y129053D01*
X152445D01*
G01X171650Y55000D02*
X175500D01*
G01X230000Y6250D02*
Y10000D01*
G01D02*
Y13750D01*
G01X226250Y10000D02*
X230000D01*
G01D02*
X233750D01*
G01X236000Y40150D02*
X237850Y42000D01*
X238500D01*
G01X200000Y115750D02*
Y119500D01*
G01D02*
Y123250D01*
G01X196250Y119500D02*
X200000D01*
G01D02*
X203750D01*
G01X236000Y162650D02*
X237850Y164500D01*
X239000D01*
G01X210000Y206250D02*
Y210000D01*
G01D02*
Y213750D01*
G01X206250Y210000D02*
X210000D01*
G01D02*
X213750D01*
G01X255000Y39850D02*
X251650D01*
X251500Y40000D01*
G01X255000Y162350D02*
X254850Y162500D01*
X251500D01*
G54D38*
X128165Y136292D03*
G54D29*
X104323Y71404D03*
Y67467D03*
Y63530D03*
Y59593D03*
X100386D03*
X96449D03*
X92512D03*
Y63530D03*
Y67467D03*
Y71404D03*
X96449D03*
X100386D03*
G54D47*
X158976Y136361D03*
X162913D03*
X158976Y131046D03*
X162913D03*
G54D48*
X160945Y134011D03*
G54D39*
X126000Y136292D03*
Y128708D03*
G54D49*
G01X10297Y39595D02*
Y45673D01*
G01X23350Y56000D02*
X23650Y56300D01*
Y61000D01*
G01X32614Y62890D02*
Y61714D01*
X31900Y61000D01*
X23650D01*
G01X30390Y64228D02*
X28472D01*
X20100Y72600D01*
Y83800D01*
X20863Y84563D01*
X24187D01*
G01X29150Y76500D02*
Y73150D01*
X28600Y72600D01*
Y66800D01*
X29400Y66000D01*
X30390D01*
G01X29150Y76500D02*
Y84850D01*
X27468Y86532D01*
X24187D01*
G01Y88500D02*
X28000D01*
X31000Y85500D01*
Y82500D01*
X34350Y79150D01*
Y76500D01*
G01X24000Y200000D02*
X29425Y194575D01*
X33925D01*
X42500Y186000D01*
Y182150D01*
G01X27500D02*
X14000Y195650D01*
Y200000D01*
G01X34500Y182150D02*
X27500D01*
G01X53004Y36516D02*
X54984D01*
X56500Y35000D01*
G01X49500Y31000D02*
X50984Y32484D01*
Y34547D01*
G01X53500Y48500D02*
X50984Y45984D01*
Y40453D01*
G01X36610Y67772D02*
X43122D01*
X43350Y68000D01*
G01X32614Y69110D02*
Y72114D01*
X34350Y73850D01*
Y76500D01*
G01X42813Y88500D02*
X39500D01*
X38000Y90000D01*
G01X42813Y86532D02*
X38532D01*
X38000Y86000D01*
G01X66100Y138600D02*
Y95600D01*
X55500Y85000D01*
X46374D01*
X45937Y84563D01*
X42813D01*
G01X60000Y157500D02*
X58484Y159016D01*
X53004D01*
G01X60000Y157500D02*
X62500Y160000D01*
Y168500D01*
X57500Y173500D01*
X50000D01*
G01X49500Y149000D02*
Y153500D01*
X50984Y154984D01*
Y157047D01*
G01X34500Y172000D02*
Y156500D01*
X42000Y149000D01*
X49500D01*
G01X65000Y176850D02*
Y172000D01*
X71000Y166000D01*
X89500D01*
X93000Y162500D01*
X97000D01*
X99850Y165350D01*
X219350D01*
X223500Y169500D01*
X260408D01*
X264000Y165908D01*
Y45000D01*
X263000Y44000D01*
G01X48500Y166500D02*
X50984Y164016D01*
Y162953D01*
G01X245984D02*
Y164016D01*
X242500Y167500D01*
X223500D01*
X220100Y164100D01*
X100600D01*
X97500Y161000D01*
X92000D01*
X89000Y164000D01*
X70268D01*
X57500Y176768D01*
Y176850D01*
G01X50000D02*
Y173500D01*
G01X34500Y176850D02*
Y172000D01*
G01X64000Y200000D02*
X65000Y199000D01*
Y182150D01*
G01X54000Y200000D02*
X57500Y196500D01*
Y182150D01*
G01X50000D02*
X42500D01*
G01X83000Y151500D02*
Y147000D01*
X74500Y138500D01*
Y33000D01*
X82000Y25500D01*
X94344D01*
X98051Y29207D01*
G01X111858Y29022D02*
X106185D01*
X106000Y29207D01*
X98051D01*
G01X111858Y35522D02*
X105681D01*
X105500Y35703D01*
X98051D01*
G01X92512Y63530D02*
X87530D01*
X87500Y63500D01*
G01X92512Y71404D02*
X86446D01*
X85000Y72850D01*
G01X100685Y129479D02*
Y124185D01*
G01X143000Y150500D02*
X138000Y145500D01*
X95500D01*
X93205Y143205D01*
Y138928D01*
G01X84000Y139150D02*
X88407D01*
X88630Y138928D01*
X93205D01*
G01X95000Y165000D02*
X96600Y166600D01*
X183000D01*
X190000Y173600D01*
Y176850D01*
G01X110000D02*
Y173500D01*
G01X95000Y176850D02*
Y173500D01*
G01X102500Y176850D02*
Y173500D01*
G01X87500Y176850D02*
Y173500D01*
G01X102500Y182150D02*
Y186000D01*
X99000Y189500D01*
Y205000D01*
X104000Y210000D01*
G01X84000D02*
X89000Y205000D01*
Y189500D01*
X87500Y188000D01*
Y182150D01*
G01X74000Y200000D02*
Y190500D01*
X72500Y189000D01*
Y182150D01*
G01X84000Y200000D02*
X80000Y196000D01*
Y182150D01*
G01X94000Y200000D02*
Y189500D01*
X95000Y188500D01*
Y182150D01*
G01X104000Y200000D02*
Y194500D01*
X110000Y188500D01*
Y182150D01*
G01X117500D02*
X110000D01*
G01X80000Y176850D02*
Y173500D01*
G01X72500Y176850D02*
Y172000D01*
G01X210000Y10000D02*
Y17500D01*
X185500Y42000D01*
X152500D01*
X150000Y39500D01*
Y36150D01*
G01X140000D02*
Y39500D01*
X144500Y44000D01*
X186000D01*
X220000Y10000D01*
G01X117158Y35522D02*
Y51158D01*
X122500Y56500D01*
G01X140000Y30850D02*
Y10000D01*
G01X150000Y30850D02*
Y10000D01*
G01X123343Y61790D02*
Y59157D01*
X124000Y58500D01*
X126500D01*
X127162Y59162D01*
Y61790D01*
G01X147000Y64500D02*
X144290Y61790D01*
X134799D01*
G01X147000Y64500D02*
X148000D01*
X148443Y64943D01*
X150982D01*
G01X147000Y69000D02*
Y68000D01*
X148088Y66912D01*
X150982D01*
G01X147000Y69000D02*
X145000Y71000D01*
X132000D01*
X130980Y69980D01*
Y67892D01*
G01X150982Y62975D02*
X148975D01*
X143934Y57934D01*
X133934D01*
X132500Y56500D01*
X129500D01*
G01X130980Y61790D02*
Y59480D01*
X129500Y58000D01*
Y56500D01*
G01X154133Y106703D02*
X151703D01*
X150022Y105022D01*
X146658D01*
G01X132257Y105235D02*
X135765D01*
X136000Y105000D01*
G01X129413Y102391D02*
Y100087D01*
X130000Y99500D01*
G01X127445Y112015D02*
Y116000D01*
G01X124500Y95150D02*
X125476Y96126D01*
Y102391D01*
G01X128942Y132500D02*
X134500D01*
X136000Y134000D01*
X137850D01*
G01X126000Y136292D02*
Y139000D01*
X125000Y140000D01*
G01X121000D02*
X123835Y137165D01*
Y136292D01*
G01Y128708D02*
Y126771D01*
X124335Y126271D01*
X125500D01*
X126000Y126771D01*
Y128708D01*
G01X128165Y136292D02*
Y137165D01*
X131000Y140000D01*
G01X140000Y176850D02*
Y173500D01*
G01X125000Y176850D02*
Y173500D01*
G01X132500Y176850D02*
X135000Y174350D01*
Y173500D01*
G01X120000Y200000D02*
Y192000D01*
X125000Y187000D01*
Y182150D01*
G01X132500D02*
Y197500D01*
X130000Y200000D01*
G01X140000Y182150D02*
Y200000D01*
G01X150000Y182150D02*
Y200000D01*
G01X160000Y36150D02*
Y39500D01*
G01X177000Y36150D02*
Y39500D01*
G01X170000Y36150D02*
Y39500D01*
G01X160000Y30850D02*
Y10000D01*
G01X170000Y30850D02*
Y10000D01*
G01X177000Y30850D02*
Y19179D01*
X180000Y16179D01*
Y10000D01*
G01X158672Y61006D02*
X163038D01*
X163522Y60522D01*
X166358D01*
G01X166350Y55000D02*
Y58164D01*
X166358Y58172D01*
Y60522D01*
G01X162882Y101891D02*
Y97382D01*
X161445Y95945D01*
Y94353D01*
G01X172500Y101650D02*
Y106850D01*
G01D02*
X167647D01*
X167500Y106703D01*
X163757D01*
G01Y104735D02*
X165765D01*
X167000Y103500D01*
G01X160913Y101891D02*
Y99413D01*
X160500Y99000D01*
G01X165500Y118000D02*
X162500D01*
X158945Y114445D01*
Y111515D01*
G01X162913Y136361D02*
X166500D01*
G01X170000Y131500D02*
Y131546D01*
X169500Y131046D01*
X162913D01*
G01X160000Y176850D02*
Y173500D01*
G01X170000Y176850D02*
Y173000D01*
G01X180000Y176850D02*
Y173000D01*
G01X160000Y182150D02*
Y200000D01*
G01X170000Y182150D02*
Y200000D01*
G01X180000Y182150D02*
Y200000D01*
G01X190000Y182150D02*
Y200000D01*
G01X224500Y31000D02*
X229087Y26413D01*
X261913D01*
X265500Y30000D01*
Y166176D01*
X221676Y210000D01*
X220000D01*
G01X251500Y35000D02*
X254500D01*
X259276Y39776D01*
Y52276D01*
X261250Y54250D01*
Y103250D01*
X244500Y120000D01*
G01X251500Y35000D02*
X250000Y36500D01*
Y36516D01*
X248004D01*
G01X244500Y31000D02*
X247500Y28000D01*
X261500D01*
X263500Y30000D01*
Y39000D01*
X260678Y41822D01*
Y51178D01*
X262500Y53000D01*
Y105518D01*
X244500Y123518D01*
Y126000D01*
G01X245984Y34547D02*
Y32484D01*
X244500Y31000D01*
G01Y43500D02*
X245984Y42016D01*
Y40453D01*
G01X248004Y159016D02*
X249984D01*
X251500Y157500D01*
G01X244500Y153500D02*
X245984Y154984D01*
Y157047D01*
G01X-151902Y-144273D02*
Y-69273D01*
X393098D01*
Y-144273D01*
X-151902D01*
G01X-104046Y-103513D02*
G03I-355J0D01*
G01Y-104933D02*
G03I-355J0D01*
G01Y-104113D02*
G03I-355J0D01*
G01Y-104813D02*
G03I-355J0D01*
G01X-103557Y-105503D02*
G03I-355J0D01*
G01X-104987Y-96903D02*
G03I-355J0D01*
G01X-105396Y-98313D02*
G03I-355J0D01*
G01X-105596Y-98343D02*
G03I-355J0D01*
G01X-105776Y-98423D02*
G03I-355J0D01*
G01X-105946Y-98543D02*
G03I-355J0D01*
G01X-106066Y-98703D02*
G03I-355J0D01*
G01X-105957Y-98563D02*
G03I-355J0D01*
G01X-106146Y-98893D02*
G03I-355J0D01*
G01X-106167Y-99093D02*
G03I-355J0D01*
G01Y-99953D02*
G03I-355J0D01*
G01Y-99253D02*
G03I-355J0D01*
G01Y-100643D02*
G03I-355J0D01*
G01Y-101343D02*
G03I-355J0D01*
G01Y-102033D02*
G03I-355J0D01*
G01Y-102723D02*
G03I-355J0D01*
G01Y-104113D02*
G03I-355J0D01*
G01Y-103423D02*
G03I-355J0D01*
G01Y-104813D02*
G03I-355J0D01*
G01Y-105503D02*
G03I-355J0D01*
G01Y-106193D02*
G03I-355J0D01*
G01Y-107583D02*
G03I-355J0D01*
G01Y-106893D02*
G03I-355J0D01*
G01Y-108283D02*
G03I-355J0D01*
G01Y-108973D02*
G03I-355J0D01*
G01Y-109673D02*
G03I-355J0D01*
G01X-107237Y-97043D02*
G03I-355J0D01*
G01X-108137Y-97173D02*
G03I-355J0D01*
G01X-109476Y-97373D02*
G03I-355J0D01*
G01D02*
G03I-355J0D01*
G01Y-97873D02*
G03I-355J0D01*
G01Y-98563D02*
G03I-355J0D01*
G01Y-99253D02*
G03I-355J0D01*
G01Y-100643D02*
G03I-355J0D01*
G01Y-99953D02*
G03I-355J0D01*
G01Y-101343D02*
G03I-355J0D01*
G01Y-102033D02*
G03I-355J0D01*
G01Y-102723D02*
G03I-355J0D01*
G01Y-103423D02*
G03I-355J0D01*
G01Y-104813D02*
G03I-355J0D01*
G01Y-104113D02*
G03I-355J0D01*
G01Y-105503D02*
G03I-355J0D01*
G01Y-106193D02*
G03I-355J0D01*
G01Y-106893D02*
G03I-355J0D01*
G01Y-108283D02*
G03I-355J0D01*
G01Y-107583D02*
G03I-355J0D01*
G01Y-108973D02*
G03I-355J0D01*
G01Y-109673D02*
G03I-355J0D01*
G01X-96346D02*
G03I-355J0D01*
G01X-97196Y-98553D02*
G03I-355J0D01*
G01X-96976Y-98863D02*
G03I-355J0D01*
G01X-97187Y-98563D02*
G03I-355J0D01*
G01X-96827Y-99213D02*
G03I-355J0D01*
G01X-96737Y-99593D02*
G03I-355J0D01*
G01X-96716Y-99973D02*
G03I-355J0D01*
G01X-96816Y-99253D02*
G03I-355J0D01*
G01X-96716Y-99953D02*
G03I-355J0D01*
G01Y-100643D02*
G03I-355J0D01*
G01Y-101343D02*
G03I-355J0D01*
G01Y-101973D02*
G03I-355J0D01*
G01X-96757Y-102453D02*
G03I-355J0D01*
G01X-96727Y-102033D02*
G03I-355J0D01*
G01X-96877Y-102913D02*
G03I-355J0D01*
G01X-96827Y-102723D02*
G03I-355J0D01*
G01X-97096Y-103333D02*
G03I-355J0D01*
G01X-97387Y-103713D02*
G03I-355J0D01*
G01X-97157Y-103423D02*
G03I-355J0D01*
G01X-96987Y-108973D02*
G03I-355J0D01*
G01X-98096Y-97673D02*
G03I-355J0D01*
G01X-97607Y-98073D02*
G03I-355J0D01*
G01X-97857Y-97873D02*
G03I-355J0D01*
G01X-97746Y-104023D02*
G03I-355J0D01*
G01X-98346Y-104363D02*
G03I-355J0D01*
G01X-97907Y-104113D02*
G03I-355J0D01*
G01X-98246Y-107583D02*
G03I-355J0D01*
G01X-97616Y-108283D02*
G03I-355J0D01*
G01X-98646Y-97373D02*
G03I-355J0D01*
G01X-99007Y-104603D02*
G03I-355J0D01*
G01X-98876Y-106893D02*
G03I-355J0D01*
G01X-99566Y-97173D02*
G03I-355J0D01*
G01X-99996Y-99473D02*
G03I-355J0D01*
G01X-99787Y-100323D02*
G03I-355J0D01*
G01X-99846Y-99883D02*
G03I-355J0D01*
G01X-99837Y-99953D02*
G03I-355J0D01*
G01X-99787Y-100643D02*
G03I-355J0D01*
G01Y-101423D02*
G03I-355J0D01*
G01Y-101343D02*
G03I-355J0D01*
G01X-99957Y-102283D02*
G03I-355J0D01*
G01X-99837Y-101863D02*
G03I-355J0D01*
G01X-99887Y-102033D02*
G03I-355J0D01*
G01X-99687Y-104723D02*
G03I-355J0D01*
G01X-99516Y-106193D02*
G03I-355J0D01*
G01X-99987Y-109673D02*
G03I-355J0D01*
G01X-100287Y-97023D02*
G03I-355J0D01*
G01X-100537Y-98793D02*
G03I-355J0D01*
G01X-100127Y-99253D02*
G03I-355J0D01*
G01X-100227Y-99103D02*
G03I-355J0D01*
G01X-100607Y-103053D02*
G03I-355J0D01*
G01X-100146Y-102683D02*
G03I-355J0D01*
G01X-100196Y-102723D02*
G03I-355J0D01*
G01X-100387Y-104733D02*
G03I-355J0D01*
G01Y-104813D02*
G03I-355J0D01*
G01Y-105243D02*
G03I-355J0D01*
G01X-100146Y-105503D02*
G03I-355J0D01*
G01X-100577Y-108973D02*
G03I-355J0D01*
G01X-101177Y-98503D02*
G03I-355J0D01*
G01X-101046Y-98563D02*
G03I-355J0D01*
G01X-101687Y-103473D02*
G03I-355J0D01*
G01X-101127Y-103323D02*
G03I-355J0D01*
G01X-101496Y-103423D02*
G03I-355J0D01*
G01X-101766Y-107583D02*
G03I-355J0D01*
G01X-101177Y-108283D02*
G03I-355J0D01*
G01X-101957Y-96903D02*
G03I-355J0D01*
G01X-101857Y-98343D02*
G03I-355J0D01*
G01X-102546Y-98313D02*
G03I-355J0D01*
G01X-102266Y-103513D02*
G03I-355J0D01*
G01X-102366Y-106893D02*
G03I-355J0D01*
G01X-102957Y-106193D02*
G03I-355J0D01*
G01X-103407Y-114693D02*
G03I-355J0D01*
G01X-103507Y-117783D02*
G03I-355J0D01*
G01X-103587Y-114783D02*
G03I-355J0D01*
G01X-103737Y-114913D02*
G03I-355J0D01*
G01X-103866Y-115063D02*
G03I-355J0D01*
G01X-103957Y-115243D02*
G03I-355J0D01*
G01X-104016Y-115433D02*
G03I-355J0D01*
G01X-104037Y-115633D02*
G03I-355J0D01*
G01X-104046D02*
G03I-355J0D01*
G01X-104037Y-116863D02*
G03I-355J0D01*
G01X-104046D02*
G03I-355J0D01*
G01Y-116273D02*
G03I-355J0D01*
G01D02*
G03I-355J0D01*
G01X-103657Y-117673D02*
G03I-355J0D01*
G01X-103787Y-117543D02*
G03I-355J0D01*
G01X-103896Y-117393D02*
G03I-355J0D01*
G01X-103976Y-117223D02*
G03I-355J0D01*
G01X-104016Y-117043D02*
G03I-355J0D01*
G01X-106167Y-110123D02*
G03I-355J0D01*
G01Y-114613D02*
G03I-355J0D01*
G01X-106807Y-116283D02*
G03I-355J0D01*
G01X-106657Y-116323D02*
G03I-355J0D01*
G01X-106527Y-116393D02*
G03I-355J0D01*
G01X-106396Y-116493D02*
G03I-355J0D01*
G01X-106296Y-116623D02*
G03I-355J0D01*
G01X-106227Y-116753D02*
G03I-355J0D01*
G01X-106187Y-116903D02*
G03I-355J0D01*
G01X-106167Y-117063D02*
G03I-355J0D01*
G01X-106187Y-117233D02*
G03I-355J0D01*
G01X-106237Y-117393D02*
G03I-355J0D01*
G01X-106307Y-117543D02*
G03I-355J0D01*
G01X-106416Y-117673D02*
G03I-355J0D01*
G01X-106546Y-117783D02*
G03I-355J0D01*
G01X-106696Y-117853D02*
G03I-355J0D01*
G01X-106857Y-117903D02*
G03I-355J0D01*
G01X-106967Y-116273D02*
G03I-355J0D01*
G01Y-116263D02*
G03I-355J0D01*
G01X-107027Y-117923D02*
G03I-355J0D01*
G01X-108587Y-116263D02*
G03I-355J0D01*
G01Y-116273D02*
G03I-355J0D01*
G01X-109476Y-110123D02*
G03I-355J0D01*
G01X-108716Y-114613D02*
G03I-355J0D01*
G01X-108887Y-114633D02*
G03I-355J0D01*
G01X-109046Y-114693D02*
G03I-355J0D01*
G01X-109187Y-114783D02*
G03I-355J0D01*
G01X-109307Y-114903D02*
G03I-355J0D01*
G01X-109396Y-115043D02*
G03I-355J0D01*
G01X-109457Y-115203D02*
G03I-355J0D01*
G01X-109476Y-115373D02*
G03I-355J0D01*
G01X-109457Y-115543D02*
G03I-355J0D01*
G01X-109407Y-115713D02*
G03I-355J0D01*
G01X-109327Y-115863D02*
G03I-355J0D01*
G01X-109216Y-116003D02*
G03I-355J0D01*
G01X-109076Y-116113D02*
G03I-355J0D01*
G01X-108927Y-116193D02*
G03I-355J0D01*
G01X-108757Y-116243D02*
G03I-355J0D01*
G01X-109476Y-117923D02*
G03I-355J0D01*
G01X-95346Y-114613D02*
G03I-355J0D01*
G01X-95937Y-110123D02*
G03I-355J0D01*
G01X-96757Y-117923D02*
G03I-355J0D01*
G01X-98296Y-114613D02*
G03I-355J0D01*
G01X-98846D02*
G03I-355J0D01*
G01Y-117923D02*
G03I-355J0D01*
G01X-99596Y-110123D02*
G03I-355J0D01*
G01X-101207Y-114613D02*
G03I-355J0D01*
G01Y-116273D02*
G03I-355J0D01*
G01Y-117923D02*
G03I-355J0D01*
G01X-103016Y-114613D02*
G03I-355J0D01*
G01X-103216Y-114633D02*
G03I-355J0D01*
G01X-102976Y-117923D02*
G03I-355J0D01*
G01X-103157Y-117903D02*
G03I-355J0D01*
G01X-103337Y-117863D02*
G03I-355J0D01*
G01X-81146Y-98883D02*
G03I-355J0D01*
G01X-80866Y-99403D02*
G03I-355J0D01*
G01X-80946Y-99253D02*
G03I-355J0D01*
G01X-80657Y-100563D02*
G03I-355J0D01*
G01X-80707Y-99973D02*
G03I-355J0D01*
G01X-80657Y-100643D02*
G03I-355J0D01*
G01X-80707Y-99953D02*
G03I-355J0D01*
G01X-80657Y-101343D02*
G03I-355J0D01*
G01Y-102033D02*
G03I-355J0D01*
G01Y-102723D02*
G03I-355J0D01*
G01Y-104113D02*
G03I-355J0D01*
G01Y-103423D02*
G03I-355J0D01*
G01Y-104813D02*
G03I-355J0D01*
G01Y-105503D02*
G03I-355J0D01*
G01Y-106703D02*
G03I-355J0D01*
G01Y-106193D02*
G03I-355J0D01*
G01X-80707Y-107253D02*
G03I-355J0D01*
G01X-80676Y-106893D02*
G03I-355J0D01*
G01X-81176Y-108243D02*
G03I-355J0D01*
G01X-80887Y-107773D02*
G03I-355J0D01*
G01X-81216Y-108283D02*
G03I-355J0D01*
G01X-80827Y-107583D02*
G03I-355J0D01*
G01X-82046Y-97993D02*
G03I-355J0D01*
G01X-81527Y-98433D02*
G03I-355J0D01*
G01X-81416Y-98563D02*
G03I-355J0D01*
G01X-82027Y-109073D02*
G03I-355J0D01*
G01X-81566Y-108633D02*
G03I-355J0D01*
G01X-81927Y-108973D02*
G03I-355J0D01*
G01X-82627Y-97643D02*
G03I-355J0D01*
G01X-82257Y-97873D02*
G03I-355J0D01*
G01X-82557Y-109423D02*
G03I-355J0D01*
G01X-83827Y-97173D02*
G03I-355J0D01*
G01X-83257Y-97373D02*
G03I-355J0D01*
G01X-83907Y-99693D02*
G03I-355J0D01*
G01X-83766Y-100113D02*
G03I-355J0D01*
G01X-83727Y-100563D02*
G03I-355J0D01*
G01Y-100643D02*
G03I-355J0D01*
G01X-83816Y-99953D02*
G03I-355J0D01*
G01X-83727Y-101343D02*
G03I-355J0D01*
G01Y-102033D02*
G03I-355J0D01*
G01Y-102723D02*
G03I-355J0D01*
G01Y-103423D02*
G03I-355J0D01*
G01Y-104813D02*
G03I-355J0D01*
G01Y-104113D02*
G03I-355J0D01*
G01Y-105503D02*
G03I-355J0D01*
G01Y-106233D02*
G03I-355J0D01*
G01Y-106193D02*
G03I-355J0D01*
G01X-83787Y-106813D02*
G03I-355J0D01*
G01X-83816Y-106893D02*
G03I-355J0D01*
G01X-83137Y-109693D02*
G03I-355J0D01*
G01X-83087Y-109673D02*
G03I-355J0D01*
G01X-84066Y-97093D02*
G03I-355J0D01*
G01X-84476Y-99023D02*
G03I-355J0D01*
G01X-84146Y-99323D02*
G03I-355J0D01*
G01X-84227Y-99253D02*
G03I-355J0D01*
G01X-83976Y-107373D02*
G03I-355J0D01*
G01X-84276Y-107883D02*
G03I-355J0D01*
G01X-84746Y-108253D02*
G03I-355J0D01*
G01X-84107Y-107583D02*
G03I-355J0D01*
G01X-84916Y-96933D02*
G03I-355J0D01*
G01X-85387Y-98473D02*
G03I-355J0D01*
G01X-84907Y-98703D02*
G03I-355J0D01*
G01X-85196Y-98563D02*
G03I-355J0D01*
G01X-84807Y-108283D02*
G03I-355J0D01*
G01X-85276Y-108513D02*
G03I-355J0D01*
G01X-85776Y-96903D02*
G03I-355J0D01*
G01X-86446Y-98313D02*
G03I-355J0D01*
G01X-85907Y-98343D02*
G03I-355J0D01*
G01X-85846Y-108673D02*
G03I-355J0D01*
G01X-86446Y-108713D02*
G03I-355J0D01*
G01X-87896Y-98313D02*
G03I-355J0D01*
G01X-88057Y-108713D02*
G03I-355J0D01*
G01X-88887Y-96903D02*
G03I-355J0D01*
G01X-89016Y-98503D02*
G03I-355J0D01*
G01X-88466Y-98353D02*
G03I-355J0D01*
G01X-88537Y-108663D02*
G03I-355J0D01*
G01X-89007Y-108513D02*
G03I-355J0D01*
G01X-89687Y-96933D02*
G03I-355J0D01*
G01X-89516Y-98773D02*
G03I-355J0D01*
G01X-89116Y-98563D02*
G03I-355J0D01*
G01X-89427Y-108283D02*
G03I-355J0D01*
G01X-89787Y-107963D02*
G03I-355J0D01*
G01X-89416Y-108283D02*
G03I-355J0D01*
G01X-90487Y-97073D02*
G03I-355J0D01*
G01X-89946Y-99143D02*
G03I-355J0D01*
G01D02*
G03I-355J0D01*
G01X-90046Y-99253D02*
G03I-355J0D01*
G01X-90416Y-99803D02*
G03I-355J0D01*
G01X-90216Y-99453D02*
G03I-355J0D01*
G01X-90576Y-100603D02*
G03I-355J0D01*
G01X-90537Y-100193D02*
G03I-355J0D01*
G01X-90466Y-99953D02*
G03I-355J0D01*
G01X-90576Y-100643D02*
G03I-355J0D01*
G01Y-101343D02*
G03I-355J0D01*
G01Y-102033D02*
G03I-355J0D01*
G01Y-103043D02*
G03I-355J0D01*
G01D02*
G03I-355J0D01*
G01D02*
G03I-355J0D01*
G01Y-102723D02*
G03I-355J0D01*
G01Y-103423D02*
G03I-355J0D01*
G01Y-104113D02*
G03I-355J0D01*
G01Y-104813D02*
G03I-355J0D01*
G01Y-105503D02*
G03I-355J0D01*
G01Y-106233D02*
G03I-355J0D01*
G01Y-106193D02*
G03I-355J0D01*
G01X-90396Y-107193D02*
G03I-355J0D01*
G01X-90546Y-106723D02*
G03I-355J0D01*
G01X-90487Y-106893D02*
G03I-355J0D01*
G01X-90137Y-107613D02*
G03I-355J0D01*
G01X-90157Y-107583D02*
G03I-355J0D01*
G01X-90776Y-97173D02*
G03I-355J0D01*
G01X-91246Y-97333D02*
G03I-355J0D01*
G01X-91296Y-109693D02*
G03I-355J0D01*
G01X-91357Y-109673D02*
G03I-355J0D01*
G01X-91957Y-97723D02*
G03I-355J0D01*
G01X-92137Y-97873D02*
G03I-355J0D01*
G01X-91946Y-109403D02*
G03I-355J0D01*
G01X-92587Y-98233D02*
G03I-355J0D01*
G01X-92957Y-98543D02*
G03I-355J0D01*
G01X-93246Y-98923D02*
G03I-355J0D01*
G01X-92966Y-98563D02*
G03I-355J0D01*
G01X-93246Y-108363D02*
G03I-355J0D01*
G01X-93296Y-108283D02*
G03I-355J0D01*
G01X-92937Y-108733D02*
G03I-355J0D01*
G01X-92546Y-109023D02*
G03I-355J0D01*
G01X-92616Y-108973D02*
G03I-355J0D01*
G01X-93476Y-99343D02*
G03I-355J0D01*
G01X-93607Y-99803D02*
G03I-355J0D01*
G01X-93476Y-99343D02*
G03I-355J0D01*
G01X-93427Y-99253D02*
G03I-355J0D01*
G01X-93646Y-100283D02*
G03I-355J0D01*
G01X-93616Y-99953D02*
G03I-355J0D01*
G01X-93646Y-100643D02*
G03I-355J0D01*
G01Y-101343D02*
G03I-355J0D01*
G01Y-102033D02*
G03I-355J0D01*
G01Y-103043D02*
G03I-355J0D01*
G01D02*
G03I-355J0D01*
G01D02*
G03I-355J0D01*
G01Y-102723D02*
G03I-355J0D01*
G01Y-103423D02*
G03I-355J0D01*
G01Y-104113D02*
G03I-355J0D01*
G01Y-104813D02*
G03I-355J0D01*
G01Y-105503D02*
G03I-355J0D01*
G01Y-106193D02*
G03I-355J0D01*
G01Y-106973D02*
G03I-355J0D01*
G01X-93616Y-107463D02*
G03I-355J0D01*
G01X-93646Y-106893D02*
G03I-355J0D01*
G01X-93476Y-107933D02*
G03I-355J0D01*
G01X-93576Y-107583D02*
G03I-355J0D01*
G01X-53987Y-99143D02*
G03I-355J0D01*
G01X-53966Y-99353D02*
G03I-355J0D01*
G01X-53976Y-99253D02*
G03I-355J0D01*
G01X-53966Y-99953D02*
G03I-355J0D01*
G01Y-100643D02*
G03I-355J0D01*
G01Y-101343D02*
G03I-355J0D01*
G01Y-102033D02*
G03I-355J0D01*
G01Y-102723D02*
G03I-355J0D01*
G01Y-103423D02*
G03I-355J0D01*
G01Y-104113D02*
G03I-355J0D01*
G01Y-104813D02*
G03I-355J0D01*
G01Y-105503D02*
G03I-355J0D01*
G01Y-106193D02*
G03I-355J0D01*
G01Y-106893D02*
G03I-355J0D01*
G01Y-107583D02*
G03I-355J0D01*
G01Y-108283D02*
G03I-355J0D01*
G01Y-108973D02*
G03I-355J0D01*
G01Y-109673D02*
G03I-355J0D01*
G01X-54196Y-96903D02*
G03I-355J0D01*
G01X-54766Y-98553D02*
G03I-355J0D01*
G01X-54557Y-98583D02*
G03I-355J0D01*
G01X-54366Y-98663D02*
G03I-355J0D01*
G01X-54196Y-98783D02*
G03I-355J0D01*
G01X-54076Y-98953D02*
G03I-355J0D01*
G01X-54687Y-98563D02*
G03I-355J0D01*
G01X-56427Y-98583D02*
G03I-355J0D01*
G01X-56207Y-98553D02*
G03I-355J0D01*
G01X-56287Y-98563D02*
G03I-355J0D01*
G01X-57166Y-96993D02*
G03I-355J0D01*
G01X-56927Y-98963D02*
G03I-355J0D01*
G01X-56796Y-98793D02*
G03I-355J0D01*
G01X-56616Y-98663D02*
G03I-355J0D01*
G01X-57037Y-99383D02*
G03I-355J0D01*
G01X-57007Y-99163D02*
G03I-355J0D01*
G01X-57016Y-99253D02*
G03I-355J0D01*
G01X-57037Y-100643D02*
G03I-355J0D01*
G01Y-99953D02*
G03I-355J0D01*
G01Y-101343D02*
G03I-355J0D01*
G01Y-102033D02*
G03I-355J0D01*
G01Y-102723D02*
G03I-355J0D01*
G01Y-103423D02*
G03I-355J0D01*
G01Y-104813D02*
G03I-355J0D01*
G01Y-104113D02*
G03I-355J0D01*
G01Y-105503D02*
G03I-355J0D01*
G01Y-106193D02*
G03I-355J0D01*
G01Y-106893D02*
G03I-355J0D01*
G01Y-108283D02*
G03I-355J0D01*
G01Y-107583D02*
G03I-355J0D01*
G01Y-108973D02*
G03I-355J0D01*
G01Y-109673D02*
G03I-355J0D01*
G01X-58557Y-97173D02*
G03I-355J0D01*
G01X-60107Y-97373D02*
G03I-355J0D01*
G01Y-97873D02*
G03I-355J0D01*
G01Y-98563D02*
G03I-355J0D01*
G01Y-99953D02*
G03I-355J0D01*
G01Y-99253D02*
G03I-355J0D01*
G01Y-100643D02*
G03I-355J0D01*
G01Y-101343D02*
G03I-355J0D01*
G01Y-102033D02*
G03I-355J0D01*
G01Y-102723D02*
G03I-355J0D01*
G01Y-104113D02*
G03I-355J0D01*
G01Y-103423D02*
G03I-355J0D01*
G01Y-104813D02*
G03I-355J0D01*
G01Y-105503D02*
G03I-355J0D01*
G01Y-106193D02*
G03I-355J0D01*
G01Y-107583D02*
G03I-355J0D01*
G01Y-106893D02*
G03I-355J0D01*
G01Y-108283D02*
G03I-355J0D01*
G01Y-108973D02*
G03I-355J0D01*
G01Y-109673D02*
G03I-355J0D01*
G01X-63646Y-97373D02*
G03I-355J0D01*
G01Y-97873D02*
G03I-355J0D01*
G01Y-98563D02*
G03I-355J0D01*
G01Y-99253D02*
G03I-355J0D01*
G01Y-100643D02*
G03I-355J0D01*
G01Y-99953D02*
G03I-355J0D01*
G01Y-101343D02*
G03I-355J0D01*
G01Y-102033D02*
G03I-355J0D01*
G01Y-102723D02*
G03I-355J0D01*
G01Y-104113D02*
G03I-355J0D01*
G01Y-103423D02*
G03I-355J0D01*
G01Y-104813D02*
G03I-355J0D01*
G01Y-105503D02*
G03I-355J0D01*
G01Y-106193D02*
G03I-355J0D01*
G01Y-106893D02*
G03I-355J0D01*
G01Y-108283D02*
G03I-355J0D01*
G01Y-107583D02*
G03I-355J0D01*
G01Y-108973D02*
G03I-355J0D01*
G01Y-109673D02*
G03I-355J0D01*
G01X-66957Y-97373D02*
G03I-355J0D01*
G01Y-97873D02*
G03I-355J0D01*
G01Y-98563D02*
G03I-355J0D01*
G01Y-99253D02*
G03I-355J0D01*
G01Y-100643D02*
G03I-355J0D01*
G01Y-99953D02*
G03I-355J0D01*
G01Y-101343D02*
G03I-355J0D01*
G01Y-101783D02*
G03I-355J0D01*
G01X-66987Y-101983D02*
G03I-355J0D01*
G01X-67066Y-102173D02*
G03I-355J0D01*
G01X-67187Y-102343D02*
G03I-355J0D01*
G01X-67007Y-102033D02*
G03I-355J0D01*
G01X-67346Y-102463D02*
G03I-355J0D01*
G01X-67537Y-102543D02*
G03I-355J0D01*
G01X-67576Y-104253D02*
G03I-355J0D01*
G01X-67366Y-104333D02*
G03I-355J0D01*
G01X-67196Y-104463D02*
G03I-355J0D01*
G01X-67066Y-104633D02*
G03I-355J0D01*
G01X-66987Y-104833D02*
G03I-355J0D01*
G01X-66957Y-105053D02*
G03I-355J0D01*
G01X-66996Y-104813D02*
G03I-355J0D01*
G01X-66957Y-105503D02*
G03I-355J0D01*
G01Y-106193D02*
G03I-355J0D01*
G01Y-107583D02*
G03I-355J0D01*
G01Y-106893D02*
G03I-355J0D01*
G01Y-108283D02*
G03I-355J0D01*
G01Y-108973D02*
G03I-355J0D01*
G01Y-109673D02*
G03I-355J0D01*
G01X-67737Y-102563D02*
G03I-355J0D01*
G01X-67787Y-104223D02*
G03I-355J0D01*
G01X-73237Y-102563D02*
G03I-355J0D01*
G01X-73446Y-102543D02*
G03I-355J0D01*
G01X-73637Y-102463D02*
G03I-355J0D01*
G01X-73657Y-104323D02*
G03I-355J0D01*
G01X-73466Y-104243D02*
G03I-355J0D01*
G01X-73266Y-104223D02*
G03I-355J0D01*
G01X-74046Y-97873D02*
G03I-355J0D01*
G01Y-97373D02*
G03I-355J0D01*
G01D02*
G03I-355J0D01*
G01Y-98563D02*
G03I-355J0D01*
G01Y-99253D02*
G03I-355J0D01*
G01Y-99953D02*
G03I-355J0D01*
G01Y-100643D02*
G03I-355J0D01*
G01Y-101343D02*
G03I-355J0D01*
G01X-73807Y-102333D02*
G03I-355J0D01*
G01X-73937Y-102163D02*
G03I-355J0D01*
G01X-74016Y-101973D02*
G03I-355J0D01*
G01X-74046Y-101763D02*
G03I-355J0D01*
G01X-73987Y-102033D02*
G03I-355J0D01*
G01X-74016Y-104803D02*
G03I-355J0D01*
G01X-73937Y-104613D02*
G03I-355J0D01*
G01X-73816Y-104453D02*
G03I-355J0D01*
G01X-74016Y-104813D02*
G03I-355J0D01*
G01X-74046Y-105003D02*
G03I-355J0D01*
G01Y-105503D02*
G03I-355J0D01*
G01Y-106193D02*
G03I-355J0D01*
G01Y-106893D02*
G03I-355J0D01*
G01Y-107583D02*
G03I-355J0D01*
G01Y-108283D02*
G03I-355J0D01*
G01Y-108973D02*
G03I-355J0D01*
G01Y-109673D02*
G03I-355J0D01*
G01X-77346Y-97873D02*
G03I-355J0D01*
G01Y-97373D02*
G03I-355J0D01*
G01Y-98563D02*
G03I-355J0D01*
G01Y-99253D02*
G03I-355J0D01*
G01Y-99953D02*
G03I-355J0D01*
G01Y-100643D02*
G03I-355J0D01*
G01Y-101343D02*
G03I-355J0D01*
G01Y-102033D02*
G03I-355J0D01*
G01Y-102723D02*
G03I-355J0D01*
G01Y-104113D02*
G03I-355J0D01*
G01Y-103423D02*
G03I-355J0D01*
G01Y-104813D02*
G03I-355J0D01*
G01Y-105503D02*
G03I-355J0D01*
G01Y-106193D02*
G03I-355J0D01*
G01Y-106893D02*
G03I-355J0D01*
G01Y-107583D02*
G03I-355J0D01*
G01Y-108283D02*
G03I-355J0D01*
G01Y-108973D02*
G03I-355J0D01*
G01Y-109673D02*
G03I-355J0D01*
G01X-78527Y-114613D02*
G03I-355J0D01*
G01X-79007D02*
G03I-355J0D01*
G01Y-117923D02*
G03I-355J0D01*
G01X-81666Y-115073D02*
G03I-355J0D01*
G01X-81827Y-114913D02*
G03I-355J0D01*
G01X-82016Y-114783D02*
G03I-355J0D01*
G01X-81366Y-115913D02*
G03I-355J0D01*
G01X-81387Y-115683D02*
G03I-355J0D01*
G01X-81446Y-115473D02*
G03I-355J0D01*
G01X-81537Y-115263D02*
G03I-355J0D01*
G01X-81366Y-116603D02*
G03I-355J0D01*
G01X-81427Y-117013D02*
G03I-355J0D01*
G01X-81387Y-116813D02*
G03I-355J0D01*
G01X-81366Y-116603D02*
G03I-355J0D01*
G01X-82087Y-117783D02*
G03I-355J0D01*
G01X-81907Y-117673D02*
G03I-355J0D01*
G01X-81757Y-117533D02*
G03I-355J0D01*
G01X-81616Y-117383D02*
G03I-355J0D01*
G01X-81507Y-117203D02*
G03I-355J0D01*
G01X-82227Y-114693D02*
G03I-355J0D01*
G01X-82437Y-114633D02*
G03I-355J0D01*
G01X-82666Y-114613D02*
G03I-355J0D01*
G01X-82687Y-117923D02*
G03I-355J0D01*
G01X-82476Y-117903D02*
G03I-355J0D01*
G01X-82277Y-117863D02*
G03I-355J0D01*
G01X-83407Y-114613D02*
G03I-355J0D01*
G01X-83627Y-114633D02*
G03I-355J0D01*
G01X-83837Y-114693D02*
G03I-355J0D01*
G01X-83827Y-117843D02*
G03I-355J0D01*
G01X-83607Y-117903D02*
G03I-355J0D01*
G01X-83387Y-117923D02*
G03I-355J0D01*
G01X-84007Y-109953D02*
G03I-355J0D01*
G01X-84037Y-114783D02*
G03I-355J0D01*
G01X-84227Y-114913D02*
G03I-355J0D01*
G01X-84376Y-115063D02*
G03I-355J0D01*
G01X-84507Y-115243D02*
G03I-355J0D01*
G01X-84596Y-115453D02*
G03I-355J0D01*
G01X-84657Y-115663D02*
G03I-355J0D01*
G01X-84676Y-115883D02*
G03I-355J0D01*
G01Y-116633D02*
G03I-355J0D01*
G01X-84657Y-116853D02*
G03I-355J0D01*
G01X-84596Y-117073D02*
G03I-355J0D01*
G01X-84507Y-117273D02*
G03I-355J0D01*
G01X-84376Y-117463D02*
G03I-355J0D01*
G01X-84216Y-117623D02*
G03I-355J0D01*
G01X-84037Y-117753D02*
G03I-355J0D01*
G01X-84907Y-110093D02*
G03I-355J0D01*
G01X-85816Y-110123D02*
G03I-355J0D01*
G01X-86796Y-114613D02*
G03I-355J0D01*
G01Y-117923D02*
G03I-355J0D01*
G01X-88566Y-110123D02*
G03I-355J0D01*
G01X-88966Y-114693D02*
G03I-355J0D01*
G01X-88757Y-114633D02*
G03I-355J0D01*
G01X-88546Y-114613D02*
G03I-355J0D01*
G01Y-117923D02*
G03I-355J0D01*
G01X-88737Y-117903D02*
G03I-355J0D01*
G01X-88916Y-117853D02*
G03I-355J0D01*
G01X-89596Y-110063D02*
G03I-355J0D01*
G01X-89457Y-115093D02*
G03I-355J0D01*
G01X-89316Y-114933D02*
G03I-355J0D01*
G01X-89157Y-114793D02*
G03I-355J0D01*
G01X-89637Y-115703D02*
G03I-355J0D01*
G01X-89616Y-115493D02*
G03I-355J0D01*
G01X-89557Y-115283D02*
G03I-355J0D01*
G01X-89637Y-116833D02*
G03I-355J0D01*
G01X-89096Y-117773D02*
G03I-355J0D01*
G01X-89246Y-117663D02*
G03I-355J0D01*
G01X-89376Y-117533D02*
G03I-355J0D01*
G01X-89487Y-117373D02*
G03I-355J0D01*
G01X-89566Y-117203D02*
G03I-355J0D01*
G01X-89616Y-117023D02*
G03I-355J0D01*
G01X-90616Y-109893D02*
G03I-355J0D01*
G01X-92237Y-114613D02*
G03I-355J0D01*
G01Y-117923D02*
G03I-355J0D01*
G01X-94827Y-114613D02*
G03I-355J0D01*
G01Y-117923D02*
G03I-355J0D01*
G01X-53966Y-110123D02*
G03I-355J0D01*
G01X-55146Y-114613D02*
G03I-355J0D01*
G01X-56566D02*
G03I-355J0D01*
G01D02*
G03I-355J0D01*
G01Y-117923D02*
G03I-355J0D01*
G01X-57037Y-110123D02*
G03I-355J0D01*
G01X-57976Y-114613D02*
G03I-355J0D01*
G01X-59866D02*
G03I-355J0D01*
G01Y-117923D02*
G03I-355J0D01*
G01X-60107Y-110123D02*
G03I-355J0D01*
G01X-61666Y-114613D02*
G03I-355J0D01*
G01X-61637Y-117923D02*
G03I-355J0D01*
G01X-62566Y-115133D02*
G03I-355J0D01*
G01X-62466Y-114983D02*
G03I-355J0D01*
G01X-62337Y-114853D02*
G03I-355J0D01*
G01X-62187Y-114753D02*
G03I-355J0D01*
G01X-62027Y-114673D02*
G03I-355J0D01*
G01X-61846Y-114633D02*
G03I-355J0D01*
G01X-61827Y-117903D02*
G03I-355J0D01*
G01X-62007Y-117863D02*
G03I-355J0D01*
G01X-62176Y-117783D02*
G03I-355J0D01*
G01X-62327Y-117673D02*
G03I-355J0D01*
G01X-62457Y-117543D02*
G03I-355J0D01*
G01X-62566Y-117383D02*
G03I-355J0D01*
G01X-62646Y-115293D02*
G03I-355J0D01*
G01X-62707Y-115653D02*
G03I-355J0D01*
G01X-62687Y-115473D02*
G03I-355J0D01*
G01X-62707Y-116853D02*
G03I-355J0D01*
G01X-62646Y-117223D02*
G03I-355J0D01*
G01X-62687Y-117043D02*
G03I-355J0D01*
G01X-63646Y-110123D02*
G03I-355J0D01*
G01X-64827Y-114613D02*
G03I-355J0D01*
G01Y-116613D02*
G03I-355J0D01*
G01X-64837D02*
G03I-355J0D01*
G01X-64857Y-116843D02*
G03I-355J0D01*
G01X-64916Y-117063D02*
G03I-355J0D01*
G01X-65016Y-117263D02*
G03I-355J0D01*
G01X-65146Y-117453D02*
G03I-355J0D01*
G01X-65307Y-117613D02*
G03I-355J0D01*
G01X-65487Y-117743D02*
G03I-355J0D01*
G01X-65696Y-117843D02*
G03I-355J0D01*
G01X-65916Y-117903D02*
G03I-355J0D01*
G01X-66146Y-117923D02*
G03I-355J0D01*
G01X-66666D02*
G03I-355J0D01*
G01X-66957Y-110123D02*
G03I-355J0D01*
G01X-66887Y-117903D02*
G03I-355J0D01*
G01X-67087Y-117853D02*
G03I-355J0D01*
G01X-67287Y-117753D02*
G03I-355J0D01*
G01X-67466Y-117633D02*
G03I-355J0D01*
G01X-67616Y-117483D02*
G03I-355J0D01*
G01X-67896Y-114613D02*
G03I-355J0D01*
G01X-67887Y-116903D02*
G03I-355J0D01*
G01X-67907Y-116683D02*
G03I-355J0D01*
G01X-67896D02*
G03I-355J0D01*
G01X-67737Y-117303D02*
G03I-355J0D01*
G01X-67837Y-117103D02*
G03I-355J0D01*
G01X-70907Y-114783D02*
G03I-355J0D01*
G01X-70727Y-114913D02*
G03I-355J0D01*
G01X-70566Y-115073D02*
G03I-355J0D01*
G01X-70266Y-115903D02*
G03I-355J0D01*
G01X-70437Y-115253D02*
G03I-355J0D01*
G01X-70346Y-115463D02*
G03I-355J0D01*
G01X-70287Y-115683D02*
G03I-355J0D01*
G01X-70266Y-115903D02*
G03I-355J0D01*
G01Y-116613D02*
G03I-355J0D01*
G01X-70287Y-116813D02*
G03I-355J0D01*
G01X-70327Y-117013D02*
G03I-355J0D01*
G01X-70407Y-117203D02*
G03I-355J0D01*
G01X-70516Y-117383D02*
G03I-355J0D01*
G01X-70646Y-117543D02*
G03I-355J0D01*
G01X-70807Y-117673D02*
G03I-355J0D01*
G01X-70987Y-117783D02*
G03I-355J0D01*
G01X-71557Y-114613D02*
G03I-355J0D01*
G01X-71337Y-114633D02*
G03I-355J0D01*
G01X-71116Y-114693D02*
G03I-355J0D01*
G01X-71176Y-117863D02*
G03I-355J0D01*
G01X-71376Y-117903D02*
G03I-355J0D01*
G01X-71577Y-117923D02*
G03I-355J0D01*
G01X-73337Y-114613D02*
G03I-355J0D01*
G01Y-117923D02*
G03I-355J0D01*
G01X-74046Y-110123D02*
G03I-355J0D01*
G01X-75696Y-114613D02*
G03I-355J0D01*
G01Y-117923D02*
G03I-355J0D01*
G01X-76246D02*
G03I-355J0D01*
G01X-77346Y-110123D02*
G03I-355J0D01*
G01X-44566Y-99613D02*
G03I-355J0D01*
G01X-44516Y-100163D02*
G03I-355J0D01*
G01X-44537Y-99953D02*
G03I-355J0D01*
G01X-44516Y-100643D02*
G03I-355J0D01*
G01Y-101343D02*
G03I-355J0D01*
G01Y-102033D02*
G03I-355J0D01*
G01Y-102723D02*
G03I-355J0D01*
G01Y-103423D02*
G03I-355J0D01*
G01Y-104113D02*
G03I-355J0D01*
G01Y-104813D02*
G03I-355J0D01*
G01Y-105503D02*
G03I-355J0D01*
G01Y-106193D02*
G03I-355J0D01*
G01Y-106893D02*
G03I-355J0D01*
G01Y-107583D02*
G03I-355J0D01*
G01Y-108283D02*
G03I-355J0D01*
G01Y-108973D02*
G03I-355J0D01*
G01Y-109673D02*
G03I-355J0D01*
G01X-44727Y-99083D02*
G03I-355J0D01*
G01X-45007Y-98603D02*
G03I-355J0D01*
G01X-45387Y-98193D02*
G03I-355J0D01*
G01X-45046Y-98563D02*
G03I-355J0D01*
G01X-44676Y-99253D02*
G03I-355J0D01*
G01X-45827Y-97873D02*
G03I-355J0D01*
G01X-46037Y-97713D02*
G03I-355J0D01*
G01D02*
G03I-355J0D01*
G01X-46767Y-97353D02*
G03I-355J0D01*
G01X-47546Y-97133D02*
G03I-355J0D01*
G01X-47407Y-97173D02*
G03I-355J0D01*
G01X-47876Y-98993D02*
G03I-355J0D01*
G01X-47716Y-99233D02*
G03I-355J0D01*
G01X-47616Y-99513D02*
G03I-355J0D01*
G01X-47587Y-99813D02*
G03I-355J0D01*
G01X-47707Y-99253D02*
G03I-355J0D01*
G01X-47587Y-99953D02*
G03I-355J0D01*
G01Y-100643D02*
G03I-355J0D01*
G01Y-101343D02*
G03I-355J0D01*
G01Y-102033D02*
G03I-355J0D01*
G01Y-102723D02*
G03I-355J0D01*
G01Y-103423D02*
G03I-355J0D01*
G01Y-104113D02*
G03I-355J0D01*
G01Y-104813D02*
G03I-355J0D01*
G01Y-105503D02*
G03I-355J0D01*
G01Y-106193D02*
G03I-355J0D01*
G01Y-106893D02*
G03I-355J0D01*
G01Y-107583D02*
G03I-355J0D01*
G01Y-108283D02*
G03I-355J0D01*
G01Y-108973D02*
G03I-355J0D01*
G01Y-109673D02*
G03I-355J0D01*
G01X-48707Y-96963D02*
G03I-355J0D01*
G01X-48576Y-98623D02*
G03I-355J0D01*
G01X-48096Y-98793D02*
G03I-355J0D01*
G01X-49087Y-98553D02*
G03I-355J0D01*
G01X-49007Y-98563D02*
G03I-355J0D01*
G01X-49866Y-96903D02*
G03I-355J0D01*
G01X-50546Y-98953D02*
G03I-355J0D01*
G01X-50417Y-98793D02*
G03I-355J0D01*
G01X-50246Y-98663D02*
G03I-355J0D01*
G01X-50057Y-98583D02*
G03I-355J0D01*
G01X-49846Y-98553D02*
G03I-355J0D01*
G01X-49927Y-98563D02*
G03I-355J0D01*
G01X-50627Y-99153D02*
G03I-355J0D01*
G01X-50646Y-99253D02*
G03I-355J0D01*
G01X-50657Y-99363D02*
G03I-355J0D01*
G01Y-99953D02*
G03I-355J0D01*
G01Y-100643D02*
G03I-355J0D01*
G01Y-101343D02*
G03I-355J0D01*
G01Y-102033D02*
G03I-355J0D01*
G01Y-102723D02*
G03I-355J0D01*
G01Y-103423D02*
G03I-355J0D01*
G01Y-104113D02*
G03I-355J0D01*
G01Y-104813D02*
G03I-355J0D01*
G01Y-105503D02*
G03I-355J0D01*
G01Y-106193D02*
G03I-355J0D01*
G01Y-106893D02*
G03I-355J0D01*
G01Y-107583D02*
G03I-355J0D01*
G01Y-108283D02*
G03I-355J0D01*
G01Y-108973D02*
G03I-355J0D01*
G01Y-109673D02*
G03I-355J0D01*
G01X-52946Y-115463D02*
G03I-355J0D01*
G01X-53007Y-115683D02*
G03I-355J0D01*
G01X-53027Y-115903D02*
G03I-355J0D01*
G01X-53016D02*
G03I-355J0D01*
G01Y-116613D02*
G03I-355J0D01*
G01X-52996Y-116813D02*
G03I-355J0D01*
G01X-52957Y-117013D02*
G03I-355J0D01*
G01X-44516Y-110123D02*
G03I-355J0D01*
G01X-44646Y-114973D02*
G03I-355J0D01*
G01X-44576Y-115103D02*
G03I-355J0D01*
G01X-44537Y-115253D02*
G03I-355J0D01*
G01X-44516Y-115413D02*
G03I-355J0D01*
G01X-44537Y-115583D02*
G03I-355J0D01*
G01X-44587Y-115743D02*
G03I-355J0D01*
G01X-44657Y-115893D02*
G03I-355J0D01*
G01X-45317Y-114613D02*
G03I-355J0D01*
G01X-45157Y-114633D02*
G03I-355J0D01*
G01X-45007Y-114673D02*
G03I-355J0D01*
G01X-44876Y-114743D02*
G03I-355J0D01*
G01X-44746Y-114843D02*
G03I-355J0D01*
G01X-44766Y-116023D02*
G03I-355J0D01*
G01X-44896Y-116133D02*
G03I-355J0D01*
G01X-45046Y-116203D02*
G03I-355J0D01*
G01X-45207Y-116253D02*
G03I-355J0D01*
G01X-45376Y-116273D02*
G03I-355J0D01*
G01X-44757Y-117923D02*
G03I-355J0D01*
G01X-45657Y-116273D02*
G03I-355J0D01*
G01D02*
G03I-355J0D01*
G01X-47587Y-110123D02*
G03I-355J0D01*
G01Y-114613D02*
G03I-355J0D01*
G01D02*
G03I-355J0D01*
G01Y-116273D02*
G03I-355J0D01*
G01D02*
G03I-355J0D01*
G01Y-117923D02*
G03I-355J0D01*
G01X-49716Y-115893D02*
G03I-355J0D01*
G01X-49737Y-115673D02*
G03I-355J0D01*
G01X-49716Y-116623D02*
G03I-355J0D01*
G01X-49737Y-116853D02*
G03I-355J0D01*
G01X-49716Y-116623D02*
G03I-355J0D01*
G01X-49796Y-115453D02*
G03I-355J0D01*
G01X-49887Y-115253D02*
G03I-355J0D01*
G01X-50017Y-115073D02*
G03I-355J0D01*
G01X-50176Y-114913D02*
G03I-355J0D01*
G01X-50357Y-114783D02*
G03I-355J0D01*
G01X-50557Y-114693D02*
G03I-355J0D01*
G01X-49796Y-117063D02*
G03I-355J0D01*
G01X-50576Y-117843D02*
G03I-355J0D01*
G01X-50366Y-117753D02*
G03I-355J0D01*
G01X-50176Y-117623D02*
G03I-355J0D01*
G01X-50017Y-117463D02*
G03I-355J0D01*
G01X-49887Y-117273D02*
G03I-355J0D01*
G01X-50657Y-110123D02*
G03I-355J0D01*
G01X-50776Y-114633D02*
G03I-355J0D01*
G01X-50996Y-114613D02*
G03I-355J0D01*
G01X-51016Y-117923D02*
G03I-355J0D01*
G01X-50787Y-117903D02*
G03I-355J0D01*
G01X-51737Y-114613D02*
G03I-355J0D01*
G01X-51957Y-114633D02*
G03I-355J0D01*
G01X-52176Y-114693D02*
G03I-355J0D01*
G01X-52296Y-117783D02*
G03I-355J0D01*
G01X-52107Y-117863D02*
G03I-355J0D01*
G01X-51907Y-117903D02*
G03I-355J0D01*
G01X-51707Y-117923D02*
G03I-355J0D01*
G01X-52376Y-114783D02*
G03I-355J0D01*
G01X-52566Y-114913D02*
G03I-355J0D01*
G01X-52727Y-115073D02*
G03I-355J0D01*
G01X-52857Y-115253D02*
G03I-355J0D01*
G01X-52876Y-117203D02*
G03I-355J0D01*
G01X-52766Y-117383D02*
G03I-355J0D01*
G01X-52637Y-117543D02*
G03I-355J0D01*
G01X-52476Y-117673D02*
G03I-355J0D01*
G01X3632Y-140273D02*
X3898Y-140773D01*
X4218Y-141106D01*
X4592Y-141273D01*
X5018Y-141106D01*
X5338Y-140773D01*
X5658Y-140273D01*
X5765Y-139606D01*
Y-136273D01*
G01X8898Y-141273D02*
X8472Y-141190D01*
X8098Y-140856D01*
X7778Y-140356D01*
X7565Y-139773D01*
X7458Y-139106D01*
Y-138440D01*
X7565Y-137773D01*
X7778Y-137190D01*
X8098Y-136690D01*
X8472Y-136356D01*
X8898Y-136273D01*
X9325Y-136356D01*
X9698Y-136690D01*
X10018Y-137190D01*
X10232Y-137773D01*
X10338Y-138440D01*
Y-139106D01*
X10232Y-139773D01*
X10018Y-140356D01*
X9698Y-140856D01*
X9325Y-141190D01*
X8898Y-141273D01*
G01X13525Y-138606D02*
X13738Y-138356D01*
X13898Y-137940D01*
X14005Y-137356D01*
X13898Y-136856D01*
X13685Y-136523D01*
X13312Y-136273D01*
X11872D01*
Y-141273D01*
X13632D01*
X14005Y-140940D01*
X14218Y-140440D01*
X14325Y-139856D01*
X14218Y-139273D01*
X13898Y-138773D01*
X13525Y-138606D01*
X11872D01*
G01X16232Y-142940D02*
X17298Y-136273D01*
G01X18365D02*
X17298Y-142940D01*
G01X15698Y-140440D02*
X18898D01*
G01Y-138773D02*
X15698D01*
G01X21498Y-141440D02*
X21392Y-141356D01*
Y-141190D01*
X21498Y-141106D01*
X21605Y-141190D01*
Y-141356D01*
X21498Y-141440D01*
G01Y-139190D02*
X21392Y-139106D01*
Y-138940D01*
X21498Y-138856D01*
X21605Y-138940D01*
Y-139106D01*
X21498Y-139190D01*
G01X4525Y-130273D02*
Y-125273D01*
X5592D01*
X6018Y-125523D01*
X6338Y-125856D01*
X6605Y-126356D01*
X6818Y-126940D01*
X6872Y-127773D01*
X6818Y-128606D01*
X6605Y-129190D01*
X6338Y-129690D01*
X6018Y-130023D01*
X5592Y-130273D01*
X4525D01*
G01X8565D02*
X9898Y-125273D01*
X11232Y-130273D01*
G01X10752Y-128523D02*
X9045D01*
G01X14098Y-125273D02*
Y-130273D01*
G01X12872Y-125273D02*
X15325D01*
G01X19365Y-130273D02*
X17232D01*
Y-125273D01*
X19365D01*
G01X18512Y-127690D02*
X17232D01*
G01X22498Y-130440D02*
X22392Y-130356D01*
Y-130190D01*
X22498Y-130106D01*
X22605Y-130190D01*
Y-130356D01*
X22498Y-130440D01*
G01Y-128190D02*
X22392Y-128106D01*
Y-127940D01*
X22498Y-127856D01*
X22605Y-127940D01*
Y-128106D01*
X22498Y-128190D01*
G01X-1902Y-69273D02*
Y-144273D01*
G01X115598Y-132273D02*
X-1902D01*
G01X5872Y-114690D02*
X5552Y-114440D01*
X5178Y-114273D01*
X4752D01*
X4272Y-114523D01*
X3898Y-114940D01*
X3632Y-115440D01*
X3418Y-116273D01*
X3365Y-117023D01*
X3472Y-117773D01*
X3632Y-118273D01*
X3952Y-118773D01*
X4325Y-119106D01*
X4698Y-119273D01*
X5072D01*
X5445Y-119106D01*
X5765Y-118856D01*
X6032Y-118523D01*
G01X7778Y-119273D02*
Y-114273D01*
G01X10018D02*
Y-119273D01*
G01Y-116773D02*
X7778D01*
G01X14165Y-119273D02*
X12032D01*
Y-114273D01*
X14165D01*
G01X13312Y-116690D02*
X12032D01*
G01X18472Y-114690D02*
X18152Y-114440D01*
X17778Y-114273D01*
X17352D01*
X16872Y-114523D01*
X16498Y-114940D01*
X16232Y-115440D01*
X16018Y-116273D01*
X15965Y-117023D01*
X16072Y-117773D01*
X16232Y-118273D01*
X16552Y-118773D01*
X16925Y-119106D01*
X17298Y-119273D01*
X17672D01*
X18045Y-119106D01*
X18365Y-118856D01*
X18632Y-118523D01*
G01X20325Y-119273D02*
Y-114273D01*
G01X22352D02*
X20325Y-117356D01*
G01X22672Y-119273D02*
X21232Y-115940D01*
G01X26765Y-119273D02*
X24632D01*
Y-114273D01*
X26765D01*
G01X25912Y-116690D02*
X24632D01*
G01X28832Y-119273D02*
Y-114273D01*
X30165D01*
X30592Y-114523D01*
X30858Y-114856D01*
X30965Y-115523D01*
X30858Y-116190D01*
X30538Y-116606D01*
X30165Y-116856D01*
X28832D01*
G01X30165D02*
X30965Y-119273D01*
G01X34098Y-119440D02*
X33992Y-119356D01*
Y-119190D01*
X34098Y-119106D01*
X34205Y-119190D01*
Y-119356D01*
X34098Y-119440D01*
G01Y-117190D02*
X33992Y-117106D01*
Y-116940D01*
X34098Y-116856D01*
X34205Y-116940D01*
Y-117106D01*
X34098Y-117190D01*
G01X3525Y-108273D02*
Y-103273D01*
X4592D01*
X5018Y-103523D01*
X5338Y-103856D01*
X5605Y-104356D01*
X5818Y-104940D01*
X5872Y-105773D01*
X5818Y-106606D01*
X5605Y-107190D01*
X5338Y-107690D01*
X5018Y-108023D01*
X4592Y-108273D01*
X3525D01*
G01X9965D02*
X7832D01*
Y-103273D01*
X9965D01*
G01X9112Y-105689D02*
X7832D01*
G01X11978Y-107606D02*
X12405Y-108023D01*
X12885Y-108273D01*
X13312D01*
X13738Y-108023D01*
X14058Y-107606D01*
X14218Y-107023D01*
X14112Y-106440D01*
X13845Y-105940D01*
X13365Y-105606D01*
X12725Y-105440D01*
X12352Y-105106D01*
X12192Y-104523D01*
X12298Y-103940D01*
X12565Y-103523D01*
X12938Y-103273D01*
X13312D01*
X13685Y-103440D01*
X14005Y-103856D01*
G01X16658Y-103273D02*
X17938D01*
G01X17298D02*
Y-108273D01*
G01X16658D02*
X17938D01*
G01X21818Y-105773D02*
X22885D01*
Y-107273D01*
X22565Y-107773D01*
X22192Y-108106D01*
X21658Y-108273D01*
X21125Y-108106D01*
X20752Y-107773D01*
X20432Y-107273D01*
X20218Y-106690D01*
X20112Y-106023D01*
Y-105440D01*
X20218Y-104940D01*
X20432Y-104356D01*
X20752Y-103856D01*
X21072Y-103523D01*
X21498Y-103273D01*
X21872D01*
X22298Y-103440D01*
X22618Y-103773D01*
G01X24472Y-108273D02*
Y-103273D01*
X26925Y-108273D01*
Y-103273D01*
G01X30965Y-108273D02*
X28832D01*
Y-103273D01*
X30965D01*
G01X30112Y-105689D02*
X28832D01*
G01X33032Y-108273D02*
Y-103273D01*
X34365D01*
X34792Y-103523D01*
X35058Y-103856D01*
X35165Y-104523D01*
X35058Y-105190D01*
X34738Y-105606D01*
X34365Y-105856D01*
X33032D01*
G01X34365D02*
X35165Y-108273D01*
G01X38298Y-108440D02*
X38192Y-108356D01*
Y-108190D01*
X38298Y-108106D01*
X38405Y-108190D01*
Y-108356D01*
X38298Y-108440D01*
G01Y-106190D02*
X38192Y-106106D01*
Y-105940D01*
X38298Y-105856D01*
X38405Y-105940D01*
Y-106106D01*
X38298Y-106190D01*
G01X3932Y-94273D02*
Y-86773D01*
X5932D01*
X6598Y-87148D01*
X7099Y-88023D01*
X7265Y-89023D01*
X7099Y-90023D01*
X6682Y-90773D01*
X5932Y-91148D01*
X3932D01*
G01X10432Y-94273D02*
Y-86773D01*
X12515D01*
X13182Y-87148D01*
X13599Y-87648D01*
X13765Y-88648D01*
X13599Y-89648D01*
X13098Y-90273D01*
X12515Y-90648D01*
X10432D01*
G01X12515D02*
X13765Y-94273D01*
G01X17598Y-86773D02*
X19598D01*
G01X18598D02*
Y-94273D01*
G01X17598D02*
X19598D01*
G01X22932D02*
Y-86773D01*
X25098Y-93023D01*
X27265Y-86773D01*
Y-94273D01*
G01X29515D02*
X31598Y-86773D01*
X33682Y-94273D01*
G01X32932Y-91648D02*
X30265D01*
G01X36432Y-94273D02*
Y-86773D01*
X38515D01*
X39182Y-87148D01*
X39598Y-87648D01*
X39765Y-88648D01*
X39598Y-89648D01*
X39098Y-90273D01*
X38515Y-90648D01*
X36432D01*
G01X38515D02*
X39765Y-94273D01*
G01X44598D02*
Y-90898D01*
X42932Y-86773D01*
G01X46265D02*
X44598Y-90898D01*
G01X50015Y-91773D02*
X52182D01*
G01X55848Y-93273D02*
X56515Y-93898D01*
X57265Y-94273D01*
X57932D01*
X58598Y-93898D01*
X59098Y-93273D01*
X59348Y-92398D01*
X59182Y-91523D01*
X58765Y-90773D01*
X58015Y-90273D01*
X57015Y-90023D01*
X56432Y-89523D01*
X56182Y-88648D01*
X56348Y-87773D01*
X56765Y-87148D01*
X57348Y-86773D01*
X57932D01*
X58515Y-87023D01*
X59015Y-87648D01*
G01X63098Y-86773D02*
X65098D01*
G01X64098D02*
Y-94273D01*
G01X63098D02*
X65098D01*
G01X68765D02*
Y-86773D01*
X70432D01*
X71098Y-87148D01*
X71598Y-87648D01*
X72015Y-88398D01*
X72348Y-89273D01*
X72432Y-90523D01*
X72348Y-91773D01*
X72015Y-92648D01*
X71598Y-93398D01*
X71098Y-93898D01*
X70432Y-94273D01*
X68765D01*
G01X78765D02*
X75432D01*
Y-86773D01*
X78765D01*
G01X77432Y-90398D02*
X75432D01*
G01X3932Y-74273D02*
Y-81773D01*
X7265D01*
G01X10015D02*
X12098Y-74273D01*
X14182Y-81773D01*
G01X13432Y-79148D02*
X10765D01*
G01X18598Y-81773D02*
Y-78398D01*
X16932Y-74273D01*
G01X20265D02*
X18598Y-78398D01*
G01X26765Y-81773D02*
X23432D01*
Y-74273D01*
X26765D01*
G01X25432Y-77898D02*
X23432D01*
G01X29932Y-81773D02*
Y-74273D01*
X32015D01*
X32682Y-74648D01*
X33098Y-75148D01*
X33265Y-76148D01*
X33098Y-77148D01*
X32598Y-77773D01*
X32015Y-78148D01*
X29932D01*
G01X32015D02*
X33265Y-81773D01*
G01X38098Y-82023D02*
X37932Y-81898D01*
Y-81648D01*
X38098Y-81523D01*
X38265Y-81648D01*
Y-81898D01*
X38098Y-82023D01*
G01Y-78648D02*
X37932Y-78523D01*
Y-78273D01*
X38098Y-78148D01*
X38265Y-78273D01*
Y-78523D01*
X38098Y-78648D01*
G01X115598Y-99273D02*
X-1902D01*
G01X115598Y-121273D02*
X-1902D01*
G01X115598Y-110273D02*
X-1902D01*
G01X0Y0D02*
Y220000D01*
G01Y0D02*
X280000D01*
G01Y220000D02*
X0D01*
G01X30685Y-126106D02*
X31005Y-125606D01*
X31378Y-125356D01*
X31805Y-125273D01*
X32338Y-125439D01*
X32712Y-125856D01*
X32818Y-126356D01*
X32765Y-126856D01*
X32552Y-127273D01*
X31485Y-128106D01*
X31005Y-128690D01*
X30685Y-129523D01*
X30578Y-130273D01*
X32818D01*
G01X35898Y-125273D02*
X35472Y-125439D01*
X35152Y-125856D01*
X34938Y-126356D01*
X34778Y-127023D01*
X34725Y-127773D01*
X34778Y-128523D01*
X34938Y-129190D01*
X35152Y-129690D01*
X35472Y-130106D01*
X35898Y-130273D01*
X36325Y-130106D01*
X36645Y-129690D01*
X36858Y-129190D01*
X37018Y-128523D01*
X37072Y-127773D01*
X37018Y-127023D01*
X36858Y-126356D01*
X36645Y-125856D01*
X36325Y-125439D01*
X35898Y-125273D01*
G01X40098Y-130273D02*
Y-125273D01*
X39458Y-126273D01*
G01Y-130273D02*
X40738D01*
G01X43285Y-128190D02*
X43658Y-127606D01*
X43978Y-127273D01*
X44405Y-127106D01*
X44778Y-127273D01*
X45045Y-127606D01*
X45258Y-128106D01*
X45312Y-128690D01*
X45258Y-129190D01*
X45045Y-129690D01*
X44725Y-130106D01*
X44352Y-130273D01*
X43925Y-130106D01*
X43552Y-129606D01*
X43338Y-128856D01*
X43285Y-128023D01*
X43392Y-126940D01*
X43552Y-126356D01*
X43818Y-125773D01*
X44192Y-125356D01*
X44565Y-125273D01*
X44938Y-125439D01*
X45205Y-125856D01*
G01X47805Y-128606D02*
X49192D01*
G01X52698Y-125273D02*
X52272Y-125439D01*
X51952Y-125856D01*
X51738Y-126356D01*
X51578Y-127023D01*
X51525Y-127773D01*
X51578Y-128523D01*
X51738Y-129190D01*
X51952Y-129690D01*
X52272Y-130106D01*
X52698Y-130273D01*
X53125Y-130106D01*
X53445Y-129690D01*
X53658Y-129190D01*
X53818Y-128523D01*
X53872Y-127773D01*
X53818Y-127023D01*
X53658Y-126356D01*
X53445Y-125856D01*
X53125Y-125439D01*
X52698Y-125273D01*
G01X55725Y-129273D02*
X56045Y-129856D01*
X56472Y-130190D01*
X56952Y-130273D01*
X57378Y-130190D01*
X57805Y-129773D01*
X58072Y-129273D01*
X58125Y-128773D01*
X58018Y-128190D01*
X57645Y-127773D01*
X57272Y-127606D01*
X56792D01*
G01X57272D02*
X57592Y-127356D01*
X57858Y-126940D01*
X57965Y-126440D01*
X57858Y-125940D01*
X57592Y-125523D01*
X57112Y-125273D01*
X56632Y-125356D01*
X56152Y-125690D01*
G01X60405Y-128606D02*
X61792D01*
G01X64285Y-126106D02*
X64605Y-125606D01*
X64978Y-125356D01*
X65405Y-125273D01*
X65938Y-125439D01*
X66312Y-125856D01*
X66418Y-126356D01*
X66365Y-126856D01*
X66152Y-127273D01*
X65085Y-128106D01*
X64605Y-128690D01*
X64285Y-129523D01*
X64178Y-130273D01*
X66418D01*
G01X70138D02*
Y-125273D01*
X68165Y-128856D01*
X70832D01*
G01X39132Y-119273D02*
Y-114273D01*
X40465D01*
X40892Y-114523D01*
X41158Y-114856D01*
X41265Y-115523D01*
X41158Y-116190D01*
X40838Y-116606D01*
X40465Y-116856D01*
X39132D01*
G01X40465D02*
X41265Y-119273D01*
G01X44398D02*
X43972Y-119190D01*
X43598Y-118856D01*
X43278Y-118356D01*
X43065Y-117773D01*
X42958Y-117106D01*
Y-116440D01*
X43065Y-115773D01*
X43278Y-115190D01*
X43598Y-114690D01*
X43972Y-114356D01*
X44398Y-114273D01*
X44825Y-114356D01*
X45198Y-114690D01*
X45518Y-115190D01*
X45732Y-115773D01*
X45838Y-116440D01*
Y-117106D01*
X45732Y-117773D01*
X45518Y-118356D01*
X45198Y-118856D01*
X44825Y-119190D01*
X44398Y-119273D01*
G01X47478D02*
Y-114273D01*
G01X49718D02*
Y-119273D01*
G01Y-116773D02*
X47478D01*
G01X51412Y-119273D02*
Y-114273D01*
X52798Y-118440D01*
X54185Y-114273D01*
Y-119273D01*
G01X60078Y-118606D02*
X60505Y-119023D01*
X60985Y-119273D01*
X61412D01*
X61838Y-119023D01*
X62158Y-118606D01*
X62318Y-118023D01*
X62212Y-117440D01*
X61945Y-116940D01*
X61465Y-116606D01*
X60825Y-116440D01*
X60452Y-116106D01*
X60292Y-115523D01*
X60398Y-114940D01*
X60665Y-114523D01*
X61038Y-114273D01*
X61412D01*
X61785Y-114440D01*
X62105Y-114856D01*
G01X66465Y-119273D02*
X64332D01*
Y-114273D01*
X66465D01*
G01X65612Y-116690D02*
X64332D01*
G01X68212Y-119273D02*
Y-114273D01*
X69598Y-118440D01*
X70985Y-114273D01*
Y-119273D01*
G01X73158Y-114273D02*
X74438D01*
G01X73798D02*
Y-119273D01*
G01X73158D02*
X74438D01*
G01X79172Y-114690D02*
X78852Y-114440D01*
X78478Y-114273D01*
X78052D01*
X77572Y-114523D01*
X77198Y-114940D01*
X76932Y-115440D01*
X76718Y-116273D01*
X76665Y-117023D01*
X76772Y-117773D01*
X76932Y-118273D01*
X77252Y-118773D01*
X77625Y-119106D01*
X77998Y-119273D01*
X78372D01*
X78745Y-119106D01*
X79065Y-118856D01*
X79332Y-118523D01*
G01X82198Y-119273D02*
X81772Y-119190D01*
X81398Y-118856D01*
X81078Y-118356D01*
X80865Y-117773D01*
X80758Y-117106D01*
Y-116440D01*
X80865Y-115773D01*
X81078Y-115190D01*
X81398Y-114690D01*
X81772Y-114356D01*
X82198Y-114273D01*
X82625Y-114356D01*
X82998Y-114690D01*
X83318Y-115190D01*
X83532Y-115773D01*
X83638Y-116440D01*
Y-117106D01*
X83532Y-117773D01*
X83318Y-118356D01*
X82998Y-118856D01*
X82625Y-119190D01*
X82198Y-119273D01*
G01X85172D02*
Y-114273D01*
X87625Y-119273D01*
Y-114273D01*
G01X89425Y-119273D02*
Y-114273D01*
X90492D01*
X90918Y-114523D01*
X91238Y-114856D01*
X91505Y-115356D01*
X91718Y-115940D01*
X91772Y-116773D01*
X91718Y-117606D01*
X91505Y-118190D01*
X91238Y-118690D01*
X90918Y-119023D01*
X90492Y-119273D01*
X89425D01*
G01X93625Y-114273D02*
Y-117856D01*
X93838Y-118606D01*
X94265Y-119106D01*
X94798Y-119273D01*
X95332Y-119106D01*
X95758Y-118606D01*
X95972Y-117856D01*
Y-114273D01*
G01X100172Y-114690D02*
X99852Y-114440D01*
X99478Y-114273D01*
X99052D01*
X98572Y-114523D01*
X98198Y-114940D01*
X97932Y-115440D01*
X97718Y-116273D01*
X97665Y-117023D01*
X97772Y-117773D01*
X97932Y-118273D01*
X98252Y-118773D01*
X98625Y-119106D01*
X98998Y-119273D01*
X99372D01*
X99745Y-119106D01*
X100065Y-118856D01*
X100332Y-118523D01*
G01X103198Y-114273D02*
Y-119273D01*
G01X101972Y-114273D02*
X104425D01*
G01X107398Y-119273D02*
X106972Y-119190D01*
X106598Y-118856D01*
X106278Y-118356D01*
X106065Y-117773D01*
X105958Y-117106D01*
Y-116440D01*
X106065Y-115773D01*
X106278Y-115190D01*
X106598Y-114690D01*
X106972Y-114356D01*
X107398Y-114273D01*
X107825Y-114356D01*
X108198Y-114690D01*
X108518Y-115190D01*
X108732Y-115773D01*
X108838Y-116440D01*
Y-117106D01*
X108732Y-117773D01*
X108518Y-118356D01*
X108198Y-118856D01*
X107825Y-119190D01*
X107398Y-119273D01*
G01X110532D02*
Y-114273D01*
X111865D01*
X112292Y-114523D01*
X112558Y-114856D01*
X112665Y-115523D01*
X112558Y-116190D01*
X112238Y-116606D01*
X111865Y-116856D01*
X110532D01*
G01X111865D02*
X112665Y-119273D01*
G01X43632Y-108273D02*
Y-103273D01*
X44912D01*
X45338Y-103523D01*
X45658Y-104106D01*
X45765Y-104773D01*
X45658Y-105440D01*
X45392Y-105940D01*
X44912Y-106190D01*
X43632D01*
G01X48898Y-103273D02*
Y-108273D01*
G01X47672Y-103273D02*
X50125D01*
G01X54165Y-108273D02*
X52032D01*
Y-103273D01*
X54165D01*
G01X53312Y-105689D02*
X52032D01*
G01X58472Y-103690D02*
X58152Y-103440D01*
X57778Y-103273D01*
X57352D01*
X56872Y-103523D01*
X56498Y-103940D01*
X56232Y-104440D01*
X56018Y-105273D01*
X55965Y-106023D01*
X56072Y-106773D01*
X56232Y-107273D01*
X56552Y-107773D01*
X56925Y-108106D01*
X57298Y-108273D01*
X57672D01*
X58045Y-108106D01*
X58365Y-107856D01*
X58632Y-107523D01*
G01X45598Y-74273D02*
X44932Y-74523D01*
X44432Y-75148D01*
X44098Y-75898D01*
X43848Y-76898D01*
X43765Y-78023D01*
X43848Y-79148D01*
X44098Y-80148D01*
X44432Y-80898D01*
X44932Y-81523D01*
X45598Y-81773D01*
X46265Y-81523D01*
X46765Y-80898D01*
X47099Y-80148D01*
X47348Y-79148D01*
X47432Y-78023D01*
X47348Y-76898D01*
X47099Y-75898D01*
X46765Y-75148D01*
X46265Y-74523D01*
X45598Y-74273D01*
G01X52098Y-81773D02*
Y-74273D01*
X51098Y-75773D01*
G01Y-81773D02*
X53098D01*
G01X118765Y-129273D02*
Y-123273D01*
X120365D01*
X120898Y-123573D01*
X121298Y-124273D01*
X121432Y-125073D01*
X121298Y-125873D01*
X120965Y-126473D01*
X120365Y-126773D01*
X118765D01*
G01X123965Y-129273D02*
Y-123273D01*
X125632D01*
X126165Y-123573D01*
X126498Y-123973D01*
X126632Y-124773D01*
X126498Y-125573D01*
X126098Y-126073D01*
X125632Y-126373D01*
X123965D01*
G01X125632D02*
X126632Y-129273D01*
G01X130498D02*
X129965Y-129173D01*
X129498Y-128773D01*
X129098Y-128173D01*
X128832Y-127473D01*
X128698Y-126673D01*
Y-125873D01*
X128832Y-125073D01*
X129098Y-124373D01*
X129498Y-123773D01*
X129965Y-123373D01*
X130498Y-123273D01*
X131032Y-123373D01*
X131498Y-123773D01*
X131898Y-124373D01*
X132165Y-125073D01*
X132298Y-125873D01*
Y-126673D01*
X132165Y-127473D01*
X131898Y-128173D01*
X131498Y-128773D01*
X131032Y-129173D01*
X130498Y-129273D01*
G01X134365Y-128073D02*
X134698Y-128673D01*
X135098Y-129073D01*
X135565Y-129273D01*
X136098Y-129073D01*
X136498Y-128673D01*
X136898Y-128073D01*
X137032Y-127273D01*
Y-123273D01*
G01X142232Y-129273D02*
X139565D01*
Y-123273D01*
X142232D01*
G01X141165Y-126173D02*
X139565D01*
G01X147565Y-123773D02*
X147165Y-123473D01*
X146698Y-123273D01*
X146165D01*
X145565Y-123573D01*
X145098Y-124073D01*
X144765Y-124673D01*
X144498Y-125673D01*
X144432Y-126573D01*
X144565Y-127473D01*
X144765Y-128073D01*
X145165Y-128673D01*
X145632Y-129073D01*
X146098Y-129273D01*
X146565D01*
X147032Y-129073D01*
X147432Y-128773D01*
X147765Y-128373D01*
G01X151298Y-123273D02*
Y-129273D01*
G01X149765Y-123273D02*
X152832D01*
G01X160165Y-129273D02*
Y-123273D01*
X163232Y-129273D01*
Y-123273D01*
G01X165432D02*
Y-127573D01*
X165698Y-128473D01*
X166232Y-129073D01*
X166898Y-129273D01*
X167565Y-129073D01*
X168098Y-128473D01*
X168365Y-127573D01*
Y-123273D01*
G01X170365Y-129273D02*
Y-123273D01*
X172098Y-128273D01*
X173832Y-123273D01*
Y-129273D01*
G01X177832Y-126073D02*
X178098Y-125773D01*
X178298Y-125273D01*
X178432Y-124573D01*
X178298Y-123973D01*
X178032Y-123573D01*
X177565Y-123273D01*
X175765D01*
Y-129273D01*
X177965D01*
X178432Y-128873D01*
X178698Y-128273D01*
X178832Y-127573D01*
X178698Y-126873D01*
X178298Y-126273D01*
X177832Y-126073D01*
X175765D01*
G01X183832Y-129273D02*
X181165D01*
Y-123273D01*
X183832D01*
G01X182765Y-126173D02*
X181165D01*
G01X186365Y-129273D02*
Y-123273D01*
X188032D01*
X188565Y-123573D01*
X188898Y-123973D01*
X189032Y-124773D01*
X188898Y-125573D01*
X188498Y-126073D01*
X188032Y-126373D01*
X186365D01*
G01X188032D02*
X189032Y-129273D01*
G01X192898Y-129473D02*
X192765Y-129373D01*
Y-129173D01*
X192898Y-129073D01*
X193032Y-129173D01*
Y-129373D01*
X192898Y-129473D01*
G01Y-126773D02*
X192765Y-126673D01*
Y-126473D01*
X192898Y-126373D01*
X193032Y-126473D01*
Y-126673D01*
X192898Y-126773D01*
G01X115598Y-69273D02*
Y-144273D01*
G01X118765Y-106773D02*
Y-100773D01*
X120365D01*
X120898Y-101073D01*
X121298Y-101773D01*
X121432Y-102573D01*
X121298Y-103373D01*
X120965Y-103973D01*
X120365Y-104273D01*
X118765D01*
G01X123965Y-106773D02*
Y-100773D01*
X125632D01*
X126165Y-101073D01*
X126498Y-101473D01*
X126632Y-102273D01*
X126498Y-103073D01*
X126098Y-103573D01*
X125632Y-103873D01*
X123965D01*
G01X125632D02*
X126632Y-106773D01*
G01X130498D02*
X129965Y-106673D01*
X129498Y-106273D01*
X129098Y-105673D01*
X128832Y-104973D01*
X128698Y-104173D01*
Y-103373D01*
X128832Y-102573D01*
X129098Y-101873D01*
X129498Y-101273D01*
X129965Y-100873D01*
X130498Y-100773D01*
X131032Y-100873D01*
X131498Y-101273D01*
X131898Y-101873D01*
X132165Y-102573D01*
X132298Y-103373D01*
Y-104173D01*
X132165Y-104973D01*
X131898Y-105673D01*
X131498Y-106273D01*
X131032Y-106673D01*
X130498Y-106773D01*
G01X134365Y-105573D02*
X134698Y-106173D01*
X135098Y-106573D01*
X135565Y-106773D01*
X136098Y-106573D01*
X136498Y-106173D01*
X136898Y-105573D01*
X137032Y-104773D01*
Y-100773D01*
G01X142232Y-106773D02*
X139565D01*
Y-100773D01*
X142232D01*
G01X141165Y-103673D02*
X139565D01*
G01X147565Y-101273D02*
X147165Y-100973D01*
X146698Y-100773D01*
X146165D01*
X145565Y-101073D01*
X145098Y-101573D01*
X144765Y-102173D01*
X144498Y-103173D01*
X144432Y-104073D01*
X144565Y-104973D01*
X144765Y-105573D01*
X145165Y-106173D01*
X145632Y-106573D01*
X146098Y-106773D01*
X146565D01*
X147032Y-106573D01*
X147432Y-106273D01*
X147765Y-105873D01*
G01X151298Y-100773D02*
Y-106773D01*
G01X149765Y-100773D02*
X152832D01*
G01X160165Y-106773D02*
Y-100773D01*
X163232Y-106773D01*
Y-100773D01*
G01X165232Y-106773D02*
X166898Y-100773D01*
X168565Y-106773D01*
G01X167965Y-104673D02*
X165832D01*
G01X170365Y-106773D02*
Y-100773D01*
X172098Y-105773D01*
X173832Y-100773D01*
Y-106773D01*
G01X178632D02*
X175965D01*
Y-100773D01*
X178632D01*
G01X177565Y-103673D02*
X175965D01*
G01X182498Y-106973D02*
X182365Y-106873D01*
Y-106673D01*
X182498Y-106573D01*
X182632Y-106673D01*
Y-106873D01*
X182498Y-106973D01*
G01Y-104273D02*
X182365Y-104173D01*
Y-103973D01*
X182498Y-103873D01*
X182632Y-103973D01*
Y-104173D01*
X182498Y-104273D01*
G01X318098Y-121773D02*
X115598D01*
G01X318098Y-99273D02*
X115598D01*
G01X121565Y-71273D02*
X121165Y-70973D01*
X120698Y-70773D01*
X120165D01*
X119565Y-71073D01*
X119098Y-71573D01*
X118765Y-72173D01*
X118498Y-73173D01*
X118432Y-74073D01*
X118565Y-74973D01*
X118765Y-75573D01*
X119165Y-76173D01*
X119632Y-76573D01*
X120098Y-76773D01*
X120565D01*
X121032Y-76573D01*
X121432Y-76273D01*
X121765Y-75873D01*
G01X125298Y-76773D02*
X124765Y-76673D01*
X124298Y-76273D01*
X123898Y-75673D01*
X123632Y-74973D01*
X123498Y-74173D01*
Y-73373D01*
X123632Y-72573D01*
X123898Y-71873D01*
X124298Y-71273D01*
X124765Y-70873D01*
X125298Y-70773D01*
X125832Y-70873D01*
X126298Y-71273D01*
X126698Y-71873D01*
X126965Y-72573D01*
X127098Y-73373D01*
Y-74173D01*
X126965Y-74973D01*
X126698Y-75673D01*
X126298Y-76273D01*
X125832Y-76673D01*
X125298Y-76773D01*
G01X128765D02*
Y-70773D01*
X130498Y-75773D01*
X132232Y-70773D01*
Y-76773D01*
G01X134365D02*
Y-70773D01*
X135965D01*
X136498Y-71073D01*
X136898Y-71773D01*
X137032Y-72573D01*
X136898Y-73373D01*
X136565Y-73973D01*
X135965Y-74273D01*
X134365D01*
G01X139232Y-76773D02*
X140898Y-70773D01*
X142565Y-76773D01*
G01X141965Y-74673D02*
X139832D01*
G01X144565Y-76773D02*
Y-70773D01*
X147632Y-76773D01*
Y-70773D01*
G01X151298Y-76773D02*
Y-74073D01*
X149965Y-70773D01*
G01X152632D02*
X151298Y-74073D01*
G01X160165Y-76773D02*
Y-70773D01*
X163232Y-76773D01*
Y-70773D01*
G01X165232Y-76773D02*
X166898Y-70773D01*
X168565Y-76773D01*
G01X167965Y-74673D02*
X165832D01*
G01X170365Y-76773D02*
Y-70773D01*
X172098Y-75773D01*
X173832Y-70773D01*
Y-76773D01*
G01X178632D02*
X175965D01*
Y-70773D01*
X178632D01*
G01X177565Y-73673D02*
X175965D01*
G01X182498Y-76973D02*
X182365Y-76873D01*
Y-76673D01*
X182498Y-76573D01*
X182632Y-76673D01*
Y-76873D01*
X182498Y-76973D01*
G01Y-74273D02*
X182365Y-74173D01*
Y-73973D01*
X182498Y-73873D01*
X182632Y-73973D01*
Y-74173D01*
X182498Y-74273D01*
G01X178178Y-118606D02*
X178605Y-119023D01*
X179085Y-119273D01*
X179512D01*
X179938Y-119023D01*
X180258Y-118606D01*
X180418Y-118023D01*
X180312Y-117440D01*
X180045Y-116940D01*
X179565Y-116606D01*
X178925Y-116440D01*
X178552Y-116106D01*
X178392Y-115523D01*
X178498Y-114940D01*
X178765Y-114523D01*
X179138Y-114273D01*
X179512D01*
X179885Y-114440D01*
X180205Y-114856D01*
G01X184565Y-119273D02*
X182432D01*
Y-114273D01*
X184565D01*
G01X183712Y-116690D02*
X182432D01*
G01X186472Y-119273D02*
Y-114273D01*
X188925Y-119273D01*
Y-114273D01*
G01X190778Y-118606D02*
X191205Y-119023D01*
X191685Y-119273D01*
X192112D01*
X192538Y-119023D01*
X192858Y-118606D01*
X193018Y-118023D01*
X192912Y-117440D01*
X192645Y-116940D01*
X192165Y-116606D01*
X191525Y-116440D01*
X191152Y-116106D01*
X190992Y-115523D01*
X191098Y-114940D01*
X191365Y-114523D01*
X191738Y-114273D01*
X192112D01*
X192485Y-114440D01*
X192805Y-114856D01*
G01X196098Y-119273D02*
X195672Y-119190D01*
X195298Y-118856D01*
X194978Y-118356D01*
X194765Y-117773D01*
X194658Y-117106D01*
Y-116440D01*
X194765Y-115773D01*
X194978Y-115190D01*
X195298Y-114690D01*
X195672Y-114356D01*
X196098Y-114273D01*
X196525Y-114356D01*
X196898Y-114690D01*
X197218Y-115190D01*
X197432Y-115773D01*
X197538Y-116440D01*
Y-117106D01*
X197432Y-117773D01*
X197218Y-118356D01*
X196898Y-118856D01*
X196525Y-119190D01*
X196098Y-119273D01*
G01X199232D02*
Y-114273D01*
X200565D01*
X200992Y-114523D01*
X201258Y-114856D01*
X201365Y-115523D01*
X201258Y-116190D01*
X200938Y-116606D01*
X200565Y-116856D01*
X199232D01*
G01X200565D02*
X201365Y-119273D01*
G01X203378Y-118606D02*
X203805Y-119023D01*
X204285Y-119273D01*
X204712D01*
X205138Y-119023D01*
X205458Y-118606D01*
X205618Y-118023D01*
X205512Y-117440D01*
X205245Y-116940D01*
X204765Y-116606D01*
X204125Y-116440D01*
X203752Y-116106D01*
X203592Y-115523D01*
X203698Y-114940D01*
X203965Y-114523D01*
X204338Y-114273D01*
X204712D01*
X205085Y-114440D01*
X205405Y-114856D01*
G01X207578Y-119273D02*
Y-114273D01*
G01X209818D02*
Y-119273D01*
G01Y-116773D02*
X207578D01*
G01X211832Y-114273D02*
Y-119273D01*
X213965D01*
G01X215925D02*
Y-114273D01*
X216992D01*
X217418Y-114523D01*
X217738Y-114856D01*
X218005Y-115356D01*
X218218Y-115940D01*
X218272Y-116773D01*
X218218Y-117606D01*
X218005Y-118190D01*
X217738Y-118690D01*
X217418Y-119023D01*
X216992Y-119273D01*
X215925D01*
G01X221298D02*
Y-114273D01*
X220658Y-115273D01*
G01Y-119273D02*
X221938D01*
G01X224805Y-117606D02*
X226192D01*
G01X230765Y-119273D02*
X228632D01*
Y-114273D01*
X230765D01*
G01X229912Y-116690D02*
X228632D01*
G01X232565Y-114273D02*
X233898Y-119273D01*
X235232Y-114273D01*
G01X236925Y-119273D02*
Y-114273D01*
G01X238952D02*
X236925Y-117356D01*
G01X239272Y-119273D02*
X237832Y-115940D01*
G01X241605Y-117606D02*
X242992D01*
G01X246498Y-119273D02*
Y-114273D01*
X245858Y-115273D01*
G01Y-119273D02*
X247138D01*
G01X250698Y-114273D02*
X250272Y-114440D01*
X249952Y-114856D01*
X249738Y-115356D01*
X249578Y-116023D01*
X249525Y-116773D01*
X249578Y-117523D01*
X249738Y-118190D01*
X249952Y-118690D01*
X250272Y-119106D01*
X250698Y-119273D01*
X251125Y-119106D01*
X251445Y-118690D01*
X251658Y-118190D01*
X251818Y-117523D01*
X251872Y-116773D01*
X251818Y-116023D01*
X251658Y-115356D01*
X251445Y-114856D01*
X251125Y-114440D01*
X250698Y-114273D01*
G01X254898Y-119273D02*
Y-114273D01*
X254258Y-115273D01*
G01Y-119273D02*
X255538D01*
G01X288965Y-129273D02*
Y-123273D01*
X290632D01*
X291165Y-123573D01*
X291498Y-123973D01*
X291632Y-124773D01*
X291498Y-125573D01*
X291098Y-126073D01*
X290632Y-126373D01*
X288965D01*
G01X290632D02*
X291632Y-129273D01*
G01X296832D02*
X294165D01*
Y-123273D01*
X296832D01*
G01X295765Y-126173D02*
X294165D01*
G01X299032Y-123273D02*
X300698Y-129273D01*
X302365Y-123273D01*
G01X305898Y-129473D02*
X305765Y-129373D01*
Y-129173D01*
X305898Y-129073D01*
X306032Y-129173D01*
Y-129373D01*
X305898Y-129473D01*
G01X283098Y-121773D02*
Y-144273D01*
G01X318098Y-69273D02*
Y-144273D01*
G01X319388Y-88740D02*
X319735Y-89073D01*
X320125Y-89273D01*
X320472D01*
X320818Y-89073D01*
X321078Y-88740D01*
X321208Y-88273D01*
X321122Y-87806D01*
X320905Y-87406D01*
X320515Y-87140D01*
X319995Y-87006D01*
X319692Y-86740D01*
X319562Y-86273D01*
X319648Y-85806D01*
X319865Y-85473D01*
X320168Y-85273D01*
X320472D01*
X320775Y-85406D01*
X321035Y-85740D01*
G01X322832Y-89273D02*
Y-85273D01*
X323872D01*
X324218Y-85473D01*
X324478Y-85940D01*
X324565Y-86473D01*
X324478Y-87006D01*
X324262Y-87406D01*
X323872Y-87606D01*
X322832D01*
G01X327965Y-89273D02*
X326232D01*
Y-85273D01*
X327965D01*
G01X327272Y-87206D02*
X326232D01*
G01X331452Y-85606D02*
X331192Y-85406D01*
X330888Y-85273D01*
X330542D01*
X330152Y-85473D01*
X329848Y-85806D01*
X329632Y-86206D01*
X329458Y-86873D01*
X329415Y-87473D01*
X329502Y-88073D01*
X329632Y-88473D01*
X329892Y-88873D01*
X330195Y-89140D01*
X330498Y-89273D01*
X330802D01*
X331105Y-89140D01*
X331365Y-88940D01*
X331582Y-88673D01*
G01X333378Y-85273D02*
X334418D01*
G01X333898D02*
Y-89273D01*
G01X333378D02*
X334418D01*
G01X336475D02*
Y-85273D01*
X338122D01*
G01X337515Y-87206D02*
X336475D01*
G01X340178Y-85273D02*
X341218D01*
G01X340698D02*
Y-89273D01*
G01X340178D02*
X341218D01*
G01X344965D02*
X343232D01*
Y-85273D01*
X344965D01*
G01X344272Y-87206D02*
X343232D01*
G01X346545Y-89273D02*
Y-85273D01*
X347412D01*
X347758Y-85473D01*
X348018Y-85740D01*
X348235Y-86140D01*
X348408Y-86606D01*
X348452Y-87273D01*
X348408Y-87940D01*
X348235Y-88406D01*
X348018Y-88806D01*
X347758Y-89073D01*
X347412Y-89273D01*
X346545D01*
G01X353345D02*
Y-85273D01*
X354212D01*
X354558Y-85473D01*
X354818Y-85740D01*
X355035Y-86140D01*
X355208Y-86606D01*
X355252Y-87273D01*
X355208Y-87940D01*
X355035Y-88406D01*
X354818Y-88806D01*
X354558Y-89073D01*
X354212Y-89273D01*
X353345D01*
G01X357178Y-85273D02*
X358218D01*
G01X357698D02*
Y-89273D01*
G01X357178D02*
X358218D01*
G01X359972D02*
Y-85273D01*
X361098Y-88606D01*
X362225Y-85273D01*
Y-89273D01*
G01X365365D02*
X363632D01*
Y-85273D01*
X365365D01*
G01X364672Y-87206D02*
X363632D01*
G01X366902Y-89273D02*
Y-85273D01*
X368895Y-89273D01*
Y-85273D01*
G01X370388Y-88740D02*
X370735Y-89073D01*
X371125Y-89273D01*
X371472D01*
X371818Y-89073D01*
X372078Y-88740D01*
X372208Y-88273D01*
X372122Y-87806D01*
X371905Y-87406D01*
X371515Y-87140D01*
X370995Y-87006D01*
X370692Y-86740D01*
X370562Y-86273D01*
X370648Y-85806D01*
X370865Y-85473D01*
X371168Y-85273D01*
X371472D01*
X371775Y-85406D01*
X372035Y-85740D01*
G01X374178Y-85273D02*
X375218D01*
G01X374698D02*
Y-89273D01*
G01X374178D02*
X375218D01*
G01X378098D02*
X377752Y-89206D01*
X377448Y-88940D01*
X377188Y-88540D01*
X377015Y-88073D01*
X376928Y-87540D01*
Y-87006D01*
X377015Y-86473D01*
X377188Y-86006D01*
X377448Y-85606D01*
X377752Y-85340D01*
X378098Y-85273D01*
X378445Y-85340D01*
X378748Y-85606D01*
X379008Y-86006D01*
X379182Y-86473D01*
X379268Y-87006D01*
Y-87540D01*
X379182Y-88073D01*
X379008Y-88540D01*
X378748Y-88940D01*
X378445Y-89206D01*
X378098Y-89273D01*
G01X380502D02*
Y-85273D01*
X382495Y-89273D01*
Y-85273D01*
G01X383988Y-88740D02*
X384335Y-89073D01*
X384725Y-89273D01*
X385072D01*
X385418Y-89073D01*
X385678Y-88740D01*
X385808Y-88273D01*
X385722Y-87806D01*
X385505Y-87406D01*
X385115Y-87140D01*
X384595Y-87006D01*
X384292Y-86740D01*
X384162Y-86273D01*
X384248Y-85806D01*
X384465Y-85473D01*
X384768Y-85273D01*
X385072D01*
X385375Y-85406D01*
X385635Y-85740D01*
G01X280000Y0D02*
Y220000D01*
G01X337398Y-125906D02*
X337312Y-125840D01*
Y-125706D01*
X337398Y-125640D01*
X337485Y-125706D01*
Y-125840D01*
X337398Y-125906D01*
G01X340798Y-125773D02*
Y-121773D01*
X340278Y-122573D01*
G01Y-125773D02*
X341318D01*
G01X337398Y-131906D02*
X337312Y-131840D01*
Y-131706D01*
X337398Y-131640D01*
X337485Y-131706D01*
Y-131840D01*
X337398Y-131906D01*
G01X340798Y-127773D02*
X340452Y-127906D01*
X340192Y-128240D01*
X340018Y-128640D01*
X339888Y-129173D01*
X339845Y-129773D01*
X339888Y-130373D01*
X340018Y-130906D01*
X340192Y-131306D01*
X340452Y-131640D01*
X340798Y-131773D01*
X341145Y-131640D01*
X341405Y-131306D01*
X341578Y-130906D01*
X341708Y-130373D01*
X341752Y-129773D01*
X341708Y-129173D01*
X341578Y-128640D01*
X341405Y-128240D01*
X341145Y-127906D01*
X340798Y-127773D01*
G01X343245Y-130973D02*
X343505Y-131440D01*
X343852Y-131706D01*
X344242Y-131773D01*
X344588Y-131706D01*
X344935Y-131373D01*
X345152Y-130973D01*
X345195Y-130573D01*
X345108Y-130106D01*
X344805Y-129773D01*
X344502Y-129640D01*
X344112D01*
G01X344502D02*
X344762Y-129440D01*
X344978Y-129106D01*
X345065Y-128706D01*
X344978Y-128306D01*
X344762Y-127973D01*
X344372Y-127773D01*
X343982Y-127840D01*
X343592Y-128106D01*
G01X337398Y-137906D02*
X337312Y-137840D01*
Y-137706D01*
X337398Y-137640D01*
X337485Y-137706D01*
Y-137840D01*
X337398Y-137906D01*
G01X340798Y-133773D02*
X340452Y-133906D01*
X340192Y-134240D01*
X340018Y-134640D01*
X339888Y-135173D01*
X339845Y-135773D01*
X339888Y-136373D01*
X340018Y-136906D01*
X340192Y-137306D01*
X340452Y-137640D01*
X340798Y-137773D01*
X341145Y-137640D01*
X341405Y-137306D01*
X341578Y-136906D01*
X341708Y-136373D01*
X341752Y-135773D01*
X341708Y-135173D01*
X341578Y-134640D01*
X341405Y-134240D01*
X341145Y-133906D01*
X340798Y-133773D01*
G01X344198Y-137773D02*
Y-133773D01*
X343678Y-134573D01*
G01Y-137773D02*
X344718D01*
G01X347598Y-133773D02*
X347252Y-133906D01*
X346992Y-134240D01*
X346818Y-134640D01*
X346688Y-135173D01*
X346645Y-135773D01*
X346688Y-136373D01*
X346818Y-136906D01*
X346992Y-137306D01*
X347252Y-137640D01*
X347598Y-137773D01*
X347945Y-137640D01*
X348205Y-137306D01*
X348378Y-136906D01*
X348508Y-136373D01*
X348552Y-135773D01*
X348508Y-135173D01*
X348378Y-134640D01*
X348205Y-134240D01*
X347945Y-133906D01*
X347598Y-133773D01*
G01X327888Y-125773D02*
X329708Y-121773D01*
G01X327888D02*
X329708Y-125773D01*
G01X324488Y-131773D02*
X326308Y-127773D01*
G01X324488D02*
X326308Y-131773D01*
G01X327888D02*
X329708Y-127773D01*
G01X327888D02*
X329708Y-131773D01*
G01X321088Y-137773D02*
X322908Y-133773D01*
G01X321088D02*
X322908Y-137773D01*
G01X324488D02*
X326308Y-133773D01*
G01X324488D02*
X326308Y-137773D01*
G01X327888D02*
X329708Y-133773D01*
G01X327888D02*
X329708Y-137773D01*
G01X354972Y-132273D02*
Y-128273D01*
X356098Y-131606D01*
X357225Y-128273D01*
Y-132273D01*
G01X358415D02*
X359498Y-128273D01*
X360582Y-132273D01*
G01X360192Y-130873D02*
X358805D01*
G01X363852Y-128606D02*
X363592Y-128406D01*
X363288Y-128273D01*
X362942D01*
X362552Y-128473D01*
X362248Y-128806D01*
X362032Y-129206D01*
X361858Y-129873D01*
X361815Y-130473D01*
X361902Y-131073D01*
X362032Y-131473D01*
X362292Y-131873D01*
X362595Y-132140D01*
X362898Y-132273D01*
X363202D01*
X363505Y-132140D01*
X363765Y-131940D01*
X363982Y-131673D01*
G01X365388Y-132273D02*
Y-128273D01*
G01X367208D02*
Y-132273D01*
G01Y-130273D02*
X365388D01*
G01X372275Y-132273D02*
Y-128273D01*
X373922D01*
G01X373315Y-130206D02*
X372275D01*
G01X375978Y-128273D02*
X377018D01*
G01X376498D02*
Y-132273D01*
G01X375978D02*
X377018D01*
G01X378902D02*
Y-128273D01*
X380895Y-132273D01*
Y-128273D01*
G01X382778D02*
X383818D01*
G01X383298D02*
Y-132273D01*
G01X382778D02*
X383818D01*
G01X385788Y-131740D02*
X386135Y-132073D01*
X386525Y-132273D01*
X386872D01*
X387218Y-132073D01*
X387478Y-131740D01*
X387608Y-131273D01*
X387522Y-130806D01*
X387305Y-130406D01*
X386915Y-130140D01*
X386395Y-130006D01*
X386092Y-129740D01*
X385962Y-129273D01*
X386048Y-128806D01*
X386265Y-128473D01*
X386568Y-128273D01*
X386872D01*
X387175Y-128406D01*
X387435Y-128740D01*
G01X389188Y-132273D02*
Y-128273D01*
G01X391008D02*
Y-132273D01*
G01Y-130273D02*
X389188D01*
G01X332098Y-125773D02*
X335098D01*
G01X333598Y-122073D02*
Y-125073D01*
G01X332098Y-131773D02*
X335098D01*
G01X333598Y-128073D02*
Y-131073D01*
G01X332098Y-129573D02*
X335098D01*
G01X332098Y-137773D02*
X335098D01*
G01X333598Y-134073D02*
Y-137073D01*
G01X332098Y-135573D02*
X335098D01*
G01X331115Y-96773D02*
X332198Y-92773D01*
X333282Y-96773D01*
G01X332892Y-95373D02*
X331505D01*
G01X334732Y-96773D02*
Y-92773D01*
X335815D01*
X336162Y-92973D01*
X336378Y-93240D01*
X336465Y-93773D01*
X336378Y-94306D01*
X336118Y-94640D01*
X335815Y-94840D01*
X334732D01*
G01X335815D02*
X336465Y-96773D01*
G01X339865D02*
X338132D01*
Y-92773D01*
X339865D01*
G01X339172Y-94706D02*
X338132D01*
G01X345278Y-92773D02*
X346318D01*
G01X345798D02*
Y-96773D01*
G01X345278D02*
X346318D01*
G01X348202D02*
Y-92773D01*
X350195Y-96773D01*
Y-92773D01*
G01X355478D02*
X356518D01*
G01X355998D02*
Y-96773D01*
G01X355478D02*
X356518D01*
G01X358402D02*
Y-92773D01*
X360395Y-96773D01*
Y-92773D01*
G01X363752Y-93106D02*
X363492Y-92906D01*
X363188Y-92773D01*
X362842D01*
X362452Y-92973D01*
X362148Y-93306D01*
X361932Y-93706D01*
X361758Y-94373D01*
X361715Y-94973D01*
X361802Y-95573D01*
X361932Y-95973D01*
X362192Y-96373D01*
X362495Y-96640D01*
X362798Y-96773D01*
X363102D01*
X363405Y-96640D01*
X363665Y-96440D01*
X363882Y-96173D01*
G01X365288Y-96773D02*
Y-92773D01*
G01X367108D02*
Y-96773D01*
G01Y-94773D02*
X365288D01*
G01X370465Y-96773D02*
X368732D01*
Y-92773D01*
X370465D01*
G01X369772Y-94706D02*
X368732D01*
G01X372088Y-96240D02*
X372435Y-96573D01*
X372825Y-96773D01*
X373172D01*
X373518Y-96573D01*
X373778Y-96240D01*
X373908Y-95773D01*
X373822Y-95306D01*
X373605Y-94906D01*
X373215Y-94640D01*
X372695Y-94506D01*
X372392Y-94240D01*
X372262Y-93773D01*
X372348Y-93306D01*
X372565Y-92973D01*
X372868Y-92773D01*
X373172D01*
X373475Y-92906D01*
X373735Y-93240D01*
G01X322445Y-120273D02*
Y-116273D01*
X323312D01*
X323658Y-116473D01*
X323918Y-116740D01*
X324135Y-117140D01*
X324308Y-117606D01*
X324352Y-118273D01*
X324308Y-118940D01*
X324135Y-119406D01*
X323918Y-119806D01*
X323658Y-120073D01*
X323312Y-120273D01*
X322445D01*
G01X327665D02*
X325932D01*
Y-116273D01*
X327665D01*
G01X326972Y-118206D02*
X325932D01*
G01X331152Y-116606D02*
X330892Y-116406D01*
X330588Y-116273D01*
X330242D01*
X329852Y-116473D01*
X329548Y-116806D01*
X329332Y-117206D01*
X329158Y-117873D01*
X329115Y-118473D01*
X329202Y-119073D01*
X329332Y-119473D01*
X329592Y-119873D01*
X329895Y-120140D01*
X330198Y-120273D01*
X330502D01*
X330805Y-120140D01*
X331065Y-119940D01*
X331282Y-119673D01*
G01X333078Y-116273D02*
X334118D01*
G01X333598D02*
Y-120273D01*
G01X333078D02*
X334118D01*
G01X335872D02*
Y-116273D01*
X336998Y-119606D01*
X338125Y-116273D01*
Y-120273D01*
G01X339315D02*
X340398Y-116273D01*
X341482Y-120273D01*
G01X341092Y-118873D02*
X339705D01*
G01X342932Y-116273D02*
Y-120273D01*
X344665D01*
G01X337298Y-107773D02*
Y-111773D01*
G01X336302Y-107773D02*
X338295D01*
G01X340698Y-111773D02*
X340352Y-111706D01*
X340048Y-111440D01*
X339788Y-111040D01*
X339615Y-110573D01*
X339528Y-110040D01*
Y-109506D01*
X339615Y-108973D01*
X339788Y-108506D01*
X340048Y-108106D01*
X340352Y-107840D01*
X340698Y-107773D01*
X341045Y-107840D01*
X341348Y-108106D01*
X341608Y-108506D01*
X341782Y-108973D01*
X341868Y-109506D01*
Y-110040D01*
X341782Y-110573D01*
X341608Y-111040D01*
X341348Y-111440D01*
X341045Y-111706D01*
X340698Y-111773D01*
G01X343232Y-107773D02*
Y-111773D01*
X344965D01*
G01X348365D02*
X346632D01*
Y-107773D01*
X348365D01*
G01X347672Y-109706D02*
X346632D01*
G01X350032Y-111773D02*
Y-107773D01*
X351115D01*
X351462Y-107973D01*
X351678Y-108240D01*
X351765Y-108773D01*
X351678Y-109306D01*
X351418Y-109640D01*
X351115Y-109840D01*
X350032D01*
G01X351115D02*
X351765Y-111773D01*
G01X353215D02*
X354298Y-107773D01*
X355382Y-111773D01*
G01X354992Y-110373D02*
X353605D01*
G01X356702Y-111773D02*
Y-107773D01*
X358695Y-111773D01*
Y-107773D01*
G01X362052Y-108106D02*
X361792Y-107906D01*
X361488Y-107773D01*
X361142D01*
X360752Y-107973D01*
X360448Y-108306D01*
X360232Y-108706D01*
X360058Y-109373D01*
X360015Y-109973D01*
X360102Y-110573D01*
X360232Y-110973D01*
X360492Y-111373D01*
X360795Y-111640D01*
X361098Y-111773D01*
X361402D01*
X361705Y-111640D01*
X361965Y-111440D01*
X362182Y-111173D01*
G01X365365Y-111773D02*
X363632D01*
Y-107773D01*
X365365D01*
G01X364672Y-109706D02*
X363632D01*
G01X366988Y-111240D02*
X367335Y-111573D01*
X367725Y-111773D01*
X368072D01*
X368418Y-111573D01*
X368678Y-111240D01*
X368808Y-110773D01*
X368722Y-110306D01*
X368505Y-109906D01*
X368115Y-109640D01*
X367595Y-109506D01*
X367292Y-109240D01*
X367162Y-108773D01*
X367248Y-108306D01*
X367465Y-107973D01*
X367768Y-107773D01*
X368072D01*
X368375Y-107906D01*
X368635Y-108240D01*
G01X326145Y-77773D02*
Y-80640D01*
X326318Y-81240D01*
X326665Y-81640D01*
X327098Y-81773D01*
X327532Y-81640D01*
X327878Y-81240D01*
X328052Y-80640D01*
Y-77773D01*
G01X329502Y-81773D02*
Y-77773D01*
X331495Y-81773D01*
Y-77773D01*
G01X333032D02*
Y-81773D01*
X334765D01*
G01X338165D02*
X336432D01*
Y-77773D01*
X338165D01*
G01X337472Y-79706D02*
X336432D01*
G01X339788Y-81240D02*
X340135Y-81573D01*
X340525Y-81773D01*
X340872D01*
X341218Y-81573D01*
X341478Y-81240D01*
X341608Y-80773D01*
X341522Y-80306D01*
X341305Y-79906D01*
X340915Y-79640D01*
X340395Y-79506D01*
X340092Y-79240D01*
X339962Y-78773D01*
X340048Y-78306D01*
X340265Y-77973D01*
X340568Y-77773D01*
X340872D01*
X341175Y-77906D01*
X341435Y-78240D01*
G01X343188Y-81240D02*
X343535Y-81573D01*
X343925Y-81773D01*
X344272D01*
X344618Y-81573D01*
X344878Y-81240D01*
X345008Y-80773D01*
X344922Y-80306D01*
X344705Y-79906D01*
X344315Y-79640D01*
X343795Y-79506D01*
X343492Y-79240D01*
X343362Y-78773D01*
X343448Y-78306D01*
X343665Y-77973D01*
X343968Y-77773D01*
X344272D01*
X344575Y-77906D01*
X344835Y-78240D01*
G01X350898Y-81773D02*
X350552Y-81706D01*
X350248Y-81440D01*
X349988Y-81040D01*
X349815Y-80573D01*
X349728Y-80040D01*
Y-79506D01*
X349815Y-78973D01*
X349988Y-78506D01*
X350248Y-78106D01*
X350552Y-77840D01*
X350898Y-77773D01*
X351245Y-77840D01*
X351548Y-78106D01*
X351808Y-78506D01*
X351982Y-78973D01*
X352068Y-79506D01*
Y-80040D01*
X351982Y-80573D01*
X351808Y-81040D01*
X351548Y-81440D01*
X351245Y-81706D01*
X350898Y-81773D01*
G01X354298Y-77773D02*
Y-81773D01*
G01X353302Y-77773D02*
X355295D01*
G01X356788Y-81773D02*
Y-77773D01*
G01X358608D02*
Y-81773D01*
G01Y-79773D02*
X356788D01*
G01X361965Y-81773D02*
X360232D01*
Y-77773D01*
X361965D01*
G01X361272Y-79706D02*
X360232D01*
G01X363632Y-81773D02*
Y-77773D01*
X364715D01*
X365062Y-77973D01*
X365278Y-78240D01*
X365365Y-78773D01*
X365278Y-79306D01*
X365018Y-79640D01*
X364715Y-79840D01*
X363632D01*
G01X364715D02*
X365365Y-81773D01*
G01X366598Y-77773D02*
X367205Y-81773D01*
X367898Y-77773D01*
X368592Y-81773D01*
X369198Y-77773D01*
G01X370778D02*
X371818D01*
G01X371298D02*
Y-81773D01*
G01X370778D02*
X371818D01*
G01X373788Y-81240D02*
X374135Y-81573D01*
X374525Y-81773D01*
X374872D01*
X375218Y-81573D01*
X375478Y-81240D01*
X375608Y-80773D01*
X375522Y-80306D01*
X375305Y-79906D01*
X374915Y-79640D01*
X374395Y-79506D01*
X374092Y-79240D01*
X373962Y-78773D01*
X374048Y-78306D01*
X374265Y-77973D01*
X374568Y-77773D01*
X374872D01*
X375175Y-77906D01*
X375435Y-78240D01*
G01X378965Y-81773D02*
X377232D01*
Y-77773D01*
X378965D01*
G01X378272Y-79706D02*
X377232D01*
G01X332098Y-123573D02*
X335098D01*
G01X373945Y-125473D02*
X374205Y-125940D01*
X374552Y-126206D01*
X374942Y-126273D01*
X375288Y-126206D01*
X375635Y-125873D01*
X375852Y-125473D01*
X375895Y-125073D01*
X375808Y-124606D01*
X375505Y-124273D01*
X375202Y-124140D01*
X374812D01*
G01X375202D02*
X375462Y-123940D01*
X375678Y-123606D01*
X375765Y-123206D01*
X375678Y-122806D01*
X375462Y-122473D01*
X375072Y-122273D01*
X374682Y-122340D01*
X374292Y-122606D01*
G01X378298Y-122273D02*
X377952Y-122406D01*
X377692Y-122740D01*
X377518Y-123140D01*
X377388Y-123673D01*
X377345Y-124273D01*
X377388Y-124873D01*
X377518Y-125406D01*
X377692Y-125806D01*
X377952Y-126140D01*
X378298Y-126273D01*
X378645Y-126140D01*
X378905Y-125806D01*
X379078Y-125406D01*
X379208Y-124873D01*
X379252Y-124273D01*
X379208Y-123673D01*
X379078Y-123140D01*
X378905Y-122740D01*
X378645Y-122406D01*
X378298Y-122273D01*
G01X368798Y-125773D02*
X371798D01*
G01X370298Y-122073D02*
Y-125073D01*
G01X374098Y-133273D02*
X377098D01*
G01X375598D02*
X373298Y-137773D01*
X371798Y-135573D01*
G01X362215Y-120273D02*
X363298Y-116273D01*
X364382Y-120273D01*
G01X363992Y-118873D02*
X362605D01*
G01X365702Y-120273D02*
Y-116273D01*
X367695Y-120273D01*
Y-116273D01*
G01X370358Y-118273D02*
X371225D01*
Y-119473D01*
X370965Y-119873D01*
X370662Y-120140D01*
X370228Y-120273D01*
X369795Y-120140D01*
X369492Y-119873D01*
X369232Y-119473D01*
X369058Y-119006D01*
X368972Y-118473D01*
Y-118006D01*
X369058Y-117606D01*
X369232Y-117140D01*
X369492Y-116740D01*
X369752Y-116473D01*
X370098Y-116273D01*
X370402D01*
X370748Y-116406D01*
X371008Y-116673D01*
G01X372632Y-116273D02*
Y-120273D01*
X374365D01*
G01X377765D02*
X376032D01*
Y-116273D01*
X377765D01*
G01X377072Y-118206D02*
X376032D01*
G01X368798Y-123573D02*
X371798D01*
M02*
