G04 ================== begin FILE IDENTIFICATION RECORD ==================*
G04 Layout Name:  D:/gerber/SENSORKIT-MULTISENSORSHIELD_BOARD_BRD_REV02_2015-09-25.brd*
G04 Film Name:    SMASK_TOP*
G04 File Format:  Gerber RS274X*
G04 File Origin:  Cadence Allegro 16.5-S058*
G04 Origin Date:  Fri Sep 25 14:25:55 2015*
G04 *
G04 Layer:  VIA CLASS/SOLDERMASK_TOP*
G04 Layer:  PIN/SOLDERMASK_TOP*
G04 Layer:  PACKAGE GEOMETRY/SOLDERMASK_TOP*
G04 Layer:  DRAWING FORMAT/SOLDERMASK_TOP*
G04 Layer:  BOARD GEOMETRY/OUTLINE*
G04 Layer:  BOARD GEOMETRY/SOLDERMASK_TOP*
G04 Layer:  BOARD GEOMETRY/LOGO*
G04 *
G04 Offset:    (0.000 0.000)*
G04 Mirror:    No*
G04 Mode:      Positive*
G04 Rotation:  0*
G04 FullContactRelief:  No*
G04 UndefLineWidth:     5.000*
G04 ================== end FILE IDENTIFICATION RECORD ====================*
%FSLAX55Y55*MOIN*%
%IR0*IPPOS*OFA0.00000B0.00000*MIA0B0*SFA1.00000B1.00000*%
%ADD10C,.16*%
%ADD49C,.255*%
%ADD11C,.11811*%
%AMMACRO39*
4,1,5,.0145,-.009,
-.0145,-.009,
-.0145,-.000409,
-.005091,.009,
.0145,.009,
.0145,-.009,
0.0*
%
%ADD39MACRO39*%
%AMMACRO43*
4,1,5,-.009,-.0145,
-.009,.0145,
-.000409,.0145,
.009,.005091,
.009,-.0145,
-.009,-.0145,
0.0*
%
%ADD43MACRO43*%
%AMMACRO42*
4,1,5,.0145,.009,
.0145,-.009,
-.005091,-.009,
-.0145,.000409,
-.0145,.009,
.0145,.009,
0.0*
%
%ADD42MACRO42*%
%AMMACRO44*
4,1,5,.009,-.0145,
-.009,-.0145,
-.009,.005091,
.000409,.0145,
.009,.0145,
.009,-.0145,
0.0*
%
%ADD44MACRO44*%
%AMMACRO28*
21,1,.011,.041,0.0,0.0,45.*
1,1,.041,.003889,.003889*
1,1,.041,-.003889,-.003889*%
%ADD28MACRO28*%
%ADD21R,.016X.02*%
%ADD22R,.02X.016*%
%AMMACRO37*
4,1,12,.0075,-.033,
-.0075,-.033,
-.0075,-.016972,
-.0165,-.011972,
-.0165,.006972,
-.0075,.011972,
-.0075,.033,
.0075,.033,
.0075,.011972,
.0165,.006972,
.0165,-.011972,
.0075,-.016972,
.0075,-.033,
0.0*
%
%ADD37MACRO37*%
%ADD30R,.016X.015*%
%ADD31R,.015X.016*%
%ADD17R,.014X.018*%
%ADD34R,.035X.016*%
%ADD26R,.025X.026*%
%ADD18R,.018X.014*%
%ADD16R,.052X.016*%
%ADD23R,.026X.025*%
%ADD36R,.015X.019*%
%ADD24R,.035X.037*%
%ADD15R,.029X.025*%
%ADD13R,.037X.035*%
%ADD38R,.046X.018*%
%ADD35R,.035X.065*%
%ADD29C,.041*%
%ADD14R,.035X.037*%
%ADD46R,.029X.018*%
%ADD41R,.018X.029*%
%ADD32R,.029X.045*%
%ADD12C,.018*%
%ADD19C,.065*%
%ADD33R,.033X.033*%
%AMMACRO47*
4,1,5,.009,.0145,
.009,-.0145,
.000409,-.0145,
-.009,-.005091,
-.009,.0145,
.009,.0145,
0.0*
%
%ADD47MACRO47*%
%AMMACRO45*
4,1,5,-.0145,.009,
.0145,.009,
.0145,.000409,
.005091,-.009,
-.0145,-.009,
-.0145,.009,
0.0*
%
%ADD45MACRO45*%
%ADD27R,.026X.026*%
%ADD25R,.019X.019*%
%ADD20R,.065X.065*%
%AMMACRO48*
4,1,5,-.0145,-.009,
-.0145,.009,
.005091,.009,
.0145,-.000409,
.0145,-.009,
-.0145,-.009,
0.0*
%
%ADD48MACRO48*%
%AMMACRO40*
4,1,5,-.009,.0145,
.009,.0145,
.009,-.005091,
-.000409,-.0145,
-.009,-.0145,
-.009,.0145,
0.0*
%
%ADD40MACRO40*%
%ADD50C,.006*%
%ADD51C,.007098*%
%ADD52C,.005*%
G75*
%LPD*%
G75*
G54D10*
X10000Y10000D03*
X0Y210000D03*
X200000Y30000D03*
Y140000D03*
G54D20*
X17500Y125000D03*
X32500D03*
X50000Y10000D03*
X47500Y125000D03*
X62500D03*
X92500Y157500D03*
X104000Y210000D03*
Y200000D03*
X140000Y10000D03*
X125000Y157500D03*
X157500D03*
X190000D03*
Y200000D03*
X219000Y10000D03*
X228500Y175500D03*
X219000Y200000D03*
X261000Y135011D03*
X301000Y70011D03*
Y150011D03*
G54D11*
X30000Y10000D03*
X292500Y27500D03*
X293945Y196203D03*
G54D12*
X21500Y3500D03*
X3500Y52000D03*
Y42000D03*
Y32000D03*
Y22000D03*
X10297Y30500D03*
X14500Y49217D03*
X3500Y102000D03*
Y92000D03*
Y82000D03*
Y72000D03*
Y62000D03*
X26000Y70000D03*
X23500Y147000D03*
X13500D03*
X3500Y142000D03*
Y132000D03*
Y122000D03*
Y112000D03*
X30000Y137500D03*
X-4000Y197000D03*
X6000D03*
X32500Y216500D03*
X22500D03*
X12500D03*
X34000Y3500D03*
X41500D03*
X51500D03*
X61500D03*
X71500D03*
X64500Y48100D03*
X71500Y35500D03*
Y41000D03*
X59000Y45500D03*
X55850Y30000D03*
X48500Y46000D03*
X47850Y29850D03*
X59000Y36000D03*
X34484Y60016D03*
X71500Y78500D03*
X58500Y97000D03*
X38000Y90000D03*
X71500Y84500D03*
X63000Y97000D03*
X38000Y86000D03*
X53500Y77000D03*
X60500Y84500D03*
X34000Y100000D03*
X39968Y64032D03*
X51500Y65000D03*
X67500Y97000D03*
X47000Y84500D03*
X59500Y146500D03*
X73500Y145000D03*
X64500Y146500D03*
X69000Y142000D03*
X73000Y133000D03*
X35000Y137500D03*
X41500D03*
X66100Y138600D03*
X53000Y169468D03*
X42000Y191000D03*
X57000Y167000D03*
X59500Y151000D03*
X57500Y171500D03*
X76500Y167000D03*
Y172000D03*
X69000Y167000D03*
Y171500D03*
X35000Y185000D03*
Y175000D03*
Y165000D03*
Y155000D03*
X57968Y161968D03*
X48032Y168032D03*
X47000Y151000D03*
X51500D03*
X58500Y156000D03*
X72500Y216500D03*
X62500D03*
X52500D03*
X42500D03*
X81500Y3500D03*
X91500D03*
X101500D03*
X111500D03*
X80000Y40000D03*
Y45000D03*
X104323Y56177D03*
X104500Y41806D03*
X92512Y56012D03*
X80000Y50000D03*
X120575Y97925D03*
X101500Y102000D03*
X90000Y104000D03*
X81000Y97000D03*
X94961Y100000D03*
X88500Y111500D03*
X93500Y113000D03*
X90000Y134500D03*
X87040Y121850D03*
Y116850D03*
X86500Y142500D03*
X116750Y137750D03*
X98000Y113000D03*
X105500Y141000D03*
X84000Y129500D03*
X101500Y109500D03*
X119172Y109172D03*
X113500Y109500D03*
X78500Y142500D03*
X113500Y151500D03*
X102500Y167000D03*
X95000D03*
X117500Y173500D03*
X110000D03*
X95000D03*
X102500D03*
X87500D03*
X111000Y165400D03*
X112000Y209000D03*
X112500Y216500D03*
X102500D03*
X92500D03*
X82500D03*
X121500Y3500D03*
X131500D03*
X141500D03*
X151500D03*
X161500D03*
X160000Y39500D03*
X121478Y29022D03*
X150000Y39500D03*
X129500Y56500D03*
X144500Y39500D03*
X122500Y56500D03*
X147000Y64500D03*
X136000Y105000D03*
X147000Y69000D03*
X160500Y99000D03*
X130000Y99500D03*
X152000Y101000D03*
X153353Y94353D03*
X123295Y72295D03*
X163000Y64500D03*
X138500Y67892D03*
X147500Y142500D03*
X123000Y140000D03*
X151500Y110500D03*
X157500Y128476D03*
X133500Y129000D03*
X144500Y134000D03*
X131000Y140000D03*
X129500Y115500D03*
X165500Y118000D03*
X140000Y173500D03*
X160000D03*
X146000Y176850D03*
X165500Y176500D03*
X144000Y170500D03*
X161000Y150500D03*
X150500D03*
X125000Y173500D03*
X132500D03*
X162500Y216500D03*
X152500D03*
X142500D03*
X132500D03*
X122500D03*
X171500Y3500D03*
X181500D03*
X191500D03*
X201500D03*
X177000Y39500D03*
X175500Y55000D03*
X170000Y39500D03*
X184000D03*
X188000Y30000D03*
X167000Y103500D03*
X175000Y91000D03*
X177500Y86000D03*
X166500Y136361D03*
X180000Y149500D03*
X173000Y125000D03*
X177500Y142500D03*
X173000Y117000D03*
X172500Y142500D03*
X167300Y109600D03*
X170000Y131500D03*
X183500Y179000D03*
X175000Y172500D03*
X202000Y170500D03*
X192500D03*
X183500D03*
X170000Y173000D03*
X194850Y176850D03*
X202500Y216500D03*
X192500D03*
X182500D03*
X172500D03*
X211500Y3500D03*
X221500D03*
X231500D03*
X241500D03*
X251500D03*
X246968Y47000D03*
X240000Y50500D03*
X252500Y47500D03*
X240000Y60000D03*
X240300Y44500D03*
X235500Y29500D03*
X242500D03*
X248500D03*
X247000Y60500D03*
X234500Y50000D03*
X252500Y60000D03*
X220000Y90000D03*
Y100000D03*
X230000D03*
X212500Y85000D03*
X220000Y130000D03*
X230000D03*
Y140000D03*
X220000D03*
Y120000D03*
Y110000D03*
X230000Y120000D03*
Y110000D03*
X239000Y175000D03*
Y179000D03*
X252500Y164500D03*
X227000Y150000D03*
X225500Y164500D03*
X210000Y150000D03*
X225500Y157000D03*
X220000Y150000D03*
X240500Y167500D03*
X247500Y170000D03*
X243032Y152032D03*
X244000Y162000D03*
X251000Y152000D03*
X233000Y150000D03*
X233500Y160000D03*
X252500Y216500D03*
X242500D03*
X232500D03*
X222500D03*
X212500D03*
X262500Y3500D03*
X276500D03*
X286500D03*
X296500D03*
X277500Y43500D03*
X268500Y44000D03*
X254000Y42500D03*
X286500Y36000D03*
X291500D03*
X286500Y46000D03*
Y41000D03*
X254500Y29500D03*
X291500Y41000D03*
X257500Y37500D03*
X259000Y63000D03*
X278500Y136000D03*
X282000Y132500D03*
X274989Y139000D03*
X278000Y169000D03*
X292500Y216500D03*
X282500D03*
X272500D03*
X262500D03*
X306500Y8000D03*
Y18000D03*
Y28000D03*
Y38000D03*
Y48000D03*
X298945Y41055D03*
X306500Y63000D03*
Y83000D03*
Y93000D03*
Y103000D03*
Y113000D03*
Y123000D03*
Y133000D03*
Y143000D03*
Y158000D03*
Y168000D03*
Y178000D03*
Y188000D03*
Y198000D03*
Y208000D03*
X302500Y216500D03*
G54D30*
X98949Y102750D03*
Y104719D03*
X92941Y102750D03*
Y104719D03*
X98949Y106687D03*
Y108656D03*
X92941Y106687D03*
Y108656D03*
G54D21*
X48032Y42312D03*
X50000D03*
X51968D03*
X48032Y32688D03*
X50000D03*
X51968D03*
X48032Y164812D03*
X50000D03*
X51968D03*
X48032Y155188D03*
X50000D03*
X51968D03*
X123508Y102391D03*
X125476D03*
X127445D03*
X129413D03*
X131382D03*
X155008Y101891D03*
X156976D03*
X158945D03*
X160913D03*
X162882D03*
X123508Y112015D03*
X125476D03*
X127445D03*
X129413D03*
X131382D03*
X155008Y111515D03*
X156976D03*
X158945D03*
X160913D03*
X162882D03*
X243032Y42312D03*
X245000D03*
X246968D03*
X243032Y32688D03*
X245000D03*
X246968D03*
X243032Y164812D03*
X245000D03*
X246968D03*
X243032Y155188D03*
X245000D03*
X246968D03*
G54D40*
X128165Y136292D03*
G54D13*
X10297Y39595D03*
Y34295D03*
X50000Y176850D03*
Y182150D03*
X42500Y176850D03*
Y182150D03*
X57500Y176850D03*
Y182150D03*
X65000Y176850D03*
Y182150D03*
X72500Y176850D03*
Y182150D03*
X84000Y139150D03*
Y133850D03*
X117500Y176850D03*
Y182150D03*
X102500D03*
Y176850D03*
X87500Y182150D03*
Y176850D03*
X80000D03*
Y182150D03*
X95000Y176850D03*
Y182150D03*
X110000Y176850D03*
Y182150D03*
X160000Y36150D03*
Y30850D03*
X140000Y36150D03*
Y30850D03*
X150000Y36150D03*
Y30850D03*
X125000Y176850D03*
Y182150D03*
X132500Y176850D03*
Y182150D03*
X140000Y176850D03*
Y182150D03*
X150000Y176850D03*
Y182150D03*
X160000Y176850D03*
Y182150D03*
X170000Y36150D03*
Y30850D03*
X177000Y36150D03*
Y30850D03*
X184000Y36150D03*
Y30850D03*
X172500Y96350D03*
Y101650D03*
Y106850D03*
Y112150D03*
X180000Y176850D03*
Y182150D03*
X190000Y176850D03*
Y182150D03*
X170000Y176850D03*
Y182150D03*
X291445Y45553D03*
Y50853D03*
X298945Y45553D03*
Y50853D03*
G54D31*
X96929Y102750D03*
X94961D03*
X96929Y108656D03*
X94961D03*
G54D22*
X54812Y33563D03*
Y35532D03*
Y37500D03*
Y39468D03*
Y41437D03*
X45188Y33563D03*
Y35532D03*
Y37500D03*
Y39468D03*
Y41437D03*
X54812Y156063D03*
Y158032D03*
Y160000D03*
Y161968D03*
Y163937D03*
X45188Y156063D03*
Y158032D03*
Y160000D03*
Y161968D03*
Y163937D03*
X163757Y104735D03*
X154133D03*
X132257Y109172D03*
Y107203D03*
Y105235D03*
X122633Y109172D03*
Y107203D03*
Y105235D03*
X163757Y108672D03*
Y106703D03*
X154133Y108672D03*
Y106703D03*
X249812Y33563D03*
Y35532D03*
Y37500D03*
Y39468D03*
Y41437D03*
X240188Y33563D03*
Y35532D03*
Y37500D03*
Y39468D03*
Y41437D03*
X249812Y156063D03*
Y158032D03*
Y160000D03*
Y161968D03*
Y163937D03*
X240188Y156063D03*
Y158032D03*
Y160000D03*
Y161968D03*
Y163937D03*
G54D50*
G01X163865Y-94273D02*
Y-88273D01*
X165532D01*
X166065Y-88573D01*
X166398Y-88973D01*
X166532Y-89773D01*
X166398Y-90573D01*
X165998Y-91073D01*
X165532Y-91373D01*
X163865D01*
G01X165532D02*
X166532Y-94273D01*
G01X169998D02*
X169465Y-94173D01*
X168998Y-93773D01*
X168598Y-93173D01*
X168332Y-92473D01*
X168198Y-91673D01*
Y-90873D01*
X168332Y-90073D01*
X168598Y-89373D01*
X168998Y-88773D01*
X169465Y-88373D01*
X169998Y-88273D01*
X170532Y-88373D01*
X170998Y-88773D01*
X171398Y-89373D01*
X171665Y-90073D01*
X171798Y-90873D01*
Y-91673D01*
X171665Y-92473D01*
X171398Y-93173D01*
X170998Y-93773D01*
X170532Y-94173D01*
X169998Y-94273D01*
G01X173398D02*
Y-88273D01*
G01X176198D02*
Y-94273D01*
G01Y-91273D02*
X173398D01*
G01X177865Y-94273D02*
Y-88273D01*
X179598Y-93273D01*
X181332Y-88273D01*
Y-94273D01*
G01X187798Y-93473D02*
X188332Y-93973D01*
X188932Y-94273D01*
X189465D01*
X189998Y-93973D01*
X190398Y-93473D01*
X190598Y-92773D01*
X190465Y-92073D01*
X190132Y-91473D01*
X189532Y-91073D01*
X188732Y-90873D01*
X188265Y-90473D01*
X188065Y-89773D01*
X188198Y-89073D01*
X188532Y-88573D01*
X188998Y-88273D01*
X189465D01*
X189932Y-88473D01*
X190332Y-88973D01*
G01X195332Y-94273D02*
X192665D01*
Y-88273D01*
X195332D01*
G01X194265Y-91173D02*
X192665D01*
G01X197065Y-94273D02*
Y-88273D01*
X198798Y-93273D01*
X200532Y-88273D01*
Y-94273D01*
G01X202798Y-88273D02*
X204398D01*
G01X203598D02*
Y-94273D01*
G01X202798D02*
X204398D01*
G01X209865Y-88773D02*
X209465Y-88473D01*
X208998Y-88273D01*
X208465D01*
X207865Y-88573D01*
X207398Y-89073D01*
X207065Y-89673D01*
X206798Y-90673D01*
X206732Y-91573D01*
X206865Y-92473D01*
X207065Y-93073D01*
X207465Y-93673D01*
X207932Y-94073D01*
X208398Y-94273D01*
X208865D01*
X209332Y-94073D01*
X209732Y-93773D01*
X210065Y-93373D01*
G01X213198Y-94273D02*
X212665Y-94173D01*
X212198Y-93773D01*
X211798Y-93173D01*
X211532Y-92473D01*
X211398Y-91673D01*
Y-90873D01*
X211532Y-90073D01*
X211798Y-89373D01*
X212198Y-88773D01*
X212665Y-88373D01*
X213198Y-88273D01*
X213732Y-88373D01*
X214198Y-88773D01*
X214598Y-89373D01*
X214865Y-90073D01*
X214998Y-90873D01*
Y-91673D01*
X214865Y-92473D01*
X214598Y-93173D01*
X214198Y-93773D01*
X213732Y-94173D01*
X213198Y-94273D01*
G01X216465D02*
Y-88273D01*
X219532Y-94273D01*
Y-88273D01*
G01X221332Y-94273D02*
Y-88273D01*
X222665D01*
X223198Y-88573D01*
X223598Y-88973D01*
X223932Y-89573D01*
X224198Y-90273D01*
X224265Y-91273D01*
X224198Y-92273D01*
X223932Y-92973D01*
X223598Y-93573D01*
X223198Y-93973D01*
X222665Y-94273D01*
X221332D01*
G01X226132Y-88273D02*
Y-92573D01*
X226398Y-93473D01*
X226932Y-94073D01*
X227598Y-94273D01*
X228265Y-94073D01*
X228798Y-93473D01*
X229065Y-92573D01*
Y-88273D01*
G01X233865Y-88773D02*
X233465Y-88473D01*
X232999Y-88273D01*
X232465D01*
X231865Y-88573D01*
X231398Y-89073D01*
X231065Y-89673D01*
X230798Y-90673D01*
X230732Y-91573D01*
X230865Y-92473D01*
X231065Y-93073D01*
X231465Y-93673D01*
X231932Y-94073D01*
X232398Y-94273D01*
X232865D01*
X233332Y-94073D01*
X233732Y-93773D01*
X234065Y-93373D01*
G01X237198Y-88273D02*
Y-94273D01*
G01X235665Y-88273D02*
X238732D01*
G01X241998Y-94273D02*
X241465Y-94173D01*
X240998Y-93773D01*
X240598Y-93173D01*
X240332Y-92473D01*
X240198Y-91673D01*
Y-90873D01*
X240332Y-90073D01*
X240598Y-89373D01*
X240998Y-88773D01*
X241465Y-88373D01*
X241998Y-88273D01*
X242532Y-88373D01*
X242998Y-88773D01*
X243398Y-89373D01*
X243665Y-90073D01*
X243798Y-90873D01*
Y-91673D01*
X243665Y-92473D01*
X243398Y-93173D01*
X242998Y-93773D01*
X242532Y-94173D01*
X241998Y-94273D01*
G01X245465D02*
Y-88273D01*
X247132D01*
X247665Y-88573D01*
X247998Y-88973D01*
X248132Y-89773D01*
X247998Y-90573D01*
X247598Y-91073D01*
X247132Y-91373D01*
X245465D01*
G01X247132D02*
X248132Y-94273D01*
G01X254932Y-88273D02*
Y-92573D01*
X255198Y-93473D01*
X255732Y-94073D01*
X256398Y-94273D01*
X257065Y-94073D01*
X257598Y-93473D01*
X257865Y-92573D01*
Y-88273D01*
G01X259798Y-93473D02*
X260332Y-93973D01*
X260932Y-94273D01*
X261465D01*
X261998Y-93973D01*
X262398Y-93473D01*
X262598Y-92773D01*
X262465Y-92073D01*
X262132Y-91473D01*
X261532Y-91073D01*
X260732Y-90873D01*
X260265Y-90473D01*
X260065Y-89773D01*
X260198Y-89073D01*
X260532Y-88573D01*
X260998Y-88273D01*
X261465D01*
X261932Y-88473D01*
X262332Y-88973D01*
G01X264332Y-94273D02*
X265998Y-88273D01*
X267665Y-94273D01*
G01X267065Y-92173D02*
X264932D01*
G01X184565Y-141773D02*
Y-135773D01*
X187632Y-141773D01*
Y-135773D01*
G01X189432D02*
Y-140073D01*
X189698Y-140973D01*
X190232Y-141573D01*
X190898Y-141773D01*
X191565Y-141573D01*
X192098Y-140973D01*
X192365Y-140073D01*
Y-135773D01*
G01X193965Y-141773D02*
Y-135773D01*
X195698Y-140773D01*
X197432Y-135773D01*
Y-141773D01*
G01X201032Y-138573D02*
X201298Y-138273D01*
X201498Y-137773D01*
X201632Y-137073D01*
X201498Y-136473D01*
X201232Y-136073D01*
X200765Y-135773D01*
X198965D01*
Y-141773D01*
X201165D01*
X201632Y-141373D01*
X201898Y-140773D01*
X202032Y-140073D01*
X201898Y-139373D01*
X201498Y-138773D01*
X201032Y-138573D01*
X198965D01*
G01X206632Y-141773D02*
X203965D01*
Y-135773D01*
X206632D01*
G01X205565Y-138673D02*
X203965D01*
G01X208765Y-141773D02*
Y-135773D01*
X210432D01*
X210965Y-136073D01*
X211298Y-136473D01*
X211432Y-137273D01*
X211298Y-138073D01*
X210898Y-138573D01*
X210432Y-138873D01*
X208765D01*
G01X210432D02*
X211432Y-141773D01*
G01X295698Y-135773D02*
X295165Y-135973D01*
X294765Y-136473D01*
X294498Y-137073D01*
X294298Y-137873D01*
X294232Y-138773D01*
X294298Y-139673D01*
X294498Y-140473D01*
X294765Y-141073D01*
X295165Y-141573D01*
X295698Y-141773D01*
X296232Y-141573D01*
X296632Y-141073D01*
X296898Y-140473D01*
X297098Y-139673D01*
X297165Y-138773D01*
X297098Y-137873D01*
X296898Y-137073D01*
X296632Y-136473D01*
X296232Y-135973D01*
X295698Y-135773D01*
G01X299232Y-136773D02*
X299632Y-136173D01*
X300098Y-135873D01*
X300632Y-135773D01*
X301298Y-135973D01*
X301765Y-136473D01*
X301898Y-137073D01*
X301832Y-137673D01*
X301565Y-138173D01*
X300232Y-139173D01*
X299632Y-139873D01*
X299232Y-140873D01*
X299098Y-141773D01*
X301898D01*
G54D32*
X100685Y129479D03*
X96945D03*
X93205D03*
X100685Y138928D03*
X93205D03*
G54D41*
X126000Y136292D03*
Y128708D03*
G54D14*
X23650Y61000D03*
X18350D03*
X28650Y56000D03*
X23350D03*
X29150Y76500D03*
X23850D03*
X38350Y100000D03*
X43650D03*
X34350Y76500D03*
X39650D03*
X56650Y84500D03*
X51350D03*
X117158Y35522D03*
X111858D03*
Y29022D03*
X117158D03*
X171658Y60522D03*
X166358D03*
X166350Y55000D03*
X171650D03*
G54D23*
X59150Y25500D03*
X55850D03*
X51150D03*
X47850D03*
X34850Y56000D03*
X38150D03*
X43350Y63500D03*
X46650D03*
X43350Y68000D03*
X46650D03*
X54350Y80000D03*
X57650D03*
X54150Y93000D03*
X50850D03*
X53850Y62500D03*
X57150D03*
X54150Y89000D03*
X50850D03*
X54150Y147000D03*
X50850D03*
X108850Y42000D03*
X112150D03*
X114350Y95000D03*
X117650D03*
X126595Y75703D03*
X123295D03*
X143358Y105022D03*
X146658D03*
X137850Y134000D03*
X141150D03*
X143358Y110022D03*
X146658D03*
X141150Y129000D03*
X137850D03*
X169158Y66522D03*
X165858D03*
X240350Y148000D03*
X243650D03*
G54D51*
G01X-103511Y-117903D02*
X-103692Y-117863D01*
G01X-104402Y-116863D02*
Y-116273D01*
G01X-103692Y-117863D02*
X-103861Y-117783D01*
G01D02*
X-104011Y-117673D01*
G01D02*
X-104142Y-117543D01*
G01D02*
X-104252Y-117393D01*
G01D02*
X-104332Y-117223D01*
G01D02*
X-104372Y-117043D01*
G01D02*
X-104392Y-116863D01*
G01X-106882Y-116393D02*
X-106752Y-116493D01*
G01D02*
X-106652Y-116623D01*
G01D02*
X-106582Y-116753D01*
G01D02*
X-106542Y-116903D01*
G01D02*
X-106522Y-117063D01*
G01D02*
X-106542Y-117233D01*
G01D02*
X-106592Y-117393D01*
G01D02*
X-106661Y-117543D01*
G01D02*
X-106772Y-117673D01*
G01D02*
X-106902Y-117783D01*
G01D02*
X-107052Y-117853D01*
G01D02*
X-107211Y-117903D01*
G01D02*
X-107382Y-117923D01*
G01D02*
X-109832D01*
G01X-101561D02*
X-103332D01*
G01D02*
X-103511Y-117903D01*
G01X-104402Y-103513D02*
X-102622D01*
G01X-104402Y-104933D02*
Y-103513D01*
G01X-98261Y-104113D02*
X-104402D01*
G01Y-104813D02*
X-100742D01*
G01X-99952Y-110123D02*
X-104402Y-104933D01*
G01X-100502Y-105503D02*
X-103911D01*
G01X-105342Y-96903D02*
X-102311D01*
G01X-102902Y-98313D02*
X-105752D01*
G01D02*
X-105952Y-98343D01*
G01D02*
X-106132Y-98423D01*
G01D02*
X-106302Y-98543D01*
G01D02*
X-106422Y-98703D01*
G01D02*
X-106502Y-98893D01*
G01D02*
X-106522Y-99093D01*
G01D02*
Y-110123D01*
G01X-107592Y-97043D02*
X-105342Y-96903D01*
G01X-108492Y-97173D02*
X-99922D01*
G01X-109832Y-97873D02*
X-98211D01*
G01X-106311Y-98563D02*
X-109832D01*
G01Y-99253D02*
X-106522D01*
G01X-109832Y-100643D02*
X-106522D01*
G01Y-99953D02*
X-109832D01*
G01X-106522Y-101343D02*
X-109832D01*
G01Y-102033D02*
X-106522D01*
G01Y-102723D02*
X-109832D01*
G01Y-103423D02*
X-106522D01*
G01X-109832Y-104813D02*
X-106522D01*
G01Y-104113D02*
X-109832D01*
G01X-106522Y-105503D02*
X-109832D01*
G01Y-106193D02*
X-106522D01*
G01Y-106893D02*
X-109832D01*
G01X-106522Y-108283D02*
X-109832D01*
G01Y-107583D02*
X-106522D01*
G01X-109832Y-108973D02*
X-106522D01*
G01Y-109673D02*
X-109832D01*
G01Y-110123D02*
Y-97373D01*
G01D02*
X-107592Y-97043D01*
G01X-100642Y-97023D02*
X-99002Y-97373D01*
G01X-100352Y-99473D02*
X-100582Y-99103D01*
G01D02*
X-100892Y-98793D01*
G01X-100961Y-103053D02*
X-100502Y-102683D01*
G01D02*
X-100311Y-102283D01*
G01X-97182Y-102723D02*
X-100552D01*
G01X-100042Y-104723D02*
X-100742Y-104733D01*
G01D02*
Y-105243D01*
G01D02*
X-96292Y-110123D01*
G01X-100932Y-108973D02*
X-97342D01*
G01X-100892Y-98793D02*
X-101532Y-98503D01*
G01X-97542Y-98563D02*
X-101402D01*
G01X-102042Y-103473D02*
X-101482Y-103323D01*
G01D02*
X-100961Y-103053D01*
G01X-101852Y-103423D02*
X-97511D01*
G01X-102122Y-107583D02*
X-98602D01*
G01X-97972Y-108283D02*
X-101532D01*
G01X-102311Y-96903D02*
X-100642Y-97023D01*
G01X-101532Y-98503D02*
X-102211Y-98343D01*
G01D02*
X-102902Y-98313D01*
G01X-102622Y-103513D02*
X-102042Y-103473D01*
G01X-99232Y-106893D02*
X-102722D01*
G01X-103311Y-106193D02*
X-99872D01*
G01X-103572Y-114633D02*
X-103761Y-114693D01*
G01D02*
X-103942Y-114783D01*
G01D02*
X-104092Y-114913D01*
G01D02*
X-104222Y-115063D01*
G01D02*
X-104311Y-115243D01*
G01D02*
X-104372Y-115433D01*
G01D02*
X-104392Y-115633D01*
G01X-104402Y-116273D02*
X-101561D01*
G01X-104402Y-115633D02*
Y-116273D01*
G01X-107161Y-116283D02*
X-107011Y-116323D01*
G01D02*
X-106882Y-116393D01*
G01X-107322Y-116263D02*
X-107161Y-116283D01*
G01X-108942Y-116273D02*
X-107322D01*
G01X-106522Y-110123D02*
X-109832D01*
G01X-106522Y-114613D02*
X-109072D01*
G01D02*
X-109242Y-114633D01*
G01D02*
X-109402Y-114693D01*
G01D02*
X-109542Y-114783D01*
G01D02*
X-109661Y-114903D01*
G01X-109682Y-115863D02*
X-109572Y-116003D01*
G01D02*
X-109432Y-116113D01*
G01D02*
X-109282Y-116193D01*
G01D02*
X-109111Y-116243D01*
G01D02*
X-108942Y-116263D01*
G01X-109661Y-114903D02*
X-109752Y-115043D01*
G01D02*
X-109811Y-115203D01*
G01X-109832Y-115373D02*
X-109811Y-115543D01*
G01D02*
X-109761Y-115713D01*
G01X-109811Y-115203D02*
X-109832Y-115373D01*
G01X-109761Y-115713D02*
X-109682Y-115863D01*
G01X-101561Y-114613D02*
X-103372D01*
G01D02*
X-103572Y-114633D01*
G01X-76602Y-117923D02*
X-78882Y-114613D01*
G01X-79361D02*
Y-117923D01*
G01X-81722Y-116603D02*
Y-115913D01*
G01X-81742Y-116813D02*
X-81722Y-116603D01*
G01X-82261Y-117673D02*
X-82111Y-117533D01*
G01D02*
X-81972Y-117383D01*
G01D02*
X-81861Y-117203D01*
G01D02*
X-81782Y-117013D01*
G01D02*
X-81742Y-116813D01*
G01X-83042Y-117923D02*
X-82832Y-117903D01*
G01D02*
X-82632Y-117863D01*
G01D02*
X-82442Y-117783D01*
G01D02*
X-82261Y-117673D01*
G01X-84182Y-117843D02*
X-83961Y-117903D01*
G01D02*
X-83742Y-117923D01*
G01D02*
X-83042D01*
G01X-85032Y-115883D02*
Y-116633D01*
G01D02*
X-85011Y-116853D01*
G01D02*
X-84952Y-117073D01*
G01D02*
X-84861Y-117273D01*
G01D02*
X-84732Y-117463D01*
G01D02*
X-84572Y-117623D01*
G01D02*
X-84392Y-117753D01*
G01D02*
X-84182Y-117843D01*
G01X-87152Y-117923D02*
X-88902D01*
G01D02*
X-89092Y-117903D01*
G01D02*
X-89272Y-117853D01*
G01X-89992Y-116833D02*
Y-115703D01*
G01X-89272Y-117853D02*
X-89452Y-117773D01*
G01D02*
X-89602Y-117663D01*
G01D02*
X-89732Y-117533D01*
G01D02*
X-89842Y-117373D01*
G01D02*
X-89922Y-117203D01*
G01D02*
X-89972Y-117023D01*
G01D02*
X-89992Y-116833D01*
G01X-92592Y-114613D02*
Y-117923D01*
G01X-95182D02*
Y-114613D01*
G01X-95702D02*
X-97111Y-117923D01*
G01D02*
X-98652Y-114613D01*
G01X-99202D02*
Y-117923D01*
G01X-56922Y-114613D02*
Y-117923D01*
G01X-60222D02*
X-61992D01*
G01D02*
X-62182Y-117903D01*
G01D02*
X-62361Y-117863D01*
G01D02*
X-62532Y-117783D01*
G01D02*
X-62682Y-117673D01*
G01X-63061Y-116853D02*
Y-115653D01*
G01X-62682Y-117673D02*
X-62811Y-117543D01*
G01D02*
X-62922Y-117383D01*
G01D02*
X-63002Y-117223D01*
G01D02*
X-63042Y-117043D01*
G01D02*
X-63061Y-116853D01*
G01X-65182Y-114613D02*
Y-116613D01*
G01X-65192D02*
X-65211Y-116843D01*
G01D02*
X-65272Y-117063D01*
G01D02*
X-65372Y-117263D01*
G01D02*
X-65502Y-117453D01*
G01D02*
X-65661Y-117613D01*
G01D02*
X-65842Y-117743D01*
G01D02*
X-66052Y-117843D01*
G01D02*
X-66272Y-117903D01*
G01D02*
X-66502Y-117923D01*
G01D02*
X-67022D01*
G01D02*
X-67242Y-117903D01*
G01D02*
X-67442Y-117853D01*
G01D02*
X-67642Y-117753D01*
G01D02*
X-67822Y-117633D01*
G01X-68252Y-116683D02*
Y-114613D01*
G01X-67822Y-117633D02*
X-67972Y-117483D01*
G01D02*
X-68092Y-117303D01*
G01D02*
X-68192Y-117103D01*
G01D02*
X-68242Y-116903D01*
G01D02*
X-68261Y-116683D01*
G01X-70622Y-115903D02*
Y-116613D01*
G01D02*
X-70642Y-116813D01*
G01D02*
X-70682Y-117013D01*
G01D02*
X-70761Y-117203D01*
G01D02*
X-70872Y-117383D01*
G01D02*
X-71002Y-117543D01*
G01D02*
X-71161Y-117673D01*
G01D02*
X-71342Y-117783D01*
G01D02*
X-71532Y-117863D01*
G01D02*
X-71732Y-117903D01*
G01D02*
X-71932Y-117923D01*
G01D02*
X-73692D01*
G01D02*
Y-114613D01*
G01X-76052D02*
Y-117923D01*
G01D02*
X-76602D01*
G01X-81222Y-99403D02*
X-81502Y-98883D01*
G01X-81011Y-100563D02*
X-81061Y-99973D01*
G01D02*
X-81222Y-99403D01*
G01X-81061Y-107253D02*
X-81011Y-106703D01*
G01D02*
Y-100563D01*
G01X-81242Y-107773D02*
X-81061Y-107253D01*
G01X-81532Y-108243D02*
X-81242Y-107773D01*
G01X-81502Y-98883D02*
X-81882Y-98433D01*
G01D02*
X-82402Y-97993D01*
G01X-82382Y-109073D02*
X-81922Y-108633D01*
G01D02*
X-81532Y-108243D01*
G01X-82402Y-97993D02*
X-82982Y-97643D01*
G01X-82911Y-109423D02*
X-82382Y-109073D01*
G01X-82982Y-97643D02*
X-83611Y-97373D01*
G01X-84122Y-100113D02*
X-84082Y-100563D01*
G01Y-100643D02*
X-81011D01*
G01X-81061Y-99953D02*
X-84172D01*
G01X-81011Y-101343D02*
X-84082D01*
G01Y-102033D02*
X-81011D01*
G01Y-102723D02*
X-84082D01*
G01Y-103423D02*
X-81011D01*
G01X-84082Y-104813D02*
X-81011D01*
G01Y-104113D02*
X-84082D01*
G01X-81011Y-105503D02*
X-84082D01*
G01Y-100563D02*
Y-106233D01*
G01Y-106193D02*
X-81011D01*
G01X-84082Y-106233D02*
X-84142Y-106813D01*
G01X-81032Y-106893D02*
X-84172D01*
G01X-83492Y-109693D02*
X-82911Y-109423D01*
G01X-83611Y-97373D02*
X-84422Y-97093D01*
G01X-84832Y-99023D02*
X-84502Y-99323D01*
G01D02*
X-84261Y-99693D01*
G01D02*
X-84122Y-100113D01*
G01X-84582Y-99253D02*
X-81302D01*
G01X-84142Y-106813D02*
X-84332Y-107373D01*
G01D02*
X-84632Y-107883D01*
G01X-84461Y-107583D02*
X-81182D01*
G01X-84361Y-109953D02*
X-83492Y-109693D01*
G01X-84422Y-97093D02*
X-85272Y-96933D01*
G01X-85742Y-98473D02*
X-85261Y-98703D01*
G01D02*
X-84832Y-99023D01*
G01X-81772Y-98563D02*
X-85552D01*
G01X-84632Y-107883D02*
X-85102Y-108253D01*
G01X-81572Y-108283D02*
X-85161D01*
G01X-85102Y-108253D02*
X-85632Y-108513D01*
G01X-85272Y-96933D02*
X-86132Y-96903D01*
G01X-86802Y-98313D02*
X-86261Y-98343D01*
G01D02*
X-85742Y-98473D01*
G01X-85632Y-108513D02*
X-86202Y-108673D01*
G01D02*
X-86802Y-108713D01*
G01X-88252Y-98313D02*
X-86802D01*
G01Y-108713D02*
X-88411D01*
G01X-86132Y-96903D02*
X-89242D01*
G01X-88822Y-98353D02*
X-88252Y-98313D01*
G01X-88411Y-108713D02*
X-88892Y-108663D01*
G01X-89242Y-96903D02*
X-90042Y-96933D01*
G01X-89872Y-98773D02*
X-89372Y-98503D01*
G01D02*
X-88822Y-98353D01*
G01X-89361Y-108513D02*
X-89782Y-108283D01*
G01X-88892Y-108663D02*
X-89361Y-108513D01*
G01X-90042Y-96933D02*
X-90842Y-97073D01*
G01X-90302Y-99143D02*
X-89872Y-98773D01*
G01X-90572Y-99453D02*
X-90302Y-99143D01*
G01X-90932Y-100603D02*
X-90892Y-100193D01*
G01D02*
X-90772Y-99803D01*
G01D02*
X-90572Y-99453D01*
G01X-90932Y-103043D02*
Y-100603D01*
G01Y-106233D02*
Y-103043D01*
G01X-90752Y-107193D02*
X-90902Y-106723D01*
G01D02*
X-90932Y-106233D01*
G01X-89782Y-108283D02*
X-90142Y-107963D01*
G01D02*
X-90492Y-107613D01*
G01D02*
X-90752Y-107193D01*
G01X-84182Y-97173D02*
X-91132D01*
G01X-90842Y-97073D02*
X-91602Y-97333D01*
G01X-91652Y-109693D02*
X-90972Y-109893D01*
G01X-91711Y-109673D02*
X-83442D01*
G01X-91602Y-97333D02*
X-92311Y-97723D01*
G01X-92492Y-97873D02*
X-82611D01*
G01X-92302Y-109403D02*
X-91652Y-109693D01*
G01X-92311Y-97723D02*
X-92942Y-98233D01*
G01D02*
X-93311Y-98543D01*
G01X-89472Y-98563D02*
X-93322D01*
G01X-89772Y-108283D02*
X-93652D01*
G01X-93292Y-108733D02*
X-92902Y-109023D01*
G01D02*
X-92302Y-109403D01*
G01X-92972Y-108973D02*
X-82282D01*
G01X-93311Y-98543D02*
X-93602Y-98923D01*
G01X-93832Y-99343D02*
X-93961Y-99803D01*
G01X-93602Y-98923D02*
X-93832Y-99343D01*
G01X-93782Y-99253D02*
X-90402D01*
G01X-93961Y-99803D02*
X-94002Y-100283D01*
G01X-90822Y-99953D02*
X-93972D01*
G01X-94002Y-100643D02*
X-90932D01*
G01Y-101343D02*
X-94002D01*
G01Y-102033D02*
X-90932D01*
G01X-94002Y-100283D02*
Y-103043D01*
G01D02*
X-90932D01*
G01D02*
X-94002D01*
G01X-90932Y-102723D02*
X-94002D01*
G01Y-103423D02*
X-90932D01*
G01Y-104113D02*
X-94002D01*
G01Y-104813D02*
X-90932D01*
G01Y-105503D02*
X-94002D01*
G01Y-106193D02*
X-90932D01*
G01X-94002Y-103043D02*
Y-106973D01*
G01D02*
X-93972Y-107463D01*
G01X-90842Y-106893D02*
X-94002D01*
G01X-93972Y-107463D02*
X-93832Y-107933D01*
G01D02*
X-93602Y-108363D01*
G01D02*
X-93292Y-108733D01*
G01X-93932Y-107583D02*
X-90511D01*
G01X-97552Y-98553D02*
X-97332Y-98863D01*
G01D02*
X-97182Y-99213D01*
G01D02*
X-97092Y-99593D01*
G01D02*
X-97072Y-99973D01*
G01D02*
Y-101973D01*
G01D02*
X-97111Y-102453D01*
G01D02*
X-97232Y-102913D01*
G01D02*
X-97452Y-103333D01*
G01D02*
X-97742Y-103713D01*
G01X-98452Y-97673D02*
X-97961Y-98073D01*
G01D02*
X-97552Y-98553D01*
G01X-97742Y-103713D02*
X-98102Y-104023D01*
G01X-99002Y-97373D02*
X-98452Y-97673D01*
G01X-98102Y-104023D02*
X-98702Y-104363D01*
G01D02*
X-99361Y-104603D01*
G01X-100142Y-100323D02*
X-100202Y-99883D01*
G01D02*
X-100352Y-99473D01*
G01X-97072Y-99953D02*
X-100192D01*
G01X-100142Y-100643D02*
X-97072D01*
G01X-100142Y-101423D02*
Y-100323D01*
G01X-97072Y-101343D02*
X-100142D01*
G01X-100311Y-102283D02*
X-100192Y-101863D01*
G01D02*
X-100142Y-101423D01*
G01X-100242Y-102033D02*
X-97082D01*
G01X-99361Y-104603D02*
X-100042Y-104723D01*
G01X-96702Y-109673D02*
X-100342D01*
G01X-100482Y-99253D02*
X-97172D01*
G01X-56782Y-98583D02*
X-56561Y-98553D01*
G01D02*
X-55122D01*
G01X-54552Y-96903D02*
X-57522Y-96993D01*
G01X-57152Y-98793D02*
X-56972Y-98663D01*
G01D02*
X-56782Y-98583D01*
G01X-57392Y-99383D02*
X-57361Y-99163D01*
G01D02*
X-57282Y-98963D01*
G01D02*
X-57152Y-98793D01*
G01X-57392Y-110123D02*
Y-99383D01*
G01X-58911Y-97173D02*
X-47761D01*
G01X-60461Y-97873D02*
X-46182D01*
G01X-57522Y-96993D02*
X-60461Y-97373D01*
G01X-56642Y-98563D02*
X-60461D01*
G01Y-99253D02*
X-57372D01*
G01X-60461Y-100643D02*
X-57392D01*
G01Y-99953D02*
X-60461D01*
G01X-57392Y-101343D02*
X-60461D01*
G01Y-102033D02*
X-57392D01*
G01Y-102723D02*
X-60461D01*
G01Y-103423D02*
X-57392D01*
G01X-60461Y-104813D02*
X-57392D01*
G01Y-104113D02*
X-60461D01*
G01X-57392Y-105503D02*
X-60461D01*
G01Y-106193D02*
X-57392D01*
G01Y-106893D02*
X-60461D01*
G01X-57392Y-108283D02*
X-60461D01*
G01Y-107583D02*
X-57392D01*
G01X-60461Y-108973D02*
X-57392D01*
G01Y-109673D02*
X-60461D01*
G01Y-97373D02*
Y-110123D01*
G01X-64002D02*
Y-97373D01*
G01D02*
X-67311D01*
G01Y-97873D02*
X-64002D01*
G01Y-98563D02*
X-67311D01*
G01Y-99253D02*
X-64002D01*
G01X-67311Y-100643D02*
X-64002D01*
G01Y-99953D02*
X-67311D01*
G01X-64002Y-101343D02*
X-67311D01*
G01Y-97373D02*
Y-101783D01*
G01D02*
X-67342Y-101983D01*
G01D02*
X-67422Y-102173D01*
G01X-67361Y-102033D02*
X-64002D01*
G01X-67422Y-102173D02*
X-67542Y-102343D01*
G01D02*
X-67702Y-102463D01*
G01D02*
X-67892Y-102543D01*
G01X-67932Y-104253D02*
X-67722Y-104333D01*
G01D02*
X-67552Y-104463D01*
G01D02*
X-67422Y-104633D01*
G01D02*
X-67342Y-104833D01*
G01X-64002Y-104813D02*
X-67352D01*
G01X-67342Y-104833D02*
X-67311Y-105053D01*
G01Y-105503D02*
X-64002D01*
G01Y-106193D02*
X-67311D01*
G01Y-106893D02*
X-64002D01*
G01X-67311Y-108283D02*
X-64002D01*
G01Y-107583D02*
X-67311D01*
G01X-64002Y-108973D02*
X-67311D01*
G01Y-109673D02*
X-64002D01*
G01X-67311Y-105053D02*
Y-110123D01*
G01X-67892Y-102543D02*
X-68092Y-102563D01*
G01X-68142Y-104223D02*
X-67932Y-104253D01*
G01X-68092Y-102563D02*
X-73592D01*
G01D02*
X-73802Y-102543D01*
G01X-73822Y-104243D02*
X-73622Y-104223D01*
G01D02*
X-68142D01*
G01X-73802Y-102543D02*
X-73992Y-102463D01*
G01D02*
X-74161Y-102333D01*
G01D02*
X-74292Y-102163D01*
G01D02*
X-74372Y-101973D01*
G01D02*
X-74402Y-101763D01*
G01D02*
Y-97373D01*
G01X-74011Y-104323D02*
X-73822Y-104243D01*
G01X-74372Y-104803D02*
X-74292Y-104613D01*
G01D02*
X-74172Y-104453D01*
G01D02*
X-74011Y-104323D01*
G01X-74402Y-105003D02*
X-74372Y-104803D01*
G01X-74402Y-110123D02*
Y-105003D01*
G01X-77702Y-97873D02*
X-74402D01*
G01Y-97373D02*
X-77702D01*
G01X-74402Y-98563D02*
X-77702D01*
G01Y-99253D02*
X-74402D01*
G01Y-99953D02*
X-77702D01*
G01Y-100643D02*
X-74402D01*
G01Y-101343D02*
X-77702D01*
G01Y-102033D02*
X-74342D01*
G01X-77702Y-102723D02*
X-64002D01*
G01Y-103423D02*
X-77702D01*
G01X-74372Y-104813D02*
X-77702D01*
G01Y-104113D02*
X-64002D01*
G01X-77702Y-105503D02*
X-74402D01*
G01Y-106193D02*
X-77702D01*
G01Y-106893D02*
X-74402D01*
G01Y-107583D02*
X-77702D01*
G01Y-108283D02*
X-74402D01*
G01Y-108973D02*
X-77702D01*
G01Y-109673D02*
X-74402D01*
G01X-77702Y-97373D02*
Y-110123D01*
G01X-78882Y-114613D02*
X-79361D01*
G01X-82022Y-115073D02*
X-82182Y-114913D01*
G01D02*
X-82372Y-114783D01*
G01X-81722Y-115913D02*
X-81742Y-115683D01*
G01D02*
X-81802Y-115473D01*
G01D02*
X-81892Y-115263D01*
G01D02*
X-82022Y-115073D01*
G01X-82372Y-114783D02*
X-82582Y-114693D01*
G01D02*
X-82792Y-114633D01*
G01D02*
X-83022Y-114613D01*
G01D02*
X-83761D01*
G01D02*
X-83982Y-114633D01*
G01D02*
X-84192Y-114693D01*
G01D02*
X-84392Y-114783D01*
G01D02*
X-84582Y-114913D01*
G01D02*
X-84732Y-115063D01*
G01D02*
X-84861Y-115243D01*
G01D02*
X-84952Y-115453D01*
G01D02*
X-85011Y-115663D01*
G01D02*
X-85032Y-115883D01*
G01X-85261Y-110093D02*
X-84361Y-109953D01*
G01X-86172Y-110123D02*
X-85261Y-110093D01*
G01X-88922Y-110123D02*
X-86172D01*
G01X-89111Y-114633D02*
X-88902Y-114613D01*
G01D02*
X-87152D01*
G01X-89952Y-110063D02*
X-88922Y-110123D01*
G01X-89322Y-114693D02*
X-89111Y-114633D01*
G01X-89672Y-114933D02*
X-89511Y-114793D01*
G01D02*
X-89322Y-114693D01*
G01X-89992Y-115703D02*
X-89972Y-115493D01*
G01D02*
X-89911Y-115283D01*
G01D02*
X-89811Y-115093D01*
G01D02*
X-89672Y-114933D01*
G01X-90972Y-109893D02*
X-89952Y-110063D01*
G01X-95182Y-114613D02*
X-95702D01*
G01X-98652D02*
X-99202D01*
G01X-96292Y-110123D02*
X-99952D01*
G01X-55502Y-114613D02*
X-56922D01*
G01X-58332D02*
X-56922D01*
G01X-60461Y-110123D02*
X-57392D01*
G01X-62022Y-114613D02*
X-60222D01*
G01X-62692Y-114853D02*
X-62542Y-114753D01*
G01D02*
X-62382Y-114673D01*
G01D02*
X-62202Y-114633D01*
G01D02*
X-62022Y-114613D01*
G01X-63002Y-115293D02*
X-62922Y-115133D01*
G01D02*
X-62822Y-114983D01*
G01D02*
X-62692Y-114853D01*
G01X-63061Y-115653D02*
X-63042Y-115473D01*
G01D02*
X-63002Y-115293D01*
G01X-67311Y-110123D02*
X-64002D01*
G01X-71261Y-114783D02*
X-71082Y-114913D01*
G01D02*
X-70922Y-115073D01*
G01D02*
X-70792Y-115253D01*
G01D02*
X-70702Y-115463D01*
G01D02*
X-70642Y-115683D01*
G01D02*
X-70622Y-115903D01*
G01X-71911Y-114613D02*
X-71692Y-114633D01*
G01D02*
X-71472Y-114693D01*
G01D02*
X-71261Y-114783D01*
G01X-73692Y-114613D02*
X-71911D01*
G01X-77702Y-110123D02*
X-74402D01*
G01X-53372Y-115903D02*
Y-116613D01*
G01D02*
X-53352Y-116813D01*
G01D02*
X-53311Y-117013D01*
G01D02*
X-53232Y-117203D01*
G01D02*
X-53122Y-117383D01*
G01X-45111Y-117923D02*
X-46011Y-116273D01*
G01X-47942D02*
Y-117923D01*
G01X-50072Y-116623D02*
Y-115893D01*
G01X-50092Y-116853D02*
X-50072Y-116623D01*
G01X-50722Y-117753D02*
X-50531Y-117623D01*
G01D02*
X-50372Y-117463D01*
G01D02*
X-50242Y-117273D01*
G01D02*
X-50152Y-117063D01*
G01D02*
X-50092Y-116853D01*
G01X-51372Y-117923D02*
X-51142Y-117903D01*
G01D02*
X-50931Y-117843D01*
G01D02*
X-50722Y-117753D01*
G01X-52461Y-117863D02*
X-52261Y-117903D01*
G01D02*
X-52061Y-117923D01*
G01D02*
X-51372D01*
G01X-53122Y-117383D02*
X-52992Y-117543D01*
G01D02*
X-52832Y-117673D01*
G01D02*
X-52652Y-117783D01*
G01D02*
X-52461Y-117863D01*
G01X-54342Y-99143D02*
X-54322Y-99353D01*
G01X-54332Y-99253D02*
X-51002D01*
G01X-51011Y-99953D02*
X-54322D01*
G01Y-100643D02*
X-51011D01*
G01Y-101343D02*
X-54322D01*
G01Y-102033D02*
X-51011D01*
G01Y-102723D02*
X-54322D01*
G01Y-103423D02*
X-51011D01*
G01Y-104113D02*
X-54322D01*
G01Y-104813D02*
X-51011D01*
G01Y-105503D02*
X-54322D01*
G01Y-106193D02*
X-51011D01*
G01Y-106893D02*
X-54322D01*
G01Y-107583D02*
X-51011D01*
G01Y-108283D02*
X-54322D01*
G01Y-108973D02*
X-51011D01*
G01Y-109673D02*
X-54322D01*
G01Y-99353D02*
Y-110123D01*
G01X-50222Y-96903D02*
X-54552D01*
G01X-55122Y-98553D02*
X-54911Y-98583D01*
G01D02*
X-54722Y-98663D01*
G01D02*
X-54552Y-98783D01*
G01D02*
X-54432Y-98953D01*
G01D02*
X-54342Y-99143D01*
G01X-50282Y-98563D02*
X-55042D01*
G01X-44872Y-100163D02*
X-44922Y-99613D01*
G01X-44872Y-110123D02*
Y-100163D01*
G01X-44922Y-99613D02*
X-45082Y-99083D01*
G01D02*
X-45361Y-98603D01*
G01D02*
X-45742Y-98193D01*
G01D02*
X-46392Y-97713D01*
G01D02*
X-47122Y-97353D01*
G01D02*
X-47902Y-97133D01*
G01X-48232Y-98993D02*
X-48072Y-99233D01*
G01D02*
X-47972Y-99513D01*
G01X-48061Y-99253D02*
X-45032D01*
G01X-47972Y-99513D02*
X-47942Y-99813D01*
G01X-44892Y-99953D02*
X-47942D01*
G01Y-100643D02*
X-44872D01*
G01Y-101343D02*
X-47942D01*
G01Y-102033D02*
X-44872D01*
G01Y-102723D02*
X-47942D01*
G01Y-103423D02*
X-44872D01*
G01Y-104113D02*
X-47942D01*
G01Y-104813D02*
X-44872D01*
G01Y-105503D02*
X-47942D01*
G01Y-106193D02*
X-44872D01*
G01Y-106893D02*
X-47942D01*
G01Y-107583D02*
X-44872D01*
G01Y-108283D02*
X-47942D01*
G01Y-108973D02*
X-44872D01*
G01Y-109673D02*
X-47942D01*
G01Y-99813D02*
Y-110123D01*
G01X-47902Y-97133D02*
X-49061Y-96963D01*
G01X-48932Y-98623D02*
X-48452Y-98793D01*
G01D02*
X-48232Y-98993D01*
G01X-49442Y-98553D02*
X-48932Y-98623D01*
G01X-45402Y-98563D02*
X-49361D01*
G01X-49061Y-96963D02*
X-50222Y-96903D01*
G01X-50772Y-98793D02*
X-50602Y-98663D01*
G01D02*
X-50411Y-98583D01*
G01D02*
X-50202Y-98553D01*
G01D02*
X-49442D01*
G01X-50902Y-98953D02*
X-50772Y-98793D01*
G01X-51011Y-99363D02*
X-50982Y-99153D01*
G01D02*
X-50902Y-98953D01*
G01X-51011Y-110123D02*
Y-99363D01*
G01X-53082Y-115073D02*
X-53211Y-115253D01*
G01D02*
X-53302Y-115463D01*
G01D02*
X-53361Y-115683D01*
G01D02*
X-53382Y-115903D01*
G01X-54322Y-110123D02*
X-51011D01*
G01X-44932Y-115103D02*
X-44892Y-115253D01*
G01D02*
X-44872Y-115413D01*
G01D02*
X-44892Y-115583D01*
G01X-45672Y-114613D02*
X-45511Y-114633D01*
G01D02*
X-45361Y-114673D01*
G01D02*
X-45232Y-114743D01*
G01D02*
X-45102Y-114843D01*
G01D02*
X-45002Y-114973D01*
G01D02*
X-44932Y-115103D01*
G01X-44892Y-115583D02*
X-44942Y-115743D01*
G01D02*
X-45011Y-115893D01*
G01D02*
X-45122Y-116023D01*
G01D02*
X-45252Y-116133D01*
G01D02*
X-45402Y-116203D01*
G01D02*
X-45561Y-116253D01*
G01D02*
X-45732Y-116273D01*
G01D02*
X-46011D01*
G01X-47942Y-110123D02*
X-44872D01*
G01X-47942Y-114613D02*
X-45672D01*
G01X-46011Y-116273D02*
X-47942D01*
G01Y-114613D02*
Y-116273D01*
G01X-50072Y-115893D02*
X-50092Y-115673D01*
G01D02*
X-50152Y-115453D01*
G01D02*
X-50242Y-115253D01*
G01D02*
X-50372Y-115073D01*
G01D02*
X-50531Y-114913D01*
G01D02*
X-50711Y-114783D01*
G01D02*
X-50911Y-114693D01*
G01D02*
X-51132Y-114633D01*
G01D02*
X-51352Y-114613D01*
G01D02*
X-52092D01*
G01D02*
X-52311Y-114633D01*
G01D02*
X-52532Y-114693D01*
G01D02*
X-52732Y-114783D01*
G01D02*
X-52922Y-114913D01*
G01D02*
X-53082Y-115073D01*
G54D33*
X123343Y61790D03*
X127162D03*
X130980D03*
X134799D03*
X123343Y67892D03*
X127162D03*
X130980D03*
X134799D03*
G54D15*
X10297Y45673D03*
Y49217D03*
G54D24*
X53500Y71000D03*
G54D42*
X129792Y130335D03*
G54D52*
G01X-151902Y-144273D02*
Y-69273D01*
X393098D01*
Y-144273D01*
X-151902D01*
G01X-103507Y-117783D02*
G03I-355J0D01*
G01X-104037Y-116863D02*
G03I-355J0D01*
G01X-104046D02*
G03I-355J0D01*
G01X-103657Y-117673D02*
G03I-355J0D01*
G01X-103787Y-117543D02*
G03I-355J0D01*
G01X-103896Y-117393D02*
G03I-355J0D01*
G01X-103976Y-117223D02*
G03I-355J0D01*
G01X-104016Y-117043D02*
G03I-355J0D01*
G01X-106296Y-116623D02*
G03I-355J0D01*
G01X-106227Y-116753D02*
G03I-355J0D01*
G01X-106187Y-116903D02*
G03I-355J0D01*
G01X-106167Y-117063D02*
G03I-355J0D01*
G01X-106187Y-117233D02*
G03I-355J0D01*
G01X-106237Y-117393D02*
G03I-355J0D01*
G01X-106307Y-117543D02*
G03I-355J0D01*
G01X-106416Y-117673D02*
G03I-355J0D01*
G01X-106546Y-117783D02*
G03I-355J0D01*
G01X-106696Y-117853D02*
G03I-355J0D01*
G01X-106857Y-117903D02*
G03I-355J0D01*
G01X-107027Y-117923D02*
G03I-355J0D01*
G01X-109476D02*
G03I-355J0D01*
G01X-101207D02*
G03I-355J0D01*
G01X-102976D02*
G03I-355J0D01*
G01X-103157Y-117903D02*
G03I-355J0D01*
G01X-103337Y-117863D02*
G03I-355J0D01*
G01X-104046Y-103513D02*
G03I-355J0D01*
G01Y-104933D02*
G03I-355J0D01*
G01Y-104113D02*
G03I-355J0D01*
G01Y-104813D02*
G03I-355J0D01*
G01X-103557Y-105503D02*
G03I-355J0D01*
G01X-104987Y-96903D02*
G03I-355J0D01*
G01X-105396Y-98313D02*
G03I-355J0D01*
G01X-105596Y-98343D02*
G03I-355J0D01*
G01X-105776Y-98423D02*
G03I-355J0D01*
G01X-105946Y-98543D02*
G03I-355J0D01*
G01X-106066Y-98703D02*
G03I-355J0D01*
G01X-105957Y-98563D02*
G03I-355J0D01*
G01X-106146Y-98893D02*
G03I-355J0D01*
G01X-106167Y-99093D02*
G03I-355J0D01*
G01Y-99953D02*
G03I-355J0D01*
G01Y-99253D02*
G03I-355J0D01*
G01Y-100643D02*
G03I-355J0D01*
G01Y-101343D02*
G03I-355J0D01*
G01Y-102033D02*
G03I-355J0D01*
G01Y-102723D02*
G03I-355J0D01*
G01Y-104113D02*
G03I-355J0D01*
G01Y-103423D02*
G03I-355J0D01*
G01Y-104813D02*
G03I-355J0D01*
G01Y-105503D02*
G03I-355J0D01*
G01Y-106193D02*
G03I-355J0D01*
G01Y-107583D02*
G03I-355J0D01*
G01Y-106893D02*
G03I-355J0D01*
G01Y-108283D02*
G03I-355J0D01*
G01Y-108973D02*
G03I-355J0D01*
G01Y-109673D02*
G03I-355J0D01*
G01X-107237Y-97043D02*
G03I-355J0D01*
G01X-108137Y-97173D02*
G03I-355J0D01*
G01X-109476Y-97373D02*
G03I-355J0D01*
G01D02*
G03I-355J0D01*
G01Y-97873D02*
G03I-355J0D01*
G01Y-98563D02*
G03I-355J0D01*
G01Y-99253D02*
G03I-355J0D01*
G01Y-100643D02*
G03I-355J0D01*
G01Y-99953D02*
G03I-355J0D01*
G01Y-101343D02*
G03I-355J0D01*
G01Y-102033D02*
G03I-355J0D01*
G01Y-102723D02*
G03I-355J0D01*
G01Y-103423D02*
G03I-355J0D01*
G01Y-104813D02*
G03I-355J0D01*
G01Y-104113D02*
G03I-355J0D01*
G01Y-105503D02*
G03I-355J0D01*
G01Y-106193D02*
G03I-355J0D01*
G01Y-106893D02*
G03I-355J0D01*
G01Y-108283D02*
G03I-355J0D01*
G01Y-107583D02*
G03I-355J0D01*
G01Y-108973D02*
G03I-355J0D01*
G01Y-109673D02*
G03I-355J0D01*
G01X-100287Y-97023D02*
G03I-355J0D01*
G01X-100537Y-98793D02*
G03I-355J0D01*
G01X-100227Y-99103D02*
G03I-355J0D01*
G01X-100607Y-103053D02*
G03I-355J0D01*
G01X-100196Y-102723D02*
G03I-355J0D01*
G01X-100387Y-104733D02*
G03I-355J0D01*
G01Y-104813D02*
G03I-355J0D01*
G01Y-105243D02*
G03I-355J0D01*
G01X-100577Y-108973D02*
G03I-355J0D01*
G01X-101177Y-98503D02*
G03I-355J0D01*
G01X-101046Y-98563D02*
G03I-355J0D01*
G01X-101687Y-103473D02*
G03I-355J0D01*
G01X-101127Y-103323D02*
G03I-355J0D01*
G01X-101496Y-103423D02*
G03I-355J0D01*
G01X-101766Y-107583D02*
G03I-355J0D01*
G01X-101177Y-108283D02*
G03I-355J0D01*
G01X-101957Y-96903D02*
G03I-355J0D01*
G01X-101857Y-98343D02*
G03I-355J0D01*
G01X-102546Y-98313D02*
G03I-355J0D01*
G01X-102266Y-103513D02*
G03I-355J0D01*
G01X-102366Y-106893D02*
G03I-355J0D01*
G01X-102957Y-106193D02*
G03I-355J0D01*
G01X-103407Y-114693D02*
G03I-355J0D01*
G01X-103587Y-114783D02*
G03I-355J0D01*
G01X-103737Y-114913D02*
G03I-355J0D01*
G01X-103866Y-115063D02*
G03I-355J0D01*
G01X-103957Y-115243D02*
G03I-355J0D01*
G01X-104016Y-115433D02*
G03I-355J0D01*
G01X-104037Y-115633D02*
G03I-355J0D01*
G01X-104046D02*
G03I-355J0D01*
G01Y-116273D02*
G03I-355J0D01*
G01D02*
G03I-355J0D01*
G01X-106167Y-110123D02*
G03I-355J0D01*
G01Y-114613D02*
G03I-355J0D01*
G01X-106807Y-116283D02*
G03I-355J0D01*
G01X-106657Y-116323D02*
G03I-355J0D01*
G01X-106527Y-116393D02*
G03I-355J0D01*
G01X-106396Y-116493D02*
G03I-355J0D01*
G01X-106967Y-116273D02*
G03I-355J0D01*
G01Y-116263D02*
G03I-355J0D01*
G01X-108587D02*
G03I-355J0D01*
G01Y-116273D02*
G03I-355J0D01*
G01X-109476Y-110123D02*
G03I-355J0D01*
G01X-108716Y-114613D02*
G03I-355J0D01*
G01X-108887Y-114633D02*
G03I-355J0D01*
G01X-109046Y-114693D02*
G03I-355J0D01*
G01X-109187Y-114783D02*
G03I-355J0D01*
G01X-109307Y-114903D02*
G03I-355J0D01*
G01X-109396Y-115043D02*
G03I-355J0D01*
G01X-109457Y-115203D02*
G03I-355J0D01*
G01X-109476Y-115373D02*
G03I-355J0D01*
G01X-109457Y-115543D02*
G03I-355J0D01*
G01X-109407Y-115713D02*
G03I-355J0D01*
G01X-109327Y-115863D02*
G03I-355J0D01*
G01X-109216Y-116003D02*
G03I-355J0D01*
G01X-109076Y-116113D02*
G03I-355J0D01*
G01X-108927Y-116193D02*
G03I-355J0D01*
G01X-108757Y-116243D02*
G03I-355J0D01*
G01X-101207Y-114613D02*
G03I-355J0D01*
G01Y-116273D02*
G03I-355J0D01*
G01X-103016Y-114613D02*
G03I-355J0D01*
G01X-103216Y-114633D02*
G03I-355J0D01*
G01X-79007Y-117923D02*
G03I-355J0D01*
G01X-81366Y-116603D02*
G03I-355J0D01*
G01X-81427Y-117013D02*
G03I-355J0D01*
G01X-81387Y-116813D02*
G03I-355J0D01*
G01X-81366Y-116603D02*
G03I-355J0D01*
G01X-82087Y-117783D02*
G03I-355J0D01*
G01X-81907Y-117673D02*
G03I-355J0D01*
G01X-81757Y-117533D02*
G03I-355J0D01*
G01X-81616Y-117383D02*
G03I-355J0D01*
G01X-81507Y-117203D02*
G03I-355J0D01*
G01X-82687Y-117923D02*
G03I-355J0D01*
G01X-82476Y-117903D02*
G03I-355J0D01*
G01X-82277Y-117863D02*
G03I-355J0D01*
G01X-83827Y-117843D02*
G03I-355J0D01*
G01X-83607Y-117903D02*
G03I-355J0D01*
G01X-83387Y-117923D02*
G03I-355J0D01*
G01X-84676Y-116633D02*
G03I-355J0D01*
G01X-84657Y-116853D02*
G03I-355J0D01*
G01X-84596Y-117073D02*
G03I-355J0D01*
G01X-84507Y-117273D02*
G03I-355J0D01*
G01X-84376Y-117463D02*
G03I-355J0D01*
G01X-84216Y-117623D02*
G03I-355J0D01*
G01X-84037Y-117753D02*
G03I-355J0D01*
G01X-86796Y-117923D02*
G03I-355J0D01*
G01X-88546D02*
G03I-355J0D01*
G01X-88737Y-117903D02*
G03I-355J0D01*
G01X-88916Y-117853D02*
G03I-355J0D01*
G01X-89637Y-116833D02*
G03I-355J0D01*
G01X-89096Y-117773D02*
G03I-355J0D01*
G01X-89246Y-117663D02*
G03I-355J0D01*
G01X-89376Y-117533D02*
G03I-355J0D01*
G01X-89487Y-117373D02*
G03I-355J0D01*
G01X-89566Y-117203D02*
G03I-355J0D01*
G01X-89616Y-117023D02*
G03I-355J0D01*
G01X-92237Y-117923D02*
G03I-355J0D01*
G01X-94827D02*
G03I-355J0D01*
G01X-96757D02*
G03I-355J0D01*
G01X-98846D02*
G03I-355J0D01*
G01X-56566D02*
G03I-355J0D01*
G01X-59866D02*
G03I-355J0D01*
G01X-61637D02*
G03I-355J0D01*
G01X-61827Y-117903D02*
G03I-355J0D01*
G01X-62007Y-117863D02*
G03I-355J0D01*
G01X-62176Y-117783D02*
G03I-355J0D01*
G01X-62327Y-117673D02*
G03I-355J0D01*
G01X-62457Y-117543D02*
G03I-355J0D01*
G01X-62566Y-117383D02*
G03I-355J0D01*
G01X-62707Y-116853D02*
G03I-355J0D01*
G01X-62646Y-117223D02*
G03I-355J0D01*
G01X-62687Y-117043D02*
G03I-355J0D01*
G01X-64827Y-116613D02*
G03I-355J0D01*
G01X-64837D02*
G03I-355J0D01*
G01X-64857Y-116843D02*
G03I-355J0D01*
G01X-64916Y-117063D02*
G03I-355J0D01*
G01X-65016Y-117263D02*
G03I-355J0D01*
G01X-65146Y-117453D02*
G03I-355J0D01*
G01X-65307Y-117613D02*
G03I-355J0D01*
G01X-65487Y-117743D02*
G03I-355J0D01*
G01X-65696Y-117843D02*
G03I-355J0D01*
G01X-65916Y-117903D02*
G03I-355J0D01*
G01X-66146Y-117923D02*
G03I-355J0D01*
G01X-66666D02*
G03I-355J0D01*
G01X-66887Y-117903D02*
G03I-355J0D01*
G01X-67087Y-117853D02*
G03I-355J0D01*
G01X-67287Y-117753D02*
G03I-355J0D01*
G01X-67466Y-117633D02*
G03I-355J0D01*
G01X-67616Y-117483D02*
G03I-355J0D01*
G01X-67887Y-116903D02*
G03I-355J0D01*
G01X-67907Y-116683D02*
G03I-355J0D01*
G01X-67896D02*
G03I-355J0D01*
G01X-67737Y-117303D02*
G03I-355J0D01*
G01X-67837Y-117103D02*
G03I-355J0D01*
G01X-70266Y-116613D02*
G03I-355J0D01*
G01X-70287Y-116813D02*
G03I-355J0D01*
G01X-70327Y-117013D02*
G03I-355J0D01*
G01X-70407Y-117203D02*
G03I-355J0D01*
G01X-70516Y-117383D02*
G03I-355J0D01*
G01X-70646Y-117543D02*
G03I-355J0D01*
G01X-70807Y-117673D02*
G03I-355J0D01*
G01X-70987Y-117783D02*
G03I-355J0D01*
G01X-71176Y-117863D02*
G03I-355J0D01*
G01X-71376Y-117903D02*
G03I-355J0D01*
G01X-71577Y-117923D02*
G03I-355J0D01*
G01X-73337D02*
G03I-355J0D01*
G01X-75696D02*
G03I-355J0D01*
G01X-76246D02*
G03I-355J0D01*
G01X-81146Y-98883D02*
G03I-355J0D01*
G01X-80866Y-99403D02*
G03I-355J0D01*
G01X-80946Y-99253D02*
G03I-355J0D01*
G01X-80657Y-100563D02*
G03I-355J0D01*
G01X-80707Y-99973D02*
G03I-355J0D01*
G01X-80657Y-100643D02*
G03I-355J0D01*
G01X-80707Y-99953D02*
G03I-355J0D01*
G01X-80657Y-101343D02*
G03I-355J0D01*
G01Y-102033D02*
G03I-355J0D01*
G01Y-102723D02*
G03I-355J0D01*
G01Y-104113D02*
G03I-355J0D01*
G01Y-103423D02*
G03I-355J0D01*
G01Y-104813D02*
G03I-355J0D01*
G01Y-105503D02*
G03I-355J0D01*
G01Y-106703D02*
G03I-355J0D01*
G01Y-106193D02*
G03I-355J0D01*
G01X-80707Y-107253D02*
G03I-355J0D01*
G01X-80676Y-106893D02*
G03I-355J0D01*
G01X-81176Y-108243D02*
G03I-355J0D01*
G01X-80887Y-107773D02*
G03I-355J0D01*
G01X-81216Y-108283D02*
G03I-355J0D01*
G01X-80827Y-107583D02*
G03I-355J0D01*
G01X-82046Y-97993D02*
G03I-355J0D01*
G01X-81527Y-98433D02*
G03I-355J0D01*
G01X-81416Y-98563D02*
G03I-355J0D01*
G01X-82027Y-109073D02*
G03I-355J0D01*
G01X-81566Y-108633D02*
G03I-355J0D01*
G01X-81927Y-108973D02*
G03I-355J0D01*
G01X-82627Y-97643D02*
G03I-355J0D01*
G01X-82257Y-97873D02*
G03I-355J0D01*
G01X-82557Y-109423D02*
G03I-355J0D01*
G01X-83827Y-97173D02*
G03I-355J0D01*
G01X-83257Y-97373D02*
G03I-355J0D01*
G01X-83907Y-99693D02*
G03I-355J0D01*
G01X-83766Y-100113D02*
G03I-355J0D01*
G01X-83727Y-100563D02*
G03I-355J0D01*
G01Y-100643D02*
G03I-355J0D01*
G01X-83816Y-99953D02*
G03I-355J0D01*
G01X-83727Y-101343D02*
G03I-355J0D01*
G01Y-102033D02*
G03I-355J0D01*
G01Y-102723D02*
G03I-355J0D01*
G01Y-103423D02*
G03I-355J0D01*
G01Y-104813D02*
G03I-355J0D01*
G01Y-104113D02*
G03I-355J0D01*
G01Y-105503D02*
G03I-355J0D01*
G01Y-106233D02*
G03I-355J0D01*
G01Y-106193D02*
G03I-355J0D01*
G01X-83787Y-106813D02*
G03I-355J0D01*
G01X-83816Y-106893D02*
G03I-355J0D01*
G01X-83137Y-109693D02*
G03I-355J0D01*
G01X-83087Y-109673D02*
G03I-355J0D01*
G01X-84066Y-97093D02*
G03I-355J0D01*
G01X-84476Y-99023D02*
G03I-355J0D01*
G01X-84146Y-99323D02*
G03I-355J0D01*
G01X-84227Y-99253D02*
G03I-355J0D01*
G01X-83976Y-107373D02*
G03I-355J0D01*
G01X-84276Y-107883D02*
G03I-355J0D01*
G01X-84746Y-108253D02*
G03I-355J0D01*
G01X-84107Y-107583D02*
G03I-355J0D01*
G01X-84916Y-96933D02*
G03I-355J0D01*
G01X-85387Y-98473D02*
G03I-355J0D01*
G01X-84907Y-98703D02*
G03I-355J0D01*
G01X-85196Y-98563D02*
G03I-355J0D01*
G01X-84807Y-108283D02*
G03I-355J0D01*
G01X-85276Y-108513D02*
G03I-355J0D01*
G01X-85776Y-96903D02*
G03I-355J0D01*
G01X-86446Y-98313D02*
G03I-355J0D01*
G01X-85907Y-98343D02*
G03I-355J0D01*
G01X-85846Y-108673D02*
G03I-355J0D01*
G01X-86446Y-108713D02*
G03I-355J0D01*
G01X-87896Y-98313D02*
G03I-355J0D01*
G01X-88057Y-108713D02*
G03I-355J0D01*
G01X-88887Y-96903D02*
G03I-355J0D01*
G01X-89016Y-98503D02*
G03I-355J0D01*
G01X-88466Y-98353D02*
G03I-355J0D01*
G01X-88537Y-108663D02*
G03I-355J0D01*
G01X-89007Y-108513D02*
G03I-355J0D01*
G01X-89687Y-96933D02*
G03I-355J0D01*
G01X-89516Y-98773D02*
G03I-355J0D01*
G01X-89116Y-98563D02*
G03I-355J0D01*
G01X-89427Y-108283D02*
G03I-355J0D01*
G01X-89787Y-107963D02*
G03I-355J0D01*
G01X-89416Y-108283D02*
G03I-355J0D01*
G01X-90487Y-97073D02*
G03I-355J0D01*
G01X-89946Y-99143D02*
G03I-355J0D01*
G01D02*
G03I-355J0D01*
G01X-90046Y-99253D02*
G03I-355J0D01*
G01X-90416Y-99803D02*
G03I-355J0D01*
G01X-90216Y-99453D02*
G03I-355J0D01*
G01X-90576Y-100603D02*
G03I-355J0D01*
G01X-90537Y-100193D02*
G03I-355J0D01*
G01X-90466Y-99953D02*
G03I-355J0D01*
G01X-90576Y-100643D02*
G03I-355J0D01*
G01Y-101343D02*
G03I-355J0D01*
G01Y-102033D02*
G03I-355J0D01*
G01Y-103043D02*
G03I-355J0D01*
G01D02*
G03I-355J0D01*
G01D02*
G03I-355J0D01*
G01Y-102723D02*
G03I-355J0D01*
G01Y-103423D02*
G03I-355J0D01*
G01Y-104113D02*
G03I-355J0D01*
G01Y-104813D02*
G03I-355J0D01*
G01Y-105503D02*
G03I-355J0D01*
G01Y-106233D02*
G03I-355J0D01*
G01Y-106193D02*
G03I-355J0D01*
G01X-90396Y-107193D02*
G03I-355J0D01*
G01X-90546Y-106723D02*
G03I-355J0D01*
G01X-90487Y-106893D02*
G03I-355J0D01*
G01X-90137Y-107613D02*
G03I-355J0D01*
G01X-90157Y-107583D02*
G03I-355J0D01*
G01X-90776Y-97173D02*
G03I-355J0D01*
G01X-91246Y-97333D02*
G03I-355J0D01*
G01X-91296Y-109693D02*
G03I-355J0D01*
G01X-91357Y-109673D02*
G03I-355J0D01*
G01X-91957Y-97723D02*
G03I-355J0D01*
G01X-92137Y-97873D02*
G03I-355J0D01*
G01X-91946Y-109403D02*
G03I-355J0D01*
G01X-92587Y-98233D02*
G03I-355J0D01*
G01X-92957Y-98543D02*
G03I-355J0D01*
G01X-93246Y-98923D02*
G03I-355J0D01*
G01X-92966Y-98563D02*
G03I-355J0D01*
G01X-93246Y-108363D02*
G03I-355J0D01*
G01X-93296Y-108283D02*
G03I-355J0D01*
G01X-92937Y-108733D02*
G03I-355J0D01*
G01X-92546Y-109023D02*
G03I-355J0D01*
G01X-92616Y-108973D02*
G03I-355J0D01*
G01X-93476Y-99343D02*
G03I-355J0D01*
G01X-93607Y-99803D02*
G03I-355J0D01*
G01X-93476Y-99343D02*
G03I-355J0D01*
G01X-93427Y-99253D02*
G03I-355J0D01*
G01X-93646Y-100283D02*
G03I-355J0D01*
G01X-93616Y-99953D02*
G03I-355J0D01*
G01X-93646Y-100643D02*
G03I-355J0D01*
G01Y-101343D02*
G03I-355J0D01*
G01Y-102033D02*
G03I-355J0D01*
G01Y-103043D02*
G03I-355J0D01*
G01D02*
G03I-355J0D01*
G01D02*
G03I-355J0D01*
G01Y-102723D02*
G03I-355J0D01*
G01Y-103423D02*
G03I-355J0D01*
G01Y-104113D02*
G03I-355J0D01*
G01Y-104813D02*
G03I-355J0D01*
G01Y-105503D02*
G03I-355J0D01*
G01Y-106193D02*
G03I-355J0D01*
G01Y-106973D02*
G03I-355J0D01*
G01X-93616Y-107463D02*
G03I-355J0D01*
G01X-93646Y-106893D02*
G03I-355J0D01*
G01X-93476Y-107933D02*
G03I-355J0D01*
G01X-93576Y-107583D02*
G03I-355J0D01*
G01X-96346Y-109673D02*
G03I-355J0D01*
G01X-97196Y-98553D02*
G03I-355J0D01*
G01X-96976Y-98863D02*
G03I-355J0D01*
G01X-97187Y-98563D02*
G03I-355J0D01*
G01X-96827Y-99213D02*
G03I-355J0D01*
G01X-96737Y-99593D02*
G03I-355J0D01*
G01X-96716Y-99973D02*
G03I-355J0D01*
G01X-96816Y-99253D02*
G03I-355J0D01*
G01X-96716Y-99953D02*
G03I-355J0D01*
G01Y-100643D02*
G03I-355J0D01*
G01Y-101343D02*
G03I-355J0D01*
G01Y-101973D02*
G03I-355J0D01*
G01X-96757Y-102453D02*
G03I-355J0D01*
G01X-96727Y-102033D02*
G03I-355J0D01*
G01X-96877Y-102913D02*
G03I-355J0D01*
G01X-96827Y-102723D02*
G03I-355J0D01*
G01X-97096Y-103333D02*
G03I-355J0D01*
G01X-97387Y-103713D02*
G03I-355J0D01*
G01X-97157Y-103423D02*
G03I-355J0D01*
G01X-96987Y-108973D02*
G03I-355J0D01*
G01X-98096Y-97673D02*
G03I-355J0D01*
G01X-97607Y-98073D02*
G03I-355J0D01*
G01X-97857Y-97873D02*
G03I-355J0D01*
G01X-97746Y-104023D02*
G03I-355J0D01*
G01X-98346Y-104363D02*
G03I-355J0D01*
G01X-97907Y-104113D02*
G03I-355J0D01*
G01X-98246Y-107583D02*
G03I-355J0D01*
G01X-97616Y-108283D02*
G03I-355J0D01*
G01X-98646Y-97373D02*
G03I-355J0D01*
G01X-99007Y-104603D02*
G03I-355J0D01*
G01X-98876Y-106893D02*
G03I-355J0D01*
G01X-99566Y-97173D02*
G03I-355J0D01*
G01X-99996Y-99473D02*
G03I-355J0D01*
G01X-99787Y-100323D02*
G03I-355J0D01*
G01X-99846Y-99883D02*
G03I-355J0D01*
G01X-99837Y-99953D02*
G03I-355J0D01*
G01X-99787Y-100643D02*
G03I-355J0D01*
G01Y-101423D02*
G03I-355J0D01*
G01Y-101343D02*
G03I-355J0D01*
G01X-99957Y-102283D02*
G03I-355J0D01*
G01X-99837Y-101863D02*
G03I-355J0D01*
G01X-99887Y-102033D02*
G03I-355J0D01*
G01X-99687Y-104723D02*
G03I-355J0D01*
G01X-99516Y-106193D02*
G03I-355J0D01*
G01X-99987Y-109673D02*
G03I-355J0D01*
G01X-100127Y-99253D02*
G03I-355J0D01*
G01X-100146Y-102683D02*
G03I-355J0D01*
G01Y-105503D02*
G03I-355J0D01*
G01X-56427Y-98583D02*
G03I-355J0D01*
G01X-56207Y-98553D02*
G03I-355J0D01*
G01X-56287Y-98563D02*
G03I-355J0D01*
G01X-57166Y-96993D02*
G03I-355J0D01*
G01X-56927Y-98963D02*
G03I-355J0D01*
G01X-56796Y-98793D02*
G03I-355J0D01*
G01X-56616Y-98663D02*
G03I-355J0D01*
G01X-57037Y-99383D02*
G03I-355J0D01*
G01X-57007Y-99163D02*
G03I-355J0D01*
G01X-57016Y-99253D02*
G03I-355J0D01*
G01X-57037Y-100643D02*
G03I-355J0D01*
G01Y-99953D02*
G03I-355J0D01*
G01Y-101343D02*
G03I-355J0D01*
G01Y-102033D02*
G03I-355J0D01*
G01Y-102723D02*
G03I-355J0D01*
G01Y-103423D02*
G03I-355J0D01*
G01Y-104813D02*
G03I-355J0D01*
G01Y-104113D02*
G03I-355J0D01*
G01Y-105503D02*
G03I-355J0D01*
G01Y-106193D02*
G03I-355J0D01*
G01Y-106893D02*
G03I-355J0D01*
G01Y-108283D02*
G03I-355J0D01*
G01Y-107583D02*
G03I-355J0D01*
G01Y-108973D02*
G03I-355J0D01*
G01Y-109673D02*
G03I-355J0D01*
G01X-58557Y-97173D02*
G03I-355J0D01*
G01X-60107Y-97373D02*
G03I-355J0D01*
G01Y-97873D02*
G03I-355J0D01*
G01Y-98563D02*
G03I-355J0D01*
G01Y-99953D02*
G03I-355J0D01*
G01Y-99253D02*
G03I-355J0D01*
G01Y-100643D02*
G03I-355J0D01*
G01Y-101343D02*
G03I-355J0D01*
G01Y-102033D02*
G03I-355J0D01*
G01Y-102723D02*
G03I-355J0D01*
G01Y-104113D02*
G03I-355J0D01*
G01Y-103423D02*
G03I-355J0D01*
G01Y-104813D02*
G03I-355J0D01*
G01Y-105503D02*
G03I-355J0D01*
G01Y-106193D02*
G03I-355J0D01*
G01Y-107583D02*
G03I-355J0D01*
G01Y-106893D02*
G03I-355J0D01*
G01Y-108283D02*
G03I-355J0D01*
G01Y-108973D02*
G03I-355J0D01*
G01Y-109673D02*
G03I-355J0D01*
G01X-63646Y-97373D02*
G03I-355J0D01*
G01Y-97873D02*
G03I-355J0D01*
G01Y-98563D02*
G03I-355J0D01*
G01Y-99253D02*
G03I-355J0D01*
G01Y-100643D02*
G03I-355J0D01*
G01Y-99953D02*
G03I-355J0D01*
G01Y-101343D02*
G03I-355J0D01*
G01Y-102033D02*
G03I-355J0D01*
G01Y-102723D02*
G03I-355J0D01*
G01Y-104113D02*
G03I-355J0D01*
G01Y-103423D02*
G03I-355J0D01*
G01Y-104813D02*
G03I-355J0D01*
G01Y-105503D02*
G03I-355J0D01*
G01Y-106193D02*
G03I-355J0D01*
G01Y-106893D02*
G03I-355J0D01*
G01Y-108283D02*
G03I-355J0D01*
G01Y-107583D02*
G03I-355J0D01*
G01Y-108973D02*
G03I-355J0D01*
G01Y-109673D02*
G03I-355J0D01*
G01X-66957Y-97373D02*
G03I-355J0D01*
G01Y-97873D02*
G03I-355J0D01*
G01Y-98563D02*
G03I-355J0D01*
G01Y-99253D02*
G03I-355J0D01*
G01Y-100643D02*
G03I-355J0D01*
G01Y-99953D02*
G03I-355J0D01*
G01Y-101343D02*
G03I-355J0D01*
G01Y-101783D02*
G03I-355J0D01*
G01X-66987Y-101983D02*
G03I-355J0D01*
G01X-67066Y-102173D02*
G03I-355J0D01*
G01X-67187Y-102343D02*
G03I-355J0D01*
G01X-67007Y-102033D02*
G03I-355J0D01*
G01X-67346Y-102463D02*
G03I-355J0D01*
G01X-67537Y-102543D02*
G03I-355J0D01*
G01X-67576Y-104253D02*
G03I-355J0D01*
G01X-67366Y-104333D02*
G03I-355J0D01*
G01X-67196Y-104463D02*
G03I-355J0D01*
G01X-67066Y-104633D02*
G03I-355J0D01*
G01X-66987Y-104833D02*
G03I-355J0D01*
G01X-66957Y-105053D02*
G03I-355J0D01*
G01X-66996Y-104813D02*
G03I-355J0D01*
G01X-66957Y-105503D02*
G03I-355J0D01*
G01Y-106193D02*
G03I-355J0D01*
G01Y-107583D02*
G03I-355J0D01*
G01Y-106893D02*
G03I-355J0D01*
G01Y-108283D02*
G03I-355J0D01*
G01Y-108973D02*
G03I-355J0D01*
G01Y-109673D02*
G03I-355J0D01*
G01X-67737Y-102563D02*
G03I-355J0D01*
G01X-67787Y-104223D02*
G03I-355J0D01*
G01X-73237Y-102563D02*
G03I-355J0D01*
G01X-73446Y-102543D02*
G03I-355J0D01*
G01X-73637Y-102463D02*
G03I-355J0D01*
G01X-73657Y-104323D02*
G03I-355J0D01*
G01X-73466Y-104243D02*
G03I-355J0D01*
G01X-73266Y-104223D02*
G03I-355J0D01*
G01X-74046Y-97873D02*
G03I-355J0D01*
G01Y-97373D02*
G03I-355J0D01*
G01D02*
G03I-355J0D01*
G01Y-98563D02*
G03I-355J0D01*
G01Y-99253D02*
G03I-355J0D01*
G01Y-99953D02*
G03I-355J0D01*
G01Y-100643D02*
G03I-355J0D01*
G01Y-101343D02*
G03I-355J0D01*
G01X-73807Y-102333D02*
G03I-355J0D01*
G01X-73937Y-102163D02*
G03I-355J0D01*
G01X-74016Y-101973D02*
G03I-355J0D01*
G01X-74046Y-101763D02*
G03I-355J0D01*
G01X-73987Y-102033D02*
G03I-355J0D01*
G01X-74016Y-104803D02*
G03I-355J0D01*
G01X-73937Y-104613D02*
G03I-355J0D01*
G01X-73816Y-104453D02*
G03I-355J0D01*
G01X-74016Y-104813D02*
G03I-355J0D01*
G01X-74046Y-105003D02*
G03I-355J0D01*
G01Y-105503D02*
G03I-355J0D01*
G01Y-106193D02*
G03I-355J0D01*
G01Y-106893D02*
G03I-355J0D01*
G01Y-107583D02*
G03I-355J0D01*
G01Y-108283D02*
G03I-355J0D01*
G01Y-108973D02*
G03I-355J0D01*
G01Y-109673D02*
G03I-355J0D01*
G01X-77346Y-97873D02*
G03I-355J0D01*
G01Y-97373D02*
G03I-355J0D01*
G01Y-98563D02*
G03I-355J0D01*
G01Y-99253D02*
G03I-355J0D01*
G01Y-99953D02*
G03I-355J0D01*
G01Y-100643D02*
G03I-355J0D01*
G01Y-101343D02*
G03I-355J0D01*
G01Y-102033D02*
G03I-355J0D01*
G01Y-102723D02*
G03I-355J0D01*
G01Y-104113D02*
G03I-355J0D01*
G01Y-103423D02*
G03I-355J0D01*
G01Y-104813D02*
G03I-355J0D01*
G01Y-105503D02*
G03I-355J0D01*
G01Y-106193D02*
G03I-355J0D01*
G01Y-106893D02*
G03I-355J0D01*
G01Y-107583D02*
G03I-355J0D01*
G01Y-108283D02*
G03I-355J0D01*
G01Y-108973D02*
G03I-355J0D01*
G01Y-109673D02*
G03I-355J0D01*
G01X-78527Y-114613D02*
G03I-355J0D01*
G01X-79007D02*
G03I-355J0D01*
G01X-81666Y-115073D02*
G03I-355J0D01*
G01X-81827Y-114913D02*
G03I-355J0D01*
G01X-82016Y-114783D02*
G03I-355J0D01*
G01X-81366Y-115913D02*
G03I-355J0D01*
G01X-81387Y-115683D02*
G03I-355J0D01*
G01X-81446Y-115473D02*
G03I-355J0D01*
G01X-81537Y-115263D02*
G03I-355J0D01*
G01X-82227Y-114693D02*
G03I-355J0D01*
G01X-82437Y-114633D02*
G03I-355J0D01*
G01X-82666Y-114613D02*
G03I-355J0D01*
G01X-83407D02*
G03I-355J0D01*
G01X-83627Y-114633D02*
G03I-355J0D01*
G01X-83837Y-114693D02*
G03I-355J0D01*
G01X-84007Y-109953D02*
G03I-355J0D01*
G01X-84037Y-114783D02*
G03I-355J0D01*
G01X-84227Y-114913D02*
G03I-355J0D01*
G01X-84376Y-115063D02*
G03I-355J0D01*
G01X-84507Y-115243D02*
G03I-355J0D01*
G01X-84596Y-115453D02*
G03I-355J0D01*
G01X-84657Y-115663D02*
G03I-355J0D01*
G01X-84676Y-115883D02*
G03I-355J0D01*
G01X-84907Y-110093D02*
G03I-355J0D01*
G01X-85816Y-110123D02*
G03I-355J0D01*
G01X-86796Y-114613D02*
G03I-355J0D01*
G01X-88566Y-110123D02*
G03I-355J0D01*
G01X-88966Y-114693D02*
G03I-355J0D01*
G01X-88757Y-114633D02*
G03I-355J0D01*
G01X-88546Y-114613D02*
G03I-355J0D01*
G01X-89596Y-110063D02*
G03I-355J0D01*
G01X-89457Y-115093D02*
G03I-355J0D01*
G01X-89316Y-114933D02*
G03I-355J0D01*
G01X-89157Y-114793D02*
G03I-355J0D01*
G01X-89637Y-115703D02*
G03I-355J0D01*
G01X-89616Y-115493D02*
G03I-355J0D01*
G01X-89557Y-115283D02*
G03I-355J0D01*
G01X-90616Y-109893D02*
G03I-355J0D01*
G01X-92237Y-114613D02*
G03I-355J0D01*
G01X-94827D02*
G03I-355J0D01*
G01X-95346D02*
G03I-355J0D01*
G01X-95937Y-110123D02*
G03I-355J0D01*
G01X-98296Y-114613D02*
G03I-355J0D01*
G01X-98846D02*
G03I-355J0D01*
G01X-99596Y-110123D02*
G03I-355J0D01*
G01X-56566Y-114613D02*
G03I-355J0D01*
G01D02*
G03I-355J0D01*
G01X-57037Y-110123D02*
G03I-355J0D01*
G01X-57976Y-114613D02*
G03I-355J0D01*
G01X-59866D02*
G03I-355J0D01*
G01X-60107Y-110123D02*
G03I-355J0D01*
G01X-61666Y-114613D02*
G03I-355J0D01*
G01X-62566Y-115133D02*
G03I-355J0D01*
G01X-62466Y-114983D02*
G03I-355J0D01*
G01X-62337Y-114853D02*
G03I-355J0D01*
G01X-62187Y-114753D02*
G03I-355J0D01*
G01X-62027Y-114673D02*
G03I-355J0D01*
G01X-61846Y-114633D02*
G03I-355J0D01*
G01X-62646Y-115293D02*
G03I-355J0D01*
G01X-62707Y-115653D02*
G03I-355J0D01*
G01X-62687Y-115473D02*
G03I-355J0D01*
G01X-63646Y-110123D02*
G03I-355J0D01*
G01X-64827Y-114613D02*
G03I-355J0D01*
G01X-66957Y-110123D02*
G03I-355J0D01*
G01X-67896Y-114613D02*
G03I-355J0D01*
G01X-70907Y-114783D02*
G03I-355J0D01*
G01X-70727Y-114913D02*
G03I-355J0D01*
G01X-70566Y-115073D02*
G03I-355J0D01*
G01X-70266Y-115903D02*
G03I-355J0D01*
G01X-70437Y-115253D02*
G03I-355J0D01*
G01X-70346Y-115463D02*
G03I-355J0D01*
G01X-70287Y-115683D02*
G03I-355J0D01*
G01X-70266Y-115903D02*
G03I-355J0D01*
G01X-71557Y-114613D02*
G03I-355J0D01*
G01X-71337Y-114633D02*
G03I-355J0D01*
G01X-71116Y-114693D02*
G03I-355J0D01*
G01X-73337Y-114613D02*
G03I-355J0D01*
G01X-74046Y-110123D02*
G03I-355J0D01*
G01X-75696Y-114613D02*
G03I-355J0D01*
G01X-77346Y-110123D02*
G03I-355J0D01*
G01X-53016Y-116613D02*
G03I-355J0D01*
G01X-52996Y-116813D02*
G03I-355J0D01*
G01X-52957Y-117013D02*
G03I-355J0D01*
G01X-44757Y-117923D02*
G03I-355J0D01*
G01X-47587D02*
G03I-355J0D01*
G01X-49716Y-116623D02*
G03I-355J0D01*
G01X-49737Y-116853D02*
G03I-355J0D01*
G01X-49716Y-116623D02*
G03I-355J0D01*
G01X-49796Y-117063D02*
G03I-355J0D01*
G01X-50576Y-117843D02*
G03I-355J0D01*
G01X-50366Y-117753D02*
G03I-355J0D01*
G01X-50176Y-117623D02*
G03I-355J0D01*
G01X-50017Y-117463D02*
G03I-355J0D01*
G01X-49887Y-117273D02*
G03I-355J0D01*
G01X-51016Y-117923D02*
G03I-355J0D01*
G01X-50787Y-117903D02*
G03I-355J0D01*
G01X-52296Y-117783D02*
G03I-355J0D01*
G01X-52107Y-117863D02*
G03I-355J0D01*
G01X-51907Y-117903D02*
G03I-355J0D01*
G01X-51707Y-117923D02*
G03I-355J0D01*
G01X-52876Y-117203D02*
G03I-355J0D01*
G01X-52766Y-117383D02*
G03I-355J0D01*
G01X-52637Y-117543D02*
G03I-355J0D01*
G01X-52476Y-117673D02*
G03I-355J0D01*
G01X-53987Y-99143D02*
G03I-355J0D01*
G01X-53966Y-99353D02*
G03I-355J0D01*
G01X-53976Y-99253D02*
G03I-355J0D01*
G01X-53966Y-99953D02*
G03I-355J0D01*
G01Y-100643D02*
G03I-355J0D01*
G01Y-101343D02*
G03I-355J0D01*
G01Y-102033D02*
G03I-355J0D01*
G01Y-102723D02*
G03I-355J0D01*
G01Y-103423D02*
G03I-355J0D01*
G01Y-104113D02*
G03I-355J0D01*
G01Y-104813D02*
G03I-355J0D01*
G01Y-105503D02*
G03I-355J0D01*
G01Y-106193D02*
G03I-355J0D01*
G01Y-106893D02*
G03I-355J0D01*
G01Y-107583D02*
G03I-355J0D01*
G01Y-108283D02*
G03I-355J0D01*
G01Y-108973D02*
G03I-355J0D01*
G01Y-109673D02*
G03I-355J0D01*
G01X-54196Y-96903D02*
G03I-355J0D01*
G01X-54766Y-98553D02*
G03I-355J0D01*
G01X-54557Y-98583D02*
G03I-355J0D01*
G01X-54366Y-98663D02*
G03I-355J0D01*
G01X-54196Y-98783D02*
G03I-355J0D01*
G01X-54076Y-98953D02*
G03I-355J0D01*
G01X-54687Y-98563D02*
G03I-355J0D01*
G01X-44566Y-99613D02*
G03I-355J0D01*
G01X-44516Y-100163D02*
G03I-355J0D01*
G01X-44537Y-99953D02*
G03I-355J0D01*
G01X-44516Y-100643D02*
G03I-355J0D01*
G01Y-101343D02*
G03I-355J0D01*
G01Y-102033D02*
G03I-355J0D01*
G01Y-102723D02*
G03I-355J0D01*
G01Y-103423D02*
G03I-355J0D01*
G01Y-104113D02*
G03I-355J0D01*
G01Y-104813D02*
G03I-355J0D01*
G01Y-105503D02*
G03I-355J0D01*
G01Y-106193D02*
G03I-355J0D01*
G01Y-106893D02*
G03I-355J0D01*
G01Y-107583D02*
G03I-355J0D01*
G01Y-108283D02*
G03I-355J0D01*
G01Y-108973D02*
G03I-355J0D01*
G01Y-109673D02*
G03I-355J0D01*
G01X-44727Y-99083D02*
G03I-355J0D01*
G01X-45007Y-98603D02*
G03I-355J0D01*
G01X-45387Y-98193D02*
G03I-355J0D01*
G01X-45046Y-98563D02*
G03I-355J0D01*
G01X-44676Y-99253D02*
G03I-355J0D01*
G01X-45827Y-97873D02*
G03I-355J0D01*
G01X-46037Y-97713D02*
G03I-355J0D01*
G01D02*
G03I-355J0D01*
G01X-46767Y-97353D02*
G03I-355J0D01*
G01X-47546Y-97133D02*
G03I-355J0D01*
G01X-47407Y-97173D02*
G03I-355J0D01*
G01X-47876Y-98993D02*
G03I-355J0D01*
G01X-47716Y-99233D02*
G03I-355J0D01*
G01X-47616Y-99513D02*
G03I-355J0D01*
G01X-47587Y-99813D02*
G03I-355J0D01*
G01X-47707Y-99253D02*
G03I-355J0D01*
G01X-47587Y-99953D02*
G03I-355J0D01*
G01Y-100643D02*
G03I-355J0D01*
G01Y-101343D02*
G03I-355J0D01*
G01Y-102033D02*
G03I-355J0D01*
G01Y-102723D02*
G03I-355J0D01*
G01Y-103423D02*
G03I-355J0D01*
G01Y-104113D02*
G03I-355J0D01*
G01Y-104813D02*
G03I-355J0D01*
G01Y-105503D02*
G03I-355J0D01*
G01Y-106193D02*
G03I-355J0D01*
G01Y-106893D02*
G03I-355J0D01*
G01Y-107583D02*
G03I-355J0D01*
G01Y-108283D02*
G03I-355J0D01*
G01Y-108973D02*
G03I-355J0D01*
G01Y-109673D02*
G03I-355J0D01*
G01X-48707Y-96963D02*
G03I-355J0D01*
G01X-48576Y-98623D02*
G03I-355J0D01*
G01X-48096Y-98793D02*
G03I-355J0D01*
G01X-49087Y-98553D02*
G03I-355J0D01*
G01X-49007Y-98563D02*
G03I-355J0D01*
G01X-49866Y-96903D02*
G03I-355J0D01*
G01X-50546Y-98953D02*
G03I-355J0D01*
G01X-50417Y-98793D02*
G03I-355J0D01*
G01X-50246Y-98663D02*
G03I-355J0D01*
G01X-50057Y-98583D02*
G03I-355J0D01*
G01X-49846Y-98553D02*
G03I-355J0D01*
G01X-49927Y-98563D02*
G03I-355J0D01*
G01X-50627Y-99153D02*
G03I-355J0D01*
G01X-50646Y-99253D02*
G03I-355J0D01*
G01X-50657Y-99363D02*
G03I-355J0D01*
G01Y-99953D02*
G03I-355J0D01*
G01Y-100643D02*
G03I-355J0D01*
G01Y-101343D02*
G03I-355J0D01*
G01Y-102033D02*
G03I-355J0D01*
G01Y-102723D02*
G03I-355J0D01*
G01Y-103423D02*
G03I-355J0D01*
G01Y-104113D02*
G03I-355J0D01*
G01Y-104813D02*
G03I-355J0D01*
G01Y-105503D02*
G03I-355J0D01*
G01Y-106193D02*
G03I-355J0D01*
G01Y-106893D02*
G03I-355J0D01*
G01Y-107583D02*
G03I-355J0D01*
G01Y-108283D02*
G03I-355J0D01*
G01Y-108973D02*
G03I-355J0D01*
G01Y-109673D02*
G03I-355J0D01*
G01X-52946Y-115463D02*
G03I-355J0D01*
G01X-53007Y-115683D02*
G03I-355J0D01*
G01X-53027Y-115903D02*
G03I-355J0D01*
G01X-53016D02*
G03I-355J0D01*
G01X-53966Y-110123D02*
G03I-355J0D01*
G01X-55146Y-114613D02*
G03I-355J0D01*
G01X-44516Y-110123D02*
G03I-355J0D01*
G01X-44646Y-114973D02*
G03I-355J0D01*
G01X-44576Y-115103D02*
G03I-355J0D01*
G01X-44537Y-115253D02*
G03I-355J0D01*
G01X-44516Y-115413D02*
G03I-355J0D01*
G01X-44537Y-115583D02*
G03I-355J0D01*
G01X-44587Y-115743D02*
G03I-355J0D01*
G01X-44657Y-115893D02*
G03I-355J0D01*
G01X-45317Y-114613D02*
G03I-355J0D01*
G01X-45157Y-114633D02*
G03I-355J0D01*
G01X-45007Y-114673D02*
G03I-355J0D01*
G01X-44876Y-114743D02*
G03I-355J0D01*
G01X-44746Y-114843D02*
G03I-355J0D01*
G01X-44766Y-116023D02*
G03I-355J0D01*
G01X-44896Y-116133D02*
G03I-355J0D01*
G01X-45046Y-116203D02*
G03I-355J0D01*
G01X-45207Y-116253D02*
G03I-355J0D01*
G01X-45376Y-116273D02*
G03I-355J0D01*
G01X-45657D02*
G03I-355J0D01*
G01D02*
G03I-355J0D01*
G01X-47587Y-110123D02*
G03I-355J0D01*
G01Y-114613D02*
G03I-355J0D01*
G01D02*
G03I-355J0D01*
G01Y-116273D02*
G03I-355J0D01*
G01D02*
G03I-355J0D01*
G01X-49716Y-115893D02*
G03I-355J0D01*
G01X-49737Y-115673D02*
G03I-355J0D01*
G01X-49796Y-115453D02*
G03I-355J0D01*
G01X-49887Y-115253D02*
G03I-355J0D01*
G01X-50017Y-115073D02*
G03I-355J0D01*
G01X-50176Y-114913D02*
G03I-355J0D01*
G01X-50357Y-114783D02*
G03I-355J0D01*
G01X-50557Y-114693D02*
G03I-355J0D01*
G01X-50657Y-110123D02*
G03I-355J0D01*
G01X-50776Y-114633D02*
G03I-355J0D01*
G01X-50996Y-114613D02*
G03I-355J0D01*
G01X-51737D02*
G03I-355J0D01*
G01X-51957Y-114633D02*
G03I-355J0D01*
G01X-52176Y-114693D02*
G03I-355J0D01*
G01X-52376Y-114783D02*
G03I-355J0D01*
G01X-52566Y-114913D02*
G03I-355J0D01*
G01X-52727Y-115073D02*
G03I-355J0D01*
G01X-52857Y-115253D02*
G03I-355J0D01*
G01X5872Y-114690D02*
X5552Y-114440D01*
X5178Y-114273D01*
X4752D01*
X4272Y-114523D01*
X3898Y-114940D01*
X3632Y-115440D01*
X3418Y-116273D01*
X3365Y-117023D01*
X3472Y-117773D01*
X3632Y-118273D01*
X3952Y-118773D01*
X4325Y-119106D01*
X4698Y-119273D01*
X5072D01*
X5445Y-119106D01*
X5765Y-118856D01*
X6032Y-118523D01*
G01X7778Y-119273D02*
Y-114273D01*
G01X10018D02*
Y-119273D01*
G01Y-116773D02*
X7778D01*
G01X14165Y-119273D02*
X12032D01*
Y-114273D01*
X14165D01*
G01X13312Y-116690D02*
X12032D01*
G01X18472Y-114690D02*
X18152Y-114440D01*
X17778Y-114273D01*
X17352D01*
X16872Y-114523D01*
X16498Y-114940D01*
X16232Y-115440D01*
X16018Y-116273D01*
X15965Y-117023D01*
X16072Y-117773D01*
X16232Y-118273D01*
X16552Y-118773D01*
X16925Y-119106D01*
X17298Y-119273D01*
X17672D01*
X18045Y-119106D01*
X18365Y-118856D01*
X18632Y-118523D01*
G01X20325Y-119273D02*
Y-114273D01*
G01X22352D02*
X20325Y-117356D01*
G01X22672Y-119273D02*
X21232Y-115940D01*
G01X26765Y-119273D02*
X24632D01*
Y-114273D01*
X26765D01*
G01X25912Y-116690D02*
X24632D01*
G01X28832Y-119273D02*
Y-114273D01*
X30165D01*
X30592Y-114523D01*
X30858Y-114856D01*
X30965Y-115523D01*
X30858Y-116190D01*
X30538Y-116606D01*
X30165Y-116856D01*
X28832D01*
G01X30165D02*
X30965Y-119273D01*
G01X34098Y-119440D02*
X33992Y-119356D01*
Y-119190D01*
X34098Y-119106D01*
X34205Y-119190D01*
Y-119356D01*
X34098Y-119440D01*
G01Y-117190D02*
X33992Y-117106D01*
Y-116940D01*
X34098Y-116856D01*
X34205Y-116940D01*
Y-117106D01*
X34098Y-117190D01*
G01X3632Y-140273D02*
X3898Y-140773D01*
X4218Y-141106D01*
X4592Y-141273D01*
X5018Y-141106D01*
X5338Y-140773D01*
X5658Y-140273D01*
X5765Y-139606D01*
Y-136273D01*
G01X8898Y-141273D02*
X8472Y-141190D01*
X8098Y-140856D01*
X7778Y-140356D01*
X7565Y-139773D01*
X7458Y-139106D01*
Y-138440D01*
X7565Y-137773D01*
X7778Y-137190D01*
X8098Y-136690D01*
X8472Y-136356D01*
X8898Y-136273D01*
X9325Y-136356D01*
X9698Y-136690D01*
X10018Y-137190D01*
X10232Y-137773D01*
X10338Y-138440D01*
Y-139106D01*
X10232Y-139773D01*
X10018Y-140356D01*
X9698Y-140856D01*
X9325Y-141190D01*
X8898Y-141273D01*
G01X13525Y-138606D02*
X13738Y-138356D01*
X13898Y-137940D01*
X14005Y-137356D01*
X13898Y-136856D01*
X13685Y-136523D01*
X13312Y-136273D01*
X11872D01*
Y-141273D01*
X13632D01*
X14005Y-140940D01*
X14218Y-140440D01*
X14325Y-139856D01*
X14218Y-139273D01*
X13898Y-138773D01*
X13525Y-138606D01*
X11872D01*
G01X16232Y-142940D02*
X17298Y-136273D01*
G01X18365D02*
X17298Y-142940D01*
G01X15698Y-140440D02*
X18898D01*
G01Y-138773D02*
X15698D01*
G01X21498Y-141440D02*
X21392Y-141356D01*
Y-141190D01*
X21498Y-141106D01*
X21605Y-141190D01*
Y-141356D01*
X21498Y-141440D01*
G01Y-139190D02*
X21392Y-139106D01*
Y-138940D01*
X21498Y-138856D01*
X21605Y-138940D01*
Y-139106D01*
X21498Y-139190D01*
G01X30685Y-126106D02*
X31005Y-125606D01*
X31378Y-125356D01*
X31805Y-125273D01*
X32338Y-125439D01*
X32712Y-125856D01*
X32818Y-126356D01*
X32765Y-126856D01*
X32552Y-127273D01*
X31485Y-128106D01*
X31005Y-128690D01*
X30685Y-129523D01*
X30578Y-130273D01*
X32818D01*
G01X35898Y-125273D02*
X35472Y-125439D01*
X35152Y-125856D01*
X34938Y-126356D01*
X34778Y-127023D01*
X34725Y-127773D01*
X34778Y-128523D01*
X34938Y-129190D01*
X35152Y-129690D01*
X35472Y-130106D01*
X35898Y-130273D01*
X36325Y-130106D01*
X36645Y-129690D01*
X36858Y-129190D01*
X37018Y-128523D01*
X37072Y-127773D01*
X37018Y-127023D01*
X36858Y-126356D01*
X36645Y-125856D01*
X36325Y-125439D01*
X35898Y-125273D01*
G01X40098Y-130273D02*
Y-125273D01*
X39458Y-126273D01*
G01Y-130273D02*
X40738D01*
G01X43125Y-129523D02*
X43445Y-129940D01*
X43818Y-130190D01*
X44298Y-130273D01*
X44778Y-130106D01*
X45152Y-129773D01*
X45418Y-129190D01*
X45472Y-128523D01*
X45365Y-127856D01*
X45098Y-127440D01*
X44725Y-127106D01*
X44352Y-127023D01*
X43978Y-127106D01*
X43498Y-127440D01*
X43658Y-125273D01*
X45098D01*
G01X47805Y-128606D02*
X49192D01*
G01X52698Y-125273D02*
X52272Y-125439D01*
X51952Y-125856D01*
X51738Y-126356D01*
X51578Y-127023D01*
X51525Y-127773D01*
X51578Y-128523D01*
X51738Y-129190D01*
X51952Y-129690D01*
X52272Y-130106D01*
X52698Y-130273D01*
X53125Y-130106D01*
X53445Y-129690D01*
X53658Y-129190D01*
X53818Y-128523D01*
X53872Y-127773D01*
X53818Y-127023D01*
X53658Y-126356D01*
X53445Y-125856D01*
X53125Y-125439D01*
X52698Y-125273D01*
G01X55992Y-129690D02*
X56365Y-130106D01*
X56792Y-130273D01*
X57218Y-130106D01*
X57592Y-129606D01*
X57858Y-128856D01*
X57965Y-128106D01*
Y-127190D01*
X57858Y-126440D01*
X57592Y-125773D01*
X57272Y-125439D01*
X56898Y-125273D01*
X56472Y-125439D01*
X56152Y-125773D01*
X55938Y-126273D01*
X55832Y-126940D01*
X55938Y-127523D01*
X56205Y-128106D01*
X56525Y-128440D01*
X56898Y-128523D01*
X57325Y-128356D01*
X57645Y-127940D01*
X57965Y-127190D01*
G01X60405Y-128606D02*
X61792D01*
G01X64285Y-126106D02*
X64605Y-125606D01*
X64978Y-125356D01*
X65405Y-125273D01*
X65938Y-125439D01*
X66312Y-125856D01*
X66418Y-126356D01*
X66365Y-126856D01*
X66152Y-127273D01*
X65085Y-128106D01*
X64605Y-128690D01*
X64285Y-129523D01*
X64178Y-130273D01*
X66418D01*
G01X68325Y-129523D02*
X68645Y-129940D01*
X69018Y-130190D01*
X69498Y-130273D01*
X69978Y-130106D01*
X70352Y-129773D01*
X70618Y-129190D01*
X70672Y-128523D01*
X70565Y-127856D01*
X70298Y-127440D01*
X69925Y-127106D01*
X69552Y-127023D01*
X69178Y-127106D01*
X68698Y-127440D01*
X68858Y-125273D01*
X70298D01*
G01X4525Y-130273D02*
Y-125273D01*
X5592D01*
X6018Y-125523D01*
X6338Y-125856D01*
X6605Y-126356D01*
X6818Y-126940D01*
X6872Y-127773D01*
X6818Y-128606D01*
X6605Y-129190D01*
X6338Y-129690D01*
X6018Y-130023D01*
X5592Y-130273D01*
X4525D01*
G01X8565D02*
X9898Y-125273D01*
X11232Y-130273D01*
G01X10752Y-128523D02*
X9045D01*
G01X14098Y-125273D02*
Y-130273D01*
G01X12872Y-125273D02*
X15325D01*
G01X19365Y-130273D02*
X17232D01*
Y-125273D01*
X19365D01*
G01X18512Y-127690D02*
X17232D01*
G01X22498Y-130440D02*
X22392Y-130356D01*
Y-130190D01*
X22498Y-130106D01*
X22605Y-130190D01*
Y-130356D01*
X22498Y-130440D01*
G01Y-128190D02*
X22392Y-128106D01*
Y-127940D01*
X22498Y-127856D01*
X22605Y-127940D01*
Y-128106D01*
X22498Y-128190D01*
G01X-1902Y-69273D02*
Y-144273D01*
G01X115598Y-121273D02*
X-1902D01*
G01X115598Y-132273D02*
X-1902D01*
G01X3932Y-94273D02*
Y-86773D01*
X5932D01*
X6598Y-87148D01*
X7099Y-88023D01*
X7265Y-89023D01*
X7099Y-90023D01*
X6682Y-90773D01*
X5932Y-91148D01*
X3932D01*
G01X10432Y-94273D02*
Y-86773D01*
X12515D01*
X13182Y-87148D01*
X13599Y-87648D01*
X13765Y-88648D01*
X13599Y-89648D01*
X13098Y-90273D01*
X12515Y-90648D01*
X10432D01*
G01X12515D02*
X13765Y-94273D01*
G01X17598Y-86773D02*
X19598D01*
G01X18598D02*
Y-94273D01*
G01X17598D02*
X19598D01*
G01X22932D02*
Y-86773D01*
X25098Y-93023D01*
X27265Y-86773D01*
Y-94273D01*
G01X29515D02*
X31598Y-86773D01*
X33682Y-94273D01*
G01X32932Y-91648D02*
X30265D01*
G01X36432Y-94273D02*
Y-86773D01*
X38515D01*
X39182Y-87148D01*
X39598Y-87648D01*
X39765Y-88648D01*
X39598Y-89648D01*
X39098Y-90273D01*
X38515Y-90648D01*
X36432D01*
G01X38515D02*
X39765Y-94273D01*
G01X44598D02*
Y-90898D01*
X42932Y-86773D01*
G01X46265D02*
X44598Y-90898D01*
G01X50015Y-91773D02*
X52182D01*
G01X55848Y-93273D02*
X56515Y-93898D01*
X57265Y-94273D01*
X57932D01*
X58598Y-93898D01*
X59098Y-93273D01*
X59348Y-92398D01*
X59182Y-91523D01*
X58765Y-90773D01*
X58015Y-90273D01*
X57015Y-90023D01*
X56432Y-89523D01*
X56182Y-88648D01*
X56348Y-87773D01*
X56765Y-87148D01*
X57348Y-86773D01*
X57932D01*
X58515Y-87023D01*
X59015Y-87648D01*
G01X63098Y-86773D02*
X65098D01*
G01X64098D02*
Y-94273D01*
G01X63098D02*
X65098D01*
G01X68765D02*
Y-86773D01*
X70432D01*
X71098Y-87148D01*
X71598Y-87648D01*
X72015Y-88398D01*
X72348Y-89273D01*
X72432Y-90523D01*
X72348Y-91773D01*
X72015Y-92648D01*
X71598Y-93398D01*
X71098Y-93898D01*
X70432Y-94273D01*
X68765D01*
G01X78765D02*
X75432D01*
Y-86773D01*
X78765D01*
G01X77432Y-90398D02*
X75432D01*
G01X3848Y-80773D02*
X4515Y-81398D01*
X5265Y-81773D01*
X5932D01*
X6598Y-81398D01*
X7099Y-80773D01*
X7348Y-79898D01*
X7182Y-79023D01*
X6765Y-78273D01*
X6015Y-77773D01*
X5015Y-77523D01*
X4432Y-77023D01*
X4182Y-76148D01*
X4348Y-75273D01*
X4765Y-74648D01*
X5348Y-74273D01*
X5932D01*
X6515Y-74523D01*
X7015Y-75148D01*
G01X12098Y-81773D02*
X11432Y-81648D01*
X10848Y-81148D01*
X10348Y-80398D01*
X10015Y-79523D01*
X9848Y-78523D01*
Y-77523D01*
X10015Y-76523D01*
X10348Y-75648D01*
X10848Y-74898D01*
X11432Y-74398D01*
X12098Y-74273D01*
X12765Y-74398D01*
X13348Y-74898D01*
X13848Y-75648D01*
X14182Y-76523D01*
X14349Y-77523D01*
Y-78523D01*
X14182Y-79523D01*
X13848Y-80398D01*
X13348Y-81148D01*
X12765Y-81648D01*
X12098Y-81773D01*
G01X16932Y-74273D02*
Y-81773D01*
X20265D01*
G01X23265D02*
Y-74273D01*
X24932D01*
X25598Y-74648D01*
X26098Y-75148D01*
X26515Y-75898D01*
X26848Y-76773D01*
X26932Y-78023D01*
X26848Y-79273D01*
X26515Y-80148D01*
X26098Y-80898D01*
X25598Y-81398D01*
X24932Y-81773D01*
X23265D01*
G01X33265D02*
X29932D01*
Y-74273D01*
X33265D01*
G01X31932Y-77898D02*
X29932D01*
G01X36432Y-81773D02*
Y-74273D01*
X38515D01*
X39182Y-74648D01*
X39598Y-75148D01*
X39765Y-76148D01*
X39598Y-77148D01*
X39098Y-77773D01*
X38515Y-78148D01*
X36432D01*
G01X38515D02*
X39765Y-81773D01*
G01X42432D02*
Y-74273D01*
X44598Y-80523D01*
X46765Y-74273D01*
Y-81773D01*
G01X49015D02*
X51098Y-74273D01*
X53182Y-81773D01*
G01X52432Y-79148D02*
X49765D01*
G01X55848Y-80773D02*
X56515Y-81398D01*
X57265Y-81773D01*
X57932D01*
X58598Y-81398D01*
X59098Y-80773D01*
X59348Y-79898D01*
X59182Y-79023D01*
X58765Y-78273D01*
X58015Y-77773D01*
X57015Y-77523D01*
X56432Y-77023D01*
X56182Y-76148D01*
X56348Y-75273D01*
X56765Y-74648D01*
X57348Y-74273D01*
X57932D01*
X58515Y-74523D01*
X59015Y-75148D01*
G01X62265Y-81773D02*
Y-74273D01*
G01X65432D02*
X62265Y-78898D01*
G01X65932Y-81773D02*
X63682Y-76773D01*
G01X3525Y-108273D02*
Y-103273D01*
X4592D01*
X5018Y-103523D01*
X5338Y-103856D01*
X5605Y-104356D01*
X5818Y-104940D01*
X5872Y-105773D01*
X5818Y-106606D01*
X5605Y-107190D01*
X5338Y-107690D01*
X5018Y-108023D01*
X4592Y-108273D01*
X3525D01*
G01X9965D02*
X7832D01*
Y-103273D01*
X9965D01*
G01X9112Y-105689D02*
X7832D01*
G01X11978Y-107606D02*
X12405Y-108023D01*
X12885Y-108273D01*
X13312D01*
X13738Y-108023D01*
X14058Y-107606D01*
X14218Y-107023D01*
X14112Y-106440D01*
X13845Y-105940D01*
X13365Y-105606D01*
X12725Y-105440D01*
X12352Y-105106D01*
X12192Y-104523D01*
X12298Y-103940D01*
X12565Y-103523D01*
X12938Y-103273D01*
X13312D01*
X13685Y-103440D01*
X14005Y-103856D01*
G01X16658Y-103273D02*
X17938D01*
G01X17298D02*
Y-108273D01*
G01X16658D02*
X17938D01*
G01X21818Y-105773D02*
X22885D01*
Y-107273D01*
X22565Y-107773D01*
X22192Y-108106D01*
X21658Y-108273D01*
X21125Y-108106D01*
X20752Y-107773D01*
X20432Y-107273D01*
X20218Y-106690D01*
X20112Y-106023D01*
Y-105440D01*
X20218Y-104940D01*
X20432Y-104356D01*
X20752Y-103856D01*
X21072Y-103523D01*
X21498Y-103273D01*
X21872D01*
X22298Y-103440D01*
X22618Y-103773D01*
G01X24472Y-108273D02*
Y-103273D01*
X26925Y-108273D01*
Y-103273D01*
G01X30965Y-108273D02*
X28832D01*
Y-103273D01*
X30965D01*
G01X30112Y-105689D02*
X28832D01*
G01X33032Y-108273D02*
Y-103273D01*
X34365D01*
X34792Y-103523D01*
X35058Y-103856D01*
X35165Y-104523D01*
X35058Y-105190D01*
X34738Y-105606D01*
X34365Y-105856D01*
X33032D01*
G01X34365D02*
X35165Y-108273D01*
G01X38298Y-108440D02*
X38192Y-108356D01*
Y-108190D01*
X38298Y-108106D01*
X38405Y-108190D01*
Y-108356D01*
X38298Y-108440D01*
G01Y-106190D02*
X38192Y-106106D01*
Y-105940D01*
X38298Y-105856D01*
X38405Y-105940D01*
Y-106106D01*
X38298Y-106190D01*
G01X115598Y-99273D02*
X-1902D01*
G01X115598Y-110273D02*
X-1902D01*
G01X0Y0D02*
Y150500D01*
X29000D01*
X31500Y153000D01*
Y191000D01*
X29000Y193500D01*
X-10000D01*
Y220000D01*
G01X0Y0D02*
X310000D01*
G01Y220000D02*
X-10000D01*
G01X39132Y-119273D02*
Y-114273D01*
X40465D01*
X40892Y-114523D01*
X41158Y-114856D01*
X41265Y-115523D01*
X41158Y-116190D01*
X40838Y-116606D01*
X40465Y-116856D01*
X39132D01*
G01X40465D02*
X41265Y-119273D01*
G01X44398D02*
X43972Y-119190D01*
X43598Y-118856D01*
X43278Y-118356D01*
X43065Y-117773D01*
X42958Y-117106D01*
Y-116440D01*
X43065Y-115773D01*
X43278Y-115190D01*
X43598Y-114690D01*
X43972Y-114356D01*
X44398Y-114273D01*
X44825Y-114356D01*
X45198Y-114690D01*
X45518Y-115190D01*
X45732Y-115773D01*
X45838Y-116440D01*
Y-117106D01*
X45732Y-117773D01*
X45518Y-118356D01*
X45198Y-118856D01*
X44825Y-119190D01*
X44398Y-119273D01*
G01X47478D02*
Y-114273D01*
G01X49718D02*
Y-119273D01*
G01Y-116773D02*
X47478D01*
G01X51412Y-119273D02*
Y-114273D01*
X52798Y-118440D01*
X54185Y-114273D01*
Y-119273D01*
G01X60078Y-118606D02*
X60505Y-119023D01*
X60985Y-119273D01*
X61412D01*
X61838Y-119023D01*
X62158Y-118606D01*
X62318Y-118023D01*
X62212Y-117440D01*
X61945Y-116940D01*
X61465Y-116606D01*
X60825Y-116440D01*
X60452Y-116106D01*
X60292Y-115523D01*
X60398Y-114940D01*
X60665Y-114523D01*
X61038Y-114273D01*
X61412D01*
X61785Y-114440D01*
X62105Y-114856D01*
G01X66465Y-119273D02*
X64332D01*
Y-114273D01*
X66465D01*
G01X65612Y-116690D02*
X64332D01*
G01X68212Y-119273D02*
Y-114273D01*
X69598Y-118440D01*
X70985Y-114273D01*
Y-119273D01*
G01X73158Y-114273D02*
X74438D01*
G01X73798D02*
Y-119273D01*
G01X73158D02*
X74438D01*
G01X79172Y-114690D02*
X78852Y-114440D01*
X78478Y-114273D01*
X78052D01*
X77572Y-114523D01*
X77198Y-114940D01*
X76932Y-115440D01*
X76718Y-116273D01*
X76665Y-117023D01*
X76772Y-117773D01*
X76932Y-118273D01*
X77252Y-118773D01*
X77625Y-119106D01*
X77998Y-119273D01*
X78372D01*
X78745Y-119106D01*
X79065Y-118856D01*
X79332Y-118523D01*
G01X82198Y-119273D02*
X81772Y-119190D01*
X81398Y-118856D01*
X81078Y-118356D01*
X80865Y-117773D01*
X80758Y-117106D01*
Y-116440D01*
X80865Y-115773D01*
X81078Y-115190D01*
X81398Y-114690D01*
X81772Y-114356D01*
X82198Y-114273D01*
X82625Y-114356D01*
X82998Y-114690D01*
X83318Y-115190D01*
X83532Y-115773D01*
X83638Y-116440D01*
Y-117106D01*
X83532Y-117773D01*
X83318Y-118356D01*
X82998Y-118856D01*
X82625Y-119190D01*
X82198Y-119273D01*
G01X85172D02*
Y-114273D01*
X87625Y-119273D01*
Y-114273D01*
G01X89425Y-119273D02*
Y-114273D01*
X90492D01*
X90918Y-114523D01*
X91238Y-114856D01*
X91505Y-115356D01*
X91718Y-115940D01*
X91772Y-116773D01*
X91718Y-117606D01*
X91505Y-118190D01*
X91238Y-118690D01*
X90918Y-119023D01*
X90492Y-119273D01*
X89425D01*
G01X93625Y-114273D02*
Y-117856D01*
X93838Y-118606D01*
X94265Y-119106D01*
X94798Y-119273D01*
X95332Y-119106D01*
X95758Y-118606D01*
X95972Y-117856D01*
Y-114273D01*
G01X100172Y-114690D02*
X99852Y-114440D01*
X99478Y-114273D01*
X99052D01*
X98572Y-114523D01*
X98198Y-114940D01*
X97932Y-115440D01*
X97718Y-116273D01*
X97665Y-117023D01*
X97772Y-117773D01*
X97932Y-118273D01*
X98252Y-118773D01*
X98625Y-119106D01*
X98998Y-119273D01*
X99372D01*
X99745Y-119106D01*
X100065Y-118856D01*
X100332Y-118523D01*
G01X103198Y-114273D02*
Y-119273D01*
G01X101972Y-114273D02*
X104425D01*
G01X107398Y-119273D02*
X106972Y-119190D01*
X106598Y-118856D01*
X106278Y-118356D01*
X106065Y-117773D01*
X105958Y-117106D01*
Y-116440D01*
X106065Y-115773D01*
X106278Y-115190D01*
X106598Y-114690D01*
X106972Y-114356D01*
X107398Y-114273D01*
X107825Y-114356D01*
X108198Y-114690D01*
X108518Y-115190D01*
X108732Y-115773D01*
X108838Y-116440D01*
Y-117106D01*
X108732Y-117773D01*
X108518Y-118356D01*
X108198Y-118856D01*
X107825Y-119190D01*
X107398Y-119273D01*
G01X110532D02*
Y-114273D01*
X111865D01*
X112292Y-114523D01*
X112558Y-114856D01*
X112665Y-115523D01*
X112558Y-116190D01*
X112238Y-116606D01*
X111865Y-116856D01*
X110532D01*
G01X111865D02*
X112665Y-119273D01*
G01X43632Y-108273D02*
Y-103273D01*
X44912D01*
X45338Y-103523D01*
X45658Y-104106D01*
X45765Y-104773D01*
X45658Y-105440D01*
X45392Y-105940D01*
X44912Y-106190D01*
X43632D01*
G01X48898Y-103273D02*
Y-108273D01*
G01X47672Y-103273D02*
X50125D01*
G01X51978Y-108273D02*
Y-103273D01*
G01X54218D02*
Y-108273D01*
G01Y-105773D02*
X51978D01*
G01X55965Y-103273D02*
X57298Y-108273D01*
X58632Y-103273D01*
G01X60325Y-108273D02*
Y-103273D01*
X61392D01*
X61818Y-103523D01*
X62138Y-103856D01*
X62405Y-104356D01*
X62618Y-104940D01*
X62672Y-105773D01*
X62618Y-106606D01*
X62405Y-107190D01*
X62138Y-107690D01*
X61818Y-108023D01*
X61392Y-108273D01*
X60325D01*
G01X66872Y-103690D02*
X66552Y-103440D01*
X66178Y-103273D01*
X65752D01*
X65272Y-103523D01*
X64898Y-103940D01*
X64632Y-104440D01*
X64418Y-105273D01*
X64365Y-106023D01*
X64472Y-106773D01*
X64632Y-107273D01*
X64952Y-107773D01*
X65325Y-108106D01*
X65698Y-108273D01*
X66072D01*
X66445Y-108106D01*
X66765Y-107856D01*
X67032Y-107523D01*
G01X118765Y-129273D02*
Y-123273D01*
X120365D01*
X120898Y-123573D01*
X121298Y-124273D01*
X121432Y-125073D01*
X121298Y-125873D01*
X120965Y-126473D01*
X120365Y-126773D01*
X118765D01*
G01X123965Y-129273D02*
Y-123273D01*
X125632D01*
X126165Y-123573D01*
X126498Y-123973D01*
X126632Y-124773D01*
X126498Y-125573D01*
X126098Y-126073D01*
X125632Y-126373D01*
X123965D01*
G01X125632D02*
X126632Y-129273D01*
G01X130498D02*
X129965Y-129173D01*
X129498Y-128773D01*
X129098Y-128173D01*
X128832Y-127473D01*
X128698Y-126673D01*
Y-125873D01*
X128832Y-125073D01*
X129098Y-124373D01*
X129498Y-123773D01*
X129965Y-123373D01*
X130498Y-123273D01*
X131032Y-123373D01*
X131498Y-123773D01*
X131898Y-124373D01*
X132165Y-125073D01*
X132298Y-125873D01*
Y-126673D01*
X132165Y-127473D01*
X131898Y-128173D01*
X131498Y-128773D01*
X131032Y-129173D01*
X130498Y-129273D01*
G01X134365Y-128073D02*
X134698Y-128673D01*
X135098Y-129073D01*
X135565Y-129273D01*
X136098Y-129073D01*
X136498Y-128673D01*
X136898Y-128073D01*
X137032Y-127273D01*
Y-123273D01*
G01X142232Y-129273D02*
X139565D01*
Y-123273D01*
X142232D01*
G01X141165Y-126173D02*
X139565D01*
G01X147565Y-123773D02*
X147165Y-123473D01*
X146698Y-123273D01*
X146165D01*
X145565Y-123573D01*
X145098Y-124073D01*
X144765Y-124673D01*
X144498Y-125673D01*
X144432Y-126573D01*
X144565Y-127473D01*
X144765Y-128073D01*
X145165Y-128673D01*
X145632Y-129073D01*
X146098Y-129273D01*
X146565D01*
X147032Y-129073D01*
X147432Y-128773D01*
X147765Y-128373D01*
G01X151298Y-123273D02*
Y-129273D01*
G01X149765Y-123273D02*
X152832D01*
G01X160165Y-129273D02*
Y-123273D01*
X163232Y-129273D01*
Y-123273D01*
G01X165432D02*
Y-127573D01*
X165698Y-128473D01*
X166232Y-129073D01*
X166898Y-129273D01*
X167565Y-129073D01*
X168098Y-128473D01*
X168365Y-127573D01*
Y-123273D01*
G01X170365Y-129273D02*
Y-123273D01*
X172098Y-128273D01*
X173832Y-123273D01*
Y-129273D01*
G01X177832Y-126073D02*
X178098Y-125773D01*
X178298Y-125273D01*
X178432Y-124573D01*
X178298Y-123973D01*
X178032Y-123573D01*
X177565Y-123273D01*
X175765D01*
Y-129273D01*
X177965D01*
X178432Y-128873D01*
X178698Y-128273D01*
X178832Y-127573D01*
X178698Y-126873D01*
X178298Y-126273D01*
X177832Y-126073D01*
X175765D01*
G01X183832Y-129273D02*
X181165D01*
Y-123273D01*
X183832D01*
G01X182765Y-126173D02*
X181165D01*
G01X186365Y-129273D02*
Y-123273D01*
X188032D01*
X188565Y-123573D01*
X188898Y-123973D01*
X189032Y-124773D01*
X188898Y-125573D01*
X188498Y-126073D01*
X188032Y-126373D01*
X186365D01*
G01X188032D02*
X189032Y-129273D01*
G01X192898Y-129473D02*
X192765Y-129373D01*
Y-129173D01*
X192898Y-129073D01*
X193032Y-129173D01*
Y-129373D01*
X192898Y-129473D01*
G01Y-126773D02*
X192765Y-126673D01*
Y-126473D01*
X192898Y-126373D01*
X193032Y-126473D01*
Y-126673D01*
X192898Y-126773D01*
G01X115598Y-69273D02*
Y-144273D01*
G01X318098Y-121773D02*
X115598D01*
G01X118765Y-106773D02*
Y-100773D01*
X120365D01*
X120898Y-101073D01*
X121298Y-101773D01*
X121432Y-102573D01*
X121298Y-103373D01*
X120965Y-103973D01*
X120365Y-104273D01*
X118765D01*
G01X123965Y-106773D02*
Y-100773D01*
X125632D01*
X126165Y-101073D01*
X126498Y-101473D01*
X126632Y-102273D01*
X126498Y-103073D01*
X126098Y-103573D01*
X125632Y-103873D01*
X123965D01*
G01X125632D02*
X126632Y-106773D01*
G01X130498D02*
X129965Y-106673D01*
X129498Y-106273D01*
X129098Y-105673D01*
X128832Y-104973D01*
X128698Y-104173D01*
Y-103373D01*
X128832Y-102573D01*
X129098Y-101873D01*
X129498Y-101273D01*
X129965Y-100873D01*
X130498Y-100773D01*
X131032Y-100873D01*
X131498Y-101273D01*
X131898Y-101873D01*
X132165Y-102573D01*
X132298Y-103373D01*
Y-104173D01*
X132165Y-104973D01*
X131898Y-105673D01*
X131498Y-106273D01*
X131032Y-106673D01*
X130498Y-106773D01*
G01X134365Y-105573D02*
X134698Y-106173D01*
X135098Y-106573D01*
X135565Y-106773D01*
X136098Y-106573D01*
X136498Y-106173D01*
X136898Y-105573D01*
X137032Y-104773D01*
Y-100773D01*
G01X142232Y-106773D02*
X139565D01*
Y-100773D01*
X142232D01*
G01X141165Y-103673D02*
X139565D01*
G01X147565Y-101273D02*
X147165Y-100973D01*
X146698Y-100773D01*
X146165D01*
X145565Y-101073D01*
X145098Y-101573D01*
X144765Y-102173D01*
X144498Y-103173D01*
X144432Y-104073D01*
X144565Y-104973D01*
X144765Y-105573D01*
X145165Y-106173D01*
X145632Y-106573D01*
X146098Y-106773D01*
X146565D01*
X147032Y-106573D01*
X147432Y-106273D01*
X147765Y-105873D01*
G01X151298Y-100773D02*
Y-106773D01*
G01X149765Y-100773D02*
X152832D01*
G01X160165Y-106773D02*
Y-100773D01*
X163232Y-106773D01*
Y-100773D01*
G01X165232Y-106773D02*
X166898Y-100773D01*
X168565Y-106773D01*
G01X167965Y-104673D02*
X165832D01*
G01X170365Y-106773D02*
Y-100773D01*
X172098Y-105773D01*
X173832Y-100773D01*
Y-106773D01*
G01X178632D02*
X175965D01*
Y-100773D01*
X178632D01*
G01X177565Y-103673D02*
X175965D01*
G01X182498Y-106973D02*
X182365Y-106873D01*
Y-106673D01*
X182498Y-106573D01*
X182632Y-106673D01*
Y-106873D01*
X182498Y-106973D01*
G01Y-104273D02*
X182365Y-104173D01*
Y-103973D01*
X182498Y-103873D01*
X182632Y-103973D01*
Y-104173D01*
X182498Y-104273D01*
G01X121565Y-71273D02*
X121165Y-70973D01*
X120698Y-70773D01*
X120165D01*
X119565Y-71073D01*
X119098Y-71573D01*
X118765Y-72173D01*
X118498Y-73173D01*
X118432Y-74073D01*
X118565Y-74973D01*
X118765Y-75573D01*
X119165Y-76173D01*
X119632Y-76573D01*
X120098Y-76773D01*
X120565D01*
X121032Y-76573D01*
X121432Y-76273D01*
X121765Y-75873D01*
G01X125298Y-76773D02*
X124765Y-76673D01*
X124298Y-76273D01*
X123898Y-75673D01*
X123632Y-74973D01*
X123498Y-74173D01*
Y-73373D01*
X123632Y-72573D01*
X123898Y-71873D01*
X124298Y-71273D01*
X124765Y-70873D01*
X125298Y-70773D01*
X125832Y-70873D01*
X126298Y-71273D01*
X126698Y-71873D01*
X126965Y-72573D01*
X127098Y-73373D01*
Y-74173D01*
X126965Y-74973D01*
X126698Y-75673D01*
X126298Y-76273D01*
X125832Y-76673D01*
X125298Y-76773D01*
G01X128765D02*
Y-70773D01*
X130498Y-75773D01*
X132232Y-70773D01*
Y-76773D01*
G01X134365D02*
Y-70773D01*
X135965D01*
X136498Y-71073D01*
X136898Y-71773D01*
X137032Y-72573D01*
X136898Y-73373D01*
X136565Y-73973D01*
X135965Y-74273D01*
X134365D01*
G01X139232Y-76773D02*
X140898Y-70773D01*
X142565Y-76773D01*
G01X141965Y-74673D02*
X139832D01*
G01X144565Y-76773D02*
Y-70773D01*
X147632Y-76773D01*
Y-70773D01*
G01X151298Y-76773D02*
Y-74073D01*
X149965Y-70773D01*
G01X152632D02*
X151298Y-74073D01*
G01X160165Y-76773D02*
Y-70773D01*
X163232Y-76773D01*
Y-70773D01*
G01X165232Y-76773D02*
X166898Y-70773D01*
X168565Y-76773D01*
G01X167965Y-74673D02*
X165832D01*
G01X170365Y-76773D02*
Y-70773D01*
X172098Y-75773D01*
X173832Y-70773D01*
Y-76773D01*
G01X178632D02*
X175965D01*
Y-70773D01*
X178632D01*
G01X177565Y-73673D02*
X175965D01*
G01X182498Y-76973D02*
X182365Y-76873D01*
Y-76673D01*
X182498Y-76573D01*
X182632Y-76673D01*
Y-76873D01*
X182498Y-76973D01*
G01Y-74273D02*
X182365Y-74173D01*
Y-73973D01*
X182498Y-73873D01*
X182632Y-73973D01*
Y-74173D01*
X182498Y-74273D01*
G01X318098Y-99273D02*
X115598D01*
G01X134078Y-118606D02*
X134505Y-119023D01*
X134985Y-119273D01*
X135412D01*
X135838Y-119023D01*
X136158Y-118606D01*
X136318Y-118023D01*
X136212Y-117440D01*
X135945Y-116940D01*
X135465Y-116606D01*
X134825Y-116440D01*
X134452Y-116106D01*
X134292Y-115523D01*
X134398Y-114940D01*
X134665Y-114523D01*
X135038Y-114273D01*
X135412D01*
X135785Y-114440D01*
X136105Y-114856D01*
G01X140465Y-119273D02*
X138332D01*
Y-114273D01*
X140465D01*
G01X139612Y-116690D02*
X138332D01*
G01X142372Y-119273D02*
Y-114273D01*
X144825Y-119273D01*
Y-114273D01*
G01X146678Y-118606D02*
X147105Y-119023D01*
X147585Y-119273D01*
X148012D01*
X148438Y-119023D01*
X148758Y-118606D01*
X148918Y-118023D01*
X148812Y-117440D01*
X148545Y-116940D01*
X148065Y-116606D01*
X147425Y-116440D01*
X147052Y-116106D01*
X146892Y-115523D01*
X146998Y-114940D01*
X147265Y-114523D01*
X147638Y-114273D01*
X148012D01*
X148385Y-114440D01*
X148705Y-114856D01*
G01X151998Y-119273D02*
X151572Y-119190D01*
X151198Y-118856D01*
X150878Y-118356D01*
X150665Y-117773D01*
X150558Y-117106D01*
Y-116440D01*
X150665Y-115773D01*
X150878Y-115190D01*
X151198Y-114690D01*
X151572Y-114356D01*
X151998Y-114273D01*
X152425Y-114356D01*
X152798Y-114690D01*
X153118Y-115190D01*
X153332Y-115773D01*
X153438Y-116440D01*
Y-117106D01*
X153332Y-117773D01*
X153118Y-118356D01*
X152798Y-118856D01*
X152425Y-119190D01*
X151998Y-119273D01*
G01X155132D02*
Y-114273D01*
X156465D01*
X156892Y-114523D01*
X157158Y-114856D01*
X157265Y-115523D01*
X157158Y-116190D01*
X156838Y-116606D01*
X156465Y-116856D01*
X155132D01*
G01X156465D02*
X157265Y-119273D01*
G01X163532D02*
Y-114273D01*
X164812D01*
X165238Y-114523D01*
X165558Y-115106D01*
X165665Y-115773D01*
X165558Y-116440D01*
X165292Y-116940D01*
X164812Y-117190D01*
X163532D01*
G01X167732Y-114273D02*
Y-119273D01*
X169865D01*
G01X171665D02*
X172998Y-114273D01*
X174332Y-119273D01*
G01X173852Y-117523D02*
X172145D01*
G01X177198Y-114273D02*
Y-119273D01*
G01X175972Y-114273D02*
X178425D01*
G01X180385Y-119273D02*
Y-114273D01*
X182412D01*
G01X181665Y-116690D02*
X180385D01*
G01X185598Y-119273D02*
X185172Y-119190D01*
X184798Y-118856D01*
X184478Y-118356D01*
X184265Y-117773D01*
X184158Y-117106D01*
Y-116440D01*
X184265Y-115773D01*
X184478Y-115190D01*
X184798Y-114690D01*
X185172Y-114356D01*
X185598Y-114273D01*
X186025Y-114356D01*
X186398Y-114690D01*
X186718Y-115190D01*
X186932Y-115773D01*
X187038Y-116440D01*
Y-117106D01*
X186932Y-117773D01*
X186718Y-118356D01*
X186398Y-118856D01*
X186025Y-119190D01*
X185598Y-119273D01*
G01X188732D02*
Y-114273D01*
X190065D01*
X190492Y-114523D01*
X190758Y-114856D01*
X190865Y-115523D01*
X190758Y-116190D01*
X190438Y-116606D01*
X190065Y-116856D01*
X188732D01*
G01X190065D02*
X190865Y-119273D01*
G01X192612D02*
Y-114273D01*
X193998Y-118440D01*
X195385Y-114273D01*
Y-119273D01*
G01X196598Y-120940D02*
X199798D01*
G01X201012Y-119273D02*
Y-114273D01*
X202398Y-118440D01*
X203785Y-114273D01*
Y-119273D01*
G01X205425Y-114273D02*
Y-117856D01*
X205638Y-118606D01*
X206065Y-119106D01*
X206598Y-119273D01*
X207132Y-119106D01*
X207558Y-118606D01*
X207772Y-117856D01*
Y-114273D01*
G01X209732D02*
Y-119273D01*
X211865D01*
G01X214998Y-114273D02*
Y-119273D01*
G01X213772Y-114273D02*
X216225D01*
G01X218558D02*
X219838D01*
G01X219198D02*
Y-119273D01*
G01X218558D02*
X219838D01*
G01X222278Y-118606D02*
X222705Y-119023D01*
X223185Y-119273D01*
X223612D01*
X224038Y-119023D01*
X224358Y-118606D01*
X224518Y-118023D01*
X224412Y-117440D01*
X224145Y-116940D01*
X223665Y-116606D01*
X223025Y-116440D01*
X222652Y-116106D01*
X222492Y-115523D01*
X222598Y-114940D01*
X222865Y-114523D01*
X223238Y-114273D01*
X223612D01*
X223985Y-114440D01*
X224305Y-114856D01*
G01X228665Y-119273D02*
X226532D01*
Y-114273D01*
X228665D01*
G01X227812Y-116690D02*
X226532D01*
G01X230572Y-119273D02*
Y-114273D01*
X233025Y-119273D01*
Y-114273D01*
G01X234878Y-118606D02*
X235305Y-119023D01*
X235785Y-119273D01*
X236212D01*
X236638Y-119023D01*
X236958Y-118606D01*
X237118Y-118023D01*
X237012Y-117440D01*
X236745Y-116940D01*
X236265Y-116606D01*
X235625Y-116440D01*
X235252Y-116106D01*
X235092Y-115523D01*
X235198Y-114940D01*
X235465Y-114523D01*
X235838Y-114273D01*
X236212D01*
X236585Y-114440D01*
X236905Y-114856D01*
G01X240198Y-119273D02*
X239772Y-119190D01*
X239398Y-118856D01*
X239078Y-118356D01*
X238865Y-117773D01*
X238758Y-117106D01*
Y-116440D01*
X238865Y-115773D01*
X239078Y-115190D01*
X239398Y-114690D01*
X239772Y-114356D01*
X240198Y-114273D01*
X240625Y-114356D01*
X240998Y-114690D01*
X241318Y-115190D01*
X241532Y-115773D01*
X241638Y-116440D01*
Y-117106D01*
X241532Y-117773D01*
X241318Y-118356D01*
X240998Y-118856D01*
X240625Y-119190D01*
X240198Y-119273D01*
G01X243332D02*
Y-114273D01*
X244665D01*
X245092Y-114523D01*
X245358Y-114856D01*
X245465Y-115523D01*
X245358Y-116190D01*
X245038Y-116606D01*
X244665Y-116856D01*
X243332D01*
G01X244665D02*
X245465Y-119273D01*
G01X251678Y-118606D02*
X252105Y-119023D01*
X252585Y-119273D01*
X253012D01*
X253438Y-119023D01*
X253758Y-118606D01*
X253918Y-118023D01*
X253812Y-117440D01*
X253545Y-116940D01*
X253065Y-116606D01*
X252425Y-116440D01*
X252052Y-116106D01*
X251892Y-115523D01*
X251998Y-114940D01*
X252265Y-114523D01*
X252638Y-114273D01*
X253012D01*
X253385Y-114440D01*
X253705Y-114856D01*
G01X255878Y-119273D02*
Y-114273D01*
G01X258118D02*
Y-119273D01*
G01Y-116773D02*
X255878D01*
G01X260558Y-114273D02*
X261838D01*
G01X261198D02*
Y-119273D01*
G01X260558D02*
X261838D01*
G01X266465D02*
X264332D01*
Y-114273D01*
X266465D01*
G01X265612Y-116690D02*
X264332D01*
G01X268532Y-114273D02*
Y-119273D01*
X270665D01*
G01X272625D02*
Y-114273D01*
X273692D01*
X274118Y-114523D01*
X274438Y-114856D01*
X274705Y-115356D01*
X274918Y-115940D01*
X274972Y-116773D01*
X274918Y-117606D01*
X274705Y-118190D01*
X274438Y-118690D01*
X274118Y-119023D01*
X273692Y-119273D01*
X272625D01*
G01X282625Y-116606D02*
X282838Y-116356D01*
X282998Y-115940D01*
X283105Y-115356D01*
X282998Y-114856D01*
X282785Y-114523D01*
X282412Y-114273D01*
X280972D01*
Y-119273D01*
X282732D01*
X283105Y-118940D01*
X283318Y-118440D01*
X283425Y-117856D01*
X283318Y-117273D01*
X282998Y-116773D01*
X282625Y-116606D01*
X280972D01*
G01X286398Y-119273D02*
X285972Y-119190D01*
X285598Y-118856D01*
X285278Y-118356D01*
X285065Y-117773D01*
X284958Y-117106D01*
Y-116440D01*
X285065Y-115773D01*
X285278Y-115190D01*
X285598Y-114690D01*
X285972Y-114356D01*
X286398Y-114273D01*
X286825Y-114356D01*
X287198Y-114690D01*
X287518Y-115190D01*
X287732Y-115773D01*
X287838Y-116440D01*
Y-117106D01*
X287732Y-117773D01*
X287518Y-118356D01*
X287198Y-118856D01*
X286825Y-119190D01*
X286398Y-119273D01*
G01X289265D02*
X290598Y-114273D01*
X291932Y-119273D01*
G01X291452Y-117523D02*
X289745D01*
G01X293732Y-119273D02*
Y-114273D01*
X295065D01*
X295492Y-114523D01*
X295758Y-114856D01*
X295865Y-115523D01*
X295758Y-116190D01*
X295438Y-116606D01*
X295065Y-116856D01*
X293732D01*
G01X295065D02*
X295865Y-119273D01*
G01X297825D02*
Y-114273D01*
X298892D01*
X299318Y-114523D01*
X299638Y-114856D01*
X299905Y-115356D01*
X300118Y-115940D01*
X300172Y-116773D01*
X300118Y-117606D01*
X299905Y-118190D01*
X299638Y-118690D01*
X299318Y-119023D01*
X298892Y-119273D01*
X297825D01*
G01X192500Y130000D02*
X207500D01*
X210000Y127500D01*
Y92500D01*
X207500Y90000D01*
X182500D01*
X180000Y92500D01*
Y127500D01*
X182500Y130000D01*
X192500D01*
G01X288965Y-129273D02*
Y-123273D01*
X290632D01*
X291165Y-123573D01*
X291498Y-123973D01*
X291632Y-124773D01*
X291498Y-125573D01*
X291098Y-126073D01*
X290632Y-126373D01*
X288965D01*
G01X290632D02*
X291632Y-129273D01*
G01X296832D02*
X294165D01*
Y-123273D01*
X296832D01*
G01X295765Y-126173D02*
X294165D01*
G01X299032Y-123273D02*
X300698Y-129273D01*
X302365Y-123273D01*
G01X305898Y-129473D02*
X305765Y-129373D01*
Y-129173D01*
X305898Y-129073D01*
X306032Y-129173D01*
Y-129373D01*
X305898Y-129473D01*
G01X283098Y-121773D02*
Y-144273D01*
G01X322445Y-120273D02*
Y-116273D01*
X323312D01*
X323658Y-116473D01*
X323918Y-116740D01*
X324135Y-117140D01*
X324308Y-117606D01*
X324352Y-118273D01*
X324308Y-118940D01*
X324135Y-119406D01*
X323918Y-119806D01*
X323658Y-120073D01*
X323312Y-120273D01*
X322445D01*
G01X327665D02*
X325932D01*
Y-116273D01*
X327665D01*
G01X326972Y-118206D02*
X325932D01*
G01X331152Y-116606D02*
X330892Y-116406D01*
X330588Y-116273D01*
X330242D01*
X329852Y-116473D01*
X329548Y-116806D01*
X329332Y-117206D01*
X329158Y-117873D01*
X329115Y-118473D01*
X329202Y-119073D01*
X329332Y-119473D01*
X329592Y-119873D01*
X329895Y-120140D01*
X330198Y-120273D01*
X330502D01*
X330805Y-120140D01*
X331065Y-119940D01*
X331282Y-119673D01*
G01X333078Y-116273D02*
X334118D01*
G01X333598D02*
Y-120273D01*
G01X333078D02*
X334118D01*
G01X335872D02*
Y-116273D01*
X336998Y-119606D01*
X338125Y-116273D01*
Y-120273D01*
G01X339315D02*
X340398Y-116273D01*
X341482Y-120273D01*
G01X341092Y-118873D02*
X339705D01*
G01X342932Y-116273D02*
Y-120273D01*
X344665D01*
G01X337398Y-125906D02*
X337312Y-125840D01*
Y-125706D01*
X337398Y-125640D01*
X337485Y-125706D01*
Y-125840D01*
X337398Y-125906D01*
G01X340798Y-125773D02*
Y-121773D01*
X340278Y-122573D01*
G01Y-125773D02*
X341318D01*
G01X337398Y-131906D02*
X337312Y-131840D01*
Y-131706D01*
X337398Y-131640D01*
X337485Y-131706D01*
Y-131840D01*
X337398Y-131906D01*
G01X340798Y-127773D02*
X340452Y-127906D01*
X340192Y-128240D01*
X340018Y-128640D01*
X339888Y-129173D01*
X339845Y-129773D01*
X339888Y-130373D01*
X340018Y-130906D01*
X340192Y-131306D01*
X340452Y-131640D01*
X340798Y-131773D01*
X341145Y-131640D01*
X341405Y-131306D01*
X341578Y-130906D01*
X341708Y-130373D01*
X341752Y-129773D01*
X341708Y-129173D01*
X341578Y-128640D01*
X341405Y-128240D01*
X341145Y-127906D01*
X340798Y-127773D01*
G01X343245Y-130973D02*
X343505Y-131440D01*
X343852Y-131706D01*
X344242Y-131773D01*
X344588Y-131706D01*
X344935Y-131373D01*
X345152Y-130973D01*
X345195Y-130573D01*
X345108Y-130106D01*
X344805Y-129773D01*
X344502Y-129640D01*
X344112D01*
G01X344502D02*
X344762Y-129440D01*
X344978Y-129106D01*
X345065Y-128706D01*
X344978Y-128306D01*
X344762Y-127973D01*
X344372Y-127773D01*
X343982Y-127840D01*
X343592Y-128106D01*
G01X337398Y-137906D02*
X337312Y-137840D01*
Y-137706D01*
X337398Y-137640D01*
X337485Y-137706D01*
Y-137840D01*
X337398Y-137906D01*
G01X340798Y-133773D02*
X340452Y-133906D01*
X340192Y-134240D01*
X340018Y-134640D01*
X339888Y-135173D01*
X339845Y-135773D01*
X339888Y-136373D01*
X340018Y-136906D01*
X340192Y-137306D01*
X340452Y-137640D01*
X340798Y-137773D01*
X341145Y-137640D01*
X341405Y-137306D01*
X341578Y-136906D01*
X341708Y-136373D01*
X341752Y-135773D01*
X341708Y-135173D01*
X341578Y-134640D01*
X341405Y-134240D01*
X341145Y-133906D01*
X340798Y-133773D01*
G01X344198Y-137773D02*
Y-133773D01*
X343678Y-134573D01*
G01Y-137773D02*
X344718D01*
G01X347598Y-133773D02*
X347252Y-133906D01*
X346992Y-134240D01*
X346818Y-134640D01*
X346688Y-135173D01*
X346645Y-135773D01*
X346688Y-136373D01*
X346818Y-136906D01*
X346992Y-137306D01*
X347252Y-137640D01*
X347598Y-137773D01*
X347945Y-137640D01*
X348205Y-137306D01*
X348378Y-136906D01*
X348508Y-136373D01*
X348552Y-135773D01*
X348508Y-135173D01*
X348378Y-134640D01*
X348205Y-134240D01*
X347945Y-133906D01*
X347598Y-133773D01*
G01X327888Y-125773D02*
X329708Y-121773D01*
G01X327888D02*
X329708Y-125773D01*
G01X324488Y-131773D02*
X326308Y-127773D01*
G01X324488D02*
X326308Y-131773D01*
G01X327888D02*
X329708Y-127773D01*
G01X327888D02*
X329708Y-131773D01*
G01X321088Y-137773D02*
X322908Y-133773D01*
G01X321088D02*
X322908Y-137773D01*
G01X324488D02*
X326308Y-133773D01*
G01X324488D02*
X326308Y-137773D01*
G01X327888D02*
X329708Y-133773D01*
G01X327888D02*
X329708Y-137773D01*
G01X318098Y-69273D02*
Y-144273D01*
G01X332098Y-123573D02*
X335098D01*
G01X332098Y-125773D02*
X335098D01*
G01X333598Y-122073D02*
Y-125073D01*
G01X332098Y-131773D02*
X335098D01*
G01X333598Y-128073D02*
Y-131073D01*
G01X332098Y-129573D02*
X335098D01*
G01X332098Y-137773D02*
X335098D01*
G01X333598Y-134073D02*
Y-137073D01*
G01X332098Y-135573D02*
X335098D01*
G01X331115Y-96773D02*
X332198Y-92773D01*
X333282Y-96773D01*
G01X332892Y-95373D02*
X331505D01*
G01X334732Y-96773D02*
Y-92773D01*
X335815D01*
X336162Y-92973D01*
X336378Y-93240D01*
X336465Y-93773D01*
X336378Y-94306D01*
X336118Y-94640D01*
X335815Y-94840D01*
X334732D01*
G01X335815D02*
X336465Y-96773D01*
G01X339865D02*
X338132D01*
Y-92773D01*
X339865D01*
G01X339172Y-94706D02*
X338132D01*
G01X345278Y-92773D02*
X346318D01*
G01X345798D02*
Y-96773D01*
G01X345278D02*
X346318D01*
G01X348202D02*
Y-92773D01*
X350195Y-96773D01*
Y-92773D01*
G01X355478D02*
X356518D01*
G01X355998D02*
Y-96773D01*
G01X355478D02*
X356518D01*
G01X358402D02*
Y-92773D01*
X360395Y-96773D01*
Y-92773D01*
G01X363752Y-93106D02*
X363492Y-92906D01*
X363188Y-92773D01*
X362842D01*
X362452Y-92973D01*
X362148Y-93306D01*
X361932Y-93706D01*
X361758Y-94373D01*
X361715Y-94973D01*
X361802Y-95573D01*
X361932Y-95973D01*
X362192Y-96373D01*
X362495Y-96640D01*
X362798Y-96773D01*
X363102D01*
X363405Y-96640D01*
X363665Y-96440D01*
X363882Y-96173D01*
G01X365288Y-96773D02*
Y-92773D01*
G01X367108D02*
Y-96773D01*
G01Y-94773D02*
X365288D01*
G01X370465Y-96773D02*
X368732D01*
Y-92773D01*
X370465D01*
G01X369772Y-94706D02*
X368732D01*
G01X372088Y-96240D02*
X372435Y-96573D01*
X372825Y-96773D01*
X373172D01*
X373518Y-96573D01*
X373778Y-96240D01*
X373908Y-95773D01*
X373822Y-95306D01*
X373605Y-94906D01*
X373215Y-94640D01*
X372695Y-94506D01*
X372392Y-94240D01*
X372262Y-93773D01*
X372348Y-93306D01*
X372565Y-92973D01*
X372868Y-92773D01*
X373172D01*
X373475Y-92906D01*
X373735Y-93240D01*
G01X337298Y-107773D02*
Y-111773D01*
G01X336302Y-107773D02*
X338295D01*
G01X340698Y-111773D02*
X340352Y-111706D01*
X340048Y-111440D01*
X339788Y-111040D01*
X339615Y-110573D01*
X339528Y-110040D01*
Y-109506D01*
X339615Y-108973D01*
X339788Y-108506D01*
X340048Y-108106D01*
X340352Y-107840D01*
X340698Y-107773D01*
X341045Y-107840D01*
X341348Y-108106D01*
X341608Y-108506D01*
X341782Y-108973D01*
X341868Y-109506D01*
Y-110040D01*
X341782Y-110573D01*
X341608Y-111040D01*
X341348Y-111440D01*
X341045Y-111706D01*
X340698Y-111773D01*
G01X343232Y-107773D02*
Y-111773D01*
X344965D01*
G01X348365D02*
X346632D01*
Y-107773D01*
X348365D01*
G01X347672Y-109706D02*
X346632D01*
G01X350032Y-111773D02*
Y-107773D01*
X351115D01*
X351462Y-107973D01*
X351678Y-108240D01*
X351765Y-108773D01*
X351678Y-109306D01*
X351418Y-109640D01*
X351115Y-109840D01*
X350032D01*
G01X351115D02*
X351765Y-111773D01*
G01X353215D02*
X354298Y-107773D01*
X355382Y-111773D01*
G01X354992Y-110373D02*
X353605D01*
G01X356702Y-111773D02*
Y-107773D01*
X358695Y-111773D01*
Y-107773D01*
G01X362052Y-108106D02*
X361792Y-107906D01*
X361488Y-107773D01*
X361142D01*
X360752Y-107973D01*
X360448Y-108306D01*
X360232Y-108706D01*
X360058Y-109373D01*
X360015Y-109973D01*
X360102Y-110573D01*
X360232Y-110973D01*
X360492Y-111373D01*
X360795Y-111640D01*
X361098Y-111773D01*
X361402D01*
X361705Y-111640D01*
X361965Y-111440D01*
X362182Y-111173D01*
G01X365365Y-111773D02*
X363632D01*
Y-107773D01*
X365365D01*
G01X364672Y-109706D02*
X363632D01*
G01X366988Y-111240D02*
X367335Y-111573D01*
X367725Y-111773D01*
X368072D01*
X368418Y-111573D01*
X368678Y-111240D01*
X368808Y-110773D01*
X368722Y-110306D01*
X368505Y-109906D01*
X368115Y-109640D01*
X367595Y-109506D01*
X367292Y-109240D01*
X367162Y-108773D01*
X367248Y-108306D01*
X367465Y-107973D01*
X367768Y-107773D01*
X368072D01*
X368375Y-107906D01*
X368635Y-108240D01*
G01X326145Y-77773D02*
Y-80640D01*
X326318Y-81240D01*
X326665Y-81640D01*
X327098Y-81773D01*
X327532Y-81640D01*
X327878Y-81240D01*
X328052Y-80640D01*
Y-77773D01*
G01X329502Y-81773D02*
Y-77773D01*
X331495Y-81773D01*
Y-77773D01*
G01X333032D02*
Y-81773D01*
X334765D01*
G01X338165D02*
X336432D01*
Y-77773D01*
X338165D01*
G01X337472Y-79706D02*
X336432D01*
G01X339788Y-81240D02*
X340135Y-81573D01*
X340525Y-81773D01*
X340872D01*
X341218Y-81573D01*
X341478Y-81240D01*
X341608Y-80773D01*
X341522Y-80306D01*
X341305Y-79906D01*
X340915Y-79640D01*
X340395Y-79506D01*
X340092Y-79240D01*
X339962Y-78773D01*
X340048Y-78306D01*
X340265Y-77973D01*
X340568Y-77773D01*
X340872D01*
X341175Y-77906D01*
X341435Y-78240D01*
G01X343188Y-81240D02*
X343535Y-81573D01*
X343925Y-81773D01*
X344272D01*
X344618Y-81573D01*
X344878Y-81240D01*
X345008Y-80773D01*
X344922Y-80306D01*
X344705Y-79906D01*
X344315Y-79640D01*
X343795Y-79506D01*
X343492Y-79240D01*
X343362Y-78773D01*
X343448Y-78306D01*
X343665Y-77973D01*
X343968Y-77773D01*
X344272D01*
X344575Y-77906D01*
X344835Y-78240D01*
G01X350898Y-81773D02*
X350552Y-81706D01*
X350248Y-81440D01*
X349988Y-81040D01*
X349815Y-80573D01*
X349728Y-80040D01*
Y-79506D01*
X349815Y-78973D01*
X349988Y-78506D01*
X350248Y-78106D01*
X350552Y-77840D01*
X350898Y-77773D01*
X351245Y-77840D01*
X351548Y-78106D01*
X351808Y-78506D01*
X351982Y-78973D01*
X352068Y-79506D01*
Y-80040D01*
X351982Y-80573D01*
X351808Y-81040D01*
X351548Y-81440D01*
X351245Y-81706D01*
X350898Y-81773D01*
G01X354298Y-77773D02*
Y-81773D01*
G01X353302Y-77773D02*
X355295D01*
G01X356788Y-81773D02*
Y-77773D01*
G01X358608D02*
Y-81773D01*
G01Y-79773D02*
X356788D01*
G01X361965Y-81773D02*
X360232D01*
Y-77773D01*
X361965D01*
G01X361272Y-79706D02*
X360232D01*
G01X363632Y-81773D02*
Y-77773D01*
X364715D01*
X365062Y-77973D01*
X365278Y-78240D01*
X365365Y-78773D01*
X365278Y-79306D01*
X365018Y-79640D01*
X364715Y-79840D01*
X363632D01*
G01X364715D02*
X365365Y-81773D01*
G01X366598Y-77773D02*
X367205Y-81773D01*
X367898Y-77773D01*
X368592Y-81773D01*
X369198Y-77773D01*
G01X370778D02*
X371818D01*
G01X371298D02*
Y-81773D01*
G01X370778D02*
X371818D01*
G01X373788Y-81240D02*
X374135Y-81573D01*
X374525Y-81773D01*
X374872D01*
X375218Y-81573D01*
X375478Y-81240D01*
X375608Y-80773D01*
X375522Y-80306D01*
X375305Y-79906D01*
X374915Y-79640D01*
X374395Y-79506D01*
X374092Y-79240D01*
X373962Y-78773D01*
X374048Y-78306D01*
X374265Y-77973D01*
X374568Y-77773D01*
X374872D01*
X375175Y-77906D01*
X375435Y-78240D01*
G01X378965Y-81773D02*
X377232D01*
Y-77773D01*
X378965D01*
G01X378272Y-79706D02*
X377232D01*
G01X319388Y-88740D02*
X319735Y-89073D01*
X320125Y-89273D01*
X320472D01*
X320818Y-89073D01*
X321078Y-88740D01*
X321208Y-88273D01*
X321122Y-87806D01*
X320905Y-87406D01*
X320515Y-87140D01*
X319995Y-87006D01*
X319692Y-86740D01*
X319562Y-86273D01*
X319648Y-85806D01*
X319865Y-85473D01*
X320168Y-85273D01*
X320472D01*
X320775Y-85406D01*
X321035Y-85740D01*
G01X322832Y-89273D02*
Y-85273D01*
X323872D01*
X324218Y-85473D01*
X324478Y-85940D01*
X324565Y-86473D01*
X324478Y-87006D01*
X324262Y-87406D01*
X323872Y-87606D01*
X322832D01*
G01X327965Y-89273D02*
X326232D01*
Y-85273D01*
X327965D01*
G01X327272Y-87206D02*
X326232D01*
G01X331452Y-85606D02*
X331192Y-85406D01*
X330888Y-85273D01*
X330542D01*
X330152Y-85473D01*
X329848Y-85806D01*
X329632Y-86206D01*
X329458Y-86873D01*
X329415Y-87473D01*
X329502Y-88073D01*
X329632Y-88473D01*
X329892Y-88873D01*
X330195Y-89140D01*
X330498Y-89273D01*
X330802D01*
X331105Y-89140D01*
X331365Y-88940D01*
X331582Y-88673D01*
G01X333378Y-85273D02*
X334418D01*
G01X333898D02*
Y-89273D01*
G01X333378D02*
X334418D01*
G01X336475D02*
Y-85273D01*
X338122D01*
G01X337515Y-87206D02*
X336475D01*
G01X340178Y-85273D02*
X341218D01*
G01X340698D02*
Y-89273D01*
G01X340178D02*
X341218D01*
G01X344965D02*
X343232D01*
Y-85273D01*
X344965D01*
G01X344272Y-87206D02*
X343232D01*
G01X346545Y-89273D02*
Y-85273D01*
X347412D01*
X347758Y-85473D01*
X348018Y-85740D01*
X348235Y-86140D01*
X348408Y-86606D01*
X348452Y-87273D01*
X348408Y-87940D01*
X348235Y-88406D01*
X348018Y-88806D01*
X347758Y-89073D01*
X347412Y-89273D01*
X346545D01*
G01X353345D02*
Y-85273D01*
X354212D01*
X354558Y-85473D01*
X354818Y-85740D01*
X355035Y-86140D01*
X355208Y-86606D01*
X355252Y-87273D01*
X355208Y-87940D01*
X355035Y-88406D01*
X354818Y-88806D01*
X354558Y-89073D01*
X354212Y-89273D01*
X353345D01*
G01X357178Y-85273D02*
X358218D01*
G01X357698D02*
Y-89273D01*
G01X357178D02*
X358218D01*
G01X359972D02*
Y-85273D01*
X361098Y-88606D01*
X362225Y-85273D01*
Y-89273D01*
G01X365365D02*
X363632D01*
Y-85273D01*
X365365D01*
G01X364672Y-87206D02*
X363632D01*
G01X366902Y-89273D02*
Y-85273D01*
X368895Y-89273D01*
Y-85273D01*
G01X370388Y-88740D02*
X370735Y-89073D01*
X371125Y-89273D01*
X371472D01*
X371818Y-89073D01*
X372078Y-88740D01*
X372208Y-88273D01*
X372122Y-87806D01*
X371905Y-87406D01*
X371515Y-87140D01*
X370995Y-87006D01*
X370692Y-86740D01*
X370562Y-86273D01*
X370648Y-85806D01*
X370865Y-85473D01*
X371168Y-85273D01*
X371472D01*
X371775Y-85406D01*
X372035Y-85740D01*
G01X374178Y-85273D02*
X375218D01*
G01X374698D02*
Y-89273D01*
G01X374178D02*
X375218D01*
G01X378098D02*
X377752Y-89206D01*
X377448Y-88940D01*
X377188Y-88540D01*
X377015Y-88073D01*
X376928Y-87540D01*
Y-87006D01*
X377015Y-86473D01*
X377188Y-86006D01*
X377448Y-85606D01*
X377752Y-85340D01*
X378098Y-85273D01*
X378445Y-85340D01*
X378748Y-85606D01*
X379008Y-86006D01*
X379182Y-86473D01*
X379268Y-87006D01*
Y-87540D01*
X379182Y-88073D01*
X379008Y-88540D01*
X378748Y-88940D01*
X378445Y-89206D01*
X378098Y-89273D01*
G01X380502D02*
Y-85273D01*
X382495Y-89273D01*
Y-85273D01*
G01X383988Y-88740D02*
X384335Y-89073D01*
X384725Y-89273D01*
X385072D01*
X385418Y-89073D01*
X385678Y-88740D01*
X385808Y-88273D01*
X385722Y-87806D01*
X385505Y-87406D01*
X385115Y-87140D01*
X384595Y-87006D01*
X384292Y-86740D01*
X384162Y-86273D01*
X384248Y-85806D01*
X384465Y-85473D01*
X384768Y-85273D01*
X385072D01*
X385375Y-85406D01*
X385635Y-85740D01*
G01X310000Y0D02*
Y220000D01*
G01X362215Y-120273D02*
X363298Y-116273D01*
X364382Y-120273D01*
G01X363992Y-118873D02*
X362605D01*
G01X365702Y-120273D02*
Y-116273D01*
X367695Y-120273D01*
Y-116273D01*
G01X370358Y-118273D02*
X371225D01*
Y-119473D01*
X370965Y-119873D01*
X370662Y-120140D01*
X370228Y-120273D01*
X369795Y-120140D01*
X369492Y-119873D01*
X369232Y-119473D01*
X369058Y-119006D01*
X368972Y-118473D01*
Y-118006D01*
X369058Y-117606D01*
X369232Y-117140D01*
X369492Y-116740D01*
X369752Y-116473D01*
X370098Y-116273D01*
X370402D01*
X370748Y-116406D01*
X371008Y-116673D01*
G01X372632Y-116273D02*
Y-120273D01*
X374365D01*
G01X377765D02*
X376032D01*
Y-116273D01*
X377765D01*
G01X377072Y-118206D02*
X376032D01*
G01X373945Y-125473D02*
X374205Y-125940D01*
X374552Y-126206D01*
X374942Y-126273D01*
X375288Y-126206D01*
X375635Y-125873D01*
X375852Y-125473D01*
X375895Y-125073D01*
X375808Y-124606D01*
X375505Y-124273D01*
X375202Y-124140D01*
X374812D01*
G01X375202D02*
X375462Y-123940D01*
X375678Y-123606D01*
X375765Y-123206D01*
X375678Y-122806D01*
X375462Y-122473D01*
X375072Y-122273D01*
X374682Y-122340D01*
X374292Y-122606D01*
G01X378298Y-122273D02*
X377952Y-122406D01*
X377692Y-122740D01*
X377518Y-123140D01*
X377388Y-123673D01*
X377345Y-124273D01*
X377388Y-124873D01*
X377518Y-125406D01*
X377692Y-125806D01*
X377952Y-126140D01*
X378298Y-126273D01*
X378645Y-126140D01*
X378905Y-125806D01*
X379078Y-125406D01*
X379208Y-124873D01*
X379252Y-124273D01*
X379208Y-123673D01*
X379078Y-123140D01*
X378905Y-122740D01*
X378645Y-122406D01*
X378298Y-122273D01*
G01X354972Y-132273D02*
Y-128273D01*
X356098Y-131606D01*
X357225Y-128273D01*
Y-132273D01*
G01X358415D02*
X359498Y-128273D01*
X360582Y-132273D01*
G01X360192Y-130873D02*
X358805D01*
G01X363852Y-128606D02*
X363592Y-128406D01*
X363288Y-128273D01*
X362942D01*
X362552Y-128473D01*
X362248Y-128806D01*
X362032Y-129206D01*
X361858Y-129873D01*
X361815Y-130473D01*
X361902Y-131073D01*
X362032Y-131473D01*
X362292Y-131873D01*
X362595Y-132140D01*
X362898Y-132273D01*
X363202D01*
X363505Y-132140D01*
X363765Y-131940D01*
X363982Y-131673D01*
G01X365388Y-132273D02*
Y-128273D01*
G01X367208D02*
Y-132273D01*
G01Y-130273D02*
X365388D01*
G01X372275Y-132273D02*
Y-128273D01*
X373922D01*
G01X373315Y-130206D02*
X372275D01*
G01X375978Y-128273D02*
X377018D01*
G01X376498D02*
Y-132273D01*
G01X375978D02*
X377018D01*
G01X378902D02*
Y-128273D01*
X380895Y-132273D01*
Y-128273D01*
G01X382778D02*
X383818D01*
G01X383298D02*
Y-132273D01*
G01X382778D02*
X383818D01*
G01X385788Y-131740D02*
X386135Y-132073D01*
X386525Y-132273D01*
X386872D01*
X387218Y-132073D01*
X387478Y-131740D01*
X387608Y-131273D01*
X387522Y-130806D01*
X387305Y-130406D01*
X386915Y-130140D01*
X386395Y-130006D01*
X386092Y-129740D01*
X385962Y-129273D01*
X386048Y-128806D01*
X386265Y-128473D01*
X386568Y-128273D01*
X386872D01*
X387175Y-128406D01*
X387435Y-128740D01*
G01X389188Y-132273D02*
Y-128273D01*
G01X391008D02*
Y-132273D01*
G01Y-130273D02*
X389188D01*
G01X368798Y-123573D02*
X371798D01*
G01X368798Y-125773D02*
X371798D01*
G01X370298Y-122073D02*
Y-125073D01*
G01X374098Y-133273D02*
X377098D01*
G01X375598D02*
X373298Y-137773D01*
X371798Y-135573D01*
G54D25*
X52220Y74197D03*
X54779D03*
Y67803D03*
X52220D03*
G54D16*
X24187Y84563D03*
Y86532D03*
Y88500D03*
Y90468D03*
Y92437D03*
X42813D03*
Y90468D03*
Y88500D03*
Y86532D03*
Y84563D03*
G54D34*
X150982Y66912D03*
Y64943D03*
Y62975D03*
Y61006D03*
X158672Y66912D03*
Y64943D03*
Y62975D03*
Y61006D03*
G54D43*
X128165Y128708D03*
G54D35*
X154827Y63959D03*
G54D26*
X45000Y144350D03*
Y147650D03*
X86000Y50350D03*
Y53650D03*
X85000Y76150D03*
Y72850D03*
X114445Y102553D03*
X105508Y102872D03*
X114445Y105853D03*
X86508Y108672D03*
Y105372D03*
X105508Y106172D03*
X109000Y135850D03*
Y139150D03*
X161445Y94353D03*
Y91053D03*
X156445Y94353D03*
Y91053D03*
X124500Y91850D03*
Y95150D03*
X152445Y132353D03*
Y129053D03*
X233000Y35650D03*
Y32350D03*
X251000Y144850D03*
Y148150D03*
X260500Y39650D03*
Y36350D03*
G54D17*
X32614Y62890D03*
Y69110D03*
X34386Y62890D03*
Y69110D03*
G54D44*
X123835Y128708D03*
G54D27*
X104323Y59593D03*
X100386D03*
X96449D03*
X92512D03*
X104323Y71404D03*
Y67467D03*
Y63530D03*
X92512D03*
Y67467D03*
Y71404D03*
X96449D03*
X100386D03*
G54D45*
X122208Y130335D03*
G54D36*
X158976Y136361D03*
X162913D03*
X158976Y131046D03*
X162913D03*
G54D18*
X30390Y64228D03*
Y66000D03*
Y67772D03*
X36610D03*
Y66000D03*
Y64228D03*
G54D19*
X17500Y115000D03*
X32500D03*
X14000Y210000D03*
X24000D03*
X34000D03*
X14000Y200000D03*
X24000D03*
X34000D03*
X70000Y10000D03*
X60000D03*
X47500Y115000D03*
X62500D03*
X72500Y157500D03*
X44000Y210000D03*
X54000D03*
X64000D03*
X74000D03*
X44000Y200000D03*
X54000D03*
X64000D03*
X74000D03*
X120000Y10000D03*
X110000D03*
X100000D03*
X90000D03*
X80000D03*
X82500Y157500D03*
X105000D03*
X115000D03*
X84000Y210000D03*
X94000D03*
X84000Y200000D03*
X94000D03*
X120000D03*
X150000Y10000D03*
X160000D03*
X137500Y157500D03*
X147500D03*
X130000Y200000D03*
X140000D03*
X150000D03*
X160000D03*
X170000Y10000D03*
X180000D03*
X190000D03*
X170000Y157500D03*
X180000D03*
X208500Y175500D03*
X170000Y200000D03*
X180000D03*
X249000Y10000D03*
X239000D03*
X229000D03*
X218500Y175500D03*
X249000Y200000D03*
X239000D03*
X229000D03*
X289000Y10000D03*
X279000D03*
X269000D03*
X259000D03*
X261000Y105011D03*
Y95011D03*
Y85011D03*
X291000Y70011D03*
X281000D03*
X271000D03*
X261000D03*
Y125011D03*
Y115011D03*
X291000Y150011D03*
X281000D03*
X271000D03*
X261000D03*
X279000Y200000D03*
X269000D03*
X259000D03*
G54D46*
X122208Y132500D03*
G54D37*
X160945Y134011D03*
G54D28*
X97658Y41806D03*
G54D47*
X123835Y136292D03*
G54D29*
X98051Y35703D03*
Y29207D03*
X88839D03*
Y35703D03*
Y42199D03*
G54D38*
X128942Y132500D03*
G54D48*
X122208Y134665D03*
G54D39*
X129792D03*
G54D49*
X235500Y76011D03*
M02*
