G04 ================== begin FILE IDENTIFICATION RECORD ==================*
G04 Layout Name:  D:/gerber/SENSORKIT-MULTISENSORSHIELD_BOARD_BRD_REV02_2015-09-25.brd*
G04 Film Name:    BOTTOM*
G04 File Format:  Gerber RS274X*
G04 File Origin:  Cadence Allegro 16.5-S058*
G04 Origin Date:  Fri Sep 25 14:25:55 2015*
G04 *
G04 Layer:  VIA CLASS/BOTTOM*
G04 Layer:  PIN/BOTTOM*
G04 Layer:  ETCH/BOTTOM*
G04 Layer:  DRAWING FORMAT/BOTTOM*
G04 Layer:  BOARD GEOMETRY/OUTLINE*
G04 Layer:  BOARD GEOMETRY/LOGO_M*
G04 *
G04 Offset:    (0.000 0.000)*
G04 Mirror:    No*
G04 Mode:      Positive*
G04 Rotation:  0*
G04 FullContactRelief:  No*
G04 UndefLineWidth:     5.000*
G04 ================== end FILE IDENTIFICATION RECORD ====================*
%FSLAX55Y55*MOIN*%
%IR0*IPPOS*OFA0.00000B0.00000*MIA0B0*SFA1.00000B1.00000*%
%ADD14C,.25*%
%ADD10C,.155*%
%ADD12C,.06*%
%ADD11C,.024*%
%ADD13R,.06X.06*%
%ADD15C,.005*%
%ADD16C,.006*%
%ADD17C,.007098*%
%ADD18C,.015*%
%ADD24C,.171004*%
%ADD22C,.266004*%
%ADD23R,.070004X.070004*%
%ADD21C,.070004*%
%ADD19C,.076004*%
%ADD20R,.076004X.076004*%
G75*
%LPD*%
G75*
G36*
G01X14727Y2000D02*
G02X14516Y2740I0J400D01*
G03X2740Y14516I-4516J7260D01*
G02X2000Y14727I-340J211D01*
G01Y148500D01*
X29828D01*
X33500Y152172D01*
Y191828D01*
X29828Y195500D01*
X-8000D01*
Y205273D01*
G02X-7260Y205484I400J0D01*
G03X4516Y217260I7260J4516D01*
G02X4727Y218000I211J340D01*
G01X308000D01*
Y2000D01*
X14727D01*
G37*
%LPC*%
G75*
G36*
G01X212000Y92000D02*
X207500Y87500D01*
X182500D01*
X178000Y92000D01*
Y128500D01*
X181500Y132000D01*
X195273D01*
G03X195484Y132740I0J400D01*
G02X204516I4516J7260D01*
G03X204727Y132000I211J-340D01*
G01X209000D01*
X212000Y129000D01*
Y92000D01*
G37*
G36*
G01X260894Y4550D02*
X256106D01*
X252748Y7909D01*
G03X252135Y7852I-283J-283D01*
G02X245360Y8907I-3135J2148D01*
G01X245318Y9050D01*
X245106D01*
X243463Y10693D01*
G03X242782Y10371I-283J-283D01*
G02X235654Y11801I-3782J-371D01*
G01X235724Y11932D01*
X230633Y17023D01*
G03X229950Y16740I-283J-283D01*
G01Y13682D01*
X230093Y13640D01*
G02X225562Y8381I-1093J-3640D01*
G03X224800Y8210I-362J-170D01*
G01Y6168D01*
X223332Y4700D01*
X213168D01*
X206668Y11200D01*
X196168D01*
X192668Y14700D01*
X131168D01*
X128168Y17700D01*
X92332D01*
X89064Y14432D01*
G03X89409Y13754I283J-283D01*
G02X86562Y8381I591J-3754D01*
G03X85800Y8210I-362J-170D01*
G01Y6669D01*
X83832Y4700D01*
X41168D01*
X11700Y34168D01*
Y131332D01*
X15669Y135300D01*
X28412D01*
G03X28677Y136000I0J400D01*
G02X30466Y139445I1323J1500D01*
G01X30575Y139419D01*
X37950Y146794D01*
Y181994D01*
X51506Y195550D01*
X108406D01*
X108950Y196094D01*
Y201294D01*
X119006Y211350D01*
X267494D01*
X275450Y203394D01*
Y202300D01*
G03X276173Y202064I400J0D01*
G02Y197936I2827J-2064D01*
G03X275450Y197700I-323J-236D01*
G01Y194094D01*
X276150Y193394D01*
Y156394D01*
X277494Y155050D01*
X283294D01*
X286150Y152194D01*
Y147306D01*
X282950Y144106D01*
Y134260D01*
G02X283040Y130791I-950J-1760D01*
G03X282965Y130167I208J-342D01*
G01X286299Y126833D01*
Y99333D01*
X302300Y83332D01*
Y73812D01*
X304800D01*
Y66211D01*
X302300D01*
Y36168D01*
X298332Y32200D01*
X283668D01*
X281200Y34668D01*
Y48168D01*
X265200Y64168D01*
Y73168D01*
X262168Y76200D01*
X258668D01*
X239200Y95668D01*
Y142832D01*
X240700Y144332D01*
Y161832D01*
X243669Y164800D01*
X247832D01*
X249832Y162800D01*
X253668D01*
X254200Y163332D01*
Y166168D01*
X241622Y178746D01*
G03X240949Y178553I-283J-283D01*
G02X240106Y177333I-1950J447D01*
G03Y176667I221J-333D01*
G02X237055Y175466I-1106J-1667D01*
G01X237081Y175575D01*
X235133Y177523D01*
G03X234450Y177240I-283J-283D01*
G01Y161760D01*
G02X232542Y158244I-950J-1760D01*
G03X231950Y157893I-192J-351D01*
G01Y152394D01*
X232425Y151919D01*
X232534Y151945D01*
G02X231055Y150466I466J-1945D01*
G01X231081Y150575D01*
X230050Y151606D01*
Y171700D01*
X224700D01*
Y172000D01*
X219980D01*
G02X216699Y172154I-1480J3500D01*
G01X216568Y172224D01*
X214394Y170050D01*
X206606D01*
X200756Y175900D01*
X196610D01*
G02X193527Y178350I-1760J950D01*
G03X193262Y179050I-265J300D01*
G01X188394D01*
X170950Y161606D01*
Y161182D01*
X171093Y161140D01*
G02X166698Y155619I-1093J-3640D01*
G03X165950Y155421I-348J-198D01*
G01Y142394D01*
X169950Y138394D01*
Y133695D01*
G03X170136Y133496I200J0D01*
G02X168055Y131966I-137J-1996D01*
G01X168081Y132075D01*
X168050Y132106D01*
Y134254D01*
G03X167458Y134605I-400J0D01*
G02X164555Y136827I-958J1756D01*
G01X164581Y136936D01*
X162550Y138967D01*
Y169606D01*
X160575Y171581D01*
X160466Y171555D01*
G02X161945Y173034I-466J1945D01*
G01X161919Y172925D01*
X164450Y170394D01*
Y169760D01*
G03X165133Y169477I400J0D01*
G01X168081Y172425D01*
X168055Y172534D01*
G02X169534Y171055I1945J466D01*
G01X169425Y171081D01*
X165950Y167606D01*
Y159579D01*
G03X166698Y159381I400J0D01*
G02X168907Y161140I3302J-1881D01*
G01X169050Y161182D01*
Y162394D01*
X186523Y179867D01*
G03X186240Y180550I-283J283D01*
G01X157894D01*
X149894Y172550D01*
X141760D01*
G02X140950Y171740I-1760J950D01*
G01Y168394D01*
X143950Y165394D01*
Y160279D01*
G03X144650Y160014I400J0D01*
G02Y154986I2850J-2514D01*
G03X143950Y154721I-300J-265D01*
G01Y147394D01*
X146925Y144419D01*
X147034Y144445D01*
G02X149354Y141750I466J-1945D01*
G03X149725Y141200I371J-150D01*
G01X155144D01*
X166450Y129894D01*
Y119760D01*
G02X167354Y117250I-950J-1760D01*
G03X167725Y116700I371J-150D01*
G01X168644D01*
X173450Y111894D01*
Y86394D01*
X175394Y84450D01*
X203894D01*
X235450Y52894D01*
Y51760D01*
G02X236426Y49458I-950J-1760D01*
G03X236811Y48950I385J-108D01*
G01X246362D01*
X246393Y48919D01*
X246502Y48945D01*
G02X248914Y46534I466J-1945D01*
G01X248888Y46425D01*
X249362Y45950D01*
X255396D01*
G03X256050Y46259I254J309D01*
G01Y55106D01*
X253075Y58081D01*
X252966Y58055D01*
G02X250744Y60958I-466J1945D01*
G03X250393Y61550I-351J192D01*
G01X249394D01*
X248919Y61075D01*
X248945Y60966D01*
G02X247466Y62445I-1945J-466D01*
G01X247575Y62419D01*
X248606Y63450D01*
X253894D01*
X255950Y61394D01*
Y59894D01*
X259201Y56643D01*
Y48143D01*
X279950Y27394D01*
Y13682D01*
X280093Y13640D01*
G02X277907I-1093J-3640D01*
G01X278050Y13682D01*
Y26606D01*
X259633Y45023D01*
G03X258950Y44740I-283J-283D01*
G01Y38878D01*
G02X258876Y36048I-1450J-1378D01*
G03X258868Y35475I275J-290D01*
G01X261950Y32394D01*
Y12395D01*
G02X262799Y10098I-2950J-2395D01*
G03X263482Y9825I400J10D01*
G01X264606Y10950D01*
X265318D01*
X265360Y11093D01*
G02X265539Y8430I3640J-1093D01*
G03X264892Y8548I-364J-165D01*
G01X260894Y4550D01*
G37*
G54D22*
X235500Y76011D03*
G54D21*
X289000Y10000D03*
X261000Y70011D03*
X100000Y10000D03*
X110000D03*
X44000Y200000D03*
G54D19*
X291000Y150011D03*
X180000Y157500D03*
X190000Y10000D03*
X180000D03*
X170000D03*
X160000D03*
X120000D03*
X150000D03*
X94000Y200000D03*
X84000D03*
X74000D03*
X94000Y210000D03*
X84000D03*
X74000D03*
X64000Y200000D03*
X54000D03*
X34000D03*
X24000D03*
X64000Y210000D03*
X54000D03*
X44000D03*
X34000D03*
X24000D03*
X14000Y200000D03*
Y210000D03*
G54D20*
X301000Y150011D03*
X190000Y157500D03*
X157500D03*
X140000Y10000D03*
X104000Y200000D03*
Y210000D03*
%LPD*%
G75*
G36*
G01X271500Y140500D02*
X272986Y139014D01*
X272990Y138916D01*
G03X274905Y137002I1999J84D01*
G01X275002Y136998D01*
X276587Y135413D01*
X276606Y135358D01*
G03X277858Y134106I1894J642D01*
G01X277913Y134087D01*
X280087Y131913D01*
X280106Y131858D01*
G03X281358Y130606I1894J642D01*
G01X281413Y130587D01*
X285498Y126502D01*
Y99002D01*
X301500Y83000D01*
Y73812D01*
X297200D01*
Y66211D01*
X301500D01*
Y36500D01*
X298000Y33000D01*
X284000D01*
X282000Y35000D01*
Y48500D01*
X266000Y64500D01*
Y69078D01*
G03Y70945I-1300J934D01*
G01Y73500D01*
X262500Y77000D01*
X259000D01*
X240000Y96000D01*
Y142500D01*
X241500Y144000D01*
Y161500D01*
X244000Y164000D01*
X247500D01*
X249500Y162000D01*
X254000D01*
X255000Y163000D01*
Y166500D01*
X237000Y184500D01*
X156600D01*
X149900Y177800D01*
X147760D01*
G03X144167Y177650I-1760J-950D01*
G01X144101Y177500D01*
X126000D01*
X123000Y174500D01*
Y173527D01*
G03Y173473I2000J-27D01*
G01Y171500D01*
X121000Y169500D01*
X117500D01*
X114000Y173000D01*
Y176000D01*
X112500Y177500D01*
X96500D01*
X95000Y176000D01*
X57500D01*
X52971Y171471D01*
X52876Y171465D01*
G03X52778Y167481I124J-1996D01*
G01X53000Y167456D01*
Y137500D01*
X53550Y136950D01*
Y136606D01*
X60506Y129650D01*
X68350D01*
X70000Y128000D01*
X76000D01*
X79500Y131500D01*
X84656D01*
X86050Y130106D01*
Y128394D01*
X81550Y123894D01*
Y122050D01*
X81500Y122000D01*
Y113000D01*
X85000Y109500D01*
X88473D01*
G03X88527I27J2000D01*
G01X95500D01*
X97172Y111172D01*
X97322Y111118D01*
G03X97600Y114960I679J1882D01*
G02X97000Y115450I-100J490D01*
G01Y139000D01*
X102000Y144000D01*
X110500D01*
X113178Y141322D01*
X112050Y140194D01*
Y134106D01*
X120550Y125606D01*
Y111606D01*
X124550Y107606D01*
Y92394D01*
X117550Y85394D01*
Y64106D01*
X121550Y60106D01*
Y58260D01*
G03X123450I950J-1760D01*
G01Y59999D01*
G02X124304Y60352I500J0D01*
G01X127580Y57076D01*
X127549Y56942D01*
G03X129058Y58451I1951J-442D01*
G01X128923Y58420D01*
X120950Y66394D01*
Y83606D01*
X127950Y90606D01*
Y97538D01*
G02X128760Y97930I500J0D01*
G03X131760Y98550I1240J1570D01*
G01X134394D01*
X139450Y103606D01*
Y113394D01*
X131950Y120894D01*
Y129856D01*
X137595Y135500D01*
X152853D01*
X159050Y129303D01*
Y116389D01*
X163657Y111782D01*
X167106D01*
X169050Y109839D01*
Y108661D01*
X167839Y107450D01*
X166106D01*
X162656Y104000D01*
X162500D01*
X159000Y100500D01*
Y100326D01*
X158944Y100257D01*
G03X159000Y97677I1556J-1257D01*
G01Y83500D01*
X146413Y70913D01*
X146358Y70894D01*
G03X145106Y69642I642J-1894D01*
G01X145087Y69587D01*
X143600Y68100D01*
Y66944D01*
X143550Y66894D01*
Y62606D01*
X145606Y60550D01*
X149076D01*
X166526Y78000D01*
X203656D01*
X229500Y52156D01*
Y47500D01*
X232000Y45000D01*
X232388D01*
X232589Y44800D01*
X236411D01*
X236612Y45000D01*
X237000D01*
X237500Y45500D01*
X243000D01*
X252050Y36450D01*
Y35606D01*
X255106Y32550D01*
X255950D01*
X256000Y32500D01*
X256500D01*
X257500Y31500D01*
Y18500D01*
X253500Y14500D01*
X242344D01*
X241394Y15450D01*
X237394D01*
X207594Y45250D01*
X192406D01*
X186803Y39647D01*
G02X185960Y39900I-354J354D01*
G03X183558Y41451I-1960J-400D01*
G01X183423Y41420D01*
X178394Y46450D01*
X113794D01*
X109294Y50950D01*
X81760D01*
G03X78004Y49867I-1760J-950D01*
G02X77152Y49480I-499J-33D01*
G01X76332Y50300D01*
X60168D01*
X56200Y46332D01*
Y39668D01*
X57668Y38200D01*
G02X57652Y37477I-354J-354D01*
G03X59442Y34049I1348J-1477D01*
G01X59576Y34080D01*
X62106Y31550D01*
X74894D01*
X79894Y36550D01*
X81094D01*
X89594Y45050D01*
X105106D01*
X110106Y40050D01*
X138857D01*
X146107Y32799D01*
X164857D01*
X167106Y30550D01*
X185500D01*
G02X186000Y30040I0J-500D01*
G03X187558Y31951I2000J-40D01*
G01X187424Y31920D01*
X187094Y32250D01*
X194894Y40050D01*
X204774D01*
X227412Y17412D01*
X224000Y14000D01*
Y6500D01*
X223000Y5500D01*
X221527D01*
G03X221473I-27J-2000D01*
G01X213500D01*
X207000Y12000D01*
X196500D01*
X193000Y15500D01*
X131500D01*
X128500Y18500D01*
X92000D01*
X85000Y11500D01*
Y7000D01*
X83500Y5500D01*
X81527D01*
G03X81473I-27J-2000D01*
G01X71527D01*
G03X71473I-27J-2000D01*
G01X61527D01*
G03X61473I-27J-2000D01*
G01X51527D01*
G03X51473I-27J-2000D01*
G01X41500D01*
X12500Y34500D01*
Y131000D01*
X16000Y134500D01*
X31000D01*
X32738Y136238D01*
G02X33473Y136208I354J-354D01*
G03X36951Y137942I1527J1292D01*
G01X36920Y138076D01*
X39796Y140952D01*
G02X40650Y140599I354J-354D01*
G01Y139310D01*
G03X42550Y139202I850J-1811D01*
G01Y180088D01*
X53412Y190950D01*
X110312D01*
X113550Y194188D01*
Y199388D01*
X115449Y201286D01*
G02X116290Y200824I354J-354D01*
G03X119176Y203710I3710J-825D01*
G02X118714Y204551I-108J488D01*
G01X120912Y206750D01*
X257406D01*
X259505Y204651D01*
G02X259134Y203798I-354J-354D01*
G03X262486Y198487I-134J-3798D01*
G01X262505Y198530D01*
X262715Y198741D01*
X263000Y198456D01*
Y198100D01*
X271500Y189600D01*
Y154312D01*
G02X271000Y153812I-500J0D01*
G03Y146211I0J-3800D01*
G02X271500Y145711I0J-500D01*
G01Y140500D01*
G37*
G36*
G01X77500Y38000D02*
X73000Y33500D01*
X63500D01*
X61002Y35998D01*
X60999Y36077D01*
G03X59077Y37999I-1999J-77D01*
G01X58998Y38002D01*
X57000Y40000D01*
Y46000D01*
X60500Y49500D01*
X76000D01*
X77500Y48000D01*
Y38000D01*
G37*
G36*
G01X92254Y111450D02*
X91950Y111754D01*
Y112914D01*
X89684Y115180D01*
X86574D01*
X84950Y116804D01*
Y122706D01*
X89350Y127106D01*
Y131894D01*
X86294Y134950D01*
X77606D01*
X75665Y133009D01*
G02X74985Y133243I-283J283D01*
G03X71364Y134150I-1985J-243D01*
G01X62394D01*
X58150Y138394D01*
Y153600D01*
G02X58542Y154000I400J0D01*
G03X57458Y157708I-42J2000D01*
G02X56850Y158049I-208J342D01*
G01Y159506D01*
X57393Y160050D01*
X57502Y160023D01*
G03X56023Y161502I466J1945D01*
G01X56050Y161393D01*
X55792Y161135D01*
G02X55450Y161277I-141J141D01*
G01Y168362D01*
X54919Y168893D01*
X54945Y169002D01*
G03X54268Y171015I-1945J466D01*
G02X54239Y171607I254J309D01*
G01X57832Y175200D01*
X85482D01*
G02X85818Y174583I0J-400D01*
G03X86550Y171740I1682J-1083D01*
G01Y159579D01*
G02X85802Y159381I-400J0D01*
G03Y155619I-3302J-1881D01*
G02X86550Y155421I348J-198D01*
G01Y151894D01*
X79075Y144419D01*
X78966Y144445D01*
G03X76744Y141542I-466J-1945D01*
G02X76393Y140950I-351J-192D01*
G01X71394D01*
X70919Y141425D01*
X70945Y141534D01*
G03X69466Y140055I-1945J466D01*
G01X69575Y140081D01*
X69765Y139892D01*
G02X69623Y139550I-141J-141D01*
G01X67860D01*
G03Y137650I-1760J-950D01*
G01X88694D01*
X101594Y150550D01*
X105494D01*
X110850Y155906D01*
Y157067D01*
X111221D01*
X111248Y156899D01*
G03X118212Y155469I3752J601D01*
G02X118950Y155255I338J-214D01*
G01Y147094D01*
X113744Y141888D01*
X110832Y144800D01*
X101668D01*
X96200Y139332D01*
Y114044D01*
X95050Y112894D01*
Y111894D01*
X94606Y111450D01*
X92254D01*
G37*
G36*
G01X80607Y140950D02*
G02X80256Y141542I0J400D01*
G03X80445Y142966I-1756J958D01*
G01X80419Y143075D01*
X88450Y151106D01*
Y153700D01*
X96300D01*
Y161300D01*
X88450D01*
Y171740D01*
G03X89182Y174583I-950J1760D01*
G02X89518Y175200I336J217D01*
G01X92982D01*
G02X93318Y174583I0J-400D01*
G03X96945Y173966I1682J-1083D01*
G01X96919Y174075D01*
X98394Y175550D01*
X100757D01*
G02X101047Y174875I0J-400D01*
G03X102966Y171555I1453J-1375D01*
G01X103075Y171581D01*
X107356Y167300D01*
X109126D01*
G02X109439Y166650I0J-400D01*
G03X109055Y164934I1561J-1250D01*
G01X109081Y164825D01*
X108950Y164694D01*
Y159745D01*
G02X108212Y159531I-400J0D01*
G03X101654Y155699I-3212J-2031D01*
G01X101724Y155568D01*
X87106Y140950D01*
X80607D01*
G37*
%LPC*%
G75*
G36*
G01X54300Y69332D02*
Y64668D01*
X46332Y56700D01*
X32168D01*
X23200Y65668D01*
Y71832D01*
X24668Y73300D01*
X50331D01*
X54300Y69332D01*
G37*
G36*
G01X94519Y98049D02*
X94384Y98080D01*
X92354Y96050D01*
X82760D01*
G02Y97950I-1760J950D01*
G01X91567D01*
X93040Y99424D01*
X93010Y99558D01*
G02X94519Y98049I1951J442D01*
G37*
G36*
G01X69500Y78540D02*
G03X69000Y79050I-500J10D01*
G01X40106D01*
X34550Y84606D01*
Y87894D01*
X36080Y89424D01*
X36049Y89558D01*
G02X39760Y90950I1951J442D01*
G01X51106D01*
X56580Y96424D01*
X56549Y96558D01*
G02X60300Y97872I1951J442D01*
G03X61200I450J218D01*
G02X64967Y97364I1800J-872D01*
G01X64981Y97288D01*
X65213Y97056D01*
X65535Y97378D01*
X65551Y97448D01*
G02X66268Y95424I1949J-448D01*
G01X56894Y86050D01*
X49894D01*
X48920Y85076D01*
X48951Y84942D01*
G02X48570Y83260I-1951J-442D01*
G03X48962Y82450I392J-310D01*
G01X68106D01*
X69580Y83924D01*
X69549Y84058D01*
G02X71058Y82549I1951J442D01*
G01X70924Y82580D01*
X69721Y81377D01*
G03X69898Y80950I177J-177D01*
G01X70394D01*
X70924Y80420D01*
X71058Y80451D01*
G02X69500Y78540I442J-1951D01*
G37*
G36*
G01X64966Y148445D02*
X65075Y148419D01*
X66550Y149893D01*
Y152893D01*
X69224Y155568D01*
X69154Y155699D01*
G02X70699Y154154I3346J1801D01*
G01X70568Y154224D01*
X68450Y152106D01*
Y149106D01*
X66419Y147075D01*
X66445Y146966D01*
G02X64966Y148445I-1945J-466D01*
G37*
G54D24*
X200000Y30000D03*
G54D23*
X17500Y125000D03*
X32500D03*
X47500D03*
X62500D03*
X219000Y10000D03*
Y200000D03*
G54D21*
X80000Y10000D03*
X261000Y95011D03*
Y85011D03*
Y150011D03*
G54D19*
X17500Y115000D03*
X60000Y10000D03*
X32500Y115000D03*
X47500D03*
X62500D03*
X70000Y10000D03*
X130000Y200000D03*
X140000D03*
X150000D03*
X160000D03*
X170000D03*
X180000D03*
X239000D03*
X229000D03*
X281000Y70011D03*
X271000D03*
X261000Y125011D03*
Y115011D03*
Y105011D03*
X249000Y200000D03*
X291000Y70011D03*
G54D20*
X50000Y10000D03*
X190000Y200000D03*
X261000Y135011D03*
%LPD*%
G75*
G36*
G01X24000Y66000D02*
Y71500D01*
X25000Y72500D01*
X50000D01*
X53500Y69000D01*
Y65000D01*
X46000Y57500D01*
X32500D01*
X24000Y66000D01*
G37*
G54D10*
X10000Y10000D03*
X0Y210000D03*
X200000Y30000D03*
Y140000D03*
G54D11*
X21500Y3500D03*
X3500Y52000D03*
Y42000D03*
Y32000D03*
Y22000D03*
X10297Y30500D03*
X14500Y49217D03*
X3500Y102000D03*
Y92000D03*
Y82000D03*
Y72000D03*
Y62000D03*
X26000Y70000D03*
X23500Y147000D03*
X13500D03*
X3500Y142000D03*
Y132000D03*
Y122000D03*
Y112000D03*
X30000Y137500D03*
X-4000Y197000D03*
X6000D03*
X32500Y216500D03*
X22500D03*
X12500D03*
X34000Y3500D03*
X41500D03*
X51500D03*
X61500D03*
X71500D03*
X64500Y48100D03*
X71500Y35500D03*
Y41000D03*
X59000Y45500D03*
X55850Y30000D03*
X48500Y46000D03*
X47850Y29850D03*
X59000Y36000D03*
X34484Y60016D03*
X71500Y78500D03*
X58500Y97000D03*
X38000Y90000D03*
X71500Y84500D03*
X63000Y97000D03*
X38000Y86000D03*
X53500Y77000D03*
X60500Y84500D03*
X34000Y100000D03*
X39968Y64032D03*
X51500Y65000D03*
X67500Y97000D03*
X47000Y84500D03*
X59500Y146500D03*
X73500Y145000D03*
X64500Y146500D03*
X69000Y142000D03*
X73000Y133000D03*
X35000Y137500D03*
X41500D03*
X66100Y138600D03*
X53000Y169468D03*
X42000Y191000D03*
X57000Y167000D03*
X59500Y151000D03*
X57500Y171500D03*
X76500Y167000D03*
Y172000D03*
X69000Y167000D03*
Y171500D03*
X35000Y185000D03*
Y175000D03*
Y165000D03*
Y155000D03*
X57968Y161968D03*
X48032Y168032D03*
X47000Y151000D03*
X51500D03*
X58500Y156000D03*
X72500Y216500D03*
X62500D03*
X52500D03*
X42500D03*
X81500Y3500D03*
X91500D03*
X101500D03*
X111500D03*
X80000Y40000D03*
Y45000D03*
X104323Y56177D03*
X104500Y41806D03*
X92512Y56012D03*
X80000Y50000D03*
X120575Y97925D03*
X101500Y102000D03*
X90000Y104000D03*
X81000Y97000D03*
X94961Y100000D03*
X88500Y111500D03*
X93500Y113000D03*
X90000Y134500D03*
X87040Y121850D03*
Y116850D03*
X86500Y142500D03*
X116750Y137750D03*
X98000Y113000D03*
X105500Y141000D03*
X84000Y129500D03*
X101500Y109500D03*
X119172Y109172D03*
X113500Y109500D03*
X78500Y142500D03*
X113500Y151500D03*
X102500Y167000D03*
X95000D03*
X117500Y173500D03*
X110000D03*
X95000D03*
X102500D03*
X87500D03*
X111000Y165400D03*
X112000Y209000D03*
X112500Y216500D03*
X102500D03*
X92500D03*
X82500D03*
X121500Y3500D03*
X131500D03*
X141500D03*
X151500D03*
X161500D03*
X160000Y39500D03*
X121478Y29022D03*
X150000Y39500D03*
X129500Y56500D03*
X144500Y39500D03*
X122500Y56500D03*
X147000Y64500D03*
X136000Y105000D03*
X147000Y69000D03*
X160500Y99000D03*
X130000Y99500D03*
X152000Y101000D03*
X153353Y94353D03*
X123295Y72295D03*
X163000Y64500D03*
X138500Y67892D03*
X147500Y142500D03*
X123000Y140000D03*
X151500Y110500D03*
X157500Y128476D03*
X133500Y129000D03*
X144500Y134000D03*
X131000Y140000D03*
X129500Y115500D03*
X165500Y118000D03*
X140000Y173500D03*
X160000D03*
X146000Y176850D03*
X165500Y176500D03*
X144000Y170500D03*
X161000Y150500D03*
X150500D03*
X125000Y173500D03*
X132500D03*
X162500Y216500D03*
X152500D03*
X142500D03*
X132500D03*
X122500D03*
X171500Y3500D03*
X181500D03*
X191500D03*
X201500D03*
X177000Y39500D03*
X175500Y55000D03*
X170000Y39500D03*
X184000D03*
X188000Y30000D03*
X167000Y103500D03*
X175000Y91000D03*
X177500Y86000D03*
X166500Y136361D03*
X180000Y149500D03*
X173000Y125000D03*
X177500Y142500D03*
X173000Y117000D03*
X172500Y142500D03*
X167300Y109600D03*
X170000Y131500D03*
X183500Y179000D03*
X175000Y172500D03*
X202000Y170500D03*
X192500D03*
X183500D03*
X170000Y173000D03*
X194850Y176850D03*
X202500Y216500D03*
X192500D03*
X182500D03*
X172500D03*
X211500Y3500D03*
X221500D03*
X231500D03*
X241500D03*
X251500D03*
X246968Y47000D03*
X240000Y50500D03*
X252500Y47500D03*
X240000Y60000D03*
X240300Y44500D03*
X235500Y29500D03*
X242500D03*
X248500D03*
X247000Y60500D03*
X234500Y50000D03*
X252500Y60000D03*
X220000Y90000D03*
Y100000D03*
X230000D03*
X212500Y85000D03*
X220000Y130000D03*
X230000D03*
Y140000D03*
X220000D03*
Y120000D03*
Y110000D03*
X230000Y120000D03*
Y110000D03*
X239000Y175000D03*
Y179000D03*
X252500Y164500D03*
X227000Y150000D03*
X225500Y164500D03*
X210000Y150000D03*
X225500Y157000D03*
X220000Y150000D03*
X240500Y167500D03*
X247500Y170000D03*
X243032Y152032D03*
X244000Y162000D03*
X251000Y152000D03*
X233000Y150000D03*
X233500Y160000D03*
X252500Y216500D03*
X242500D03*
X232500D03*
X222500D03*
X212500D03*
X262500Y3500D03*
X276500D03*
X286500D03*
X296500D03*
X277500Y43500D03*
X268500Y44000D03*
X254000Y42500D03*
X286500Y36000D03*
X291500D03*
X286500Y46000D03*
Y41000D03*
X254500Y29500D03*
X291500Y41000D03*
X257500Y37500D03*
X259000Y63000D03*
X278500Y136000D03*
X282000Y132500D03*
X274989Y139000D03*
X278000Y169000D03*
X292500Y216500D03*
X282500D03*
X272500D03*
X262500D03*
X306500Y8000D03*
Y18000D03*
Y28000D03*
Y38000D03*
Y48000D03*
X298945Y41055D03*
X306500Y63000D03*
Y83000D03*
Y93000D03*
Y103000D03*
Y113000D03*
Y123000D03*
Y133000D03*
Y143000D03*
Y158000D03*
Y168000D03*
Y178000D03*
Y188000D03*
Y198000D03*
Y208000D03*
X302500Y216500D03*
G54D12*
X17500Y115000D03*
X32500D03*
X14000Y210000D03*
X24000D03*
X34000D03*
X14000Y200000D03*
X24000D03*
X34000D03*
X70000Y10000D03*
X60000D03*
X47500Y115000D03*
X62500D03*
X72500Y157500D03*
X44000Y210000D03*
X54000D03*
X64000D03*
X74000D03*
X44000Y200000D03*
X54000D03*
X64000D03*
X74000D03*
X120000Y10000D03*
X110000D03*
X100000D03*
X90000D03*
X80000D03*
X82500Y157500D03*
X105000D03*
X115000D03*
X84000Y210000D03*
X94000D03*
X84000Y200000D03*
X94000D03*
X120000D03*
X150000Y10000D03*
X160000D03*
X137500Y157500D03*
X147500D03*
X130000Y200000D03*
X140000D03*
X150000D03*
X160000D03*
X170000Y10000D03*
X180000D03*
X190000D03*
X170000Y157500D03*
X180000D03*
X208500Y175500D03*
X170000Y200000D03*
X180000D03*
X249000Y10000D03*
X239000D03*
X229000D03*
X218500Y175500D03*
X249000Y200000D03*
X239000D03*
X229000D03*
X289000Y10000D03*
X279000D03*
X269000D03*
X259000D03*
X261000Y105011D03*
Y95011D03*
Y85011D03*
X291000Y70011D03*
X281000D03*
X271000D03*
X261000D03*
Y125011D03*
Y115011D03*
X291000Y150011D03*
X281000D03*
X271000D03*
X261000D03*
X279000Y200000D03*
X269000D03*
X259000D03*
G54D13*
X17500Y125000D03*
X32500D03*
X50000Y10000D03*
X47500Y125000D03*
X62500D03*
X92500Y157500D03*
X104000Y210000D03*
Y200000D03*
X140000Y10000D03*
X125000Y157500D03*
X157500D03*
X190000D03*
Y200000D03*
X219000Y10000D03*
X228500Y175500D03*
X219000Y200000D03*
X261000Y135011D03*
X301000Y70011D03*
Y150011D03*
G54D14*
X235500Y76011D03*
G54D15*
G01X282000Y132500D02*
Y144500D01*
X285200Y147700D01*
Y151800D01*
X282900Y154100D01*
X277100D01*
X275200Y156000D01*
Y193000D01*
X274500Y193700D01*
Y203000D01*
X267100Y210400D01*
X119400D01*
X109900Y200900D01*
Y195700D01*
X108800Y194600D01*
X51900D01*
X38900Y181600D01*
Y146400D01*
X30000Y137500D01*
G01X59000Y36000D02*
X62500Y32500D01*
X74500D01*
X79500Y37500D01*
X80700D01*
X89200Y46000D01*
X105500D01*
X110500Y41000D01*
X139250D01*
X146501Y33750D01*
X165250D01*
X167500Y31500D01*
X186500D01*
X188000Y30000D01*
G01X71500Y78500D02*
X70000Y80000D01*
X40500D01*
X35500Y85000D01*
Y87500D01*
X38000Y90000D01*
G01X58500Y97000D02*
X51500Y90000D01*
X38000D01*
G01X71500Y84500D02*
X68500Y81500D01*
X42500D01*
X38000Y86000D01*
G01D02*
X40500Y88500D01*
X54500D01*
X63000Y97000D01*
G01X67500D02*
X66500D01*
X56500Y87000D01*
X49500D01*
X47000Y84500D01*
G01X53000Y169468D02*
X54500Y167968D01*
Y137000D01*
X60900Y130600D01*
X68900D01*
X70500Y129000D01*
X75000D01*
X78500Y132500D01*
X85000D01*
X87000Y130500D01*
Y128000D01*
X82500Y123500D01*
Y115860D01*
X85860Y112500D01*
X87500D01*
X88500Y111500D01*
G01X57968Y161968D02*
X55900Y159900D01*
Y137400D01*
X61400Y131900D01*
X70100D01*
X71500Y130500D01*
X74500D01*
X78000Y134000D01*
X85900D01*
X88400Y131500D01*
Y127500D01*
X84000Y123100D01*
Y116410D01*
X86180Y114230D01*
X89290D01*
X91000Y112520D01*
Y111360D01*
X91860Y110500D01*
X95000D01*
X96000Y111500D01*
Y112500D01*
X96500Y113000D01*
X98000D01*
G01X72500Y157500D02*
X67500Y152500D01*
Y149500D01*
X64500Y146500D01*
G01X105000Y157500D02*
X87500Y140000D01*
X71000D01*
X69000Y142000D01*
G01X73000Y133000D02*
X72800Y133200D01*
X62000D01*
X57200Y138000D01*
Y154700D01*
X58500Y156000D01*
G01X35000Y137500D02*
X40200Y142700D01*
Y181062D01*
X52438Y193300D01*
X109338D01*
X111200Y195162D01*
Y200362D01*
X119938Y209100D01*
X266400D01*
X273200Y202300D01*
Y192900D01*
X273900Y192200D01*
Y155500D01*
X276500Y152900D01*
Y141000D01*
X278500Y139000D01*
Y136000D01*
G01X41500Y137500D02*
X41600Y137600D01*
Y180482D01*
X53018Y191900D01*
X109918D01*
X112600Y194582D01*
Y199782D01*
X120518Y207700D01*
X257800D01*
X263400Y202100D01*
Y199400D01*
X272500Y190300D01*
Y155000D01*
X275100Y152400D01*
Y139111D01*
X274989Y139000D01*
G01X111000Y165400D02*
X109900Y164300D01*
Y156300D01*
X105100Y151500D01*
X101200D01*
X88300Y138600D01*
X66100D01*
G01X80000Y40000D02*
X87300Y47300D01*
X106700D01*
X111500Y42500D01*
X157000D01*
X160000Y39500D01*
G01X80000Y45000D02*
X83600Y48600D01*
X107800D01*
X112400Y44000D01*
X172500D01*
X177000Y39500D01*
G01X80000Y50000D02*
X108900D01*
X113400Y45500D01*
X178000D01*
X184000Y39500D01*
G01X129500Y56500D02*
X120000Y66000D01*
Y84000D01*
X127000Y91000D01*
Y109500D01*
X123000Y113500D01*
Y128000D01*
X114500Y136500D01*
Y139300D01*
X118100Y142900D01*
X125800D01*
X129600Y146700D01*
Y162000D01*
X124950Y166650D01*
X116850D01*
X110000Y173500D01*
G01X81000Y97000D02*
X91961D01*
X94961Y100000D01*
G01X122500Y56500D02*
Y60500D01*
X118500Y64500D01*
Y85000D01*
X125500Y92000D01*
Y108000D01*
X121500Y112000D01*
Y126000D01*
X113000Y134500D01*
Y139800D01*
X119900Y146700D01*
Y160200D01*
X111850Y168250D01*
X107750D01*
X102500Y173500D01*
G01X130000Y99500D02*
Y109000D01*
X125000Y114000D01*
Y129500D01*
X116750Y137750D01*
G01X78500Y142500D02*
X87500Y151500D01*
Y173500D01*
G01X129500Y115500D02*
X128000Y117000D01*
Y143000D01*
X131400Y146400D01*
Y162100D01*
X125400Y168100D01*
X117400D01*
X113000Y172500D01*
Y174500D01*
X111000Y176500D01*
X98000D01*
X95000Y173500D01*
G01X239000Y10000D02*
X206400Y42600D01*
X193600D01*
X186000Y35000D01*
X170000D01*
X168000Y37000D01*
X152500D01*
X150000Y39500D01*
G01X144500D02*
X148750Y35250D01*
X166750D01*
X169000Y33000D01*
X186500D01*
X194500Y41000D01*
X205168D01*
X229000Y17168D01*
Y10000D01*
G01X246968Y47000D02*
X245968Y48000D01*
X236500D01*
X235500Y47000D01*
X233500D01*
X232000Y48500D01*
Y53000D01*
X203500Y81500D01*
X166500D01*
X149500Y64500D01*
X147000D01*
G01X167000Y103500D02*
Y85818D01*
X147000Y65818D01*
Y64500D01*
G01X254000Y42500D02*
X248286D01*
X244036Y46750D01*
X237018D01*
X236018Y45750D01*
X232982D01*
X230500Y48232D01*
Y52500D01*
X203500Y79500D01*
X166682D01*
X148682Y61500D01*
X146000D01*
X144500Y63000D01*
Y66500D01*
X147000Y69000D01*
G01X160500Y99000D02*
Y100500D01*
X166500Y106500D01*
X168232D01*
X170000Y108268D01*
Y110232D01*
X167500Y112732D01*
X164050D01*
X160000Y116782D01*
Y129697D01*
X153197Y136500D01*
X137251D01*
X131000Y130249D01*
Y120500D01*
X138500Y113000D01*
Y104000D01*
X134000Y99500D01*
X130000D01*
G01X147000Y69000D02*
X160500Y82500D01*
Y99000D01*
G01X147500Y142500D02*
X143000Y147000D01*
Y165000D01*
X140000Y168000D01*
Y173500D01*
G01X166500Y136361D02*
X163500Y139361D01*
Y170000D01*
X160000Y173500D01*
G01X167000Y103500D02*
X171250Y107750D01*
Y110750D01*
X167500Y114500D01*
X164050D01*
X161500Y117050D01*
Y129964D01*
X153714Y137750D01*
X136250D01*
X129500Y131000D01*
Y120000D01*
X136000Y113500D01*
Y105000D01*
G01D02*
X126500Y114500D01*
Y136500D01*
X123000Y140000D01*
G01X131000D02*
X133000Y142000D01*
Y165500D01*
X125000Y173500D01*
G01X165500Y118000D02*
Y129500D01*
X154750Y140250D01*
X146350D01*
X141600Y145000D01*
Y164400D01*
X132500Y173500D01*
G01X234500Y50000D02*
Y52500D01*
X203500Y83500D01*
X175000D01*
X172500Y86000D01*
Y111500D01*
X168250Y115750D01*
X164568D01*
X163000Y117318D01*
Y130232D01*
X154232Y139000D01*
X145300D01*
X137500Y146800D01*
Y157500D01*
G01X239000Y175000D02*
X232500Y181500D01*
X157500D01*
X149500Y173500D01*
X140000D01*
G01X239000Y179000D02*
X234500Y183500D01*
X157000D01*
X150350Y176850D01*
X146000D01*
G01X249000Y10000D02*
X245500D01*
X241000Y14500D01*
X237000D01*
X207200Y44300D01*
X192800D01*
X185500Y37000D01*
X172500D01*
X170000Y39500D01*
G01Y131500D02*
X169000Y132500D01*
Y138000D01*
X165000Y142000D01*
Y168000D01*
X170000Y173000D01*
G01X233500Y160000D02*
Y178500D01*
X232000Y180000D01*
X188000D01*
X170000Y162000D01*
Y157500D01*
G01X194850Y176850D02*
X201150D01*
X207000Y171000D01*
X214000D01*
X218500Y175500D01*
G01X259000Y10000D02*
X261000Y12000D01*
Y32000D01*
X258000Y35000D01*
X256000D01*
X254500Y36500D01*
Y38500D01*
X256500Y40500D01*
Y43500D01*
X255000Y45000D01*
X248969D01*
X246968Y47000D01*
G01X247000Y60500D02*
X249000Y62500D01*
X253500D01*
X255000Y61000D01*
Y59500D01*
X258251Y56250D01*
Y47750D01*
X279000Y27000D01*
Y10000D01*
G01X233000Y150000D02*
X231000Y152000D01*
Y173000D01*
X228500Y175500D01*
G01X254000Y42500D02*
Y40500D01*
X253000Y39500D01*
Y36000D01*
X255500Y33500D01*
X257500D01*
X259000Y32000D01*
Y18000D01*
X253500Y12500D01*
Y8500D01*
X256500Y5500D01*
X260500D01*
X265000Y10000D01*
X269000D01*
G01X257500Y37500D02*
X258000Y38000D01*
Y45000D01*
X257000Y46000D01*
Y55500D01*
X252500Y60000D01*
G01X-113775Y-132273D02*
Y-128273D01*
X-114902Y-131606D01*
X-116028Y-128273D01*
Y-132273D01*
G01X-117218D02*
X-118302Y-128273D01*
X-119385Y-132273D01*
G01X-118995Y-130873D02*
X-117608D01*
G01X-122655Y-128606D02*
X-122395Y-128406D01*
X-122092Y-128273D01*
X-121745D01*
X-121355Y-128473D01*
X-121052Y-128806D01*
X-120835Y-129206D01*
X-120662Y-129873D01*
X-120618Y-130473D01*
X-120705Y-131073D01*
X-120835Y-131473D01*
X-121095Y-131873D01*
X-121398Y-132140D01*
X-121702Y-132273D01*
X-122005D01*
X-122308Y-132140D01*
X-122568Y-131940D01*
X-122785Y-131673D01*
G01X-124192Y-132273D02*
Y-128273D01*
G01X-126012D02*
Y-132273D01*
G01Y-130273D02*
X-124192D01*
G01X-131078Y-132273D02*
Y-128273D01*
X-132725D01*
G01X-132118Y-130206D02*
X-131078D01*
G01X-134782Y-128273D02*
X-135822D01*
G01X-135302D02*
Y-132273D01*
G01X-134782D02*
X-135822D01*
G01X-137705D02*
Y-128273D01*
X-139698Y-132273D01*
Y-128273D01*
G01X-141582D02*
X-142622D01*
G01X-142102D02*
Y-132273D01*
G01X-141582D02*
X-142622D01*
G01X-144592Y-131740D02*
X-144938Y-132073D01*
X-145328Y-132273D01*
X-145675D01*
X-146022Y-132073D01*
X-146282Y-131740D01*
X-146412Y-131273D01*
X-146325Y-130806D01*
X-146108Y-130406D01*
X-145718Y-130140D01*
X-145198Y-130006D01*
X-144895Y-129740D01*
X-144765Y-129273D01*
X-144852Y-128806D01*
X-145068Y-128473D01*
X-145372Y-128273D01*
X-145675D01*
X-145978Y-128406D01*
X-146238Y-128740D01*
G01X-147992Y-132273D02*
Y-128273D01*
G01X-149812D02*
Y-132273D01*
G01Y-130273D02*
X-147992D01*
G01X393098Y-144273D02*
Y-69273D01*
X-151902D01*
Y-144273D01*
X393098D01*
G01X-132748Y-125473D02*
X-133008Y-125940D01*
X-133355Y-126206D01*
X-133745Y-126273D01*
X-134092Y-126206D01*
X-134438Y-125873D01*
X-134655Y-125473D01*
X-134698Y-125073D01*
X-134612Y-124606D01*
X-134308Y-124273D01*
X-134005Y-124140D01*
X-133615D01*
G01X-134005D02*
X-134265Y-123940D01*
X-134482Y-123606D01*
X-134568Y-123206D01*
X-134482Y-122806D01*
X-134265Y-122473D01*
X-133875Y-122273D01*
X-133485Y-122340D01*
X-133095Y-122606D01*
G01X-137102Y-122273D02*
X-136755Y-122406D01*
X-136495Y-122740D01*
X-136322Y-123140D01*
X-136192Y-123673D01*
X-136148Y-124273D01*
X-136192Y-124873D01*
X-136322Y-125406D01*
X-136495Y-125806D01*
X-136755Y-126140D01*
X-137102Y-126273D01*
X-137448Y-126140D01*
X-137708Y-125806D01*
X-137882Y-125406D01*
X-138012Y-124873D01*
X-138055Y-124273D01*
X-138012Y-123673D01*
X-137882Y-123140D01*
X-137708Y-122740D01*
X-137448Y-122406D01*
X-137102Y-122273D01*
G01X-121018Y-120273D02*
X-122102Y-116273D01*
X-123185Y-120273D01*
G01X-122795Y-118873D02*
X-121408D01*
G01X-124505Y-120273D02*
Y-116273D01*
X-126498Y-120273D01*
Y-116273D01*
G01X-129162Y-118273D02*
X-130028D01*
Y-119473D01*
X-129768Y-119873D01*
X-129465Y-120140D01*
X-129032Y-120273D01*
X-128598Y-120140D01*
X-128295Y-119873D01*
X-128035Y-119473D01*
X-127862Y-119006D01*
X-127775Y-118473D01*
Y-118006D01*
X-127862Y-117606D01*
X-128035Y-117140D01*
X-128295Y-116740D01*
X-128555Y-116473D01*
X-128902Y-116273D01*
X-129205D01*
X-129552Y-116406D01*
X-129812Y-116673D01*
G01X-131435Y-116273D02*
Y-120273D01*
X-133168D01*
G01X-136568D02*
X-134835D01*
Y-116273D01*
X-136568D01*
G01X-135875Y-118206D02*
X-134835D01*
G01X-96202Y-137906D02*
X-96115Y-137840D01*
Y-137706D01*
X-96202Y-137640D01*
X-96288Y-137706D01*
Y-137840D01*
X-96202Y-137906D01*
G01X-99602Y-133773D02*
X-99255Y-133906D01*
X-98995Y-134240D01*
X-98822Y-134640D01*
X-98692Y-135173D01*
X-98648Y-135773D01*
X-98692Y-136373D01*
X-98822Y-136906D01*
X-98995Y-137306D01*
X-99255Y-137640D01*
X-99602Y-137773D01*
X-99948Y-137640D01*
X-100208Y-137306D01*
X-100382Y-136906D01*
X-100512Y-136373D01*
X-100555Y-135773D01*
X-100512Y-135173D01*
X-100382Y-134640D01*
X-100208Y-134240D01*
X-99948Y-133906D01*
X-99602Y-133773D01*
G01X-103002Y-137773D02*
Y-133773D01*
X-102482Y-134573D01*
G01Y-137773D02*
X-103522D01*
G01X-106402Y-133773D02*
X-106055Y-133906D01*
X-105795Y-134240D01*
X-105622Y-134640D01*
X-105492Y-135173D01*
X-105448Y-135773D01*
X-105492Y-136373D01*
X-105622Y-136906D01*
X-105795Y-137306D01*
X-106055Y-137640D01*
X-106402Y-137773D01*
X-106748Y-137640D01*
X-107008Y-137306D01*
X-107182Y-136906D01*
X-107312Y-136373D01*
X-107355Y-135773D01*
X-107312Y-135173D01*
X-107182Y-134640D01*
X-107008Y-134240D01*
X-106748Y-133906D01*
X-106402Y-133773D01*
G01X-96202Y-131906D02*
X-96115Y-131840D01*
Y-131706D01*
X-96202Y-131640D01*
X-96288Y-131706D01*
Y-131840D01*
X-96202Y-131906D01*
G01X-99602Y-127773D02*
X-99255Y-127906D01*
X-98995Y-128240D01*
X-98822Y-128640D01*
X-98692Y-129173D01*
X-98648Y-129773D01*
X-98692Y-130373D01*
X-98822Y-130906D01*
X-98995Y-131306D01*
X-99255Y-131640D01*
X-99602Y-131773D01*
X-99948Y-131640D01*
X-100208Y-131306D01*
X-100382Y-130906D01*
X-100512Y-130373D01*
X-100555Y-129773D01*
X-100512Y-129173D01*
X-100382Y-128640D01*
X-100208Y-128240D01*
X-99948Y-127906D01*
X-99602Y-127773D01*
G01X-102048Y-130973D02*
X-102308Y-131440D01*
X-102655Y-131706D01*
X-103045Y-131773D01*
X-103392Y-131706D01*
X-103738Y-131373D01*
X-103955Y-130973D01*
X-103998Y-130573D01*
X-103912Y-130106D01*
X-103608Y-129773D01*
X-103305Y-129640D01*
X-102915D01*
G01X-103305D02*
X-103565Y-129440D01*
X-103782Y-129106D01*
X-103868Y-128706D01*
X-103782Y-128306D01*
X-103565Y-127973D01*
X-103175Y-127773D01*
X-102785Y-127840D01*
X-102395Y-128106D01*
G01X-96202Y-125906D02*
X-96115Y-125840D01*
Y-125706D01*
X-96202Y-125640D01*
X-96288Y-125706D01*
Y-125840D01*
X-96202Y-125906D01*
G01X-99602Y-125773D02*
Y-121773D01*
X-99082Y-122573D01*
G01Y-125773D02*
X-100122D01*
G01X-81248Y-120273D02*
Y-116273D01*
X-82115D01*
X-82462Y-116473D01*
X-82722Y-116740D01*
X-82938Y-117140D01*
X-83112Y-117606D01*
X-83155Y-118273D01*
X-83112Y-118940D01*
X-82938Y-119406D01*
X-82722Y-119806D01*
X-82462Y-120073D01*
X-82115Y-120273D01*
X-81248D01*
G01X-86468D02*
X-84735D01*
Y-116273D01*
X-86468D01*
G01X-85775Y-118206D02*
X-84735D01*
G01X-89955Y-116606D02*
X-89695Y-116406D01*
X-89392Y-116273D01*
X-89045D01*
X-88655Y-116473D01*
X-88352Y-116806D01*
X-88135Y-117206D01*
X-87962Y-117873D01*
X-87918Y-118473D01*
X-88005Y-119073D01*
X-88135Y-119473D01*
X-88395Y-119873D01*
X-88698Y-120140D01*
X-89002Y-120273D01*
X-89305D01*
X-89608Y-120140D01*
X-89868Y-119940D01*
X-90085Y-119673D01*
G01X-91882Y-116273D02*
X-92922D01*
G01X-92402D02*
Y-120273D01*
G01X-91882D02*
X-92922D01*
G01X-94675D02*
Y-116273D01*
X-95802Y-119606D01*
X-96928Y-116273D01*
Y-120273D01*
G01X-98118D02*
X-99202Y-116273D01*
X-100285Y-120273D01*
G01X-99895Y-118873D02*
X-98508D01*
G01X-101735Y-116273D02*
Y-120273D01*
X-103468D01*
G01X-132902Y-133273D02*
X-135902D01*
G01X-134402D02*
X-132102Y-137773D01*
X-130602Y-135573D01*
G01X-127602Y-123573D02*
X-130602D01*
G01X-127602Y-125773D02*
X-130602D01*
G01X-129102Y-122073D02*
Y-125073D01*
G01X-78192Y-88740D02*
X-78538Y-89073D01*
X-78928Y-89273D01*
X-79275D01*
X-79622Y-89073D01*
X-79882Y-88740D01*
X-80012Y-88273D01*
X-79925Y-87806D01*
X-79708Y-87406D01*
X-79318Y-87140D01*
X-78798Y-87006D01*
X-78495Y-86740D01*
X-78365Y-86273D01*
X-78452Y-85806D01*
X-78668Y-85473D01*
X-78972Y-85273D01*
X-79275D01*
X-79578Y-85406D01*
X-79838Y-85740D01*
G01X-81635Y-89273D02*
Y-85273D01*
X-82675D01*
X-83022Y-85473D01*
X-83282Y-85940D01*
X-83368Y-86473D01*
X-83282Y-87006D01*
X-83065Y-87406D01*
X-82675Y-87606D01*
X-81635D01*
G01X-86768Y-89273D02*
X-85035D01*
Y-85273D01*
X-86768D01*
G01X-86075Y-87206D02*
X-85035D01*
G01X-90255Y-85606D02*
X-89995Y-85406D01*
X-89692Y-85273D01*
X-89345D01*
X-88955Y-85473D01*
X-88652Y-85806D01*
X-88435Y-86206D01*
X-88262Y-86873D01*
X-88218Y-87473D01*
X-88305Y-88073D01*
X-88435Y-88473D01*
X-88695Y-88873D01*
X-88998Y-89140D01*
X-89302Y-89273D01*
X-89605D01*
X-89908Y-89140D01*
X-90168Y-88940D01*
X-90385Y-88673D01*
G01X-92182Y-85273D02*
X-93222D01*
G01X-92702D02*
Y-89273D01*
G01X-92182D02*
X-93222D01*
G01X-95278D02*
Y-85273D01*
X-96925D01*
G01X-96318Y-87206D02*
X-95278D01*
G01X-98982Y-85273D02*
X-100022D01*
G01X-99502D02*
Y-89273D01*
G01X-98982D02*
X-100022D01*
G01X-103768D02*
X-102035D01*
Y-85273D01*
X-103768D01*
G01X-103075Y-87206D02*
X-102035D01*
G01X-105348Y-89273D02*
Y-85273D01*
X-106215D01*
X-106562Y-85473D01*
X-106822Y-85740D01*
X-107038Y-86140D01*
X-107212Y-86606D01*
X-107255Y-87273D01*
X-107212Y-87940D01*
X-107038Y-88406D01*
X-106822Y-88806D01*
X-106562Y-89073D01*
X-106215Y-89273D01*
X-105348D01*
G01X-112148D02*
Y-85273D01*
X-113015D01*
X-113362Y-85473D01*
X-113622Y-85740D01*
X-113838Y-86140D01*
X-114012Y-86606D01*
X-114055Y-87273D01*
X-114012Y-87940D01*
X-113838Y-88406D01*
X-113622Y-88806D01*
X-113362Y-89073D01*
X-113015Y-89273D01*
X-112148D01*
G01X-115982Y-85273D02*
X-117022D01*
G01X-116502D02*
Y-89273D01*
G01X-115982D02*
X-117022D01*
G01X-118775D02*
Y-85273D01*
X-119902Y-88606D01*
X-121028Y-85273D01*
Y-89273D01*
G01X-124168D02*
X-122435D01*
Y-85273D01*
X-124168D01*
G01X-123475Y-87206D02*
X-122435D01*
G01X-125705Y-89273D02*
Y-85273D01*
X-127698Y-89273D01*
Y-85273D01*
G01X-129192Y-88740D02*
X-129538Y-89073D01*
X-129928Y-89273D01*
X-130275D01*
X-130622Y-89073D01*
X-130882Y-88740D01*
X-131012Y-88273D01*
X-130925Y-87806D01*
X-130708Y-87406D01*
X-130318Y-87140D01*
X-129798Y-87006D01*
X-129495Y-86740D01*
X-129365Y-86273D01*
X-129452Y-85806D01*
X-129668Y-85473D01*
X-129972Y-85273D01*
X-130275D01*
X-130578Y-85406D01*
X-130838Y-85740D01*
G01X-132982Y-85273D02*
X-134022D01*
G01X-133502D02*
Y-89273D01*
G01X-132982D02*
X-134022D01*
G01X-136902D02*
X-136555Y-89206D01*
X-136252Y-88940D01*
X-135992Y-88540D01*
X-135818Y-88073D01*
X-135732Y-87540D01*
Y-87006D01*
X-135818Y-86473D01*
X-135992Y-86006D01*
X-136252Y-85606D01*
X-136555Y-85340D01*
X-136902Y-85273D01*
X-137248Y-85340D01*
X-137552Y-85606D01*
X-137812Y-86006D01*
X-137985Y-86473D01*
X-138072Y-87006D01*
Y-87540D01*
X-137985Y-88073D01*
X-137812Y-88540D01*
X-137552Y-88940D01*
X-137248Y-89206D01*
X-136902Y-89273D01*
G01X-139305D02*
Y-85273D01*
X-141298Y-89273D01*
Y-85273D01*
G01X-142792Y-88740D02*
X-143138Y-89073D01*
X-143528Y-89273D01*
X-143875D01*
X-144222Y-89073D01*
X-144482Y-88740D01*
X-144612Y-88273D01*
X-144525Y-87806D01*
X-144308Y-87406D01*
X-143918Y-87140D01*
X-143398Y-87006D01*
X-143095Y-86740D01*
X-142965Y-86273D01*
X-143052Y-85806D01*
X-143268Y-85473D01*
X-143572Y-85273D01*
X-143875D01*
X-144178Y-85406D01*
X-144438Y-85740D01*
G01X-89918Y-96773D02*
X-91002Y-92773D01*
X-92085Y-96773D01*
G01X-91695Y-95373D02*
X-90308D01*
G01X-93535Y-96773D02*
Y-92773D01*
X-94618D01*
X-94965Y-92973D01*
X-95182Y-93240D01*
X-95268Y-93773D01*
X-95182Y-94306D01*
X-94922Y-94640D01*
X-94618Y-94840D01*
X-93535D01*
G01X-94618D02*
X-95268Y-96773D01*
G01X-98668D02*
X-96935D01*
Y-92773D01*
X-98668D01*
G01X-97975Y-94706D02*
X-96935D01*
G01X-104082Y-92773D02*
X-105122D01*
G01X-104602D02*
Y-96773D01*
G01X-104082D02*
X-105122D01*
G01X-107005D02*
Y-92773D01*
X-108998Y-96773D01*
Y-92773D01*
G01X-114282D02*
X-115321D01*
G01X-114802D02*
Y-96773D01*
G01X-114282D02*
X-115321D01*
G01X-117205D02*
Y-92773D01*
X-119198Y-96773D01*
Y-92773D01*
G01X-122555Y-93106D02*
X-122295Y-92906D01*
X-121992Y-92773D01*
X-121645D01*
X-121255Y-92973D01*
X-120952Y-93306D01*
X-120735Y-93706D01*
X-120562Y-94373D01*
X-120518Y-94973D01*
X-120605Y-95573D01*
X-120735Y-95973D01*
X-120995Y-96373D01*
X-121298Y-96640D01*
X-121602Y-96773D01*
X-121905D01*
X-122208Y-96640D01*
X-122468Y-96440D01*
X-122685Y-96173D01*
G01X-124092Y-96773D02*
Y-92773D01*
G01X-125912D02*
Y-96773D01*
G01Y-94773D02*
X-124092D01*
G01X-129268Y-96773D02*
X-127535D01*
Y-92773D01*
X-129268D01*
G01X-128575Y-94706D02*
X-127535D01*
G01X-130892Y-96240D02*
X-131238Y-96573D01*
X-131628Y-96773D01*
X-131975D01*
X-132322Y-96573D01*
X-132582Y-96240D01*
X-132712Y-95773D01*
X-132625Y-95306D01*
X-132408Y-94906D01*
X-132018Y-94640D01*
X-131498Y-94506D01*
X-131195Y-94240D01*
X-131065Y-93773D01*
X-131152Y-93306D01*
X-131368Y-92973D01*
X-131672Y-92773D01*
X-131975D01*
X-132278Y-92906D01*
X-132538Y-93240D01*
G01X-84948Y-77773D02*
Y-80640D01*
X-85122Y-81240D01*
X-85468Y-81640D01*
X-85902Y-81773D01*
X-86335Y-81640D01*
X-86682Y-81240D01*
X-86855Y-80640D01*
Y-77773D01*
G01X-88305Y-81773D02*
Y-77773D01*
X-90298Y-81773D01*
Y-77773D01*
G01X-91835D02*
Y-81773D01*
X-93568D01*
G01X-96968D02*
X-95235D01*
Y-77773D01*
X-96968D01*
G01X-96275Y-79706D02*
X-95235D01*
G01X-98592Y-81240D02*
X-98938Y-81573D01*
X-99328Y-81773D01*
X-99675D01*
X-100022Y-81573D01*
X-100282Y-81240D01*
X-100412Y-80773D01*
X-100325Y-80306D01*
X-100108Y-79906D01*
X-99718Y-79640D01*
X-99198Y-79506D01*
X-98895Y-79240D01*
X-98765Y-78773D01*
X-98852Y-78306D01*
X-99068Y-77973D01*
X-99372Y-77773D01*
X-99675D01*
X-99978Y-77906D01*
X-100238Y-78240D01*
G01X-101992Y-81240D02*
X-102338Y-81573D01*
X-102728Y-81773D01*
X-103075D01*
X-103422Y-81573D01*
X-103682Y-81240D01*
X-103812Y-80773D01*
X-103725Y-80306D01*
X-103508Y-79906D01*
X-103118Y-79640D01*
X-102598Y-79506D01*
X-102295Y-79240D01*
X-102165Y-78773D01*
X-102252Y-78306D01*
X-102468Y-77973D01*
X-102772Y-77773D01*
X-103075D01*
X-103378Y-77906D01*
X-103638Y-78240D01*
G01X-109702Y-81773D02*
X-109355Y-81706D01*
X-109052Y-81440D01*
X-108792Y-81040D01*
X-108618Y-80573D01*
X-108532Y-80040D01*
Y-79506D01*
X-108618Y-78973D01*
X-108792Y-78506D01*
X-109052Y-78106D01*
X-109355Y-77840D01*
X-109702Y-77773D01*
X-110048Y-77840D01*
X-110352Y-78106D01*
X-110612Y-78506D01*
X-110785Y-78973D01*
X-110872Y-79506D01*
Y-80040D01*
X-110785Y-80573D01*
X-110612Y-81040D01*
X-110352Y-81440D01*
X-110048Y-81706D01*
X-109702Y-81773D01*
G01X-113102Y-77773D02*
Y-81773D01*
G01X-112105Y-77773D02*
X-114098D01*
G01X-115592Y-81773D02*
Y-77773D01*
G01X-117412D02*
Y-81773D01*
G01Y-79773D02*
X-115592D01*
G01X-120768Y-81773D02*
X-119035D01*
Y-77773D01*
X-120768D01*
G01X-120075Y-79706D02*
X-119035D01*
G01X-122435Y-81773D02*
Y-77773D01*
X-123518D01*
X-123865Y-77973D01*
X-124082Y-78240D01*
X-124168Y-78773D01*
X-124082Y-79306D01*
X-123822Y-79640D01*
X-123518Y-79840D01*
X-122435D01*
G01X-123518D02*
X-124168Y-81773D01*
G01X-125402Y-77773D02*
X-126008Y-81773D01*
X-126702Y-77773D01*
X-127395Y-81773D01*
X-128002Y-77773D01*
G01X-129582D02*
X-130621D01*
G01X-130102D02*
Y-81773D01*
G01X-129582D02*
X-130621D01*
G01X-132592Y-81240D02*
X-132938Y-81573D01*
X-133328Y-81773D01*
X-133675D01*
X-134022Y-81573D01*
X-134282Y-81240D01*
X-134412Y-80773D01*
X-134325Y-80306D01*
X-134108Y-79906D01*
X-133718Y-79640D01*
X-133198Y-79506D01*
X-132895Y-79240D01*
X-132765Y-78773D01*
X-132852Y-78306D01*
X-133068Y-77973D01*
X-133372Y-77773D01*
X-133675D01*
X-133978Y-77906D01*
X-134238Y-78240D01*
G01X-137768Y-81773D02*
X-136035D01*
Y-77773D01*
X-137768D01*
G01X-137075Y-79706D02*
X-136035D01*
G01X-96102Y-107773D02*
Y-111773D01*
G01X-95105Y-107773D02*
X-97098D01*
G01X-99502Y-111773D02*
X-99155Y-111706D01*
X-98852Y-111440D01*
X-98592Y-111040D01*
X-98418Y-110573D01*
X-98332Y-110040D01*
Y-109506D01*
X-98418Y-108973D01*
X-98592Y-108506D01*
X-98852Y-108106D01*
X-99155Y-107840D01*
X-99502Y-107773D01*
X-99848Y-107840D01*
X-100152Y-108106D01*
X-100412Y-108506D01*
X-100585Y-108973D01*
X-100672Y-109506D01*
Y-110040D01*
X-100585Y-110573D01*
X-100412Y-111040D01*
X-100152Y-111440D01*
X-99848Y-111706D01*
X-99502Y-111773D01*
G01X-102035Y-107773D02*
Y-111773D01*
X-103768D01*
G01X-107168D02*
X-105435D01*
Y-107773D01*
X-107168D01*
G01X-106475Y-109706D02*
X-105435D01*
G01X-108835Y-111773D02*
Y-107773D01*
X-109918D01*
X-110265Y-107973D01*
X-110482Y-108240D01*
X-110568Y-108773D01*
X-110482Y-109306D01*
X-110222Y-109640D01*
X-109918Y-109840D01*
X-108835D01*
G01X-109918D02*
X-110568Y-111773D01*
G01X-112018D02*
X-113102Y-107773D01*
X-114185Y-111773D01*
G01X-113795Y-110373D02*
X-112408D01*
G01X-115505Y-111773D02*
Y-107773D01*
X-117498Y-111773D01*
Y-107773D01*
G01X-120855Y-108106D02*
X-120595Y-107906D01*
X-120292Y-107773D01*
X-119945D01*
X-119555Y-107973D01*
X-119252Y-108306D01*
X-119035Y-108706D01*
X-118862Y-109373D01*
X-118818Y-109973D01*
X-118905Y-110573D01*
X-119035Y-110973D01*
X-119295Y-111373D01*
X-119598Y-111640D01*
X-119902Y-111773D01*
X-120205D01*
X-120508Y-111640D01*
X-120768Y-111440D01*
X-120985Y-111173D01*
G01X-124168Y-111773D02*
X-122435D01*
Y-107773D01*
X-124168D01*
G01X-123475Y-109706D02*
X-122435D01*
G01X-125792Y-111240D02*
X-126138Y-111573D01*
X-126528Y-111773D01*
X-126875D01*
X-127222Y-111573D01*
X-127482Y-111240D01*
X-127612Y-110773D01*
X-127525Y-110306D01*
X-127308Y-109906D01*
X-126918Y-109640D01*
X-126398Y-109506D01*
X-126095Y-109240D01*
X-125965Y-108773D01*
X-126052Y-108306D01*
X-126268Y-107973D01*
X-126572Y-107773D01*
X-126875D01*
X-127178Y-107906D01*
X-127438Y-108240D01*
G01X-83292Y-131773D02*
X-85112Y-127773D01*
G01X-83292D02*
X-85112Y-131773D01*
G01X-86692D02*
X-88512Y-127773D01*
G01X-86692D02*
X-88512Y-131773D01*
G01X-79892Y-137773D02*
X-81712Y-133773D01*
G01X-79892D02*
X-81712Y-137773D01*
G01X-83292D02*
X-85112Y-133773D01*
G01X-83292D02*
X-85112Y-137773D01*
G01X-86692D02*
X-88512Y-133773D01*
G01X-86692D02*
X-88512Y-137773D01*
G01X-86692Y-125773D02*
X-88512Y-121773D01*
G01X-86692D02*
X-88512Y-125773D01*
G01X-47768Y-129273D02*
Y-123273D01*
X-49435D01*
X-49968Y-123573D01*
X-50302Y-123973D01*
X-50435Y-124773D01*
X-50302Y-125573D01*
X-49902Y-126073D01*
X-49435Y-126373D01*
X-47768D01*
G01X-49435D02*
X-50435Y-129273D01*
G01X-55635D02*
X-52968D01*
Y-123273D01*
X-55635D01*
G01X-54568Y-126173D02*
X-52968D01*
G01X-57835Y-123273D02*
X-59501Y-129273D01*
X-61168Y-123273D01*
G01X-64702Y-129473D02*
X-64568Y-129373D01*
Y-129173D01*
X-64702Y-129073D01*
X-64835Y-129173D01*
Y-129373D01*
X-64702Y-129473D01*
G01X107118Y-118606D02*
X106692Y-119023D01*
X106212Y-119273D01*
X105785D01*
X105358Y-119023D01*
X105038Y-118606D01*
X104878Y-118023D01*
X104985Y-117440D01*
X105252Y-116940D01*
X105732Y-116606D01*
X106372Y-116440D01*
X106745Y-116106D01*
X106905Y-115523D01*
X106798Y-114940D01*
X106532Y-114523D01*
X106158Y-114273D01*
X105785D01*
X105412Y-114440D01*
X105092Y-114856D01*
G01X100732Y-119273D02*
X102865D01*
Y-114273D01*
X100732D01*
G01X101585Y-116690D02*
X102865D01*
G01X98825Y-119273D02*
Y-114273D01*
X96372Y-119273D01*
Y-114273D01*
G01X94518Y-118606D02*
X94092Y-119023D01*
X93612Y-119273D01*
X93185D01*
X92758Y-119023D01*
X92438Y-118606D01*
X92278Y-118023D01*
X92385Y-117440D01*
X92652Y-116940D01*
X93132Y-116606D01*
X93772Y-116440D01*
X94145Y-116106D01*
X94305Y-115523D01*
X94198Y-114940D01*
X93932Y-114523D01*
X93558Y-114273D01*
X93185D01*
X92812Y-114440D01*
X92492Y-114856D01*
G01X89198Y-119273D02*
X89625Y-119190D01*
X89998Y-118856D01*
X90318Y-118356D01*
X90532Y-117773D01*
X90638Y-117106D01*
Y-116440D01*
X90532Y-115773D01*
X90318Y-115190D01*
X89998Y-114690D01*
X89625Y-114356D01*
X89198Y-114273D01*
X88772Y-114356D01*
X88398Y-114690D01*
X88078Y-115190D01*
X87865Y-115773D01*
X87758Y-116440D01*
Y-117106D01*
X87865Y-117773D01*
X88078Y-118356D01*
X88398Y-118856D01*
X88772Y-119190D01*
X89198Y-119273D01*
G01X86065D02*
Y-114273D01*
X84732D01*
X84305Y-114523D01*
X84038Y-114856D01*
X83932Y-115523D01*
X84038Y-116190D01*
X84358Y-116606D01*
X84732Y-116856D01*
X86065D01*
G01X84732D02*
X83932Y-119273D01*
G01X77665D02*
Y-114273D01*
X76385D01*
X75958Y-114523D01*
X75638Y-115106D01*
X75532Y-115773D01*
X75638Y-116440D01*
X75905Y-116940D01*
X76385Y-117190D01*
X77665D01*
G01X73465Y-114273D02*
Y-119273D01*
X71332D01*
G01X69532D02*
X68198Y-114273D01*
X66865Y-119273D01*
G01X67345Y-117523D02*
X69052D01*
G01X63998Y-114273D02*
Y-119273D01*
G01X65225Y-114273D02*
X62772D01*
G01X60812Y-119273D02*
Y-114273D01*
X58785D01*
G01X59532Y-116690D02*
X60812D01*
G01X55598Y-119273D02*
X56025Y-119190D01*
X56398Y-118856D01*
X56718Y-118356D01*
X56932Y-117773D01*
X57038Y-117106D01*
Y-116440D01*
X56932Y-115773D01*
X56718Y-115190D01*
X56398Y-114690D01*
X56025Y-114356D01*
X55598Y-114273D01*
X55172Y-114356D01*
X54798Y-114690D01*
X54478Y-115190D01*
X54265Y-115773D01*
X54158Y-116440D01*
Y-117106D01*
X54265Y-117773D01*
X54478Y-118356D01*
X54798Y-118856D01*
X55172Y-119190D01*
X55598Y-119273D01*
G01X52465D02*
Y-114273D01*
X51132D01*
X50705Y-114523D01*
X50438Y-114856D01*
X50332Y-115523D01*
X50438Y-116190D01*
X50758Y-116606D01*
X51132Y-116856D01*
X52465D01*
G01X51132D02*
X50332Y-119273D01*
G01X48585D02*
Y-114273D01*
X47198Y-118440D01*
X45812Y-114273D01*
Y-119273D01*
G01X44598Y-120940D02*
X41398D01*
G01X40185Y-119273D02*
Y-114273D01*
X38798Y-118440D01*
X37412Y-114273D01*
Y-119273D01*
G01X35772Y-114273D02*
Y-117856D01*
X35558Y-118606D01*
X35132Y-119106D01*
X34598Y-119273D01*
X34065Y-119106D01*
X33638Y-118606D01*
X33425Y-117856D01*
Y-114273D01*
G01X31465D02*
Y-119273D01*
X29332D01*
G01X26198Y-114273D02*
Y-119273D01*
G01X27425Y-114273D02*
X24972D01*
G01X22638D02*
X21359D01*
G01X21998D02*
Y-119273D01*
G01X22638D02*
X21359D01*
G01X18918Y-118606D02*
X18492Y-119023D01*
X18012Y-119273D01*
X17585D01*
X17158Y-119023D01*
X16838Y-118606D01*
X16678Y-118023D01*
X16785Y-117440D01*
X17052Y-116940D01*
X17532Y-116606D01*
X18172Y-116440D01*
X18545Y-116106D01*
X18705Y-115523D01*
X18598Y-114940D01*
X18332Y-114523D01*
X17958Y-114273D01*
X17585D01*
X17212Y-114440D01*
X16892Y-114856D01*
G01X12532Y-119273D02*
X14665D01*
Y-114273D01*
X12532D01*
G01X13385Y-116690D02*
X14665D01*
G01X10625Y-119273D02*
Y-114273D01*
X8172Y-119273D01*
Y-114273D01*
G01X6318Y-118606D02*
X5892Y-119023D01*
X5412Y-119273D01*
X4985D01*
X4558Y-119023D01*
X4238Y-118606D01*
X4078Y-118023D01*
X4185Y-117440D01*
X4452Y-116940D01*
X4932Y-116606D01*
X5572Y-116440D01*
X5945Y-116106D01*
X6105Y-115523D01*
X5998Y-114940D01*
X5732Y-114523D01*
X5358Y-114273D01*
X4985D01*
X4612Y-114440D01*
X4292Y-114856D01*
G01X998Y-119273D02*
X1425Y-119190D01*
X1798Y-118856D01*
X2118Y-118356D01*
X2332Y-117773D01*
X2438Y-117106D01*
Y-116440D01*
X2332Y-115773D01*
X2118Y-115190D01*
X1798Y-114690D01*
X1425Y-114356D01*
X998Y-114273D01*
X572Y-114356D01*
X198Y-114690D01*
X-122Y-115190D01*
X-335Y-115773D01*
X-442Y-116440D01*
Y-117106D01*
X-335Y-117773D01*
X-122Y-118356D01*
X198Y-118856D01*
X572Y-119190D01*
X998Y-119273D01*
G01X-2135D02*
Y-114273D01*
X-3468D01*
X-3895Y-114523D01*
X-4162Y-114856D01*
X-4268Y-115523D01*
X-4162Y-116190D01*
X-3842Y-116606D01*
X-3468Y-116856D01*
X-2135D01*
G01X-3468D02*
X-4268Y-119273D01*
G01X-10482Y-118606D02*
X-10908Y-119023D01*
X-11388Y-119273D01*
X-11815D01*
X-12242Y-119023D01*
X-12562Y-118606D01*
X-12722Y-118023D01*
X-12615Y-117440D01*
X-12348Y-116940D01*
X-11868Y-116606D01*
X-11228Y-116440D01*
X-10855Y-116106D01*
X-10695Y-115523D01*
X-10802Y-114940D01*
X-11068Y-114523D01*
X-11442Y-114273D01*
X-11815D01*
X-12188Y-114440D01*
X-12508Y-114856D01*
G01X-14682Y-119273D02*
Y-114273D01*
G01X-16922D02*
Y-119273D01*
G01Y-116773D02*
X-14682D01*
G01X-19362Y-114273D02*
X-20642D01*
G01X-20002D02*
Y-119273D01*
G01X-19362D02*
X-20642D01*
G01X-25268D02*
X-23135D01*
Y-114273D01*
X-25268D01*
G01X-24415Y-116690D02*
X-23135D01*
G01X-27335Y-114273D02*
Y-119273D01*
X-29468D01*
G01X-31428D02*
Y-114273D01*
X-32495D01*
X-32922Y-114523D01*
X-33242Y-114856D01*
X-33508Y-115356D01*
X-33722Y-115940D01*
X-33775Y-116773D01*
X-33722Y-117606D01*
X-33508Y-118190D01*
X-33242Y-118690D01*
X-32922Y-119023D01*
X-32495Y-119273D01*
X-31428D01*
G01X-41428Y-116606D02*
X-41642Y-116356D01*
X-41802Y-115940D01*
X-41908Y-115356D01*
X-41802Y-114856D01*
X-41588Y-114523D01*
X-41215Y-114273D01*
X-39775D01*
Y-119273D01*
X-41535D01*
X-41908Y-118940D01*
X-42122Y-118440D01*
X-42228Y-117856D01*
X-42122Y-117273D01*
X-41802Y-116773D01*
X-41428Y-116606D01*
X-39775D01*
G01X-45202Y-119273D02*
X-44775Y-119190D01*
X-44402Y-118856D01*
X-44082Y-118356D01*
X-43868Y-117773D01*
X-43762Y-117106D01*
Y-116440D01*
X-43868Y-115773D01*
X-44082Y-115190D01*
X-44402Y-114690D01*
X-44775Y-114356D01*
X-45202Y-114273D01*
X-45628Y-114356D01*
X-46002Y-114690D01*
X-46322Y-115190D01*
X-46535Y-115773D01*
X-46642Y-116440D01*
Y-117106D01*
X-46535Y-117773D01*
X-46322Y-118356D01*
X-46002Y-118856D01*
X-45628Y-119190D01*
X-45202Y-119273D01*
G01X-48068D02*
X-49402Y-114273D01*
X-50735Y-119273D01*
G01X-50255Y-117523D02*
X-48548D01*
G01X-52535Y-119273D02*
Y-114273D01*
X-53868D01*
X-54295Y-114523D01*
X-54562Y-114856D01*
X-54668Y-115523D01*
X-54562Y-116190D01*
X-54242Y-116606D01*
X-53868Y-116856D01*
X-52535D01*
G01X-53868D02*
X-54668Y-119273D01*
G01X-56628D02*
Y-114273D01*
X-57695D01*
X-58122Y-114523D01*
X-58442Y-114856D01*
X-58708Y-115356D01*
X-58922Y-115940D01*
X-58975Y-116773D01*
X-58922Y-117606D01*
X-58708Y-118190D01*
X-58442Y-118690D01*
X-58122Y-119023D01*
X-57695Y-119273D01*
X-56628D01*
G01X-88902Y-137773D02*
X-91902D01*
G01X-92402Y-134073D02*
Y-137073D01*
G01X-90902Y-135573D02*
X-93902D01*
G01X-90902Y-123573D02*
X-93902D01*
G01X-90902Y-125773D02*
X-93902D01*
G01X-92402Y-122073D02*
Y-125073D01*
G01X-90902Y-131773D02*
X-93902D01*
G01X-92402Y-128073D02*
Y-131073D01*
G01X-90902Y-129573D02*
X-93902D01*
G01X-76902Y-69273D02*
Y-144273D01*
G01Y-121773D02*
X125598D01*
G01X-76902Y-99273D02*
X125598D01*
G01X-41902Y-121773D02*
Y-144273D01*
G01X0Y0D02*
Y150500D01*
X29000D01*
X31500Y153000D01*
Y191000D01*
X29000Y193500D01*
X-10000D01*
Y220000D01*
G01X0Y0D02*
X310000D01*
G01Y220000D02*
X-10000D01*
G01X122432Y-129273D02*
Y-123273D01*
X120832D01*
X120298Y-123573D01*
X119898Y-124273D01*
X119765Y-125073D01*
X119898Y-125873D01*
X120232Y-126473D01*
X120832Y-126773D01*
X122432D01*
G01X117232Y-129273D02*
Y-123273D01*
X115565D01*
X115032Y-123573D01*
X114698Y-123973D01*
X114565Y-124773D01*
X114698Y-125573D01*
X115098Y-126073D01*
X115565Y-126373D01*
X117232D01*
G01X115565D02*
X114565Y-129273D01*
G01X110698D02*
X111232Y-129173D01*
X111698Y-128773D01*
X112098Y-128173D01*
X112365Y-127473D01*
X112498Y-126673D01*
Y-125873D01*
X112365Y-125073D01*
X112098Y-124373D01*
X111698Y-123773D01*
X111232Y-123373D01*
X110698Y-123273D01*
X110165Y-123373D01*
X109698Y-123773D01*
X109298Y-124373D01*
X109032Y-125073D01*
X108898Y-125873D01*
Y-126673D01*
X109032Y-127473D01*
X109298Y-128173D01*
X109698Y-128773D01*
X110165Y-129173D01*
X110698Y-129273D01*
G01X106832Y-128073D02*
X106498Y-128673D01*
X106098Y-129073D01*
X105632Y-129273D01*
X105098Y-129073D01*
X104698Y-128673D01*
X104298Y-128073D01*
X104165Y-127273D01*
Y-123273D01*
G01X98965Y-129273D02*
X101632D01*
Y-123273D01*
X98965D01*
G01X100032Y-126173D02*
X101632D01*
G01X93632Y-123773D02*
X94032Y-123473D01*
X94498Y-123273D01*
X95032D01*
X95632Y-123573D01*
X96098Y-124073D01*
X96432Y-124673D01*
X96698Y-125673D01*
X96765Y-126573D01*
X96632Y-127473D01*
X96432Y-128073D01*
X96032Y-128673D01*
X95565Y-129073D01*
X95099Y-129273D01*
X94632D01*
X94165Y-129073D01*
X93765Y-128773D01*
X93432Y-128373D01*
G01X89898Y-123273D02*
Y-129273D01*
G01X91432Y-123273D02*
X88365D01*
G01X81032Y-129273D02*
Y-123273D01*
X77965Y-129273D01*
Y-123273D01*
G01X75765D02*
Y-127573D01*
X75498Y-128473D01*
X74965Y-129073D01*
X74298Y-129273D01*
X73632Y-129073D01*
X73098Y-128473D01*
X72832Y-127573D01*
Y-123273D01*
G01X70832Y-129273D02*
Y-123273D01*
X69098Y-128273D01*
X67365Y-123273D01*
Y-129273D01*
G01X63365Y-126073D02*
X63098Y-125773D01*
X62898Y-125273D01*
X62765Y-124573D01*
X62898Y-123973D01*
X63165Y-123573D01*
X63632Y-123273D01*
X65432D01*
Y-129273D01*
X63232D01*
X62765Y-128873D01*
X62498Y-128273D01*
X62365Y-127573D01*
X62498Y-126873D01*
X62898Y-126273D01*
X63365Y-126073D01*
X65432D01*
G01X57365Y-129273D02*
X60032D01*
Y-123273D01*
X57365D01*
G01X58432Y-126173D02*
X60032D01*
G01X54832Y-129273D02*
Y-123273D01*
X53165D01*
X52632Y-123573D01*
X52298Y-123973D01*
X52165Y-124773D01*
X52298Y-125573D01*
X52698Y-126073D01*
X53165Y-126373D01*
X54832D01*
G01X53165D02*
X52165Y-129273D01*
G01X48298Y-129473D02*
X48432Y-129373D01*
Y-129173D01*
X48298Y-129073D01*
X48165Y-129173D01*
Y-129373D01*
X48298Y-129473D01*
G01Y-126773D02*
X48432Y-126673D01*
Y-126473D01*
X48298Y-126373D01*
X48165Y-126473D01*
Y-126673D01*
X48298Y-126773D01*
G01X122432Y-106773D02*
Y-100773D01*
X120832D01*
X120298Y-101073D01*
X119898Y-101773D01*
X119765Y-102573D01*
X119898Y-103373D01*
X120232Y-103973D01*
X120832Y-104273D01*
X122432D01*
G01X117232Y-106773D02*
Y-100773D01*
X115565D01*
X115032Y-101073D01*
X114698Y-101473D01*
X114565Y-102273D01*
X114698Y-103073D01*
X115098Y-103573D01*
X115565Y-103873D01*
X117232D01*
G01X115565D02*
X114565Y-106773D01*
G01X110698D02*
X111232Y-106673D01*
X111698Y-106273D01*
X112098Y-105673D01*
X112365Y-104973D01*
X112498Y-104173D01*
Y-103373D01*
X112365Y-102573D01*
X112098Y-101873D01*
X111698Y-101273D01*
X111232Y-100873D01*
X110698Y-100773D01*
X110165Y-100873D01*
X109698Y-101273D01*
X109298Y-101873D01*
X109032Y-102573D01*
X108898Y-103373D01*
Y-104173D01*
X109032Y-104973D01*
X109298Y-105673D01*
X109698Y-106273D01*
X110165Y-106673D01*
X110698Y-106773D01*
G01X106832Y-105573D02*
X106498Y-106173D01*
X106098Y-106573D01*
X105632Y-106773D01*
X105098Y-106573D01*
X104698Y-106173D01*
X104298Y-105573D01*
X104165Y-104773D01*
Y-100773D01*
G01X98965Y-106773D02*
X101632D01*
Y-100773D01*
X98965D01*
G01X100032Y-103673D02*
X101632D01*
G01X93632Y-101273D02*
X94032Y-100973D01*
X94498Y-100773D01*
X95032D01*
X95632Y-101073D01*
X96098Y-101573D01*
X96432Y-102173D01*
X96698Y-103173D01*
X96765Y-104073D01*
X96632Y-104973D01*
X96432Y-105573D01*
X96032Y-106173D01*
X95565Y-106573D01*
X95099Y-106773D01*
X94632D01*
X94165Y-106573D01*
X93765Y-106273D01*
X93432Y-105873D01*
G01X89898Y-100773D02*
Y-106773D01*
G01X91432Y-100773D02*
X88365D01*
G01X81032Y-106773D02*
Y-100773D01*
X77965Y-106773D01*
Y-100773D01*
G01X75965Y-106773D02*
X74298Y-100773D01*
X72632Y-106773D01*
G01X73232Y-104673D02*
X75365D01*
G01X70832Y-106773D02*
Y-100773D01*
X69098Y-105773D01*
X67365Y-100773D01*
Y-106773D01*
G01X62565D02*
X65232D01*
Y-100773D01*
X62565D01*
G01X63632Y-103673D02*
X65232D01*
G01X58698Y-106973D02*
X58832Y-106873D01*
Y-106673D01*
X58698Y-106573D01*
X58565Y-106673D01*
Y-106873D01*
X58698Y-106973D01*
G01Y-104273D02*
X58832Y-104173D01*
Y-103973D01*
X58698Y-103873D01*
X58565Y-103973D01*
Y-104173D01*
X58698Y-104273D01*
G01X119632Y-71273D02*
X120032Y-70973D01*
X120498Y-70773D01*
X121032D01*
X121632Y-71073D01*
X122098Y-71573D01*
X122432Y-72173D01*
X122698Y-73173D01*
X122765Y-74073D01*
X122632Y-74973D01*
X122432Y-75573D01*
X122032Y-76173D01*
X121565Y-76573D01*
X121098Y-76773D01*
X120632D01*
X120165Y-76573D01*
X119765Y-76273D01*
X119432Y-75873D01*
G01X115898Y-76773D02*
X116432Y-76673D01*
X116898Y-76273D01*
X117298Y-75673D01*
X117565Y-74973D01*
X117698Y-74173D01*
Y-73373D01*
X117565Y-72573D01*
X117298Y-71873D01*
X116898Y-71273D01*
X116432Y-70873D01*
X115898Y-70773D01*
X115365Y-70873D01*
X114898Y-71273D01*
X114498Y-71873D01*
X114232Y-72573D01*
X114098Y-73373D01*
Y-74173D01*
X114232Y-74973D01*
X114498Y-75673D01*
X114898Y-76273D01*
X115365Y-76673D01*
X115898Y-76773D01*
G01X112432D02*
Y-70773D01*
X110698Y-75773D01*
X108965Y-70773D01*
Y-76773D01*
G01X106832D02*
Y-70773D01*
X105232D01*
X104698Y-71073D01*
X104298Y-71773D01*
X104165Y-72573D01*
X104298Y-73373D01*
X104632Y-73973D01*
X105232Y-74273D01*
X106832D01*
G01X101965Y-76773D02*
X100298Y-70773D01*
X98632Y-76773D01*
G01X99232Y-74673D02*
X101365D01*
G01X96632Y-76773D02*
Y-70773D01*
X93565Y-76773D01*
Y-70773D01*
G01X89898Y-76773D02*
Y-74073D01*
X91232Y-70773D01*
G01X88565D02*
X89898Y-74073D01*
G01X81032Y-76773D02*
Y-70773D01*
X77965Y-76773D01*
Y-70773D01*
G01X75965Y-76773D02*
X74298Y-70773D01*
X72632Y-76773D01*
G01X73232Y-74673D02*
X75365D01*
G01X70832Y-76773D02*
Y-70773D01*
X69098Y-75773D01*
X67365Y-70773D01*
Y-76773D01*
G01X62565D02*
X65232D01*
Y-70773D01*
X62565D01*
G01X63632Y-73673D02*
X65232D01*
G01X58698Y-76973D02*
X58832Y-76873D01*
Y-76673D01*
X58698Y-76573D01*
X58565Y-76673D01*
Y-76873D01*
X58698Y-76973D01*
G01Y-74273D02*
X58832Y-74173D01*
Y-73973D01*
X58698Y-73873D01*
X58565Y-73973D01*
Y-74173D01*
X58698Y-74273D01*
G01X204065Y-119273D02*
Y-114273D01*
X202732D01*
X202305Y-114523D01*
X202038Y-114856D01*
X201932Y-115523D01*
X202038Y-116190D01*
X202358Y-116606D01*
X202732Y-116856D01*
X204065D01*
G01X202732D02*
X201932Y-119273D01*
G01X198798D02*
X199225Y-119190D01*
X199598Y-118856D01*
X199918Y-118356D01*
X200132Y-117773D01*
X200238Y-117106D01*
Y-116440D01*
X200132Y-115773D01*
X199918Y-115190D01*
X199598Y-114690D01*
X199225Y-114356D01*
X198798Y-114273D01*
X198372Y-114356D01*
X197998Y-114690D01*
X197678Y-115190D01*
X197465Y-115773D01*
X197358Y-116440D01*
Y-117106D01*
X197465Y-117773D01*
X197678Y-118356D01*
X197998Y-118856D01*
X198372Y-119190D01*
X198798Y-119273D01*
G01X195718D02*
Y-114273D01*
G01X193478D02*
Y-119273D01*
G01Y-116773D02*
X195718D01*
G01X191785Y-119273D02*
Y-114273D01*
X190398Y-118440D01*
X189012Y-114273D01*
Y-119273D01*
G01X183118Y-118606D02*
X182692Y-119023D01*
X182212Y-119273D01*
X181785D01*
X181358Y-119023D01*
X181038Y-118606D01*
X180878Y-118023D01*
X180985Y-117440D01*
X181252Y-116940D01*
X181732Y-116606D01*
X182372Y-116440D01*
X182745Y-116106D01*
X182905Y-115523D01*
X182798Y-114940D01*
X182532Y-114523D01*
X182158Y-114273D01*
X181785D01*
X181412Y-114440D01*
X181092Y-114856D01*
G01X176732Y-119273D02*
X178865D01*
Y-114273D01*
X176732D01*
G01X177585Y-116690D02*
X178865D01*
G01X174985Y-119273D02*
Y-114273D01*
X173598Y-118440D01*
X172212Y-114273D01*
Y-119273D01*
G01X170038Y-114273D02*
X168758D01*
G01X169398D02*
Y-119273D01*
G01X170038D02*
X168758D01*
G01X164025Y-114690D02*
X164345Y-114440D01*
X164718Y-114273D01*
X165145D01*
X165625Y-114523D01*
X165998Y-114940D01*
X166265Y-115440D01*
X166479Y-116273D01*
X166532Y-117023D01*
X166425Y-117773D01*
X166265Y-118273D01*
X165945Y-118773D01*
X165572Y-119106D01*
X165198Y-119273D01*
X164825D01*
X164452Y-119106D01*
X164132Y-118856D01*
X163865Y-118523D01*
G01X160998Y-119273D02*
X161425Y-119190D01*
X161798Y-118856D01*
X162118Y-118356D01*
X162332Y-117773D01*
X162438Y-117106D01*
Y-116440D01*
X162332Y-115773D01*
X162118Y-115190D01*
X161798Y-114690D01*
X161425Y-114356D01*
X160998Y-114273D01*
X160572Y-114356D01*
X160198Y-114690D01*
X159878Y-115190D01*
X159665Y-115773D01*
X159558Y-116440D01*
Y-117106D01*
X159665Y-117773D01*
X159878Y-118356D01*
X160198Y-118856D01*
X160572Y-119190D01*
X160998Y-119273D01*
G01X158025D02*
Y-114273D01*
X155572Y-119273D01*
Y-114273D01*
G01X153772Y-119273D02*
Y-114273D01*
X152705D01*
X152278Y-114523D01*
X151958Y-114856D01*
X151692Y-115356D01*
X151478Y-115940D01*
X151425Y-116773D01*
X151478Y-117606D01*
X151692Y-118190D01*
X151958Y-118690D01*
X152278Y-119023D01*
X152705Y-119273D01*
X153772D01*
G01X149572Y-114273D02*
Y-117856D01*
X149358Y-118606D01*
X148932Y-119106D01*
X148398Y-119273D01*
X147865Y-119106D01*
X147438Y-118606D01*
X147225Y-117856D01*
Y-114273D01*
G01X143025Y-114690D02*
X143345Y-114440D01*
X143718Y-114273D01*
X144145D01*
X144625Y-114523D01*
X144998Y-114940D01*
X145265Y-115440D01*
X145479Y-116273D01*
X145532Y-117023D01*
X145425Y-117773D01*
X145265Y-118273D01*
X144945Y-118773D01*
X144572Y-119106D01*
X144198Y-119273D01*
X143825D01*
X143452Y-119106D01*
X143132Y-118856D01*
X142865Y-118523D01*
G01X139998Y-114273D02*
Y-119273D01*
G01X141225Y-114273D02*
X138772D01*
G01X135798Y-119273D02*
X136225Y-119190D01*
X136598Y-118856D01*
X136918Y-118356D01*
X137132Y-117773D01*
X137238Y-117106D01*
Y-116440D01*
X137132Y-115773D01*
X136918Y-115190D01*
X136598Y-114690D01*
X136225Y-114356D01*
X135798Y-114273D01*
X135372Y-114356D01*
X134998Y-114690D01*
X134678Y-115190D01*
X134465Y-115773D01*
X134358Y-116440D01*
Y-117106D01*
X134465Y-117773D01*
X134678Y-118356D01*
X134998Y-118856D01*
X135372Y-119190D01*
X135798Y-119273D01*
G01X132665D02*
Y-114273D01*
X131332D01*
X130905Y-114523D01*
X130638Y-114856D01*
X130532Y-115523D01*
X130638Y-116190D01*
X130958Y-116606D01*
X131332Y-116856D01*
X132665D01*
G01X131332D02*
X130532Y-119273D01*
G01X125598Y-69273D02*
Y-144273D01*
G01Y-121273D02*
X243098D01*
G01X125598Y-132273D02*
X243098D01*
G01X228348Y-93273D02*
X227682Y-93898D01*
X226932Y-94273D01*
X226265D01*
X225598Y-93898D01*
X225098Y-93273D01*
X224848Y-92398D01*
X225015Y-91523D01*
X225432Y-90773D01*
X226182Y-90273D01*
X227182Y-90023D01*
X227765Y-89523D01*
X228015Y-88648D01*
X227848Y-87773D01*
X227432Y-87148D01*
X226848Y-86773D01*
X226265D01*
X225682Y-87023D01*
X225182Y-87648D01*
G01X218432Y-94273D02*
X221765D01*
Y-86773D01*
X218432D01*
G01X219765Y-90398D02*
X221765D01*
G01X211765Y-87398D02*
X212265Y-87023D01*
X212848Y-86773D01*
X213515D01*
X214265Y-87148D01*
X214848Y-87773D01*
X215265Y-88523D01*
X215599Y-89773D01*
X215682Y-90898D01*
X215515Y-92023D01*
X215265Y-92773D01*
X214765Y-93523D01*
X214182Y-94023D01*
X213599Y-94273D01*
X213015D01*
X212432Y-94023D01*
X211932Y-93648D01*
X211515Y-93148D01*
G01X207099Y-94273D02*
X207765Y-94148D01*
X208348Y-93648D01*
X208848Y-92898D01*
X209182Y-92023D01*
X209349Y-91023D01*
Y-90023D01*
X209182Y-89023D01*
X208848Y-88148D01*
X208348Y-87398D01*
X207765Y-86898D01*
X207099Y-86773D01*
X206432Y-86898D01*
X205848Y-87398D01*
X205348Y-88148D01*
X205015Y-89023D01*
X204848Y-90023D01*
Y-91023D01*
X205015Y-92023D01*
X205348Y-92898D01*
X205848Y-93648D01*
X206432Y-94148D01*
X207099Y-94273D01*
G01X202515D02*
Y-86773D01*
X198682Y-94273D01*
Y-86773D01*
G01X195932Y-94273D02*
Y-86773D01*
X194265D01*
X193598Y-87148D01*
X193098Y-87648D01*
X192682Y-88398D01*
X192348Y-89273D01*
X192265Y-90523D01*
X192348Y-91773D01*
X192682Y-92648D01*
X193098Y-93398D01*
X193598Y-93898D01*
X194265Y-94273D01*
X195932D01*
G01X189682D02*
X187598Y-86773D01*
X185515Y-94273D01*
G01X186265Y-91648D02*
X188932D01*
G01X182765Y-94273D02*
Y-86773D01*
X180682D01*
X180015Y-87148D01*
X179598Y-87648D01*
X179432Y-88648D01*
X179598Y-89648D01*
X180098Y-90273D01*
X180682Y-90648D01*
X182765D01*
G01X180682D02*
X179432Y-94273D01*
G01X174598D02*
Y-90898D01*
X176265Y-86773D01*
G01X172932D02*
X174598Y-90898D01*
G01X169182Y-91773D02*
X167015D01*
G01X163348Y-93273D02*
X162682Y-93898D01*
X161932Y-94273D01*
X161265D01*
X160598Y-93898D01*
X160098Y-93273D01*
X159848Y-92398D01*
X160015Y-91523D01*
X160432Y-90773D01*
X161182Y-90273D01*
X162182Y-90023D01*
X162765Y-89523D01*
X163015Y-88648D01*
X162848Y-87773D01*
X162432Y-87148D01*
X161848Y-86773D01*
X161265D01*
X160682Y-87023D01*
X160182Y-87648D01*
G01X156098Y-86773D02*
X154098D01*
G01X155098D02*
Y-94273D01*
G01X156098D02*
X154098D01*
G01X150432D02*
Y-86773D01*
X148765D01*
X148098Y-87148D01*
X147598Y-87648D01*
X147182Y-88398D01*
X146848Y-89273D01*
X146765Y-90523D01*
X146848Y-91773D01*
X147182Y-92648D01*
X147598Y-93398D01*
X148098Y-93898D01*
X148765Y-94273D01*
X150432D01*
G01X140432D02*
X143765D01*
Y-86773D01*
X140432D01*
G01X141765Y-90398D02*
X143765D01*
G01X125598Y-110273D02*
X243098D01*
G01X125598Y-99273D02*
X243098D01*
G01X210512Y-126106D02*
X210192Y-125606D01*
X209818Y-125356D01*
X209392Y-125273D01*
X208858Y-125439D01*
X208485Y-125856D01*
X208378Y-126356D01*
X208432Y-126856D01*
X208645Y-127273D01*
X209712Y-128106D01*
X210192Y-128690D01*
X210512Y-129523D01*
X210618Y-130273D01*
X208378D01*
G01X205298Y-125273D02*
X205725Y-125439D01*
X206045Y-125856D01*
X206258Y-126356D01*
X206418Y-127023D01*
X206472Y-127773D01*
X206418Y-128523D01*
X206258Y-129190D01*
X206045Y-129690D01*
X205725Y-130106D01*
X205298Y-130273D01*
X204872Y-130106D01*
X204552Y-129690D01*
X204338Y-129190D01*
X204178Y-128523D01*
X204125Y-127773D01*
X204178Y-127023D01*
X204338Y-126356D01*
X204552Y-125856D01*
X204872Y-125439D01*
X205298Y-125273D01*
G01X201098Y-130273D02*
Y-125273D01*
X201738Y-126273D01*
G01Y-130273D02*
X200458D01*
G01X198072Y-129523D02*
X197752Y-129940D01*
X197378Y-130190D01*
X196898Y-130273D01*
X196418Y-130106D01*
X196045Y-129773D01*
X195778Y-129190D01*
X195725Y-128523D01*
X195832Y-127856D01*
X196098Y-127440D01*
X196472Y-127106D01*
X196845Y-127023D01*
X197218Y-127106D01*
X197698Y-127440D01*
X197538Y-125273D01*
X196098D01*
G01X193392Y-128606D02*
X192005D01*
G01X188498Y-125273D02*
X188925Y-125439D01*
X189245Y-125856D01*
X189458Y-126356D01*
X189618Y-127023D01*
X189672Y-127773D01*
X189618Y-128523D01*
X189458Y-129190D01*
X189245Y-129690D01*
X188925Y-130106D01*
X188498Y-130273D01*
X188072Y-130106D01*
X187752Y-129690D01*
X187538Y-129190D01*
X187378Y-128523D01*
X187325Y-127773D01*
X187378Y-127023D01*
X187538Y-126356D01*
X187752Y-125856D01*
X188072Y-125439D01*
X188498Y-125273D01*
G01X185205Y-129690D02*
X184832Y-130106D01*
X184405Y-130273D01*
X183978Y-130106D01*
X183605Y-129606D01*
X183338Y-128856D01*
X183232Y-128106D01*
Y-127190D01*
X183338Y-126440D01*
X183605Y-125773D01*
X183925Y-125439D01*
X184298Y-125273D01*
X184725Y-125439D01*
X185045Y-125773D01*
X185258Y-126273D01*
X185365Y-126940D01*
X185258Y-127523D01*
X184992Y-128106D01*
X184672Y-128440D01*
X184298Y-128523D01*
X183872Y-128356D01*
X183552Y-127940D01*
X183232Y-127190D01*
G01X180792Y-128606D02*
X179405D01*
G01X176912Y-126106D02*
X176592Y-125606D01*
X176218Y-125356D01*
X175792Y-125273D01*
X175258Y-125439D01*
X174885Y-125856D01*
X174778Y-126356D01*
X174832Y-126856D01*
X175045Y-127273D01*
X176112Y-128106D01*
X176592Y-128690D01*
X176912Y-129523D01*
X177018Y-130273D01*
X174778D01*
G01X172872Y-129523D02*
X172552Y-129940D01*
X172178Y-130190D01*
X171698Y-130273D01*
X171218Y-130106D01*
X170845Y-129773D01*
X170578Y-129190D01*
X170525Y-128523D01*
X170632Y-127856D01*
X170898Y-127440D01*
X171272Y-127106D01*
X171645Y-127023D01*
X172018Y-127106D01*
X172498Y-127440D01*
X172338Y-125273D01*
X170898D01*
G01X235325Y-114690D02*
X235645Y-114440D01*
X236018Y-114273D01*
X236445D01*
X236925Y-114523D01*
X237298Y-114940D01*
X237565Y-115440D01*
X237778Y-116273D01*
X237832Y-117023D01*
X237725Y-117773D01*
X237565Y-118273D01*
X237245Y-118773D01*
X236872Y-119106D01*
X236498Y-119273D01*
X236125D01*
X235752Y-119106D01*
X235432Y-118856D01*
X235165Y-118523D01*
G01X233418Y-119273D02*
Y-114273D01*
G01X231178D02*
Y-119273D01*
G01Y-116773D02*
X233418D01*
G01X227032Y-119273D02*
X229165D01*
Y-114273D01*
X227032D01*
G01X227885Y-116690D02*
X229165D01*
G01X222725Y-114690D02*
X223045Y-114440D01*
X223418Y-114273D01*
X223845D01*
X224325Y-114523D01*
X224698Y-114940D01*
X224965Y-115440D01*
X225178Y-116273D01*
X225232Y-117023D01*
X225125Y-117773D01*
X224965Y-118273D01*
X224645Y-118773D01*
X224272Y-119106D01*
X223898Y-119273D01*
X223525D01*
X223152Y-119106D01*
X222832Y-118856D01*
X222565Y-118523D01*
G01X220872Y-119273D02*
Y-114273D01*
G01X218845D02*
X220872Y-117356D01*
G01X218525Y-119273D02*
X219965Y-115940D01*
G01X214432Y-119273D02*
X216565D01*
Y-114273D01*
X214432D01*
G01X215285Y-116690D02*
X216565D01*
G01X212365Y-119273D02*
Y-114273D01*
X211032D01*
X210605Y-114523D01*
X210338Y-114856D01*
X210232Y-115523D01*
X210338Y-116190D01*
X210658Y-116606D01*
X211032Y-116856D01*
X212365D01*
G01X211032D02*
X210232Y-119273D01*
G01X207098Y-119440D02*
X207205Y-119356D01*
Y-119190D01*
X207098Y-119106D01*
X206992Y-119190D01*
Y-119356D01*
X207098Y-119440D01*
G01Y-117190D02*
X207205Y-117106D01*
Y-116940D01*
X207098Y-116856D01*
X206992Y-116940D01*
Y-117106D01*
X207098Y-117190D01*
G01X197565Y-108273D02*
Y-103273D01*
X196285D01*
X195858Y-103523D01*
X195538Y-104106D01*
X195432Y-104773D01*
X195538Y-105440D01*
X195805Y-105940D01*
X196285Y-106190D01*
X197565D01*
G01X192298Y-103273D02*
Y-108273D01*
G01X193525Y-103273D02*
X191072D01*
G01X189218Y-108273D02*
Y-103273D01*
G01X186978D02*
Y-108273D01*
G01Y-105773D02*
X189218D01*
G01X185232Y-103273D02*
X183898Y-108273D01*
X182565Y-103273D01*
G01X180872Y-108273D02*
Y-103273D01*
X179805D01*
X179378Y-103523D01*
X179058Y-103856D01*
X178792Y-104356D01*
X178578Y-104940D01*
X178525Y-105773D01*
X178578Y-106606D01*
X178792Y-107190D01*
X179058Y-107690D01*
X179378Y-108023D01*
X179805Y-108273D01*
X180872D01*
G01X174325Y-103690D02*
X174645Y-103440D01*
X175018Y-103273D01*
X175445D01*
X175925Y-103523D01*
X176298Y-103940D01*
X176565Y-104440D01*
X176779Y-105273D01*
X176832Y-106023D01*
X176725Y-106773D01*
X176565Y-107273D01*
X176245Y-107773D01*
X175872Y-108106D01*
X175498Y-108273D01*
X175125D01*
X174752Y-108106D01*
X174432Y-107856D01*
X174165Y-107523D01*
G01X237672Y-108273D02*
Y-103273D01*
X236605D01*
X236178Y-103523D01*
X235858Y-103856D01*
X235592Y-104356D01*
X235378Y-104940D01*
X235325Y-105773D01*
X235378Y-106606D01*
X235592Y-107190D01*
X235858Y-107690D01*
X236178Y-108023D01*
X236605Y-108273D01*
X237672D01*
G01X231232D02*
X233365D01*
Y-103273D01*
X231232D01*
G01X232085Y-105689D02*
X233365D01*
G01X229218Y-107606D02*
X228792Y-108023D01*
X228312Y-108273D01*
X227885D01*
X227458Y-108023D01*
X227138Y-107606D01*
X226978Y-107023D01*
X227085Y-106440D01*
X227352Y-105940D01*
X227832Y-105606D01*
X228472Y-105440D01*
X228845Y-105106D01*
X229005Y-104523D01*
X228898Y-103940D01*
X228632Y-103523D01*
X228258Y-103273D01*
X227885D01*
X227512Y-103440D01*
X227192Y-103856D01*
G01X224538Y-103273D02*
X223259D01*
G01X223898D02*
Y-108273D01*
G01X224538D02*
X223259D01*
G01X219378Y-105773D02*
X218312D01*
Y-107273D01*
X218632Y-107773D01*
X219005Y-108106D01*
X219538Y-108273D01*
X220072Y-108106D01*
X220445Y-107773D01*
X220765Y-107273D01*
X220978Y-106690D01*
X221085Y-106023D01*
Y-105440D01*
X220978Y-104940D01*
X220765Y-104356D01*
X220445Y-103856D01*
X220125Y-103523D01*
X219698Y-103273D01*
X219325D01*
X218898Y-103440D01*
X218578Y-103773D01*
G01X216725Y-108273D02*
Y-103273D01*
X214272Y-108273D01*
Y-103273D01*
G01X210232Y-108273D02*
X212365D01*
Y-103273D01*
X210232D01*
G01X211085Y-105689D02*
X212365D01*
G01X208165Y-108273D02*
Y-103273D01*
X206832D01*
X206405Y-103523D01*
X206138Y-103856D01*
X206032Y-104523D01*
X206138Y-105190D01*
X206458Y-105606D01*
X206832Y-105856D01*
X208165D01*
G01X206832D02*
X206032Y-108273D01*
G01X202898Y-108440D02*
X203005Y-108356D01*
Y-108190D01*
X202898Y-108106D01*
X202792Y-108190D01*
Y-108356D01*
X202898Y-108440D01*
G01Y-106190D02*
X203005Y-106106D01*
Y-105940D01*
X202898Y-105856D01*
X202792Y-105940D01*
Y-106106D01*
X202898Y-106190D01*
G01X190598Y-73773D02*
X191265Y-74023D01*
X191765Y-74648D01*
X192098Y-75398D01*
X192348Y-76398D01*
X192432Y-77523D01*
X192348Y-78648D01*
X192098Y-79648D01*
X191765Y-80398D01*
X191265Y-81023D01*
X190598Y-81273D01*
X189932Y-81023D01*
X189432Y-80398D01*
X189098Y-79648D01*
X188848Y-78648D01*
X188765Y-77523D01*
X188848Y-76398D01*
X189098Y-75398D01*
X189432Y-74648D01*
X189932Y-74023D01*
X190598Y-73773D01*
G01X185682Y-75023D02*
X185182Y-74273D01*
X184598Y-73898D01*
X183932Y-73773D01*
X183098Y-74023D01*
X182515Y-74648D01*
X182348Y-75398D01*
X182432Y-76148D01*
X182765Y-76773D01*
X184432Y-78023D01*
X185182Y-78898D01*
X185682Y-80148D01*
X185848Y-81273D01*
X182348D01*
G01X231265Y-73773D02*
Y-81273D01*
X227932D01*
G01X225182D02*
X223098Y-73773D01*
X221015Y-81273D01*
G01X221765Y-78648D02*
X224432D01*
G01X216598Y-81273D02*
Y-77898D01*
X218265Y-73773D01*
G01X214932D02*
X216598Y-77898D01*
G01X208432Y-81273D02*
X211765D01*
Y-73773D01*
X208432D01*
G01X209765Y-77398D02*
X211765D01*
G01X205265Y-81273D02*
Y-73773D01*
X203182D01*
X202515Y-74148D01*
X202098Y-74648D01*
X201932Y-75648D01*
X202098Y-76648D01*
X202598Y-77273D01*
X203182Y-77648D01*
X205265D01*
G01X203182D02*
X201932Y-81273D01*
G01X197098Y-81523D02*
X197265Y-81398D01*
Y-81148D01*
X197098Y-81023D01*
X196932Y-81148D01*
Y-81398D01*
X197098Y-81523D01*
G01Y-78148D02*
X197265Y-78023D01*
Y-77773D01*
X197098Y-77648D01*
X196932Y-77773D01*
Y-78023D01*
X197098Y-78148D01*
G01X192500Y130000D02*
X207500D01*
X210000Y127500D01*
Y92500D01*
X207500Y90000D01*
X182500D01*
X180000Y92500D01*
Y127500D01*
X182500Y130000D01*
X192500D01*
G01X237565Y-140273D02*
X237298Y-140773D01*
X236978Y-141106D01*
X236605Y-141273D01*
X236178Y-141106D01*
X235858Y-140773D01*
X235538Y-140273D01*
X235432Y-139606D01*
Y-136273D01*
G01X232298Y-141273D02*
X232725Y-141190D01*
X233098Y-140856D01*
X233418Y-140356D01*
X233632Y-139773D01*
X233738Y-139106D01*
Y-138440D01*
X233632Y-137773D01*
X233418Y-137190D01*
X233098Y-136690D01*
X232725Y-136356D01*
X232298Y-136273D01*
X231872Y-136356D01*
X231498Y-136690D01*
X231178Y-137190D01*
X230965Y-137773D01*
X230858Y-138440D01*
Y-139106D01*
X230965Y-139773D01*
X231178Y-140356D01*
X231498Y-140856D01*
X231872Y-141190D01*
X232298Y-141273D01*
G01X227672Y-138606D02*
X227458Y-138356D01*
X227298Y-137940D01*
X227192Y-137356D01*
X227298Y-136856D01*
X227512Y-136523D01*
X227885Y-136273D01*
X229325D01*
Y-141273D01*
X227565D01*
X227192Y-140940D01*
X226978Y-140440D01*
X226872Y-139856D01*
X226978Y-139273D01*
X227298Y-138773D01*
X227672Y-138606D01*
X229325D01*
G01X224965Y-142940D02*
X223898Y-136273D01*
G01X222832D02*
X223898Y-142940D01*
G01X225498Y-140440D02*
X222298D01*
G01Y-138773D02*
X225498D01*
G01X219698Y-141440D02*
X219805Y-141356D01*
Y-141190D01*
X219698Y-141106D01*
X219592Y-141190D01*
Y-141356D01*
X219698Y-141440D01*
G01Y-139190D02*
X219805Y-139106D01*
Y-138940D01*
X219698Y-138856D01*
X219592Y-138940D01*
Y-139106D01*
X219698Y-139190D01*
G01X236672Y-130273D02*
Y-125273D01*
X235605D01*
X235178Y-125523D01*
X234858Y-125856D01*
X234592Y-126356D01*
X234378Y-126940D01*
X234325Y-127773D01*
X234378Y-128606D01*
X234592Y-129190D01*
X234858Y-129690D01*
X235178Y-130023D01*
X235605Y-130273D01*
X236672D01*
G01X232632D02*
X231298Y-125273D01*
X229965Y-130273D01*
G01X230445Y-128523D02*
X232152D01*
G01X227098Y-125273D02*
Y-130273D01*
G01X228325Y-125273D02*
X225872D01*
G01X221832Y-130273D02*
X223965D01*
Y-125273D01*
X221832D01*
G01X222685Y-127690D02*
X223965D01*
G01X218698Y-130440D02*
X218805Y-130356D01*
Y-130190D01*
X218698Y-130106D01*
X218592Y-130190D01*
Y-130356D01*
X218698Y-130440D01*
G01Y-128190D02*
X218805Y-128106D01*
Y-127940D01*
X218698Y-127856D01*
X218592Y-127940D01*
Y-128106D01*
X218698Y-128190D01*
G01X243098Y-69273D02*
Y-144273D01*
G01X296593Y-119043D02*
G03I-355J0D01*
G01X296554Y-119223D02*
G03I-355J0D01*
G01X296613Y-118853D02*
G03I-355J0D01*
G01X296593Y-117473D02*
G03I-355J0D01*
G01X296613Y-117653D02*
G03I-355J0D01*
G01X296554Y-117293D02*
G03I-355J0D01*
G01X296473Y-119383D02*
G03I-355J0D01*
G01X296363Y-119543D02*
G03I-355J0D01*
G01X296234Y-119673D02*
G03I-355J0D01*
G01X296084Y-119783D02*
G03I-355J0D01*
G01X295913Y-119863D02*
G03I-355J0D01*
G01X295734Y-119903D02*
G03I-355J0D01*
G01X295754Y-116633D02*
G03I-355J0D01*
G01X295934Y-116673D02*
G03I-355J0D01*
G01X296093Y-116753D02*
G03I-355J0D01*
G01X296243Y-116853D02*
G03I-355J0D01*
G01X296373Y-116983D02*
G03I-355J0D01*
G01X296473Y-117133D02*
G03I-355J0D01*
G01X295543Y-119923D02*
G03I-355J0D01*
G01X295573Y-116613D02*
G03I-355J0D01*
G01X293773Y-119923D02*
G03I-355J0D01*
G01Y-116613D02*
G03I-355J0D01*
G01X286384Y-119673D02*
G03I-355J0D01*
G01X286543Y-119543D02*
G03I-355J0D01*
G01X286673Y-119383D02*
G03I-355J0D01*
G01X286784Y-119203D02*
G03I-355J0D01*
G01X286763Y-117253D02*
G03I-355J0D01*
G01X286634Y-117073D02*
G03I-355J0D01*
G01X286473Y-116913D02*
G03I-355J0D01*
G01X291884Y-116613D02*
G03I-355J0D01*
G01X290473Y-119923D02*
G03I-355J0D01*
G01Y-116613D02*
G03I-355J0D01*
G01D02*
G03I-355J0D01*
G01X289054D02*
G03I-355J0D01*
G01X286863Y-119013D02*
G03I-355J0D01*
G01X286904Y-118813D02*
G03I-355J0D01*
G01X286923Y-118613D02*
G03I-355J0D01*
G01Y-117903D02*
G03I-355J0D01*
G01X286934D02*
G03I-355J0D01*
G01X286913Y-117683D02*
G03I-355J0D01*
G01X286854Y-117463D02*
G03I-355J0D01*
G01X286284Y-116783D02*
G03I-355J0D01*
G01X285613Y-119923D02*
G03I-355J0D01*
G01X285813Y-119903D02*
G03I-355J0D01*
G01X286013Y-119863D02*
G03I-355J0D01*
G01X286204Y-119783D02*
G03I-355J0D01*
G01X286084Y-116693D02*
G03I-355J0D01*
G01X285863Y-116633D02*
G03I-355J0D01*
G01X285643Y-116613D02*
G03I-355J0D01*
G01X284693Y-119903D02*
G03I-355J0D01*
G01X284924Y-119923D02*
G03I-355J0D01*
G01X284904Y-116613D02*
G03I-355J0D01*
G01X284684Y-116633D02*
G03I-355J0D01*
G01X283793Y-119273D02*
G03I-355J0D01*
G01X283924Y-119463D02*
G03I-355J0D01*
G01X284084Y-119623D02*
G03I-355J0D01*
G01X284273Y-119753D02*
G03I-355J0D01*
G01X284484Y-119843D02*
G03I-355J0D01*
G01X283704Y-119063D02*
G03I-355J0D01*
G01X284463Y-116693D02*
G03I-355J0D01*
G01X284263Y-116783D02*
G03I-355J0D01*
G01X284084Y-116913D02*
G03I-355J0D01*
G01X283924Y-117073D02*
G03I-355J0D01*
G01X283793Y-117253D02*
G03I-355J0D01*
G01X283704Y-117453D02*
G03I-355J0D01*
G01X283624Y-118623D02*
G03I-355J0D01*
G01X283643Y-118853D02*
G03I-355J0D01*
G01X283624Y-118623D02*
G03I-355J0D01*
G01X283643Y-117673D02*
G03I-355J0D01*
G01X283624Y-117893D02*
G03I-355J0D01*
G01X281493Y-119923D02*
G03I-355J0D01*
G01Y-118273D02*
G03I-355J0D01*
G01D02*
G03I-355J0D01*
G01Y-116613D02*
G03I-355J0D01*
G01D02*
G03I-355J0D01*
G01X279563Y-118273D02*
G03I-355J0D01*
G01D02*
G03I-355J0D01*
G01X278663Y-119923D02*
G03I-355J0D01*
G01X279284Y-118273D02*
G03I-355J0D01*
G01X279113Y-118253D02*
G03I-355J0D01*
G01X278954Y-118203D02*
G03I-355J0D01*
G01X278804Y-118133D02*
G03I-355J0D01*
G01X278673Y-118023D02*
G03I-355J0D01*
G01X278654Y-116843D02*
G03I-355J0D01*
G01X278784Y-116743D02*
G03I-355J0D01*
G01X278913Y-116673D02*
G03I-355J0D01*
G01X279063Y-116633D02*
G03I-355J0D01*
G01X279224Y-116613D02*
G03I-355J0D01*
G01X278563Y-117893D02*
G03I-355J0D01*
G01X278493Y-117743D02*
G03I-355J0D01*
G01X278443Y-117583D02*
G03I-355J0D01*
G01X278424Y-117413D02*
G03I-355J0D01*
G01X278443Y-117253D02*
G03I-355J0D01*
G01X278484Y-117103D02*
G03I-355J0D01*
G01X278554Y-116973D02*
G03I-355J0D01*
G01X294013Y-104033D02*
G03I-355J0D01*
G01Y-103343D02*
G03I-355J0D01*
G01Y-102643D02*
G03I-355J0D01*
G01Y-101253D02*
G03I-355J0D01*
G01Y-101953D02*
G03I-355J0D01*
G01Y-100563D02*
G03I-355J0D01*
G01Y-99873D02*
G03I-355J0D01*
G01Y-99373D02*
G03I-355J0D01*
G01Y-112123D02*
G03I-355J0D01*
G01Y-111673D02*
G03I-355J0D01*
G01Y-110973D02*
G03I-355J0D01*
G01Y-110283D02*
G03I-355J0D01*
G01Y-108893D02*
G03I-355J0D01*
G01Y-109583D02*
G03I-355J0D01*
G01Y-108193D02*
G03I-355J0D01*
G01Y-107503D02*
G03I-355J0D01*
G01Y-106813D02*
G03I-355J0D01*
G01Y-105423D02*
G03I-355J0D01*
G01Y-106113D02*
G03I-355J0D01*
G01Y-104723D02*
G03I-355J0D01*
G01X292463Y-99173D02*
G03I-355J0D01*
G01X290943Y-104033D02*
G03I-355J0D01*
G01Y-103343D02*
G03I-355J0D01*
G01Y-101953D02*
G03I-355J0D01*
G01Y-102643D02*
G03I-355J0D01*
G01X290924Y-101253D02*
G03I-355J0D01*
G01X290913Y-101163D02*
G03I-355J0D01*
G01X290943Y-101383D02*
G03I-355J0D01*
G01X290524Y-100663D02*
G03I-355J0D01*
G01X290704Y-100793D02*
G03I-355J0D01*
G01X290834Y-100963D02*
G03I-355J0D01*
G01X291073Y-98993D02*
G03I-355J0D01*
G01X290193Y-100563D02*
G03I-355J0D01*
G01X290113Y-100553D02*
G03I-355J0D01*
G01X290334Y-100583D02*
G03I-355J0D01*
G01X288593Y-100563D02*
G03I-355J0D01*
G01X287984Y-100953D02*
G03I-355J0D01*
G01X288104Y-100783D02*
G03I-355J0D01*
G01X288273Y-100663D02*
G03I-355J0D01*
G01X288463Y-100583D02*
G03I-355J0D01*
G01X288673Y-100553D02*
G03I-355J0D01*
G01X288104Y-98903D02*
G03I-355J0D01*
G01X287873Y-104033D02*
G03I-355J0D01*
G01Y-103343D02*
G03I-355J0D01*
G01Y-102643D02*
G03I-355J0D01*
G01Y-101953D02*
G03I-355J0D01*
G01X287884Y-101253D02*
G03I-355J0D01*
G01X287873Y-101353D02*
G03I-355J0D01*
G01X287893Y-101143D02*
G03I-355J0D01*
G01X284563Y-104033D02*
G03I-355J0D01*
G01Y-103343D02*
G03I-355J0D01*
G01Y-102643D02*
G03I-355J0D01*
G01Y-101953D02*
G03I-355J0D01*
G01Y-101363D02*
G03I-355J0D01*
G01X284554Y-101253D02*
G03I-355J0D01*
G01X284534Y-101153D02*
G03I-355J0D01*
G01X283834Y-100563D02*
G03I-355J0D01*
G01X283754Y-100553D02*
G03I-355J0D01*
G01X283963Y-100583D02*
G03I-355J0D01*
G01X284154Y-100663D02*
G03I-355J0D01*
G01X284324Y-100793D02*
G03I-355J0D01*
G01X284454Y-100953D02*
G03I-355J0D01*
G01X283773Y-98903D02*
G03I-355J0D01*
G01X282913Y-100563D02*
G03I-355J0D01*
G01X282993Y-100553D02*
G03I-355J0D01*
G01X282004Y-100793D02*
G03I-355J0D01*
G01X282484Y-100623D02*
G03I-355J0D01*
G01X282613Y-98963D02*
G03I-355J0D01*
G01X281493Y-104033D02*
G03I-355J0D01*
G01Y-103343D02*
G03I-355J0D01*
G01Y-102643D02*
G03I-355J0D01*
G01Y-101953D02*
G03I-355J0D01*
G01X281613Y-101253D02*
G03I-355J0D01*
G01X281493Y-101813D02*
G03I-355J0D01*
G01X281524Y-101513D02*
G03I-355J0D01*
G01X281624Y-101233D02*
G03I-355J0D01*
G01X281784Y-100993D02*
G03I-355J0D01*
G01X281313Y-99173D02*
G03I-355J0D01*
G01X281454Y-99133D02*
G03I-355J0D01*
G01X280673Y-99353D02*
G03I-355J0D01*
G01X279943Y-99713D02*
G03I-355J0D01*
G01D02*
G03I-355J0D01*
G01X279734Y-99873D02*
G03I-355J0D01*
G01X278584Y-101253D02*
G03I-355J0D01*
G01X278954Y-100563D02*
G03I-355J0D01*
G01X279293Y-100193D02*
G03I-355J0D01*
G01X278913Y-100603D02*
G03I-355J0D01*
G01X278634Y-101083D02*
G03I-355J0D01*
G01X278424Y-104033D02*
G03I-355J0D01*
G01Y-103343D02*
G03I-355J0D01*
G01Y-102643D02*
G03I-355J0D01*
G01X278443Y-101953D02*
G03I-355J0D01*
G01X278424Y-102163D02*
G03I-355J0D01*
G01X278473Y-101613D02*
G03I-355J0D01*
G01X290943Y-112123D02*
G03I-355J0D01*
G01X287873D02*
G03I-355J0D01*
G01X290943Y-111673D02*
G03I-355J0D01*
G01Y-110973D02*
G03I-355J0D01*
G01Y-109583D02*
G03I-355J0D01*
G01Y-110283D02*
G03I-355J0D01*
G01Y-108893D02*
G03I-355J0D01*
G01Y-108193D02*
G03I-355J0D01*
G01Y-107503D02*
G03I-355J0D01*
G01Y-106113D02*
G03I-355J0D01*
G01Y-106813D02*
G03I-355J0D01*
G01Y-105423D02*
G03I-355J0D01*
G01Y-104723D02*
G03I-355J0D01*
G01X287873Y-111673D02*
G03I-355J0D01*
G01Y-110973D02*
G03I-355J0D01*
G01Y-110283D02*
G03I-355J0D01*
G01Y-109583D02*
G03I-355J0D01*
G01Y-108893D02*
G03I-355J0D01*
G01Y-108193D02*
G03I-355J0D01*
G01Y-107503D02*
G03I-355J0D01*
G01Y-106813D02*
G03I-355J0D01*
G01Y-106113D02*
G03I-355J0D01*
G01Y-105423D02*
G03I-355J0D01*
G01Y-104723D02*
G03I-355J0D01*
G01X284563Y-112123D02*
G03I-355J0D01*
G01X281493D02*
G03I-355J0D01*
G01X278424D02*
G03I-355J0D01*
G01X284563Y-111673D02*
G03I-355J0D01*
G01Y-110973D02*
G03I-355J0D01*
G01Y-110283D02*
G03I-355J0D01*
G01Y-109583D02*
G03I-355J0D01*
G01Y-108893D02*
G03I-355J0D01*
G01Y-108193D02*
G03I-355J0D01*
G01Y-107503D02*
G03I-355J0D01*
G01Y-106813D02*
G03I-355J0D01*
G01Y-106113D02*
G03I-355J0D01*
G01Y-105423D02*
G03I-355J0D01*
G01Y-104723D02*
G03I-355J0D01*
G01X281493Y-111673D02*
G03I-355J0D01*
G01Y-110973D02*
G03I-355J0D01*
G01Y-110283D02*
G03I-355J0D01*
G01Y-109583D02*
G03I-355J0D01*
G01Y-108893D02*
G03I-355J0D01*
G01Y-108193D02*
G03I-355J0D01*
G01Y-107503D02*
G03I-355J0D01*
G01Y-106813D02*
G03I-355J0D01*
G01Y-106113D02*
G03I-355J0D01*
G01Y-105423D02*
G03I-355J0D01*
G01Y-104723D02*
G03I-355J0D01*
G01X278424Y-111673D02*
G03I-355J0D01*
G01Y-110973D02*
G03I-355J0D01*
G01Y-110283D02*
G03I-355J0D01*
G01Y-109583D02*
G03I-355J0D01*
G01Y-108893D02*
G03I-355J0D01*
G01Y-108193D02*
G03I-355J0D01*
G01Y-107503D02*
G03I-355J0D01*
G01Y-106813D02*
G03I-355J0D01*
G01Y-106113D02*
G03I-355J0D01*
G01Y-105423D02*
G03I-355J0D01*
G01Y-104723D02*
G03I-355J0D01*
G01X337243Y-119863D02*
G03I-355J0D01*
G01X337063Y-119903D02*
G03I-355J0D01*
G01X336884Y-119923D02*
G03I-355J0D01*
G01X337123Y-116633D02*
G03I-355J0D01*
G01X336923Y-116613D02*
G03I-355J0D01*
G01X340934Y-119923D02*
G03I-355J0D01*
G01X340873Y-118263D02*
G03I-355J0D01*
G01Y-118273D02*
G03I-355J0D01*
G01X340763Y-119903D02*
G03I-355J0D01*
G01X340604Y-119853D02*
G03I-355J0D01*
G01X340454Y-119783D02*
G03I-355J0D01*
G01X340324Y-119673D02*
G03I-355J0D01*
G01X340213Y-119543D02*
G03I-355J0D01*
G01X340143Y-119393D02*
G03I-355J0D01*
G01X340093Y-119233D02*
G03I-355J0D01*
G01X340073Y-119063D02*
G03I-355J0D01*
G01X340093Y-118903D02*
G03I-355J0D01*
G01X340134Y-118753D02*
G03I-355J0D01*
G01X340204Y-118623D02*
G03I-355J0D01*
G01X340304Y-118493D02*
G03I-355J0D01*
G01X340434Y-118393D02*
G03I-355J0D01*
G01X340563Y-118323D02*
G03I-355J0D01*
G01X340713Y-118283D02*
G03I-355J0D01*
G01X340073Y-116613D02*
G03I-355J0D01*
G01X337923Y-119043D02*
G03I-355J0D01*
G01X337884Y-119223D02*
G03I-355J0D01*
G01X337804Y-119393D02*
G03I-355J0D01*
G01X337693Y-119543D02*
G03I-355J0D01*
G01X337563Y-119673D02*
G03I-355J0D01*
G01X337954Y-118273D02*
G03I-355J0D01*
G01D02*
G03I-355J0D01*
G01Y-118863D02*
G03I-355J0D01*
G01X337943D02*
G03I-355J0D01*
G01X337954Y-117633D02*
G03I-355J0D01*
G01X337943D02*
G03I-355J0D01*
G01X337923Y-117433D02*
G03I-355J0D01*
G01X337863Y-117243D02*
G03I-355J0D01*
G01X337773Y-117063D02*
G03I-355J0D01*
G01X337643Y-116913D02*
G03I-355J0D01*
G01X337493Y-116783D02*
G03I-355J0D01*
G01X337413Y-119783D02*
G03I-355J0D01*
G01X337313Y-116693D02*
G03I-355J0D01*
G01X335113Y-119923D02*
G03I-355J0D01*
G01Y-118273D02*
G03I-355J0D01*
G01Y-116613D02*
G03I-355J0D01*
G01X332754Y-119923D02*
G03I-355J0D01*
G01Y-116613D02*
G03I-355J0D01*
G01X332204D02*
G03I-355J0D01*
G01X330663Y-119923D02*
G03I-355J0D01*
G01X329254Y-116613D02*
G03I-355J0D01*
G01X328734Y-119923D02*
G03I-355J0D01*
G01Y-116613D02*
G03I-355J0D01*
G01X326143Y-119923D02*
G03I-355J0D01*
G01Y-116613D02*
G03I-355J0D01*
G01X323524Y-119023D02*
G03I-355J0D01*
G01X323473Y-119203D02*
G03I-355J0D01*
G01X323393Y-119373D02*
G03I-355J0D01*
G01X323284Y-119533D02*
G03I-355J0D01*
G01X323154Y-119663D02*
G03I-355J0D01*
G01X323004Y-119773D02*
G03I-355J0D01*
G01X323543Y-118833D02*
G03I-355J0D01*
G01X323463Y-117283D02*
G03I-355J0D01*
G01X323524Y-117493D02*
G03I-355J0D01*
G01X323543Y-117703D02*
G03I-355J0D01*
G01X323063Y-116793D02*
G03I-355J0D01*
G01X323224Y-116933D02*
G03I-355J0D01*
G01X323363Y-117093D02*
G03I-355J0D01*
G01X322824Y-119853D02*
G03I-355J0D01*
G01X322643Y-119903D02*
G03I-355J0D01*
G01X322454Y-119923D02*
G03I-355J0D01*
G01Y-116613D02*
G03I-355J0D01*
G01X322663Y-116633D02*
G03I-355J0D01*
G01X322873Y-116693D02*
G03I-355J0D01*
G01X320704Y-119923D02*
G03I-355J0D01*
G01Y-116613D02*
G03I-355J0D01*
G01X317943Y-119753D02*
G03I-355J0D01*
G01X318123Y-119623D02*
G03I-355J0D01*
G01X318284Y-119463D02*
G03I-355J0D01*
G01X318413Y-119273D02*
G03I-355J0D01*
G01X318504Y-119073D02*
G03I-355J0D01*
G01X318563Y-118853D02*
G03I-355J0D01*
G01X318584Y-118633D02*
G03I-355J0D01*
G01Y-117883D02*
G03I-355J0D01*
G01X318563Y-117663D02*
G03I-355J0D01*
G01X318504Y-117453D02*
G03I-355J0D01*
G01X318413Y-117243D02*
G03I-355J0D01*
G01X318284Y-117063D02*
G03I-355J0D01*
G01X318134Y-116913D02*
G03I-355J0D01*
G01X317943Y-116783D02*
G03I-355J0D01*
G01X317293Y-119923D02*
G03I-355J0D01*
G01X317513Y-119903D02*
G03I-355J0D01*
G01X317734Y-119843D02*
G03I-355J0D01*
G01X317743Y-116693D02*
G03I-355J0D01*
G01X317534Y-116633D02*
G03I-355J0D01*
G01X317313Y-116613D02*
G03I-355J0D01*
G01X316184Y-119863D02*
G03I-355J0D01*
G01X316384Y-119903D02*
G03I-355J0D01*
G01X316593Y-119923D02*
G03I-355J0D01*
G01X316573Y-116613D02*
G03I-355J0D01*
G01X316343Y-116633D02*
G03I-355J0D01*
G01X316134Y-116693D02*
G03I-355J0D01*
G01X315413Y-119203D02*
G03I-355J0D01*
G01X315524Y-119383D02*
G03I-355J0D01*
G01X315663Y-119533D02*
G03I-355J0D01*
G01X315813Y-119673D02*
G03I-355J0D01*
G01X315993Y-119783D02*
G03I-355J0D01*
G01X315273Y-118603D02*
G03I-355J0D01*
G01X315293Y-118813D02*
G03I-355J0D01*
G01X315334Y-119013D02*
G03I-355J0D01*
G01X315273Y-118603D02*
G03I-355J0D01*
G01X315443Y-117263D02*
G03I-355J0D01*
G01X315354Y-117473D02*
G03I-355J0D01*
G01X315293Y-117683D02*
G03I-355J0D01*
G01X315273Y-117913D02*
G03I-355J0D01*
G01X315924Y-116783D02*
G03I-355J0D01*
G01X315734Y-116913D02*
G03I-355J0D01*
G01X315573Y-117073D02*
G03I-355J0D01*
G01X312913Y-119923D02*
G03I-355J0D01*
G01Y-116613D02*
G03I-355J0D01*
G01X312434D02*
G03I-355J0D01*
G01X310154Y-119923D02*
G03I-355J0D01*
G01X309604D02*
G03I-355J0D01*
G01Y-116613D02*
G03I-355J0D01*
G01X307243Y-119923D02*
G03I-355J0D01*
G01Y-116613D02*
G03I-355J0D01*
G01X305484Y-119923D02*
G03I-355J0D01*
G01X305284Y-119903D02*
G03I-355J0D01*
G01X305084Y-119863D02*
G03I-355J0D01*
G01X305023Y-116693D02*
G03I-355J0D01*
G01X305243Y-116633D02*
G03I-355J0D01*
G01X305463Y-116613D02*
G03I-355J0D01*
G01X304893Y-119783D02*
G03I-355J0D01*
G01X304713Y-119673D02*
G03I-355J0D01*
G01X304554Y-119543D02*
G03I-355J0D01*
G01X304423Y-119383D02*
G03I-355J0D01*
G01X304313Y-119203D02*
G03I-355J0D01*
G01X304234Y-119013D02*
G03I-355J0D01*
G01X304193Y-118813D02*
G03I-355J0D01*
G01X304173Y-118613D02*
G03I-355J0D01*
G01Y-117903D02*
G03I-355J0D01*
G01X304193Y-117683D02*
G03I-355J0D01*
G01X304254Y-117463D02*
G03I-355J0D01*
G01X304343Y-117253D02*
G03I-355J0D01*
G01X304173Y-117903D02*
G03I-355J0D01*
G01X304473Y-117073D02*
G03I-355J0D01*
G01X304634Y-116913D02*
G03I-355J0D01*
G01X304813Y-116783D02*
G03I-355J0D01*
G01X301743Y-119103D02*
G03I-355J0D01*
G01X301643Y-119303D02*
G03I-355J0D01*
G01X301804Y-118683D02*
G03I-355J0D01*
G01X301813D02*
G03I-355J0D01*
G01X301793Y-118903D02*
G03I-355J0D01*
G01X301804Y-116613D02*
G03I-355J0D01*
G01X301524Y-119483D02*
G03I-355J0D01*
G01X301373Y-119633D02*
G03I-355J0D01*
G01X301193Y-119753D02*
G03I-355J0D01*
G01X300993Y-119853D02*
G03I-355J0D01*
G01X300793Y-119903D02*
G03I-355J0D01*
G01X300573Y-119923D02*
G03I-355J0D01*
G01X300054D02*
G03I-355J0D01*
G01X299823Y-119903D02*
G03I-355J0D01*
G01X299604Y-119843D02*
G03I-355J0D01*
G01X299393Y-119743D02*
G03I-355J0D01*
G01X299213Y-119613D02*
G03I-355J0D01*
G01X299054Y-119453D02*
G03I-355J0D01*
G01X298924Y-119263D02*
G03I-355J0D01*
G01X298824Y-119063D02*
G03I-355J0D01*
G01X298763Y-118843D02*
G03I-355J0D01*
G01X298743Y-118613D02*
G03I-355J0D01*
G01X298734D02*
G03I-355J0D01*
G01Y-116613D02*
G03I-355J0D01*
G01X340073Y-104033D02*
G03I-355J0D01*
G01Y-103343D02*
G03I-355J0D01*
G01Y-102643D02*
G03I-355J0D01*
G01Y-101253D02*
G03I-355J0D01*
G01Y-101953D02*
G03I-355J0D01*
G01Y-101093D02*
G03I-355J0D01*
G01X340054Y-100893D02*
G03I-355J0D01*
G01X339863Y-100563D02*
G03I-355J0D01*
G01X339973Y-100703D02*
G03I-355J0D01*
G01X339854Y-100543D02*
G03I-355J0D01*
G01X339684Y-100423D02*
G03I-355J0D01*
G01X339504Y-100343D02*
G03I-355J0D01*
G01X339304Y-100313D02*
G03I-355J0D01*
G01X338893Y-98903D02*
G03I-355J0D01*
G01X336454Y-100313D02*
G03I-355J0D01*
G01X335763Y-100343D02*
G03I-355J0D01*
G01X335863Y-98903D02*
G03I-355J0D01*
G01X334954Y-100563D02*
G03I-355J0D01*
G01X335084Y-100503D02*
G03I-355J0D01*
G01X334134Y-101103D02*
G03I-355J0D01*
G01X334034Y-101253D02*
G03I-355J0D01*
G01X334443Y-100793D02*
G03I-355J0D01*
G01X334193Y-99023D02*
G03I-355J0D01*
G01X333793Y-104033D02*
G03I-355J0D01*
G01X333743Y-103863D02*
G03I-355J0D01*
G01X333693Y-103343D02*
G03I-355J0D01*
G01Y-103423D02*
G03I-355J0D01*
G01Y-102643D02*
G03I-355J0D01*
G01X333743Y-101953D02*
G03I-355J0D01*
G01X333754Y-101883D02*
G03I-355J0D01*
G01X333693Y-102323D02*
G03I-355J0D01*
G01X333904Y-101473D02*
G03I-355J0D01*
G01X333473Y-99173D02*
G03I-355J0D01*
G01X332554Y-99373D02*
G03I-355J0D01*
G01X331763Y-99873D02*
G03I-355J0D01*
G01X331513Y-100073D02*
G03I-355J0D01*
G01X332004Y-99673D02*
G03I-355J0D01*
G01X330634Y-104033D02*
G03I-355J0D01*
G01X330623Y-103973D02*
G03I-355J0D01*
G01Y-103343D02*
G03I-355J0D01*
G01Y-102643D02*
G03I-355J0D01*
G01Y-101953D02*
G03I-355J0D01*
G01X330724Y-101253D02*
G03I-355J0D01*
G01X330623Y-101973D02*
G03I-355J0D01*
G01X330643Y-101593D02*
G03I-355J0D01*
G01X330734Y-101213D02*
G03I-355J0D01*
G01X331093Y-100563D02*
G03I-355J0D01*
G01X330884Y-100863D02*
G03I-355J0D01*
G01X331104Y-100553D02*
G03I-355J0D01*
G01X327554Y-104033D02*
G03I-355J0D01*
G01Y-103343D02*
G03I-355J0D01*
G01Y-102643D02*
G03I-355J0D01*
G01X327523Y-101953D02*
G03I-355J0D01*
G01X327554Y-102283D02*
G03I-355J0D01*
G01X327334Y-101253D02*
G03I-355J0D01*
G01X327384Y-101343D02*
G03I-355J0D01*
G01X327513Y-101803D02*
G03I-355J0D01*
G01X327384Y-101343D02*
G03I-355J0D01*
G01X326873Y-100563D02*
G03I-355J0D01*
G01X327154Y-100923D02*
G03I-355J0D01*
G01X326863Y-100543D02*
G03I-355J0D01*
G01X326493Y-100233D02*
G03I-355J0D01*
G01X326043Y-99873D02*
G03I-355J0D01*
G01X325863Y-99723D02*
G03I-355J0D01*
G01X325154Y-99333D02*
G03I-355J0D01*
G01X324684Y-99173D02*
G03I-355J0D01*
G01X324484Y-104033D02*
G03I-355J0D01*
G01Y-103343D02*
G03I-355J0D01*
G01Y-102643D02*
G03I-355J0D01*
G01X324373Y-101953D02*
G03I-355J0D01*
G01X324443Y-102193D02*
G03I-355J0D01*
G01X324484Y-102603D02*
G03I-355J0D01*
G01X324124Y-101453D02*
G03I-355J0D01*
G01X324324Y-101803D02*
G03I-355J0D01*
G01X323954Y-101253D02*
G03I-355J0D01*
G01X323854Y-101143D02*
G03I-355J0D01*
G01D02*
G03I-355J0D01*
G01X324393Y-99073D02*
G03I-355J0D01*
G01X323024Y-100563D02*
G03I-355J0D01*
G01X323424Y-100773D02*
G03I-355J0D01*
G01X323593Y-98933D02*
G03I-355J0D01*
G01X322373Y-100353D02*
G03I-355J0D01*
G01X322923Y-100503D02*
G03I-355J0D01*
G01X322793Y-98903D02*
G03I-355J0D01*
G01X321804Y-100313D02*
G03I-355J0D01*
G01X319813Y-100343D02*
G03I-355J0D01*
G01X320354Y-100313D02*
G03I-355J0D01*
G01X319684Y-98903D02*
G03I-355J0D01*
G01X319104Y-100563D02*
G03I-355J0D01*
G01X318813Y-100703D02*
G03I-355J0D01*
G01X319293Y-100473D02*
G03I-355J0D01*
G01X318824Y-98933D02*
G03I-355J0D01*
G01X340073Y-112123D02*
G03I-355J0D01*
G01X336863Y-108193D02*
G03I-355J0D01*
G01X340073Y-111673D02*
G03I-355J0D01*
G01Y-110973D02*
G03I-355J0D01*
G01Y-110283D02*
G03I-355J0D01*
G01Y-108893D02*
G03I-355J0D01*
G01Y-109583D02*
G03I-355J0D01*
G01Y-108193D02*
G03I-355J0D01*
G01Y-107503D02*
G03I-355J0D01*
G01Y-106813D02*
G03I-355J0D01*
G01Y-105423D02*
G03I-355J0D01*
G01Y-106113D02*
G03I-355J0D01*
G01Y-104723D02*
G03I-355J0D01*
G01X337463Y-107503D02*
G03I-355J0D01*
G01X337954Y-106813D02*
G03I-355J0D01*
G01Y-106113D02*
G03I-355J0D01*
G01Y-106933D02*
G03I-355J0D01*
G01Y-105513D02*
G03I-355J0D01*
G01X333504Y-112123D02*
G03I-355J0D01*
G01X329843D02*
G03I-355J0D01*
G01X324524Y-111893D02*
G03I-355J0D01*
G01X323504Y-112063D02*
G03I-355J0D01*
G01X322473Y-112123D02*
G03I-355J0D01*
G01X319724D02*
G03I-355J0D01*
G01X318813Y-112093D02*
G03I-355J0D01*
G01X336273Y-108893D02*
G03I-355J0D01*
G01X336173Y-105513D02*
G03I-355J0D01*
G01X335084Y-110283D02*
G03I-355J0D01*
G01X335673Y-109583D02*
G03I-355J0D01*
G01X335404Y-105423D02*
G03I-355J0D01*
G01X335034Y-105323D02*
G03I-355J0D01*
G01X335593Y-105473D02*
G03I-355J0D01*
G01X334484Y-110973D02*
G03I-355J0D01*
G01X334054Y-107503D02*
G03I-355J0D01*
G01X334293Y-107243D02*
G03I-355J0D01*
G01Y-106813D02*
G03I-355J0D01*
G01Y-106733D02*
G03I-355J0D01*
G01X334104Y-104723D02*
G03I-355J0D01*
G01X334054Y-104683D02*
G03I-355J0D01*
G01X334513Y-105053D02*
G03I-355J0D01*
G01X333893Y-111673D02*
G03I-355J0D01*
G01X333424Y-108193D02*
G03I-355J0D01*
G01X333593Y-106723D02*
G03I-355J0D01*
G01X333863Y-104283D02*
G03I-355J0D01*
G01X332784Y-108893D02*
G03I-355J0D01*
G01X332913Y-106603D02*
G03I-355J0D01*
G01X331524Y-110283D02*
G03I-355J0D01*
G01X332154Y-109583D02*
G03I-355J0D01*
G01X331813Y-106113D02*
G03I-355J0D01*
G01X332254Y-106363D02*
G03I-355J0D01*
G01X331654Y-106023D02*
G03I-355J0D01*
G01X330893Y-110973D02*
G03I-355J0D01*
G01X331063Y-105423D02*
G03I-355J0D01*
G01X331293Y-105713D02*
G03I-355J0D01*
G01X331004Y-105333D02*
G03I-355J0D01*
G01X330734Y-104723D02*
G03I-355J0D01*
G01X330784Y-104913D02*
G03I-355J0D01*
G01X330663Y-104453D02*
G03I-355J0D01*
G01X330254Y-111673D02*
G03I-355J0D01*
G01X327484Y-109583D02*
G03I-355J0D01*
G01X327384Y-109933D02*
G03I-355J0D01*
G01X327554Y-108893D02*
G03I-355J0D01*
G01X327523Y-109463D02*
G03I-355J0D01*
G01X327554Y-108973D02*
G03I-355J0D01*
G01Y-108193D02*
G03I-355J0D01*
G01Y-107503D02*
G03I-355J0D01*
G01Y-106813D02*
G03I-355J0D01*
G01Y-106113D02*
G03I-355J0D01*
G01Y-105423D02*
G03I-355J0D01*
G01Y-104723D02*
G03I-355J0D01*
G01Y-105043D02*
G03I-355J0D01*
G01D02*
G03I-355J0D01*
G01D02*
G03I-355J0D01*
G01X326524Y-110973D02*
G03I-355J0D01*
G01X326454Y-111023D02*
G03I-355J0D01*
G01X326843Y-110733D02*
G03I-355J0D01*
G01X327204Y-110283D02*
G03I-355J0D01*
G01X327154Y-110363D02*
G03I-355J0D01*
G01X325854Y-111403D02*
G03I-355J0D01*
G01X325263Y-111673D02*
G03I-355J0D01*
G01X325204Y-111693D02*
G03I-355J0D01*
G01X324063Y-109583D02*
G03I-355J0D01*
G01X324043Y-109613D02*
G03I-355J0D01*
G01X324393Y-108893D02*
G03I-355J0D01*
G01X324454Y-108723D02*
G03I-355J0D01*
G01X324304Y-109193D02*
G03I-355J0D01*
G01X324484Y-108193D02*
G03I-355J0D01*
G01Y-108233D02*
G03I-355J0D01*
G01Y-107503D02*
G03I-355J0D01*
G01Y-106813D02*
G03I-355J0D01*
G01Y-106113D02*
G03I-355J0D01*
G01Y-105423D02*
G03I-355J0D01*
G01Y-104723D02*
G03I-355J0D01*
G01Y-105043D02*
G03I-355J0D01*
G01D02*
G03I-355J0D01*
G01D02*
G03I-355J0D01*
G01X323323Y-110283D02*
G03I-355J0D01*
G01X323693Y-109963D02*
G03I-355J0D01*
G01X323334Y-110283D02*
G03I-355J0D01*
G01X322913Y-110513D02*
G03I-355J0D01*
G01X322443Y-110663D02*
G03I-355J0D01*
G01X321963Y-110713D02*
G03I-355J0D01*
G01X320354D02*
G03I-355J0D01*
G01X319754Y-110673D02*
G03I-355J0D01*
G01X319184Y-110513D02*
G03I-355J0D01*
G01X318134Y-101253D02*
G03I-355J0D01*
G01X318054Y-101323D02*
G03I-355J0D01*
G01X318384Y-101023D02*
G03I-355J0D01*
G01X317973Y-99093D02*
G03I-355J0D01*
G01X317634Y-104033D02*
G03I-355J0D01*
G01Y-103343D02*
G03I-355J0D01*
G01X317723Y-101953D02*
G03I-355J0D01*
G01X317634Y-102643D02*
G03I-355J0D01*
G01Y-102563D02*
G03I-355J0D01*
G01X317673Y-102113D02*
G03I-355J0D01*
G01X317813Y-101693D02*
G03I-355J0D01*
G01X317163Y-99373D02*
G03I-355J0D01*
G01X317734Y-99173D02*
G03I-355J0D01*
G01X316163Y-99873D02*
G03I-355J0D01*
G01X316534Y-99643D02*
G03I-355J0D01*
G01X315324Y-100563D02*
G03I-355J0D01*
G01X315434Y-100433D02*
G03I-355J0D01*
G01X315954Y-99993D02*
G03I-355J0D01*
G01X314563Y-104033D02*
G03I-355J0D01*
G01Y-103343D02*
G03I-355J0D01*
G01X314613Y-101953D02*
G03I-355J0D01*
G01X314563Y-102643D02*
G03I-355J0D01*
G01X314613Y-101973D02*
G03I-355J0D01*
G01X314563Y-102563D02*
G03I-355J0D01*
G01X314854Y-101253D02*
G03I-355J0D01*
G01X314773Y-101403D02*
G03I-355J0D01*
G01X315054Y-100883D02*
G03I-355J0D01*
G01X311254Y-104033D02*
G03I-355J0D01*
G01Y-103343D02*
G03I-355J0D01*
G01Y-102643D02*
G03I-355J0D01*
G01Y-101953D02*
G03I-355J0D01*
G01Y-101253D02*
G03I-355J0D01*
G01Y-100563D02*
G03I-355J0D01*
G01Y-99373D02*
G03I-355J0D01*
G01Y-99873D02*
G03I-355J0D01*
G01X307893Y-104033D02*
G03I-355J0D01*
G01X307954Y-103763D02*
G03I-355J0D01*
G01X307923Y-103973D02*
G03I-355J0D01*
G01X307843Y-104163D02*
G03I-355J0D01*
G01X307954Y-103343D02*
G03I-355J0D01*
G01Y-102643D02*
G03I-355J0D01*
G01Y-101953D02*
G03I-355J0D01*
G01Y-101253D02*
G03I-355J0D01*
G01Y-100563D02*
G03I-355J0D01*
G01Y-99373D02*
G03I-355J0D01*
G01D02*
G03I-355J0D01*
G01Y-99873D02*
G03I-355J0D01*
G01X300913Y-104033D02*
G03I-355J0D01*
G01X300973Y-104173D02*
G03I-355J0D01*
G01X300893Y-103983D02*
G03I-355J0D01*
G01X300863Y-103783D02*
G03I-355J0D01*
G01Y-103343D02*
G03I-355J0D01*
G01Y-101953D02*
G03I-355J0D01*
G01Y-102643D02*
G03I-355J0D01*
G01Y-101253D02*
G03I-355J0D01*
G01Y-100563D02*
G03I-355J0D01*
G01Y-99873D02*
G03I-355J0D01*
G01Y-99373D02*
G03I-355J0D01*
G01X297554Y-104033D02*
G03I-355J0D01*
G01Y-103343D02*
G03I-355J0D01*
G01Y-101953D02*
G03I-355J0D01*
G01Y-102643D02*
G03I-355J0D01*
G01Y-101253D02*
G03I-355J0D01*
G01Y-100563D02*
G03I-355J0D01*
G01Y-99873D02*
G03I-355J0D01*
G01Y-99373D02*
G03I-355J0D01*
G01X317913Y-111953D02*
G03I-355J0D01*
G01X318713Y-110283D02*
G03I-355J0D01*
G01X318013Y-109583D02*
G03I-355J0D01*
G01X318654Y-110253D02*
G03I-355J0D01*
G01X318184Y-109883D02*
G03I-355J0D01*
G01X317884Y-109373D02*
G03I-355J0D01*
G01X316993Y-111673D02*
G03I-355J0D01*
G01X317043Y-111693D02*
G03I-355J0D01*
G01X317723Y-108893D02*
G03I-355J0D01*
G01X317693Y-108813D02*
G03I-355J0D01*
G01X317634Y-108193D02*
G03I-355J0D01*
G01Y-108233D02*
G03I-355J0D01*
G01Y-107503D02*
G03I-355J0D01*
G01Y-106113D02*
G03I-355J0D01*
G01Y-106813D02*
G03I-355J0D01*
G01Y-105423D02*
G03I-355J0D01*
G01Y-104723D02*
G03I-355J0D01*
G01X316463Y-111423D02*
G03I-355J0D01*
G01X315834Y-110973D02*
G03I-355J0D01*
G01X315473Y-110633D02*
G03I-355J0D01*
G01X315934Y-111073D02*
G03I-355J0D01*
G01X314734Y-109583D02*
G03I-355J0D01*
G01X315124Y-110283D02*
G03I-355J0D01*
G01X314793Y-109773D02*
G03I-355J0D01*
G01X315084Y-110243D02*
G03I-355J0D01*
G01X314584Y-108893D02*
G03I-355J0D01*
G01X314613Y-109253D02*
G03I-355J0D01*
G01X314563Y-108193D02*
G03I-355J0D01*
G01Y-108703D02*
G03I-355J0D01*
G01Y-107503D02*
G03I-355J0D01*
G01Y-106813D02*
G03I-355J0D01*
G01Y-105423D02*
G03I-355J0D01*
G01Y-106113D02*
G03I-355J0D01*
G01Y-104723D02*
G03I-355J0D01*
G01X311254Y-112123D02*
G03I-355J0D01*
G01X307954D02*
G03I-355J0D01*
G01X300863D02*
G03I-355J0D01*
G01X297554D02*
G03I-355J0D01*
G01X311254Y-111673D02*
G03I-355J0D01*
G01Y-110973D02*
G03I-355J0D01*
G01Y-110283D02*
G03I-355J0D01*
G01Y-109583D02*
G03I-355J0D01*
G01Y-108893D02*
G03I-355J0D01*
G01Y-108193D02*
G03I-355J0D01*
G01Y-107503D02*
G03I-355J0D01*
G01Y-106813D02*
G03I-355J0D01*
G01Y-105423D02*
G03I-355J0D01*
G01Y-106113D02*
G03I-355J0D01*
G01Y-104723D02*
G03I-355J0D01*
G01X307954Y-111673D02*
G03I-355J0D01*
G01Y-110973D02*
G03I-355J0D01*
G01Y-110283D02*
G03I-355J0D01*
G01Y-109583D02*
G03I-355J0D01*
G01Y-108893D02*
G03I-355J0D01*
G01Y-108193D02*
G03I-355J0D01*
G01Y-107503D02*
G03I-355J0D01*
G01Y-107003D02*
G03I-355J0D01*
G01X307923Y-106813D02*
G03I-355J0D01*
G01X307723Y-106453D02*
G03I-355J0D01*
G01X307843Y-106613D02*
G03I-355J0D01*
G01X307923Y-106803D02*
G03I-355J0D01*
G01X307713Y-104333D02*
G03I-355J0D01*
G01X307173Y-106223D02*
G03I-355J0D01*
G01X307373Y-106243D02*
G03I-355J0D01*
G01X307563Y-106323D02*
G03I-355J0D01*
G01X307543Y-104463D02*
G03I-355J0D01*
G01X307354Y-104543D02*
G03I-355J0D01*
G01X307143Y-104563D02*
G03I-355J0D01*
G01X301693Y-106223D02*
G03I-355J0D01*
G01X301643Y-104563D02*
G03I-355J0D01*
G01X300863Y-111673D02*
G03I-355J0D01*
G01Y-110973D02*
G03I-355J0D01*
G01Y-110283D02*
G03I-355J0D01*
G01Y-108893D02*
G03I-355J0D01*
G01Y-109583D02*
G03I-355J0D01*
G01Y-108193D02*
G03I-355J0D01*
G01Y-107503D02*
G03I-355J0D01*
G01X300904Y-106813D02*
G03I-355J0D01*
G01X300863Y-107053D02*
G03I-355J0D01*
G01X300893Y-106833D02*
G03I-355J0D01*
G01X300973Y-106633D02*
G03I-355J0D01*
G01X301104Y-106463D02*
G03I-355J0D01*
G01X301273Y-106333D02*
G03I-355J0D01*
G01X301484Y-106253D02*
G03I-355J0D01*
G01X301443Y-104543D02*
G03I-355J0D01*
G01X301254Y-104463D02*
G03I-355J0D01*
G01X301093Y-104343D02*
G03I-355J0D01*
G01X297554Y-111673D02*
G03I-355J0D01*
G01Y-110973D02*
G03I-355J0D01*
G01Y-109583D02*
G03I-355J0D01*
G01Y-110283D02*
G03I-355J0D01*
G01Y-108893D02*
G03I-355J0D01*
G01Y-108193D02*
G03I-355J0D01*
G01Y-107503D02*
G03I-355J0D01*
G01Y-106813D02*
G03I-355J0D01*
G01Y-105423D02*
G03I-355J0D01*
G01Y-106113D02*
G03I-355J0D01*
G01Y-104723D02*
G03I-355J0D01*
G01X310000Y0D02*
Y220000D01*
G01X343384Y-119923D02*
G03I-355J0D01*
G01X342663Y-118243D02*
G03I-355J0D01*
G01X342834Y-118193D02*
G03I-355J0D01*
G01X342984Y-118113D02*
G03I-355J0D01*
G01X343123Y-118003D02*
G03I-355J0D01*
G01X343234Y-117863D02*
G03I-355J0D01*
G01X343313Y-117713D02*
G03I-355J0D01*
G01X343363Y-117543D02*
G03I-355J0D01*
G01X343384Y-117373D02*
G03I-355J0D01*
G01X343363Y-117203D02*
G03I-355J0D01*
G01X343304Y-117043D02*
G03I-355J0D01*
G01X343213Y-116903D02*
G03I-355J0D01*
G01X343093Y-116783D02*
G03I-355J0D01*
G01X342954Y-116693D02*
G03I-355J0D01*
G01X342793Y-116633D02*
G03I-355J0D01*
G01X342624Y-116613D02*
G03I-355J0D01*
G01X342493Y-118273D02*
G03I-355J0D01*
G01Y-118263D02*
G03I-355J0D01*
G01X343384Y-104033D02*
G03I-355J0D01*
G01Y-103343D02*
G03I-355J0D01*
G01Y-101953D02*
G03I-355J0D01*
G01Y-102643D02*
G03I-355J0D01*
G01Y-101253D02*
G03I-355J0D01*
G01Y-100563D02*
G03I-355J0D01*
G01Y-99873D02*
G03I-355J0D01*
G01Y-99373D02*
G03I-355J0D01*
G01D02*
G03I-355J0D01*
G01X342043Y-99173D02*
G03I-355J0D01*
G01X341143Y-99043D02*
G03I-355J0D01*
G01X343384Y-112123D02*
G03I-355J0D01*
G01Y-111673D02*
G03I-355J0D01*
G01Y-110973D02*
G03I-355J0D01*
G01Y-109583D02*
G03I-355J0D01*
G01Y-110283D02*
G03I-355J0D01*
G01Y-108893D02*
G03I-355J0D01*
G01Y-108193D02*
G03I-355J0D01*
G01Y-107503D02*
G03I-355J0D01*
G01Y-106113D02*
G03I-355J0D01*
G01Y-106813D02*
G03I-355J0D01*
G01Y-105423D02*
G03I-355J0D01*
G01Y-104723D02*
G03I-355J0D01*
G54D16*
G01X-54502Y-135773D02*
X-53968Y-135973D01*
X-53568Y-136473D01*
X-53302Y-137073D01*
X-53102Y-137873D01*
X-53035Y-138773D01*
X-53102Y-139673D01*
X-53302Y-140473D01*
X-53568Y-141073D01*
X-53968Y-141573D01*
X-54502Y-141773D01*
X-55035Y-141573D01*
X-55435Y-141073D01*
X-55702Y-140473D01*
X-55902Y-139673D01*
X-55968Y-138773D01*
X-55902Y-137873D01*
X-55702Y-137073D01*
X-55435Y-136473D01*
X-55035Y-135973D01*
X-54502Y-135773D01*
G01X-58035Y-136773D02*
X-58435Y-136173D01*
X-58902Y-135873D01*
X-59435Y-135773D01*
X-60102Y-135973D01*
X-60568Y-136473D01*
X-60702Y-137073D01*
X-60635Y-137673D01*
X-60368Y-138173D01*
X-59035Y-139173D01*
X-58435Y-139873D01*
X-58035Y-140873D01*
X-57902Y-141773D01*
X-60702D01*
G01X77332Y-94273D02*
Y-88273D01*
X75665D01*
X75132Y-88573D01*
X74798Y-88973D01*
X74665Y-89773D01*
X74798Y-90573D01*
X75198Y-91073D01*
X75665Y-91373D01*
X77332D01*
G01X75665D02*
X74665Y-94273D01*
G01X71198D02*
X71732Y-94173D01*
X72198Y-93773D01*
X72598Y-93173D01*
X72865Y-92473D01*
X72998Y-91673D01*
Y-90873D01*
X72865Y-90073D01*
X72598Y-89373D01*
X72198Y-88773D01*
X71732Y-88373D01*
X71198Y-88273D01*
X70665Y-88373D01*
X70198Y-88773D01*
X69798Y-89373D01*
X69532Y-90073D01*
X69398Y-90873D01*
Y-91673D01*
X69532Y-92473D01*
X69798Y-93173D01*
X70198Y-93773D01*
X70665Y-94173D01*
X71198Y-94273D01*
G01X67798D02*
Y-88273D01*
G01X64998D02*
Y-94273D01*
G01Y-91273D02*
X67798D01*
G01X63332Y-94273D02*
Y-88273D01*
X61598Y-93273D01*
X59865Y-88273D01*
Y-94273D01*
G01X53398Y-93473D02*
X52865Y-93973D01*
X52265Y-94273D01*
X51732D01*
X51198Y-93973D01*
X50798Y-93473D01*
X50598Y-92773D01*
X50732Y-92073D01*
X51065Y-91473D01*
X51665Y-91073D01*
X52465Y-90873D01*
X52932Y-90473D01*
X53132Y-89773D01*
X52998Y-89073D01*
X52665Y-88573D01*
X52198Y-88273D01*
X51732D01*
X51265Y-88473D01*
X50865Y-88973D01*
G01X45865Y-94273D02*
X48532D01*
Y-88273D01*
X45865D01*
G01X46932Y-91173D02*
X48532D01*
G01X44132Y-94273D02*
Y-88273D01*
X42398Y-93273D01*
X40665Y-88273D01*
Y-94273D01*
G01X38398Y-88273D02*
X36798D01*
G01X37598D02*
Y-94273D01*
G01X38398D02*
X36798D01*
G01X31332Y-88773D02*
X31732Y-88473D01*
X32198Y-88273D01*
X32732D01*
X33332Y-88573D01*
X33798Y-89073D01*
X34132Y-89673D01*
X34399Y-90673D01*
X34465Y-91573D01*
X34332Y-92473D01*
X34132Y-93073D01*
X33732Y-93673D01*
X33265Y-94073D01*
X32798Y-94273D01*
X32332D01*
X31865Y-94073D01*
X31465Y-93773D01*
X31132Y-93373D01*
G01X27999Y-94273D02*
X28532Y-94173D01*
X28998Y-93773D01*
X29398Y-93173D01*
X29665Y-92473D01*
X29798Y-91673D01*
Y-90873D01*
X29665Y-90073D01*
X29398Y-89373D01*
X28998Y-88773D01*
X28532Y-88373D01*
X27999Y-88273D01*
X27465Y-88373D01*
X26998Y-88773D01*
X26598Y-89373D01*
X26332Y-90073D01*
X26198Y-90873D01*
Y-91673D01*
X26332Y-92473D01*
X26598Y-93173D01*
X26998Y-93773D01*
X27465Y-94173D01*
X27999Y-94273D01*
G01X24732D02*
Y-88273D01*
X21665Y-94273D01*
Y-88273D01*
G01X19865Y-94273D02*
Y-88273D01*
X18532D01*
X17998Y-88573D01*
X17598Y-88973D01*
X17265Y-89573D01*
X16998Y-90273D01*
X16932Y-91273D01*
X16998Y-92273D01*
X17265Y-92973D01*
X17598Y-93573D01*
X17998Y-93973D01*
X18532Y-94273D01*
X19865D01*
G01X15065Y-88273D02*
Y-92573D01*
X14798Y-93473D01*
X14265Y-94073D01*
X13599Y-94273D01*
X12932Y-94073D01*
X12398Y-93473D01*
X12132Y-92573D01*
Y-88273D01*
G01X7332Y-88773D02*
X7732Y-88473D01*
X8198Y-88273D01*
X8732D01*
X9332Y-88573D01*
X9798Y-89073D01*
X10132Y-89673D01*
X10398Y-90673D01*
X10465Y-91573D01*
X10332Y-92473D01*
X10132Y-93073D01*
X9732Y-93673D01*
X9265Y-94073D01*
X8798Y-94273D01*
X8332D01*
X7865Y-94073D01*
X7465Y-93773D01*
X7132Y-93373D01*
G01X3998Y-88273D02*
Y-94273D01*
G01X5532Y-88273D02*
X2465D01*
G01X-802Y-94273D02*
X-268Y-94173D01*
X198Y-93773D01*
X598Y-93173D01*
X865Y-92473D01*
X998Y-91673D01*
Y-90873D01*
X865Y-90073D01*
X598Y-89373D01*
X198Y-88773D01*
X-268Y-88373D01*
X-802Y-88273D01*
X-1335Y-88373D01*
X-1802Y-88773D01*
X-2202Y-89373D01*
X-2468Y-90073D01*
X-2602Y-90873D01*
Y-91673D01*
X-2468Y-92473D01*
X-2202Y-93173D01*
X-1802Y-93773D01*
X-1335Y-94173D01*
X-802Y-94273D01*
G01X-4268D02*
Y-88273D01*
X-5935D01*
X-6468Y-88573D01*
X-6802Y-88973D01*
X-6935Y-89773D01*
X-6802Y-90573D01*
X-6402Y-91073D01*
X-5935Y-91373D01*
X-4268D01*
G01X-5935D02*
X-6935Y-94273D01*
G01X-13735Y-88273D02*
Y-92573D01*
X-14002Y-93473D01*
X-14535Y-94073D01*
X-15201Y-94273D01*
X-15868Y-94073D01*
X-16402Y-93473D01*
X-16668Y-92573D01*
Y-88273D01*
G01X-18602Y-93473D02*
X-19135Y-93973D01*
X-19735Y-94273D01*
X-20268D01*
X-20802Y-93973D01*
X-21202Y-93473D01*
X-21402Y-92773D01*
X-21268Y-92073D01*
X-20935Y-91473D01*
X-20335Y-91073D01*
X-19535Y-90873D01*
X-19068Y-90473D01*
X-18868Y-89773D01*
X-19002Y-89073D01*
X-19335Y-88573D01*
X-19802Y-88273D01*
X-20268D01*
X-20735Y-88473D01*
X-21135Y-88973D01*
G01X-23135Y-94273D02*
X-24802Y-88273D01*
X-26468Y-94273D01*
G01X-25868Y-92173D02*
X-23735D01*
G01X56632Y-141773D02*
Y-135773D01*
X53565Y-141773D01*
Y-135773D01*
G01X51765D02*
Y-140073D01*
X51498Y-140973D01*
X50965Y-141573D01*
X50298Y-141773D01*
X49632Y-141573D01*
X49098Y-140973D01*
X48832Y-140073D01*
Y-135773D01*
G01X47232Y-141773D02*
Y-135773D01*
X45498Y-140773D01*
X43765Y-135773D01*
Y-141773D01*
G01X40165Y-138573D02*
X39898Y-138273D01*
X39698Y-137773D01*
X39565Y-137073D01*
X39698Y-136473D01*
X39965Y-136073D01*
X40432Y-135773D01*
X42232D01*
Y-141773D01*
X40032D01*
X39565Y-141373D01*
X39298Y-140773D01*
X39165Y-140073D01*
X39298Y-139373D01*
X39698Y-138773D01*
X40165Y-138573D01*
X42232D01*
G01X34565Y-141773D02*
X37232D01*
Y-135773D01*
X34565D01*
G01X35632Y-138673D02*
X37232D01*
G01X32432Y-141773D02*
Y-135773D01*
X30765D01*
X30232Y-136073D01*
X29898Y-136473D01*
X29765Y-137273D01*
X29898Y-138073D01*
X30298Y-138573D01*
X30765Y-138873D01*
X32432D01*
G01X30765D02*
X29765Y-141773D01*
G54D17*
G01X296239Y-119043D02*
X296258Y-118853D01*
G01X296198Y-119223D02*
X296239Y-119043D01*
G01X296118Y-119383D02*
X296198Y-119223D01*
G01X296008Y-119543D02*
X296118Y-119383D01*
G01X295878Y-119673D02*
X296008Y-119543D01*
G01X296258Y-118853D02*
Y-117653D01*
G01X296239Y-117473D02*
X296198Y-117293D01*
G01X296258Y-117653D02*
X296239Y-117473D01*
G01X296018Y-116983D02*
X295889Y-116853D01*
G01X296118Y-117133D02*
X296018Y-116983D01*
G01X296198Y-117293D02*
X296118Y-117133D01*
G01X295728Y-119783D02*
X295878Y-119673D01*
G01X295558Y-119863D02*
X295728Y-119783D01*
G01X295378Y-119903D02*
X295558Y-119863D01*
G01X295189Y-119923D02*
X295378Y-119903D01*
G01X295398Y-116633D02*
X295218Y-116613D01*
G01X295578Y-116673D02*
X295398Y-116633D01*
G01X295739Y-116753D02*
X295578Y-116673D01*
G01X295889Y-116853D02*
X295739Y-116753D01*
G01X293418Y-119923D02*
X295189D01*
G01X295218Y-116613D02*
X293418D01*
G01X285848Y-119783D02*
X285658Y-119863D01*
G01X286028Y-119673D02*
X285848Y-119783D01*
G01X286189Y-119543D02*
X286028Y-119673D01*
G01X286318Y-119383D02*
X286189Y-119543D01*
G01X286118Y-116913D02*
X286278Y-117073D01*
G01X285928Y-116783D02*
X286118Y-116913D01*
G01X285728Y-116693D02*
X285928Y-116783D01*
G01X291528Y-116613D02*
X290118D01*
G01D02*
Y-119923D01*
G01X288698Y-116613D02*
X290118D01*
G01X286428Y-119203D02*
X286318Y-119383D01*
G01X286508Y-119013D02*
X286428Y-119203D01*
G01X286548Y-118813D02*
X286508Y-119013D01*
G01X286568Y-118613D02*
X286548Y-118813D01*
G01X286568Y-117903D02*
Y-118613D01*
G01X286558Y-117683D02*
X286578Y-117903D01*
G01X286498Y-117463D02*
X286558Y-117683D01*
G01X286408Y-117253D02*
X286498Y-117463D01*
G01X286278Y-117073D02*
X286408Y-117253D01*
G01X285258Y-119923D02*
X284568D01*
G01X285458Y-119903D02*
X285258Y-119923D01*
G01X285658Y-119863D02*
X285458Y-119903D01*
G01X285508Y-116633D02*
X285728Y-116693D01*
G01X285289Y-116613D02*
X285508Y-116633D01*
G01X284548Y-116613D02*
X285289D01*
G01X284128Y-119843D02*
X283918Y-119753D01*
G01X284339Y-119903D02*
X284128Y-119843D01*
G01X284568Y-119923D02*
X284339Y-119903D01*
G01X284328Y-116633D02*
X284548Y-116613D01*
G01X284108Y-116693D02*
X284328Y-116633D01*
G01X283908Y-116783D02*
X284108Y-116693D01*
G01X283348Y-119063D02*
X283289Y-118853D01*
G01X283439Y-119273D02*
X283348Y-119063D01*
G01X283568Y-119463D02*
X283439Y-119273D01*
G01X283728Y-119623D02*
X283568Y-119463D01*
G01X283918Y-119753D02*
X283728Y-119623D01*
G01Y-116913D02*
X283908Y-116783D01*
G01X283568Y-117073D02*
X283728Y-116913D01*
G01X283439Y-117253D02*
X283568Y-117073D01*
G01X283348Y-117453D02*
X283439Y-117253D01*
G01X283289Y-117673D02*
X283348Y-117453D01*
G01X283289Y-118853D02*
X283268Y-118623D01*
G01D02*
Y-117893D01*
G01D02*
X283289Y-117673D01*
G01X281139Y-118273D02*
Y-119923D01*
G01Y-116613D02*
Y-118273D01*
G01X279208D02*
X281139D01*
G01Y-116613D02*
X278868D01*
G01X278308Y-119923D02*
X279208Y-118273D01*
G01X278928D02*
X279208D01*
G01X278758Y-118253D02*
X278928Y-118273D01*
G01X278598Y-118203D02*
X278758Y-118253D01*
G01X278448Y-118133D02*
X278598Y-118203D01*
G01X278318Y-118023D02*
X278448Y-118133D01*
G01X278208Y-117893D02*
X278318Y-118023D01*
G01X278139Y-117743D02*
X278208Y-117893D01*
G01X278089Y-117583D02*
X278139Y-117743D01*
G01X278198Y-116973D02*
X278128Y-117103D01*
G01X278298Y-116843D02*
X278198Y-116973D01*
G01X278428Y-116743D02*
X278298Y-116843D01*
G01X278558Y-116673D02*
X278428Y-116743D01*
G01X278708Y-116633D02*
X278558Y-116673D01*
G01X278868Y-116613D02*
X278708Y-116633D01*
G01X278068Y-117413D02*
X278089Y-117583D01*
G01Y-117253D02*
X278068Y-117413D01*
G01X278128Y-117103D02*
X278089Y-117253D01*
G01X293658Y-99373D02*
Y-112123D01*
G01Y-104033D02*
X290589D01*
G01Y-103343D02*
X293658D01*
G01X290589Y-101953D02*
X293658D01*
G01Y-102643D02*
X290589D01*
G01X293658Y-101253D02*
X290568D01*
G01X289839Y-100563D02*
X293658D01*
G01X290718Y-98993D02*
X293658Y-99373D01*
G01Y-99873D02*
X279378D01*
G01X293658Y-112123D02*
X290589D01*
G01Y-111673D02*
X293658D01*
G01Y-110973D02*
X290589D01*
G01X293658Y-109583D02*
X290589D01*
G01Y-110283D02*
X293658D01*
G01X290589Y-108893D02*
X293658D01*
G01Y-108193D02*
X290589D01*
G01Y-107503D02*
X293658D01*
G01X290589Y-106113D02*
X293658D01*
G01Y-106813D02*
X290589D01*
G01X293658Y-105423D02*
X290589D01*
G01Y-104723D02*
X293658D01*
G01X292108Y-99173D02*
X280958D01*
G01X290589Y-112123D02*
Y-101383D01*
G01X290478Y-100963D02*
X290348Y-100793D01*
G01X290558Y-101163D02*
X290478Y-100963D01*
G01X290589Y-101383D02*
X290558Y-101163D01*
G01X290168Y-100663D02*
X289978Y-100583D01*
G01X290348Y-100793D02*
X290168Y-100663D01*
G01X287748Y-98903D02*
X290718Y-98993D01*
G01X289758Y-100553D02*
X288318D01*
G01X289978Y-100583D02*
X289758Y-100553D01*
G01X283478Y-100563D02*
X288239D01*
G01X287628Y-100953D02*
X287539Y-101143D01*
G01X287748Y-100783D02*
X287628Y-100953D01*
G01X287918Y-100663D02*
X287748Y-100783D01*
G01X288108Y-100583D02*
X287918Y-100663D01*
G01X288318Y-100553D02*
X288108Y-100583D01*
G01X283418Y-98903D02*
X287748D01*
G01X287518Y-101353D02*
Y-112123D01*
G01Y-104033D02*
X284208D01*
G01Y-103343D02*
X287518D01*
G01Y-102643D02*
X284208D01*
G01Y-101953D02*
X287518D01*
G01X287528Y-101253D02*
X284198D01*
G01X287539Y-101143D02*
X287518Y-101353D01*
G01X284208Y-112123D02*
Y-101363D01*
G01X284178Y-101153D02*
X284098Y-100953D01*
G01X284208Y-101363D02*
X284178Y-101153D01*
G01X284098Y-100953D02*
X283968Y-100793D01*
G01X283398Y-100553D02*
X282639D01*
G01X283608Y-100583D02*
X283398Y-100553D01*
G01X283798Y-100663D02*
X283608Y-100583D01*
G01X283968Y-100793D02*
X283798Y-100663D01*
G01X282258Y-98963D02*
X283418Y-98903D01*
G01X278598Y-100563D02*
X282558D01*
G01X282639Y-100553D02*
X282128Y-100623D01*
G01X281648Y-100793D02*
X281428Y-100993D01*
G01X282128Y-100623D02*
X281648Y-100793D01*
G01X281098Y-99133D02*
X282258Y-98963D01*
G01X281139Y-101813D02*
Y-112123D01*
G01Y-104033D02*
X278068D01*
G01Y-103343D02*
X281139D01*
G01Y-102643D02*
X278068D01*
G01X278089Y-101953D02*
X281139D01*
G01X281168Y-101513D02*
X281139Y-101813D01*
G01X281258Y-101253D02*
X278228D01*
G01X281268Y-101233D02*
X281168Y-101513D01*
G01X281428Y-100993D02*
X281268Y-101233D01*
G01X280318Y-99353D02*
X281098Y-99133D01*
G01X279589Y-99713D02*
X280318Y-99353D01*
G01X278939Y-100193D02*
X279589Y-99713D01*
G01X278558Y-100603D02*
X278939Y-100193D01*
G01X278278Y-101083D02*
X278558Y-100603D01*
G01X278118Y-101613D02*
X278278Y-101083D01*
G01X278068Y-112123D02*
Y-102163D01*
G01D02*
X278118Y-101613D01*
G01X287518Y-112123D02*
X284208D01*
G01Y-111673D02*
X287518D01*
G01Y-110973D02*
X284208D01*
G01Y-110283D02*
X287518D01*
G01Y-109583D02*
X284208D01*
G01Y-108893D02*
X287518D01*
G01Y-108193D02*
X284208D01*
G01Y-107503D02*
X287518D01*
G01Y-106813D02*
X284208D01*
G01Y-106113D02*
X287518D01*
G01Y-105423D02*
X284208D01*
G01Y-104723D02*
X287518D01*
G01X281139Y-112123D02*
X278068D01*
G01Y-111673D02*
X281139D01*
G01Y-110973D02*
X278068D01*
G01Y-110283D02*
X281139D01*
G01Y-109583D02*
X278068D01*
G01Y-108893D02*
X281139D01*
G01Y-108193D02*
X278068D01*
G01Y-107503D02*
X281139D01*
G01Y-106813D02*
X278068D01*
G01Y-106113D02*
X281139D01*
G01Y-105423D02*
X278068D01*
G01Y-104723D02*
X281139D01*
G01X336528Y-119923D02*
X336708Y-119903D01*
G01X334758Y-119923D02*
X336528D01*
G01X336568Y-116613D02*
X336768Y-116633D01*
G01X334758Y-116613D02*
X336568D01*
G01X340578Y-119923D02*
X343028D01*
G01X339718Y-116613D02*
X342268D01*
G01X342139Y-118273D02*
X340518D01*
G01X340408Y-119903D02*
X340578Y-119923D01*
G01X340518Y-118263D02*
X340358Y-118283D01*
G01X340248Y-119853D02*
X340408Y-119903D01*
G01X340098Y-119783D02*
X340248Y-119853D01*
G01X339968Y-119673D02*
X340098Y-119783D01*
G01X339858Y-119543D02*
X339968Y-119673D01*
G01X339789Y-119393D02*
X339858Y-119543D01*
G01X339739Y-119233D02*
X339789Y-119393D01*
G01X339718Y-119063D02*
X339739Y-119233D01*
G01Y-118903D02*
X339718Y-119063D01*
G01X339778Y-118753D02*
X339739Y-118903D01*
G01X339848Y-118623D02*
X339778Y-118753D01*
G01X339948Y-118493D02*
X339848Y-118623D01*
G01X340078Y-118393D02*
X339948Y-118493D01*
G01X340208Y-118323D02*
X340078Y-118393D01*
G01X340358Y-118283D02*
X340208Y-118323D01*
G01X337568Y-119043D02*
X337589Y-118863D01*
G01X337528Y-119223D02*
X337568Y-119043D01*
G01X337448Y-119393D02*
X337528Y-119223D01*
G01X337339Y-119543D02*
X337448Y-119393D01*
G01X337208Y-119673D02*
X337339Y-119543D01*
G01X337058Y-119783D02*
X337208Y-119673D01*
G01X336889Y-119863D02*
X337058Y-119783D01*
G01X337598Y-117633D02*
Y-118273D01*
G01D02*
X334758D01*
G01X337598Y-118863D02*
Y-118273D01*
G01X337568Y-117433D02*
X337589Y-117633D01*
G01X337508Y-117243D02*
X337568Y-117433D01*
G01X337418Y-117063D02*
X337508Y-117243D01*
G01X337289Y-116913D02*
X337418Y-117063D01*
G01X337139Y-116783D02*
X337289Y-116913D01*
G01X336958Y-116693D02*
X337139Y-116783D01*
G01X336708Y-119903D02*
X336889Y-119863D01*
G01X336768Y-116633D02*
X336958Y-116693D01*
G01X332398Y-116613D02*
Y-119923D01*
G01X331848Y-116613D02*
X332398D01*
G01X330308Y-119923D02*
X331848Y-116613D01*
G01X328898D02*
X330308Y-119923D01*
G01X328378Y-116613D02*
X328898D01*
G01X328378Y-119923D02*
Y-116613D01*
G01X325789D02*
Y-119923D01*
G01X323168Y-119023D02*
X323189Y-118833D01*
G01X323118Y-119203D02*
X323168Y-119023D01*
G01X323039Y-119373D02*
X323118Y-119203D01*
G01X322928Y-119533D02*
X323039Y-119373D01*
G01X322798Y-119663D02*
X322928Y-119533D01*
G01X322648Y-119773D02*
X322798Y-119663D01*
G01X322468Y-119853D02*
X322648Y-119773D01*
G01X323189Y-118833D02*
Y-117703D01*
G01X323008Y-117093D02*
X322868Y-116933D01*
G01X323108Y-117283D02*
X323008Y-117093D01*
G01X323168Y-117493D02*
X323108Y-117283D01*
G01X323189Y-117703D02*
X323168Y-117493D01*
G01X322708Y-116793D02*
X322518Y-116693D01*
G01X322868Y-116933D02*
X322708Y-116793D01*
G01X322518Y-116693D02*
X322308Y-116633D01*
G01X322289Y-119903D02*
X322468Y-119853D01*
G01X322098Y-119923D02*
X322289Y-119903D01*
G01X320348Y-119923D02*
X322098D01*
G01Y-116613D02*
X320348D01*
G01X322308Y-116633D02*
X322098Y-116613D01*
G01X317589Y-119753D02*
X317378Y-119843D01*
G01X317768Y-119623D02*
X317589Y-119753D01*
G01X317928Y-119463D02*
X317768Y-119623D01*
G01X318058Y-119273D02*
X317928Y-119463D01*
G01X318148Y-119073D02*
X318058Y-119273D01*
G01X318208Y-118853D02*
X318148Y-119073D01*
G01X318228Y-118633D02*
X318208Y-118853D01*
G01X318228Y-117883D02*
Y-118633D01*
G01X318208Y-117663D02*
X318228Y-117883D01*
G01X318148Y-117453D02*
X318208Y-117663D01*
G01X318058Y-117243D02*
X318148Y-117453D01*
G01X317928Y-117063D02*
X318058Y-117243D01*
G01X317778Y-116913D02*
X317928Y-117063D01*
G01X317589Y-116783D02*
X317778Y-116913D01*
G01X317389Y-116693D02*
X317589Y-116783D01*
G01X317178Y-116633D02*
X317389Y-116693D01*
G01X316939Y-119923D02*
X316239D01*
G01X317158Y-119903D02*
X316939Y-119923D01*
G01X317378Y-119843D02*
X317158Y-119903D01*
G01X316958Y-116613D02*
X317178Y-116633D01*
G01X316218Y-116613D02*
X316958D01*
G01X315639Y-119783D02*
X315458Y-119673D01*
G01X315828Y-119863D02*
X315639Y-119783D01*
G01X316028Y-119903D02*
X315828Y-119863D01*
G01X316239Y-119923D02*
X316028Y-119903D01*
G01X315989Y-116633D02*
X316218Y-116613D01*
G01X315778Y-116693D02*
X315989Y-116633D01*
G01X315568Y-116783D02*
X315778Y-116693D01*
G01X314978Y-119013D02*
X314939Y-118813D01*
G01X315058Y-119203D02*
X314978Y-119013D01*
G01X315168Y-119383D02*
X315058Y-119203D01*
G01X315308Y-119533D02*
X315168Y-119383D01*
G01X315458Y-119673D02*
X315308Y-119533D01*
G01X314939Y-118813D02*
X314918Y-118603D01*
G01D02*
Y-117913D01*
G01X315089Y-117263D02*
X315218Y-117073D01*
G01X314998Y-117473D02*
X315089Y-117263D01*
G01X314939Y-117683D02*
X314998Y-117473D01*
G01X314918Y-117913D02*
X314939Y-117683D01*
G01X315378Y-116913D02*
X315568Y-116783D01*
G01X315218Y-117073D02*
X315378Y-116913D01*
G01X312558Y-116613D02*
Y-119923D01*
G01X312078Y-116613D02*
X312558D01*
G01X309798Y-119923D02*
X312078Y-116613D01*
G01X309248Y-119923D02*
X309798D01*
G01X309248Y-116613D02*
Y-119923D01*
G01X306889D02*
Y-116613D01*
G01X305128Y-119923D02*
X306889D01*
G01Y-116613D02*
X305108D01*
G01X304928Y-119903D02*
X305128Y-119923D01*
G01X304728Y-119863D02*
X304928Y-119903D01*
G01X304539Y-119783D02*
X304728Y-119863D01*
G01X304358Y-119673D02*
X304539Y-119783D01*
G01X304668Y-116693D02*
X304458Y-116783D01*
G01X304889Y-116633D02*
X304668Y-116693D01*
G01X305108Y-116613D02*
X304889Y-116633D01*
G01X304198Y-119543D02*
X304358Y-119673D01*
G01X304068Y-119383D02*
X304198Y-119543D01*
G01X303958Y-119203D02*
X304068Y-119383D01*
G01X303878Y-119013D02*
X303958Y-119203D01*
G01X303839Y-118813D02*
X303878Y-119013D01*
G01X303818Y-118613D02*
X303839Y-118813D01*
G01X303818Y-117903D02*
Y-118613D01*
G01X303839Y-117683D02*
X303818Y-117903D01*
G01X303898Y-117463D02*
X303839Y-117683D01*
G01X303989Y-117253D02*
X303898Y-117463D01*
G01X304118Y-117073D02*
X303989Y-117253D01*
G01X304278Y-116913D02*
X304118Y-117073D01*
G01X304458Y-116783D02*
X304278Y-116913D01*
G01X301439Y-118903D02*
X301458Y-118683D01*
G01X301389Y-119103D02*
X301439Y-118903D01*
G01X301289Y-119303D02*
X301389Y-119103D01*
G01X301168Y-119483D02*
X301289Y-119303D01*
G01X301018Y-119633D02*
X301168Y-119483D01*
G01X301448Y-118683D02*
Y-116613D01*
G01X300839Y-119753D02*
X301018Y-119633D01*
G01X300639Y-119853D02*
X300839Y-119753D01*
G01X300439Y-119903D02*
X300639Y-119853D01*
G01X300218Y-119923D02*
X300439Y-119903D01*
G01X299698Y-119923D02*
X300218D01*
G01X299468Y-119903D02*
X299698Y-119923D01*
G01X299248Y-119843D02*
X299468Y-119903D01*
G01X299039Y-119743D02*
X299248Y-119843D01*
G01X298858Y-119613D02*
X299039Y-119743D01*
G01X298698Y-119453D02*
X298858Y-119613D01*
G01X298568Y-119263D02*
X298698Y-119453D01*
G01X298468Y-119063D02*
X298568Y-119263D01*
G01X298408Y-118843D02*
X298468Y-119063D01*
G01X298389Y-118613D02*
X298408Y-118843D01*
G01X298378Y-116613D02*
Y-118613D01*
G01X333148Y-112123D02*
X337598Y-106933D01*
G01X333939Y-107243D02*
X329489Y-112123D01*
G01X343028Y-104033D02*
X339718D01*
G01Y-103343D02*
X343028D01*
G01X339718Y-101953D02*
X343028D01*
G01Y-102643D02*
X339718D01*
G01X343028Y-101253D02*
X339718D01*
G01X339508Y-100563D02*
X343028D01*
G01Y-99873D02*
X331408D01*
G01X341689Y-99173D02*
X333118D01*
G01X340789Y-99043D02*
X338539Y-98903D01*
G01X339718Y-101093D02*
Y-112123D01*
G01X339698Y-100893D02*
X339718Y-101093D01*
G01X339618Y-100703D02*
X339698Y-100893D01*
G01X339498Y-100543D02*
X339618Y-100703D01*
G01X339328Y-100423D02*
X339498Y-100543D01*
G01X339148Y-100343D02*
X339328Y-100423D01*
G01X338948Y-100313D02*
X339148Y-100343D01*
G01X336098Y-100313D02*
X338948D01*
G01X338539Y-98903D02*
X335508D01*
G01X335408Y-100343D02*
X336098Y-100313D01*
G01X334728Y-100503D02*
X335408Y-100343D01*
G01X335508Y-98903D02*
X333839Y-99023D01*
G01X330739Y-100563D02*
X334598D01*
G01X334089Y-100793D02*
X334728Y-100503D01*
G01X333698Y-104683D02*
X333508Y-104283D01*
G01X333678Y-101253D02*
X330368D01*
G01X333778Y-101103D02*
X334089Y-100793D01*
G01X333548Y-101473D02*
X333778Y-101103D01*
G01X333839Y-99023D02*
X332198Y-99373D01*
G01X333439Y-104033D02*
X330278D01*
G01X333389Y-103863D02*
X333339Y-103423D01*
G01X333508Y-104283D02*
X333389Y-103863D01*
G01X330268Y-103343D02*
X333339D01*
G01Y-103423D02*
Y-102323D01*
G01Y-102643D02*
X330268D01*
G01Y-101953D02*
X333389D01*
G01X333398Y-101883D02*
X333548Y-101473D01*
G01X333339Y-102323D02*
X333398Y-101883D01*
G01X332198Y-99373D02*
X331648Y-99673D01*
G01X331158Y-100073D02*
X330748Y-100553D01*
G01X331648Y-99673D02*
X331158Y-100073D01*
G01X330268Y-103973D02*
X330308Y-104453D01*
G01X330268Y-101973D02*
Y-103973D01*
G01X330289Y-101593D02*
X330268Y-101973D01*
G01X330378Y-101213D02*
X330289Y-101593D01*
G01X330528Y-100863D02*
X330378Y-101213D01*
G01X330748Y-100553D02*
X330528Y-100863D01*
G01X327198Y-102283D02*
Y-105043D01*
G01Y-104033D02*
X324128D01*
G01Y-103343D02*
X327198D01*
G01Y-102643D02*
X324128D01*
G01X324018Y-101953D02*
X327168D01*
G01X327158Y-101803D02*
X327198Y-102283D01*
G01X326978Y-101253D02*
X323598D01*
G01X326798Y-100923D02*
X327028Y-101343D01*
G01D02*
X327158Y-101803D01*
G01X326508Y-100543D02*
X326798Y-100923D01*
G01X322668Y-100563D02*
X326518D01*
G01X326139Y-100233D02*
X326508Y-100543D01*
G01X325508Y-99723D02*
X326139Y-100233D01*
G01X325689Y-99873D02*
X315808D01*
G01X324798Y-99333D02*
X325508Y-99723D01*
G01X324039Y-99073D02*
X324798Y-99333D01*
G01X317378Y-99173D02*
X324328D01*
G01X324128Y-105043D02*
Y-102603D01*
G01X323968Y-101803D02*
X323768Y-101453D01*
G01X324089Y-102193D02*
X323968Y-101803D01*
G01X324128Y-102603D02*
X324089Y-102193D01*
G01X323768Y-101453D02*
X323498Y-101143D01*
G01D02*
X323068Y-100773D01*
G01X323239Y-98933D02*
X324039Y-99073D01*
G01X322568Y-100503D02*
X322018Y-100353D01*
G01X323068Y-100773D02*
X322568Y-100503D01*
G01X322439Y-98903D02*
X323239Y-98933D01*
G01X322018Y-100353D02*
X321448Y-100313D01*
G01X319328Y-98903D02*
X322439D01*
G01X321448Y-100313D02*
X319998D01*
G01X319458Y-100343D02*
X318939Y-100473D01*
G01X319998Y-100313D02*
X319458Y-100343D01*
G01X318468Y-98933D02*
X319328Y-98903D01*
G01X314968Y-100563D02*
X318748D01*
G01X318458Y-100703D02*
X318028Y-101023D01*
G01X318939Y-100473D02*
X318458Y-100703D01*
G01X317618Y-99093D02*
X318468Y-98933D01*
G01X339718Y-112123D02*
X343028D01*
G01X336508Y-108193D02*
X333068D01*
G01X339718Y-111673D02*
X343028D01*
G01Y-110973D02*
X339718D01*
G01X343028Y-109583D02*
X339718D01*
G01Y-110283D02*
X343028D01*
G01X339718Y-108893D02*
X343028D01*
G01Y-108193D02*
X339718D01*
G01Y-107503D02*
X343028D01*
G01X339718Y-106113D02*
X343028D01*
G01Y-106813D02*
X339718D01*
G01X343028Y-105423D02*
X339718D01*
G01Y-104723D02*
X343028D01*
G01X333698Y-107503D02*
X337108D01*
G01X337598Y-106813D02*
X333939D01*
G01X331458Y-106113D02*
X337598D01*
G01Y-106933D02*
Y-105513D01*
G01D02*
X335818D01*
G01X329489Y-112123D02*
X333148D01*
G01X324168Y-111893D02*
X323148Y-112063D01*
G01D02*
X322118Y-112123D01*
G01D02*
X319368D01*
G01D02*
X318458Y-112093D01*
G01D02*
X317558Y-111953D01*
G01X332428Y-108893D02*
X335918D01*
G01X335818Y-105513D02*
X335239Y-105473D01*
G01X331168Y-110283D02*
X334728D01*
G01X335318Y-109583D02*
X331798D01*
G01X335048Y-105423D02*
X330708D01*
G01X334678Y-105323D02*
X334158Y-105053D01*
G01X335239Y-105473D02*
X334678Y-105323D01*
G01X334128Y-110973D02*
X330539D01*
G01X333939Y-106733D02*
Y-107243D01*
G01X333239Y-106723D02*
X333939Y-106733D01*
G01X330378Y-104723D02*
X333748D01*
G01X334158Y-105053D02*
X333698Y-104683D01*
G01X329898Y-111673D02*
X333539D01*
G01X332558Y-106603D02*
X333239Y-106723D01*
G01X331898Y-106363D02*
X332558Y-106603D01*
G01X331298Y-106023D02*
X331898Y-106363D01*
G01X330939Y-105713D02*
X331298Y-106023D01*
G01X330648Y-105333D02*
X330939Y-105713D01*
G01X330428Y-104913D02*
X330648Y-105333D01*
G01X330308Y-104453D02*
X330428Y-104913D01*
G01X327128Y-109583D02*
X323708D01*
G01X326798Y-110363D02*
X326489Y-110733D01*
G01X327028Y-109933D02*
X326798Y-110363D01*
G01X327168Y-109463D02*
X327028Y-109933D01*
G01X324039Y-108893D02*
X327198D01*
G01Y-108973D02*
X327168Y-109463D01*
G01X327198Y-105043D02*
Y-108973D01*
G01Y-108193D02*
X324128D01*
G01Y-107503D02*
X327198D01*
G01Y-106813D02*
X324128D01*
G01Y-106113D02*
X327198D01*
G01Y-105423D02*
X324128D01*
G01Y-104723D02*
X327198D01*
G01X324128Y-105043D02*
X327198D01*
G01D02*
X324128D01*
G01X326168Y-110973D02*
X315478D01*
G01X326098Y-111023D02*
X325498Y-111403D01*
G01X326489Y-110733D02*
X326098Y-111023D01*
G01X322968Y-110283D02*
X326848D01*
G01X325498Y-111403D02*
X324848Y-111693D01*
G01X324908Y-111673D02*
X316639D01*
G01X324848Y-111693D02*
X324168Y-111893D01*
G01X323689Y-109613D02*
X323948Y-109193D01*
G01X323339Y-109963D02*
X323689Y-109613D01*
G01X322978Y-110283D02*
X323339Y-109963D01*
G01X324098Y-108723D02*
X324128Y-108233D01*
G01X323948Y-109193D02*
X324098Y-108723D01*
G01X324128Y-108233D02*
Y-105043D01*
G01X322089Y-110663D02*
X322558Y-110513D01*
G01D02*
X322978Y-110283D01*
G01X321608Y-110713D02*
X322089Y-110663D01*
G01X319998Y-110713D02*
X321608D01*
G01X319398Y-110673D02*
X319998Y-110713D01*
G01X318828Y-110513D02*
X319398Y-110673D01*
G01X318298Y-110253D02*
X318828Y-110513D01*
G01X317828Y-109883D02*
X318298Y-110253D01*
G01X317778Y-101253D02*
X314498D01*
G01X317458Y-101693D02*
X317318Y-102113D01*
G01X317698Y-101323D02*
X317458Y-101693D01*
G01X318028Y-101023D02*
X317698Y-101323D01*
G01X316808Y-99373D02*
X317618Y-99093D01*
G01X317278Y-102563D02*
Y-108233D01*
G01Y-104033D02*
X314208D01*
G01Y-103343D02*
X317278D01*
G01X314258Y-101953D02*
X317368D01*
G01X317278Y-102643D02*
X314208D01*
G01X317318Y-102113D02*
X317278Y-102563D01*
G01X316178Y-99643D02*
X316808Y-99373D01*
G01X315598Y-99993D02*
X316178Y-99643D01*
G01X315078Y-100433D02*
X315598Y-99993D01*
G01X314698Y-100883D02*
X315078Y-100433D01*
G01X314208Y-108703D02*
Y-102563D01*
G01X314258Y-101973D02*
X314418Y-101403D01*
G01X314208Y-102563D02*
X314258Y-101973D01*
G01X314418Y-101403D02*
X314698Y-100883D01*
G01X310898Y-99373D02*
Y-112123D01*
G01Y-104033D02*
X307539D01*
G01X307598Y-103343D02*
X310898D01*
G01Y-102643D02*
X307598D01*
G01Y-101953D02*
X310898D01*
G01Y-101253D02*
X307598D01*
G01Y-100563D02*
X310898D01*
G01X307598Y-99373D02*
X310898D01*
G01Y-99873D02*
X307598D01*
G01Y-103763D02*
Y-99373D01*
G01X307568Y-103973D02*
X307598Y-103763D01*
G01X307489Y-104163D02*
X307568Y-103973D01*
G01X307358Y-104333D02*
X307489Y-104163D01*
G01X307189Y-104463D02*
X307358Y-104333D01*
G01X300739Y-104343D02*
X300898Y-104463D01*
G01X300618Y-104173D02*
X300739Y-104343D01*
G01X300558Y-104033D02*
X297198D01*
G01X300539Y-103983D02*
X300618Y-104173D01*
G01X300508Y-103783D02*
X300539Y-103983D01*
G01X300508Y-99373D02*
Y-103783D01*
G01X297198Y-103343D02*
X300508D01*
G01X297198Y-101953D02*
X300508D01*
G01Y-102643D02*
X297198D01*
G01X300508Y-101253D02*
X297198D01*
G01Y-100563D02*
X300508D01*
G01Y-99873D02*
X297198D01*
G01Y-99373D02*
X300508D01*
G01X297198Y-112123D02*
Y-99373D01*
G01X314768Y-110283D02*
X318358D01*
G01X317558Y-111953D02*
X316689Y-111693D01*
G01X317658Y-109583D02*
X314378D01*
G01X317528Y-109373D02*
X317828Y-109883D01*
G01X317339Y-108813D02*
X317528Y-109373D01*
G01X316689Y-111693D02*
X316108Y-111423D01*
G01X314228Y-108893D02*
X317368D01*
G01X317278Y-108233D02*
X317339Y-108813D01*
G01X317278Y-108193D02*
X314208D01*
G01Y-107503D02*
X317278D01*
G01X314208Y-106113D02*
X317278D01*
G01Y-106813D02*
X314208D01*
G01X317278Y-105423D02*
X314208D01*
G01Y-104723D02*
X317278D01*
G01X316108Y-111423D02*
X315578Y-111073D01*
G01X315118Y-110633D02*
X314728Y-110243D01*
G01X315578Y-111073D02*
X315118Y-110633D01*
G01X314728Y-110243D02*
X314439Y-109773D01*
G01D02*
X314258Y-109253D01*
G01D02*
X314208Y-108703D01*
G01X310898Y-112123D02*
X307598D01*
G01X300508D02*
X297198D01*
G01X310898Y-111673D02*
X307598D01*
G01Y-110973D02*
X310898D01*
G01Y-110283D02*
X307598D01*
G01Y-109583D02*
X310898D01*
G01Y-108893D02*
X307598D01*
G01Y-108193D02*
X310898D01*
G01Y-107503D02*
X307598D01*
G01X310898Y-106113D02*
X297198D01*
G01X307568Y-106813D02*
X310898D01*
G01X297198Y-105423D02*
X310898D01*
G01Y-104723D02*
X297198D01*
G01X307598Y-112123D02*
Y-107003D01*
G01D02*
X307568Y-106803D01*
G01X307368Y-106453D02*
X307208Y-106323D01*
G01X307489Y-106613D02*
X307368Y-106453D01*
G01X307568Y-106803D02*
X307489Y-106613D01*
G01X307208Y-106323D02*
X307018Y-106243D01*
G01X306998Y-104543D02*
X307189Y-104463D01*
G01X306818Y-106223D02*
X301339D01*
G01X307018Y-106243D02*
X306818Y-106223D01*
G01X306789Y-104563D02*
X306998Y-104543D01*
G01X301289Y-104563D02*
X306789D01*
G01X301339Y-106223D02*
X301128Y-106253D01*
G01X301089Y-104543D02*
X301289Y-104563D01*
G01X300508Y-107053D02*
Y-112123D01*
G01Y-111673D02*
X297198D01*
G01Y-110973D02*
X300508D01*
G01X297198Y-109583D02*
X300508D01*
G01Y-110283D02*
X297198D01*
G01X300508Y-108893D02*
X297198D01*
G01Y-108193D02*
X300508D01*
G01Y-107503D02*
X297198D01*
G01X300539Y-106833D02*
X300508Y-107053D01*
G01X297198Y-106813D02*
X300548D01*
G01X300618Y-106633D02*
X300539Y-106833D01*
G01X300748Y-106463D02*
X300618Y-106633D01*
G01X300918Y-106333D02*
X300748Y-106463D01*
G01X301128Y-106253D02*
X300918Y-106333D01*
G01X300898Y-104463D02*
X301089Y-104543D01*
G01X342958Y-117713D02*
X342878Y-117863D01*
G01X343008Y-117203D02*
X343028Y-117373D01*
G01X343008Y-117543D02*
X342958Y-117713D01*
G01X343028Y-117373D02*
X343008Y-117543D01*
G01X342948Y-117043D02*
X343008Y-117203D01*
G01X342858Y-116903D02*
X342948Y-117043D01*
G01X342308Y-118243D02*
X342139Y-118263D01*
G01X342478Y-118193D02*
X342308Y-118243D01*
G01X342628Y-118113D02*
X342478Y-118193D01*
G01X342768Y-118003D02*
X342628Y-118113D01*
G01X342878Y-117863D02*
X342768Y-118003D01*
G01X342739Y-116783D02*
X342858Y-116903D01*
G01X342598Y-116693D02*
X342739Y-116783D01*
G01X342439Y-116633D02*
X342598Y-116693D01*
G01X342268Y-116613D02*
X342439Y-116633D01*
G01X343028Y-99373D02*
X340789Y-99043D01*
G01X343028Y-112123D02*
Y-99373D01*
G54D18*
G01X28750Y125000D02*
X32500D01*
G01X17500Y121250D02*
Y125000D01*
G01D02*
Y128750D01*
G01X13750Y125000D02*
X17500D01*
G01D02*
X21250D01*
G01X76250Y10000D02*
X80000D01*
G01X62500Y121250D02*
Y125000D01*
G01D02*
Y128750D01*
G01X58750Y125000D02*
X62500D01*
G01D02*
X66250D01*
G01X47500Y121250D02*
Y125000D01*
G01D02*
Y128750D01*
G01X43750Y125000D02*
X47500D01*
G01D02*
X51250D01*
G01X32500Y121250D02*
Y125000D01*
G01D02*
Y128750D01*
G01Y125000D02*
X36250D01*
G01X44000Y196300D02*
Y200000D01*
G01D02*
Y203700D01*
G01X40300Y200000D02*
X44000D01*
G01D02*
X47700D01*
G01X100000Y6300D02*
Y10000D01*
G01D02*
Y13700D01*
G01X96300Y10000D02*
X100000D01*
G01D02*
X103700D01*
G01X110000Y6300D02*
Y10000D01*
G01D02*
Y13700D01*
G01X106300Y10000D02*
X110000D01*
G01D02*
X113700D01*
G01X80000Y6250D02*
Y10000D01*
G01D02*
Y13750D01*
G01Y10000D02*
X83750D01*
G01X219000Y6250D02*
Y10000D01*
G01D02*
Y13750D01*
G01X215250Y10000D02*
X219000D01*
G01D02*
X222750D01*
G01X219000Y196250D02*
Y200000D01*
G01D02*
Y203750D01*
G01X215250Y200000D02*
X219000D01*
G01D02*
X222750D01*
G01X289000Y6300D02*
Y10000D01*
G01D02*
Y13700D01*
G01X285300Y10000D02*
X289000D01*
G01D02*
X292700D01*
G01X261000Y66311D02*
Y70011D01*
G01D02*
Y73712D01*
G01X257300Y70011D02*
X261000D01*
G01D02*
X264700D01*
G01X261000Y81261D02*
Y85011D01*
G01D02*
Y88762D01*
G01X257250Y85011D02*
X261000D01*
G01D02*
X264750D01*
G01X261000Y91261D02*
Y95011D01*
G01D02*
Y98762D01*
G01X257250Y95011D02*
X261000D01*
G01D02*
X264750D01*
G01X261000Y146261D02*
Y150011D01*
G01D02*
Y153762D01*
G01X257250Y150011D02*
X261000D01*
G01D02*
X264750D01*
G01X279000Y196300D02*
Y200000D01*
G01D02*
Y203700D01*
G01Y200000D02*
X282700D01*
M02*
