G04 ================== begin FILE IDENTIFICATION RECORD ==================*
G04 Layout Name:  D:/gerber/SENSORSHLD1-EVK-101_BRD_REV01_2016-03-24.brd*
G04 Film Name:    PANEL*
G04 File Format:  Gerber RS274X*
G04 File Origin:  Cadence Allegro 16.5-S058*
G04 Origin Date:  Thu Mar 24 10:19:38 2016*
G04 *
G04 Layer:  BOARD GEOMETRY/DIMENSION*
G04 Layer:  BOARD GEOMETRY/PANEL*
G04 Layer:  DRAWING FORMAT/OUTLINE*
G04 Layer:  DRAWING FORMAT/PANEL*
G04 Layer:  BOARD GEOMETRY/LOGO_OUTLINE*
G04 *
G04 Offset:    (0.000 0.000)*
G04 Mirror:    No*
G04 Mode:      Positive*
G04 Rotation:  0*
G04 FullContactRelief:  No*
G04 UndefLineWidth:     5.000*
G04 ================== end FILE IDENTIFICATION RECORD ====================*
%FSLAX55Y55*MOIN*%
%IR0*IPPOS*OFA0.00000B0.00000*MIA0B0*SFA1.00000B1.00000*%
%ADD10C,.006*%
%ADD11C,.007098*%
%ADD12C,.005*%
G75*
%LPD*%
G75*
G54D10*
G01X113301Y251667D02*
X113681Y252167D01*
X114124Y252417D01*
X114631Y252500D01*
X115264Y252333D01*
X115707Y251917D01*
X115834Y251417D01*
X115771Y250916D01*
X115517Y250500D01*
X114251Y249667D01*
X113681Y249083D01*
X113301Y248250D01*
X113174Y247500D01*
X115834D01*
G01X119104Y247333D02*
X118977Y247417D01*
Y247583D01*
X119104Y247667D01*
X119231Y247583D01*
Y247417D01*
X119104Y247333D01*
G01X123704Y247500D02*
X124147Y247583D01*
X124654Y247833D01*
X124971Y248250D01*
X125097Y248833D01*
X124971Y249417D01*
X124591Y249917D01*
X124021Y250167D01*
X123387D01*
X123007Y250333D01*
X122691Y250750D01*
X122564Y251333D01*
X122754Y251917D01*
X123197Y252333D01*
X123704Y252500D01*
X124211Y252333D01*
X124654Y251917D01*
X124844Y251333D01*
X124717Y250750D01*
X124401Y250333D01*
X124021Y250167D01*
X123387D01*
X122817Y249917D01*
X122437Y249417D01*
X122311Y248833D01*
X122437Y248250D01*
X122754Y247833D01*
X123261Y247583D01*
X123704Y247500D01*
G01X128304Y252500D02*
X127797Y252333D01*
X127417Y251917D01*
X127164Y251417D01*
X126974Y250750D01*
X126911Y250000D01*
X126974Y249250D01*
X127164Y248583D01*
X127417Y248083D01*
X127797Y247667D01*
X128304Y247500D01*
X128811Y247667D01*
X129191Y248083D01*
X129444Y248583D01*
X129634Y249250D01*
X129697Y250000D01*
X129634Y250750D01*
X129444Y251417D01*
X129191Y251917D01*
X128811Y252333D01*
X128304Y252500D01*
G01X132904D02*
X132397Y252333D01*
X132017Y251917D01*
X131764Y251417D01*
X131574Y250750D01*
X131511Y250000D01*
X131574Y249250D01*
X131764Y248583D01*
X132017Y248083D01*
X132397Y247667D01*
X132904Y247500D01*
X133411Y247667D01*
X133791Y248083D01*
X134044Y248583D01*
X134234Y249250D01*
X134297Y250000D01*
X134234Y250750D01*
X134044Y251417D01*
X133791Y251917D01*
X133411Y252333D01*
X132904Y252500D01*
G01X320333Y94581D02*
X319833Y94961D01*
X319583Y95404D01*
X319500Y95911D01*
X319667Y96544D01*
X320083Y96987D01*
X320583Y97114D01*
X321084Y97051D01*
X321500Y96797D01*
X322333Y95531D01*
X322917Y94961D01*
X323750Y94581D01*
X324500Y94454D01*
Y97114D01*
G01X324667Y100384D02*
X324583Y100257D01*
X324417D01*
X324333Y100384D01*
X324417Y100511D01*
X324583D01*
X324667Y100384D01*
G01X320333Y103781D02*
X319833Y104161D01*
X319583Y104604D01*
X319500Y105111D01*
X319667Y105744D01*
X320083Y106187D01*
X320583Y106314D01*
X321084Y106251D01*
X321500Y105997D01*
X322333Y104731D01*
X322917Y104161D01*
X323750Y103781D01*
X324500Y103654D01*
Y106314D01*
G01X319500Y109584D02*
X319667Y109077D01*
X320083Y108697D01*
X320583Y108444D01*
X321250Y108254D01*
X322000Y108191D01*
X322750Y108254D01*
X323417Y108444D01*
X323917Y108697D01*
X324333Y109077D01*
X324500Y109584D01*
X324333Y110091D01*
X323917Y110471D01*
X323417Y110724D01*
X322750Y110914D01*
X322000Y110977D01*
X321250Y110914D01*
X320583Y110724D01*
X320083Y110471D01*
X319667Y110091D01*
X319500Y109584D01*
G01Y114184D02*
X319667Y113677D01*
X320083Y113297D01*
X320583Y113044D01*
X321250Y112854D01*
X322000Y112791D01*
X322750Y112854D01*
X323417Y113044D01*
X323917Y113297D01*
X324333Y113677D01*
X324500Y114184D01*
X324333Y114691D01*
X323917Y115071D01*
X323417Y115324D01*
X322750Y115514D01*
X322000Y115577D01*
X321250Y115514D01*
X320583Y115324D01*
X320083Y115071D01*
X319667Y114691D01*
X319500Y114184D01*
G01X1254265Y-808523D02*
Y-802523D01*
X1255865D01*
X1256398Y-802823D01*
X1256798Y-803523D01*
X1256932Y-804323D01*
X1256798Y-805123D01*
X1256465Y-805723D01*
X1255865Y-806023D01*
X1254265D01*
G01X1258732Y-808523D02*
X1260398Y-802523D01*
X1262065Y-808523D01*
G01X1261465Y-806423D02*
X1259332D01*
G01X1263665Y-808523D02*
Y-802523D01*
X1266732Y-808523D01*
Y-802523D01*
G01X1271332Y-808523D02*
X1268665D01*
Y-802523D01*
X1271332D01*
G01X1270265Y-805423D02*
X1268665D01*
G01X1273465Y-802523D02*
Y-808523D01*
X1276132D01*
G01X1282932D02*
Y-802523D01*
X1284265D01*
X1284798Y-802823D01*
X1285198Y-803223D01*
X1285532Y-803823D01*
X1285798Y-804523D01*
X1285865Y-805523D01*
X1285798Y-806523D01*
X1285532Y-807223D01*
X1285198Y-807823D01*
X1284798Y-808223D01*
X1284265Y-808523D01*
X1282932D01*
G01X1287865D02*
Y-802523D01*
X1289532D01*
X1290065Y-802823D01*
X1290398Y-803223D01*
X1290532Y-804023D01*
X1290398Y-804823D01*
X1289998Y-805323D01*
X1289532Y-805623D01*
X1287865D01*
G01X1289532D02*
X1290532Y-808523D01*
G01X1292332D02*
X1293998Y-802523D01*
X1295665Y-808523D01*
G01X1295065Y-806423D02*
X1292932D01*
G01X1296798Y-802523D02*
X1297732Y-808523D01*
X1298798Y-802523D01*
X1299865Y-808523D01*
X1300798Y-802523D01*
G01X1302798D02*
X1304398D01*
G01X1303598D02*
Y-808523D01*
G01X1302798D02*
X1304398D01*
G01X1306865D02*
Y-802523D01*
X1309932Y-808523D01*
Y-802523D01*
G01X1313598Y-805523D02*
X1314932D01*
Y-807323D01*
X1314532Y-807923D01*
X1314065Y-808323D01*
X1313398Y-808523D01*
X1312732Y-808323D01*
X1312265Y-807923D01*
X1311865Y-807323D01*
X1311598Y-806623D01*
X1311465Y-805823D01*
Y-805123D01*
X1311598Y-804523D01*
X1311865Y-803823D01*
X1312265Y-803223D01*
X1312665Y-802823D01*
X1313198Y-802523D01*
X1313665D01*
X1314198Y-802723D01*
X1314598Y-803123D01*
G01X1366465Y-861023D02*
Y-855023D01*
X1369532Y-861023D01*
Y-855023D01*
G01X1371332D02*
Y-859323D01*
X1371598Y-860223D01*
X1372132Y-860823D01*
X1372798Y-861023D01*
X1373465Y-860823D01*
X1373998Y-860223D01*
X1374265Y-859323D01*
Y-855023D01*
G01X1375865Y-861023D02*
Y-855023D01*
X1377598Y-860023D01*
X1379332Y-855023D01*
Y-861023D01*
G01X1382932Y-857823D02*
X1383198Y-857523D01*
X1383398Y-857023D01*
X1383532Y-856323D01*
X1383398Y-855723D01*
X1383132Y-855323D01*
X1382665Y-855023D01*
X1380865D01*
Y-861023D01*
X1383065D01*
X1383532Y-860623D01*
X1383798Y-860023D01*
X1383932Y-859323D01*
X1383798Y-858623D01*
X1383398Y-858023D01*
X1382932Y-857823D01*
X1380865D01*
G01X1388532Y-861023D02*
X1385865D01*
Y-855023D01*
X1388532D01*
G01X1387465Y-857923D02*
X1385865D01*
G01X1390665Y-861023D02*
Y-855023D01*
X1392332D01*
X1392865Y-855323D01*
X1393198Y-855723D01*
X1393332Y-856523D01*
X1393198Y-857323D01*
X1392798Y-857823D01*
X1392332Y-858123D01*
X1390665D01*
G01X1392332D02*
X1393332Y-861023D01*
G01X1399365Y-813523D02*
Y-807523D01*
X1401032D01*
X1401565Y-807823D01*
X1401898Y-808223D01*
X1402032Y-809023D01*
X1401898Y-809823D01*
X1401498Y-810323D01*
X1401032Y-810623D01*
X1399365D01*
G01X1401032D02*
X1402032Y-813523D01*
G01X1405498D02*
X1404965Y-813423D01*
X1404498Y-813023D01*
X1404098Y-812423D01*
X1403832Y-811723D01*
X1403698Y-810923D01*
Y-810123D01*
X1403832Y-809323D01*
X1404098Y-808623D01*
X1404498Y-808023D01*
X1404965Y-807623D01*
X1405498Y-807523D01*
X1406032Y-807623D01*
X1406498Y-808023D01*
X1406898Y-808623D01*
X1407165Y-809323D01*
X1407298Y-810123D01*
Y-810923D01*
X1407165Y-811723D01*
X1406898Y-812423D01*
X1406498Y-813023D01*
X1406032Y-813423D01*
X1405498Y-813523D01*
G01X1408898D02*
Y-807523D01*
G01X1411698D02*
Y-813523D01*
G01Y-810523D02*
X1408898D01*
G01X1413365Y-813523D02*
Y-807523D01*
X1415098Y-812523D01*
X1416832Y-807523D01*
Y-813523D01*
G01X1423298Y-812723D02*
X1423832Y-813223D01*
X1424432Y-813523D01*
X1424965D01*
X1425498Y-813223D01*
X1425898Y-812723D01*
X1426098Y-812023D01*
X1425965Y-811323D01*
X1425632Y-810723D01*
X1425032Y-810323D01*
X1424232Y-810123D01*
X1423765Y-809723D01*
X1423565Y-809023D01*
X1423698Y-808323D01*
X1424032Y-807823D01*
X1424498Y-807523D01*
X1424965D01*
X1425432Y-807723D01*
X1425832Y-808223D01*
G01X1430832Y-813523D02*
X1428165D01*
Y-807523D01*
X1430832D01*
G01X1429765Y-810423D02*
X1428165D01*
G01X1432565Y-813523D02*
Y-807523D01*
X1434298Y-812523D01*
X1436032Y-807523D01*
Y-813523D01*
G01X1438298Y-807523D02*
X1439898D01*
G01X1439098D02*
Y-813523D01*
G01X1438298D02*
X1439898D01*
G01X1445365Y-808023D02*
X1444965Y-807723D01*
X1444498Y-807523D01*
X1443965D01*
X1443365Y-807823D01*
X1442898Y-808323D01*
X1442565Y-808923D01*
X1442298Y-809923D01*
X1442232Y-810823D01*
X1442365Y-811723D01*
X1442565Y-812323D01*
X1442965Y-812923D01*
X1443432Y-813323D01*
X1443898Y-813523D01*
X1444365D01*
X1444832Y-813323D01*
X1445232Y-813023D01*
X1445565Y-812623D01*
G01X1448698Y-813523D02*
X1448165Y-813423D01*
X1447698Y-813023D01*
X1447298Y-812423D01*
X1447032Y-811723D01*
X1446898Y-810923D01*
Y-810123D01*
X1447032Y-809323D01*
X1447298Y-808623D01*
X1447698Y-808023D01*
X1448165Y-807623D01*
X1448698Y-807523D01*
X1449232Y-807623D01*
X1449698Y-808023D01*
X1450098Y-808623D01*
X1450365Y-809323D01*
X1450498Y-810123D01*
Y-810923D01*
X1450365Y-811723D01*
X1450098Y-812423D01*
X1449698Y-813023D01*
X1449232Y-813423D01*
X1448698Y-813523D01*
G01X1451965D02*
Y-807523D01*
X1455032Y-813523D01*
Y-807523D01*
G01X1456832Y-813523D02*
Y-807523D01*
X1458165D01*
X1458698Y-807823D01*
X1459098Y-808223D01*
X1459432Y-808823D01*
X1459698Y-809523D01*
X1459765Y-810523D01*
X1459698Y-811523D01*
X1459432Y-812223D01*
X1459098Y-812823D01*
X1458698Y-813223D01*
X1458165Y-813523D01*
X1456832D01*
G01X1461632Y-807523D02*
Y-811823D01*
X1461898Y-812723D01*
X1462432Y-813323D01*
X1463098Y-813523D01*
X1463765Y-813323D01*
X1464298Y-812723D01*
X1464565Y-811823D01*
Y-807523D01*
G01X1469365Y-808023D02*
X1468965Y-807723D01*
X1468498Y-807523D01*
X1467965D01*
X1467365Y-807823D01*
X1466898Y-808323D01*
X1466565Y-808923D01*
X1466298Y-809923D01*
X1466232Y-810823D01*
X1466365Y-811723D01*
X1466565Y-812323D01*
X1466965Y-812923D01*
X1467432Y-813323D01*
X1467898Y-813523D01*
X1468365D01*
X1468832Y-813323D01*
X1469232Y-813023D01*
X1469565Y-812623D01*
G01X1472698Y-807523D02*
Y-813523D01*
G01X1471165Y-807523D02*
X1474232D01*
G01X1477498Y-813523D02*
X1476965Y-813423D01*
X1476498Y-813023D01*
X1476098Y-812423D01*
X1475832Y-811723D01*
X1475698Y-810923D01*
Y-810123D01*
X1475832Y-809323D01*
X1476098Y-808623D01*
X1476498Y-808023D01*
X1476965Y-807623D01*
X1477498Y-807523D01*
X1478032Y-807623D01*
X1478498Y-808023D01*
X1478898Y-808623D01*
X1479165Y-809323D01*
X1479298Y-810123D01*
Y-810923D01*
X1479165Y-811723D01*
X1478898Y-812423D01*
X1478498Y-813023D01*
X1478032Y-813423D01*
X1477498Y-813523D01*
G01X1480965D02*
Y-807523D01*
X1482632D01*
X1483165Y-807823D01*
X1483498Y-808223D01*
X1483632Y-809023D01*
X1483498Y-809823D01*
X1483098Y-810323D01*
X1482632Y-810623D01*
X1480965D01*
G01X1482632D02*
X1483632Y-813523D01*
G01X1490432Y-807523D02*
Y-811823D01*
X1490698Y-812723D01*
X1491232Y-813323D01*
X1491898Y-813523D01*
X1492565Y-813323D01*
X1493098Y-812723D01*
X1493365Y-811823D01*
Y-807523D01*
G01X1495298Y-812723D02*
X1495832Y-813223D01*
X1496432Y-813523D01*
X1496965D01*
X1497498Y-813223D01*
X1497898Y-812723D01*
X1498098Y-812023D01*
X1497965Y-811323D01*
X1497632Y-810723D01*
X1497032Y-810323D01*
X1496232Y-810123D01*
X1495765Y-809723D01*
X1495565Y-809023D01*
X1495698Y-808323D01*
X1496032Y-807823D01*
X1496498Y-807523D01*
X1496965D01*
X1497432Y-807723D01*
X1497832Y-808223D01*
G01X1499832Y-813523D02*
X1501498Y-807523D01*
X1503165Y-813523D01*
G01X1502565Y-811423D02*
X1500432D01*
G01X1483698Y-855023D02*
X1483165Y-855223D01*
X1482765Y-855723D01*
X1482498Y-856323D01*
X1482298Y-857123D01*
X1482232Y-858023D01*
X1482298Y-858923D01*
X1482498Y-859723D01*
X1482765Y-860323D01*
X1483165Y-860823D01*
X1483698Y-861023D01*
X1484232Y-860823D01*
X1484632Y-860323D01*
X1484898Y-859723D01*
X1485098Y-858923D01*
X1485165Y-858023D01*
X1485098Y-857123D01*
X1484898Y-856323D01*
X1484632Y-855723D01*
X1484232Y-855223D01*
X1483698Y-855023D01*
G01X1488498Y-861023D02*
Y-855023D01*
X1487698Y-856223D01*
G01Y-861023D02*
X1489298D01*
G01X1507232Y-856023D02*
X1507632Y-855423D01*
X1508098Y-855123D01*
X1508632Y-855023D01*
X1509298Y-855223D01*
X1509765Y-855723D01*
X1509898Y-856323D01*
X1509832Y-856923D01*
X1509565Y-857423D01*
X1508232Y-858423D01*
X1507632Y-859123D01*
X1507232Y-860123D01*
X1507098Y-861023D01*
X1509898D01*
G01X1518098D02*
X1517565Y-860923D01*
X1517098Y-860523D01*
X1516698Y-859923D01*
X1516432Y-859223D01*
X1516298Y-858423D01*
Y-857623D01*
X1516432Y-856823D01*
X1516698Y-856123D01*
X1517098Y-855523D01*
X1517565Y-855123D01*
X1518098Y-855023D01*
X1518632Y-855123D01*
X1519098Y-855523D01*
X1519498Y-856123D01*
X1519765Y-856823D01*
X1519898Y-857623D01*
Y-858423D01*
X1519765Y-859223D01*
X1519498Y-859923D01*
X1519098Y-860523D01*
X1518632Y-860923D01*
X1518098Y-861023D01*
G01X1521632D02*
Y-855023D01*
X1524165D01*
G01X1523232Y-857923D02*
X1521632D01*
G01X1531232Y-856023D02*
X1531632Y-855423D01*
X1532098Y-855123D01*
X1532632Y-855023D01*
X1533298Y-855223D01*
X1533765Y-855723D01*
X1533898Y-856323D01*
X1533832Y-856923D01*
X1533565Y-857423D01*
X1532232Y-858423D01*
X1531632Y-859123D01*
X1531232Y-860123D01*
X1531098Y-861023D01*
X1533898D01*
G54D11*
G01X1151798Y-832373D02*
X1152008Y-832353D01*
G01D02*
X1153758D01*
G01X1151589Y-832433D02*
X1151798Y-832373D01*
G01X1151239Y-832673D02*
X1151398Y-832533D01*
G01D02*
X1151589Y-832433D01*
G01X1150939Y-833233D02*
X1150998Y-833023D01*
G01D02*
X1151098Y-832833D01*
G01D02*
X1151239Y-832673D01*
G01X1145728Y-832353D02*
X1145208D01*
G01X1142258D02*
X1141708D01*
G01X1137339Y-832373D02*
X1137148Y-832433D01*
G01D02*
X1136968Y-832523D01*
G01D02*
X1136818Y-832653D01*
G01D02*
X1136689Y-832803D01*
G01D02*
X1136598Y-832983D01*
G01D02*
X1136539Y-833173D01*
G01X1134389Y-832353D02*
X1131839D01*
G01D02*
X1131668Y-832373D01*
G01D02*
X1131508Y-832433D01*
G01D02*
X1131368Y-832523D01*
G01D02*
X1131248Y-832643D01*
G01D02*
X1131158Y-832783D01*
G01D02*
X1131098Y-832943D01*
G01X1131078Y-833113D02*
X1131098Y-833283D01*
G01Y-832943D02*
X1131078Y-833113D01*
G01X1139348Y-832353D02*
X1137539D01*
G01D02*
X1137339Y-832373D01*
G01X1153758Y-835663D02*
X1152008D01*
G01D02*
X1151818Y-835643D01*
G01D02*
X1151639Y-835593D01*
G01X1150918Y-833443D02*
X1150939Y-833233D01*
G01X1150918Y-834573D02*
Y-833443D01*
G01X1151639Y-835593D02*
X1151458Y-835513D01*
G01D02*
X1151308Y-835403D01*
G01D02*
X1151178Y-835273D01*
G01D02*
X1151068Y-835113D01*
G01D02*
X1150989Y-834943D01*
G01D02*
X1150939Y-834763D01*
G01D02*
X1150918Y-834573D01*
G01X1148318Y-832353D02*
Y-835663D01*
G01X1145728D02*
Y-832353D01*
G01X1145208D02*
X1143798Y-835663D01*
G01D02*
X1142258Y-832353D01*
G01X1141708D02*
Y-835663D01*
G01X1137398Y-835643D02*
X1137218Y-835603D01*
G01X1136539Y-833173D02*
X1136518Y-833373D01*
G01X1136508Y-834603D02*
Y-834013D01*
G01D02*
X1139348D01*
G01X1136508Y-833373D02*
Y-834013D01*
G01X1137218Y-835603D02*
X1137048Y-835523D01*
G01D02*
X1136898Y-835413D01*
G01D02*
X1136768Y-835283D01*
G01D02*
X1136658Y-835133D01*
G01D02*
X1136578Y-834963D01*
G01D02*
X1136539Y-834783D01*
G01D02*
X1136518Y-834603D01*
G01X1133748Y-834023D02*
X1133898Y-834063D01*
G01D02*
X1134028Y-834133D01*
G01D02*
X1134158Y-834233D01*
G01D02*
X1134258Y-834363D01*
G01D02*
X1134328Y-834493D01*
G01D02*
X1134368Y-834643D01*
G01D02*
X1134389Y-834803D01*
G01D02*
X1134368Y-834973D01*
G01D02*
X1134318Y-835133D01*
G01D02*
X1134248Y-835283D01*
G01D02*
X1134139Y-835413D01*
G01D02*
X1134008Y-835523D01*
G01D02*
X1133858Y-835593D01*
G01D02*
X1133698Y-835643D01*
G01X1133589Y-834003D02*
X1133748Y-834023D01*
G01X1133698Y-835643D02*
X1133528Y-835663D01*
G01X1131968Y-834013D02*
X1133589D01*
G01X1131228Y-833603D02*
X1131339Y-833743D01*
G01D02*
X1131478Y-833853D01*
G01D02*
X1131628Y-833933D01*
G01D02*
X1131798Y-833983D01*
G01D02*
X1131968Y-834003D01*
G01X1133528Y-835663D02*
X1131078D01*
G01X1131098Y-833283D02*
X1131148Y-833453D01*
G01D02*
X1131228Y-833603D01*
G01X1139348Y-835663D02*
X1137578D01*
G01D02*
X1137398Y-835643D01*
G01X1154108Y-826453D02*
X1152498D01*
G01D02*
X1152018Y-826403D01*
G01X1151548Y-826253D02*
X1151128Y-826023D01*
G01X1152018Y-826403D02*
X1151548Y-826253D01*
G01X1149978Y-823973D02*
Y-820783D01*
G01X1150158Y-824933D02*
X1150008Y-824463D01*
G01D02*
X1149978Y-823973D01*
G01X1151128Y-826023D02*
X1150768Y-825703D01*
G01D02*
X1150418Y-825353D01*
G01D02*
X1150158Y-824933D01*
G01X1149258Y-827433D02*
X1149939Y-827633D01*
G01X1149198Y-827413D02*
X1157468D01*
G01X1148608Y-827143D02*
X1149258Y-827433D01*
G01X1151139Y-826023D02*
X1147258D01*
G01X1147618Y-826473D02*
X1148008Y-826763D01*
G01D02*
X1148608Y-827143D01*
G01X1147939Y-826713D02*
X1158628D01*
G01X1146908Y-820783D02*
X1149978D01*
G01D02*
X1146908D01*
G01X1149978Y-820463D02*
X1146908D01*
G01Y-821163D02*
X1149978D01*
G01Y-821853D02*
X1146908D01*
G01Y-822553D02*
X1149978D01*
G01Y-823243D02*
X1146908D01*
G01Y-823933D02*
X1149978D01*
G01X1146908Y-820783D02*
Y-824713D01*
G01D02*
X1146939Y-825203D01*
G01X1150068Y-824633D02*
X1146908D01*
G01X1146939Y-825203D02*
X1147078Y-825673D01*
G01D02*
X1147308Y-826103D01*
G01D02*
X1147618Y-826473D01*
G01X1146978Y-825323D02*
X1150398D01*
G01X1143798Y-820193D02*
X1143678Y-820653D01*
G01D02*
X1143458Y-821073D01*
G01D02*
X1143168Y-821453D01*
G01D02*
X1142808Y-821763D01*
G01D02*
X1142208Y-822103D01*
G01D02*
X1141548Y-822343D01*
G01D02*
X1140868Y-822463D01*
G01X1144208Y-827413D02*
X1140568D01*
G01X1139948Y-820793D02*
X1140408Y-820423D01*
G01X1143728Y-820463D02*
X1140358D01*
G01X1140868Y-822463D02*
X1140168Y-822473D01*
G01D02*
Y-822983D01*
G01X1139978Y-826713D02*
X1143568D01*
G01X1138868Y-821213D02*
X1139428Y-821063D01*
G01D02*
X1139948Y-820793D01*
G01X1139058Y-821163D02*
X1143398D01*
G01X1138789Y-825323D02*
X1142308D01*
G01X1142939Y-826023D02*
X1139378D01*
G01X1138289Y-821253D02*
X1138868Y-821213D01*
G01X1141678Y-824633D02*
X1138189D01*
G01X1151989Y-827863D02*
X1154739D01*
G01X1150958Y-827803D02*
X1151989Y-827863D01*
G01X1149939Y-827633D02*
X1150958Y-827803D01*
G01X1144618Y-827863D02*
X1140958D01*
G01X1136508Y-821253D02*
X1138289D01*
G01X1136508Y-822673D02*
Y-821253D01*
G01X1142648Y-821853D02*
X1136508D01*
G01Y-822553D02*
X1140168D01*
G01X1140408Y-823243D02*
X1136998D01*
G01X1134389Y-820463D02*
X1131078D01*
G01Y-821163D02*
X1134389D01*
G01X1131078Y-822553D02*
X1134389D01*
G01Y-821853D02*
X1131078D01*
G01X1134389Y-823243D02*
X1131078D01*
G01Y-823933D02*
X1134389D01*
G01Y-824633D02*
X1131078D01*
G01X1134389Y-826023D02*
X1131078D01*
G01Y-825323D02*
X1134389D01*
G01X1131078Y-826713D02*
X1134389D01*
G01Y-827413D02*
X1131078D01*
G01X1137598Y-823933D02*
X1141039D01*
G01X1134389Y-827863D02*
X1131078D01*
G01X1154778Y-814643D02*
X1151668D01*
G01X1152089Y-816093D02*
X1152658Y-816053D01*
G01X1151668Y-814643D02*
X1150868Y-814673D01*
G01X1151039Y-816513D02*
X1151539Y-816243D01*
G01D02*
X1152089Y-816093D01*
G01X1150868Y-814673D02*
X1150068Y-814813D01*
G01X1150608Y-816883D02*
X1151039Y-816513D01*
G01X1150339Y-817193D02*
X1150608Y-816883D01*
G01X1149978Y-818343D02*
X1150018Y-817933D01*
G01D02*
X1150139Y-817543D01*
G01D02*
X1150339Y-817193D01*
G01X1149978Y-820783D02*
Y-818343D01*
G01X1156728Y-814913D02*
X1149778D01*
G01X1150068Y-814813D02*
X1149308Y-815073D01*
G01D02*
X1148598Y-815463D01*
G01X1148418Y-815613D02*
X1158298D01*
G01X1148598Y-815463D02*
X1147968Y-815973D01*
G01D02*
X1147598Y-816283D01*
G01X1151439Y-816303D02*
X1147589D01*
G01X1147598Y-816283D02*
X1147308Y-816663D01*
G01X1147078Y-817083D02*
X1146948Y-817543D01*
G01X1147308Y-816663D02*
X1147078Y-817083D01*
G01X1147128Y-816993D02*
X1150508D01*
G01X1146948Y-817543D02*
X1146908Y-818023D01*
G01X1150089Y-817693D02*
X1146939D01*
G01X1146908Y-818383D02*
X1149978D01*
G01Y-819083D02*
X1146908D01*
G01Y-819773D02*
X1149978D01*
G01X1146908Y-818023D02*
Y-820783D01*
G01X1143358Y-816293D02*
X1143578Y-816603D01*
G01D02*
X1143728Y-816953D01*
G01D02*
X1143818Y-817333D01*
G01D02*
X1143839Y-817713D01*
G01D02*
Y-819713D01*
G01D02*
X1143798Y-820193D01*
G01X1142458Y-815413D02*
X1142948Y-815813D01*
G01D02*
X1143358Y-816293D01*
G01X1141908Y-815113D02*
X1142458Y-815413D01*
G01X1140768Y-818063D02*
X1140708Y-817623D01*
G01D02*
X1140558Y-817213D01*
G01X1143839Y-817693D02*
X1140718D01*
G01X1140768Y-818383D02*
X1143839D01*
G01X1140768Y-819163D02*
Y-818063D01*
G01X1143839Y-819083D02*
X1140768D01*
G01X1140598Y-820023D02*
X1140718Y-819603D01*
G01D02*
X1140768Y-819163D01*
G01X1140668Y-819773D02*
X1143828D01*
G01X1140268Y-814763D02*
X1141908Y-815113D01*
G01X1140558Y-817213D02*
X1140328Y-816843D01*
G01D02*
X1140018Y-816533D01*
G01X1140428Y-816993D02*
X1143739D01*
G01X1140408Y-820423D02*
X1140598Y-820023D01*
G01X1140018Y-816533D02*
X1139378Y-816243D01*
G01X1143368Y-816303D02*
X1139508D01*
G01X1138598Y-814643D02*
X1140268Y-814763D01*
G01X1139378Y-816243D02*
X1138698Y-816083D01*
G01D02*
X1138008Y-816053D01*
G01X1135568Y-814643D02*
X1138598D01*
G01X1138008Y-816053D02*
X1135158D01*
G01D02*
X1134958Y-816083D01*
G01D02*
X1134778Y-816163D01*
G01D02*
X1134608Y-816283D01*
G01D02*
X1134489Y-816443D01*
G01D02*
X1134408Y-816633D01*
G01D02*
X1134389Y-816833D01*
G01D02*
Y-827863D01*
G01X1133318Y-814783D02*
X1135568Y-814643D01*
G01X1132418Y-814913D02*
X1140989D01*
G01X1131078Y-815613D02*
X1142698D01*
G01X1134598Y-816303D02*
X1131078D01*
G01Y-816993D02*
X1134389D01*
G01X1131078Y-818383D02*
X1134389D01*
G01Y-817693D02*
X1131078D01*
G01X1134389Y-819083D02*
X1131078D01*
G01Y-819773D02*
X1134389D01*
G01X1131078Y-827863D02*
Y-815113D01*
G01D02*
X1133318Y-814783D01*
G01X1140168Y-822983D02*
X1144618Y-827863D01*
G01X1140958D02*
X1136508Y-822673D01*
G01X1192968Y-832353D02*
X1195239D01*
G01X1190758Y-833193D02*
X1190668Y-832993D01*
G01D02*
X1190539Y-832813D01*
G01D02*
X1190378Y-832653D01*
G01D02*
X1190198Y-832523D01*
G01D02*
X1189998Y-832433D01*
G01D02*
X1189778Y-832373D01*
G01D02*
X1189558Y-832353D01*
G01D02*
X1188818D01*
G01D02*
X1188598Y-832373D01*
G01D02*
X1188378Y-832433D01*
G01X1187828Y-832813D02*
X1187698Y-832993D01*
G01D02*
X1187608Y-833203D01*
G01X1185408Y-832353D02*
X1183989D01*
G01X1182578D02*
X1183989D01*
G01X1188378Y-832433D02*
X1188178Y-832523D01*
G01D02*
X1187989Y-832653D01*
G01D02*
X1187828Y-832813D01*
G01X1178889Y-832353D02*
X1180689D01*
G01X1178218Y-832593D02*
X1178368Y-832493D01*
G01D02*
X1178528Y-832413D01*
G01D02*
X1178708Y-832373D01*
G01D02*
X1178889Y-832353D01*
G01X1177908Y-833033D02*
X1177989Y-832873D01*
G01D02*
X1178089Y-832723D01*
G01D02*
X1178218Y-832593D01*
G01X1177868Y-833213D02*
X1177908Y-833033D01*
G01X1169648Y-832523D02*
X1169828Y-832653D01*
G01D02*
X1169989Y-832813D01*
G01D02*
X1170118Y-832993D01*
G01D02*
X1170208Y-833203D01*
G01X1168998Y-832353D02*
X1169218Y-832373D01*
G01D02*
X1169439Y-832433D01*
G01D02*
X1169648Y-832523D01*
G01X1167218Y-832353D02*
X1168998D01*
G01X1194898Y-834013D02*
X1192968D01*
G01Y-832353D02*
Y-834013D01*
G01D02*
Y-835663D01*
G01X1190839Y-833633D02*
X1190818Y-833413D01*
G01X1190839Y-834363D02*
Y-833633D01*
G01X1190818Y-834593D02*
X1190839Y-834363D01*
G01X1190818Y-833413D02*
X1190758Y-833193D01*
G01X1190189Y-835493D02*
X1190378Y-835363D01*
G01D02*
X1190539Y-835203D01*
G01D02*
X1190668Y-835013D01*
G01D02*
X1190758Y-834803D01*
G01D02*
X1190818Y-834593D01*
G01X1189539Y-835663D02*
X1189768Y-835643D01*
G01D02*
X1189978Y-835583D01*
G01D02*
X1190189Y-835493D01*
G01X1188448Y-835603D02*
X1188648Y-835643D01*
G01D02*
X1188848Y-835663D01*
G01D02*
X1189539D01*
G01X1187608Y-833203D02*
X1187548Y-833423D01*
G01D02*
X1187528Y-833643D01*
G01X1187539D02*
Y-834353D01*
G01D02*
X1187558Y-834553D01*
G01D02*
X1187598Y-834753D01*
G01D02*
X1187678Y-834943D01*
G01D02*
X1187789Y-835123D01*
G01X1183989Y-832353D02*
Y-835663D01*
G01X1187789Y-835123D02*
X1187918Y-835283D01*
G01D02*
X1188078Y-835413D01*
G01D02*
X1188258Y-835523D01*
G01D02*
X1188448Y-835603D01*
G01X1180689Y-835663D02*
X1178918D01*
G01D02*
X1178728Y-835643D01*
G01D02*
X1178548Y-835603D01*
G01D02*
X1178378Y-835523D01*
G01D02*
X1178228Y-835413D01*
G01X1177848Y-833393D02*
X1177868Y-833213D01*
G01X1177848Y-834593D02*
Y-833393D01*
G01X1178228Y-835413D02*
X1178098Y-835283D01*
G01D02*
X1177989Y-835123D01*
G01D02*
X1177908Y-834963D01*
G01D02*
X1177868Y-834783D01*
G01D02*
X1177848Y-834593D01*
G01X1175728Y-832353D02*
Y-834353D01*
G01X1175718D02*
X1175698Y-834583D01*
G01D02*
X1175639Y-834803D01*
G01D02*
X1175539Y-835003D01*
G01D02*
X1175408Y-835193D01*
G01D02*
X1175248Y-835353D01*
G01D02*
X1175068Y-835483D01*
G01D02*
X1174858Y-835583D01*
G01D02*
X1174639Y-835643D01*
G01D02*
X1174408Y-835663D01*
G01D02*
X1173889D01*
G01D02*
X1173668Y-835643D01*
G01D02*
X1173468Y-835593D01*
G01D02*
X1173268Y-835493D01*
G01D02*
X1173089Y-835373D01*
G01X1172658Y-834423D02*
Y-832353D01*
G01X1173089Y-835373D02*
X1172939Y-835223D01*
G01D02*
X1172818Y-835043D01*
G01D02*
X1172718Y-834843D01*
G01D02*
X1172668Y-834643D01*
G01D02*
X1172648Y-834423D01*
G01X1170208Y-833203D02*
X1170268Y-833423D01*
G01D02*
X1170289Y-833643D01*
G01D02*
Y-834353D01*
G01D02*
X1170268Y-834553D01*
G01D02*
X1170228Y-834753D01*
G01D02*
X1170148Y-834943D01*
G01D02*
X1170039Y-835123D01*
G01D02*
X1169908Y-835283D01*
G01D02*
X1169748Y-835413D01*
G01D02*
X1169568Y-835523D01*
G01D02*
X1169378Y-835603D01*
G01D02*
X1169178Y-835643D01*
G01D02*
X1168978Y-835663D01*
G01D02*
X1167218D01*
G01D02*
Y-832353D01*
G01X1162028D02*
X1161548D01*
G01X1158889Y-832813D02*
X1158728Y-832653D01*
G01D02*
X1158539Y-832523D01*
G01X1159108Y-833213D02*
X1159018Y-833003D01*
G01D02*
X1158889Y-832813D01*
G01X1158539Y-832523D02*
X1158328Y-832433D01*
G01D02*
X1158118Y-832373D01*
G01D02*
X1157889Y-832353D01*
G01D02*
X1157148D01*
G01D02*
X1156928Y-832373D01*
G01D02*
X1156718Y-832433D01*
G01D02*
X1156518Y-832523D01*
G01D02*
X1156328Y-832653D01*
G01D02*
X1156178Y-832803D01*
G01D02*
X1156048Y-832983D01*
G01D02*
X1155958Y-833193D01*
G01X1164858Y-832353D02*
Y-835663D01*
G01D02*
X1164308D01*
G01D02*
X1162028Y-832353D01*
G01X1161548D02*
Y-835663D01*
G01X1159189Y-833653D02*
X1159168Y-833423D01*
G01D02*
X1159108Y-833213D01*
G01X1159189Y-834343D02*
Y-833653D01*
G01X1159168Y-834553D02*
X1159189Y-834343D01*
G01X1158648Y-835413D02*
X1158798Y-835273D01*
G01D02*
X1158939Y-835123D01*
G01D02*
X1159048Y-834943D01*
G01D02*
X1159128Y-834753D01*
G01D02*
X1159168Y-834553D01*
G01X1157868Y-835663D02*
X1158078Y-835643D01*
G01D02*
X1158278Y-835603D01*
G01D02*
X1158468Y-835523D01*
G01D02*
X1158648Y-835413D01*
G01X1156728Y-835583D02*
X1156948Y-835643D01*
G01D02*
X1157168Y-835663D01*
G01D02*
X1157868D01*
G01X1155958Y-833193D02*
X1155898Y-833403D01*
G01D02*
X1155878Y-833623D01*
G01D02*
Y-834373D01*
G01D02*
X1155898Y-834593D01*
G01D02*
X1155958Y-834813D01*
G01D02*
X1156048Y-835013D01*
G01D02*
X1156178Y-835203D01*
G01D02*
X1156339Y-835363D01*
G01D02*
X1156518Y-835493D01*
G01D02*
X1156728Y-835583D01*
G01X1196039Y-820463D02*
X1192968D01*
G01Y-821163D02*
X1196039D01*
G01Y-821853D02*
X1192968D01*
G01Y-822553D02*
X1196039D01*
G01Y-823243D02*
X1192968D01*
G01Y-823933D02*
X1196039D01*
G01Y-824633D02*
X1192968D01*
G01Y-825323D02*
X1196039D01*
G01Y-826023D02*
X1192968D01*
G01Y-826713D02*
X1196039D01*
G01Y-827413D02*
X1192968D01*
G01Y-827863D02*
X1196039D01*
G01X1189898Y-820463D02*
X1186589D01*
G01Y-821163D02*
X1189898D01*
G01Y-821853D02*
X1186589D01*
G01Y-822553D02*
X1189898D01*
G01Y-823243D02*
X1186589D01*
G01Y-823933D02*
X1189898D01*
G01Y-824633D02*
X1186589D01*
G01Y-825323D02*
X1189898D01*
G01Y-826023D02*
X1186589D01*
G01Y-826713D02*
X1189898D01*
G01Y-827413D02*
X1186589D01*
G01Y-827863D02*
X1189898D01*
G01X1194518Y-815453D02*
X1193789Y-815093D01*
G01D02*
X1193008Y-814873D01*
G01X1192678Y-816733D02*
X1192839Y-816973D01*
G01D02*
X1192939Y-817253D01*
G01X1192848Y-816993D02*
X1195878D01*
G01X1192939Y-817253D02*
X1192968Y-817553D01*
G01X1196018Y-817693D02*
X1192968D01*
G01Y-818383D02*
X1196039D01*
G01Y-819083D02*
X1192968D01*
G01Y-819773D02*
X1196039D01*
G01X1192968Y-817553D02*
Y-827863D01*
G01X1193008Y-814873D02*
X1191848Y-814703D01*
G01X1191978Y-816363D02*
X1192458Y-816533D01*
G01D02*
X1192678Y-816733D01*
G01X1191468Y-816293D02*
X1191978Y-816363D01*
G01X1195508Y-816303D02*
X1191548D01*
G01X1191848Y-814703D02*
X1190689Y-814643D01*
G01X1190139Y-816533D02*
X1190308Y-816403D01*
G01D02*
X1190498Y-816323D01*
G01D02*
X1190708Y-816293D01*
G01D02*
X1191468D01*
G01X1190008Y-816693D02*
X1190139Y-816533D01*
G01X1189898Y-817103D02*
X1189928Y-816893D01*
G01D02*
X1190008Y-816693D01*
G01X1189898Y-827863D02*
Y-817103D01*
G01X1186568Y-816883D02*
X1186589Y-817093D01*
G01X1186578Y-816993D02*
X1189908D01*
G01X1189898Y-817693D02*
X1186589D01*
G01Y-818383D02*
X1189898D01*
G01Y-819083D02*
X1186589D01*
G01Y-819773D02*
X1189898D01*
G01X1186589Y-817093D02*
Y-827863D01*
G01X1190689Y-814643D02*
X1186358D01*
G01X1185789Y-816293D02*
X1185998Y-816323D01*
G01D02*
X1186189Y-816403D01*
G01D02*
X1186358Y-816523D01*
G01D02*
X1186478Y-816693D01*
G01D02*
X1186568Y-816883D01*
G01X1190628Y-816303D02*
X1185868D01*
G01X1184128Y-816323D02*
X1184348Y-816293D01*
G01D02*
X1185789D01*
G01X1186358Y-814643D02*
X1183389Y-814733D01*
G01X1183758Y-816533D02*
X1183939Y-816403D01*
G01D02*
X1184128Y-816323D01*
G01X1183518Y-817123D02*
X1183548Y-816903D01*
G01D02*
X1183628Y-816703D01*
G01D02*
X1183758Y-816533D01*
G01X1183518Y-827863D02*
Y-817123D01*
G01X1181998Y-814913D02*
X1193148D01*
G01X1183518Y-820463D02*
X1180448D01*
G01Y-821163D02*
X1183518D01*
G01X1180448Y-822553D02*
X1183518D01*
G01Y-821853D02*
X1180448D01*
G01X1183518Y-823243D02*
X1180448D01*
G01Y-823933D02*
X1183518D01*
G01Y-824633D02*
X1180448D01*
G01X1183518Y-826023D02*
X1180448D01*
G01Y-825323D02*
X1183518D01*
G01X1180448Y-826713D02*
X1183518D01*
G01Y-827413D02*
X1180448D01*
G01X1173208Y-820203D02*
X1173018Y-820283D01*
G01X1172978Y-821993D02*
X1173189Y-822073D01*
G01D02*
X1173358Y-822203D01*
G01D02*
X1173489Y-822373D01*
G01D02*
X1173568Y-822573D01*
G01X1176908Y-822553D02*
X1173558D01*
G01X1173568Y-822573D02*
X1173598Y-822793D01*
G01Y-823243D02*
X1176908D01*
G01Y-823933D02*
X1173598D01*
G01Y-824633D02*
X1176908D01*
G01X1173598Y-826023D02*
X1176908D01*
G01Y-825323D02*
X1173598D01*
G01X1176908Y-826713D02*
X1173598D01*
G01Y-827413D02*
X1176908D01*
G01X1173598Y-822793D02*
Y-827863D01*
G01X1173018Y-820283D02*
X1172818Y-820303D01*
G01X1172768Y-821963D02*
X1172978Y-821993D01*
G01X1172818Y-820303D02*
X1167318D01*
G01D02*
X1167108Y-820283D01*
G01X1167089Y-821983D02*
X1167289Y-821963D01*
G01D02*
X1172768D01*
G01X1167108Y-820283D02*
X1166918Y-820203D01*
G01X1166898Y-822063D02*
X1167089Y-821983D01*
G01X1166739Y-822193D02*
X1166898Y-822063D01*
G01X1180448Y-827863D02*
X1183518D01*
G01X1173598D02*
X1176908D01*
G01X1180448Y-815613D02*
X1194728D01*
G01X1183389Y-814733D02*
X1180448Y-815113D01*
G01X1184268Y-816303D02*
X1180448D01*
G01Y-816993D02*
X1183539D01*
G01X1180448Y-818383D02*
X1183518D01*
G01Y-817693D02*
X1180448D01*
G01X1183518Y-819083D02*
X1180448D01*
G01Y-819773D02*
X1183518D01*
G01X1180448Y-815113D02*
Y-827863D01*
G01X1176908D02*
Y-815113D01*
G01D02*
X1173598D01*
G01Y-815613D02*
X1176908D01*
G01Y-816303D02*
X1173598D01*
G01Y-816993D02*
X1176908D01*
G01X1173598Y-818383D02*
X1176908D01*
G01Y-817693D02*
X1173598D01*
G01X1176908Y-819083D02*
X1173598D01*
G01Y-815113D02*
Y-819523D01*
G01D02*
X1173568Y-819723D01*
G01D02*
X1173489Y-819913D01*
G01X1173548Y-819773D02*
X1176908D01*
G01X1173489Y-819913D02*
X1173368Y-820083D01*
G01D02*
X1173208Y-820203D01*
G01X1166918D02*
X1166748Y-820073D01*
G01X1166539Y-822543D02*
X1166618Y-822353D01*
G01D02*
X1166739Y-822193D01*
G01X1166508Y-822743D02*
X1166539Y-822543D01*
G01X1166508Y-827863D02*
Y-822743D01*
G01X1163208Y-820463D02*
X1176908D01*
G01Y-821163D02*
X1163208D01*
G01X1166539Y-822553D02*
X1163208D01*
G01Y-821853D02*
X1176908D01*
G01X1163208Y-823243D02*
X1166508D01*
G01Y-823933D02*
X1163208D01*
G01Y-824633D02*
X1166508D01*
G01Y-825323D02*
X1163208D01*
G01Y-826023D02*
X1166508D01*
G01Y-826713D02*
X1163208D01*
G01Y-827413D02*
X1166508D01*
G01X1163208Y-827863D02*
X1166508D01*
G01X1159848Y-824993D02*
X1159898Y-824443D01*
G01X1159668Y-825513D02*
X1159848Y-824993D01*
G01X1159378Y-825983D02*
X1159668Y-825513D01*
G01X1158528Y-826813D02*
X1158989Y-826373D01*
G01D02*
X1159378Y-825983D01*
G01X1157998Y-827163D02*
X1158528Y-826813D01*
G01X1159898Y-820463D02*
X1156828D01*
G01Y-821163D02*
X1159898D01*
G01X1156828Y-822553D02*
X1159898D01*
G01Y-821853D02*
X1156828D01*
G01X1159898Y-823243D02*
X1156828D01*
G01Y-823933D02*
X1159898D01*
G01X1156828Y-823973D02*
X1156768Y-824553D01*
G01X1159878Y-824633D02*
X1156739D01*
G01X1157418Y-827433D02*
X1157998Y-827163D01*
G01X1156768Y-824553D02*
X1156578Y-825113D01*
G01D02*
X1156278Y-825623D01*
G01X1156448Y-825323D02*
X1159728D01*
G01X1156548Y-827693D02*
X1157418Y-827433D01*
G01X1159339Y-826023D02*
X1155748D01*
G01X1166748Y-820073D02*
X1166618Y-819903D01*
G01D02*
X1166539Y-819713D01*
G01D02*
X1166508Y-819503D01*
G01D02*
Y-815113D01*
G01X1163208Y-815613D02*
X1166508D01*
G01Y-815113D02*
X1163208D01*
G01X1166508Y-816303D02*
X1163208D01*
G01Y-816993D02*
X1166508D01*
G01Y-817693D02*
X1163208D01*
G01Y-818383D02*
X1166508D01*
G01Y-819083D02*
X1163208D01*
G01Y-819773D02*
X1166568D01*
G01X1163208Y-815113D02*
Y-827863D01*
G01X1159689Y-817143D02*
X1159408Y-816623D01*
G01X1159898Y-818303D02*
X1159848Y-817713D01*
G01D02*
X1159689Y-817143D01*
G01X1159898Y-824443D02*
Y-818303D01*
G01X1159408Y-816623D02*
X1159028Y-816173D01*
G01D02*
X1158508Y-815733D01*
G01D02*
X1157928Y-815383D01*
G01D02*
X1157298Y-815113D01*
G01X1156789Y-817853D02*
X1156828Y-818303D01*
G01Y-818383D02*
X1159898D01*
G01X1159848Y-817693D02*
X1156739D01*
G01X1159898Y-819083D02*
X1156828D01*
G01Y-819773D02*
X1159898D01*
G01X1156828Y-818303D02*
Y-823973D01*
G01X1157298Y-815113D02*
X1156489Y-814833D01*
G01X1156078Y-816763D02*
X1156408Y-817063D01*
G01D02*
X1156648Y-817433D01*
G01D02*
X1156789Y-817853D01*
G01X1156328Y-816993D02*
X1159608D01*
G01X1156278Y-825623D02*
X1155808Y-825993D01*
G01D02*
X1155278Y-826253D01*
G01D02*
X1154708Y-826413D01*
G01D02*
X1154108Y-826453D01*
G01X1155648Y-827833D02*
X1156548Y-827693D01*
G01X1154739Y-827863D02*
X1155648Y-827833D01*
G01X1156489Y-814833D02*
X1155639Y-814673D01*
G01X1155168Y-816213D02*
X1155648Y-816443D01*
G01D02*
X1156078Y-816763D01*
G01X1159139Y-816303D02*
X1155358D01*
G01X1155639Y-814673D02*
X1154778Y-814643D01*
G01X1154108Y-816053D02*
X1154648Y-816083D01*
G01D02*
X1155168Y-816213D01*
G01X1152658Y-816053D02*
X1154108D01*
G01X1195978Y-832843D02*
X1196018Y-832993D01*
G01D02*
X1196039Y-833153D01*
G01D02*
X1196018Y-833323D01*
G01X1195239Y-832353D02*
X1195398Y-832373D01*
G01D02*
X1195548Y-832413D01*
G01D02*
X1195678Y-832483D01*
G01D02*
X1195808Y-832583D01*
G01D02*
X1195908Y-832713D01*
G01D02*
X1195978Y-832843D01*
G01X1196018Y-833323D02*
X1195968Y-833483D01*
G01D02*
X1195898Y-833633D01*
G01D02*
X1195789Y-833763D01*
G01D02*
X1195658Y-833873D01*
G01D02*
X1195508Y-833943D01*
G01D02*
X1195348Y-833993D01*
G01D02*
X1195178Y-834013D01*
G01D02*
X1194898D01*
G01X1195798Y-835663D02*
X1194898Y-834013D01*
G01X1196039Y-817903D02*
X1195989Y-817353D01*
G01X1196039Y-827863D02*
Y-817903D01*
G01X1195989Y-817353D02*
X1195828Y-816823D01*
G01D02*
X1195548Y-816343D01*
G01D02*
X1195168Y-815933D01*
G01D02*
X1194518Y-815453D01*
G54D12*
G01X1683598Y766477D02*
X-516402D01*
Y-923523D01*
G01Y-933523D02*
X1683598D01*
Y766477D01*
G01X-516402Y-923523D02*
Y-933523D01*
G01X-494827Y-703523D02*
X-486952Y-678523D01*
X-479076Y-703523D01*
G01X-481912Y-694773D02*
X-491992D01*
G01X-466402Y-503523D02*
X-496402D01*
G01X-484432Y-330189D02*
X-483172Y-328940D01*
X-482227Y-326857D01*
X-481596Y-323939D01*
X-482227Y-321440D01*
X-483486Y-319773D01*
X-485692Y-318523D01*
X-494197D01*
Y-343523D01*
X-483801D01*
X-481596Y-341857D01*
X-480337Y-339356D01*
X-479707Y-336440D01*
X-480337Y-333524D01*
X-482227Y-331023D01*
X-484432Y-330189D01*
X-494197D01*
G01X-466402Y-73523D02*
X-496402D01*
G01X-480022Y79393D02*
X-481912Y80644D01*
X-484116Y81477D01*
X-486636D01*
X-489472Y80227D01*
X-491677Y78144D01*
X-493252Y75644D01*
X-494512Y71477D01*
X-494827Y67727D01*
X-494197Y63977D01*
X-493252Y61477D01*
X-491362Y58977D01*
X-489156Y57310D01*
X-486952Y56477D01*
X-484747D01*
X-482542Y57310D01*
X-480652Y58560D01*
X-479076Y60226D01*
G01X-466402Y356477D02*
X-496402D01*
G01X-493882Y536477D02*
Y561477D01*
X-487582D01*
X-485062Y560227D01*
X-483172Y558560D01*
X-481596Y556061D01*
X-480337Y553143D01*
X-480022Y548977D01*
X-480337Y544810D01*
X-481596Y541893D01*
X-483172Y539393D01*
X-485062Y537727D01*
X-487582Y536477D01*
X-493882D01*
G01X-466402Y696477D02*
Y-863523D01*
X-406402D01*
G01X-436402Y696477D02*
X-246402D01*
G01X-466402D02*
X-416402D01*
G01X-406402Y-863523D02*
X1113598D01*
G01X-243172Y-913523D02*
Y-888523D01*
X-254827Y-906440D01*
X-239076D01*
G01X-246402Y696477D02*
X1623598D01*
G01X-243172Y716477D02*
Y741477D01*
X-254827Y723560D01*
X-239076D01*
G01X23598Y-863523D02*
Y-913523D01*
G01X0Y0D02*
Y220000D01*
G01Y0D02*
X280000D01*
G01Y220000D02*
X0D01*
G01Y222000D02*
Y260200D01*
G01X8000Y251500D02*
X0Y250000D01*
X8000Y248500D01*
Y251500D01*
G01X108554Y250000D02*
X0D01*
G01X23598Y696477D02*
Y746477D01*
G01X138854Y250000D02*
X280000D01*
G01X272000Y248500D02*
X280000Y250000D01*
X272000Y251500D01*
Y248500D01*
G01X286118Y-908523D02*
X288008Y-911440D01*
X290528Y-913106D01*
X293364Y-913523D01*
X295884Y-913106D01*
X298404Y-911023D01*
X299978Y-908523D01*
X300293Y-906023D01*
X299663Y-903107D01*
X297458Y-901023D01*
X295253Y-900189D01*
X292418D01*
G01X295253D02*
X297143Y-898940D01*
X298719Y-896857D01*
X299348Y-894357D01*
X298719Y-891856D01*
X297143Y-889773D01*
X294308Y-888523D01*
X291473Y-888940D01*
X288638Y-890607D01*
G01X280000Y0D02*
Y220000D01*
G01X282000Y0D02*
X332200D01*
G01X282000Y220000D02*
X332200D01*
G01X280000Y222000D02*
Y260200D01*
G01X286118Y721477D02*
X288008Y718560D01*
X290528Y716894D01*
X293364Y716477D01*
X295884Y716894D01*
X298404Y718977D01*
X299978Y721477D01*
X300293Y723977D01*
X299663Y726893D01*
X297458Y728977D01*
X295253Y729811D01*
X292418D01*
G01X295253D02*
X297143Y731060D01*
X298719Y733143D01*
X299348Y735644D01*
X298719Y738144D01*
X297143Y740227D01*
X294308Y741477D01*
X291473Y741060D01*
X288638Y739393D01*
G01X322000Y89834D02*
Y0D01*
G01X320500Y8000D02*
X322000Y0D01*
X323500Y8000D01*
X320500D01*
G01X322000Y120134D02*
Y220000D01*
G01X323500Y212000D02*
X322000Y220000D01*
X320500Y212000D01*
X323500D01*
G01X563598Y-913523D02*
Y-863523D01*
G01Y696477D02*
Y746477D01*
G01X847063Y737311D02*
X848953Y739810D01*
X851158Y741060D01*
X853679Y741477D01*
X856828Y740644D01*
X859034Y738560D01*
X859663Y736061D01*
X859349Y733560D01*
X858088Y731477D01*
X851788Y727310D01*
X848953Y724394D01*
X847063Y720226D01*
X846433Y716477D01*
X859663D01*
G01X877063Y-892689D02*
X878953Y-890190D01*
X881158Y-888940D01*
X883679Y-888523D01*
X886828Y-889356D01*
X889034Y-891440D01*
X889663Y-893939D01*
X889348Y-896440D01*
X888088Y-898523D01*
X881788Y-902690D01*
X878953Y-905606D01*
X877063Y-909774D01*
X876433Y-913523D01*
X889663D01*
G01X983598Y696477D02*
Y604546D01*
G01Y636477D02*
X1633598D01*
G01X983598Y666477D02*
X1633598D01*
G01X994848Y646477D02*
Y656477D01*
X997973D01*
X998973Y655977D01*
X999599Y655310D01*
X999848Y653977D01*
X999599Y652644D01*
X998848Y651810D01*
X997973Y651310D01*
X994848D01*
G01X997973D02*
X999848Y646477D01*
G01X1009848D02*
X1004848D01*
Y656477D01*
X1009848D01*
G01X1007848Y651644D02*
X1004848D01*
G01X1014223Y656477D02*
X1017348Y646477D01*
X1020474Y656477D01*
G01X1033598Y666477D02*
Y604546D01*
G01X1088598Y-863523D02*
Y-788523D01*
X1633598D01*
Y-863523D01*
X1123598D01*
G01D02*
Y-913523D01*
G01X1151943Y-832433D02*
G03I-355J0D01*
G01X1152154Y-832373D02*
G03I-355J0D01*
G01X1152363Y-832353D02*
G03I-355J0D01*
G01X1151454Y-832833D02*
G03I-355J0D01*
G01X1151593Y-832673D02*
G03I-355J0D01*
G01X1151754Y-832533D02*
G03I-355J0D01*
G01X1151293Y-833233D02*
G03I-355J0D01*
G01X1151354Y-833023D02*
G03I-355J0D01*
G01X1148673Y-832353D02*
G03I-355J0D01*
G01X1146084D02*
G03I-355J0D01*
G01X1145563D02*
G03I-355J0D01*
G01X1142613D02*
G03I-355J0D01*
G01X1142063D02*
G03I-355J0D01*
G01X1139704D02*
G03I-355J0D01*
G01X1137504Y-832433D02*
G03I-355J0D01*
G01X1137324Y-832523D02*
G03I-355J0D01*
G01X1137173Y-832653D02*
G03I-355J0D01*
G01X1137043Y-832803D02*
G03I-355J0D01*
G01X1136954Y-832983D02*
G03I-355J0D01*
G01X1136893Y-833173D02*
G03I-355J0D01*
G01X1136873Y-833373D02*
G03I-355J0D01*
G01X1136863D02*
G03I-355J0D01*
G01X1134743Y-832353D02*
G03I-355J0D01*
G01X1132193D02*
G03I-355J0D01*
G01X1132023Y-832373D02*
G03I-355J0D01*
G01X1131863Y-832433D02*
G03I-355J0D01*
G01X1131724Y-832523D02*
G03I-355J0D01*
G01X1131604Y-832643D02*
G03I-355J0D01*
G01X1131513Y-832783D02*
G03I-355J0D01*
G01X1131454Y-832943D02*
G03I-355J0D01*
G01X1131434Y-833113D02*
G03I-355J0D01*
G01X1131454Y-833283D02*
G03I-355J0D01*
G01X1137893Y-832353D02*
G03I-355J0D01*
G01X1137693Y-832373D02*
G03I-355J0D01*
G01X1152363Y-835663D02*
G03I-355J0D01*
G01X1152173Y-835643D02*
G03I-355J0D01*
G01X1151993Y-835593D02*
G03I-355J0D01*
G01X1151273Y-833443D02*
G03I-355J0D01*
G01Y-834573D02*
G03I-355J0D01*
G01X1151813Y-835513D02*
G03I-355J0D01*
G01X1151663Y-835403D02*
G03I-355J0D01*
G01X1151533Y-835273D02*
G03I-355J0D01*
G01X1151424Y-835113D02*
G03I-355J0D01*
G01X1151343Y-834943D02*
G03I-355J0D01*
G01X1151293Y-834763D02*
G03I-355J0D01*
G01X1148673Y-835663D02*
G03I-355J0D01*
G01X1146084D02*
G03I-355J0D01*
G01X1144154D02*
G03I-355J0D01*
G01X1142063D02*
G03I-355J0D01*
G01X1139704Y-834013D02*
G03I-355J0D01*
G01Y-835663D02*
G03I-355J0D01*
G01X1137404Y-835523D02*
G03I-355J0D01*
G01X1136873Y-834603D02*
G03I-355J0D01*
G01X1136863D02*
G03I-355J0D01*
G01Y-834013D02*
G03I-355J0D01*
G01D02*
G03I-355J0D01*
G01X1137254Y-835413D02*
G03I-355J0D01*
G01X1137123Y-835283D02*
G03I-355J0D01*
G01X1137013Y-835133D02*
G03I-355J0D01*
G01X1136934Y-834963D02*
G03I-355J0D01*
G01X1136893Y-834783D02*
G03I-355J0D01*
G01X1134104Y-834023D02*
G03I-355J0D01*
G01X1134254Y-834063D02*
G03I-355J0D01*
G01X1134383Y-834133D02*
G03I-355J0D01*
G01X1134513Y-834233D02*
G03I-355J0D01*
G01X1134613Y-834363D02*
G03I-355J0D01*
G01X1134683Y-834493D02*
G03I-355J0D01*
G01X1134724Y-834643D02*
G03I-355J0D01*
G01X1134743Y-834803D02*
G03I-355J0D01*
G01X1134724Y-834973D02*
G03I-355J0D01*
G01X1134673Y-835133D02*
G03I-355J0D01*
G01X1134604Y-835283D02*
G03I-355J0D01*
G01X1134493Y-835413D02*
G03I-355J0D01*
G01X1134363Y-835523D02*
G03I-355J0D01*
G01X1134213Y-835593D02*
G03I-355J0D01*
G01X1134054Y-835643D02*
G03I-355J0D01*
G01X1133943Y-834013D02*
G03I-355J0D01*
G01Y-834003D02*
G03I-355J0D01*
G01X1133884Y-835663D02*
G03I-355J0D01*
G01X1132324Y-834003D02*
G03I-355J0D01*
G01Y-834013D02*
G03I-355J0D01*
G01X1131504Y-833453D02*
G03I-355J0D01*
G01X1131584Y-833603D02*
G03I-355J0D01*
G01X1131693Y-833743D02*
G03I-355J0D01*
G01X1131834Y-833853D02*
G03I-355J0D01*
G01X1131984Y-833933D02*
G03I-355J0D01*
G01X1132154Y-833983D02*
G03I-355J0D01*
G01X1131434Y-835663D02*
G03I-355J0D01*
G01X1137934D02*
G03I-355J0D01*
G01X1137754Y-835643D02*
G03I-355J0D01*
G01X1137573Y-835603D02*
G03I-355J0D01*
G01X1633598Y696477D02*
Y-863523D01*
X1113598D01*
G01X1152854Y-826453D02*
G03I-355J0D01*
G01X1152373Y-826403D02*
G03I-355J0D01*
G01X1151904Y-826253D02*
G03I-355J0D01*
G01X1151484Y-826023D02*
G03I-355J0D01*
G01X1151124Y-825703D02*
G03I-355J0D01*
G01X1151493Y-826023D02*
G03I-355J0D01*
G01X1150334Y-820783D02*
G03I-355J0D01*
G01D02*
G03I-355J0D01*
G01D02*
G03I-355J0D01*
G01Y-820463D02*
G03I-355J0D01*
G01Y-821163D02*
G03I-355J0D01*
G01Y-821853D02*
G03I-355J0D01*
G01Y-822553D02*
G03I-355J0D01*
G01Y-823243D02*
G03I-355J0D01*
G01Y-823973D02*
G03I-355J0D01*
G01Y-823933D02*
G03I-355J0D01*
G01X1150513Y-824933D02*
G03I-355J0D01*
G01X1150363Y-824463D02*
G03I-355J0D01*
G01X1150423Y-824633D02*
G03I-355J0D01*
G01X1150773Y-825353D02*
G03I-355J0D01*
G01X1150754Y-825323D02*
G03I-355J0D01*
G01X1149613Y-827433D02*
G03I-355J0D01*
G01X1149554Y-827413D02*
G03I-355J0D01*
G01X1148963Y-827143D02*
G03I-355J0D01*
G01X1147663Y-826103D02*
G03I-355J0D01*
G01X1147613Y-826023D02*
G03I-355J0D01*
G01X1147973Y-826473D02*
G03I-355J0D01*
G01X1148363Y-826763D02*
G03I-355J0D01*
G01X1148293Y-826713D02*
G03I-355J0D01*
G01X1147263Y-820783D02*
G03I-355J0D01*
G01D02*
G03I-355J0D01*
G01D02*
G03I-355J0D01*
G01Y-820463D02*
G03I-355J0D01*
G01Y-821163D02*
G03I-355J0D01*
G01Y-821853D02*
G03I-355J0D01*
G01Y-822553D02*
G03I-355J0D01*
G01Y-823243D02*
G03I-355J0D01*
G01Y-823933D02*
G03I-355J0D01*
G01Y-824713D02*
G03I-355J0D01*
G01X1147293Y-825203D02*
G03I-355J0D01*
G01X1147263Y-824633D02*
G03I-355J0D01*
G01X1147434Y-825673D02*
G03I-355J0D01*
G01X1147333Y-825323D02*
G03I-355J0D01*
G01X1144563Y-827413D02*
G03I-355J0D01*
G01X1144154Y-820193D02*
G03I-355J0D01*
G01X1144034Y-820653D02*
G03I-355J0D01*
G01X1144084Y-820463D02*
G03I-355J0D01*
G01X1143813Y-821073D02*
G03I-355J0D01*
G01X1143524Y-821453D02*
G03I-355J0D01*
G01X1143754Y-821163D02*
G03I-355J0D01*
G01X1143924Y-826713D02*
G03I-355J0D01*
G01X1143163Y-821763D02*
G03I-355J0D01*
G01X1142563Y-822103D02*
G03I-355J0D01*
G01X1143004Y-821853D02*
G03I-355J0D01*
G01X1142663Y-825323D02*
G03I-355J0D01*
G01X1143293Y-826023D02*
G03I-355J0D01*
G01X1141904Y-822343D02*
G03I-355J0D01*
G01X1142034Y-824633D02*
G03I-355J0D01*
G01X1140954Y-820023D02*
G03I-355J0D01*
G01X1141223Y-822463D02*
G03I-355J0D01*
G01X1141393Y-823933D02*
G03I-355J0D01*
G01X1140924Y-827413D02*
G03I-355J0D01*
G01X1140304Y-820793D02*
G03I-355J0D01*
G01X1140763Y-820423D02*
G03I-355J0D01*
G01X1140713Y-820463D02*
G03I-355J0D01*
G01X1140523Y-822473D02*
G03I-355J0D01*
G01Y-822553D02*
G03I-355J0D01*
G01Y-822983D02*
G03I-355J0D01*
G01X1140763Y-823243D02*
G03I-355J0D01*
G01X1140334Y-826713D02*
G03I-355J0D01*
G01X1139224Y-821213D02*
G03I-355J0D01*
G01X1139783Y-821063D02*
G03I-355J0D01*
G01X1139413Y-821163D02*
G03I-355J0D01*
G01X1139143Y-825323D02*
G03I-355J0D01*
G01X1139734Y-826023D02*
G03I-355J0D01*
G01X1138643Y-821253D02*
G03I-355J0D01*
G01X1138543Y-824633D02*
G03I-355J0D01*
G01X1152343Y-827863D02*
G03I-355J0D01*
G01X1151313Y-827803D02*
G03I-355J0D01*
G01X1150293Y-827633D02*
G03I-355J0D01*
G01X1144973Y-827863D02*
G03I-355J0D01*
G01X1141313D02*
G03I-355J0D01*
G01X1136863Y-821253D02*
G03I-355J0D01*
G01Y-822673D02*
G03I-355J0D01*
G01Y-821853D02*
G03I-355J0D01*
G01Y-822553D02*
G03I-355J0D01*
G01X1137354Y-823243D02*
G03I-355J0D01*
G01X1134743Y-820463D02*
G03I-355J0D01*
G01Y-821853D02*
G03I-355J0D01*
G01Y-821163D02*
G03I-355J0D01*
G01Y-822553D02*
G03I-355J0D01*
G01Y-823243D02*
G03I-355J0D01*
G01Y-823933D02*
G03I-355J0D01*
G01Y-825323D02*
G03I-355J0D01*
G01Y-824633D02*
G03I-355J0D01*
G01Y-826023D02*
G03I-355J0D01*
G01Y-826713D02*
G03I-355J0D01*
G01Y-827413D02*
G03I-355J0D01*
G01X1131434Y-820463D02*
G03I-355J0D01*
G01Y-821163D02*
G03I-355J0D01*
G01Y-822553D02*
G03I-355J0D01*
G01Y-821853D02*
G03I-355J0D01*
G01Y-823243D02*
G03I-355J0D01*
G01Y-823933D02*
G03I-355J0D01*
G01Y-824633D02*
G03I-355J0D01*
G01Y-826023D02*
G03I-355J0D01*
G01Y-825323D02*
G03I-355J0D01*
G01Y-826713D02*
G03I-355J0D01*
G01Y-827413D02*
G03I-355J0D01*
G01X1137954Y-823933D02*
G03I-355J0D01*
G01X1134743Y-827863D02*
G03I-355J0D01*
G01X1131434D02*
G03I-355J0D01*
G01X1152023Y-814643D02*
G03I-355J0D01*
G01X1151893Y-816243D02*
G03I-355J0D01*
G01X1152443Y-816093D02*
G03I-355J0D01*
G01X1151223Y-814673D02*
G03I-355J0D01*
G01X1151393Y-816513D02*
G03I-355J0D01*
G01X1151793Y-816303D02*
G03I-355J0D01*
G01X1150423Y-814813D02*
G03I-355J0D01*
G01X1150963Y-816883D02*
G03I-355J0D01*
G01D02*
G03I-355J0D01*
G01X1150863Y-816993D02*
G03I-355J0D01*
G01X1150493Y-817543D02*
G03I-355J0D01*
G01X1150693Y-817193D02*
G03I-355J0D01*
G01X1150334Y-818343D02*
G03I-355J0D01*
G01X1150373Y-817933D02*
G03I-355J0D01*
G01X1150443Y-817693D02*
G03I-355J0D01*
G01X1150334Y-818383D02*
G03I-355J0D01*
G01Y-819083D02*
G03I-355J0D01*
G01Y-819773D02*
G03I-355J0D01*
G01X1150134Y-814913D02*
G03I-355J0D01*
G01X1149663Y-815073D02*
G03I-355J0D01*
G01X1148954Y-815463D02*
G03I-355J0D01*
G01X1148773Y-815613D02*
G03I-355J0D01*
G01X1148324Y-815973D02*
G03I-355J0D01*
G01X1147954Y-816283D02*
G03I-355J0D01*
G01X1147663Y-816663D02*
G03I-355J0D01*
G01X1147943Y-816303D02*
G03I-355J0D01*
G01X1147434Y-817083D02*
G03I-355J0D01*
G01X1147304Y-817543D02*
G03I-355J0D01*
G01X1147434Y-817083D02*
G03I-355J0D01*
G01X1147483Y-816993D02*
G03I-355J0D01*
G01X1147263Y-818023D02*
G03I-355J0D01*
G01X1147293Y-817693D02*
G03I-355J0D01*
G01X1147263Y-818383D02*
G03I-355J0D01*
G01Y-819083D02*
G03I-355J0D01*
G01Y-819773D02*
G03I-355J0D01*
G01X1143713Y-816293D02*
G03I-355J0D01*
G01X1143934Y-816603D02*
G03I-355J0D01*
G01X1143723Y-816303D02*
G03I-355J0D01*
G01X1144084Y-816953D02*
G03I-355J0D01*
G01X1144173Y-817333D02*
G03I-355J0D01*
G01X1144193Y-817713D02*
G03I-355J0D01*
G01X1144093Y-816993D02*
G03I-355J0D01*
G01X1144193Y-817693D02*
G03I-355J0D01*
G01Y-818383D02*
G03I-355J0D01*
G01Y-819083D02*
G03I-355J0D01*
G01Y-819713D02*
G03I-355J0D01*
G01X1144184Y-819773D02*
G03I-355J0D01*
G01X1142813Y-815413D02*
G03I-355J0D01*
G01X1143304Y-815813D02*
G03I-355J0D01*
G01X1143054Y-815613D02*
G03I-355J0D01*
G01X1142263Y-815113D02*
G03I-355J0D01*
G01X1141343Y-814913D02*
G03I-355J0D01*
G01X1140913Y-817213D02*
G03I-355J0D01*
G01X1141124Y-818063D02*
G03I-355J0D01*
G01X1141063Y-817623D02*
G03I-355J0D01*
G01X1141073Y-817693D02*
G03I-355J0D01*
G01X1141124Y-818383D02*
G03I-355J0D01*
G01Y-819163D02*
G03I-355J0D01*
G01Y-819083D02*
G03I-355J0D01*
G01X1141073Y-819603D02*
G03I-355J0D01*
G01X1141024Y-819773D02*
G03I-355J0D01*
G01X1140624Y-814763D02*
G03I-355J0D01*
G01X1140373Y-816533D02*
G03I-355J0D01*
G01X1140783Y-816993D02*
G03I-355J0D01*
G01X1140684Y-816843D02*
G03I-355J0D01*
G01X1139734Y-816243D02*
G03I-355J0D01*
G01X1139863Y-816303D02*
G03I-355J0D01*
G01X1138954Y-814643D02*
G03I-355J0D01*
G01X1139054Y-816083D02*
G03I-355J0D01*
G01X1138363Y-816053D02*
G03I-355J0D01*
G01X1135924Y-814643D02*
G03I-355J0D01*
G01X1135513Y-816053D02*
G03I-355J0D01*
G01X1135313Y-816083D02*
G03I-355J0D01*
G01X1135134Y-816163D02*
G03I-355J0D01*
G01X1134963Y-816283D02*
G03I-355J0D01*
G01X1134843Y-816443D02*
G03I-355J0D01*
G01X1134954Y-816303D02*
G03I-355J0D01*
G01X1134763Y-816633D02*
G03I-355J0D01*
G01X1134743Y-816833D02*
G03I-355J0D01*
G01Y-817693D02*
G03I-355J0D01*
G01Y-816993D02*
G03I-355J0D01*
G01Y-818383D02*
G03I-355J0D01*
G01Y-819083D02*
G03I-355J0D01*
G01Y-819773D02*
G03I-355J0D01*
G01X1133673Y-814783D02*
G03I-355J0D01*
G01X1132773Y-814913D02*
G03I-355J0D01*
G01X1131434Y-815113D02*
G03I-355J0D01*
G01D02*
G03I-355J0D01*
G01Y-815613D02*
G03I-355J0D01*
G01Y-816303D02*
G03I-355J0D01*
G01Y-816993D02*
G03I-355J0D01*
G01Y-818383D02*
G03I-355J0D01*
G01Y-817693D02*
G03I-355J0D01*
G01Y-819083D02*
G03I-355J0D01*
G01Y-819773D02*
G03I-355J0D01*
G01X1123598Y706477D02*
Y746477D01*
G01Y706477D02*
Y696477D01*
G01X1193324Y-832353D02*
G03I-355J0D01*
G01D02*
G03I-355J0D01*
G01X1191113Y-833193D02*
G03I-355J0D01*
G01X1191024Y-832993D02*
G03I-355J0D01*
G01X1190893Y-832813D02*
G03I-355J0D01*
G01X1190734Y-832653D02*
G03I-355J0D01*
G01X1190554Y-832523D02*
G03I-355J0D01*
G01X1190354Y-832433D02*
G03I-355J0D01*
G01X1190134Y-832373D02*
G03I-355J0D01*
G01X1189913Y-832353D02*
G03I-355J0D01*
G01X1189173D02*
G03I-355J0D01*
G01X1188954Y-832373D02*
G03I-355J0D01*
G01X1188734Y-832433D02*
G03I-355J0D01*
G01X1188534Y-832523D02*
G03I-355J0D01*
G01X1187963Y-833203D02*
G03I-355J0D01*
G01X1185763Y-832353D02*
G03I-355J0D01*
G01X1184343D02*
G03I-355J0D01*
G01D02*
G03I-355J0D01*
G01X1182933D02*
G03I-355J0D01*
G01X1188343Y-832653D02*
G03I-355J0D01*
G01X1188183Y-832813D02*
G03I-355J0D01*
G01X1188054Y-832993D02*
G03I-355J0D01*
G01X1181043Y-832353D02*
G03I-355J0D01*
G01X1179243D02*
G03I-355J0D01*
G01X1178343Y-832873D02*
G03I-355J0D01*
G01X1178443Y-832723D02*
G03I-355J0D01*
G01X1178573Y-832593D02*
G03I-355J0D01*
G01X1178723Y-832493D02*
G03I-355J0D01*
G01X1178884Y-832413D02*
G03I-355J0D01*
G01X1179063Y-832373D02*
G03I-355J0D01*
G01X1178263Y-833033D02*
G03I-355J0D01*
G01X1178224Y-833213D02*
G03I-355J0D01*
G01X1176084Y-832353D02*
G03I-355J0D01*
G01X1173013D02*
G03I-355J0D01*
G01X1170004Y-832523D02*
G03I-355J0D01*
G01X1170184Y-832653D02*
G03I-355J0D01*
G01X1170343Y-832813D02*
G03I-355J0D01*
G01X1170473Y-832993D02*
G03I-355J0D01*
G01X1170563Y-833203D02*
G03I-355J0D01*
G01X1169354Y-832353D02*
G03I-355J0D01*
G01X1169573Y-832373D02*
G03I-355J0D01*
G01X1169793Y-832433D02*
G03I-355J0D01*
G01X1167573Y-832353D02*
G03I-355J0D01*
G01X1193324Y-834013D02*
G03I-355J0D01*
G01D02*
G03I-355J0D01*
G01Y-835663D02*
G03I-355J0D01*
G01X1191193Y-833633D02*
G03I-355J0D01*
G01X1191173Y-833413D02*
G03I-355J0D01*
G01X1191193Y-834363D02*
G03I-355J0D01*
G01X1191173Y-834593D02*
G03I-355J0D01*
G01X1191193Y-834363D02*
G03I-355J0D01*
G01X1191113Y-834803D02*
G03I-355J0D01*
G01X1190334Y-835583D02*
G03I-355J0D01*
G01X1190543Y-835493D02*
G03I-355J0D01*
G01X1190734Y-835363D02*
G03I-355J0D01*
G01X1190893Y-835203D02*
G03I-355J0D01*
G01X1191024Y-835013D02*
G03I-355J0D01*
G01X1189893Y-835663D02*
G03I-355J0D01*
G01X1190124Y-835643D02*
G03I-355J0D01*
G01X1188613Y-835523D02*
G03I-355J0D01*
G01X1188804Y-835603D02*
G03I-355J0D01*
G01X1189004Y-835643D02*
G03I-355J0D01*
G01X1189204Y-835663D02*
G03I-355J0D01*
G01X1187904Y-833423D02*
G03I-355J0D01*
G01X1187883Y-833643D02*
G03I-355J0D01*
G01X1187893D02*
G03I-355J0D01*
G01Y-834353D02*
G03I-355J0D01*
G01X1187913Y-834553D02*
G03I-355J0D01*
G01X1187954Y-834753D02*
G03I-355J0D01*
G01X1184343Y-835663D02*
G03I-355J0D01*
G01X1188033Y-834943D02*
G03I-355J0D01*
G01X1188143Y-835123D02*
G03I-355J0D01*
G01X1188273Y-835283D02*
G03I-355J0D01*
G01X1188434Y-835413D02*
G03I-355J0D01*
G01X1181043Y-835663D02*
G03I-355J0D01*
G01X1179273D02*
G03I-355J0D01*
G01X1179084Y-835643D02*
G03I-355J0D01*
G01X1178904Y-835603D02*
G03I-355J0D01*
G01X1178733Y-835523D02*
G03I-355J0D01*
G01X1178583Y-835413D02*
G03I-355J0D01*
G01X1178454Y-835283D02*
G03I-355J0D01*
G01X1178343Y-835123D02*
G03I-355J0D01*
G01X1178204Y-833393D02*
G03I-355J0D01*
G01Y-834593D02*
G03I-355J0D01*
G01X1178263Y-834963D02*
G03I-355J0D01*
G01X1178224Y-834783D02*
G03I-355J0D01*
G01X1176084Y-834353D02*
G03I-355J0D01*
G01X1176073D02*
G03I-355J0D01*
G01X1176054Y-834583D02*
G03I-355J0D01*
G01X1175993Y-834803D02*
G03I-355J0D01*
G01X1175893Y-835003D02*
G03I-355J0D01*
G01X1175763Y-835193D02*
G03I-355J0D01*
G01X1175604Y-835353D02*
G03I-355J0D01*
G01X1175423Y-835483D02*
G03I-355J0D01*
G01X1175213Y-835583D02*
G03I-355J0D01*
G01X1174993Y-835643D02*
G03I-355J0D01*
G01X1174763Y-835663D02*
G03I-355J0D01*
G01X1174243D02*
G03I-355J0D01*
G01X1174024Y-835643D02*
G03I-355J0D01*
G01X1173823Y-835593D02*
G03I-355J0D01*
G01X1173624Y-835493D02*
G03I-355J0D01*
G01X1173443Y-835373D02*
G03I-355J0D01*
G01X1173293Y-835223D02*
G03I-355J0D01*
G01X1173023Y-834643D02*
G03I-355J0D01*
G01X1173004Y-834423D02*
G03I-355J0D01*
G01X1173013D02*
G03I-355J0D01*
G01X1173173Y-835043D02*
G03I-355J0D01*
G01X1173073Y-834843D02*
G03I-355J0D01*
G01X1170643Y-833643D02*
G03I-355J0D01*
G01X1170624Y-833423D02*
G03I-355J0D01*
G01X1170643Y-833643D02*
G03I-355J0D01*
G01Y-834353D02*
G03I-355J0D01*
G01X1170624Y-834553D02*
G03I-355J0D01*
G01X1170583Y-834753D02*
G03I-355J0D01*
G01X1170504Y-834943D02*
G03I-355J0D01*
G01X1170393Y-835123D02*
G03I-355J0D01*
G01X1170263Y-835283D02*
G03I-355J0D01*
G01X1170104Y-835413D02*
G03I-355J0D01*
G01X1169924Y-835523D02*
G03I-355J0D01*
G01X1169734Y-835603D02*
G03I-355J0D01*
G01X1169534Y-835643D02*
G03I-355J0D01*
G01X1169334Y-835663D02*
G03I-355J0D01*
G01X1167573D02*
G03I-355J0D01*
G01X1165213Y-832353D02*
G03I-355J0D01*
G01X1162384D02*
G03I-355J0D01*
G01X1161904D02*
G03I-355J0D01*
G01X1159243Y-832813D02*
G03I-355J0D01*
G01X1159084Y-832653D02*
G03I-355J0D01*
G01X1158893Y-832523D02*
G03I-355J0D01*
G01X1159463Y-833213D02*
G03I-355J0D01*
G01X1159373Y-833003D02*
G03I-355J0D01*
G01X1158684Y-832433D02*
G03I-355J0D01*
G01X1158473Y-832373D02*
G03I-355J0D01*
G01X1158243Y-832353D02*
G03I-355J0D01*
G01X1157504D02*
G03I-355J0D01*
G01X1157284Y-832373D02*
G03I-355J0D01*
G01X1157073Y-832433D02*
G03I-355J0D01*
G01X1156873Y-832523D02*
G03I-355J0D01*
G01X1156684Y-832653D02*
G03I-355J0D01*
G01X1156534Y-832803D02*
G03I-355J0D01*
G01X1156404Y-832983D02*
G03I-355J0D01*
G01X1156313Y-833193D02*
G03I-355J0D01*
G01X1154113Y-832353D02*
G03I-355J0D01*
G01X1165213Y-835663D02*
G03I-355J0D01*
G01X1164663D02*
G03I-355J0D01*
G01X1161904D02*
G03I-355J0D01*
G01X1159543Y-833653D02*
G03I-355J0D01*
G01X1159523Y-833423D02*
G03I-355J0D01*
G01X1159543Y-834343D02*
G03I-355J0D01*
G01X1159484Y-834753D02*
G03I-355J0D01*
G01X1159523Y-834553D02*
G03I-355J0D01*
G01X1159543Y-834343D02*
G03I-355J0D01*
G01X1158823Y-835523D02*
G03I-355J0D01*
G01X1159004Y-835413D02*
G03I-355J0D01*
G01X1159154Y-835273D02*
G03I-355J0D01*
G01X1159293Y-835123D02*
G03I-355J0D01*
G01X1159404Y-834943D02*
G03I-355J0D01*
G01X1158224Y-835663D02*
G03I-355J0D01*
G01X1158434Y-835643D02*
G03I-355J0D01*
G01X1158634Y-835603D02*
G03I-355J0D01*
G01X1157084Y-835583D02*
G03I-355J0D01*
G01X1157304Y-835643D02*
G03I-355J0D01*
G01X1157524Y-835663D02*
G03I-355J0D01*
G01X1156254Y-833403D02*
G03I-355J0D01*
G01X1156234Y-833623D02*
G03I-355J0D01*
G01Y-834373D02*
G03I-355J0D01*
G01X1156254Y-834593D02*
G03I-355J0D01*
G01X1156313Y-834813D02*
G03I-355J0D01*
G01X1156404Y-835013D02*
G03I-355J0D01*
G01X1156534Y-835203D02*
G03I-355J0D01*
G01X1156693Y-835363D02*
G03I-355J0D01*
G01X1156873Y-835493D02*
G03I-355J0D01*
G01X1154113Y-835663D02*
G03I-355J0D01*
G01X1193324Y-820463D02*
G03I-355J0D01*
G01Y-821163D02*
G03I-355J0D01*
G01Y-821853D02*
G03I-355J0D01*
G01Y-822553D02*
G03I-355J0D01*
G01Y-823243D02*
G03I-355J0D01*
G01Y-823933D02*
G03I-355J0D01*
G01Y-824633D02*
G03I-355J0D01*
G01Y-825323D02*
G03I-355J0D01*
G01Y-826023D02*
G03I-355J0D01*
G01Y-826713D02*
G03I-355J0D01*
G01Y-827413D02*
G03I-355J0D01*
G01X1190254Y-820463D02*
G03I-355J0D01*
G01Y-821163D02*
G03I-355J0D01*
G01Y-821853D02*
G03I-355J0D01*
G01Y-822553D02*
G03I-355J0D01*
G01Y-823243D02*
G03I-355J0D01*
G01Y-823933D02*
G03I-355J0D01*
G01Y-824633D02*
G03I-355J0D01*
G01Y-825323D02*
G03I-355J0D01*
G01Y-826023D02*
G03I-355J0D01*
G01Y-826713D02*
G03I-355J0D01*
G01Y-827413D02*
G03I-355J0D01*
G01X1193324Y-827863D02*
G03I-355J0D01*
G01X1190254D02*
G03I-355J0D01*
G01X1186943Y-820463D02*
G03I-355J0D01*
G01Y-821163D02*
G03I-355J0D01*
G01Y-821853D02*
G03I-355J0D01*
G01Y-822553D02*
G03I-355J0D01*
G01Y-823243D02*
G03I-355J0D01*
G01Y-823933D02*
G03I-355J0D01*
G01Y-824633D02*
G03I-355J0D01*
G01Y-825323D02*
G03I-355J0D01*
G01Y-826023D02*
G03I-355J0D01*
G01Y-826713D02*
G03I-355J0D01*
G01Y-827413D02*
G03I-355J0D01*
G01X1183873Y-820463D02*
G03I-355J0D01*
G01Y-821163D02*
G03I-355J0D01*
G01Y-822553D02*
G03I-355J0D01*
G01Y-821853D02*
G03I-355J0D01*
G01Y-823243D02*
G03I-355J0D01*
G01Y-823933D02*
G03I-355J0D01*
G01Y-824633D02*
G03I-355J0D01*
G01Y-826023D02*
G03I-355J0D01*
G01Y-825323D02*
G03I-355J0D01*
G01Y-826713D02*
G03I-355J0D01*
G01Y-827413D02*
G03I-355J0D01*
G01X1186943Y-827863D02*
G03I-355J0D01*
G01X1183873D02*
G03I-355J0D01*
G01X1194143Y-815093D02*
G03I-355J0D01*
G01X1193363Y-814873D02*
G03I-355J0D01*
G01X1193504Y-814913D02*
G03I-355J0D01*
G01X1193034Y-816733D02*
G03I-355J0D01*
G01X1193193Y-816973D02*
G03I-355J0D01*
G01X1193293Y-817253D02*
G03I-355J0D01*
G01X1193324Y-817553D02*
G03I-355J0D01*
G01X1193204Y-816993D02*
G03I-355J0D01*
G01X1193324Y-817693D02*
G03I-355J0D01*
G01Y-818383D02*
G03I-355J0D01*
G01Y-819083D02*
G03I-355J0D01*
G01Y-819773D02*
G03I-355J0D01*
G01X1192204Y-814703D02*
G03I-355J0D01*
G01X1192334Y-816363D02*
G03I-355J0D01*
G01X1192813Y-816533D02*
G03I-355J0D01*
G01X1191824Y-816293D02*
G03I-355J0D01*
G01X1191904Y-816303D02*
G03I-355J0D01*
G01X1191043Y-814643D02*
G03I-355J0D01*
G01X1190363Y-816693D02*
G03I-355J0D01*
G01X1190493Y-816533D02*
G03I-355J0D01*
G01X1190663Y-816403D02*
G03I-355J0D01*
G01X1190854Y-816323D02*
G03I-355J0D01*
G01X1191063Y-816293D02*
G03I-355J0D01*
G01X1190984Y-816303D02*
G03I-355J0D01*
G01X1190284Y-816893D02*
G03I-355J0D01*
G01X1190263Y-816993D02*
G03I-355J0D01*
G01X1190254Y-817103D02*
G03I-355J0D01*
G01Y-817693D02*
G03I-355J0D01*
G01Y-818383D02*
G03I-355J0D01*
G01Y-819083D02*
G03I-355J0D01*
G01Y-819773D02*
G03I-355J0D01*
G01X1186924Y-816883D02*
G03I-355J0D01*
G01X1186943Y-817093D02*
G03I-355J0D01*
G01X1186934Y-816993D02*
G03I-355J0D01*
G01X1186943Y-817693D02*
G03I-355J0D01*
G01Y-818383D02*
G03I-355J0D01*
G01Y-819083D02*
G03I-355J0D01*
G01Y-819773D02*
G03I-355J0D01*
G01X1186713Y-814643D02*
G03I-355J0D01*
G01X1186143Y-816293D02*
G03I-355J0D01*
G01X1186354Y-816323D02*
G03I-355J0D01*
G01X1186543Y-816403D02*
G03I-355J0D01*
G01X1186713Y-816523D02*
G03I-355J0D01*
G01X1186834Y-816693D02*
G03I-355J0D01*
G01X1186223Y-816303D02*
G03I-355J0D01*
G01X1184484Y-816323D02*
G03I-355J0D01*
G01X1184704Y-816293D02*
G03I-355J0D01*
G01X1184623Y-816303D02*
G03I-355J0D01*
G01X1183743Y-814733D02*
G03I-355J0D01*
G01X1183984Y-816703D02*
G03I-355J0D01*
G01X1184113Y-816533D02*
G03I-355J0D01*
G01X1184293Y-816403D02*
G03I-355J0D01*
G01X1183873Y-817123D02*
G03I-355J0D01*
G01X1183904Y-816903D02*
G03I-355J0D01*
G01X1183893Y-816993D02*
G03I-355J0D01*
G01X1183873Y-818383D02*
G03I-355J0D01*
G01Y-817693D02*
G03I-355J0D01*
G01Y-819083D02*
G03I-355J0D01*
G01Y-819773D02*
G03I-355J0D01*
G01X1182354Y-814913D02*
G03I-355J0D01*
G01X1180804Y-820463D02*
G03I-355J0D01*
G01Y-821853D02*
G03I-355J0D01*
G01Y-821163D02*
G03I-355J0D01*
G01Y-822553D02*
G03I-355J0D01*
G01Y-823243D02*
G03I-355J0D01*
G01Y-823933D02*
G03I-355J0D01*
G01Y-825323D02*
G03I-355J0D01*
G01Y-824633D02*
G03I-355J0D01*
G01Y-826023D02*
G03I-355J0D01*
G01Y-826713D02*
G03I-355J0D01*
G01Y-827413D02*
G03I-355J0D01*
G01X1177263Y-820463D02*
G03I-355J0D01*
G01Y-821853D02*
G03I-355J0D01*
G01Y-821163D02*
G03I-355J0D01*
G01Y-822553D02*
G03I-355J0D01*
G01Y-823243D02*
G03I-355J0D01*
G01Y-823933D02*
G03I-355J0D01*
G01Y-824633D02*
G03I-355J0D01*
G01Y-826023D02*
G03I-355J0D01*
G01Y-825323D02*
G03I-355J0D01*
G01Y-826713D02*
G03I-355J0D01*
G01Y-827413D02*
G03I-355J0D01*
G01X1173723Y-820083D02*
G03I-355J0D01*
G01X1173563Y-820203D02*
G03I-355J0D01*
G01X1173373Y-820283D02*
G03I-355J0D01*
G01X1173333Y-821993D02*
G03I-355J0D01*
G01X1173543Y-822073D02*
G03I-355J0D01*
G01X1173713Y-822203D02*
G03I-355J0D01*
G01X1173843Y-822373D02*
G03I-355J0D01*
G01X1173924Y-822573D02*
G03I-355J0D01*
G01X1173954Y-822793D02*
G03I-355J0D01*
G01X1173913Y-822553D02*
G03I-355J0D01*
G01X1173954Y-823243D02*
G03I-355J0D01*
G01Y-823933D02*
G03I-355J0D01*
G01Y-825323D02*
G03I-355J0D01*
G01Y-824633D02*
G03I-355J0D01*
G01Y-826023D02*
G03I-355J0D01*
G01Y-826713D02*
G03I-355J0D01*
G01Y-827413D02*
G03I-355J0D01*
G01X1173173Y-820303D02*
G03I-355J0D01*
G01X1173124Y-821963D02*
G03I-355J0D01*
G01X1167673Y-820303D02*
G03I-355J0D01*
G01X1167463Y-820283D02*
G03I-355J0D01*
G01X1167273Y-820203D02*
G03I-355J0D01*
G01X1167254Y-822063D02*
G03I-355J0D01*
G01X1167443Y-821983D02*
G03I-355J0D01*
G01X1167643Y-821963D02*
G03I-355J0D01*
G01X1167104Y-820073D02*
G03I-355J0D01*
G01X1166973Y-822353D02*
G03I-355J0D01*
G01X1167093Y-822193D02*
G03I-355J0D01*
G01X1180804Y-827863D02*
G03I-355J0D01*
G01X1177263D02*
G03I-355J0D01*
G01X1173954D02*
G03I-355J0D01*
G01X1180804Y-815113D02*
G03I-355J0D01*
G01Y-815613D02*
G03I-355J0D01*
G01Y-816303D02*
G03I-355J0D01*
G01Y-817693D02*
G03I-355J0D01*
G01Y-816993D02*
G03I-355J0D01*
G01Y-818383D02*
G03I-355J0D01*
G01Y-819083D02*
G03I-355J0D01*
G01Y-819773D02*
G03I-355J0D01*
G01X1177263Y-815113D02*
G03I-355J0D01*
G01Y-815613D02*
G03I-355J0D01*
G01Y-816303D02*
G03I-355J0D01*
G01Y-816993D02*
G03I-355J0D01*
G01Y-818383D02*
G03I-355J0D01*
G01Y-817693D02*
G03I-355J0D01*
G01Y-819083D02*
G03I-355J0D01*
G01Y-819773D02*
G03I-355J0D01*
G01X1173954Y-815113D02*
G03I-355J0D01*
G01Y-815613D02*
G03I-355J0D01*
G01Y-816303D02*
G03I-355J0D01*
G01Y-816993D02*
G03I-355J0D01*
G01Y-818383D02*
G03I-355J0D01*
G01Y-817693D02*
G03I-355J0D01*
G01Y-819083D02*
G03I-355J0D01*
G01Y-819523D02*
G03I-355J0D01*
G01X1173924Y-819723D02*
G03I-355J0D01*
G01X1173843Y-819913D02*
G03I-355J0D01*
G01X1173904Y-819773D02*
G03I-355J0D01*
G01X1166973Y-819903D02*
G03I-355J0D01*
G01X1166924Y-819773D02*
G03I-355J0D01*
G01X1166893Y-822543D02*
G03I-355J0D01*
G01Y-822553D02*
G03I-355J0D01*
G01X1166863Y-822743D02*
G03I-355J0D01*
G01Y-823243D02*
G03I-355J0D01*
G01Y-823933D02*
G03I-355J0D01*
G01Y-824633D02*
G03I-355J0D01*
G01Y-825323D02*
G03I-355J0D01*
G01Y-826023D02*
G03I-355J0D01*
G01Y-826713D02*
G03I-355J0D01*
G01Y-827413D02*
G03I-355J0D01*
G01X1163563Y-820463D02*
G03I-355J0D01*
G01Y-821853D02*
G03I-355J0D01*
G01Y-821163D02*
G03I-355J0D01*
G01Y-822553D02*
G03I-355J0D01*
G01Y-823243D02*
G03I-355J0D01*
G01Y-823933D02*
G03I-355J0D01*
G01Y-824633D02*
G03I-355J0D01*
G01Y-825323D02*
G03I-355J0D01*
G01Y-826023D02*
G03I-355J0D01*
G01Y-826713D02*
G03I-355J0D01*
G01Y-827413D02*
G03I-355J0D01*
G01X1166863Y-827863D02*
G03I-355J0D01*
G01X1163563D02*
G03I-355J0D01*
G01X1160254Y-820463D02*
G03I-355J0D01*
G01Y-821853D02*
G03I-355J0D01*
G01Y-821163D02*
G03I-355J0D01*
G01Y-822553D02*
G03I-355J0D01*
G01Y-823243D02*
G03I-355J0D01*
G01Y-824443D02*
G03I-355J0D01*
G01Y-823933D02*
G03I-355J0D01*
G01X1160204Y-824993D02*
G03I-355J0D01*
G01X1160234Y-824633D02*
G03I-355J0D01*
G01X1159734Y-825983D02*
G03I-355J0D01*
G01X1160024Y-825513D02*
G03I-355J0D01*
G01X1159693Y-826023D02*
G03I-355J0D01*
G01X1160084Y-825323D02*
G03I-355J0D01*
G01X1158884Y-826813D02*
G03I-355J0D01*
G01X1159343Y-826373D02*
G03I-355J0D01*
G01X1158984Y-826713D02*
G03I-355J0D01*
G01X1158354Y-827163D02*
G03I-355J0D01*
G01X1157184Y-820463D02*
G03I-355J0D01*
G01Y-821163D02*
G03I-355J0D01*
G01Y-822553D02*
G03I-355J0D01*
G01Y-821853D02*
G03I-355J0D01*
G01Y-823243D02*
G03I-355J0D01*
G01Y-823973D02*
G03I-355J0D01*
G01Y-823933D02*
G03I-355J0D01*
G01X1157123Y-824553D02*
G03I-355J0D01*
G01X1157093Y-824633D02*
G03I-355J0D01*
G01X1157773Y-827433D02*
G03I-355J0D01*
G01X1157823Y-827413D02*
G03I-355J0D01*
G01X1156933Y-825113D02*
G03I-355J0D01*
G01X1156633Y-825623D02*
G03I-355J0D01*
G01X1156163Y-825993D02*
G03I-355J0D01*
G01X1156804Y-825323D02*
G03I-355J0D01*
G01X1156104Y-826023D02*
G03I-355J0D01*
G01X1156904Y-827693D02*
G03I-355J0D01*
G01X1166863Y-815613D02*
G03I-355J0D01*
G01Y-815113D02*
G03I-355J0D01*
G01D02*
G03I-355J0D01*
G01Y-816303D02*
G03I-355J0D01*
G01Y-816993D02*
G03I-355J0D01*
G01Y-817693D02*
G03I-355J0D01*
G01Y-818383D02*
G03I-355J0D01*
G01Y-819083D02*
G03I-355J0D01*
G01X1166893Y-819713D02*
G03I-355J0D01*
G01X1166863Y-819503D02*
G03I-355J0D01*
G01X1163563Y-815613D02*
G03I-355J0D01*
G01Y-815113D02*
G03I-355J0D01*
G01Y-816303D02*
G03I-355J0D01*
G01Y-816993D02*
G03I-355J0D01*
G01Y-817693D02*
G03I-355J0D01*
G01Y-818383D02*
G03I-355J0D01*
G01Y-819083D02*
G03I-355J0D01*
G01Y-819773D02*
G03I-355J0D01*
G01X1159763Y-816623D02*
G03I-355J0D01*
G01X1160043Y-817143D02*
G03I-355J0D01*
G01X1159963Y-816993D02*
G03I-355J0D01*
G01X1160254Y-818303D02*
G03I-355J0D01*
G01X1160204Y-817713D02*
G03I-355J0D01*
G01X1160254Y-818383D02*
G03I-355J0D01*
G01X1160204Y-817693D02*
G03I-355J0D01*
G01X1160254Y-819083D02*
G03I-355J0D01*
G01Y-819773D02*
G03I-355J0D01*
G01X1158863Y-815733D02*
G03I-355J0D01*
G01X1159383Y-816173D02*
G03I-355J0D01*
G01X1159493Y-816303D02*
G03I-355J0D01*
G01X1158284Y-815383D02*
G03I-355J0D01*
G01X1158654Y-815613D02*
G03I-355J0D01*
G01X1157084Y-814913D02*
G03I-355J0D01*
G01X1157654Y-815113D02*
G03I-355J0D01*
G01X1157004Y-817433D02*
G03I-355J0D01*
G01X1157143Y-817853D02*
G03I-355J0D01*
G01X1157184Y-818303D02*
G03I-355J0D01*
G01Y-818383D02*
G03I-355J0D01*
G01X1157093Y-817693D02*
G03I-355J0D01*
G01X1157184Y-819083D02*
G03I-355J0D01*
G01Y-819773D02*
G03I-355J0D01*
G01X1156843Y-814833D02*
G03I-355J0D01*
G01X1156434Y-816763D02*
G03I-355J0D01*
G01X1156763Y-817063D02*
G03I-355J0D01*
G01X1156684Y-816993D02*
G03I-355J0D01*
G01X1155634Y-826253D02*
G03I-355J0D01*
G01X1155063Y-826413D02*
G03I-355J0D01*
G01X1154463Y-826453D02*
G03I-355J0D01*
G01X1156004Y-827833D02*
G03I-355J0D01*
G01X1155093Y-827863D02*
G03I-355J0D01*
G01X1155993Y-814673D02*
G03I-355J0D01*
G01X1155523Y-816213D02*
G03I-355J0D01*
G01X1156004Y-816443D02*
G03I-355J0D01*
G01X1155713Y-816303D02*
G03I-355J0D01*
G01X1155134Y-814643D02*
G03I-355J0D01*
G01X1154463Y-816053D02*
G03I-355J0D01*
G01X1155004Y-816083D02*
G03I-355J0D01*
G01X1153013Y-816053D02*
G03I-355J0D01*
G01X1184598Y646477D02*
Y656477D01*
X1187098D01*
X1188098Y655977D01*
X1188848Y655310D01*
X1189474Y654311D01*
X1189973Y653144D01*
X1190098Y651477D01*
X1189973Y649810D01*
X1189474Y648644D01*
X1188848Y647644D01*
X1188098Y646977D01*
X1187098Y646477D01*
X1184598D01*
G01X1199848D02*
X1194848D01*
Y656477D01*
X1199848D01*
G01X1197848Y651644D02*
X1194848D01*
G01X1204723Y647810D02*
X1205723Y646977D01*
X1206848Y646477D01*
X1207848D01*
X1208848Y646977D01*
X1209598Y647810D01*
X1209973Y648977D01*
X1209724Y650144D01*
X1209098Y651144D01*
X1207973Y651810D01*
X1206474Y652144D01*
X1205598Y652810D01*
X1205223Y653977D01*
X1205474Y655144D01*
X1206098Y655977D01*
X1206973Y656477D01*
X1207848D01*
X1208723Y656144D01*
X1209474Y655310D01*
G01X1220098Y655644D02*
X1219348Y656144D01*
X1218474Y656477D01*
X1217474D01*
X1216348Y655977D01*
X1215474Y655144D01*
X1214848Y654144D01*
X1214348Y652477D01*
X1214223Y650977D01*
X1214473Y649477D01*
X1214848Y648477D01*
X1215598Y647477D01*
X1216474Y646810D01*
X1217348Y646477D01*
X1218223D01*
X1219098Y646810D01*
X1219848Y647310D01*
X1220474Y647977D01*
G01X1224848Y646477D02*
Y656477D01*
X1227973D01*
X1228973Y655977D01*
X1229599Y655310D01*
X1229848Y653977D01*
X1229599Y652644D01*
X1228848Y651810D01*
X1227973Y651310D01*
X1224848D01*
G01X1227973D02*
X1229848Y646477D01*
G01X1235848Y656477D02*
X1238848D01*
G01X1237348D02*
Y646477D01*
G01X1235848D02*
X1238848D01*
G01X1244848D02*
Y656477D01*
X1247848D01*
X1248848Y655977D01*
X1249598Y654810D01*
X1249848Y653477D01*
X1249598Y652144D01*
X1248973Y651144D01*
X1247848Y650644D01*
X1244848D01*
G01X1257348Y656477D02*
Y646477D01*
G01X1254473Y656477D02*
X1260223D01*
G01X1265848D02*
X1268848D01*
G01X1267348D02*
Y646477D01*
G01X1265848D02*
X1268848D01*
G01X1277348D02*
X1276348Y646644D01*
X1275474Y647310D01*
X1274723Y648310D01*
X1274223Y649477D01*
X1273973Y650810D01*
Y652144D01*
X1274223Y653477D01*
X1274723Y654644D01*
X1275474Y655644D01*
X1276348Y656310D01*
X1277348Y656477D01*
X1278348Y656310D01*
X1279223Y655644D01*
X1279973Y654644D01*
X1280474Y653477D01*
X1280724Y652144D01*
Y650810D01*
X1280474Y649477D01*
X1279973Y648310D01*
X1279223Y647310D01*
X1278348Y646644D01*
X1277348Y646477D01*
G01X1284473D02*
Y656477D01*
X1290223Y646477D01*
Y656477D01*
G01X1196263Y-832713D02*
G03I-355J0D01*
G01X1196334Y-832843D02*
G03I-355J0D01*
G01X1196373Y-832993D02*
G03I-355J0D01*
G01X1196393Y-833153D02*
G03I-355J0D01*
G01X1196373Y-833323D02*
G03I-355J0D01*
G01X1195593Y-832353D02*
G03I-355J0D01*
G01X1195754Y-832373D02*
G03I-355J0D01*
G01X1195904Y-832413D02*
G03I-355J0D01*
G01X1196033Y-832483D02*
G03I-355J0D01*
G01X1196163Y-832583D02*
G03I-355J0D01*
G01X1196323Y-833483D02*
G03I-355J0D01*
G01X1196254Y-833633D02*
G03I-355J0D01*
G01X1196143Y-833763D02*
G03I-355J0D01*
G01X1196013Y-833873D02*
G03I-355J0D01*
G01X1195863Y-833943D02*
G03I-355J0D01*
G01X1195704Y-833993D02*
G03I-355J0D01*
G01X1195534Y-834013D02*
G03I-355J0D01*
G01X1196154Y-835663D02*
G03I-355J0D01*
G01X1195254Y-834013D02*
G03I-355J0D01*
G01D02*
G03I-355J0D01*
G01X1196393Y-820463D02*
G03I-355J0D01*
G01Y-821163D02*
G03I-355J0D01*
G01Y-821853D02*
G03I-355J0D01*
G01Y-822553D02*
G03I-355J0D01*
G01Y-823243D02*
G03I-355J0D01*
G01Y-823933D02*
G03I-355J0D01*
G01Y-824633D02*
G03I-355J0D01*
G01Y-825323D02*
G03I-355J0D01*
G01Y-826023D02*
G03I-355J0D01*
G01Y-826713D02*
G03I-355J0D01*
G01Y-827413D02*
G03I-355J0D01*
G01Y-827863D02*
G03I-355J0D01*
G01X1196343Y-817353D02*
G03I-355J0D01*
G01X1196393Y-817903D02*
G03I-355J0D01*
G01X1196373Y-817693D02*
G03I-355J0D01*
G01X1196393Y-818383D02*
G03I-355J0D01*
G01Y-819083D02*
G03I-355J0D01*
G01Y-819773D02*
G03I-355J0D01*
G01X1196184Y-816823D02*
G03I-355J0D01*
G01X1195904Y-816343D02*
G03I-355J0D01*
G01X1195523Y-815933D02*
G03I-355J0D01*
G01X1195863Y-816303D02*
G03I-355J0D01*
G01X1196234Y-816993D02*
G03I-355J0D01*
G01X1195084Y-815613D02*
G03I-355J0D01*
G01X1194873Y-815453D02*
G03I-355J0D01*
G01D02*
G03I-355J0D01*
G01X1271185Y-845356D02*
X1271505Y-844856D01*
X1271878Y-844606D01*
X1272305Y-844523D01*
X1272838Y-844690D01*
X1273212Y-845106D01*
X1273318Y-845606D01*
X1273265Y-846106D01*
X1273052Y-846523D01*
X1271985Y-847356D01*
X1271505Y-847940D01*
X1271185Y-848773D01*
X1271078Y-849523D01*
X1273318D01*
G01X1276398Y-844523D02*
X1275972Y-844690D01*
X1275652Y-845106D01*
X1275438Y-845606D01*
X1275278Y-846273D01*
X1275225Y-847023D01*
X1275278Y-847773D01*
X1275438Y-848440D01*
X1275652Y-848940D01*
X1275972Y-849356D01*
X1276398Y-849523D01*
X1276825Y-849356D01*
X1277145Y-848940D01*
X1277358Y-848440D01*
X1277518Y-847773D01*
X1277572Y-847023D01*
X1277518Y-846273D01*
X1277358Y-845606D01*
X1277145Y-845106D01*
X1276825Y-844690D01*
X1276398Y-844523D01*
G01X1280598Y-849523D02*
Y-844523D01*
X1279958Y-845523D01*
G01Y-849523D02*
X1281238D01*
G01X1283785Y-847440D02*
X1284158Y-846856D01*
X1284478Y-846523D01*
X1284905Y-846356D01*
X1285278Y-846523D01*
X1285545Y-846856D01*
X1285758Y-847356D01*
X1285812Y-847940D01*
X1285758Y-848440D01*
X1285545Y-848940D01*
X1285225Y-849356D01*
X1284852Y-849523D01*
X1284425Y-849356D01*
X1284052Y-848856D01*
X1283838Y-848106D01*
X1283785Y-847273D01*
X1283892Y-846190D01*
X1284052Y-845606D01*
X1284318Y-845023D01*
X1284692Y-844606D01*
X1285065Y-844523D01*
X1285438Y-844690D01*
X1285705Y-845106D01*
G01X1288305Y-847856D02*
X1289692D01*
G01X1293198Y-844523D02*
X1292772Y-844690D01*
X1292452Y-845106D01*
X1292238Y-845606D01*
X1292078Y-846273D01*
X1292025Y-847023D01*
X1292078Y-847773D01*
X1292238Y-848440D01*
X1292452Y-848940D01*
X1292772Y-849356D01*
X1293198Y-849523D01*
X1293625Y-849356D01*
X1293945Y-848940D01*
X1294158Y-848440D01*
X1294318Y-847773D01*
X1294372Y-847023D01*
X1294318Y-846273D01*
X1294158Y-845606D01*
X1293945Y-845106D01*
X1293625Y-844690D01*
X1293198Y-844523D01*
G01X1296225Y-848523D02*
X1296545Y-849106D01*
X1296972Y-849440D01*
X1297452Y-849523D01*
X1297878Y-849440D01*
X1298305Y-849023D01*
X1298572Y-848523D01*
X1298625Y-848023D01*
X1298518Y-847440D01*
X1298145Y-847023D01*
X1297772Y-846856D01*
X1297292D01*
G01X1297772D02*
X1298092Y-846606D01*
X1298358Y-846190D01*
X1298465Y-845690D01*
X1298358Y-845190D01*
X1298092Y-844773D01*
X1297612Y-844523D01*
X1297132Y-844606D01*
X1296652Y-844940D01*
G01X1300905Y-847856D02*
X1302292D01*
G01X1304785Y-845356D02*
X1305105Y-844856D01*
X1305478Y-844606D01*
X1305905Y-844523D01*
X1306438Y-844690D01*
X1306812Y-845106D01*
X1306918Y-845606D01*
X1306865Y-846106D01*
X1306652Y-846523D01*
X1305585Y-847356D01*
X1305105Y-847940D01*
X1304785Y-848773D01*
X1304678Y-849523D01*
X1306918D01*
G01X1310638D02*
Y-844523D01*
X1308665Y-848106D01*
X1311332D01*
G01X1246372Y-833940D02*
X1246052Y-833690D01*
X1245678Y-833523D01*
X1245252D01*
X1244772Y-833773D01*
X1244398Y-834190D01*
X1244132Y-834690D01*
X1243918Y-835523D01*
X1243865Y-836273D01*
X1243972Y-837023D01*
X1244132Y-837523D01*
X1244452Y-838023D01*
X1244825Y-838356D01*
X1245198Y-838523D01*
X1245572D01*
X1245945Y-838356D01*
X1246265Y-838106D01*
X1246532Y-837773D01*
G01X1248278Y-838523D02*
Y-833523D01*
G01X1250518D02*
Y-838523D01*
G01Y-836023D02*
X1248278D01*
G01X1254665Y-838523D02*
X1252532D01*
Y-833523D01*
X1254665D01*
G01X1253812Y-835940D02*
X1252532D01*
G01X1258972Y-833940D02*
X1258652Y-833690D01*
X1258278Y-833523D01*
X1257852D01*
X1257372Y-833773D01*
X1256998Y-834190D01*
X1256732Y-834690D01*
X1256518Y-835523D01*
X1256465Y-836273D01*
X1256572Y-837023D01*
X1256732Y-837523D01*
X1257052Y-838023D01*
X1257425Y-838356D01*
X1257798Y-838523D01*
X1258172D01*
X1258545Y-838356D01*
X1258865Y-838106D01*
X1259132Y-837773D01*
G01X1260825Y-838523D02*
Y-833523D01*
G01X1262852D02*
X1260825Y-836606D01*
G01X1263172Y-838523D02*
X1261732Y-835190D01*
G01X1267265Y-838523D02*
X1265132D01*
Y-833523D01*
X1267265D01*
G01X1266412Y-835940D02*
X1265132D01*
G01X1269332Y-838523D02*
Y-833523D01*
X1270665D01*
X1271092Y-833773D01*
X1271358Y-834106D01*
X1271465Y-834773D01*
X1271358Y-835440D01*
X1271038Y-835856D01*
X1270665Y-836106D01*
X1269332D01*
G01X1270665D02*
X1271465Y-838523D01*
G01X1274598Y-838690D02*
X1274492Y-838606D01*
Y-838440D01*
X1274598Y-838356D01*
X1274705Y-838440D01*
Y-838606D01*
X1274598Y-838690D01*
G01Y-836440D02*
X1274492Y-836356D01*
Y-836190D01*
X1274598Y-836106D01*
X1274705Y-836190D01*
Y-836356D01*
X1274598Y-836440D01*
G01X1245025Y-849523D02*
Y-844523D01*
X1246092D01*
X1246518Y-844773D01*
X1246838Y-845106D01*
X1247105Y-845606D01*
X1247318Y-846190D01*
X1247372Y-847023D01*
X1247318Y-847856D01*
X1247105Y-848440D01*
X1246838Y-848940D01*
X1246518Y-849273D01*
X1246092Y-849523D01*
X1245025D01*
G01X1249065D02*
X1250398Y-844523D01*
X1251732Y-849523D01*
G01X1251252Y-847773D02*
X1249545D01*
G01X1254598Y-844523D02*
Y-849523D01*
G01X1253372Y-844523D02*
X1255825D01*
G01X1259865Y-849523D02*
X1257732D01*
Y-844523D01*
X1259865D01*
G01X1259012Y-846940D02*
X1257732D01*
G01X1262998Y-849690D02*
X1262892Y-849606D01*
Y-849440D01*
X1262998Y-849356D01*
X1263105Y-849440D01*
Y-849606D01*
X1262998Y-849690D01*
G01Y-847440D02*
X1262892Y-847356D01*
Y-847190D01*
X1262998Y-847106D01*
X1263105Y-847190D01*
Y-847356D01*
X1262998Y-847440D01*
G01X1244132Y-859523D02*
X1244398Y-860023D01*
X1244718Y-860356D01*
X1245092Y-860523D01*
X1245518Y-860356D01*
X1245838Y-860023D01*
X1246158Y-859523D01*
X1246265Y-858856D01*
Y-855523D01*
G01X1249398Y-860523D02*
X1248972Y-860440D01*
X1248598Y-860106D01*
X1248278Y-859606D01*
X1248065Y-859023D01*
X1247958Y-858356D01*
Y-857690D01*
X1248065Y-857023D01*
X1248278Y-856440D01*
X1248598Y-855940D01*
X1248972Y-855606D01*
X1249398Y-855523D01*
X1249825Y-855606D01*
X1250198Y-855940D01*
X1250518Y-856440D01*
X1250732Y-857023D01*
X1250838Y-857690D01*
Y-858356D01*
X1250732Y-859023D01*
X1250518Y-859606D01*
X1250198Y-860106D01*
X1249825Y-860440D01*
X1249398Y-860523D01*
G01X1254025Y-857856D02*
X1254238Y-857606D01*
X1254398Y-857190D01*
X1254505Y-856606D01*
X1254398Y-856106D01*
X1254185Y-855773D01*
X1253812Y-855523D01*
X1252372D01*
Y-860523D01*
X1254132D01*
X1254505Y-860190D01*
X1254718Y-859690D01*
X1254825Y-859106D01*
X1254718Y-858523D01*
X1254398Y-858023D01*
X1254025Y-857856D01*
X1252372D01*
G01X1256732Y-862190D02*
X1257798Y-855523D01*
G01X1258865D02*
X1257798Y-862190D01*
G01X1256198Y-859690D02*
X1259398D01*
G01Y-858023D02*
X1256198D01*
G01X1261998Y-860690D02*
X1261892Y-860606D01*
Y-860440D01*
X1261998Y-860356D01*
X1262105Y-860440D01*
Y-860606D01*
X1261998Y-860690D01*
G01Y-858440D02*
X1261892Y-858356D01*
Y-858190D01*
X1261998Y-858106D01*
X1262105Y-858190D01*
Y-858356D01*
X1261998Y-858440D01*
G01X1356098Y-841023D02*
X1238598D01*
G01X1346098Y-851523D02*
X1238598D01*
G01Y-788523D02*
Y-863523D01*
G01X1244025Y-827523D02*
Y-822523D01*
X1245092D01*
X1245518Y-822773D01*
X1245838Y-823106D01*
X1246105Y-823606D01*
X1246318Y-824190D01*
X1246372Y-825023D01*
X1246318Y-825856D01*
X1246105Y-826440D01*
X1245838Y-826940D01*
X1245518Y-827273D01*
X1245092Y-827523D01*
X1244025D01*
G01X1250465D02*
X1248332D01*
Y-822523D01*
X1250465D01*
G01X1249612Y-824940D02*
X1248332D01*
G01X1252478Y-826856D02*
X1252905Y-827273D01*
X1253385Y-827523D01*
X1253812D01*
X1254238Y-827273D01*
X1254558Y-826856D01*
X1254718Y-826273D01*
X1254612Y-825690D01*
X1254345Y-825190D01*
X1253865Y-824856D01*
X1253225Y-824690D01*
X1252852Y-824356D01*
X1252692Y-823773D01*
X1252798Y-823190D01*
X1253065Y-822773D01*
X1253438Y-822523D01*
X1253812D01*
X1254185Y-822690D01*
X1254505Y-823106D01*
G01X1257158Y-822523D02*
X1258438D01*
G01X1257798D02*
Y-827523D01*
G01X1257158D02*
X1258438D01*
G01X1262318Y-825023D02*
X1263385D01*
Y-826523D01*
X1263065Y-827023D01*
X1262692Y-827356D01*
X1262158Y-827523D01*
X1261625Y-827356D01*
X1261252Y-827023D01*
X1260932Y-826523D01*
X1260718Y-825940D01*
X1260612Y-825273D01*
Y-824690D01*
X1260718Y-824190D01*
X1260932Y-823606D01*
X1261252Y-823106D01*
X1261572Y-822773D01*
X1261998Y-822523D01*
X1262372D01*
X1262798Y-822690D01*
X1263118Y-823023D01*
G01X1264972Y-827523D02*
Y-822523D01*
X1267425Y-827523D01*
Y-822523D01*
G01X1271465Y-827523D02*
X1269332D01*
Y-822523D01*
X1271465D01*
G01X1270612Y-824940D02*
X1269332D01*
G01X1273532Y-827523D02*
Y-822523D01*
X1274865D01*
X1275292Y-822773D01*
X1275558Y-823106D01*
X1275665Y-823773D01*
X1275558Y-824440D01*
X1275238Y-824856D01*
X1274865Y-825106D01*
X1273532D01*
G01X1274865D02*
X1275665Y-827523D01*
G01X1278798Y-827690D02*
X1278692Y-827606D01*
Y-827440D01*
X1278798Y-827356D01*
X1278905Y-827440D01*
Y-827606D01*
X1278798Y-827690D01*
G01Y-825440D02*
X1278692Y-825356D01*
Y-825190D01*
X1278798Y-825106D01*
X1278905Y-825190D01*
Y-825356D01*
X1278798Y-825440D01*
G01X1356098Y-818523D02*
X1238598D01*
G01X1346098Y-829523D02*
X1238598D01*
G01X1274848Y676477D02*
Y686477D01*
X1277973D01*
X1278973Y685977D01*
X1279599Y685310D01*
X1279848Y683977D01*
X1279599Y682644D01*
X1278848Y681810D01*
X1277973Y681310D01*
X1274848D01*
G01X1277973D02*
X1279848Y676477D01*
G01X1289848D02*
X1284848D01*
Y686477D01*
X1289848D01*
G01X1287848Y681644D02*
X1284848D01*
G01X1294223Y686477D02*
X1297348Y676477D01*
X1300474Y686477D01*
G01X1305848D02*
X1308848D01*
G01X1307348D02*
Y676477D01*
G01X1305848D02*
X1308848D01*
G01X1314723Y677810D02*
X1315723Y676977D01*
X1316848Y676477D01*
X1317848D01*
X1318848Y676977D01*
X1319598Y677810D01*
X1319973Y678977D01*
X1319724Y680144D01*
X1319098Y681144D01*
X1317973Y681810D01*
X1316474Y682144D01*
X1315598Y682810D01*
X1315223Y683977D01*
X1315474Y685144D01*
X1316098Y685977D01*
X1316973Y686477D01*
X1317848D01*
X1318723Y686144D01*
X1319474Y685310D01*
G01X1325848Y686477D02*
X1328848D01*
G01X1327348D02*
Y676477D01*
G01X1325848D02*
X1328848D01*
G01X1337348D02*
X1336348Y676644D01*
X1335474Y677310D01*
X1334723Y678310D01*
X1334223Y679477D01*
X1333973Y680810D01*
Y682144D01*
X1334223Y683477D01*
X1334723Y684644D01*
X1335474Y685644D01*
X1336348Y686310D01*
X1337348Y686477D01*
X1338348Y686310D01*
X1339223Y685644D01*
X1339973Y684644D01*
X1340474Y683477D01*
X1340724Y682144D01*
Y680810D01*
X1340474Y679477D01*
X1339973Y678310D01*
X1339223Y677310D01*
X1338348Y676644D01*
X1337348Y676477D01*
G01X1344473D02*
Y686477D01*
X1350223Y676477D01*
Y686477D01*
G01X1354723Y677810D02*
X1355723Y676977D01*
X1356848Y676477D01*
X1357848D01*
X1358848Y676977D01*
X1359598Y677810D01*
X1359973Y678977D01*
X1359724Y680144D01*
X1359098Y681144D01*
X1357973Y681810D01*
X1356474Y682144D01*
X1355598Y682810D01*
X1355223Y683977D01*
X1355474Y685144D01*
X1356098Y685977D01*
X1356973Y686477D01*
X1357848D01*
X1358723Y686144D01*
X1359474Y685310D01*
G01X1284558Y-833523D02*
X1285838D01*
G01X1285198D02*
Y-838523D01*
G01X1284558D02*
X1285838D01*
G01X1288172D02*
Y-833523D01*
X1290625Y-838523D01*
Y-833523D01*
G01X1292958D02*
X1294238D01*
G01X1293598D02*
Y-838523D01*
G01X1292958D02*
X1294238D01*
G01X1297798Y-833523D02*
Y-838523D01*
G01X1296572Y-833523D02*
X1299025D01*
G01X1301358D02*
X1302638D01*
G01X1301998D02*
Y-838523D01*
G01X1301358D02*
X1302638D01*
G01X1304865D02*
X1306198Y-833523D01*
X1307532Y-838523D01*
G01X1307052Y-836773D02*
X1305345D01*
G01X1309332Y-833523D02*
Y-838523D01*
X1311465D01*
G01X1284132Y-827523D02*
Y-822523D01*
X1285412D01*
X1285838Y-822773D01*
X1286158Y-823356D01*
X1286265Y-824023D01*
X1286158Y-824690D01*
X1285892Y-825190D01*
X1285412Y-825440D01*
X1284132D01*
G01X1289398Y-822523D02*
Y-827523D01*
G01X1288172Y-822523D02*
X1290625D01*
G01X1294665Y-827523D02*
X1292532D01*
Y-822523D01*
X1294665D01*
G01X1293812Y-824940D02*
X1292532D01*
G01X1298972Y-822940D02*
X1298652Y-822690D01*
X1298278Y-822523D01*
X1297852D01*
X1297372Y-822773D01*
X1296998Y-823190D01*
X1296732Y-823690D01*
X1296518Y-824523D01*
X1296465Y-825273D01*
X1296572Y-826023D01*
X1296732Y-826523D01*
X1297052Y-827023D01*
X1297425Y-827356D01*
X1297798Y-827523D01*
X1298172D01*
X1298545Y-827356D01*
X1298865Y-827106D01*
X1299132Y-826773D01*
G01X1359632Y-848623D02*
Y-842623D01*
X1362165D01*
G01X1361232Y-845523D02*
X1359632D01*
G01X1364432Y-848623D02*
X1366098Y-842623D01*
X1367765Y-848623D01*
G01X1367165Y-846523D02*
X1365032D01*
G01X1371832Y-845423D02*
X1372098Y-845123D01*
X1372298Y-844623D01*
X1372432Y-843923D01*
X1372298Y-843323D01*
X1372032Y-842923D01*
X1371565Y-842623D01*
X1369765D01*
Y-848623D01*
X1371965D01*
X1372432Y-848223D01*
X1372698Y-847623D01*
X1372832Y-846923D01*
X1372698Y-846223D01*
X1372298Y-845623D01*
X1371832Y-845423D01*
X1369765D01*
G01X1380165Y-848623D02*
Y-842623D01*
X1383232Y-848623D01*
Y-842623D01*
G01X1385432D02*
Y-846923D01*
X1385698Y-847823D01*
X1386232Y-848423D01*
X1386898Y-848623D01*
X1387565Y-848423D01*
X1388098Y-847823D01*
X1388365Y-846923D01*
Y-842623D01*
G01X1390365Y-848623D02*
Y-842623D01*
X1392098Y-847623D01*
X1393832Y-842623D01*
Y-848623D01*
G01X1397832Y-845423D02*
X1398098Y-845123D01*
X1398298Y-844623D01*
X1398432Y-843923D01*
X1398298Y-843323D01*
X1398032Y-842923D01*
X1397565Y-842623D01*
X1395765D01*
Y-848623D01*
X1397965D01*
X1398432Y-848223D01*
X1398698Y-847623D01*
X1398832Y-846923D01*
X1398698Y-846223D01*
X1398298Y-845623D01*
X1397832Y-845423D01*
X1395765D01*
G01X1403832Y-848623D02*
X1401165D01*
Y-842623D01*
X1403832D01*
G01X1402765Y-845523D02*
X1401165D01*
G01X1406365Y-848623D02*
Y-842623D01*
X1408032D01*
X1408565Y-842923D01*
X1408898Y-843323D01*
X1409032Y-844123D01*
X1408898Y-844923D01*
X1408498Y-845423D01*
X1408032Y-845723D01*
X1406365D01*
G01X1408032D02*
X1409032Y-848623D01*
G01X1412898Y-848823D02*
X1412765Y-848723D01*
Y-848523D01*
X1412898Y-848423D01*
X1413032Y-848523D01*
Y-848723D01*
X1412898Y-848823D01*
G01Y-846123D02*
X1412765Y-846023D01*
Y-845823D01*
X1412898Y-845723D01*
X1413032Y-845823D01*
Y-846023D01*
X1412898Y-846123D01*
G01X1553598Y-841023D02*
X1356098D01*
G01X1346098Y-788523D02*
Y-863523D01*
G01X1357065Y-790523D02*
X1356665Y-790223D01*
X1356199Y-790023D01*
X1355665D01*
X1355065Y-790323D01*
X1354598Y-790823D01*
X1354265Y-791423D01*
X1353998Y-792423D01*
X1353932Y-793323D01*
X1354065Y-794223D01*
X1354265Y-794823D01*
X1354665Y-795423D01*
X1355132Y-795823D01*
X1355598Y-796023D01*
X1356065D01*
X1356532Y-795823D01*
X1356932Y-795523D01*
X1357265Y-795123D01*
G01X1360798Y-796023D02*
X1360265Y-795923D01*
X1359798Y-795523D01*
X1359398Y-794923D01*
X1359132Y-794223D01*
X1358998Y-793423D01*
Y-792623D01*
X1359132Y-791823D01*
X1359398Y-791123D01*
X1359798Y-790523D01*
X1360265Y-790123D01*
X1360798Y-790023D01*
X1361332Y-790123D01*
X1361798Y-790523D01*
X1362198Y-791123D01*
X1362465Y-791823D01*
X1362598Y-792623D01*
Y-793423D01*
X1362465Y-794223D01*
X1362198Y-794923D01*
X1361798Y-795523D01*
X1361332Y-795923D01*
X1360798Y-796023D01*
G01X1364265D02*
Y-790023D01*
X1365998Y-795023D01*
X1367732Y-790023D01*
Y-796023D01*
G01X1369865D02*
Y-790023D01*
X1371465D01*
X1371998Y-790323D01*
X1372398Y-791023D01*
X1372532Y-791823D01*
X1372398Y-792623D01*
X1372065Y-793223D01*
X1371465Y-793523D01*
X1369865D01*
G01X1374732Y-796023D02*
X1376398Y-790023D01*
X1378065Y-796023D01*
G01X1377465Y-793923D02*
X1375332D01*
G01X1380065Y-796023D02*
Y-790023D01*
X1383132Y-796023D01*
Y-790023D01*
G01X1386798Y-796023D02*
Y-793323D01*
X1385465Y-790023D01*
G01X1388132D02*
X1386798Y-793323D01*
G01X1395665Y-796023D02*
Y-790023D01*
X1398732Y-796023D01*
Y-790023D01*
G01X1400732Y-796023D02*
X1402398Y-790023D01*
X1404065Y-796023D01*
G01X1403465Y-793923D02*
X1401332D01*
G01X1405865Y-796023D02*
Y-790023D01*
X1407598Y-795023D01*
X1409332Y-790023D01*
Y-796023D01*
G01X1414132D02*
X1411465D01*
Y-790023D01*
X1414132D01*
G01X1413065Y-792923D02*
X1411465D01*
G01X1417998Y-796223D02*
X1417865Y-796123D01*
Y-795923D01*
X1417998Y-795823D01*
X1418132Y-795923D01*
Y-796123D01*
X1417998Y-796223D01*
G01Y-793523D02*
X1417865Y-793423D01*
Y-793223D01*
X1417998Y-793123D01*
X1418132Y-793223D01*
Y-793423D01*
X1417998Y-793523D01*
G01X1354265Y-826023D02*
Y-820023D01*
X1355865D01*
X1356398Y-820323D01*
X1356798Y-821023D01*
X1356932Y-821823D01*
X1356798Y-822623D01*
X1356465Y-823223D01*
X1355865Y-823523D01*
X1354265D01*
G01X1359465Y-826023D02*
Y-820023D01*
X1361132D01*
X1361665Y-820323D01*
X1361998Y-820723D01*
X1362132Y-821523D01*
X1361998Y-822323D01*
X1361598Y-822823D01*
X1361132Y-823123D01*
X1359465D01*
G01X1361132D02*
X1362132Y-826023D01*
G01X1365998D02*
X1365465Y-825923D01*
X1364998Y-825523D01*
X1364598Y-824923D01*
X1364332Y-824223D01*
X1364198Y-823423D01*
Y-822623D01*
X1364332Y-821823D01*
X1364598Y-821123D01*
X1364998Y-820523D01*
X1365465Y-820123D01*
X1365998Y-820023D01*
X1366532Y-820123D01*
X1366998Y-820523D01*
X1367398Y-821123D01*
X1367665Y-821823D01*
X1367798Y-822623D01*
Y-823423D01*
X1367665Y-824223D01*
X1367398Y-824923D01*
X1366998Y-825523D01*
X1366532Y-825923D01*
X1365998Y-826023D01*
G01X1369865Y-824823D02*
X1370198Y-825423D01*
X1370598Y-825823D01*
X1371065Y-826023D01*
X1371598Y-825823D01*
X1371998Y-825423D01*
X1372398Y-824823D01*
X1372532Y-824023D01*
Y-820023D01*
G01X1377732Y-826023D02*
X1375065D01*
Y-820023D01*
X1377732D01*
G01X1376665Y-822923D02*
X1375065D01*
G01X1383065Y-820523D02*
X1382665Y-820223D01*
X1382199Y-820023D01*
X1381665D01*
X1381065Y-820323D01*
X1380598Y-820823D01*
X1380265Y-821423D01*
X1379998Y-822423D01*
X1379932Y-823323D01*
X1380065Y-824223D01*
X1380265Y-824823D01*
X1380665Y-825423D01*
X1381132Y-825823D01*
X1381598Y-826023D01*
X1382065D01*
X1382532Y-825823D01*
X1382932Y-825523D01*
X1383265Y-825123D01*
G01X1386798Y-820023D02*
Y-826023D01*
G01X1385265Y-820023D02*
X1388332D01*
G01X1395665Y-826023D02*
Y-820023D01*
X1398732Y-826023D01*
Y-820023D01*
G01X1400732Y-826023D02*
X1402398Y-820023D01*
X1404065Y-826023D01*
G01X1403465Y-823923D02*
X1401332D01*
G01X1405865Y-826023D02*
Y-820023D01*
X1407598Y-825023D01*
X1409332Y-820023D01*
Y-826023D01*
G01X1414132D02*
X1411465D01*
Y-820023D01*
X1414132D01*
G01X1413065Y-822923D02*
X1411465D01*
G01X1417998Y-826223D02*
X1417865Y-826123D01*
Y-825923D01*
X1417998Y-825823D01*
X1418132Y-825923D01*
Y-826123D01*
X1417998Y-826223D01*
G01Y-823523D02*
X1417865Y-823423D01*
Y-823223D01*
X1417998Y-823123D01*
X1418132Y-823223D01*
Y-823423D01*
X1417998Y-823523D01*
G01X1553598Y-818523D02*
X1356098D01*
G01X1413598Y-913523D02*
Y-883523D01*
G01X1412178Y-836856D02*
X1412605Y-837273D01*
X1413085Y-837523D01*
X1413512D01*
X1413938Y-837273D01*
X1414258Y-836856D01*
X1414418Y-836273D01*
X1414312Y-835690D01*
X1414045Y-835190D01*
X1413565Y-834856D01*
X1412925Y-834690D01*
X1412552Y-834356D01*
X1412392Y-833773D01*
X1412498Y-833190D01*
X1412765Y-832773D01*
X1413138Y-832523D01*
X1413512D01*
X1413885Y-832690D01*
X1414205Y-833106D01*
G01X1418565Y-837523D02*
X1416432D01*
Y-832523D01*
X1418565D01*
G01X1417712Y-834940D02*
X1416432D01*
G01X1420472Y-837523D02*
Y-832523D01*
X1422925Y-837523D01*
Y-832523D01*
G01X1424778Y-836856D02*
X1425205Y-837273D01*
X1425685Y-837523D01*
X1426112D01*
X1426538Y-837273D01*
X1426858Y-836856D01*
X1427018Y-836273D01*
X1426912Y-835690D01*
X1426645Y-835190D01*
X1426165Y-834856D01*
X1425525Y-834690D01*
X1425152Y-834356D01*
X1424992Y-833773D01*
X1425098Y-833190D01*
X1425365Y-832773D01*
X1425738Y-832523D01*
X1426112D01*
X1426485Y-832690D01*
X1426805Y-833106D01*
G01X1430098Y-837523D02*
X1429672Y-837440D01*
X1429298Y-837106D01*
X1428978Y-836606D01*
X1428765Y-836023D01*
X1428658Y-835356D01*
Y-834690D01*
X1428765Y-834023D01*
X1428978Y-833440D01*
X1429298Y-832940D01*
X1429672Y-832606D01*
X1430098Y-832523D01*
X1430525Y-832606D01*
X1430898Y-832940D01*
X1431218Y-833440D01*
X1431432Y-834023D01*
X1431538Y-834690D01*
Y-835356D01*
X1431432Y-836023D01*
X1431218Y-836606D01*
X1430898Y-837106D01*
X1430525Y-837440D01*
X1430098Y-837523D01*
G01X1433232D02*
Y-832523D01*
X1434565D01*
X1434992Y-832773D01*
X1435258Y-833106D01*
X1435365Y-833773D01*
X1435258Y-834440D01*
X1434938Y-834856D01*
X1434565Y-835106D01*
X1433232D01*
G01X1434565D02*
X1435365Y-837523D01*
G01X1437378Y-836856D02*
X1437805Y-837273D01*
X1438285Y-837523D01*
X1438712D01*
X1439138Y-837273D01*
X1439458Y-836856D01*
X1439618Y-836273D01*
X1439512Y-835690D01*
X1439245Y-835190D01*
X1438765Y-834856D01*
X1438125Y-834690D01*
X1437752Y-834356D01*
X1437592Y-833773D01*
X1437698Y-833190D01*
X1437965Y-832773D01*
X1438338Y-832523D01*
X1438712D01*
X1439085Y-832690D01*
X1439405Y-833106D01*
G01X1441578Y-837523D02*
Y-832523D01*
G01X1443818D02*
Y-837523D01*
G01Y-835023D02*
X1441578D01*
G01X1445832Y-832523D02*
Y-837523D01*
X1447965D01*
G01X1449925D02*
Y-832523D01*
X1450992D01*
X1451418Y-832773D01*
X1451738Y-833106D01*
X1452005Y-833606D01*
X1452218Y-834190D01*
X1452272Y-835023D01*
X1452218Y-835856D01*
X1452005Y-836440D01*
X1451738Y-836940D01*
X1451418Y-837273D01*
X1450992Y-837523D01*
X1449925D01*
G01X1455298D02*
Y-832523D01*
X1454658Y-833523D01*
G01Y-837523D02*
X1455938D01*
G01X1458805Y-835856D02*
X1460192D01*
G01X1464765Y-837523D02*
X1462632D01*
Y-832523D01*
X1464765D01*
G01X1463912Y-834940D02*
X1462632D01*
G01X1466565Y-832523D02*
X1467898Y-837523D01*
X1469232Y-832523D01*
G01X1470925Y-837523D02*
Y-832523D01*
G01X1472952D02*
X1470925Y-835606D01*
G01X1473272Y-837523D02*
X1471832Y-834190D01*
G01X1475605Y-835856D02*
X1476992D01*
G01X1480498Y-837523D02*
Y-832523D01*
X1479858Y-833523D01*
G01Y-837523D02*
X1481138D01*
G01X1484698Y-832523D02*
X1484272Y-832690D01*
X1483952Y-833106D01*
X1483738Y-833606D01*
X1483578Y-834273D01*
X1483525Y-835023D01*
X1483578Y-835773D01*
X1483738Y-836440D01*
X1483952Y-836940D01*
X1484272Y-837356D01*
X1484698Y-837523D01*
X1485125Y-837356D01*
X1485445Y-836940D01*
X1485658Y-836440D01*
X1485818Y-835773D01*
X1485872Y-835023D01*
X1485818Y-834273D01*
X1485658Y-833606D01*
X1485445Y-833106D01*
X1485125Y-832690D01*
X1484698Y-832523D01*
G01X1488898Y-837523D02*
Y-832523D01*
X1488258Y-833523D01*
G01Y-837523D02*
X1489538D01*
G01X1423598Y716477D02*
Y746477D01*
G01X1480065Y-848523D02*
Y-842523D01*
X1481732D01*
X1482265Y-842823D01*
X1482598Y-843223D01*
X1482732Y-844023D01*
X1482598Y-844823D01*
X1482198Y-845323D01*
X1481732Y-845623D01*
X1480065D01*
G01X1481732D02*
X1482732Y-848523D01*
G01X1487932D02*
X1485265D01*
Y-842523D01*
X1487932D01*
G01X1486865Y-845423D02*
X1485265D01*
G01X1490132Y-842523D02*
X1491798Y-848523D01*
X1493465Y-842523D01*
G01X1496998Y-848723D02*
X1496865Y-848623D01*
Y-848423D01*
X1496998Y-848323D01*
X1497132Y-848423D01*
Y-848623D01*
X1496998Y-848723D01*
G01X1474198Y-841023D02*
Y-863523D01*
G01X1443598Y604546D02*
Y666477D01*
G01X1474598Y646477D02*
Y656477D01*
X1477098D01*
X1478098Y655977D01*
X1478848Y655310D01*
X1479474Y654311D01*
X1479973Y653144D01*
X1480098Y651477D01*
X1479973Y649810D01*
X1479474Y648644D01*
X1478848Y647644D01*
X1478098Y646977D01*
X1477098Y646477D01*
X1474598D01*
G01X1484223D02*
X1487348Y656477D01*
X1490474Y646477D01*
G01X1489348Y649977D02*
X1485348D01*
G01X1497348Y656477D02*
Y646477D01*
G01X1494473Y656477D02*
X1500223D01*
G01X1509848Y646477D02*
X1504848D01*
Y656477D01*
X1509848D01*
G01X1507848Y651644D02*
X1504848D01*
G01X1509798Y-847723D02*
X1510332Y-848223D01*
X1510932Y-848523D01*
X1511465D01*
X1511998Y-848223D01*
X1512398Y-847723D01*
X1512598Y-847023D01*
X1512465Y-846323D01*
X1512132Y-845723D01*
X1511532Y-845323D01*
X1510732Y-845123D01*
X1510265Y-844723D01*
X1510065Y-844023D01*
X1510198Y-843323D01*
X1510532Y-842823D01*
X1510998Y-842523D01*
X1511465D01*
X1511932Y-842723D01*
X1512332Y-843223D01*
G01X1514998Y-848523D02*
Y-842523D01*
G01X1517798D02*
Y-848523D01*
G01Y-845523D02*
X1514998D01*
G01X1522932Y-848523D02*
X1520265D01*
Y-842523D01*
X1522932D01*
G01X1521865Y-845423D02*
X1520265D01*
G01X1528132Y-848523D02*
X1525465D01*
Y-842523D01*
X1528132D01*
G01X1527065Y-845423D02*
X1525465D01*
G01X1531998Y-842523D02*
Y-848523D01*
G01X1530465Y-842523D02*
X1533532D01*
G01X1537198Y-848723D02*
X1537065Y-848623D01*
Y-848423D01*
X1537198Y-848323D01*
X1537332Y-848423D01*
Y-848623D01*
X1537198Y-848723D01*
G01Y-846023D02*
X1537065Y-845923D01*
Y-845723D01*
X1537198Y-845623D01*
X1537332Y-845723D01*
Y-845923D01*
X1537198Y-846023D01*
G01X1504198Y-841023D02*
Y-863523D01*
G01X1566388Y-845023D02*
X1568208Y-841023D01*
G01X1566388D02*
X1568208Y-845023D01*
G01X1560945Y-839523D02*
Y-835523D01*
X1561812D01*
X1562158Y-835723D01*
X1562418Y-835990D01*
X1562635Y-836390D01*
X1562808Y-836856D01*
X1562852Y-837523D01*
X1562808Y-838190D01*
X1562635Y-838656D01*
X1562418Y-839056D01*
X1562158Y-839323D01*
X1561812Y-839523D01*
X1560945D01*
G01X1566165D02*
X1564432D01*
Y-835523D01*
X1566165D01*
G01X1565472Y-837456D02*
X1564432D01*
G01X1569652Y-835856D02*
X1569392Y-835656D01*
X1569088Y-835523D01*
X1568742D01*
X1568352Y-835723D01*
X1568048Y-836056D01*
X1567832Y-836456D01*
X1567658Y-837123D01*
X1567615Y-837723D01*
X1567702Y-838323D01*
X1567832Y-838723D01*
X1568092Y-839123D01*
X1568395Y-839390D01*
X1568698Y-839523D01*
X1569002D01*
X1569305Y-839390D01*
X1569565Y-839190D01*
X1569782Y-838923D01*
G01X1571578Y-835523D02*
X1572618D01*
G01X1572098D02*
Y-839523D01*
G01X1571578D02*
X1572618D01*
G01X1574372D02*
Y-835523D01*
X1575498Y-838856D01*
X1576625Y-835523D01*
Y-839523D01*
G01X1577815D02*
X1578898Y-835523D01*
X1579982Y-839523D01*
G01X1579592Y-838123D02*
X1578205D01*
G01X1581432Y-835523D02*
Y-839523D01*
X1583165D01*
G01X1562988Y-851023D02*
X1564808Y-847023D01*
G01X1562988D02*
X1564808Y-851023D01*
G01X1566388D02*
X1568208Y-847023D01*
G01X1566388D02*
X1568208Y-851023D01*
G01X1559588Y-857023D02*
X1561408Y-853023D01*
G01X1559588D02*
X1561408Y-857023D01*
G01X1562988D02*
X1564808Y-853023D01*
G01X1562988D02*
X1564808Y-857023D01*
G01X1566388D02*
X1568208Y-853023D01*
G01X1566388D02*
X1568208Y-857023D01*
G01X1553598Y-788523D02*
Y-863523D01*
G01X1564645Y-797023D02*
Y-799890D01*
X1564818Y-800490D01*
X1565165Y-800890D01*
X1565598Y-801023D01*
X1566032Y-800890D01*
X1566378Y-800490D01*
X1566552Y-799890D01*
Y-797023D01*
G01X1568002Y-801023D02*
Y-797023D01*
X1569995Y-801023D01*
Y-797023D01*
G01X1571532D02*
Y-801023D01*
X1573265D01*
G01X1576665D02*
X1574932D01*
Y-797023D01*
X1576665D01*
G01X1575972Y-798956D02*
X1574932D01*
G01X1578288Y-800490D02*
X1578635Y-800823D01*
X1579025Y-801023D01*
X1579372D01*
X1579718Y-800823D01*
X1579978Y-800490D01*
X1580108Y-800023D01*
X1580022Y-799556D01*
X1579805Y-799156D01*
X1579415Y-798890D01*
X1578895Y-798756D01*
X1578592Y-798490D01*
X1578462Y-798023D01*
X1578548Y-797556D01*
X1578765Y-797223D01*
X1579068Y-797023D01*
X1579372D01*
X1579675Y-797156D01*
X1579935Y-797490D01*
G01X1581688Y-800490D02*
X1582035Y-800823D01*
X1582425Y-801023D01*
X1582772D01*
X1583118Y-800823D01*
X1583378Y-800490D01*
X1583508Y-800023D01*
X1583422Y-799556D01*
X1583205Y-799156D01*
X1582815Y-798890D01*
X1582295Y-798756D01*
X1581992Y-798490D01*
X1581862Y-798023D01*
X1581948Y-797556D01*
X1582165Y-797223D01*
X1582468Y-797023D01*
X1582772D01*
X1583075Y-797156D01*
X1583335Y-797490D01*
G01X1589398Y-801023D02*
X1589052Y-800956D01*
X1588748Y-800690D01*
X1588488Y-800290D01*
X1588315Y-799823D01*
X1588228Y-799290D01*
Y-798756D01*
X1588315Y-798223D01*
X1588488Y-797756D01*
X1588748Y-797356D01*
X1589052Y-797090D01*
X1589398Y-797023D01*
X1589745Y-797090D01*
X1590048Y-797356D01*
X1590308Y-797756D01*
X1590482Y-798223D01*
X1590568Y-798756D01*
Y-799290D01*
X1590482Y-799823D01*
X1590308Y-800290D01*
X1590048Y-800690D01*
X1589745Y-800956D01*
X1589398Y-801023D01*
G01X1592798Y-797023D02*
Y-801023D01*
G01X1591802Y-797023D02*
X1593795D01*
G01X1595288Y-801023D02*
Y-797023D01*
G01X1597108D02*
Y-801023D01*
G01Y-799023D02*
X1595288D01*
G01X1600465Y-801023D02*
X1598732D01*
Y-797023D01*
X1600465D01*
G01X1599772Y-798956D02*
X1598732D01*
G01X1602132Y-801023D02*
Y-797023D01*
X1603215D01*
X1603562Y-797223D01*
X1603778Y-797490D01*
X1603865Y-798023D01*
X1603778Y-798556D01*
X1603518Y-798890D01*
X1603215Y-799090D01*
X1602132D01*
G01X1603215D02*
X1603865Y-801023D01*
G01X1605098Y-797023D02*
X1605705Y-801023D01*
X1606398Y-797023D01*
X1607092Y-801023D01*
X1607698Y-797023D01*
G01X1609278D02*
X1610318D01*
G01X1609798D02*
Y-801023D01*
G01X1609278D02*
X1610318D01*
G01X1612288Y-800490D02*
X1612635Y-800823D01*
X1613025Y-801023D01*
X1613372D01*
X1613718Y-800823D01*
X1613978Y-800490D01*
X1614108Y-800023D01*
X1614022Y-799556D01*
X1613805Y-799156D01*
X1613415Y-798890D01*
X1612895Y-798756D01*
X1612592Y-798490D01*
X1612462Y-798023D01*
X1612548Y-797556D01*
X1612765Y-797223D01*
X1613068Y-797023D01*
X1613372D01*
X1613675Y-797156D01*
X1613935Y-797490D01*
G01X1617465Y-801023D02*
X1615732D01*
Y-797023D01*
X1617465D01*
G01X1616772Y-798956D02*
X1615732D01*
G01X1557888Y-807990D02*
X1558235Y-808323D01*
X1558625Y-808523D01*
X1558972D01*
X1559318Y-808323D01*
X1559578Y-807990D01*
X1559708Y-807523D01*
X1559622Y-807056D01*
X1559405Y-806656D01*
X1559015Y-806390D01*
X1558495Y-806256D01*
X1558192Y-805990D01*
X1558062Y-805523D01*
X1558148Y-805056D01*
X1558365Y-804723D01*
X1558668Y-804523D01*
X1558972D01*
X1559275Y-804656D01*
X1559535Y-804990D01*
G01X1561332Y-808523D02*
Y-804523D01*
X1562372D01*
X1562718Y-804723D01*
X1562978Y-805190D01*
X1563065Y-805723D01*
X1562978Y-806256D01*
X1562762Y-806656D01*
X1562372Y-806856D01*
X1561332D01*
G01X1566465Y-808523D02*
X1564732D01*
Y-804523D01*
X1566465D01*
G01X1565772Y-806456D02*
X1564732D01*
G01X1569952Y-804856D02*
X1569692Y-804656D01*
X1569388Y-804523D01*
X1569042D01*
X1568652Y-804723D01*
X1568348Y-805056D01*
X1568132Y-805456D01*
X1567958Y-806123D01*
X1567915Y-806723D01*
X1568002Y-807323D01*
X1568132Y-807723D01*
X1568392Y-808123D01*
X1568695Y-808390D01*
X1568998Y-808523D01*
X1569302D01*
X1569605Y-808390D01*
X1569865Y-808190D01*
X1570082Y-807923D01*
G01X1571878Y-804523D02*
X1572918D01*
G01X1572398D02*
Y-808523D01*
G01X1571878D02*
X1572918D01*
G01X1574975D02*
Y-804523D01*
X1576622D01*
G01X1576015Y-806456D02*
X1574975D01*
G01X1578678Y-804523D02*
X1579718D01*
G01X1579198D02*
Y-808523D01*
G01X1578678D02*
X1579718D01*
G01X1583465D02*
X1581732D01*
Y-804523D01*
X1583465D01*
G01X1582772Y-806456D02*
X1581732D01*
G01X1585045Y-808523D02*
Y-804523D01*
X1585912D01*
X1586258Y-804723D01*
X1586518Y-804990D01*
X1586735Y-805390D01*
X1586908Y-805856D01*
X1586952Y-806523D01*
X1586908Y-807190D01*
X1586735Y-807656D01*
X1586518Y-808056D01*
X1586258Y-808323D01*
X1585912Y-808523D01*
X1585045D01*
G01X1591845D02*
Y-804523D01*
X1592712D01*
X1593058Y-804723D01*
X1593318Y-804990D01*
X1593535Y-805390D01*
X1593708Y-805856D01*
X1593752Y-806523D01*
X1593708Y-807190D01*
X1593535Y-807656D01*
X1593318Y-808056D01*
X1593058Y-808323D01*
X1592712Y-808523D01*
X1591845D01*
G01X1595678Y-804523D02*
X1596718D01*
G01X1596198D02*
Y-808523D01*
G01X1595678D02*
X1596718D01*
G01X1598472D02*
Y-804523D01*
X1599598Y-807856D01*
X1600725Y-804523D01*
Y-808523D01*
G01X1603865D02*
X1602132D01*
Y-804523D01*
X1603865D01*
G01X1603172Y-806456D02*
X1602132D01*
G01X1605402Y-808523D02*
Y-804523D01*
X1607395Y-808523D01*
Y-804523D01*
G01X1608888Y-807990D02*
X1609235Y-808323D01*
X1609625Y-808523D01*
X1609972D01*
X1610318Y-808323D01*
X1610578Y-807990D01*
X1610708Y-807523D01*
X1610622Y-807056D01*
X1610405Y-806656D01*
X1610015Y-806390D01*
X1609495Y-806256D01*
X1609192Y-805990D01*
X1609062Y-805523D01*
X1609148Y-805056D01*
X1609365Y-804723D01*
X1609668Y-804523D01*
X1609972D01*
X1610275Y-804656D01*
X1610535Y-804990D01*
G01X1612678Y-804523D02*
X1613718D01*
G01X1613198D02*
Y-808523D01*
G01X1612678D02*
X1613718D01*
G01X1616598D02*
X1616252Y-808456D01*
X1615948Y-808190D01*
X1615688Y-807790D01*
X1615515Y-807323D01*
X1615428Y-806790D01*
Y-806256D01*
X1615515Y-805723D01*
X1615688Y-805256D01*
X1615948Y-804856D01*
X1616252Y-804590D01*
X1616598Y-804523D01*
X1616945Y-804590D01*
X1617248Y-804856D01*
X1617508Y-805256D01*
X1617682Y-805723D01*
X1617768Y-806256D01*
Y-806790D01*
X1617682Y-807323D01*
X1617508Y-807790D01*
X1617248Y-808190D01*
X1616945Y-808456D01*
X1616598Y-808523D01*
G01X1619002D02*
Y-804523D01*
X1620995Y-808523D01*
Y-804523D01*
G01X1622488Y-807990D02*
X1622835Y-808323D01*
X1623225Y-808523D01*
X1623572D01*
X1623918Y-808323D01*
X1624178Y-807990D01*
X1624308Y-807523D01*
X1624222Y-807056D01*
X1624005Y-806656D01*
X1623615Y-806390D01*
X1623095Y-806256D01*
X1622792Y-805990D01*
X1622662Y-805523D01*
X1622748Y-805056D01*
X1622965Y-804723D01*
X1623268Y-804523D01*
X1623572D01*
X1623875Y-804656D01*
X1624135Y-804990D01*
G01X1533598Y604546D02*
Y666477D01*
G01X1544223Y646477D02*
X1547348Y656477D01*
X1550474Y646477D01*
G01X1549348Y649977D02*
X1545348D01*
G01X1554848Y646477D02*
Y656477D01*
X1557848D01*
X1558848Y655977D01*
X1559598Y654810D01*
X1559848Y653477D01*
X1559598Y652144D01*
X1558973Y651144D01*
X1557848Y650644D01*
X1554848D01*
G01X1564848Y646477D02*
Y656477D01*
X1567848D01*
X1568848Y655977D01*
X1569598Y654810D01*
X1569848Y653477D01*
X1569598Y652144D01*
X1568973Y651144D01*
X1567848Y650644D01*
X1564848D01*
G01X1574848Y646477D02*
Y656477D01*
X1577973D01*
X1578973Y655977D01*
X1579599Y655310D01*
X1579848Y653977D01*
X1579599Y652644D01*
X1578848Y651810D01*
X1577973Y651310D01*
X1574848D01*
G01X1577973D02*
X1579848Y646477D01*
G01X1587348D02*
X1586348Y646644D01*
X1585474Y647310D01*
X1584723Y648310D01*
X1584223Y649477D01*
X1583973Y650810D01*
Y652144D01*
X1584223Y653477D01*
X1584723Y654644D01*
X1585474Y655644D01*
X1586348Y656310D01*
X1587348Y656477D01*
X1588348Y656310D01*
X1589223Y655644D01*
X1589973Y654644D01*
X1590474Y653477D01*
X1590724Y652144D01*
Y650810D01*
X1590474Y649477D01*
X1589973Y648310D01*
X1589223Y647310D01*
X1588348Y646644D01*
X1587348Y646477D01*
G01X1594223Y656477D02*
X1597348Y646477D01*
X1600474Y656477D01*
G01X1609848Y646477D02*
X1604848D01*
Y656477D01*
X1609848D01*
G01X1607848Y651644D02*
X1604848D01*
G01X1614598Y646477D02*
Y656477D01*
X1617098D01*
X1618098Y655977D01*
X1618848Y655310D01*
X1619474Y654311D01*
X1619973Y653144D01*
X1620098Y651477D01*
X1619973Y649810D01*
X1619474Y648644D01*
X1618848Y647644D01*
X1618098Y646977D01*
X1617098Y646477D01*
X1614598D01*
G01X1600715Y-839523D02*
X1601798Y-835523D01*
X1602882Y-839523D01*
G01X1602492Y-838123D02*
X1601105D01*
G01X1604202Y-839523D02*
Y-835523D01*
X1606195Y-839523D01*
Y-835523D01*
G01X1608858Y-837523D02*
X1609725D01*
Y-838723D01*
X1609465Y-839123D01*
X1609162Y-839390D01*
X1608728Y-839523D01*
X1608295Y-839390D01*
X1607992Y-839123D01*
X1607732Y-838723D01*
X1607558Y-838256D01*
X1607472Y-837723D01*
Y-837256D01*
X1607558Y-836856D01*
X1607732Y-836390D01*
X1607992Y-835990D01*
X1608252Y-835723D01*
X1608598Y-835523D01*
X1608902D01*
X1609248Y-835656D01*
X1609508Y-835923D01*
G01X1611132Y-835523D02*
Y-839523D01*
X1612865D01*
G01X1616265D02*
X1614532D01*
Y-835523D01*
X1616265D01*
G01X1615572Y-837456D02*
X1614532D01*
G01X1593472Y-851523D02*
Y-847523D01*
X1594598Y-850856D01*
X1595725Y-847523D01*
Y-851523D01*
G01X1596915D02*
X1597998Y-847523D01*
X1599082Y-851523D01*
G01X1598692Y-850123D02*
X1597305D01*
G01X1602352Y-847856D02*
X1602092Y-847656D01*
X1601788Y-847523D01*
X1601442D01*
X1601052Y-847723D01*
X1600748Y-848056D01*
X1600532Y-848456D01*
X1600358Y-849123D01*
X1600315Y-849723D01*
X1600402Y-850323D01*
X1600532Y-850723D01*
X1600792Y-851123D01*
X1601095Y-851390D01*
X1601398Y-851523D01*
X1601702D01*
X1602005Y-851390D01*
X1602265Y-851190D01*
X1602482Y-850923D01*
G01X1603888Y-851523D02*
Y-847523D01*
G01X1605708D02*
Y-851523D01*
G01Y-849523D02*
X1603888D01*
G01X1610775Y-851523D02*
Y-847523D01*
X1612422D01*
G01X1611815Y-849456D02*
X1610775D01*
G01X1614478Y-847523D02*
X1615518D01*
G01X1614998D02*
Y-851523D01*
G01X1614478D02*
X1615518D01*
G01X1617402D02*
Y-847523D01*
X1619395Y-851523D01*
Y-847523D01*
G01X1621278D02*
X1622318D01*
G01X1621798D02*
Y-851523D01*
G01X1621278D02*
X1622318D01*
G01X1624288Y-850990D02*
X1624635Y-851323D01*
X1625025Y-851523D01*
X1625372D01*
X1625718Y-851323D01*
X1625978Y-850990D01*
X1626108Y-850523D01*
X1626022Y-850056D01*
X1625805Y-849656D01*
X1625415Y-849390D01*
X1624895Y-849256D01*
X1624592Y-848990D01*
X1624462Y-848523D01*
X1624548Y-848056D01*
X1624765Y-847723D01*
X1625068Y-847523D01*
X1625372D01*
X1625675Y-847656D01*
X1625935Y-847990D01*
G01X1627688Y-851523D02*
Y-847523D01*
G01X1629508D02*
Y-851523D01*
G01Y-849523D02*
X1627688D01*
G01X1575798Y-827023D02*
Y-831023D01*
G01X1574802Y-827023D02*
X1576795D01*
G01X1579198Y-831023D02*
X1578852Y-830956D01*
X1578548Y-830690D01*
X1578288Y-830290D01*
X1578115Y-829823D01*
X1578028Y-829290D01*
Y-828756D01*
X1578115Y-828223D01*
X1578288Y-827756D01*
X1578548Y-827356D01*
X1578852Y-827090D01*
X1579198Y-827023D01*
X1579545Y-827090D01*
X1579848Y-827356D01*
X1580108Y-827756D01*
X1580282Y-828223D01*
X1580368Y-828756D01*
Y-829290D01*
X1580282Y-829823D01*
X1580108Y-830290D01*
X1579848Y-830690D01*
X1579545Y-830956D01*
X1579198Y-831023D01*
G01X1581732Y-827023D02*
Y-831023D01*
X1583465D01*
G01X1586865D02*
X1585132D01*
Y-827023D01*
X1586865D01*
G01X1586172Y-828956D02*
X1585132D01*
G01X1588532Y-831023D02*
Y-827023D01*
X1589615D01*
X1589962Y-827223D01*
X1590178Y-827490D01*
X1590265Y-828023D01*
X1590178Y-828556D01*
X1589918Y-828890D01*
X1589615Y-829090D01*
X1588532D01*
G01X1589615D02*
X1590265Y-831023D01*
G01X1591715D02*
X1592798Y-827023D01*
X1593882Y-831023D01*
G01X1593492Y-829623D02*
X1592105D01*
G01X1595202Y-831023D02*
Y-827023D01*
X1597195Y-831023D01*
Y-827023D01*
G01X1600552Y-827356D02*
X1600292Y-827156D01*
X1599988Y-827023D01*
X1599642D01*
X1599252Y-827223D01*
X1598948Y-827556D01*
X1598732Y-827956D01*
X1598558Y-828623D01*
X1598515Y-829223D01*
X1598602Y-829823D01*
X1598732Y-830223D01*
X1598992Y-830623D01*
X1599295Y-830890D01*
X1599598Y-831023D01*
X1599902D01*
X1600205Y-830890D01*
X1600465Y-830690D01*
X1600682Y-830423D01*
G01X1603865Y-831023D02*
X1602132D01*
Y-827023D01*
X1603865D01*
G01X1603172Y-828956D02*
X1602132D01*
G01X1605488Y-830490D02*
X1605835Y-830823D01*
X1606225Y-831023D01*
X1606572D01*
X1606918Y-830823D01*
X1607178Y-830490D01*
X1607308Y-830023D01*
X1607222Y-829556D01*
X1607005Y-829156D01*
X1606615Y-828890D01*
X1606095Y-828756D01*
X1605792Y-828490D01*
X1605662Y-828023D01*
X1605748Y-827556D01*
X1605965Y-827223D01*
X1606268Y-827023D01*
X1606572D01*
X1606875Y-827156D01*
X1607135Y-827490D01*
G01X1575898Y-851156D02*
X1575812Y-851090D01*
Y-850956D01*
X1575898Y-850890D01*
X1575985Y-850956D01*
Y-851090D01*
X1575898Y-851156D01*
G01X1579298Y-847023D02*
X1578952Y-847156D01*
X1578692Y-847490D01*
X1578518Y-847890D01*
X1578388Y-848423D01*
X1578345Y-849023D01*
X1578388Y-849623D01*
X1578518Y-850156D01*
X1578692Y-850556D01*
X1578952Y-850890D01*
X1579298Y-851023D01*
X1579645Y-850890D01*
X1579905Y-850556D01*
X1580078Y-850156D01*
X1580208Y-849623D01*
X1580252Y-849023D01*
X1580208Y-848423D01*
X1580078Y-847890D01*
X1579905Y-847490D01*
X1579645Y-847156D01*
X1579298Y-847023D01*
G01X1581745Y-850223D02*
X1582005Y-850690D01*
X1582352Y-850956D01*
X1582742Y-851023D01*
X1583088Y-850956D01*
X1583435Y-850623D01*
X1583652Y-850223D01*
X1583695Y-849823D01*
X1583608Y-849356D01*
X1583305Y-849023D01*
X1583002Y-848890D01*
X1582612D01*
G01X1583002D02*
X1583262Y-848690D01*
X1583478Y-848356D01*
X1583565Y-847956D01*
X1583478Y-847556D01*
X1583262Y-847223D01*
X1582872Y-847023D01*
X1582482Y-847090D01*
X1582092Y-847356D01*
G01X1575898Y-845156D02*
X1575812Y-845090D01*
Y-844956D01*
X1575898Y-844890D01*
X1575985Y-844956D01*
Y-845090D01*
X1575898Y-845156D01*
G01X1579298Y-845023D02*
Y-841023D01*
X1578778Y-841823D01*
G01Y-845023D02*
X1579818D01*
G01X1575898Y-857156D02*
X1575812Y-857090D01*
Y-856956D01*
X1575898Y-856890D01*
X1575985Y-856956D01*
Y-857090D01*
X1575898Y-857156D01*
G01X1579298Y-853023D02*
X1578952Y-853156D01*
X1578692Y-853490D01*
X1578518Y-853890D01*
X1578388Y-854423D01*
X1578345Y-855023D01*
X1578388Y-855623D01*
X1578518Y-856156D01*
X1578692Y-856556D01*
X1578952Y-856890D01*
X1579298Y-857023D01*
X1579645Y-856890D01*
X1579905Y-856556D01*
X1580078Y-856156D01*
X1580208Y-855623D01*
X1580252Y-855023D01*
X1580208Y-854423D01*
X1580078Y-853890D01*
X1579905Y-853490D01*
X1579645Y-853156D01*
X1579298Y-853023D01*
G01X1582698Y-857023D02*
Y-853023D01*
X1582178Y-853823D01*
G01Y-857023D02*
X1583218D01*
G01X1586098Y-853023D02*
X1585752Y-853156D01*
X1585492Y-853490D01*
X1585318Y-853890D01*
X1585188Y-854423D01*
X1585145Y-855023D01*
X1585188Y-855623D01*
X1585318Y-856156D01*
X1585492Y-856556D01*
X1585752Y-856890D01*
X1586098Y-857023D01*
X1586445Y-856890D01*
X1586705Y-856556D01*
X1586878Y-856156D01*
X1587008Y-855623D01*
X1587052Y-855023D01*
X1587008Y-854423D01*
X1586878Y-853890D01*
X1586705Y-853490D01*
X1586445Y-853156D01*
X1586098Y-853023D01*
G01X1607298Y-842823D02*
X1610298D01*
G01X1608798Y-841323D02*
Y-844323D01*
G01X1607298Y-845023D02*
X1610298D01*
G01X1570598Y-842823D02*
X1573598D01*
G01X1570598Y-854823D02*
X1573598D01*
G01X1570598Y-848823D02*
X1573598D01*
G01X1572098Y-847323D02*
Y-850323D01*
G01X1570598Y-851023D02*
X1573598D01*
G01X1572098Y-841323D02*
Y-844323D01*
G01X1570598Y-845023D02*
X1573598D01*
G01X1572098Y-853323D02*
Y-856323D01*
G01X1570598Y-857023D02*
X1573598D01*
G01X1569615Y-816023D02*
X1570698Y-812023D01*
X1571782Y-816023D01*
G01X1571392Y-814623D02*
X1570005D01*
G01X1573232Y-816023D02*
Y-812023D01*
X1574315D01*
X1574662Y-812223D01*
X1574878Y-812490D01*
X1574965Y-813023D01*
X1574878Y-813556D01*
X1574618Y-813890D01*
X1574315Y-814090D01*
X1573232D01*
G01X1574315D02*
X1574965Y-816023D01*
G01X1578365D02*
X1576632D01*
Y-812023D01*
X1578365D01*
G01X1577672Y-813956D02*
X1576632D01*
G01X1583778Y-812023D02*
X1584818D01*
G01X1584298D02*
Y-816023D01*
G01X1583778D02*
X1584818D01*
G01X1586702D02*
Y-812023D01*
X1588695Y-816023D01*
Y-812023D01*
G01X1593978D02*
X1595018D01*
G01X1594498D02*
Y-816023D01*
G01X1593978D02*
X1595018D01*
G01X1596902D02*
Y-812023D01*
X1598895Y-816023D01*
Y-812023D01*
G01X1602252Y-812356D02*
X1601992Y-812156D01*
X1601688Y-812023D01*
X1601342D01*
X1600952Y-812223D01*
X1600648Y-812556D01*
X1600432Y-812956D01*
X1600258Y-813623D01*
X1600215Y-814223D01*
X1600302Y-814823D01*
X1600432Y-815223D01*
X1600692Y-815623D01*
X1600995Y-815890D01*
X1601298Y-816023D01*
X1601602D01*
X1601905Y-815890D01*
X1602165Y-815690D01*
X1602382Y-815423D01*
G01X1603788Y-816023D02*
Y-812023D01*
G01X1605608D02*
Y-816023D01*
G01Y-814023D02*
X1603788D01*
G01X1608965Y-816023D02*
X1607232D01*
Y-812023D01*
X1608965D01*
G01X1608272Y-813956D02*
X1607232D01*
G01X1610588Y-815490D02*
X1610935Y-815823D01*
X1611325Y-816023D01*
X1611672D01*
X1612018Y-815823D01*
X1612278Y-815490D01*
X1612408Y-815023D01*
X1612322Y-814556D01*
X1612105Y-814156D01*
X1611715Y-813890D01*
X1611195Y-813756D01*
X1610892Y-813490D01*
X1610762Y-813023D01*
X1610848Y-812556D01*
X1611065Y-812223D01*
X1611368Y-812023D01*
X1611672D01*
X1611975Y-812156D01*
X1612235Y-812490D01*
G01X1612445Y-844723D02*
X1612705Y-845190D01*
X1613052Y-845456D01*
X1613442Y-845523D01*
X1613788Y-845456D01*
X1614135Y-845123D01*
X1614352Y-844723D01*
X1614395Y-844323D01*
X1614308Y-843856D01*
X1614005Y-843523D01*
X1613702Y-843390D01*
X1613312D01*
G01X1613702D02*
X1613962Y-843190D01*
X1614178Y-842856D01*
X1614265Y-842456D01*
X1614178Y-842056D01*
X1613962Y-841723D01*
X1613572Y-841523D01*
X1613182Y-841590D01*
X1612792Y-841856D01*
G01X1616798Y-841523D02*
X1616452Y-841656D01*
X1616192Y-841990D01*
X1616018Y-842390D01*
X1615888Y-842923D01*
X1615845Y-843523D01*
X1615888Y-844123D01*
X1616018Y-844656D01*
X1616192Y-845056D01*
X1616452Y-845390D01*
X1616798Y-845523D01*
X1617145Y-845390D01*
X1617405Y-845056D01*
X1617578Y-844656D01*
X1617708Y-844123D01*
X1617752Y-843523D01*
X1617708Y-842923D01*
X1617578Y-842390D01*
X1617405Y-841990D01*
X1617145Y-841656D01*
X1616798Y-841523D01*
G01X1612598Y-852523D02*
X1615598D01*
G01X1614098D02*
X1611798Y-857023D01*
X1610298Y-854823D01*
G01X1633598Y-503523D02*
X1663598D01*
G01X1633598Y-73523D02*
X1663598D01*
G01X1659978Y109393D02*
X1658088Y110644D01*
X1655884Y111477D01*
X1653364D01*
X1650528Y110227D01*
X1648324Y108144D01*
X1646748Y105644D01*
X1645488Y101477D01*
X1645173Y97727D01*
X1645804Y93977D01*
X1646748Y91477D01*
X1648638Y88977D01*
X1650844Y87310D01*
X1653048Y86477D01*
X1655253D01*
X1657458Y87310D01*
X1659348Y88560D01*
X1660924Y90226D01*
G01X1633598Y356477D02*
X1663598D01*
G01X1623598Y696477D02*
X1633598D01*
G01X1655173Y-693523D02*
X1663048Y-668523D01*
X1670924Y-693523D01*
G01X1668088Y-684773D02*
X1658008D01*
G01X1665568Y-310189D02*
X1666828Y-308940D01*
X1667773Y-306857D01*
X1668404Y-303939D01*
X1667773Y-301440D01*
X1666514Y-299773D01*
X1664308Y-298523D01*
X1655804D01*
Y-323523D01*
X1666199D01*
X1668404Y-321857D01*
X1669663Y-319356D01*
X1670293Y-316440D01*
X1669663Y-313524D01*
X1667773Y-311023D01*
X1665568Y-310189D01*
X1655804D01*
G01X1656118Y536477D02*
Y561477D01*
X1662418D01*
X1664938Y560227D01*
X1666828Y558560D01*
X1668404Y556061D01*
X1669663Y553143D01*
X1669978Y548977D01*
X1669663Y544810D01*
X1668404Y541893D01*
X1666828Y539393D01*
X1664938Y537727D01*
X1662418Y536477D01*
X1656118D01*
M02*
